<?xml version="1.0" standalone="no"?>
<!DOCTYPE svg PUBLIC "-//W3C//DTD SVG 1.1//EN" "http://www.w3.org/Graphics/SVG/1.1/DTD/svg11.dtd" >
<svg xmlns="http://www.w3.org/2000/svg" xmlns:xlink="http://www.w3.org/1999/xlink" version="1.1">
<metadata>
Created by FontForge 20170731 at Tue Sep 20 20:37:21 2005
 By Aleksey,,,
(c) Copyright 2005 by Tong Duc Thinh. All Rights Reserved
</metadata>
<defs>
<font id="SFUDINEngAlt" horiz-adv-x="370" >
  <font-face 
    font-family="SFU DIN"
    font-weight="400"
    font-stretch="normal"
    units-per-em="1000"
    panose-1="0 0 4 0 0 0 0 0 0 0"
    ascent="800"
    descent="-200"
    x-height="507"
    cap-height="712"
    bbox="-165 -224 1000 1136"
    underline-thickness="50"
    underline-position="-175"
    unicode-range="U+0020-F002"
  />
<missing-glyph horiz-adv-x="500" 
d="M63 0v790h375v-790h-375zM125 63h250v665h-250v-665z" />
    <glyph glyph-name=".notdef" horiz-adv-x="500" 
d="M63 0v790h375v-790h-375zM125 63h250v665h-250v-665z" />
    <glyph glyph-name=".null" horiz-adv-x="0" 
 />
    <glyph glyph-name="nonmarkingreturn" horiz-adv-x="186" 
 />
    <glyph glyph-name="space" unicode=" " horiz-adv-x="186" 
 />
    <glyph glyph-name="exclam" unicode="!" horiz-adv-x="240" 
d="M95 176l-39 536h128l-39 -536h-50zM69 0v102h102v-102h-102z" />
    <glyph glyph-name="quotedbl" unicode="&#x22;" horiz-adv-x="278" 
d="M33 536v176h80v-176h-80zM165 536v176h80v-176h-80z" />
    <glyph glyph-name="numbersign" unicode="#" horiz-adv-x="372" 
d="M180 0l29 215h-84l-29 -215h-68l29 215h-51v60h59l22 162h-50v60h58l29 215h68l-29 -215h84l29 215h68l-29 -215h51v-60h-59l-22 -162h50v-60h-58l-29 -215h-68zM217 275l22 162h-84l-22 -162h84z" />
    <glyph glyph-name="dollar" unicode="$" horiz-adv-x="372" 
d="M161 437v179q-43 -16 -43 -92q0 -39 7 -55q8 -19 36 -32zM212 304v-208q30 7 40 35q7 21 7 71q0 45 -5 60q-9 28 -42 42zM161 -90v84q-65 8 -107.5 54.5t-42.5 112.5v40h102v-36q0 -58 48 -69v230l-34 14q-63 26 -88 72q-23 40 -23 111q0 79 37.5 132.5t107.5 62.5v75h51
v-75q66 -8 109 -56q40 -47 40 -105v-50h-102v23q0 71 -47 86v-201l42 -17q64 -26 87 -72q20 -40 20 -123q0 -194 -149 -209v-84h-51z" />
    <glyph glyph-name="percent" unicode="%" horiz-adv-x="352" 
d="M94 555q25 0 25 26v51q0 26 -25 26t-25 -26v-51q0 -26 25 -26zM94 495q-39 0 -62 21t-23 55v65q0 38 23 60t62 22t62 -22t23 -60v-65q0 -34 -23 -55t-62 -21zM233 131v-51q0 -26 25 -26t25 26v51q0 26 -25 26t-25 -26zM258 -6q-39 0 -62 21t-23 55v65q0 38 23 60t62 22
t62 -22t23 -60v-65q0 -34 -23 -55t-62 -21zM21 0l244 712h66l-244 -712h-66z" />
    <glyph glyph-name="ampersand" unicode="&#x26;" horiz-adv-x="481" 
d="M353 0l-34 54q-60 -60 -136 -60q-62 0 -104.5 46t-42.5 119q0 98 98 185q-62 88 -62 164q0 60 36.5 99t102.5 39q63 0 99 -37t36 -92q0 -86 -104 -179q30 -49 94 -149l55 75l63 -44l-76 -98l77 -122h-102zM126 164q0 -37 21.5 -63.5t54.5 -26.5q42 0 76 43l-98 156
q-54 -56 -54 -109zM162 506q0 -39 39 -103q61 59 61 112q0 20 -13.5 35.5t-35.5 15.5t-36.5 -18t-14.5 -42z" />
    <glyph glyph-name="quotesingle" unicode="'" horiz-adv-x="186" 
d="M53 536v176h80v-176h-80z" />
    <glyph glyph-name="parenleft" unicode="(" horiz-adv-x="222" 
d="M169 712h34q-51 -179 -51 -434q0 -193 51 -378h-34q-58 83 -89 198q-30 106 -30 208q0 104 32 213.5t87 192.5z" />
    <glyph glyph-name="parenright" unicode=")" horiz-adv-x="222" 
d="M53 -100h-34q51 179 51 434q0 193 -51 378h34q58 -83 90 -198q29 -106 29 -208q0 -104 -32 -213.5t-87 -192.5z" />
    <glyph glyph-name="asterisk" unicode="*" 
d="M31 604l28 52l98 -60l-4 116h64l-4 -116l98 60l28 -52l-100 -56l100 -55l-28 -53l-98 60l4 -116h-64l4 116l-98 -60l-28 53l100 55z" />
    <glyph glyph-name="plus" unicode="+" horiz-adv-x="600" 
d="M260 293v213h80v-213h213v-80h-213v-213h-80v213h-213v80h213z" />
    <glyph glyph-name="comma" unicode="," horiz-adv-x="186" 
d="M42 -74v176h102v-102z" />
    <glyph glyph-name="hyphen" unicode="-" horiz-adv-x="389" 
d="M44 226v102h301v-102h-301z" />
    <glyph glyph-name="hyphen" unicode="&#x2010;" horiz-adv-x="389" 
d="M44 226v102h301v-102h-301z" />
    <glyph glyph-name="period" unicode="." horiz-adv-x="186" 
d="M42 0v102h102v-102h-102z" />
    <glyph glyph-name="slash" unicode="/" horiz-adv-x="222" 
d="M5 -6l132 724h80l-132 -724h-80z" />
    <glyph glyph-name="zero" unicode="0" horiz-adv-x="372" 
d="M34 147v418q0 69 46 112q43 41 106 41t107.5 -42t44.5 -111v-418q0 -69 -44.5 -111t-107.5 -42t-106 41q-46 43 -46 112zM136 565v-418q0 -22 14 -36.5t36 -14.5t36 14.5t14 36.5v418q0 22 -14 36.5t-36 14.5t-36 -14.5t-14 -36.5z" />
    <glyph glyph-name="one" unicode="1" horiz-adv-x="372" 
d="M155 0v604l-102 -75v108l102 75h102v-712h-102z" />
    <glyph glyph-name="two" unicode="2" horiz-adv-x="372" 
d="M34 0v96l184 347q18 34 18 94q0 38 -6 53q-11 26 -44 26q-50 0 -50 -51v-58h-102v56q0 64 44.5 109.5t108.5 45.5q75 0 115 -54q36 -48 36 -125q0 -54 -5 -77q-6 -27 -29 -71l-150 -289h184v-102h-304z" />
    <glyph glyph-name="three" unicode="3" horiz-adv-x="372" 
d="M155 322v90q44 0 59 8q22 13 22 54v92q0 50 -50 50q-25 0 -37.5 -15.5t-12.5 -34.5v-58h-102v59q0 63 45.5 107t108.5 44q69 0 111 -50q22 -26 30 -53q9 -33 9 -98q0 -74 -10 -98.5t-53 -50.5q45 -28 55 -58q8 -23 8 -105q0 -57 -2 -76q-5 -41 -25 -70q-44 -65 -126 -65
q-58 0 -100 34q-51 41 -51 118v58h102v-53q0 -55 50 -55t50 57v102q0 41 -15.5 54t-65.5 13z" />
    <glyph glyph-name="four" unicode="4" horiz-adv-x="372" 
d="M212 0v106h-203v96l147 510h108l-153 -510h101v203h102v-203h49v-96h-49v-106h-102z" />
    <glyph glyph-name="five" unicode="5" horiz-adv-x="372" 
d="M338 712v-96h-202v-192q35 33 85 33q53 0 85 -33t32 -93v-184q0 -69 -44.5 -111t-107.5 -42t-106 41q-46 43 -46 112v30h102v-26q0 -55 52 -55q48 0 48 53v167q0 21 -13.5 36t-34.5 15q-32 0 -52 -39h-90v384h292z" />
    <glyph glyph-name="six" unicode="6" horiz-adv-x="372" 
d="M34 147v418q0 69 46 112q43 41 106 41t107.5 -42t44.5 -111h-102q0 22 -14 36.5t-36 14.5t-36 -14.5t-14 -36.5v-96q49 23 94 23q56 0 86 -46q22 -34 22 -94v-205q0 -69 -44.5 -111t-107.5 -42t-106 41q-46 43 -46 112zM136 351v-204q0 -22 15 -36.5t35 -14.5t35 14.5
t15 36.5v204q0 22 -15 36.5t-35 14.5t-35 -14.5t-15 -36.5z" />
    <glyph glyph-name="seven" unicode="7" horiz-adv-x="372" 
d="M57 0l179 616h-112v-82h-90v178h304v-102l-173 -610h-108z" />
    <glyph glyph-name="eight" unicode="8" horiz-adv-x="372" 
d="M236 462v104q0 21 -15 35.5t-35 14.5t-35 -14.5t-15 -35.5v-104q0 -21 15 -35.5t35 -14.5t35 14.5t15 35.5zM34 526q0 56 8 85q8 25 29 52q43 55 115 55t115 -55q21 -27 29 -52q8 -29 8 -85q0 -69 -7 -93q-9 -31 -44 -59q35 -26 44 -61q7 -27 7 -114q0 -63 -6 -92
q-6 -25 -22 -50q-42 -63 -124 -63t-124 63q-16 25 -22 50q-6 29 -6 92q0 87 7 114q9 35 44 61q-35 28 -44 59q-7 24 -7 93zM236 146v140q0 21 -15 35.5t-35 14.5t-35 -14.5t-15 -35.5v-140q0 -21 15 -35.5t35 -14.5t35 14.5t15 35.5z" />
    <glyph glyph-name="nine" unicode="9" horiz-adv-x="372" 
d="M34 360v205q0 69 46 112q43 41 106 41t107.5 -42t44.5 -111v-418q0 -69 -44.5 -111t-107.5 -42t-106 41q-46 43 -46 112h102q0 -22 14 -36.5t36 -14.5t36 14.5t14 36.5v96q-49 -23 -94 -23q-56 0 -86 46q-22 34 -22 94zM136 565v-204q0 -22 15 -36.5t35 -14.5t35 14.5
t15 36.5v204q0 22 -15 36.5t-35 14.5t-35 -14.5t-15 -36.5z" />
    <glyph glyph-name="colon" unicode=":" horiz-adv-x="186" 
d="M42 0v102h102v-102h-102zM42 227v102h102v-102h-102z" />
    <glyph glyph-name="semicolon" unicode=";" horiz-adv-x="186" 
d="M42 -74v176h102v-102zM42 227v102h102v-102h-102z" />
    <glyph glyph-name="less" unicode="&#x3c;" horiz-adv-x="600" 
d="M553 514v-80l-397 -181l397 -181v-80l-506 231v60z" />
    <glyph glyph-name="equal" unicode="=" horiz-adv-x="600" 
d="M47 313v80h506v-80h-506zM47 113v80h506v-80h-506z" />
    <glyph glyph-name="greater" unicode="&#x3e;" horiz-adv-x="600" 
d="M47 -8v80l397 181l-397 181v80l506 -231v-60z" />
    <glyph glyph-name="question" unicode="?" 
d="M32 507v59q0 63 45 107.5t109 44.5q48 0 86 -26.5t55 -70.5q11 -28 11 -82q0 -87 -16 -114l-69 -118q-17 -29 -17 -51v-80h-102v93q0 40 25 81l64 104q13 21 13 58v53q0 21 -14.5 36t-35.5 15q-20 0 -36 -14t-16 -37v-58h-102zM134 0v102h102v-102h-102z" />
    <glyph glyph-name="at" unicode="@" horiz-adv-x="800" 
d="M513 410q0 37 -19.5 60t-54.5 23q-62 0 -110 -66q-44 -61 -44 -129q0 -87 83 -87q54 0 101 70q44 65 44 129zM639 548l-87 -275q-10 -32 -10 -45q0 -29 23 -29q47 0 91.5 71t44.5 144q0 103 -81 172q-78 66 -187 66q-124 0 -213 -90t-89 -209q0 -123 89 -208t218 -85
q71 0 139 30.5t104 74.5h77q-48 -80 -136.5 -125.5t-191.5 -45.5q-158 0 -267 104t-109 260q0 149 111.5 254.5t266.5 105.5q144 0 245 -85t101 -214q0 -116 -82 -203q-73 -77 -146 -77q-70 0 -78 63h-2q-59 -63 -122 -63t-103 44t-40 108q0 105 65 187q68 87 169 87
q86 0 115 -78h2l20 61h63z" />
    <glyph glyph-name="A" unicode="A" horiz-adv-x="407" 
d="M254 249l-50 258h-2l-50 -258h102zM2 0l159 712h85l159 -712h-102l-30 153h-139l-30 -153h-102z" />
    <glyph glyph-name="B" unicode="B" horiz-adv-x="426" 
d="M48 0v712h149q93 0 140 -55q41 -48 41 -125v-26q0 -53 -18 -84q-15 -25 -52 -48q70 -34 70 -140v-40q0 -194 -191 -194h-139zM150 330v-228h44q56 0 75 34q13 24 13 86q0 58 -16 81q-19 27 -71 27h-45zM150 616v-196h46q49 0 69 26q17 22 17 74q0 96 -90 96h-42z" />
    <glyph glyph-name="C" unicode="C" horiz-adv-x="407" 
d="M372 203v-44q0 -67 -47.5 -116t-114.5 -49q-69 0 -113 35q-55 44 -55 133v392q0 71 46.5 117.5t119.5 46.5q71 0 117.5 -48t46.5 -122v-40h-102v34q0 31 -17.5 52.5t-45.5 21.5q-63 0 -63 -83v-364q0 -73 62 -73q64 0 64 72v35h102z" />
    <glyph glyph-name="D" unicode="D" horiz-adv-x="426" 
d="M48 0v712h151q86 0 132.5 -48.5t46.5 -135.5v-333q0 -195 -188 -195h-142zM150 616v-520h47q79 0 79 89v343q0 88 -79 88h-47z" />
    <glyph glyph-name="E" unicode="E" 
d="M48 0v712h304v-96h-202v-209h176v-96h-176v-209h202v-102h-304z" />
    <glyph glyph-name="F" unicode="F" 
d="M48 0v712h304v-96h-202v-216h176v-96h-176v-304h-102z" />
    <glyph glyph-name="G" unicode="G" horiz-adv-x="426" 
d="M42 168v376q0 82 54 131q49 43 117 43t117 -43q54 -49 54 -131v-36h-102v36q0 35 -19.5 53.5t-49.5 18.5t-48 -18q-21 -19 -21 -54v-376q0 -35 21 -54q18 -18 48 -18t49.5 18.5t19.5 53.5v134h-81v90h183v-224q0 -82 -54 -130q-49 -44 -117 -44t-117 44q-54 48 -54 130z
" />
    <glyph glyph-name="H" unicode="H" horiz-adv-x="426" 
d="M48 0v712h102v-305h126v305h102v-712h-102v317h-126v-317h-102z" />
    <glyph glyph-name="I" unicode="I" horiz-adv-x="204" 
d="M51 0v712h102v-712h-102z" />
    <glyph glyph-name="J" unicode="J" horiz-adv-x="333" 
d="M285 712v-544q0 -73 -46 -122q-49 -52 -128 -52q-76 0 -133 64l80 64q26 -26 56 -26q26 0 44 16q25 23 25 70v530h102z" />
    <glyph glyph-name="K" unicode="K" horiz-adv-x="426" 
d="M48 0v712h102v-325h2l149 325h102l-139 -285l165 -427h-108l-116 316l-55 -103v-213h-102z" />
    <glyph glyph-name="L" unicode="L" 
d="M48 0v712h102v-610h202v-102h-304z" />
    <glyph glyph-name="M" unicode="M" horiz-adv-x="556" 
d="M48 0v712h98l131 -377h2l130 377h99v-712h-102v433h-2l-101 -306h-51l-100 306h-2v-433h-102z" />
    <glyph glyph-name="N" unicode="N" horiz-adv-x="444" 
d="M44 0v712h98l154 -429h2v429h102v-712h-96l-156 428h-2v-428h-102z" />
    <glyph glyph-name="O" unicode="O" horiz-adv-x="426" 
d="M42 168v376q0 82 54 131q49 43 117 43t117 -43q54 -49 54 -131v-376q0 -82 -54 -130q-49 -44 -117 -44t-117 44q-54 48 -54 130zM144 544v-376q0 -35 21 -54q18 -18 48 -18t49.5 18.5t19.5 53.5v376q0 35 -19.5 53.5t-49.5 18.5t-48 -18q-21 -19 -21 -54z" />
    <glyph glyph-name="P" unicode="P" horiz-adv-x="407" 
d="M48 0v712h153q85 0 131.5 -49.5t46.5 -167.5q0 -96 -29 -143q-45 -74 -148 -74h-52v-278h-102zM150 616v-242h49q56 0 73 33q11 22 11 87q0 64 -10 86q-16 36 -70 36h-53z" />
    <glyph glyph-name="Q" unicode="Q" horiz-adv-x="426" 
d="M144 544v-376q0 -35 21 -54q18 -18 48 -18q13 0 22 4l-46 37l52 62l41 -33v378q0 35 -19.5 53.5t-49.5 18.5t-48 -18q-21 -19 -21 -54zM42 168v376q0 82 54 131q49 43 117 43t117 -43q54 -49 54 -131v-376q0 -41 -15 -73l63 -51l-52 -62l-60 49q-46 -37 -107 -37
q-68 0 -117 44q-54 48 -54 130z" />
    <glyph glyph-name="R" unicode="R" horiz-adv-x="426" 
d="M150 616v-222h58q50 0 68 29q14 23 14 82t-15 83q-19 28 -72 28h-53zM48 0v712h164q180 0 180 -209q0 -129 -88 -178l110 -325h-108l-95 304h-61v-304h-102z" />
    <glyph glyph-name="S" unicode="S" horiz-adv-x="406" 
d="M378 557v-50h-102v23q0 86 -72 86q-69 0 -69 -92q0 -44 9 -60q11 -20 49 -35l78 -31q64 -25 87 -72q20 -40 20 -123q0 -209 -176 -209q-74 0 -124 48.5t-50 120.5v38h102v-32q0 -73 72 -73q47 0 63 29q11 20 11 77q0 51 -7 67q-11 24 -52 41l-73 30q-63 26 -88 72
q-23 40 -23 111q0 85 44 138q47 57 131 57q73 0 123 -51q47 -48 47 -110z" />
    <glyph glyph-name="T" unicode="T" horiz-adv-x="332" 
d="M115 0v616h-118v96h338v-96h-118v-616h-102z" />
    <glyph glyph-name="U" unicode="U" horiz-adv-x="426" 
d="M378 712v-552q0 -69 -48 -117.5t-117 -48.5q-68 0 -116.5 48.5t-48.5 117.5v552h102v-542q0 -74 63 -74t63 74v542h102z" />
    <glyph glyph-name="V" unicode="V" horiz-adv-x="407" 
d="M394 712l-146 -712h-90l-145 712h108l81 -497h2l82 497h108z" />
    <glyph glyph-name="W" unicode="W" horiz-adv-x="593" 
d="M577 712l-106 -712h-96l-78 462h-2l-77 -462h-96l-106 712h108l51 -452h2l80 452h78l83 -463h2l49 463h108z" />
    <glyph glyph-name="X" unicode="X" horiz-adv-x="389" 
d="M-2 0l144 373l-133 339h108l77 -211l78 211h108l-136 -339l147 -373h-108l-89 240l-88 -240h-108z" />
    <glyph glyph-name="Y" unicode="Y" horiz-adv-x="388" 
d="M143 0v301l-140 411h108l82 -283h2l82 283h108l-140 -411v-301h-102z" />
    <glyph glyph-name="Z" unicode="Z" horiz-adv-x="333" 
d="M15 0v90l192 526h-182v96h293v-81l-196 -535h196v-96h-303z" />
    <glyph glyph-name="bracketleft" unicode="[" horiz-adv-x="222" 
d="M214 712v-60h-66v-692h66v-60h-156v812h156z" />
    <glyph glyph-name="backslash" unicode="\" horiz-adv-x="222" 
d="M85 718l132 -724h-80l-132 724h80z" />
    <glyph glyph-name="bracketright" unicode="]" horiz-adv-x="222" 
d="M8 -100v60h66v692h-66v60h156v-812h-156z" />
    <glyph glyph-name="asciicircum" unicode="^" horiz-adv-x="600" 
d="M50 283l217 429h66l217 -429h-80l-170 339l-170 -339h-80z" />
    <glyph glyph-name="underscore" unicode="_" horiz-adv-x="500" 
d="M0 -125v50h500v-50h-500z" />
    <glyph glyph-name="grave" unicode="`" horiz-adv-x="186" 
d="M68 715l90 -141h-66l-132 141h108z" />
    <glyph glyph-name="a" unicode="a" 
d="M235 0v52h-2q-23 -31 -41 -43q-23 -15 -57 -15q-110 0 -110 135q0 91 34.5 131.5t126.5 40.5q8 0 22 -1q18 -2 27 -2v53q0 60 -51 60q-49 0 -58 -51h-99q5 68 47 110.5t110 42.5q67 0 108 -40q45 -43 45 -120v-353h-102zM235 149v69q-16 3 -28 3q-80 0 -80 -72
q0 -65 53 -65q55 0 55 65z" />
    <glyph glyph-name="b" unicode="b" horiz-adv-x="389" 
d="M42 0v712h102v-251h2q35 52 94 52q62 0 91 -46q16 -26 16 -123v-193q0 -78 -17 -109q-26 -48 -89 -48q-34 0 -58 15q-14 9 -39 37v-46h-102zM245 165v186q0 60 -50 60q-22 0 -36.5 -15.5t-14.5 -39.5v-197q0 -28 14 -45.5t37 -17.5q50 0 50 69z" />
    <glyph glyph-name="c" unicode="c" 
d="M150 353v-207q0 -50 50 -50q45 0 50 51h102q0 -65 -42 -109t-110 -44q-93 0 -133 73q-19 35 -19 103v167q0 68 19 103q40 73 133 73q69 0 110.5 -45t41.5 -117h-102q0 60 -50 60t-50 -58z" />
    <glyph glyph-name="d" unicode="d" horiz-adv-x="389" 
d="M144 351v-186q0 -69 50 -69q23 0 37 17.5t14 45.5v197q0 24 -14.5 39.5t-36.5 15.5q-50 0 -50 -60zM245 0v46q-25 -28 -39 -37q-24 -15 -58 -15q-63 0 -89 48q-17 31 -17 109v193q0 97 16 123q29 46 91 46q59 0 94 -52h2v251h102v-712h-102z" />
    <glyph glyph-name="e" unicode="e" 
d="M337 215h-202v-69q0 -50 50 -50q45 0 50 51h102q0 -65 -42 -109t-110 -44q-93 0 -133 73q-19 35 -19 103v167q0 68 19 103q40 73 133 73q69 0 110.5 -45t41.5 -113v-140zM135 353v-58h100v58q0 58 -50 58t-50 -58z" />
    <glyph glyph-name="f" unicode="f" horiz-adv-x="222" 
d="M55 0v427h-50v80h50v69q0 69 41 105q35 31 90 31h47v-96h-46q-30 0 -30 -35v-74h76v-80h-76v-427h-102z" />
    <glyph glyph-name="g" unicode="g" horiz-adv-x="389" 
d="M42 -59h102q1 -20 15 -35t39 -15q47 0 47 55v100h-2q-35 -52 -95 -52q-63 0 -89 48q-17 31 -17 109v193q0 97 16 123q29 46 91 46q34 0 57 -15q14 -9 39 -37v46h102v-569q0 -59 -36 -100q-42 -49 -117 -49q-55 0 -94 32q-49 40 -58 120zM144 342v-186q0 -60 50 -60
q22 0 36.5 15.5t14.5 39.5v197q0 28 -14 45.5t-37 17.5q-50 0 -50 -69z" />
    <glyph glyph-name="h" unicode="h" horiz-adv-x="389" 
d="M42 0v712h102v-254h2q36 55 96 55q43 0 72 -28q33 -33 33 -96v-389h-102v351q0 60 -50 60q-51 0 -51 -70v-341h-102z" />
    <glyph glyph-name="i" unicode="i" horiz-adv-x="186" 
d="M42 0v507h102v-507h-102zM42 610v102h102v-102h-102z" />
    <glyph glyph-name="j" unicode="j" horiz-adv-x="186" 
d="M42 -16v523h102v-561q0 -73 -45.5 -112t-120.5 -39v96q37 0 50.5 19t13.5 74zM42 610v102h102v-102h-102z" />
    <glyph glyph-name="k" unicode="k" horiz-adv-x="389" 
d="M42 0v712h102v-426h2l123 221h102l-121 -206l146 -301h-111l-92 219l-49 -77v-142h-102z" />
    <glyph glyph-name="l" unicode="l" horiz-adv-x="186" 
d="M36 136v576h102v-569q0 -28 10.5 -39t39.5 -14v-96q-77 0 -111 27q-41 32 -41 115z" />
    <glyph glyph-name="m" unicode="m" horiz-adv-x="592" 
d="M42 0v507h102v-49h2q36 55 96 55q54 0 91 -51q46 51 106 51q44 0 75 -28q36 -33 36 -96v-389h-102v351q0 60 -50 60q-51 0 -51 -70v-341h-102v351q0 60 -50 60q-51 0 -51 -70v-341h-102z" />
    <glyph glyph-name="n" unicode="n" horiz-adv-x="389" 
d="M42 0v507h102v-49h2q36 55 96 55q43 0 72 -28q33 -33 33 -96v-389h-102v351q0 60 -50 60q-51 0 -51 -70v-341h-102z" />
    <glyph glyph-name="o" unicode="o" 
d="M33 170v167q0 68 19 103q40 73 133 73t133 -73q19 -35 19 -103v-167q0 -68 -19 -103q-40 -73 -133 -73t-133 73q-19 35 -19 103zM135 353v-199q0 -58 50 -58t50 58v199q0 58 -50 58t-50 -58z" />
    <glyph glyph-name="p" unicode="p" horiz-adv-x="389" 
d="M42 -205v712h102v-46q25 28 39 37q24 15 58 15q63 0 89 -48q17 -31 17 -109v-193q0 -97 -16 -123q-29 -46 -91 -46q-59 0 -94 52h-2v-251h-102zM245 156v186q0 69 -50 69q-23 0 -37 -17.5t-14 -45.5v-197q0 -24 14.5 -39.5t36.5 -15.5q50 0 50 60z" />
    <glyph glyph-name="q" unicode="q" horiz-adv-x="389" 
d="M245 -205v251h-2q-35 -52 -94 -52q-62 0 -91 46q-16 26 -16 123v193q0 78 17 109q26 48 89 48q34 0 58 -15q14 -9 39 -37v46h102v-712h-102zM144 342v-186q0 -60 50 -60q22 0 36.5 15.5t14.5 39.5v197q0 28 -14 45.5t-37 17.5q-50 0 -50 -69z" />
    <glyph glyph-name="r" unicode="r" horiz-adv-x="278" 
d="M42 0v507h102v-54q68 60 135 60v-108q-15 6 -31 6q-39 0 -68 -24q-36 -30 -36 -86v-301h-102z" />
    <glyph glyph-name="s" unicode="s" horiz-adv-x="352" 
d="M323 365h-96q-2 52 -52 52q-23 0 -36.5 -15t-13.5 -36q0 -35 43 -52l60 -24q100 -40 100 -143q0 -64 -43.5 -108.5t-108.5 -44.5q-63 0 -104 39q-45 42 -48 114h96q8 -57 55 -57q23 0 40 15.5t17 39.5q0 43 -51 62l-49 18q-103 38 -103 140q0 64 44 106t106 42
t102.5 -42.5t41.5 -105.5z" />
    <glyph glyph-name="t" unicode="t" horiz-adv-x="204" 
d="M42 507v154h102v-154h63v-80h-63v-281q0 -33 15 -43q11 -7 48 -7v-96h-42q-63 0 -96 39q-27 33 -27 80v308h-51v80h51z" />
    <glyph glyph-name="u" unicode="u" horiz-adv-x="389" 
d="M347 507v-507h-102v49h-2q-36 -55 -96 -55q-43 0 -72 28q-33 33 -33 96v389h102v-351q0 -60 50 -60q51 0 51 70v341h102z" />
    <glyph glyph-name="v" unicode="v" horiz-adv-x="352" 
d="M353 507l-132 -507h-90l-132 507h108l68 -324h2l68 324h108z" />
    <glyph glyph-name="w" unicode="w" horiz-adv-x="536" 
d="M535 507l-120 -507h-90l-56 301h-2l-56 -301h-90l-120 507h108l62 -315h2l57 315h80l54 -315h2l61 315h108z" />
    <glyph glyph-name="x" unicode="x" horiz-adv-x="332" 
d="M-11 0l125 259l-119 248h108l63 -144l63 144h108l-121 -248l127 -259h-108l-69 155l-69 -155h-108z" />
    <glyph glyph-name="y" unicode="y" horiz-adv-x="352" 
d="M-1 507h108l70 -316h2l69 316h105l-146 -595q-29 -117 -141 -117h-28v96h23q32 0 46 23t31 109z" />
    <glyph glyph-name="z" unicode="z" horiz-adv-x="315" 
d="M17 0v81l165 336h-152v90h268v-81l-165 -330h165v-96h-281z" />
    <glyph glyph-name="braceleft" unicode="{" horiz-adv-x="222" 
d="M3 277v60q28 0 46 31.5t18 80.5v152q0 51 28.5 81t69.5 30h54v-60h-18q-44 0 -44 -66v-151q0 -60 -24 -95q-19 -28 -45 -33v-2q26 -5 45 -32q24 -35 24 -97v-149q0 -67 44 -67h18v-60h-54q-41 0 -69.5 30t-28.5 81v151q0 50 -18 82.5t-46 32.5z" />
    <glyph glyph-name="bar" unicode="|" horiz-adv-x="222" 
d="M71 -6v724h80v-724h-80z" />
    <glyph glyph-name="braceright" unicode="}" horiz-adv-x="222" 
d="M219 337v-60q-28 0 -46 -32.5t-18 -82.5v-151q0 -51 -28.5 -81t-69.5 -30h-54v60h18q44 0 44 67v149q0 62 24 97q19 27 45 32v2q-26 5 -45 33q-24 35 -24 95v151q0 66 -44 66h-18v60h54q41 0 69.5 -30t28.5 -81v-152q0 -49 18 -80.5t46 -31.5z" />
    <glyph glyph-name="asciitilde" unicode="~" horiz-adv-x="600" 
d="M495 330v0l36 -65q-46 -87 -125 -87q-38 0 -111 33q-79 36 -102 36q-40 0 -88 -71l-36 64q46 87 125 87q38 0 111 -33q79 -36 102 -36q41 0 88 72z" />
    <glyph glyph-name="euro" horiz-adv-x="498" 
d="M522 633l-23 -156l-48 6q0 157 -94 157q-103 0 -161 -211h172l-21 -48h-164q-6 -24 -16 -73h147l-21 -47h-134q-6 -41 -6 -74q0 -56 21 -91q26 -43 78 -43q58 0 101 68q24 38 51 119l55 -10l-54 -188q-77 -53 -159 -53q-111 0 -166 84q-47 71 -47 188h-74l21 47h56
q3 25 12 73h-66l21 48h59q41 112 108 183q83 88 187 88q94 0 165 -67z" />
    <glyph glyph-name="exclamdown" unicode="&#xa1;" horiz-adv-x="240" 
d="M56 -205l39 536h50l39 -536h-128zM69 405v102h102v-102h-102z" />
    <glyph glyph-name="cent" unicode="&#xa2;" horiz-adv-x="372" 
d="M164 96v315q-28 -10 -28 -54v-215q0 -36 28 -46zM164 -90v84q-76 6 -111 70q-19 35 -19 103v172q0 68 19 103q34 63 111 71v75h41v-75q61 -5 97 -49.5t36 -112.5h-102q0 49 -31 60v-315q27 9 31 51h102q0 -61 -36.5 -104.5t-96.5 -48.5v-84h-41z" />
    <glyph glyph-name="sterling" unicode="&#xa3;" horiz-adv-x="372" 
d="M13 298v71h55q-38 71 -38 152q0 86 38 138q43 59 124 59q57 0 99 -39q49 -45 49 -124v-45h-96v40q0 72 -55 72q-63 0 -63 -102q0 -67 32 -151h116v-71h-93q18 -50 18 -88q0 -53 -32 -109q81 -11 82 -11q40 0 66 32l68 -69q-43 -59 -111 -59q-18 0 -82.5 9.5t-87.5 9.5
q-44 0 -79 -16v86q28 17 64 20q27 40 27 87q0 49 -23 108h-78z" />
    <glyph glyph-name="currency" unicode="&#xa4;" horiz-adv-x="372" 
d="M4 214l42 42q-35 37 -35 100t34 100l-41 42l41 41l41 -42q39 34 100 34q62 0 101 -34l41 42l40 -41l-41 -41q34 -39 34 -101q0 -63 -34 -100l41 -41l-41 -41l-41 41q-37 -34 -100 -34q-62 0 -100 35l-41 -42zM77 356q0 -45 32 -77t77 -32t77 32t32 77t-32 77t-77 32
t-77 -32t-32 -77z" />
    <glyph glyph-name="yen" unicode="&#xa5;" horiz-adv-x="372" 
d="M138 0v172h-114v66h114v49h-114v66h98l-118 359h102l79 -283h2l79 283h102l-118 -359h98v-66h-114v-49h114v-66h-114v-172h-96z" />
    <glyph glyph-name="brokenbar" unicode="&#xa6;" horiz-adv-x="222" 
d="M71 -6v275h80v-275h-80zM71 443v275h80v-275h-80z" />
    <glyph glyph-name="section" unicode="&#xa7;" 
d="M325 581v-46h-85v42q0 25 -13.5 43t-36.5 18q-52 0 -52 -73q0 -36 7.5 -49.5t39.5 -34.5l97 -63q40 -26 50 -70q5 -21 5 -89q0 -76 -13 -103q-16 -31 -74 -58q50 -26 65 -57q10 -23 10 -84q0 -78 -25 -114q-37 -54 -114 -54q-74 0 -112 50q-31 39 -31 93v42h85v-41
q0 -27 15.5 -45.5t39.5 -18.5q57 0 57 78q0 33 -4 45q-6 19 -28 33l-118 72q-37 23 -48 58q-9 28 -9 104q0 86 18 120t74 51q-47 23 -61 53q-11 24 -11 81q0 75 41 116q37 38 96 38q54 0 92 -34q43 -38 43 -103zM135 312v-99q0 -22 14.5 -37.5t35.5 -15.5q20 0 35 15.5
t15 37.5v99q0 22 -15 37.5t-35 15.5q-21 0 -35.5 -15.5t-14.5 -37.5z" />
    <glyph glyph-name="dieresis" unicode="&#xa8;" horiz-adv-x="186" 
d="M-33 586v102h90v-102h-90zM129 586v102h90v-102h-90z" />
    <glyph glyph-name="copyright" unicode="&#xa9;" horiz-adv-x="800" 
d="M524 287h66q-13 -70 -62 -113t-115 -43q-96 0 -155 64.5t-59 160.5q0 100 57 163t154 63q70 0 120.5 -40t59.5 -111h-66q-8 36 -39.5 60.5t-73.5 24.5q-65 0 -102.5 -45t-37.5 -113q0 -65 40 -113t102 -48q42 0 73 26t38 64zM690 356q0 122 -85 209t-205 87t-205 -87
t-85 -209t85 -209t205 -87t205 87t85 209zM38 356q0 150 106 256t256 106t256 -106t106 -256t-106 -256t-256 -106t-256 106t-106 256z" />
    <glyph glyph-name="ordfeminine" unicode="&#xaa;" horiz-adv-x="240" 
d="M154 410v31h-2q-27 -35 -63 -35q-75 0 -75 82q0 55 24 80.5t84 25.5q4 0 32 -2v24q0 36 -33 36t-37 -30h-66q3 45 30.5 70.5t72.5 25.5q44 0 73 -24q32 -27 32 -72v-212h-72zM154 504v37q-14 2 -18 2q-50 0 -50 -44q0 -29 32 -29q36 0 36 34z" />
    <glyph glyph-name="guillemotleft" unicode="&#xab;" horiz-adv-x="426" 
d="M398 479v-102l-101 -100l101 -100v-102l-203 202zM213 479v-102l-101 -100l101 -100v-102l-203 202z" />
    <glyph glyph-name="logicalnot" unicode="&#xac;" horiz-adv-x="600" 
d="M473 113v200h-426v80h506v-280h-80z" />
    <glyph glyph-name="sfthyphen" unicode="&#xad;" horiz-adv-x="338" 
d="M8 174l33 122h246l-33 -122h-246z" />
    <glyph glyph-name="registered" unicode="&#xae;" horiz-adv-x="800" 
d="M329 507v-119h75q98 0 98 63q0 56 -77 56h-96zM263 145v422h160q145 0 145 -119q0 -105 -108 -118l121 -185h-80l-121 183h-51v-183h-66zM690 356q0 122 -85 209t-205 87t-205 -87t-85 -209t85 -209t205 -87t205 87t85 209zM38 356q0 150 106 256t256 106t256 -106
t106 -256t-106 -256t-256 -106t-256 106t-106 256z" />
    <glyph glyph-name="macron" unicode="&#xaf;" horiz-adv-x="186" 
d="M-44 607v60h274v-60h-274z" />
    <glyph glyph-name="macron" unicode="&#x2c9;" horiz-adv-x="186" 
d="M-44 607v60h274v-60h-274z" />
    <glyph glyph-name="degree" unicode="&#xb0;" horiz-adv-x="260" 
d="M69 606q0 -25 18 -43t43 -18q26 0 43.5 18t17.5 43q0 26 -17.5 43.5t-43.5 17.5q-25 0 -43 -17.5t-18 -43.5zM18 606q0 47 33 79.5t79 32.5q47 0 79.5 -32.5t32.5 -79.5q0 -46 -32.5 -79t-79.5 -33q-46 0 -79 33t-33 79z" />
    <glyph glyph-name="plusminus" unicode="&#xb1;" horiz-adv-x="600" 
d="M260 104v161h-213v80h213v161h80v-161h213v-80h-213v-161h-80zM47 0v80h506v-80h-506z" />
    <glyph glyph-name="twosuperior" unicode="&#xb2;" horiz-adv-x="242" 
d="M11 584v36q0 42 31.5 70t78.5 28q46 0 78 -26t32 -65v-33q0 -36 -23 -75l-95 -160h118v-72h-220v54l128 212q12 20 12 39v23q0 31 -31 31q-29 0 -29 -31v-31h-80z" />
    <glyph glyph-name="threesuperior" unicode="&#xb3;" horiz-adv-x="242" 
d="M100 474v66q27 0 36 4q15 7 15 30v42q0 30 -30 30t-30 -30v-26h-80v32q0 42 31.5 69t80.5 27q52 0 82 -32q26 -28 26 -68v-41q0 -47 -41 -69q41 -24 41 -73v-51q0 -41 -26 -69q-30 -32 -84 -32q-46 0 -75 21q-35 24 -35 73v34h80v-23q0 -33 30 -33q12 0 21 9t9 21v52
q0 23 -11 30t-40 7z" />
    <glyph glyph-name="acute" unicode="&#xb4;" horiz-adv-x="186" 
d="M28 574l90 141h108l-132 -141h-66z" />
    <glyph glyph-name="mu" unicode="&#xb5;" horiz-adv-x="389" 
d="M347 507v-507h-102v49h-2q-13 -27 -31 -41t-35 -14q-21 0 -31 10h-2v-209h-102v712h102v-351q0 -60 50 -60q51 0 51 70v341h102z" />
    <glyph glyph-name="mu" unicode="&#x3bc;" horiz-adv-x="389" 
d="M347 507v-507h-102v49h-2q-13 -27 -31 -41t-35 -14q-21 0 -31 10h-2v-209h-102v712h102v-351q0 -60 50 -60q51 0 51 70v341h102z" />
    <glyph glyph-name="paragraph" unicode="&#xb6;" horiz-adv-x="444" 
d="M182 -205v539q-67 0 -120.5 55t-53.5 131q0 95 60 145q57 47 158 47h172v-917h-72v866h-72v-866h-72z" />
    <glyph glyph-name="ch270" unicode="&#xb7;" horiz-adv-x="249" 
d="M38 348q0 34 23 57t57 23t57.5 -23t23.5 -57t-23.5 -57.5t-57.5 -23.5t-57 23.5t-23 57.5z" />
    <glyph glyph-name="ch270" unicode="&#x2219;" horiz-adv-x="249" 
d="M38 348q0 34 23 57t57 23t57.5 -23t23.5 -57t-23.5 -57.5t-57.5 -23.5t-57 23.5t-23 57.5z" />
    <glyph glyph-name="cedilla" unicode="&#xb8;" horiz-adv-x="186" 
d="M20 -86l65 86h46l-46 -60q20 2 31 2q45 0 67 -26q18 -20 18 -49q0 -45 -41 -70q-34 -21 -82 -21q-41 0 -93 19l17 42q39 -15 65 -15q54 0 54 41q0 17 -13.5 27.5t-31.5 10.5q-21 0 -39 -7z" />
    <glyph glyph-name="onesuperior" unicode="&#xb9;" horiz-adv-x="242" 
d="M93 287v353l-66 -43v72l66 43h80v-425h-80z" />
    <glyph glyph-name="ordmasculine" unicode="&#xba;" horiz-adv-x="240" 
d="M18 505v114q0 43 28 71t74 28t74 -28t28 -71v-114q0 -43 -28 -71t-74 -28t-74 28t-28 71zM90 617v-111q0 -34 30 -34t30 34v111q0 35 -30 35t-30 -35z" />
    <glyph glyph-name="guillemotright" unicode="&#xbb;" horiz-adv-x="426" 
d="M213 75v102l101 100l-101 100v102l203 -202zM28 75v102l101 100l-101 100v102l203 -202z" />
    <glyph glyph-name="onequarter" unicode="&#xbc;" horiz-adv-x="555" 
d="M18 -17l437 746h60l-437 -746h-60zM77 287v353l-66 -43v72l66 43h80v-425h-80zM434 0v62h-143v62l98 303h80l-94 -299h59v115h80v-115h30v-66h-30v-62h-80z" />
    <glyph glyph-name="onehalf" unicode="&#xbd;" horiz-adv-x="555" 
d="M18 -17l437 746h60l-437 -746h-60zM77 287v353l-66 -43v72l66 43h80v-425h-80zM322 0v54l130 212q12 20 12 39v23q0 31 -31 31t-31 -31v-31h-80v36q0 42 32 70t80 28q46 0 78 -26t32 -65v-33q0 -36 -23 -75l-95 -160h118v-72h-222z" />
    <glyph glyph-name="threequarters" unicode="&#xbe;" horiz-adv-x="555" 
d="M37 -17l437 746h60l-437 -746h-60zM100 474v66q27 0 36 4q15 7 15 30v42q0 30 -30 30t-30 -30v-26h-80v32q0 42 31.5 69t80.5 27q52 0 82 -32q26 -28 26 -68v-41q0 -47 -41 -69q41 -24 41 -73v-51q0 -41 -26 -69q-30 -32 -84 -32q-46 0 -75 21q-35 24 -35 73v34h80v-23
q0 -33 30 -33q12 0 21 9t9 21v52q0 23 -11 30t-40 7zM434 0v62h-143v62l98 303h80l-94 -299h59v115h80v-115h30v-66h-30v-62h-80z" />
    <glyph glyph-name="questiondown" unicode="&#xbf;" 
d="M338 0v-59q0 -63 -45 -107.5t-109 -44.5q-48 0 -86 26.5t-55 70.5q-11 28 -11 82q0 87 16 114l69 118q17 29 17 51v80h102v-93q0 -40 -25 -81l-64 -104q-13 -21 -13 -58v-53q0 -21 14.5 -36t35.5 -15q20 0 36 14t16 37v58h102zM236 507v-102h-102v102h102z" />
    <glyph glyph-name="Agrave" unicode="&#xc0;" horiz-adv-x="407" 
d="M254 249l-50 258h-2l-50 -258h102zM2 0l159 712h85l159 -712h-102l-30 153h-139l-30 -153h-102zM132 916l70 -141l-26 10l-152 141z" />
    <glyph glyph-name="Aacute" unicode="&#xc1;" horiz-adv-x="407" 
d="M254 249l-50 258h-2l-50 -258h102zM2 0l159 712h85l159 -712h-102l-30 153h-139l-30 -153h-102zM202 775l70 141l108 10l-152 -141z" />
    <glyph glyph-name="Acircumflex" unicode="&#xc2;" horiz-adv-x="407" 
d="M254 249l-50 258h-2l-50 -258h102zM2 0l159 712h85l159 -712h-102l-30 153h-139l-30 -153h-102zM86 740l78 112h76l78 -112h-62l-54 76l-54 -76h-62z" />
    <glyph glyph-name="Atilde" unicode="&#xc3;" horiz-adv-x="407" 
d="M254 249l-50 258h-2l-50 -258h102zM2 0l159 712h85l159 -712h-102l-30 153h-139l-30 -153h-102zM310 864l37 -6q-59 -80 -116 -79q-13 0 -46.5 15t-42.5 15q-31 0 -48 -34l-37 6q59 80 116 79q13 0 46.5 -15t42.5 -15q31 0 48 34z" />
    <glyph glyph-name="Adieresis" unicode="&#xc4;" horiz-adv-x="407" 
d="M254 249l-50 258h-2l-50 -258h102zM2 0l159 712h85l159 -712h-102l-30 153h-139l-30 -153h-102zM78 756v102h90v-102h-90zM240 756v102h90v-102h-90z" />
    <glyph glyph-name="Aring" unicode="&#xc5;" horiz-adv-x="407" 
d="M254 249l-50 258h-2l-50 -258h102zM2 0l159 712h85l159 -712h-102l-30 153h-139l-30 -153h-102zM102 835q0 42 30 72t72 30t72 -30.5t30 -71.5q0 -42 -30 -72t-72 -30t-72 30.5t-30 71.5zM143 835q0 -25 18 -43t43 -18q26 0 43.5 18t17.5 43q0 26 -17.5 43.5t-43.5 17.5
q-25 0 -43 -17.5t-18 -43.5z" />
    <glyph glyph-name="AE" unicode="&#xc6;" horiz-adv-x="611" 
d="M2 0l202 712h389v-96h-202v-209h176v-96h-176v-209h202v-102h-304v153h-140l-39 -153h-108zM289 249v367h-24l-92 -367h116z" />
    <glyph glyph-name="Ccedilla" unicode="&#xc7;" horiz-adv-x="407" 
d="M131 -86l61 80q-63 5 -102 41q-48 44 -48 127v392q0 71 46.5 117.5t119.5 46.5q71 0 117.5 -48t46.5 -122v-40h-102v34q0 31 -17.5 52.5t-45.5 21.5q-63 0 -63 -83v-364q0 -73 62 -73q64 0 64 72v35h102v-44q0 -59 -37.5 -105.5t-95.5 -57.5l-43 -56q20 2 31 2
q45 0 67 -26q18 -20 18 -49q0 -45 -41 -70q-34 -21 -82 -21q-41 0 -93 19l17 42q39 -15 65 -15q54 0 54 41q0 17 -13.5 27.5t-31.5 10.5q-21 0 -39 -7z" />
    <glyph glyph-name="Egrave" unicode="&#xc8;" 
d="M48 0v712h304v-96h-202v-209h176v-96h-176v-209h202v-102h-304zM129 916l70 -141l-26 10l-152 141z" />
    <glyph glyph-name="Eacute" unicode="&#xc9;" 
d="M48 0v712h304v-96h-202v-209h176v-96h-176v-209h202v-102h-304zM199 775l70 141l108 10l-152 -141z" />
    <glyph glyph-name="Ecircumflex" unicode="&#xca;" 
d="M48 0v712h304v-96h-202v-209h176v-96h-176v-209h202v-102h-304zM83 750l78 112h76l78 -112h-62l-54 76l-54 -76h-62z" />
    <glyph glyph-name="Edieresis" unicode="&#xcb;" 
d="M48 0v712h304v-96h-202v-209h176v-96h-176v-209h202v-102h-304zM69 756v102h90v-102h-90zM231 756v102h90v-102h-90z" />
    <glyph glyph-name="Igrave" unicode="&#xcc;" horiz-adv-x="204" 
d="M51 0v712h102v-712h-102zM32 916l70 -141l-26 10l-152 141z" />
    <glyph glyph-name="Iacute" unicode="&#xcd;" horiz-adv-x="204" 
d="M51 0v712h102v-712h-102zM102 776l70 141l108 10l-152 -141z" />
    <glyph glyph-name="Icircumflex" unicode="&#xce;" horiz-adv-x="204" 
d="M51 0v712h102v-712h-102zM-43 744l98 141h94l98 -141h-78l-67 95l-67 -95h-78z" />
    <glyph glyph-name="Idieresis" unicode="&#xcf;" horiz-adv-x="204" 
d="M51 0v712h102v-712h-102zM-24 756v102h90v-102h-90zM138 756v102h90v-102h-90z" />
    <glyph glyph-name="Eth" unicode="&#xd0;" horiz-adv-x="426" 
d="M150 616v-200h70v-66h-70v-254h47q79 0 79 89v343q0 88 -79 88h-47zM48 0v350h-48v66h48v296h151q86 0 132.5 -48.5t46.5 -135.5v-333q0 -195 -188 -195h-142z" />
    <glyph glyph-name="Ntilde" unicode="&#xd1;" horiz-adv-x="444" 
d="M44 0v712h98l154 -429h2v429h102v-712h-96l-156 428h-2v-428h-102zM341 869v0h51q-22 -111 -101 -111q-16 0 -74.5 20t-69.5 20q-42 0 -44 -45h-51q22 111 101 111q17 0 75.5 -20t68.5 -20q42 0 44 45z" />
    <glyph glyph-name="Ograve" unicode="&#xd2;" horiz-adv-x="426" 
d="M42 168v376q0 76 47.5 125t123.5 49t123.5 -49t47.5 -125v-376q0 -75 -48 -124.5t-123 -49.5t-123 49.5t-48 124.5zM144 544v-376q0 -32 19 -52t50 -20q69 0 69 72v376q0 72 -69 72q-31 0 -50 -20t-19 -52zM143 921l70 -141l-26 10l-152 141z" />
    <glyph glyph-name="Oacute" unicode="&#xd3;" horiz-adv-x="426" 
d="M42 168v376q0 76 47.5 125t123.5 49t123.5 -49t47.5 -125v-376q0 -75 -48 -124.5t-123 -49.5t-123 49.5t-48 124.5zM144 544v-376q0 -32 19 -52t50 -20q69 0 69 72v376q0 72 -69 72q-31 0 -50 -20t-19 -52zM213 780l70 141l108 10l-152 -141z" />
    <glyph glyph-name="Ocircumflex" unicode="&#xd4;" horiz-adv-x="426" 
d="M42 168v376q0 76 47.5 125t123.5 49t123.5 -49t47.5 -125v-376q0 -75 -48 -124.5t-123 -49.5t-123 49.5t-48 124.5zM144 544v-376q0 -32 19 -52t50 -20q69 0 69 72v376q0 72 -69 72q-31 0 -50 -20t-19 -52zM97 750l78 112h76l78 -112h-62l-54 76l-54 -76h-62z" />
    <glyph glyph-name="Otilde" unicode="&#xd5;" horiz-adv-x="426" 
d="M42 168v376q0 76 47.5 125t123.5 49t123.5 -49t47.5 -125v-376q0 -75 -48 -124.5t-123 -49.5t-123 49.5t-48 124.5zM144 544v-376q0 -32 19 -52t50 -20q69 0 69 72v376q0 72 -69 72q-31 0 -50 -20t-19 -52zM321 870l37 -6q-59 -80 -116 -79q-13 0 -46.5 15t-42.5 15
q-31 0 -48 -34l-37 6q59 80 116 79q13 0 46.5 -15t42.5 -15q31 0 48 34z" />
    <glyph glyph-name="Odieresis" unicode="&#xd6;" horiz-adv-x="426" 
d="M42 168v376q0 82 54 131q49 43 117 43t117 -43q54 -49 54 -131v-376q0 -82 -54 -130q-49 -44 -117 -44t-117 44q-54 48 -54 130zM144 544v-376q0 -35 21 -54q18 -18 48 -18t49.5 18.5t19.5 53.5v376q0 35 -19.5 53.5t-49.5 18.5t-48 -18q-21 -19 -21 -54zM87 756v102h90
v-102h-90zM249 756v102h90v-102h-90z" />
    <glyph glyph-name="multiply" unicode="&#xd7;" horiz-adv-x="600" 
d="M67 77l177 176l-177 177l57 56l176 -176l177 176l56 -56l-176 -177l176 -176l-56 -57l-177 177l-176 -177z" />
    <glyph glyph-name="Oslash" unicode="&#xd8;" horiz-adv-x="426" 
d="M10 -16l50 103q-18 35 -18 81v376q0 82 54 131q49 43 117 43q74 0 125 -52l40 84l38 -22l-50 -103q18 -34 18 -81v-376q0 -82 -54 -130q-49 -44 -117 -44q-77 0 -125 52l-40 -84zM146 262l136 287q-4 67 -69 67q-30 0 -48 -18q-21 -19 -21 -54v-282h2zM280 449l-136 -286
q3 -67 69 -67q30 0 49.5 18.5t19.5 53.5v281h-2z" />
    <glyph glyph-name="Ugrave" unicode="&#xd9;" horiz-adv-x="426" 
d="M378 712v-552q0 -69 -48 -117.5t-117 -48.5t-117 48.5t-48 117.5v552h102v-542q0 -74 63 -74t63 74v542h102zM143 896l70 -141l-26 10l-152 141z" />
    <glyph glyph-name="Uacute" unicode="&#xda;" horiz-adv-x="426" 
d="M378 712v-552q0 -69 -48 -117.5t-117 -48.5t-117 48.5t-48 117.5v552h102v-542q0 -74 63 -74t63 74v542h102zM213 755l70 141l108 10l-152 -141z" />
    <glyph glyph-name="Ucircumflex" unicode="&#xdb;" horiz-adv-x="426" 
d="M378 712v-552q0 -69 -48 -117.5t-117 -48.5q-68 0 -116.5 48.5t-48.5 117.5v552h102v-542q0 -74 63 -74t63 74v542h102zM68 744l98 141h94l98 -141h-78l-67 95l-67 -95h-78z" />
    <glyph glyph-name="Udieresis" unicode="&#xdc;" horiz-adv-x="426" 
d="M378 712v-552q0 -69 -48 -117.5t-117 -48.5q-68 0 -116.5 48.5t-48.5 117.5v552h102v-542q0 -74 63 -74t63 74v542h102zM87 756v102h90v-102h-90zM249 756v102h90v-102h-90z" />
    <glyph glyph-name="Yacute" unicode="&#xdd;" horiz-adv-x="388" 
d="M143 0v301l-140 411h108l82 -283h2l82 283h108l-140 -411v-301h-102zM194 750l70 141l108 10l-152 -141z" />
    <glyph glyph-name="Thorn" unicode="&#xde;" horiz-adv-x="407" 
d="M48 0v712h102v-124h51q85 0 131.5 -49.5t46.5 -167.5q0 -96 -29 -143q-45 -74 -148 -74h-52v-154h-102zM150 492v-242h49q56 0 73 33q11 22 11 87q0 64 -10 86q-16 36 -70 36h-53z" />
    <glyph glyph-name="germandbls" unicode="&#xdf;" horiz-adv-x="389" 
d="M42 0v552q0 70 37 116q40 50 114 50q154 0 154 -182q0 -50 -9 -72q-11 -28 -50 -52q59 -33 59 -102v-176q0 -84 -45 -116q-33 -24 -101 -24v96q44 0 44 51v190q0 33 -44 33v90q24 0 34 7.5t10 31.5v80q0 49 -48 49q-29 0 -41 -19.5t-12 -68.5v-534h-102z" />
    <glyph glyph-name="agrave" unicode="&#xe0;" 
d="M235 0v52h-2q-23 -31 -41 -43q-23 -15 -57 -15q-110 0 -110 135q0 92 35.5 132t125.5 40q8 0 24.5 -1.5t24.5 -1.5v53q0 60 -51 60q-49 0 -58 -51h-99q5 69 47 111t110 42q71 0 112 -44t41 -116v-353h-102zM235 149v69q-16 3 -28 3q-80 0 -80 -72q0 -65 53 -65
q55 0 55 65zM117 724l67 -134l-25 10l-144 134z" />
    <glyph glyph-name="aacute" unicode="&#xe1;" 
d="M235 0v52h-2q-23 -31 -41 -43q-23 -15 -57 -15q-110 0 -110 135q0 92 35.5 132t125.5 40q8 0 24.5 -1.5t24.5 -1.5v53q0 60 -51 60q-49 0 -58 -51h-99q5 69 47 111t110 42q71 0 112 -44t41 -116v-353h-102zM235 149v69q-16 3 -28 3q-80 0 -80 -72q0 -65 53 -65
q55 0 55 65zM185 590l67 134l102 10l-144 -134z" />
    <glyph glyph-name="acircumflex" unicode="&#xe2;" 
d="M235 0v52h-2q-23 -31 -41 -43q-23 -15 -57 -15q-110 0 -110 135q0 92 35.5 132t125.5 40q8 0 24.5 -1.5t24.5 -1.5v53q0 60 -51 60q-49 0 -58 -51h-99q5 69 47 111t110 42q71 0 112 -44t41 -116v-353h-102zM235 149v69q-16 3 -28 3q-80 0 -80 -72q0 -65 53 -65
q55 0 55 65zM74 552l74 106h72l74 -106h-59l-51 72l-51 -72h-59z" />
    <glyph glyph-name="atilde" unicode="&#xe3;" 
d="M235 0v52h-2q-23 -31 -41 -43q-23 -15 -57 -15q-110 0 -110 135q0 92 35.5 132t125.5 40q8 0 24.5 -1.5t24.5 -1.5v53q0 60 -51 60q-49 0 -58 -51h-99q5 69 47 111t110 42q71 0 112 -44t41 -116v-353h-102zM235 149v69q-16 3 -28 3q-80 0 -80 -72q0 -65 53 -65
q55 0 55 65zM287 674l35 -5q-58 -77 -110 -76q-12 0 -44.5 14.5t-40.5 14.5q-29 0 -46 -32l-35 5q57 76 110 75q12 0 44 -14t41 -14q29 0 46 32z" />
    <glyph glyph-name="adieresis" unicode="&#xe4;" 
d="M235 0v52h-2q-23 -31 -41 -43q-23 -15 -57 -15q-110 0 -110 135q0 91 34.5 131.5t126.5 40.5q8 0 22 -1q18 -2 27 -2v53q0 60 -51 60q-49 0 -58 -51h-99q5 68 47 110.5t110 42.5q67 0 108 -40q45 -43 45 -120v-353h-102zM235 149v69q-16 3 -28 3q-80 0 -80 -72
q0 -65 53 -65q55 0 55 65zM59 586v102h90v-102h-90zM221 586v102h90v-102h-90z" />
    <glyph glyph-name="aring" unicode="&#xe5;" 
d="M235 0v52h-2q-23 -31 -41 -43q-23 -15 -57 -15q-110 0 -110 135q0 91 34.5 131.5t126.5 40.5q8 0 22 -1q18 -2 27 -2v53q0 60 -51 60q-49 0 -58 -51h-99q5 68 47 110.5t110 42.5q67 0 108 -40q45 -43 45 -120v-353h-102zM235 149v69q-16 3 -28 3q-80 0 -80 -72
q0 -65 53 -65q55 0 55 65zM83 660q0 42 30 72t72 30t72 -30.5t30 -71.5q0 -42 -30 -72t-72 -30t-72 30.5t-30 71.5zM124 660q0 -25 18 -43t43 -18q26 0 43.5 18t17.5 43q0 26 -17.5 43.5t-43.5 17.5q-25 0 -43 -17.5t-18 -43.5z" />
    <glyph glyph-name="ae" unicode="&#xe6;" horiz-adv-x="572" 
d="M337 353v-58h100v58q0 58 -50 58t-50 -58zM539 355v-140h-202v-69q0 -50 50 -50q45 0 50 51h102q0 -66 -42.5 -109t-109.5 -44q-95 -1 -133 72q-36 -72 -119 -72q-110 0 -110 135q0 91 34.5 131.5t126.5 40.5q8 0 22 -1q18 -2 27 -2v53q0 60 -51 60q-49 0 -58 -51h-99
q5 69 47 111t110 42q59 0 101 -36q41 36 102 36q69 0 110.5 -45t41.5 -113zM235 149v69q-16 3 -28 3q-80 0 -80 -72q0 -65 53 -65q55 0 55 65z" />
    <glyph glyph-name="ccedilla" unicode="&#xe7;" 
d="M112 -86l63 82q-75 11 -108 71q-19 35 -19 103v167q0 68 19 103q40 73 133 73q69 0 110.5 -45t41.5 -117h-102q0 60 -50 60t-50 -58v-207q0 -50 50 -50q45 0 50 51h102q0 -65 -41 -108q-36 -37 -91 -43l-43 -56q20 2 31 2q45 0 67 -26q18 -20 18 -49q0 -45 -41 -70
q-34 -21 -82 -21q-41 0 -93 19l17 42q39 -15 65 -15q54 0 54 41q0 17 -13.5 27.5t-31.5 10.5q-21 0 -39 -7z" />
    <glyph glyph-name="egrave" unicode="&#xe8;" 
d="M337 215h-202v-69q0 -50 50 -50q45 0 50 51h102q0 -67 -42.5 -110t-109.5 -43q-93 0 -133 73q-19 35 -19 103v167q0 68 19 103q40 73 133 73q69 0 110.5 -44.5t41.5 -113.5v-140zM135 353v-58h100v58q0 58 -50 58t-50 -58zM117 724l67 -134l-25 10l-144 134z" />
    <glyph glyph-name="eacute" unicode="&#xe9;" 
d="M337 215h-202v-69q0 -50 50 -50q45 0 50 51h102q0 -67 -42.5 -110t-109.5 -43q-93 0 -133 73q-19 35 -19 103v167q0 68 19 103q40 73 133 73q69 0 110.5 -44.5t41.5 -113.5v-140zM135 353v-58h100v58q0 58 -50 58t-50 -58zM185 590l67 134l102 10l-144 -134z" />
    <glyph glyph-name="ecircumflex" unicode="&#xea;" 
d="M337 215h-202v-69q0 -50 50 -50q45 0 50 51h102q0 -67 -42.5 -110t-109.5 -43q-93 0 -133 73q-19 35 -19 103v167q0 68 19 103q40 73 133 73q69 0 110.5 -44.5t41.5 -113.5v-140zM135 353v-58h100v58q0 58 -50 58t-50 -58zM74 552l74 106h72l74 -106h-59l-51 72l-51 -72
h-59z" />
    <glyph glyph-name="edieresis" unicode="&#xeb;" 
d="M337 215h-202v-69q0 -50 50 -50q45 0 50 51h102q0 -65 -42 -109t-110 -44q-93 0 -133 73q-19 35 -19 103v167q0 68 19 103q40 73 133 73q69 0 110.5 -45t41.5 -113v-140zM135 353v-58h100v58q0 58 -50 58t-50 -58zM59 586v102h90v-102h-90zM221 586v102h90v-102h-90z" />
    <glyph glyph-name="igrave" unicode="&#xec;" horiz-adv-x="186" 
d="M42 0v507h102v-507h-102zM25 714l67 -134l-25 10l-144 134z" />
    <glyph glyph-name="iacute" unicode="&#xed;" horiz-adv-x="186" 
d="M42 0v507h102v-507h-102zM92 580l67 134l102 10l-144 -134z" />
    <glyph glyph-name="icircumflex" unicode="&#xee;" horiz-adv-x="186" 
d="M42 0v507h102v-507h-102zM-52 574l98 141h94l98 -141h-78l-67 95l-67 -95h-78z" />
    <glyph glyph-name="idieresis" unicode="&#xef;" horiz-adv-x="186" 
d="M42 0v507h102v-507h-102zM-33 586v102h90v-102h-90zM129 586v102h90v-102h-90z" />
    <glyph glyph-name="eth" unicode="&#xf0;" 
d="M135 353v-199q0 -58 50 -58t50 58v199q0 58 -50 58t-50 -58zM86 608l69 32q-29 24 -77 43l83 44q46 -16 80 -47l68 32l28 -40l-63 -29q63 -83 63 -235v-238q0 -68 -19 -103q-40 -73 -133 -73t-133 73q-19 35 -19 103v167q0 68 19 103q40 73 133 73q30 0 48 -23l2 2
q-18 74 -47 111l-74 -35z" />
    <glyph glyph-name="ntilde" unicode="&#xf1;" horiz-adv-x="389" 
d="M42 0v507h102v-49h2q36 55 96 55q43 0 72 -28q33 -33 33 -96v-389h-102v351q0 60 -50 60q-51 0 -51 -70v-341h-102zM314 699v0h51q-22 -111 -101 -111q-16 0 -74.5 20t-69.5 20q-42 0 -44 -45h-51q22 111 101 111q17 0 75.5 -20t68.5 -20q42 0 44 45z" />
    <glyph glyph-name="ograve" unicode="&#xf2;" 
d="M33 170v167q0 68 19 103q40 73 133 73t133 -73q19 -35 19 -103v-167q0 -68 -19 -103q-40 -73 -133 -73t-133 73q-19 35 -19 103zM135 353v-199q0 -58 50 -58t50 58v199q0 58 -50 58t-50 -58zM117 724l67 -134l-25 10l-144 134z" />
    <glyph glyph-name="oacute" unicode="&#xf3;" 
d="M33 170v167q0 68 19 103q40 73 133 73t133 -73q19 -35 19 -103v-167q0 -68 -19 -103q-40 -73 -133 -73t-133 73q-19 35 -19 103zM135 353v-199q0 -58 50 -58t50 58v199q0 58 -50 58t-50 -58zM185 590l67 134l102 10l-144 -134z" />
    <glyph glyph-name="ocircumflex" unicode="&#xf4;" 
d="M33 170v167q0 68 19 103q40 73 133 73t133 -73q19 -35 19 -103v-167q0 -68 -19 -103q-40 -73 -133 -73t-133 73q-19 35 -19 103zM135 353v-199q0 -58 50 -58t50 58v199q0 58 -50 58t-50 -58zM74 552l74 106h72l74 -106h-59l-51 72l-51 -72h-59z" />
    <glyph glyph-name="otilde" unicode="&#xf5;" 
d="M33 170v167q0 68 19 103q40 73 133 73t133 -73q19 -35 19 -103v-167q0 -68 -19 -103q-40 -73 -133 -73t-133 73q-19 35 -19 103zM135 353v-199q0 -58 50 -58t50 58v199q0 58 -50 58t-50 -58zM287 674l35 -5q-58 -77 -110 -76q-12 0 -44.5 14.5t-40.5 14.5q-29 0 -46 -32
l-35 5q57 76 110 75q12 0 44 -14t41 -14q29 0 46 32z" />
    <glyph glyph-name="odieresis" unicode="&#xf6;" 
d="M33 170v167q0 68 19 103q40 73 133 73t133 -73q19 -35 19 -103v-167q0 -68 -19 -103q-40 -73 -133 -73t-133 73q-19 35 -19 103zM135 353v-199q0 -58 50 -58t50 58v199q0 58 -50 58t-50 -58zM59 586v102h90v-102h-90zM221 586v102h90v-102h-90z" />
    <glyph glyph-name="divide" unicode="&#xf7;" horiz-adv-x="600" 
d="M47 213v80h506v-80h-506zM236 46q0 26 19 45t45 19t45 -19t19 -45t-19 -45t-45 -19t-45 19t-19 45zM236 460q0 26 19 45t45 19t45 -19t19 -45t-19 -45t-45 -19t-45 19t-19 45z" />
    <glyph glyph-name="oslash" unicode="&#xf8;" 
d="M137 209l95 163q-6 39 -47 39q-50 0 -50 -58v-144h2zM233 298l-95 -163q6 -39 47 -39q50 0 50 58v144h-2zM4 -12l49 83q-20 40 -20 87v191q0 72 41.5 118t110.5 46q66 0 106 -42l41 69l34 -21l-49 -83q20 -40 20 -87v-191q0 -72 -41.5 -118t-110.5 -46q-66 0 -106 42
l-41 -69z" />
    <glyph glyph-name="ugrave" unicode="&#xf9;" horiz-adv-x="389" 
d="M347 507v-507h-102v49h-2q-36 -55 -96 -55q-52 0 -80 37q-25 33 -25 87v389h102v-351q0 -60 50 -60q51 0 51 70v341h102zM129 695l67 -134l-25 10l-144 134z" />
    <glyph glyph-name="uacute" unicode="&#xfa;" horiz-adv-x="389" 
d="M347 507v-507h-102v49h-2q-36 -55 -96 -55q-52 0 -80 37q-25 33 -25 87v389h102v-351q0 -60 50 -60q51 0 51 70v341h102zM196 561l67 134l102 10l-144 -134z" />
    <glyph glyph-name="ucircumflex" unicode="&#xfb;" horiz-adv-x="389" 
d="M347 507v-507h-102v49h-2q-36 -55 -96 -55q-43 0 -72 28q-33 33 -33 96v389h102v-351q0 -60 50 -60q51 0 51 70v341h102zM50 574l98 141h94l98 -141h-78l-67 95l-67 -95h-78z" />
    <glyph glyph-name="udieresis" unicode="&#xfc;" horiz-adv-x="389" 
d="M347 507v-507h-102v49h-2q-36 -55 -96 -55q-43 0 -72 28q-33 33 -33 96v389h102v-351q0 -60 50 -60q51 0 51 70v341h102zM69 586v102h90v-102h-90zM231 586v102h90v-102h-90z" />
    <glyph glyph-name="yacute" unicode="&#xfd;" horiz-adv-x="352" 
d="M-1 507h108l70 -316h2l69 316h105l-146 -595q-29 -117 -141 -117h-28v96h23q40 0 59 49q4 11 18 83zM178 552l67 134l102 10l-144 -134z" />
    <glyph glyph-name="thorn" unicode="&#xfe;" horiz-adv-x="389" 
d="M42 -205v917h102v-251q25 28 39 37q24 15 58 15q63 0 89 -48q17 -31 17 -109v-193q0 -97 -16 -123q-29 -46 -91 -46q-59 0 -94 52h-2v-251h-102zM245 156v186q0 69 -50 69q-23 0 -37 -17.5t-14 -45.5v-197q0 -24 14.5 -39.5t36.5 -15.5q50 0 50 60z" />
    <glyph glyph-name="ydieresis" unicode="&#xff;" horiz-adv-x="352" 
d="M-1 507h108l70 -316h2l69 316h105l-146 -595q-29 -117 -141 -117h-28v96h23q32 0 46 23t31 109zM50 586v102h90v-102h-90zM212 586v102h90v-102h-90z" />
    <glyph glyph-name="glyph271" unicode="&#x102;" horiz-adv-x="407" 
d="M254 249l-50 258h-2l-50 -258h102zM2 0l159 712h85l159 -712h-102l-30 153h-139l-30 -153h-102zM280 859l39 -5q-17 -104 -117 -104t-117 104l39 5q8 -58 78 -58t78 58z" />
    <glyph glyph-name="glyph272" unicode="&#x103;" 
d="M235 0v52h-2q-23 -31 -41 -43q-23 -15 -57 -15q-110 0 -110 135q0 92 35.5 132t125.5 40q8 0 24.5 -1.5t24.5 -1.5v53q0 60 -51 60q-49 0 -58 -51h-99q5 69 47 111t110 42q71 0 112 -44t41 -116v-353h-102zM235 149v69q-16 3 -28 3q-80 0 -80 -72q0 -65 53 -65
q55 0 55 65zM258 665l37 -5q-15 -99 -111 -99q-94 0 -111 99l37 5q8 -55 74 -55q68 0 74 55z" />
    <glyph glyph-name="Cacute" unicode="&#x106;" horiz-adv-x="711" 
d="M372 203v-44q0 -67 -47.5 -116t-114.5 -49q-69 0 -113 35q-55 44 -55 133v392q0 71 46.5 117.5t119.5 46.5q71 0 117.5 -48t46.5 -122v-40h-102v34q0 31 -17.5 52.5t-45.5 21.5q-63 0 -63 -83v-364q0 -73 62 -73q64 0 64 72v35h102zM205 829l90 141h108l-132 -141h-66z
" />
    <glyph glyph-name="cacute" unicode="&#x107;" horiz-adv-x="441" 
d="M150 353v-207q0 -50 50 -50q45 0 50 51h102q0 -65 -42 -109t-110 -44q-93 0 -133 73q-19 35 -19 103v167q0 68 19 103q40 73 133 73q69 0 110.5 -45t41.5 -117h-102q0 60 -50 60t-50 -58zM6 574l90 141h108l-132 -141h-66z" />
    <glyph glyph-name="Ccaron" unicode="&#x10c;" horiz-adv-x="711" 
d="M372 203v-44q0 -67 -47.5 -116t-114.5 -49q-69 0 -113 35q-55 44 -55 133v392q0 71 46.5 117.5t119.5 46.5q71 0 117.5 -48t46.5 -122v-40h-102v34q0 31 -17.5 52.5t-45.5 21.5q-63 0 -63 -83v-364q0 -73 62 -73q64 0 64 72v35h102zM415 970l-98 -141h-94l-98 141h78
l67 -95l67 95h78z" />
    <glyph glyph-name="ccaron" unicode="&#x10d;" horiz-adv-x="441" 
d="M150 353v-207q0 -50 50 -50q45 0 50 51h102q0 -65 -42 -109t-110 -44q-93 0 -133 73q-19 35 -19 103v167q0 68 19 103q40 73 133 73q69 0 110.5 -45t41.5 -117h-102q0 60 -50 60t-50 -58zM216 715l-98 -141h-94l-98 141h78l67 -95l67 95h78z" />
    <glyph glyph-name="Dslash" unicode="&#x110;" horiz-adv-x="426" 
d="M150 616v-200h70v-66h-70v-254h47q79 0 79 89v343q0 88 -79 88h-47zM48 0v350h-48v66h48v296h151q86 0 132.5 -48.5t46.5 -135.5v-333q0 -195 -188 -195h-142z" />
    <glyph glyph-name="dcroat" unicode="&#x111;" horiz-adv-x="389" 
d="M144 351v-186q0 -69 50 -69q51 0 51 63v197q0 23 -14 39t-37 16q-50 0 -50 -60zM245 552h-96v50h96v110h102v-110h42v-50h-42v-552h-102v46q-25 -28 -39 -37q-24 -15 -58 -15q-63 0 -89 48q-17 31 -17 109v193q0 97 16 123q29 46 91 46q59 0 94 -52h2v91z" />
    <glyph glyph-name="Gbreve" unicode="&#x11e;" horiz-adv-x="767" 
d="M42 168v376q0 82 54 131q49 43 117 43t117 -43q54 -49 54 -131v-36h-102v36q0 35 -19.5 53.5t-49.5 18.5t-48 -18q-21 -19 -21 -54v-376q0 -35 21 -54q18 -18 48 -18t49.5 18.5t19.5 53.5v134h-81v90h183v-224q0 -82 -54 -130q-49 -44 -117 -44t-117 44q-54 48 -54 130z
M392 970h51q-21 -136 -154 -136t-154 136h51q10 -76 103 -76t103 76z" />
    <glyph glyph-name="gbreve" unicode="&#x11f;" horiz-adv-x="492" 
d="M42 -59h102q1 -20 15 -35t39 -15q47 0 47 55v100h-2q-35 -52 -95 -52q-63 0 -89 48q-17 31 -17 109v193q0 97 16 123q29 46 91 46q34 0 57 -15q14 -9 39 -37v46h102v-569q0 -59 -36 -100q-42 -49 -117 -49q-55 0 -94 32q-49 40 -58 120zM144 342v-186q0 -60 50 -60
q22 0 36.5 15.5t14.5 39.5v197q0 28 -14 45.5t-37 17.5q-50 0 -50 -69zM192 715h51q-21 -136 -154 -136t-154 136h51q10 -76 103 -76t103 76z" />
    <glyph glyph-name="glyph273" unicode="&#x128;" horiz-adv-x="204" 
d="M51 0v712h102v-712h-102zM210 859l37 -6q-59 -80 -116 -79q-13 0 -46.5 15t-42.5 15q-31 0 -48 -34l-37 6q59 80 116 79q13 0 46.5 -15t42.5 -15q31 0 48 34z" />
    <glyph glyph-name="glyph274" unicode="&#x129;" horiz-adv-x="186" 
d="M42 0v507h102v-507h-102zM195 654l35 -5q-58 -77 -110 -76q-12 0 -44.5 14.5t-40.5 14.5q-29 0 -46 -32l-35 5q57 76 110 75q12 0 44 -14t41 -14q29 0 46 32z" />
    <glyph glyph-name="Idotaccent" unicode="&#x130;" horiz-adv-x="429" 
d="M51 0v712h102v-712h-102zM75 841v102h90v-102h-90z" />
    <glyph glyph-name="dotlessi" unicode="&#x131;" horiz-adv-x="186" 
d="M42 0v507h102v-507h-102z" />
    <glyph glyph-name="Lslash" unicode="&#x141;" 
d="M48 0v265l-48 -38v90l48 38v357h102v-277l120 96v-90l-120 -96v-243h202v-102h-304z" />
    <glyph glyph-name="lslash" unicode="&#x142;" horiz-adv-x="186" 
d="M36 136v172l-50 -44v72l50 44v332h102v-242l50 43v-72l-50 -43v-255q0 -28 10.5 -39t39.5 -14v-96q-77 0 -111 27q-41 32 -41 115z" />
    <glyph glyph-name="OE" unicode="&#x152;" horiz-adv-x="610" 
d="M288 158v396q0 31 -19 52.5t-50 21.5t-50 -21.5t-19 -52.5v-396q0 -31 19 -52.5t50 -21.5t50 21.5t19 52.5zM592 712v-96h-202v-209h176v-96h-176v-209h202v-102h-304v34h-2q-30 -40 -85 -40q-70 0 -113 51q-40 47 -40 118v386q0 71 40 118q43 51 113 51q58 0 85 -42h2
v36h304z" />
    <glyph glyph-name="oe" unicode="&#x153;" horiz-adv-x="572" 
d="M33 170v167q0 68 19 103q40 73 133 73q60 0 101 -34q38 34 101 34q69 0 110.5 -45t41.5 -113v-140h-202v-69q0 -50 50 -50q45 0 50 51h102q0 -65 -42 -109t-110 -44q-71 0 -105 35q-37 -35 -97 -35q-93 0 -133 73q-19 35 -19 103zM337 353v-58h100v58q0 58 -50 58
t-50 -58zM135 353v-199q0 -58 50 -58t50 58v199q0 58 -50 58t-50 -58z" />
    <glyph glyph-name="Scedilla" unicode="&#x15e;" horiz-adv-x="656" 
d="M378 557v-50h-102v23q0 86 -72 86q-69 0 -69 -92q0 -44 9 -60q11 -20 49 -35l78 -31q64 -25 87 -72q20 -40 20 -123q0 -209 -176 -209q-74 0 -124 48.5t-50 120.5v38h102v-32q0 -73 72 -73q47 0 63 29q11 20 11 77q0 51 -7 67q-11 24 -52 41l-73 30q-63 26 -88 72
q-23 40 -23 111q0 85 44 138q47 57 131 57q73 0 123 -51q47 -48 47 -110zM59 -86l65 86h46l-46 -60q20 2 31 2q45 0 67 -26q18 -20 18 -49q0 -45 -41 -70q-34 -21 -82 -21q-41 0 -93 19l17 42q39 -15 65 -15q54 0 54 41q0 17 -13.5 27.5t-31.5 10.5q-21 0 -39 -7z" />
    <glyph glyph-name="scedilla" unicode="&#x15f;" horiz-adv-x="383" 
d="M323 365h-96q-2 52 -52 52q-23 0 -36.5 -15t-13.5 -36q0 -35 43 -52l60 -24q100 -40 100 -143q0 -64 -43.5 -108.5t-108.5 -44.5q-63 0 -104 39q-45 42 -48 114h96q8 -57 55 -57q23 0 40 15.5t17 39.5q0 43 -51 62l-49 18q-103 38 -103 140q0 64 44 106t106 42
t102.5 -42.5t41.5 -105.5zM-38 -86l65 86h46l-46 -60q20 2 31 2q45 0 67 -26q18 -20 18 -49q0 -45 -41 -70q-34 -21 -82 -21q-41 0 -93 19l17 42q39 -15 65 -15q54 0 54 41q0 17 -13.5 27.5t-31.5 10.5q-21 0 -39 -7z" />
    <glyph glyph-name="Scaron" unicode="&#x160;" horiz-adv-x="406" 
d="M378 557v-50h-102v23q0 86 -72 86q-69 0 -69 -92q0 -44 9 -60q11 -20 49 -35l78 -31q64 -25 87 -72q20 -40 20 -123q0 -209 -176 -209q-74 0 -124 48.5t-50 120.5v38h102v-32q0 -73 72 -73q47 0 63 29q11 20 11 77q0 51 -7 67q-11 24 -52 41l-73 30q-63 26 -88 72
q-23 40 -23 111q0 85 44 138q47 57 131 57q73 0 123 -51q47 -48 47 -110zM348 885l-98 -141h-94l-98 141h78l67 -95l67 95h78z" />
    <glyph glyph-name="scaron" unicode="&#x161;" horiz-adv-x="352" 
d="M323 365h-96q-2 52 -52 52q-23 0 -36.5 -15t-13.5 -36q0 -35 43 -52l60 -24q100 -40 100 -143q0 -64 -43.5 -108.5t-108.5 -44.5q-63 0 -104 39q-45 42 -48 114h96q8 -57 55 -57q23 0 40 15.5t17 39.5q0 43 -51 62l-49 18q-103 38 -103 140q0 64 44 106t106 42
t102.5 -42.5t41.5 -105.5zM321 715l-98 -141h-94l-98 141h78l67 -95l67 95h78z" />
    <glyph glyph-name="ch903" unicode="&#x168;" horiz-adv-x="426" 
d="M378 712v-552q0 -69 -48 -117.5t-117 -48.5t-117 48.5t-48 117.5v552h102v-542q0 -74 63 -74t63 74v542h102zM321 850l37 -6q-59 -80 -116 -79q-13 0 -46.5 15t-42.5 15q-31 0 -48 -34l-37 6q59 80 116 79q13 0 46.5 -15t42.5 -15q31 0 48 34z" />
    <glyph glyph-name="ch904" unicode="&#x169;" horiz-adv-x="389" 
d="M347 507v-507h-102v49h-2q-36 -55 -96 -55q-52 0 -80 37q-25 33 -25 87v389h102v-351q0 -60 50 -60q51 0 51 70v341h102zM299 655l35 -5q-58 -77 -110 -76q-12 0 -44.5 14.5t-40.5 14.5q-29 0 -46 -32l-35 5q57 76 110 75q12 0 44 -14t41 -14q29 0 46 32z" />
    <glyph glyph-name="Ydieresis" unicode="&#x178;" horiz-adv-x="388" 
d="M143 0v301l-140 411h108l82 -283h2l82 283h108l-140 -411v-301h-102zM68 756v102h90v-102h-90zM230 756v102h90v-102h-90z" />
    <glyph glyph-name="Zcaron" unicode="&#x17d;" horiz-adv-x="333" 
d="M15 0v90l192 526h-182v96h293v-81l-196 -535h196v-96h-303zM312 885l-98 -141h-94l-98 141h78l67 -95l67 95h78z" />
    <glyph glyph-name="zcaron" unicode="&#x17e;" horiz-adv-x="315" 
d="M17 0v81l165 336h-152v90h268v-81l-165 -330h165v-96h-281zM303 715l-98 -141h-94l-98 141h78l67 -95l67 95h78z" />
    <glyph glyph-name="florin" unicode="&#x192;" horiz-adv-x="372" 
d="M45 371l11 80h84l23 128q14 80 53 113q32 26 86 26q10 0 64 -4l-14 -92l-39 6q-26 0 -38.5 -15.5t-20.5 -58.5l-18 -103h77l-13 -80h-78l-71 -398q-15 -86 -46 -126q-38 -49 -112 -49q-26 0 -53 8l11 94q18 -6 40 -6q48 0 59 60l75 417h-80z" />
    <glyph glyph-name="glyph277" unicode="&#x1a0;" horiz-adv-x="426" 
d="M144 544v-376q0 -32 19 -52t50 -20q69 0 69 72v376q0 72 -69 72q-31 0 -50 -20t-19 -52zM362 634q22 -38 22 -90v-376q0 -75 -48 -124.5t-123 -49.5t-123 49.5t-48 124.5v376q0 76 47.5 125t123.5 49q51 0 92 -25l57 14q22 22 22 38q0 17 -17 30q62 -21 62 -55
q0 -12 -7 -25q-4 -8 -60 -61z" />
    <glyph glyph-name="glyph278" unicode="&#x1a1;" 
d="M135 353v-199q0 -58 50 -58t50 58v199q0 58 -50 58t-50 -58zM267 492l44 12q19 19 19 34t-15 27q56 -19 56 -50q0 -11 -6 -22q-3 -6 -49 -50q2 0 2 -3q19 -35 19 -103v-167q0 -68 -19 -103q-40 -73 -133 -73t-133 73q-19 35 -19 103v167q0 68 19 103q40 73 133 73
q45 0 82 -21z" />
    <glyph glyph-name="glyph279" unicode="&#x1af;" horiz-adv-x="426" 
d="M378 634v-474q0 -69 -48 -117.5t-117 -48.5t-117 48.5t-48 117.5v552h102v-542q0 -74 63 -74t63 74v542l102 -5q22 22 22 38q0 17 -17 30q62 -21 62 -55q0 -12 -7 -25q-4 -8 -60 -61z" />
    <glyph glyph-name="glyph280" unicode="&#x1b0;" horiz-adv-x="389" 
d="M347 439v-439h-102v49h-2q-36 -55 -96 -55q-52 0 -80 37q-25 33 -25 87v389h102v-351q0 -60 50 -60q51 0 51 70v341l102 -2q18 22 18 33q0 15 -15 27q57 -19 57 -50q0 -10 -7 -22q-1 -2 -53 -54z" />
    <glyph glyph-name="circumflex" unicode="&#x2c6;" horiz-adv-x="186" 
d="M-52 574l98 141h94l98 -141h-78l-67 95l-67 -95h-78z" />
    <glyph glyph-name="caron" unicode="&#x2c7;" horiz-adv-x="186" 
d="M238 715l-98 -141h-94l-98 141h78l67 -95l67 95h78z" />
    <glyph glyph-name="breve" unicode="&#x2d8;" horiz-adv-x="186" 
d="M196 715h51q-21 -136 -154 -136t-154 136h51q10 -76 103 -76t103 76z" />
    <glyph glyph-name="dotaccent" unicode="&#x2d9;" horiz-adv-x="186" 
d="M48 586v102h90v-102h-90z" />
    <glyph glyph-name="ring" unicode="&#x2da;" horiz-adv-x="186" 
d="M-9 660q0 42 30 72t72 30t72 -30.5t30 -71.5q0 -42 -30 -72t-72 -30t-72 30.5t-30 71.5zM32 660q0 -25 18 -43t43 -18q26 0 43.5 18t17.5 43q0 26 -17.5 43.5t-43.5 17.5q-25 0 -43 -17.5t-18 -43.5z" />
    <glyph glyph-name="ogonek" unicode="&#x2db;" horiz-adv-x="186" 
d="M181 -165l14 -37q-40 -22 -97 -22q-43 0 -71 25t-28 66q0 44 27 77q18 23 66 56h51q-64 -61 -64 -126q0 -23 14.5 -37.5t34.5 -14.5q30 0 53 13z" />
    <glyph glyph-name="tilde" unicode="&#x2dc;" horiz-adv-x="186" 
d="M212 699v0h51q-22 -111 -101 -111q-16 0 -74.5 20t-69.5 20q-42 0 -44 -45h-51q22 111 101 111q17 0 75.5 -20t68.5 -20q42 0 44 45z" />
    <glyph glyph-name="hungarumlaut" unicode="&#x2dd;" horiz-adv-x="186" 
d="M-54 574l90 141h108l-132 -141h-66zM108 574l90 141h108l-132 -141h-66z" />
    <glyph glyph-name="glyph281" unicode="&#x1ea0;" horiz-adv-x="407" 
d="M254 249l-50 258h-2l-50 -258h102zM2 0l159 712h85l159 -712h-102l-30 153h-139l-30 -153h-102zM156 -132v92h92v-92h-92z" />
    <glyph glyph-name="glyph282" unicode="&#x1ea1;" 
d="M235 0v52h-2q-23 -31 -41 -43q-23 -15 -57 -15q-110 0 -110 135q0 92 35.5 132t125.5 40q8 0 24.5 -1.5t24.5 -1.5v53q0 60 -51 60q-49 0 -58 -51h-99q5 69 47 111t110 42q71 0 112 -44t41 -116v-353h-102zM235 149v69q-16 3 -28 3q-80 0 -80 -72q0 -65 53 -65
q55 0 55 65zM140 -137v88h88v-88h-88z" />
    <glyph glyph-name="glyph283" unicode="&#x1ea2;" horiz-adv-x="407" 
d="M254 249l-50 258h-2l-50 -258h102zM2 0l159 712h85l159 -712h-102l-30 153h-139l-30 -153h-102zM138 887v25q0 28 18.5 46.5t46.5 18.5q65 0 65 -76q0 -25 -6 -37l-1 -2l-29 -51q-8 -14 -8 -22v-14l-22 -15l-21 15v20q0 17 11 35l27 44q5 8 5 21v19q0 22 -21 22
q-22 0 -22 -22v-27l-21 -15z" />
    <glyph glyph-name="glyph284" unicode="&#x1ea3;" 
d="M235 0v52h-2q-23 -31 -41 -43q-23 -15 -57 -15q-110 0 -110 135q0 92 35.5 132t125.5 40q8 0 24.5 -1.5t24.5 -1.5v53q0 60 -51 60q-49 0 -58 -51h-99q5 69 47 111t110 42q71 0 112 -44t41 -116v-353h-102zM235 149v69q-16 3 -28 3q-80 0 -80 -72q0 -65 53 -65
q55 0 55 65zM123 696v24q0 26 17.5 44t43.5 18q62 0 62 -73q0 -27 -6 -37l-28 -48q-8 -14 -8 -21v-13l-20 -15l-20 15v19q0 17 10 33l26 42q4 9 4 20v18q0 21 -20 21t-20 -21v-26l-20 -14z" />
    <glyph glyph-name="glyph285" unicode="&#x1ea4;" horiz-adv-x="407" 
d="M254 249l-50 258h-2l-50 -258h102zM2 0l159 712h85l159 -712h-102l-30 153h-139l-30 -153h-102zM86 740l78 112h76l78 -112h-62l-54 76l-54 -76h-62zM298 816l70 141l108 10l-152 -141z" />
    <glyph glyph-name="glyph286" unicode="&#x1ea5;" 
d="M235 0v52h-2q-23 -31 -41 -43q-23 -15 -57 -15q-110 0 -110 135q0 92 35.5 132t125.5 40q8 0 24.5 -1.5t24.5 -1.5v53q0 60 -51 60q-49 0 -58 -51h-99q5 69 47 111t110 42q71 0 112 -44t41 -116v-353h-102zM235 149v69q-16 3 -28 3q-80 0 -80 -72q0 -65 53 -65
q55 0 55 65zM74 552l74 106h72l74 -106h-59l-51 72l-51 -72h-59zM275 624l67 134l102 10l-144 -134z" />
    <glyph glyph-name="glyph287" unicode="&#x1ea6;" horiz-adv-x="407" 
d="M254 249l-50 258h-2l-50 -258h102zM2 0l159 712h85l159 -712h-102l-30 153h-139l-30 -153h-102zM86 740l78 112h76l78 -112h-62l-54 76l-54 -76h-62zM36 957l70 -141l-26 10l-152 141z" />
    <glyph glyph-name="glyph288" unicode="&#x1ea7;" 
d="M235 0v52h-2q-23 -31 -41 -43q-23 -15 -57 -15q-110 0 -110 135q0 92 35.5 132t125.5 40q8 0 24.5 -1.5t24.5 -1.5v53q0 60 -51 60q-49 0 -58 -51h-99q5 69 47 111t110 42q71 0 112 -44t41 -116v-353h-102zM235 149v69q-16 3 -28 3q-80 0 -80 -72q0 -65 53 -65
q55 0 55 65zM74 552l74 106h72l74 -106h-59l-51 72l-51 -72h-59zM26 758l67 -134l-25 10l-144 134z" />
    <glyph glyph-name="glyph289" unicode="&#x1ea8;" horiz-adv-x="407" 
d="M254 249l-50 258h-2l-50 -258h102zM2 0l159 712h85l159 -712h-102l-30 153h-139l-30 -153h-102zM86 740l78 112h76l78 -112h-62l-54 76l-54 -76h-62zM254 943v25q0 28 18.5 46.5t46.5 18.5q65 0 65 -76q0 -25 -6 -37l-1 -2l-29 -51q-8 -14 -8 -22v-14l-22 -15l-21 15v20
q0 17 11 35l27 44q5 8 5 21v19q0 22 -21 22q-22 0 -22 -22v-27l-21 -15z" />
    <glyph glyph-name="glyph290" unicode="&#x1ea9;" 
d="M235 0v52h-2q-23 -31 -41 -43q-23 -15 -57 -15q-110 0 -110 135q0 92 35.5 132t125.5 40q8 0 24.5 -1.5t24.5 -1.5v53q0 60 -51 60q-49 0 -58 -51h-99q5 69 47 111t110 42q71 0 112 -44t41 -116v-353h-102zM235 149v69q-16 3 -28 3q-80 0 -80 -72q0 -65 53 -65
q55 0 55 65zM74 552l74 107h72l75 -107h-59l-52 72l-51 -72h-59zM234 745v24q0 26 17.5 44t43.5 18q62 0 62 -73q0 -27 -6 -37l-28 -48q-8 -14 -8 -21v-13l-20 -15l-20 15v19q0 17 10 33l26 42q4 9 4 20v18q0 21 -20 21t-20 -21v-26l-20 -14z" />
    <glyph glyph-name="glyph291" unicode="&#x1eaa;" horiz-adv-x="407" 
d="M254 249l-50 258h-2l-50 -258h102zM2 0l159 712h85l159 -712h-102l-30 153h-139l-30 -153h-102zM86 740l78 112h76l78 -112h-62l-54 76l-54 -76h-62zM310 977l37 -6q-59 -80 -116 -79q-13 0 -46.5 15t-42.5 15q-31 0 -48 -34l-37 6q59 80 116 79q13 0 46.5 -15t42.5 -15
q31 0 48 34z" />
    <glyph glyph-name="glyph292" unicode="&#x1eab;" 
d="M235 0v52h-2q-23 -31 -41 -43q-23 -15 -57 -15q-110 0 -110 135q0 92 35.5 132t125.5 40q8 0 24.5 -1.5t24.5 -1.5v53q0 60 -51 60q-49 0 -58 -51h-99q5 69 47 111t110 42q71 0 112 -44t41 -116v-353h-102zM235 149v69q-16 3 -28 3q-80 0 -80 -72q0 -65 53 -65
q55 0 55 65zM74 552l74 107h72l74 -107h-59l-51 72l-51 -72h-59zM287 777l35 -5q-58 -77 -110 -76q-12 0 -44.5 14.5t-40.5 14.5q-29 0 -46 -32l-35 5q57 76 110 75q12 0 44 -14t41 -14q29 0 46 32z" />
    <glyph glyph-name="glyph293" unicode="&#x1eac;" horiz-adv-x="407" 
d="M254 249l-50 258h-2l-50 -258h102zM2 0l159 712h85l159 -712h-102l-30 153h-139l-30 -153h-102zM86 740l78 112h76l78 -112h-62l-54 76l-54 -76h-62zM156 -132v92h92v-92h-92z" />
    <glyph glyph-name="glyph294" unicode="&#x1ead;" 
d="M235 0v52h-2q-23 -31 -41 -43q-23 -15 -57 -15q-110 0 -110 135q0 92 35.5 132t125.5 40q8 0 24.5 -1.5t24.5 -1.5v53q0 60 -51 60q-49 0 -58 -51h-99q5 69 47 111t110 42q71 0 112 -44t41 -116v-353h-102zM235 149v69q-16 3 -28 3q-80 0 -80 -72q0 -65 53 -65
q55 0 55 65zM74 552l74 106h72l74 -106h-59l-51 72l-51 -72h-59zM140 -138v88h88v-88h-88z" />
    <glyph glyph-name="glyph295" unicode="&#x1eae;" horiz-adv-x="407" 
d="M254 249l-50 258h-2l-50 -258h102zM2 0l159 712h85l159 -712h-102l-30 153h-139l-30 -153h-102zM280 859l39 -5q-17 -104 -117 -104t-117 104l39 5q8 -58 78 -58t78 58zM202 860l70 141l108 10l-152 -141z" />
    <glyph glyph-name="glyph296" unicode="&#x1eaf;" 
d="M235 0v52h-2q-23 -31 -41 -43q-23 -15 -57 -15q-110 0 -110 135q0 92 35.5 132t125.5 40q8 0 24.5 -1.5t24.5 -1.5v53q0 60 -51 60q-49 0 -58 -51h-99q5 69 47 111t110 42q71 0 112 -44t41 -116v-353h-102zM235 149v69q-16 3 -28 3q-80 0 -80 -72q0 -65 53 -65
q55 0 55 65zM258 665l37 -5q-15 -99 -111 -99q-94 0 -111 99l37 5q8 -55 74 -55q68 0 74 55zM184 666l67 133l102 10l-144 -134z" />
    <glyph glyph-name="glyph297" unicode="&#x1eb0;" horiz-adv-x="407" 
d="M254 249l-50 258h-2l-50 -258h102zM2 0l159 712h85l159 -712h-102l-30 153h-139l-30 -153h-102zM280 859l39 -5q-17 -104 -117 -104t-117 104l39 5q8 -58 78 -58t78 58zM132 1002l70 -141l-26 10l-152 141z" />
    <glyph glyph-name="glyph298" unicode="&#x1eb1;" 
d="M235 0v52h-2q-23 -31 -41 -43q-23 -15 -57 -15q-110 0 -110 135q0 92 35.5 132t125.5 40q8 0 24.5 -1.5t24.5 -1.5v53q0 60 -51 60q-49 0 -58 -51h-99q5 69 47 111t110 42q71 0 112 -44t41 -116v-353h-102zM235 149v69q-16 3 -28 3q-80 0 -80 -72q0 -65 53 -65
q55 0 55 65zM257 665l37 -5q-17 -99 -111 -99q-95 0 -112 99l38 5q6 -55 74 -55q66 0 74 55zM116 800l67 -133l-25 9l-144 134z" />
    <glyph glyph-name="glyph299" unicode="&#x1eb2;" horiz-adv-x="407" 
d="M254 249l-50 258h-2l-50 -258h102zM2 0l159 712h85l159 -712h-102l-30 153h-139l-30 -153h-102zM280 859l39 -5q-17 -104 -117 -104t-117 104l39 5q8 -58 78 -58t78 58zM138 987v25q0 28 18.5 46.5t46.5 18.5q65 0 65 -76q0 -25 -6 -37l-1 -2l-29 -51q-8 -14 -8 -22v-14
l-22 -15l-21 15v20q0 17 11 35l27 44q5 8 5 21v19q0 22 -21 22q-22 0 -22 -22v-27l-21 -15z" />
    <glyph glyph-name="glyph300" unicode="&#x1eb3;" 
d="M235 0v52h-2q-23 -31 -41 -43q-23 -15 -57 -15q-110 0 -110 135q0 92 35.5 132t125.5 40q8 0 24.5 -1.5t24.5 -1.5v53q0 60 -51 60q-49 0 -58 -51h-99q5 69 47 111t110 42q71 0 112 -44t41 -116v-353h-102zM235 149v69q-16 3 -28 3q-80 0 -80 -72q0 -65 53 -65
q55 0 55 65zM258 665l37 -5q-15 -99 -111 -99t-111 99l37 5q8 -55 74 -55t74 55zM123 786v24q0 26 18 44t44 18q51 0 60 -47q2 -9 2 -25q0 -28 -7 -37l-27 -49q-8 -15 -8 -21v-13l-21 -14l-20 14v19q0 15 11 33l25 42q5 8 5 20v18q0 21 -20 21q-21 0 -21 -21v-26l-20 -14z
" />
    <glyph glyph-name="glyph301" unicode="&#x1eb4;" horiz-adv-x="407" 
d="M254 249l-50 258h-2l-50 -258h102zM2 0l159 712h85l159 -712h-102l-30 153h-139l-30 -153h-102zM280 859l39 -5q-17 -104 -117 -104t-117 104l39 5q8 -58 78 -58t78 58zM434 977l37 -6q-59 -80 -116 -79q-13 0 -46.5 15t-42.5 15q-31 0 -48 -34l-37 6q59 80 116 79
q13 0 46.5 -15t42.5 -15q31 0 48 34z" />
    <glyph glyph-name="glyph302" unicode="&#x1eb5;" 
d="M235 0v52h-2q-23 -31 -41 -43q-23 -15 -57 -15q-110 0 -110 135q0 92 35.5 132t125.5 40q8 0 24.5 -1.5t24.5 -1.5v53q0 60 -51 60q-49 0 -58 -51h-99q5 69 47 111t110 42q71 0 112 -44t41 -116v-353h-102zM235 149v69q-16 3 -28 3q-80 0 -80 -72q0 -65 53 -65
q55 0 55 65zM258 664l37 -4q-17 -99 -111 -99q-95 0 -112 99l37 4q8 -55 75 -55q66 0 74 55zM404 777l35 -6q-56 -76 -110 -75q-12 0 -44 14t-41 14q-30 0 -45 -32l-35 6q55 76 110 75q12 0 44.5 -14.5t39.5 -14.5q30 0 46 33z" />
    <glyph glyph-name="glyph303" unicode="&#x1eb6;" horiz-adv-x="407" 
d="M254 249l-50 258h-2l-50 -258h102zM2 0l159 712h85l159 -712h-102l-30 153h-139l-30 -153h-102zM280 859l39 -5q-17 -104 -117 -104t-117 104l39 5q8 -58 78 -58t78 58zM156 -132v92h92v-92h-92z" />
    <glyph glyph-name="glyph304" unicode="&#x1eb7;" 
d="M235 0v52h-2q-23 -31 -41 -43q-23 -15 -57 -15q-110 0 -110 135q0 92 35.5 132t125.5 40q8 0 24.5 -1.5t24.5 -1.5v53q0 60 -51 60q-49 0 -58 -51h-99q5 69 47 111t110 42q71 0 112 -44t41 -116v-353h-102zM235 149v69q-16 3 -28 3q-80 0 -80 -72q0 -65 53 -65
q55 0 55 65zM140 -138v88h88v-88h-88zM258 665l37 -5q-15 -99 -111 -99q-94 0 -111 99l37 5q8 -55 74 -55q68 0 74 55z" />
    <glyph glyph-name="glyph305" unicode="&#x1eb8;" 
d="M48 0v712h304v-96h-202v-209h176v-96h-176v-209h202v-102h-304zM153 -142v92h92v-92h-92z" />
    <glyph glyph-name="glyph306" unicode="&#x1eb9;" 
d="M337 215h-202v-69q0 -50 50 -50q45 0 50 51h102q0 -67 -42.5 -110t-109.5 -43q-93 0 -133 73q-19 35 -19 103v167q0 68 19 103q40 73 133 73q69 0 110.5 -44.5t41.5 -113.5v-140zM135 353v-58h100v58q0 58 -50 58t-50 -58zM140 -138v88h88v-88h-88z" />
    <glyph glyph-name="glyph307" unicode="&#x1eba;" 
d="M48 0v712h304v-96h-202v-209h176v-96h-176v-209h202v-102h-304zM135 887v25q0 28 18.5 46.5t46.5 18.5q65 0 65 -76q0 -25 -6 -37l-1 -2l-29 -51q-8 -14 -8 -22v-14l-22 -15l-21 15v20q0 17 11 35l27 44q5 8 5 21v19q0 22 -21 22q-22 0 -22 -22v-27l-21 -15z" />
    <glyph glyph-name="glyph308" unicode="&#x1ebb;" 
d="M337 215h-202v-69q0 -50 50 -50q45 0 50 51h102q0 -67 -42.5 -110t-109.5 -43q-93 0 -133 73q-19 35 -19 103v167q0 68 19 103q40 73 133 73q69 0 110.5 -44.5t41.5 -113.5v-140zM135 353v-58h100v58q0 58 -50 58t-50 -58zM123 696v24q0 26 17.5 44t43.5 18q62 0 62 -73
q0 -27 -6 -37l-28 -48q-8 -14 -8 -21v-13l-20 -15l-20 15v19q0 17 10 33l26 42q4 9 4 20v18q0 21 -20 21t-20 -21v-26l-20 -14z" />
    <glyph glyph-name="glyph309" unicode="&#x1ebc;" 
d="M48 0v712h304v-96h-202v-209h176v-96h-176v-209h202v-102h-304zM307 865l37 -6q-59 -80 -116 -79q-13 0 -46.5 15t-42.5 15q-31 0 -48 -34l-37 6q59 80 116 79q13 0 46.5 -15t42.5 -15q31 0 48 34z" />
    <glyph glyph-name="glyph310" unicode="&#x1ebd;" 
d="M337 215h-202v-69q0 -50 50 -50q45 0 50 51h102q0 -67 -42.5 -110t-109.5 -43q-93 0 -133 73q-19 35 -19 103v167q0 68 19 103q40 73 133 73q69 0 110.5 -44.5t41.5 -113.5v-140zM135 353v-58h100v58q0 58 -50 58t-50 -58zM287 674l35 -5q-58 -77 -110 -76
q-12 0 -44.5 14.5t-40.5 14.5q-29 0 -46 -32l-35 5q57 76 110 75q12 0 44 -14t41 -14q29 0 46 32z" />
    <glyph glyph-name="glyph311" unicode="&#x1ebe;" 
d="M48 0v712h304v-96h-202v-209h176v-96h-176v-209h202v-102h-304zM83 750l78 112h76l78 -112h-62l-54 76l-54 -76h-62zM295 826l70 141l108 10l-152 -141z" />
    <glyph glyph-name="glyph312" unicode="&#x1ebf;" 
d="M337 215h-202v-69q0 -50 50 -50q45 0 50 51h102q0 -67 -42.5 -110t-109.5 -43q-93 0 -133 73q-19 35 -19 103v167q0 68 19 103q40 73 133 73q69 0 110.5 -44.5t41.5 -113.5v-140zM135 353v-58h100v58q0 58 -50 58t-50 -58zM74 552l74 106h72l74 -106h-59l-51 72l-51 -72
h-59zM275 624l67 134l102 10l-144 -134z" />
    <glyph glyph-name="glyph313" unicode="&#x1ec0;" 
d="M48 0v712h304v-96h-202v-209h176v-96h-176v-209h202v-102h-304zM83 750l78 112h76l78 -112h-62l-54 76l-54 -76h-62zM33 967l70 -141l-26 10l-152 141z" />
    <glyph glyph-name="glyph314" unicode="&#x1ec1;" 
d="M337 215h-202v-69q0 -50 50 -50q45 0 50 51h102q0 -67 -42.5 -110t-109.5 -43q-93 0 -133 73q-19 35 -19 103v167q0 68 19 103q40 73 133 73q69 0 110.5 -44.5t41.5 -113.5v-140zM135 353v-58h100v58q0 58 -50 58t-50 -58zM74 552l74 106h72l74 -106h-59l-51 72l-51 -72
h-59zM26 758l67 -134l-25 10l-144 134z" />
    <glyph glyph-name="glyph315" unicode="&#x1ec2;" 
d="M48 0v712h304v-96h-202v-209h176v-96h-176v-209h202v-102h-304zM83 750l78 112h76l78 -112h-62l-54 76l-54 -76h-62zM251 953v25q0 28 18.5 46.5t46.5 18.5q65 0 65 -76q0 -25 -6 -37l-1 -2l-29 -51q-8 -14 -8 -22v-14l-22 -15l-21 15v20q0 17 11 35l27 44q5 8 5 21v19
q0 22 -21 22q-22 0 -22 -22v-27l-21 -15z" />
    <glyph glyph-name="glyph316" unicode="&#x1ec3;" 
d="M337 215h-202v-69q0 -50 50 -50q45 0 50 51h102q0 -67 -42.5 -110t-109.5 -43q-93 0 -133 73q-19 35 -19 103v167q0 68 19 103q40 73 133 73q69 0 110.5 -44.5t41.5 -113.5v-140zM135 353v-58h100v58q0 58 -50 58t-50 -58zM74 552l74 107h72l75 -107h-59l-52 72l-51 -72
h-59zM234 745v24q0 26 17.5 44t43.5 18q62 0 62 -73q0 -27 -6 -37l-28 -48q-8 -14 -8 -21v-13l-20 -15l-20 15v19q0 17 10 33l26 42q4 9 4 20v18q0 21 -20 21t-20 -21v-26l-20 -14z" />
    <glyph glyph-name="glyph317" unicode="&#x1ec4;" 
d="M48 0v712h304v-96h-202v-209h176v-96h-176v-209h202v-102h-304zM83 750l78 112h76l78 -112h-62l-54 76l-54 -76h-62zM307 987l37 -6q-59 -80 -116 -79q-13 0 -46.5 15t-42.5 15q-31 0 -48 -34l-37 6q59 80 116 79q13 0 46.5 -15t42.5 -15q31 0 48 34z" />
    <glyph glyph-name="glyph318" unicode="&#x1ec5;" 
d="M337 215h-202v-69q0 -50 50 -50q45 0 50 51h102q0 -67 -42.5 -110t-109.5 -43q-93 0 -133 73q-19 35 -19 103v167q0 68 19 103q40 73 133 73q69 0 110.5 -44.5t41.5 -113.5v-140zM135 353v-58h100v58q0 58 -50 58t-50 -58zM74 552l74 107h72l74 -107h-59l-51 72l-51 -72
h-59zM287 777l35 -5q-58 -77 -110 -76q-12 0 -44.5 14.5t-40.5 14.5q-29 0 -46 -32l-35 5q57 76 110 75q12 0 44 -14t41 -14q29 0 46 32z" />
    <glyph glyph-name="glyph319" unicode="&#x1ec6;" 
d="M48 0v712h304v-96h-202v-209h176v-96h-176v-209h202v-102h-304zM83 750l78 112h76l78 -112h-62l-54 76l-54 -76h-62zM153 -142v92h92v-92h-92z" />
    <glyph glyph-name="glyph320" unicode="&#x1ec7;" 
d="M337 215h-202v-69q0 -50 50 -50q45 0 50 51h102q0 -67 -42.5 -110t-109.5 -43q-93 0 -133 73q-19 35 -19 103v167q0 68 19 103q40 73 133 73q69 0 110.5 -44.5t41.5 -113.5v-140zM135 353v-58h100v58q0 58 -50 58t-50 -58zM74 552l74 106h72l74 -106h-59l-51 72l-51 -72
h-59zM140 -138v88h88v-88h-88z" />
    <glyph glyph-name="glyph321" unicode="&#x1ec8;" horiz-adv-x="204" 
d="M51 0v712h102v-712h-102zM38 887v25q0 28 18.5 46.5t46.5 18.5q65 0 65 -76q0 -25 -6 -37l-1 -2l-29 -51q-8 -14 -8 -22v-14l-22 -15l-21 15v20q0 17 11 35l27 44q5 8 5 21v19q0 22 -21 22q-22 0 -22 -22v-27l-21 -15z" />
    <glyph glyph-name="glyph322" unicode="&#x1ec9;" horiz-adv-x="186" 
d="M42 0v507h102v-507h-102zM31 686v24q0 26 17.5 44t43.5 18q62 0 62 -73q0 -27 -6 -37l-28 -48q-8 -14 -8 -21v-13l-20 -15l-20 15v19q0 17 10 33l26 42q4 9 4 20v18q0 21 -20 21t-20 -21v-26l-20 -14z" />
    <glyph glyph-name="glyph323" unicode="&#x1eca;" horiz-adv-x="204" 
d="M51 0v712h102v-712h-102zM55 -142v92h92v-92h-92z" />
    <glyph glyph-name="glyph324" unicode="&#x1ecb;" horiz-adv-x="186" 
d="M42 0v507h102v-507h-102zM47 580v92h92v-92h-92zM49 -137v88h88v-88h-88z" />
    <glyph glyph-name="glyph325" unicode="&#x1ecc;" horiz-adv-x="426" 
d="M42 168v376q0 76 47.5 125t123.5 49t123.5 -49t47.5 -125v-376q0 -75 -48 -124.5t-123 -49.5t-123 49.5t-48 124.5zM144 544v-376q0 -32 19 -52t50 -20q69 0 69 72v376q0 72 -69 72q-31 0 -50 -20t-19 -52zM168 -147v92h92v-92h-92z" />
    <glyph glyph-name="glyph326" unicode="&#x1ecd;" 
d="M33 170v167q0 68 19 103q40 73 133 73t133 -73q19 -35 19 -103v-167q0 -68 -19 -103q-40 -73 -133 -73t-133 73q-19 35 -19 103zM135 353v-199q0 -58 50 -58t50 58v199q0 58 -50 58t-50 -58zM140 -138v88h88v-88h-88z" />
    <glyph glyph-name="glyph327" unicode="&#x1ece;" horiz-adv-x="426" 
d="M42 168v376q0 76 47.5 125t123.5 49t123.5 -49t47.5 -125v-376q0 -75 -48 -124.5t-123 -49.5t-123 49.5t-48 124.5zM144 544v-376q0 -32 19 -52t50 -20q69 0 69 72v376q0 72 -69 72q-31 0 -50 -20t-19 -52zM149 892v25q0 28 18.5 46.5t46.5 18.5q65 0 65 -76
q0 -25 -6 -37l-1 -2l-29 -51q-8 -14 -8 -22v-14l-22 -15l-21 15v20q0 17 11 35l27 44q5 8 5 21v19q0 22 -21 22q-22 0 -22 -22v-27l-21 -15z" />
    <glyph glyph-name="glyph328" unicode="&#x1ecf;" 
d="M33 170v167q0 68 19 103q40 73 133 73t133 -73q19 -35 19 -103v-167q0 -68 -19 -103q-40 -73 -133 -73t-133 73q-19 35 -19 103zM135 353v-199q0 -58 50 -58t50 58v199q0 58 -50 58t-50 -58zM123 696v24q0 26 17.5 44t43.5 18q62 0 62 -73q0 -27 -6 -37l-28 -48
q-8 -14 -8 -21v-13l-20 -15l-20 15v19q0 17 10 33l26 42q4 9 4 20v18q0 21 -20 21t-20 -21v-26l-20 -14z" />
    <glyph glyph-name="glyph329" unicode="&#x1ed0;" horiz-adv-x="426" 
d="M42 168v376q0 76 47.5 125t123.5 49t123.5 -49t47.5 -125v-376q0 -75 -48 -124.5t-123 -49.5t-123 49.5t-48 124.5zM144 544v-376q0 -32 19 -52t50 -20q69 0 69 72v376q0 72 -69 72q-31 0 -50 -20t-19 -52zM97 750l78 112h76l78 -112h-62l-54 76l-54 -76h-62zM309 826
l70 141l108 10l-152 -141z" />
    <glyph glyph-name="glyph330" unicode="&#x1ed1;" 
d="M33 170v167q0 68 19 103q40 73 133 73t133 -73q19 -35 19 -103v-167q0 -68 -19 -103q-40 -73 -133 -73t-133 73q-19 35 -19 103zM135 353v-199q0 -58 50 -58t50 58v199q0 58 -50 58t-50 -58zM74 552l74 106h72l74 -106h-59l-51 72l-51 -72h-59zM275 624l67 134l102 10
l-144 -134z" />
    <glyph glyph-name="glyph331" unicode="&#x1ed2;" horiz-adv-x="426" 
d="M42 168v376q0 76 47.5 125t123.5 49t123.5 -49t47.5 -125v-376q0 -75 -48 -124.5t-123 -49.5t-123 49.5t-48 124.5zM144 544v-376q0 -32 19 -52t50 -20q69 0 69 72v376q0 72 -69 72q-31 0 -50 -20t-19 -52zM97 750l78 112h76l78 -112h-62l-54 76l-54 -76h-62zM47 967
l70 -141l-26 10l-152 141z" />
    <glyph glyph-name="glyph332" unicode="&#x1ed3;" 
d="M33 170v167q0 68 19 103q40 73 133 73t133 -73q19 -35 19 -103v-167q0 -68 -19 -103q-40 -73 -133 -73t-133 73q-19 35 -19 103zM135 353v-199q0 -58 50 -58t50 58v199q0 58 -50 58t-50 -58zM74 552l74 106h72l74 -106h-59l-51 72l-51 -72h-59zM26 758l67 -134l-25 10
l-144 134z" />
    <glyph glyph-name="glyph333" unicode="&#x1ed4;" horiz-adv-x="426" 
d="M42 168v376q0 76 47.5 125t123.5 49t123.5 -49t47.5 -125v-376q0 -75 -48 -124.5t-123 -49.5t-123 49.5t-48 124.5zM144 544v-376q0 -32 19 -52t50 -20q69 0 69 72v376q0 72 -69 72q-31 0 -50 -20t-19 -52zM97 750l78 112h76l78 -112h-62l-54 76l-54 -76h-62zM265 953v25
q0 28 18.5 46.5t46.5 18.5q65 0 65 -76q0 -25 -6 -37l-1 -2l-29 -51q-8 -14 -8 -22v-14l-22 -15l-21 15v20q0 17 11 35l27 44q5 8 5 21v19q0 22 -21 22q-22 0 -22 -22v-27l-21 -15z" />
    <glyph glyph-name="glyph334" unicode="&#x1ed5;" 
d="M33 170v167q0 68 19 103q40 73 133 73t133 -73q19 -35 19 -103v-167q0 -68 -19 -103q-40 -73 -133 -73t-133 73q-19 35 -19 103zM135 353v-199q0 -58 50 -58t50 58v199q0 58 -50 58t-50 -58zM74 552l74 107h72l75 -107h-59l-52 72l-51 -72h-59zM234 745v24q0 26 17.5 44
t43.5 18q62 0 62 -73q0 -27 -6 -37l-28 -48q-8 -14 -8 -21v-13l-20 -15l-20 15v19q0 17 10 33l26 42q4 9 4 20v18q0 21 -20 21t-20 -21v-26l-20 -14z" />
    <glyph glyph-name="glyph335" unicode="&#x1ed6;" horiz-adv-x="426" 
d="M42 168v376q0 76 47.5 125t123.5 49t123.5 -49t47.5 -125v-376q0 -75 -48 -124.5t-123 -49.5t-123 49.5t-48 124.5zM144 544v-376q0 -32 19 -52t50 -20q69 0 69 72v376q0 72 -69 72q-31 0 -50 -20t-19 -52zM97 750l78 112h76l78 -112h-62l-54 76l-54 -76h-62zM321 987
l37 -6q-59 -80 -116 -79q-13 0 -46.5 15t-42.5 15q-31 0 -48 -34l-37 6q59 80 116 79q13 0 46.5 -15t42.5 -15q31 0 48 34z" />
    <glyph glyph-name="glyph336" unicode="&#x1ed7;" 
d="M33 170v167q0 68 19 103q40 73 133 73t133 -73q19 -35 19 -103v-167q0 -68 -19 -103q-40 -73 -133 -73t-133 73q-19 35 -19 103zM135 353v-199q0 -58 50 -58t50 58v199q0 58 -50 58t-50 -58zM74 552l74 107h72l74 -107h-59l-51 72l-51 -72h-59zM287 777l35 -5
q-58 -77 -110 -76q-12 0 -44.5 14.5t-40.5 14.5q-29 0 -46 -32l-35 5q57 76 110 75q12 0 44 -14t41 -14q29 0 46 32z" />
    <glyph glyph-name="glyph337" unicode="&#x1ed8;" horiz-adv-x="426" 
d="M42 168v376q0 76 47.5 125t123.5 49t123.5 -49t47.5 -125v-376q0 -75 -48 -124.5t-123 -49.5t-123 49.5t-48 124.5zM144 544v-376q0 -32 19 -52t50 -20q69 0 69 72v376q0 72 -69 72q-31 0 -50 -20t-19 -52zM97 750l78 112h76l78 -112h-62l-54 76l-54 -76h-62zM168 -147
v92h92v-92h-92z" />
    <glyph glyph-name="glyph338" unicode="&#x1ed9;" 
d="M33 170v167q0 68 19 103q40 73 133 73t133 -73q19 -35 19 -103v-167q0 -68 -19 -103q-40 -73 -133 -73t-133 73q-19 35 -19 103zM135 353v-199q0 -58 50 -58t50 58v199q0 58 -50 58t-50 -58zM74 552l74 106h72l74 -106h-59l-51 72l-51 -72h-59zM140 -138v88h88v-88h-88z
" />
    <glyph glyph-name="glyph339" unicode="&#x1eda;" horiz-adv-x="426" 
d="M144 544v-376q0 -32 19 -52t50 -20q69 0 69 72v376q0 72 -69 72q-31 0 -50 -20t-19 -52zM362 634q22 -38 22 -90v-376q0 -75 -48 -124.5t-123 -49.5t-123 49.5t-48 124.5v376q0 76 47.5 125t123.5 49q51 0 92 -25l57 14q22 22 22 38q0 17 -17 30q62 -21 62 -55
q0 -12 -7 -25q-4 -8 -60 -61zM213 780l70 141l108 10l-152 -141z" />
    <glyph glyph-name="glyph340" unicode="&#x1edb;" 
d="M135 353v-199q0 -58 50 -58t50 58v199q0 58 -50 58t-50 -58zM267 492l44 12q19 19 19 34t-15 27q56 -19 56 -50q0 -11 -6 -22q-3 -6 -49 -50q2 0 2 -3q19 -35 19 -103v-167q0 -68 -19 -103q-40 -73 -133 -73t-133 73q-19 35 -19 103v167q0 68 19 103q40 73 133 73
q45 0 82 -21zM185 590l67 134l102 10l-144 -134z" />
    <glyph glyph-name="glyph341" unicode="&#x1edc;" horiz-adv-x="426" 
d="M144 544v-376q0 -32 19 -52t50 -20q69 0 69 72v376q0 72 -69 72q-31 0 -50 -20t-19 -52zM362 634q22 -38 22 -90v-376q0 -75 -48 -124.5t-123 -49.5t-123 49.5t-48 124.5v376q0 76 47.5 125t123.5 49q51 0 92 -25l57 14q22 22 22 38q0 17 -17 30q62 -21 62 -55
q0 -12 -7 -25q-4 -8 -60 -61zM143 921l70 -141l-26 10l-152 141z" />
    <glyph glyph-name="glyph342" unicode="&#x1edd;" 
d="M135 353v-199q0 -58 50 -58t50 58v199q0 58 -50 58t-50 -58zM267 492l44 12q19 19 19 34t-15 27q56 -19 56 -50q0 -11 -6 -22q-3 -6 -49 -50q2 0 2 -3q19 -35 19 -103v-167q0 -68 -19 -103q-40 -73 -133 -73t-133 73q-19 35 -19 103v167q0 68 19 103q40 73 133 73
q45 0 82 -21zM117 724l67 -134l-25 10l-144 134z" />
    <glyph glyph-name="glyph343" unicode="&#x1ede;" horiz-adv-x="426" 
d="M144 544v-376q0 -32 19 -52t50 -20q69 0 69 72v376q0 72 -69 72q-31 0 -50 -20t-19 -52zM362 634q22 -38 22 -90v-376q0 -75 -48 -124.5t-123 -49.5t-123 49.5t-48 124.5v376q0 76 47.5 125t123.5 49q51 0 92 -25l57 14q22 22 22 38q0 17 -17 30q62 -21 62 -55
q0 -12 -7 -25q-4 -8 -60 -61zM149 892v25q0 28 18.5 46.5t46.5 18.5q65 0 65 -76q0 -25 -6 -37l-1 -2l-29 -51q-8 -14 -8 -22v-14l-22 -15l-21 15v20q0 17 11 35l27 44q5 8 5 21v19q0 22 -21 22q-22 0 -22 -22v-27l-21 -15z" />
    <glyph glyph-name="glyph344" unicode="&#x1edf;" 
d="M135 353v-199q0 -58 50 -58t50 58v199q0 58 -50 58t-50 -58zM267 492l44 12q19 19 19 34t-15 27q56 -19 56 -50q0 -11 -6 -22q-3 -6 -49 -50q2 0 2 -3q19 -35 19 -103v-167q0 -68 -19 -103q-40 -73 -133 -73t-133 73q-19 35 -19 103v167q0 68 19 103q40 73 133 73
q45 0 82 -21zM123 696v24q0 26 17.5 44t43.5 18q62 0 62 -73q0 -27 -6 -37l-28 -48q-8 -14 -8 -21v-13l-20 -15l-20 15v19q0 17 10 33l26 42q4 9 4 20v18q0 21 -20 21t-20 -21v-26l-20 -14z" />
    <glyph glyph-name="glyph345" unicode="&#x1ee0;" horiz-adv-x="426" 
d="M144 544v-376q0 -32 19 -52t50 -20q69 0 69 72v376q0 72 -69 72q-31 0 -50 -20t-19 -52zM362 634q22 -38 22 -90v-376q0 -75 -48 -124.5t-123 -49.5t-123 49.5t-48 124.5v376q0 76 47.5 125t123.5 49q51 0 92 -25l57 14q22 22 22 38q0 17 -17 30q62 -21 62 -55
q0 -12 -7 -25q-4 -8 -60 -61zM321 870l37 -6q-59 -80 -116 -79q-13 0 -46.5 15t-42.5 15q-31 0 -48 -34l-37 6q59 80 116 79q13 0 46.5 -15t42.5 -15q31 0 48 34z" />
    <glyph glyph-name="glyph346" unicode="&#x1ee1;" 
d="M135 353v-199q0 -58 50 -58t50 58v199q0 58 -50 58t-50 -58zM267 492l44 12q19 19 19 34t-15 27q56 -19 56 -50q0 -11 -6 -22q-3 -6 -49 -50q2 0 2 -3q19 -35 19 -103v-167q0 -68 -19 -103q-40 -73 -133 -73t-133 73q-19 35 -19 103v167q0 68 19 103q40 73 133 73
q45 0 82 -21zM287 674l35 -5q-58 -77 -110 -76q-12 0 -44.5 14.5t-40.5 14.5q-29 0 -46 -32l-35 5q57 76 110 75q12 0 44 -14t41 -14q29 0 46 32z" />
    <glyph glyph-name="glyph347" unicode="&#x1ee2;" horiz-adv-x="426" 
d="M144 544v-376q0 -32 19 -52t50 -20q69 0 69 72v376q0 72 -69 72q-31 0 -50 -20t-19 -52zM362 634q22 -38 22 -90v-376q0 -75 -48 -124.5t-123 -49.5t-123 49.5t-48 124.5v376q0 76 47.5 125t123.5 49q51 0 92 -25l57 14q22 22 22 38q0 17 -17 30q62 -21 62 -55
q0 -12 -7 -25q-4 -8 -60 -61zM168 -147v92h92v-92h-92z" />
    <glyph glyph-name="glyph348" unicode="&#x1ee3;" 
d="M135 353v-199q0 -58 50 -58t50 58v199q0 58 -50 58t-50 -58zM267 492l44 12q19 19 19 34t-15 27q56 -19 56 -50q0 -11 -6 -22q-3 -6 -49 -50q2 0 2 -3q19 -35 19 -103v-167q0 -68 -19 -103q-40 -73 -133 -73t-133 73q-19 35 -19 103v167q0 68 19 103q40 73 133 73
q45 0 82 -21zM140 -138v88h88v-88h-88z" />
    <glyph glyph-name="glyph349" unicode="&#x1ee4;" horiz-adv-x="426" 
d="M378 712v-552q0 -69 -48 -117.5t-117 -48.5t-117 48.5t-48 117.5v552h102v-542q0 -74 63 -74t63 74v542h102zM168 -147v92h92v-92h-92z" />
    <glyph glyph-name="glyph350" unicode="&#x1ee5;" horiz-adv-x="389" 
d="M347 507v-507h-102v49h-2q-36 -55 -96 -55q-52 0 -80 37q-25 33 -25 87v389h102v-351q0 -60 50 -60q51 0 51 70v341h102zM151 -137v88h88v-88h-88z" />
    <glyph glyph-name="glyph351" unicode="&#x1ee6;" horiz-adv-x="426" 
d="M378 712v-552q0 -69 -48 -117.5t-117 -48.5t-117 48.5t-48 117.5v552h102v-542q0 -74 63 -74t63 74v542h102zM149 873v25q0 28 18.5 46.5t46.5 18.5q65 0 65 -76q0 -25 -6 -37l-1 -2l-29 -51q-8 -14 -8 -22v-14l-22 -15l-21 15v20q0 17 11 35l27 44q5 8 5 21v19
q0 22 -21 22q-22 0 -22 -22v-27l-21 -15z" />
    <glyph glyph-name="glyph352" unicode="&#x1ee7;" horiz-adv-x="389" 
d="M347 507v-507h-102v49h-2q-36 -55 -96 -55q-52 0 -80 37q-25 33 -25 87v389h102v-351q0 -60 50 -60q51 0 51 70v341h102zM135 667v24q0 26 17.5 44t43.5 18q62 0 62 -73q0 -27 -6 -37l-28 -48q-8 -14 -8 -21v-13l-20 -15l-20 15v19q0 17 10 33l26 42q4 9 4 20v18
q0 21 -20 21t-20 -21v-26l-20 -14z" />
    <glyph glyph-name="glyph353" unicode="&#x1ee8;" horiz-adv-x="426" 
d="M378 634v-474q0 -69 -48 -117.5t-117 -48.5t-117 48.5t-48 117.5v552h102v-542q0 -74 63 -74t63 74v542l102 -5q22 22 22 38q0 17 -17 30q62 -21 62 -55q0 -12 -7 -25q-4 -8 -60 -61zM213 755l70 141l108 10l-152 -141z" />
    <glyph glyph-name="glyph354" unicode="&#x1ee9;" horiz-adv-x="389" 
d="M347 439v-439h-102v49h-2q-36 -55 -96 -55q-52 0 -80 37q-25 33 -25 87v389h102v-351q0 -60 50 -60q51 0 51 70v341l102 -2q18 22 18 33q0 15 -15 27q57 -19 57 -50q0 -10 -7 -22q-1 -2 -53 -54zM196 561l67 134l102 10l-144 -134z" />
    <glyph glyph-name="glyph355" unicode="&#x1eea;" horiz-adv-x="426" 
d="M378 634v-474q0 -69 -48 -117.5t-117 -48.5t-117 48.5t-48 117.5v552h102v-542q0 -74 63 -74t63 74v542l102 -5q22 22 22 38q0 17 -17 30q62 -21 62 -55q0 -12 -7 -25q-4 -8 -60 -61zM143 896l70 -141l-26 10l-152 141z" />
    <glyph glyph-name="glyph356" unicode="&#x1eeb;" horiz-adv-x="389" 
d="M347 439v-439h-102v49h-2q-36 -55 -96 -55q-52 0 -80 37q-25 33 -25 87v389h102v-351q0 -60 50 -60q51 0 51 70v341l102 -2q18 22 18 33q0 15 -15 27q57 -19 57 -50q0 -10 -7 -22q-1 -2 -53 -54zM129 695l67 -134l-25 10l-144 134z" />
    <glyph glyph-name="glyph357" unicode="&#x1eec;" horiz-adv-x="426" 
d="M378 634v-474q0 -69 -48 -117.5t-117 -48.5t-117 48.5t-48 117.5v552h102v-542q0 -74 63 -74t63 74v542l102 -5q22 22 22 38q0 17 -17 30q62 -21 62 -55q0 -12 -7 -25q-4 -8 -60 -61zM149 873v25q0 28 18.5 46.5t46.5 18.5q65 0 65 -76q0 -25 -6 -37l-1 -2l-29 -51
q-8 -14 -8 -22v-14l-22 -15l-21 15v20q0 17 11 35l27 44q5 8 5 21v19q0 22 -21 22q-22 0 -22 -22v-27l-21 -15z" />
    <glyph glyph-name="glyph358" unicode="&#x1eed;" horiz-adv-x="389" 
d="M347 439v-439h-102v49h-2q-36 -55 -96 -55q-52 0 -80 37q-25 33 -25 87v389h102v-351q0 -60 50 -60q51 0 51 70v341l102 -2q18 22 18 33q0 15 -15 27q57 -19 57 -50q0 -10 -7 -22q-1 -2 -53 -54zM135 667v24q0 26 17.5 44t43.5 18q62 0 62 -73q0 -27 -6 -37l-28 -48
q-8 -14 -8 -21v-13l-20 -15l-20 15v19q0 17 10 33l26 42q4 9 4 20v18q0 21 -20 21t-20 -21v-26l-20 -14z" />
    <glyph glyph-name="glyph359" unicode="&#x1eee;" horiz-adv-x="426" 
d="M378 634v-474q0 -69 -48 -117.5t-117 -48.5t-117 48.5t-48 117.5v552h102v-542q0 -74 63 -74t63 74v542l102 -5q22 22 22 38q0 17 -17 30q62 -21 62 -55q0 -12 -7 -25q-4 -8 -60 -61zM321 850l37 -6q-59 -80 -116 -79q-13 0 -46.5 15t-42.5 15q-31 0 -48 -34l-37 6
q59 80 116 79q13 0 46.5 -15t42.5 -15q31 0 48 34z" />
    <glyph glyph-name="glyph360" unicode="&#x1eef;" horiz-adv-x="389" 
d="M347 439v-439h-102v49h-2q-36 -55 -96 -55q-52 0 -80 37q-25 33 -25 87v389h102v-351q0 -60 50 -60q51 0 51 70v341l102 -2q18 22 18 33q0 15 -15 27q57 -19 57 -50q0 -10 -7 -22q-1 -2 -53 -54zM299 655l35 -5q-58 -77 -110 -76q-12 0 -44.5 14.5t-40.5 14.5
q-29 0 -46 -32l-35 5q57 76 110 75q12 0 44 -14t41 -14q29 0 46 32z" />
    <glyph glyph-name="glyph361" unicode="&#x1ef0;" horiz-adv-x="426" 
d="M378 634v-474q0 -69 -48 -117.5t-117 -48.5t-117 48.5t-48 117.5v552h102v-542q0 -74 63 -74t63 74v542l102 -5q22 22 22 38q0 17 -17 30q62 -21 62 -55q0 -12 -7 -25q-4 -8 -60 -61zM168 -147v92h92v-92h-92z" />
    <glyph glyph-name="glyph362" unicode="&#x1ef1;" horiz-adv-x="389" 
d="M347 439v-439h-102v49h-2q-36 -55 -96 -55q-52 0 -80 37q-25 33 -25 87v389h102v-351q0 -60 50 -60q51 0 51 70v341l102 -2q18 22 18 33q0 15 -15 27q57 -19 57 -50q0 -10 -7 -22q-1 -2 -53 -54zM151 -137v88h88v-88h-88z" />
    <glyph glyph-name="glyph363" unicode="&#x1ef2;" horiz-adv-x="388" 
d="M143 0v301l-140 411h108l82 -283h2l82 283h108l-140 -411v-301h-102zM124 891l70 -141l-26 10l-152 141z" />
    <glyph glyph-name="glyph364" unicode="&#x1ef3;" horiz-adv-x="352" 
d="M-1 507h108l70 -316h2l69 316h105l-146 -595q-29 -117 -141 -117h-28v96h23q40 0 59 49q4 11 18 83zM111 686l67 -134l-25 10l-144 134z" />
    <glyph glyph-name="glyph365" unicode="&#x1ef4;" horiz-adv-x="388" 
d="M143 0v301l-140 411h108l82 -283h2l82 283h108l-140 -411v-301h-102zM148 -142v92h92v-92h-92z" />
    <glyph glyph-name="glyph366" unicode="&#x1ef5;" horiz-adv-x="352" 
d="M-1 507h108l70 -316h2l69 316h105l-146 -595q-29 -117 -141 -117h-28v96h23q40 0 59 49q4 11 18 83zM247 -138v88h88v-88h-88z" />
    <glyph glyph-name="glyph367" unicode="&#x1ef6;" horiz-adv-x="388" 
d="M143 0v301l-140 411h108l82 -283h2l82 283h108l-140 -411v-301h-102zM130 862v25q0 28 18.5 46.5t46.5 18.5q65 0 65 -76q0 -25 -6 -37l-1 -2l-29 -51q-8 -14 -8 -22v-14l-22 -15l-21 15v20q0 17 11 35l27 44q5 8 5 21v19q0 22 -21 22q-22 0 -22 -22v-27l-21 -15z" />
    <glyph glyph-name="glyph368" unicode="&#x1ef7;" horiz-adv-x="352" 
d="M-1 507h108l70 -316h2l69 316h105l-146 -595q-29 -117 -141 -117h-28v96h23q40 0 59 49q4 11 18 83zM117 652v24q0 26 17.5 44t43.5 18q62 0 62 -73q0 -27 -6 -37l-28 -48q-8 -14 -8 -21v-13l-20 -15l-20 15v19q0 17 10 33l26 42q4 9 4 20v18q0 21 -20 21t-20 -21v-26
l-20 -14z" />
    <glyph glyph-name="glyph369" unicode="&#x1ef8;" horiz-adv-x="388" 
d="M143 0v301l-140 411h108l82 -283h2l82 283h108l-140 -411v-301h-102zM302 845l37 -6q-59 -80 -116 -79q-13 0 -46.5 15t-42.5 15q-31 0 -48 -34l-37 6q59 80 116 79q13 0 46.5 -15t42.5 -15q31 0 48 34z" />
    <glyph glyph-name="glyph370" unicode="&#x1ef9;" horiz-adv-x="352" 
d="M-1 507h108l70 -316h2l69 316h105l-146 -595q-29 -117 -141 -117h-28v96h23q40 0 59 49q4 11 18 83zM281 645l35 -5q-58 -77 -110 -76q-12 0 -44.5 14.5t-40.5 14.5q-29 0 -46 -32l-35 5q57 76 110 75q12 0 44 -14t41 -14q29 0 46 32z" />
    <glyph glyph-name="endash" unicode="&#x2013;" horiz-adv-x="500" 
d="M0 229v96h500v-96h-500z" />
    <glyph glyph-name="emdash" unicode="&#x2014;" horiz-adv-x="1000" 
d="M0 229v96h1000v-96h-1000z" />
    <glyph glyph-name="quoteleft" unicode="&#x2018;" horiz-adv-x="186" 
d="M144 712v-176h-102v102z" />
    <glyph glyph-name="quoteright" unicode="&#x2019;" horiz-adv-x="186" 
d="M42 536v176h102v-102z" />
    <glyph glyph-name="quotesinglbase" unicode="&#x201a;" horiz-adv-x="186" 
d="M42 -74v176h102v-102z" />
    <glyph glyph-name="quotedblleft" unicode="&#x201c;" horiz-adv-x="278" 
d="M260 712v-176h-102v102zM120 712v-176h-102v102z" />
    <glyph glyph-name="quotedblright" unicode="&#x201d;" horiz-adv-x="278" 
d="M18 536v176h102v-102zM158 536v176h102v-102z" />
    <glyph glyph-name="quotedblbase" unicode="&#x201e;" horiz-adv-x="278" 
d="M18 -74v176h102v-102zM158 -74v176h102v-102z" />
    <glyph glyph-name="dagger" unicode="&#x2020;" 
d="M140 -205v601h-134v90h134v226h90v-226h134v-90h-134v-601h-90z" />
    <glyph glyph-name="daggerdbl" unicode="&#x2021;" 
d="M140 494v218h90v-218h134v-80h-134v-321h134v-80h-134v-218h-90v218h-134v80h134v321h-134v80h134z" />
    <glyph glyph-name="bullet" unicode="&#x2022;" horiz-adv-x="500" 
d="M72 356q0 74 52.5 126t125.5 52q74 0 126 -52t52 -126q0 -73 -52 -125.5t-126 -52.5q-73 0 -125.5 52.5t-52.5 125.5z" />
    <glyph glyph-name="ellipsis" unicode="&#x2026;" horiz-adv-x="1000" 
d="M116 0v102h102v-102h-102zM449 0v102h102v-102h-102zM782 0v102h102v-102h-102z" />
    <glyph glyph-name="perthousand" unicode="&#x2030;" horiz-adv-x="537" 
d="M418 131v-51q0 -26 25 -26t25 26v51q0 26 -25 26t-25 -26zM358 70v65q0 38 23 60t62 22t62 -22t23 -60v-65q0 -34 -23 -55t-62 -21t-62 21t-23 55zM69 632v-51q0 -26 25 -26t25 26v51q0 26 -25 26t-25 -26zM9 571v65q0 38 23 60t62 22t62 -22t23 -60v-65q0 -34 -23 -55
t-62 -21t-62 21t-23 55zM225 131v-51q0 -26 25 -26t25 26v51q0 26 -25 26t-25 -26zM165 70v65q0 38 23 60t62 22t62 -22t23 -60v-65q0 -34 -23 -55t-62 -21t-62 21t-23 55zM20 0l244 712h66l-244 -712h-66z" />
    <glyph glyph-name="guilsinglleft" unicode="&#x2039;" horiz-adv-x="241" 
d="M213 479v-102l-101 -100l101 -100v-102l-203 202z" />
    <glyph glyph-name="guilsinglright" unicode="&#x203a;" horiz-adv-x="241" 
d="M28 75v102l101 100l-101 100v102l203 -202z" />
    <glyph glyph-name="fraction" unicode="&#x2044;" horiz-adv-x="167" 
d="M-165 -17l437 746h60l-437 -746h-60z" />
    <glyph glyph-name="franc" unicode="&#x20a3;" horiz-adv-x="1035" 
d="M48 0v712h304v-96h-202v-216h176v-96h-176v-304h-102zM694 0v507h102v-54q68 60 135 60v-108q-15 6 -31 6q-39 0 -68 -24q-36 -30 -36 -86v-301h-102z" />
    <glyph glyph-name="u20AB" unicode="&#x20ab;" horiz-adv-x="393" 
d="M197 501q-48 0 -84 -88q-20 -49 -20 -90q0 -51 39 -51q41 0 74 71q28 60 28 107q0 51 -37 51zM200 267q-53 -62 -106 -62q-45 0 -68 28t-23 74q0 80 55 153q59 78 136 78q34 0 61 -24l20 75h-100l10 36h100l2 16q0 31 -48 32l7 33q67 2 128 14l15 3q6 0 6 -9l-3 -12
l-19 -77h65l-10 -36h-65l-69 -280q-5 -20 -5 -27q0 -15 12 -15q6 0 49 42l20 -18q-70 -86 -117 -86q-43 0 -53 62zM9 160h221v-56h-221v56z" />
    <glyph glyph-name="trademark" unicode="&#x2122;" horiz-adv-x="990" 
d="M166 300v346h-127v66h326v-66h-127v-346h-72zM805 300v346h-2l-137 -346h-41l-136 346h-2v-346h-72v412h114l117 -301l117 301h114v-412h-72z" />
    <glyph glyph-name="minus" unicode="&#x2212;" horiz-adv-x="600" 
d="M47 213v80h506v-80h-506z" />
    <glyph glyph-name="SF370000" unicode="&#x255f;" horiz-adv-x="718" 
d="M254 249l-50 258h-2l-50 -258h102zM2 0l159 712h85l159 -712h-102l-30 153h-139l-30 -153h-102z" />
    <glyph glyph-name="SF420000" unicode="&#x2560;" horiz-adv-x="681" 
d="M48 0v712h304v-96h-202v-209h176v-96h-176v-209h202v-102h-304z" />
    <glyph glyph-name="SF190000" unicode="&#x2561;" horiz-adv-x="429" 
d="M51 0v712h102v-712h-102z" />
    <glyph glyph-name="SF200000" unicode="&#x2562;" horiz-adv-x="773" 
d="M42 168v376q0 82 54 131q49 43 117 43t117 -43q54 -49 54 -131v-376q0 -82 -54 -130q-49 -44 -117 -44t-117 44q-54 48 -54 130zM144 544v-376q0 -35 21 -54q18 -18 48 -18t49.5 18.5t19.5 53.5v376q0 35 -19.5 53.5t-49.5 18.5t-48 -18q-21 -19 -21 -54z" />
    <glyph glyph-name="SF230000" unicode="&#x2563;" horiz-adv-x="811" 
d="M378 712v-552q0 -69 -48 -117.5t-117 -48.5q-68 0 -116.5 48.5t-48.5 117.5v552h102v-542q0 -74 63 -74t63 74v542h102z" />
    <glyph glyph-name="SF470000" unicode="&#x2564;" horiz-adv-x="699" 
d="M143 0v301l-140 411h108l82 -283h2l82 283h108l-140 -411v-301h-102z" />
    <glyph glyph-name="SF480000" unicode="&#x2565;" horiz-adv-x="541" 
d="M235 0v52h-2q-23 -31 -41 -43q-23 -15 -57 -15q-110 0 -110 135q0 91 34.5 131.5t126.5 40.5q8 0 22 -1q18 -2 27 -2v53q0 60 -51 60q-49 0 -58 -51h-99q5 68 47 110.5t110 42.5q67 0 108 -40q45 -43 45 -120v-353h-102zM235 149v69q-16 3 -28 3q-80 0 -80 -72
q0 -65 53 -65q55 0 55 65z" />
    <glyph glyph-name="SF410000" unicode="&#x2566;" horiz-adv-x="431" 
d="M337 215h-202v-69q0 -50 50 -50q45 0 50 51h102q0 -65 -42 -109t-110 -44q-93 0 -133 73q-19 35 -19 103v167q0 68 19 103q40 73 133 73q69 0 110.5 -45t41.5 -113v-140zM135 353v-58h100v58q0 58 -50 58t-50 -58z" />
    <glyph glyph-name="SF450000" unicode="&#x2567;" horiz-adv-x="314" 
d="M42 0v507h102v-507h-102zM42 610v102h102v-102h-102z" />
    <glyph glyph-name="SF460000" unicode="&#x2568;" horiz-adv-x="314" 
d="M42 0v507h102v-507h-102z" />
    <glyph glyph-name="SF400000" unicode="&#x2569;" horiz-adv-x="498" 
d="M33 170v167q0 68 19 103q40 73 133 73t133 -73q19 -35 19 -103v-167q0 -68 -19 -103q-40 -73 -133 -73t-133 73q-19 35 -19 103zM135 353v-199q0 -58 50 -58t50 58v199q0 58 -50 58t-50 -58z" />
    <glyph glyph-name="SF540000" unicode="&#x256a;" horiz-adv-x="557" 
d="M347 507v-507h-102v49h-2q-36 -55 -96 -55q-43 0 -72 28q-33 33 -33 96v389h102v-351q0 -60 50 -60q51 0 51 70v341h102z" />
    <glyph glyph-name="SF530000" unicode="&#x256b;" horiz-adv-x="497" 
d="M-1 507h108l70 -316h2l69 316h105l-146 -595q-29 -117 -141 -117h-28v96h23q32 0 46 23t31 109z" />
    <glyph glyph-name="circle" unicode="&#x25cb;" horiz-adv-x="718" 
d="M176 806l98 141h94l98 -141h-78l-67 95l-67 -95h-78zM230 994l90 141h108l-132 -141h-66z" />
    <glyph glyph-name="H18533" unicode="&#x25cf;" horiz-adv-x="718" 
d="M176 806l98 141h94l98 -141h-78l-67 95l-67 -95h-78zM379 1136l90 -141h-66l-132 141h108z" />
    <glyph glyph-name="invbullet" unicode="&#x25d8;" horiz-adv-x="718" 
d="M176 806l98 141h94l98 -141h-78l-67 95l-67 -95h-78zM614 903q9 29 11 64q1 11 8 13q3 0 8 1q67 11 67 54q0 35 -28 35q-5 0 -14 -1t-14 -1q-21 0 -21 18q0 28 32 28q46 0 76 -25.5t26 -70.5q-6 -59 -87 -81q-25 -7 -31 -34h-33z" />
    <glyph glyph-name="invcircle" unicode="&#x25d9;" horiz-adv-x="718" 
d="M176 806l98 141h94l98 -141h-78l-67 95l-67 -95h-78zM487 1119v0h51q-22 -111 -101 -111q-16 0 -74.5 20t-69.5 20q-42 0 -44 -45h-51q22 111 101 111q17 0 75.5 -20t68.5 -20q42 0 44 45z" />
    <glyph glyph-name="fi" unicode="&#xf001;" horiz-adv-x="407" 
d="M55 0v427h-50v80h50v69q0 69 41 105q35 31 90 31h47v-96h-46q-30 0 -30 -35v-74h76v-80h-76v-427h-102zM263 0v507h102v-507h-102zM263 610v102h102v-102h-102z" />
    <glyph glyph-name="fl" unicode="&#xf002;" horiz-adv-x="407" 
d="M55 0v427h-50v80h50v69q0 69 41 105q35 31 90 31h47v-96h-46q-30 0 -30 -35v-74h76v-80h-76v-427h-102zM263 136v576h102v-569q0 -28 10.5 -39t39.5 -14v-96q-77 0 -111 27q-41 32 -41 115z" />
    <glyph glyph-name="periodcentered" horiz-adv-x="186" 
d="M29 298q0 26 19 45t45 19t45 -19t19 -45t-19 -45t-45 -19t-45 19t-19 45z" />
    <glyph glyph-name="glyph231" horiz-adv-x="186" 
 />
    <glyph glyph-name="glyph232" horiz-adv-x="278" 
 />
    <glyph glyph-name="glyph275" horiz-adv-x="249" 
 />
    <glyph glyph-name="glyph276" horiz-adv-x="249" 
 />
    <glyph glyph-name="glyph261" horiz-adv-x="500" 
d="M253 522q9 29 11 64q1 11 8 13q3 0 8 1q67 11 67 54q0 35 -28 35q-5 0 -14 -1t-14 -1q-21 0 -21 18q0 28 32 28q46 0 76 -25.5t26 -70.5q-6 -59 -87 -81q-25 -7 -31 -34h-33z" />
    <glyph glyph-name="glyph262" horiz-adv-x="541" 
d="M-27 574l98 141h94l98 -141h-78l-67 95l-67 -95h-78zM26 763l90 141h108l-132 -141h-66z" />
    <glyph glyph-name="glyph263" horiz-adv-x="541" 
d="M-27 574l98 141h94l98 -141h-78l-67 95l-67 -95h-78zM176 904l90 -141h-66l-132 141h108z" />
    <glyph glyph-name="glyph264" horiz-adv-x="541" 
d="M-27 574l98 141h94l98 -141h-78l-67 95l-67 -95h-78zM411 671q9 29 11 64q1 11 8 13q3 0 8 1q67 11 67 54q0 35 -28 35q-5 0 -14 -1t-14 -1q-21 0 -21 18q0 28 32 28q46 0 76 -25.5t26 -70.5q-6 -59 -87 -81q-25 -7 -31 -34h-33z" />
    <glyph glyph-name="glyph265" horiz-adv-x="541" 
d="M-27 574l98 141h94l98 -141h-78l-67 95l-67 -95h-78zM284 887v0h51q-22 -111 -101 -111q-16 0 -74.5 20t-69.5 20q-42 0 -44 -45h-51q22 111 101 111q17 0 75.5 -20t68.5 -20q42 0 44 45z" />
    <glyph glyph-name="glyph266" horiz-adv-x="541" 
d="M226 714h51q-21 -136 -154 -136t-154 136h51q10 -76 103 -76t103 76zM105 763l90 141h108l-132 -141h-66z" />
    <glyph glyph-name="glyph267" horiz-adv-x="541" 
d="M226 714h51q-21 -136 -154 -136t-154 136h51q10 -76 103 -76t103 76zM123 904l90 -141h-66l-132 141h108z" />
    <glyph glyph-name="glyph268" horiz-adv-x="541" 
d="M226 714h51q-21 -136 -154 -136t-154 136h51q10 -76 103 -76t103 76zM306 671q9 29 11 64q1 11 8 13q3 0 8 1q67 11 67 54q0 35 -28 35q-5 0 -14 -1t-14 -1q-21 0 -21 18q0 28 32 28q46 0 76 -25.5t26 -70.5q-6 -59 -87 -81q-25 -7 -31 -34h-33z" />
    <glyph glyph-name="glyph269" horiz-adv-x="541" 
d="M226 714h51q-21 -136 -154 -136t-154 136h51q10 -76 103 -76t103 76zM284 887v0h51q-22 -111 -101 -111q-16 0 -74.5 20t-69.5 20q-42 0 -44 -45h-51q22 111 101 111q17 0 75.5 -20t68.5 -20q42 0 44 45z" />
    <glyph glyph-name="glyph270" horiz-adv-x="249" 
 />
  </font>
</defs>
</svg>
