<?xml version="1.0" standalone="no"?>
<!DOCTYPE svg PUBLIC "-//W3C//DTD SVG 1.1//EN" "http://www.w3.org/Graphics/SVG/1.1/DTD/svg11.dtd" >
<svg xmlns="http://www.w3.org/2000/svg" xmlns:xlink="http://www.w3.org/1999/xlink" version="1.1">
<metadata>
Created by FontForge 20170731 at Wed Sep 21 14:50:16 2005
 By Aleksey,,,
(c) Copyright 2005 by Tong Duc Thinh. All Rights Reserved
</metadata>
<defs>
<font id="SFUHelveticaLightOblique" horiz-adv-x="556" >
  <font-face 
    font-family="SFU Helvetica"
    font-weight="300"
    font-style="oblique"
    font-stretch="normal"
    units-per-em="1000"
    panose-1="0 0 3 0 0 0 0 0 0 0"
    ascent="800"
    descent="-200"
    x-height="518"
    cap-height="720"
    bbox="-167 -212 1110 1134"
    underline-thickness="58"
    underline-position="-177"
    slope="-11"
    unicode-range="U+0020-F002"
  />
<missing-glyph horiz-adv-x="500" 
d="M63 0v783h375v-783h-375zM125 63h250v658h-250v-658z" />
    <glyph glyph-name=".notdef" horiz-adv-x="500" 
d="M63 0v783h375v-783h-375zM125 63h250v658h-250v-658z" />
    <glyph glyph-name=".null" horiz-adv-x="0" 
 />
    <glyph glyph-name="nonmarkingreturn" horiz-adv-x="278" 
 />
    <glyph glyph-name="space" unicode=" " horiz-adv-x="278" 
 />
    <glyph glyph-name="exclam" unicode="!" horiz-adv-x="333" 
d="M182 181l53 315l48 224h73l-48 -224l-81 -315h-45zM203 0h-73l19 88h73z" />
    <glyph glyph-name="quotedbl" unicode="&#x22;" horiz-adv-x="278" 
d="M162 494l48 226h52l-48 -226h-52zM273 494l48 226h52l-48 -226h-52z" />
    <glyph glyph-name="numbersign" unicode="#" 
d="M565 287l-13 -59h-111l-80 -228h-59l79 228h-137l-82 -228h-59l82 228h-110l13 59h119l51 140h-112l12 59h120l77 212h60l-77 -212h136l76 212h59l-76 -212h100l-12 -59h-108l-50 -140h102zM454 427h-136l-52 -140h138z" />
    <glyph glyph-name="dollar" unicode="$" 
d="M339 394l54 257q-57 0 -103.5 -35t-57.5 -90q-4 -17 -4 -32q0 -42 33 -66q22 -17 78 -34zM370 322l-61 -287q64 0 117 41.5t66 103.5q4 20 4 36q0 48 -36 73q-27 19 -90 33zM298 -19l-16 -76h-46l16 76q-177 10 -177 173q0 13 5 49h65q-4 -20 -4 -39q0 -55 32.5 -90.5
t88.5 -38.5l64 297q-80 21 -116 48q-48 36 -48 98q0 21 5 45q18 82 87.5 133t151.5 49l13 61h46l-13 -61q74 1 117.5 -35.5t43.5 -102.5q0 -18 -4 -38h-65q3 13 3 26q0 43 -29.5 69.5t-77.5 26.5l-56 -266q91 -23 128 -50q49 -36 49 -105q0 -27 -7 -61q-18 -83 -98 -137
q-73 -49 -158 -51z" />
    <glyph glyph-name="percent" unicode="%" horiz-adv-x="889" 
d="M728 331q59 0 95.5 -37t36.5 -93q0 -78 -62 -139.5t-140 -61.5q-59 0 -96.5 37.5t-37.5 94.5q0 77 63.5 138t140.5 61zM715 274q-50 0 -91.5 -40t-41.5 -90q0 -37 25 -62t62 -25q50 0 91.5 40.5t41.5 90.5q0 36 -24.5 61t-62.5 25zM511 532q-14 -68 -73.5 -116.5
t-127.5 -48.5q-59 0 -96.5 37.5t-37.5 93.5q0 77 63.5 138.5t140.5 61.5q59 0 97 -37.5t38 -94.5q0 -17 -4 -34zM322 424q50 0 92 40t42 89q0 37 -24.5 62.5t-63.5 25.5q-50 0 -91.5 -40.5t-41.5 -90.5q0 -37 24.5 -61.5t62.5 -24.5zM818 705l-550 -719h-52l550 719h52z" />
    <glyph glyph-name="ampersand" unicode="&#x26;" horiz-adv-x="667" 
d="M482 131l-153 244q-68 -29 -116 -77q-52 -51 -64 -108q-4 -19 -4 -37q0 -54 36.5 -86t96.5 -32q103 0 204 96zM493 540q17 26 17 55q0 31 -19.5 51t-55.5 20q-44 0 -79 -28q-37 -31 -37 -73q0 -44 48 -120q49 26 69 40q37 25 57 55zM392 400l136 -214q40 50 59 140h59
q-30 -119 -90 -188l88 -138h-81l-52 85q-108 -104 -249 -104q-82 0 -133.5 45t-51.5 121q0 23 5 48q31 143 220 223q-46 71 -46 128q0 16 3 33q14 66 70 105q53 36 122 36q57 0 91 -31t34 -80q0 -14 -4 -28q-13 -64 -66 -110q-32 -27 -114 -71z" />
    <glyph glyph-name="quotesingle" unicode="'" horiz-adv-x="222" 
d="M190 494l48 226h52l-48 -226h-52z" />
    <glyph glyph-name="parenleft" unicode="(" horiz-adv-x="333" 
d="M383 739h51q-200 -222 -252 -468q-16 -73 -16 -148q0 -161 70 -314h-51q-88 174 -88 317q0 70 17 150q27 131 97 246q62 102 172 217z" />
    <glyph glyph-name="parenright" unicode=")" horiz-adv-x="333" 
d="M66 -191h-51q201 222 253 468q15 73 15 148q0 161 -70 314h51q89 -174 89 -317q0 -70 -17 -150q-28 -131 -97 -246q-62 -102 -173 -217z" />
    <glyph glyph-name="asterisk" unicode="*" horiz-adv-x="389" 
d="M199 646l102 -43l25 117h42l-25 -117l123 42l6 -44l-122 -37l52 -106l-44 -24l-51 108l-100 -106l-30 27l99 101l-104 40z" />
    <glyph glyph-name="plus" unicode="+" horiz-adv-x="660" 
d="M360 280l46 220h60l-46 -220h220l-13 -60h-220l-47 -220h-60l47 220h-220l13 60h220z" />
    <glyph glyph-name="comma" unicode="," horiz-adv-x="278" 
d="M194 88l-25 -118q-18 -84 -96 -107l8 37q38 21 48 66l7 34h-34l19 88h73z" />
    <glyph glyph-name="hyphen" unicode="-" horiz-adv-x="333" 
d="M102 291h253l-13 -62h-253z" />
    <glyph glyph-name="hyphen" unicode="&#x2010;" horiz-adv-x="333" 
d="M102 291h253l-13 -62h-253z" />
    <glyph glyph-name="period" unicode="." horiz-adv-x="278" 
d="M175 0h-73l19 88h73z" />
    <glyph glyph-name="slash" unicode="/" horiz-adv-x="278" 
d="M445 739l-411 -829h-56l411 829h56z" />
    <glyph glyph-name="zero" unicode="0" 
d="M526 347q18 87 18 147q0 157 -130 157q-173 0 -239 -311q-18 -87 -18 -146q0 -154 130 -154q174 0 239 307zM428 705q181 0 181 -202q0 -67 -21 -163q-75 -354 -313 -354q-182 0 -182 199q0 67 20 162q34 161 95 246q82 112 220 112z" />
    <glyph glyph-name="one" unicode="1" 
d="M302 0l111 524h-182l9 42q95 6 136 27q57 29 89 112h51l-150 -705h-64z" />
    <glyph glyph-name="two" unicode="2" 
d="M238 474h-68q22 104 98 167.5t180 63.5q88 0 136 -43q44 -40 44 -107q0 -22 -5 -45q-24 -116 -156 -197q-108 -59 -217 -117q-103 -68 -123 -142h393l-11 -54h-461q25 110 92 172q70 66 180 125q128 69 150 86q67 50 83 123q3 18 3 35q0 52 -35 81t-93 29
q-68 0 -123 -52.5t-67 -124.5z" />
    <glyph glyph-name="three" unicode="3" 
d="M293 340l11 52q98 -1 152 27q63 32 79 108q3 16 3 30q0 47 -35 70.5t-92 23.5q-67 0 -118 -42.5t-65 -108.5h-64q21 95 102 158q61 47 170 47q76 0 122.5 -33.5t46.5 -98.5q0 -20 -5 -42q-24 -114 -134 -157q94 -31 94 -126q0 -110 -82.5 -185.5t-195.5 -76.5
q-109 -1 -158.5 36t-49.5 127q0 25 3 55h64q-4 -23 -4 -43q0 -59 38.5 -90t106.5 -31q75 0 136 48t72 111q3 16 3 29q0 113 -164 113q-17 0 -36 -1z" />
    <glyph glyph-name="four" unicode="4" 
d="M358 0l37 174h-322l12 55l427 469h58l-100 -470h98l-11 -54h-98l-37 -174h-64zM486 602l-339 -374h259z" />
    <glyph glyph-name="five" unicode="5" 
d="M74 183h64q-5 -70 34 -106.5t110 -36.5q76 0 135 52q55 51 72 128q5 24 5 46q0 61 -37.5 97t-104.5 36q-97 0 -169 -73l-51 7l134 365h350l-11 -54h-296l-94 -237q80 46 164 46q83 0 132 -45.5t49 -125.5q0 -30 -7 -62q-23 -107 -105 -173q-76 -61 -168 -61
q-209 0 -209 159q0 18 3 38z" />
    <glyph glyph-name="six" unicode="6" 
d="M616 532h-66q2 119 -109 119q-114 0 -183 -110q-41 -63 -82 -209q51 54 84 75q55 35 124 35q88 0 135.5 -42.5t47.5 -120.5q0 -30 -7 -64q-23 -107 -95.5 -168t-179.5 -61q-191 0 -191 206q0 58 16 131q33 155 104 254q93 128 233 128q79 0 124.5 -39t45.5 -111
q0 -11 -1 -23zM370 388q-84 0 -142.5 -67.5t-58.5 -152.5q0 -55 29 -88q33 -40 100 -40q91 0 150 72q55 67 55 160q0 116 -133 116z" />
    <glyph glyph-name="seven" unicode="7" 
d="M194 634l13 64h449l-12 -60q-170 -155 -291 -353q-97 -158 -131 -285h-70q41 147 165 331q114 172 249 303h-372z" />
    <glyph glyph-name="eight" unicode="8" 
d="M352 345q-77 0 -130 -37q-57 -39 -73 -114q-3 -17 -3 -33q0 -54 38.5 -87.5t107.5 -33.5q70 0 126.5 44t71.5 114q4 19 4 36q0 54 -39 82.5t-103 28.5zM414 651q-62 0 -108 -32q-49 -35 -62 -95q-3 -15 -3 -29q0 -47 38 -73q34 -23 89 -23q136 0 165 139q4 15 4 29
q0 84 -123 84zM248 379q-39 28 -53 48q-18 24 -18 59q0 20 5 47q16 73 85.5 123.5t152.5 48.5q78 -1 126 -33q55 -35 55 -101q0 -18 -5 -38q-23 -111 -129 -158q92 -36 92 -134q0 -20 -4 -41q-22 -102 -101 -158t-193 -56q-73 0 -124 41q-57 45 -57 121q0 22 5 46
q29 137 163 185z" />
    <glyph glyph-name="nine" unicode="9" 
d="M86 155h65q-1 -115 113 -115q110 0 181 109q47 71 81 204l-2 2q-90 -110 -213 -110q-83 0 -129.5 44.5t-46.5 122.5q0 28 6 60q23 104 91 166q75 67 186 67q189 0 189 -209q0 -64 -18 -147q-37 -174 -130 -271q-88 -92 -204 -92q-79 0 -123 35q-48 37 -48 108q0 12 2 26z
M406 651q-79 0 -131 -48.5t-70 -132.5q-6 -27 -6 -50q0 -121 133 -121q72 0 127 52q52 49 68 123q5 26 5 50q0 59 -32.5 93t-93.5 34z" />
    <glyph glyph-name="colon" unicode=":" horiz-adv-x="278" 
d="M175 0h-73l19 88h73zM261 404h-73l19 88h73z" />
    <glyph glyph-name="semicolon" unicode=";" horiz-adv-x="278" 
d="M194 88l-25 -118q-18 -84 -96 -107l8 37q38 21 48 66l7 34h-34l19 88h73zM261 404h-73l19 88h73z" />
    <glyph glyph-name="less" unicode="&#x3c;" horiz-adv-x="660" 
d="M213 255l379 -197l-13 -64l-450 235l11 53l547 223l-13 -64z" />
    <glyph glyph-name="equal" unicode="=" horiz-adv-x="660" 
d="M660 378l-12 -60h-500l12 60h500zM619 184l-13 -60h-500l13 60h500z" />
    <glyph glyph-name="greater" unicode="&#x3e;" horiz-adv-x="660" 
d="M640 282l-11 -53l-550 -235l13 64l463 197l-381 186l13 64z" />
    <glyph glyph-name="question" unicode="?" horiz-adv-x="500" 
d="M313 182h-58q13 65 28 100q23 48 66 86q55 45 109 89q58 52 68 99q3 14 3 27q0 45 -33 73q-36 29 -98 29q-72 0 -124 -48t-65 -121h-61q13 98 88.5 160.5t174.5 62.5q87 0 135 -38.5t48 -105.5q0 -21 -5 -44q-11 -51 -53 -96q-23 -23 -88 -74q-61 -47 -89 -80t-46 -119z
M283 0h-73l19 88h73z" />
    <glyph glyph-name="at" unicode="@" horiz-adv-x="800" 
d="M719 167h59q-64 -86 -163.5 -136t-199.5 -50q-137 0 -223 86q-84 83 -84 214q0 40 9 82q33 155 167.5 265.5t287.5 110.5q126 0 205.5 -69.5t79.5 -181.5q0 -32 -7 -65q-24 -115 -120 -205q-92 -87 -175 -87q-69 0 -75 52q-59 -50 -130 -50q-53 0 -82 31.5t-29 80.5
q0 112 103.5 226.5t213.5 114.5q81 0 98 -66l24 46h67l-165 -302q-24 -45 -24 -62q0 -19 24 -19q60 0 128 82q65 78 83 161q6 30 6 58q0 94 -67 151q-65 54 -167 54q-136 0 -247 -97.5t-140 -235.5q-8 -36 -8 -71q0 -111 71 -182.5t187 -71.5q78 0 156.5 36t136.5 100z
M379 196q65 0 145 106q76 102 76 169q0 24 -14.5 40t-40.5 16q-75 0 -151.5 -93.5t-76.5 -170.5q0 -67 62 -67z" />
    <glyph glyph-name="A" unicode="A" horiz-adv-x="667" 
d="M85 0h-70l436 720h77l123 -720h-70l-35 226h-328zM475 662l-222 -378h282z" />
    <glyph glyph-name="B" unicode="B" horiz-adv-x="667" 
d="M222 344l-61 -286h173q122 0 172 26q60 30 79 119q5 22 5 40q0 59 -52 82q-42 19 -135 19h-181zM290 662l-56 -260h172q103 0 155 36q48 32 63 101q4 19 4 34q0 48 -42.5 68.5t-138.5 20.5h-157zM375 0h-294l153 720h260q203 0 203 -136q0 -21 -5 -45q-15 -70 -60 -111
q-38 -36 -88 -44l-1 -2q116 -18 116 -130q0 -23 -6 -49q-43 -203 -278 -203z" />
    <glyph glyph-name="C" unicode="C" horiz-adv-x="722" 
d="M771 511h-70q-2 90 -49 130t-142 40q-124 0 -210 -96q-78 -85 -107 -223q-13 -61 -13 -113q0 -210 199 -210q90 0 163 56q67 52 107 142h71q-113 -256 -366 -256q-125 0 -187 73q-57 65 -57 182q0 57 15 124q41 196 158 293q104 86 257 86q113 0 175 -59t56 -169z" />
    <glyph glyph-name="D" unicode="D" horiz-adv-x="722" 
d="M327 0h-246l153 720h246q148 0 211 -54q67 -58 67 -189q0 -56 -12 -116q-38 -177 -145 -273q-99 -88 -274 -88zM290 662l-129 -604h163q105 0 176 33q134 62 178 270q13 60 13 108q0 119 -79 166q-45 27 -159 27h-163z" />
    <glyph glyph-name="E" unicode="E" horiz-adv-x="611" 
d="M570 0h-489l153 720h479l-12 -58h-411l-56 -260h371l-12 -58h-371l-61 -286h421z" />
    <glyph glyph-name="F" unicode="F" 
d="M142 0h-68l153 720h464l-12 -58h-396l-56 -260h360l-12 -58h-360z" />
    <glyph glyph-name="G" unicode="G" horiz-adv-x="778" 
d="M697 314h-243l12 58h308l-79 -372h-58l26 123q-113 -142 -299 -142q-115 0 -180 65q-68 67 -68 194q0 57 14 124q36 167 138 267q112 108 275 108q117 0 184 -56q70 -60 69 -172h-70q-1 79 -56 126q-52 44 -134 44q-137 0 -227 -96q-82 -88 -116 -248q-9 -40 -9 -78
q0 -97 52 -157q55 -63 154 -63q66 0 126 28q71 33 118 98q42 58 63 149z" />
    <glyph glyph-name="H" unicode="H" horiz-adv-x="722" 
d="M148 0h-68l153 720h68l-66 -309h426l66 309h68l-153 -720h-68l75 353h-426z" />
    <glyph glyph-name="I" unicode="I" horiz-adv-x="278" 
d="M173 0h-68l153 720h68z" />
    <glyph glyph-name="J" unicode="J" horiz-adv-x="500" 
d="M70 228h68q-13 -60 -13 -92q0 -93 104 -93q127 0 160 156l111 521h68l-111 -523q-46 -216 -249 -216q-151 0 -151 143q0 43 13 104z" />
    <glyph glyph-name="K" unicode="K" horiz-adv-x="667" 
d="M153 0h-68l153 720h68l-79 -373l448 373h77l-345 -287l242 -433h-83l-217 391l-137 -113z" />
    <glyph glyph-name="L" unicode="L" 
d="M535 0h-454l153 720h68l-141 -662h386z" />
    <glyph glyph-name="M" unicode="M" horiz-adv-x="833" 
d="M146 0h-68l153 720h104l101 -635h2l367 635h103l-153 -720h-68l136 642h-2l-372 -642h-64l-101 642h-2z" />
    <glyph glyph-name="N" unicode="N" horiz-adv-x="722" 
d="M563 0l-281 628h-2l-133 -628h-68l153 720h77l282 -629h2l134 629h68l-153 -720h-79z" />
    <glyph glyph-name="O" unicode="O" horiz-adv-x="778" 
d="M129 359q35 164 143 269q114 111 270 111q134 0 205 -77q65 -71 65 -194q0 -52 -12 -109q-34 -163 -141 -267q-115 -111 -275 -111q-132 0 -202 77q-64 72 -64 194q0 51 11 107zM397 39q133 0 225 97q81 86 110 223q12 54 12 101q0 105 -55.5 163t-156.5 58
q-131 0 -224 -98q-82 -88 -111 -224q-11 -52 -11 -99q0 -100 49 -157q55 -64 162 -64z" />
    <glyph glyph-name="P" unicode="P" horiz-adv-x="611" 
d="M146 0h-68l153 720h263q199 0 199 -142q0 -27 -7 -59q-42 -201 -318 -201h-154zM226 376h156q104 0 157 28q62 34 80 120q4 19 4 36q0 102 -160 102h-176z" />
    <glyph glyph-name="Q" unicode="Q" horiz-adv-x="778" 
d="M625 68l81 -74l-48 -46l-89 82q-87 -49 -190 -49q-132 0 -202 77q-65 72 -65 194q0 51 12 107q34 161 139 265q114 115 274 115q128 0 199.5 -69t71.5 -197q0 -53 -13 -114q-39 -186 -170 -291zM502 181l82 -74q108 86 143 252q12 55 12 102q0 108 -57 164t-155 56
q-131 0 -224 -99q-82 -87 -111 -223q-11 -53 -11 -100q0 -100 49 -157q55 -63 162 -63q72 0 133 32l-69 63z" />
    <glyph glyph-name="R" unicode="R" horiz-adv-x="667" 
d="M230 385h212q80 0 134 34q60 37 75 109q4 19 4 35q0 99 -150 99h-216zM432 327h-214l-70 -327h-68l153 720h282q211 0 211 -138q0 -23 -6 -51q-15 -68 -50.5 -108t-104.5 -68q62 -23 62 -104q0 -32 -11 -91q-14 -78 -14 -112q0 -30 11 -41l-1 -7h-75q-5 14 -5 38
q0 33 12 107.5t12 93.5q0 55 -39 74q-27 14 -85 14z" />
    <glyph glyph-name="S" unicode="S" horiz-adv-x="611" 
d="M89 215h66q-3 -18 -3 -33q0 -143 172 -143q92 0 150 45q51 40 65 104q3 16 3 30q0 69 -96 101q-89 26 -179 52q-96 40 -96 128q0 22 5 47q17 80 90 134q80 59 195 59q100 0 153 -47q49 -44 49 -117q0 -25 -6 -51h-65q5 20 5 38q0 59 -44 91q-40 28 -104 28
q-97 0 -156 -52q-51 -45 -54 -107q-3 -72 93 -103l182 -50q99 -39 99 -130q0 -22 -5 -48q-21 -99 -102.5 -154.5t-205.5 -55.5q-100 0 -159 45t-59 130q0 28 7 59z" />
    <glyph glyph-name="T" unicode="T" 
d="M157 662l12 58h524l-12 -58h-228l-141 -662h-68l141 662h-228z" />
    <glyph glyph-name="U" unicode="U" horiz-adv-x="722" 
d="M140 271l95 449h68l-91 -429q-12 -58 -12 -101q0 -151 169 -151q114 0 177 62q60 60 88 190l91 429h68l-95 -449q-62 -290 -341 -290q-228 0 -228 198q0 42 11 92z" />
    <glyph glyph-name="V" unicode="V" horiz-adv-x="611" 
d="M268 0l-97 720h71l81 -640l352 640h71l-403 -720h-75z" />
    <glyph glyph-name="W" unicode="W" horiz-adv-x="889" 
d="M635 720l31 -624h2l290 624h70l-342 -720h-75l-32 636h-2l-302 -636h-75l-33 720h68l22 -624h2l300 624h76z" />
    <glyph glyph-name="X" unicode="X" horiz-adv-x="611" 
d="M514 0l-142 318l-277 -318h-77l327 370l-164 350h79l133 -303l262 303h79l-310 -350l168 -370h-78z" />
    <glyph glyph-name="Y" unicode="Y" horiz-adv-x="611" 
d="M243 720l138 -347l291 347h79l-347 -406l-67 -314h-68l66 309l-170 411h78z" />
    <glyph glyph-name="Z" unicode="Z" horiz-adv-x="611" 
d="M579 0h-548l12 57l590 605h-422l12 58h506l-12 -57l-590 -605h464z" />
    <glyph glyph-name="bracketleft" unicode="[" horiz-adv-x="333" 
d="M239 -191h-189l198 930h191l-11 -50h-127l-176 -830h125z" />
    <glyph glyph-name="backslash" unicode="\" horiz-adv-x="278" 
d="M264 0l-153 739h60l153 -739h-60z" />
    <glyph glyph-name="bracketright" unicode="]" horiz-adv-x="333" 
d="M399 739l-198 -930h-191l11 50h127l176 830h-125l11 50h189z" />
    <glyph glyph-name="asciicircum" unicode="^" horiz-adv-x="660" 
d="M183 245h-58l326 453h52l135 -453h-57l-118 392z" />
    <glyph glyph-name="underscore" unicode="_" horiz-adv-x="500" 
d="M475 -119h-500l12 58h500z" />
    <glyph glyph-name="grave" unicode="`" horiz-adv-x="333" 
d="M305 574l-108 139h78l81 -139h-51z" />
    <glyph glyph-name="a" unicode="a" 
d="M452 191l17 81q-56 -21 -161 -29q-149 -11 -170 -110q-2 -11 -2 -20q0 -35 27 -54t68 -19q78 0 137 36q68 41 84 115zM289 291l85 11q60 8 83.5 17.5t32.5 53.5q3 14 3 27q0 78 -109 78q-137 0 -176 -117h-61q25 87 95 131q64 40 154 40q159 0 159 -117q0 -20 -5 -44
l-60 -282q-4 -16 -4 -26q0 -22 21 -22q13 0 37 8l-10 -47q-32 -10 -49 -10q-61 0 -61 49q0 13 3 31q-95 -86 -211 -86q-63 0 -104 30t-41 85q0 16 4 34q28 132 214 156z" />
    <glyph glyph-name="b" unicode="b" horiz-adv-x="611" 
d="M194 261q-7 -36 -7 -69q0 -70 34.5 -111t101.5 -41q77 0 137 54t83 149q10 45 10 84q0 151 -137 151q-80 0 -143 -65q-59 -61 -79 -152zM158 91l-19 -91h-60l153 720h60l-61 -285q38 46 94 71.5t112 25.5q91 0 139 -56q43 -50 43 -137q0 -38 -9 -81q-26 -123 -96 -193
q-77 -79 -196 -79q-52 0 -96 27q-47 29 -62 78h-2z" />
    <glyph glyph-name="c" unicode="c" 
d="M575 355h-61q-7 123 -127 123q-102 0 -169 -96q-60 -86 -60 -192q0 -67 31 -106q35 -44 105 -44q136 0 188 139h64q-76 -193 -264 -193q-96 0 -145 52q-45 49 -45 135q0 40 10 85q24 114 101 191q84 83 195 83q189 0 177 -177z" />
    <glyph glyph-name="d" unicode="d" horiz-adv-x="611" 
d="M527 261q7 32 7 61q0 69 -34 111q-37 45 -101 45q-89 0 -151 -69q-57 -63 -76 -166q-6 -30 -6 -57q0 -70 37.5 -108t102.5 -38q82 0 143 64q58 60 78 157zM564 435l61 285h60l-153 -720h-60l19 91h-2q-35 -49 -95 -78q-55 -27 -107 -27q-186 0 -186 183q0 41 10 89
q25 117 97 191q80 83 192 83q57 0 101.5 -25.5t62.5 -71.5z" />
    <glyph glyph-name="e" unicode="e" 
d="M172 295h338q5 27 5 51q0 60 -33 96t-97 36q-76 0 -134 -55q-53 -49 -79 -128zM563 245h-402q-7 -32 -7 -61q0 -65 34 -103q36 -41 104 -41q59 0 107.5 31.5t74.5 87.5h67q-90 -173 -261 -173q-190 0 -190 186q0 40 10 85q24 117 104 194q84 81 192 81q86 0 132.5 -48
t46.5 -139q0 -46 -12 -100z" />
    <glyph glyph-name="f" unicode="f" horiz-adv-x="278" 
d="M196 468h-77l11 50h77l18 82q28 134 138 134q29 0 49 -4l-12 -55q-18 5 -34 5q-42 0 -62 -31q-13 -20 -23 -67l-14 -64h100l-11 -50h-100l-99 -468h-60z" />
    <glyph glyph-name="g" unicode="g" horiz-adv-x="611" 
d="M527 257q7 36 7 69q0 70 -33 110q-36 42 -102 42q-78 0 -138 -54t-83 -149q-10 -45 -10 -84q0 -151 138 -151q79 0 142 65q59 61 79 152zM563 427l19 91h60l-99 -468q-56 -262 -299 -262q-96 0 -147 44q-42 37 -42 89q0 8 2 16h64q1 -95 134 -95q112 0 171 76
q43 56 64 165q-38 -46 -94 -71.5t-112 -25.5q-91 0 -139 56q-43 50 -43 137q0 38 9 81q26 123 96 193q77 79 196 79q52 0 97.5 -28t60.5 -77h2z" />
    <glyph glyph-name="h" unicode="h" 
d="M132 0h-60l153 720h60l-58 -274q99 86 185 86q108 0 142 -74q11 -22 11 -50q0 -23 -10 -69l-72 -339h-60l72 338q6 28 6 50q0 90 -110 90q-53 0 -100 -31q-41 -27 -66 -70q-21 -36 -34 -98z" />
    <glyph glyph-name="i" unicode="i" horiz-adv-x="222" 
d="M141 0h-60l110 518h60zM278 631h-66l19 89h66z" />
    <glyph glyph-name="j" unicode="j" horiz-adv-x="222" 
d="M198 518h60l-125 -587q-16 -75 -37 -101q-29 -34 -95 -34q-22 0 -39 4l12 53q13 -2 24 -2q34 0 51 19q15 15 23 53zM304 720l-19 -89h-66l19 89h66z" />
    <glyph glyph-name="k" unicode="k" horiz-adv-x="500" 
d="M128 0h-60l153 720h60l-95 -448l306 246h82l-234 -187l147 -331h-67l-133 289l-117 -93z" />
    <glyph glyph-name="l" unicode="l" horiz-adv-x="222" 
d="M141 0h-60l153 720h60z" />
    <glyph glyph-name="m" unicode="m" horiz-adv-x="833" 
d="M183 279l-59 -279h-60l110 518h60l-16 -78h2q67 92 179 92q66 0 98 -29q24 -23 33 -71q72 100 190 100q129 0 129 -118q0 -35 -11 -87l-70 -327h-60l76 358q5 25 5 44q0 76 -90 76q-73 0 -130 -59q-43 -45 -64 -140l-59 -279h-60l76 358q5 25 5 44q0 76 -90 76
q-73 0 -130 -59q-43 -45 -64 -140z" />
    <glyph glyph-name="n" unicode="n" 
d="M191 279l-59 -279h-60l110 518h60l-15 -72q99 86 185 86q108 0 142 -74q11 -22 11 -50q0 -23 -10 -69l-72 -339h-60l72 338q6 28 6 50q0 90 -110 90q-53 0 -100 -31q-41 -27 -66 -70q-21 -36 -34 -98z" />
    <glyph glyph-name="o" unicode="o" 
d="M275 -14q-86 1 -137 49q-54 51 -54 144q0 37 9 80q25 119 101 193q82 80 197 80q95 0 145 -54q46 -50 46 -138q0 -38 -9 -81q-26 -123 -108 -198.5t-190 -74.5zM518 334q0 144 -138 144q-89 0 -150 -67q-53 -59 -73 -152q-8 -38 -8 -71q0 -69 35 -108.5t103 -39.5
q106 0 172 97q59 86 59 197z" />
    <glyph glyph-name="p" unicode="p" horiz-adv-x="611" 
d="M194 257q-7 -32 -7 -61q0 -69 34 -111q37 -45 102 -45q88 0 150 69q57 63 76 166q6 30 6 57q0 70 -37.5 108t-101.5 38q-83 0 -144 -64q-58 -60 -78 -157zM157 83l-61 -287h-60l153 722h60l-19 -91h2q35 49 95 78q55 27 107 27q186 0 186 -183q0 -41 -10 -89
q-25 -117 -97 -191q-80 -83 -192 -83q-56 0 -101 25.5t-63 71.5z" />
    <glyph glyph-name="q" unicode="q" horiz-adv-x="611" 
d="M527 261q7 32 7 61q0 69 -34 111q-37 45 -101 45q-89 0 -151 -69q-57 -63 -76 -166q-6 -30 -6 -57q0 -70 37.5 -108t102.5 -38q82 0 143 64q58 60 78 157zM563 427l19 91h60l-153 -722h-60l61 287q-38 -46 -94 -71.5t-112 -25.5q-91 0 -139 56q-43 50 -43 137q0 38 9 81
q26 123 96 193q77 79 196 79q52 0 97.5 -28t60.5 -77h2z" />
    <glyph glyph-name="r" unicode="r" horiz-adv-x="333" 
d="M189 254l-54 -254h-60l110 518h60l-21 -97h2q38 61 82.5 86t110.5 25l-14 -65q-170 4 -216 -213z" />
    <glyph glyph-name="s" unicode="s" horiz-adv-x="500" 
d="M80 162h61q0 -66 30.5 -94t99.5 -28q56 0 100 28q50 32 50 86q0 47 -74 69q-69 18 -137 35q-74 29 -74 94q0 15 4 32q14 66 71 107t142 41q166 0 166 -140q0 -11 -1 -23h-61q9 109 -116 109q-56 0 -92 -24t-44 -65q-2 -9 -2 -16q0 -45 73 -69q69 -20 137 -40
q74 -31 74 -96q0 -14 -4 -31q-15 -72 -84 -113q-64 -38 -159 -38q-78 0 -122 41q-40 38 -40 102q0 16 2 33z" />
    <glyph glyph-name="t" unicode="t" horiz-adv-x="278" 
d="M264 47l-10 -49q-59 -12 -72 -12q-75 0 -75 64q0 17 5 39l80 379h-73l11 50h73l31 144h60l-31 -144h97l-11 -50h-97l-75 -355q-6 -30 -6 -43q0 -30 43 -30q21 0 50 7z" />
    <glyph glyph-name="u" unicode="u" 
d="M473 236l60 282h60l-110 -518h-60l15 72q-43 -40 -73 -56q-52 -30 -112 -30q-151 0 -151 129q0 28 8 62l72 341h60l-72 -340q-6 -26 -6 -47q0 -91 110 -91q72 0 126.5 54.5t72.5 141.5z" />
    <glyph glyph-name="v" unicode="v" horiz-adv-x="500" 
d="M215 0l-88 518h65l74 -444l262 444h65l-311 -518h-67z" />
    <glyph glyph-name="w" unicode="w" horiz-adv-x="722" 
d="M506 518l21 -438l229 438h61l-278 -518h-64l-21 435h-2l-207 -435h-72l-48 518h60l40 -442l214 442h67z" />
    <glyph glyph-name="x" unicode="x" horiz-adv-x="500" 
d="M409 0l-109 224l-209 -224h-73l256 268l-130 250h74l99 -206l191 206h76l-240 -250l137 -268h-72z" />
    <glyph glyph-name="y" unicode="y" horiz-adv-x="500" 
d="M26 -197l12 56q31 -6 49 -6q42 0 79 55l52 88l-90 522h67l72 -445l260 445h65l-302 -511q-68 -117 -102 -154q-50 -57 -106 -57q-29 0 -56 7z" />
    <glyph glyph-name="z" unicode="z" horiz-adv-x="500" 
d="M467 0h-434l11 53l432 415h-321l11 50h398l-11 -53l-432 -415h357z" />
    <glyph glyph-name="braceleft" unicode="{" horiz-adv-x="333" 
d="M211 395l39 182q19 93 58.5 128.5t127.5 31.5l-2 2q-92 -28 -112 -123l-41 -192q-14 -65 -35 -96q-27 -40 -79 -53v-2q61 -14 61 -77q0 -23 -8 -58l-43 -206q-5 -22 -5 -39q0 -62 67 -82l-1 -2q-69 -1 -98.5 19.5t-29.5 67.5q0 24 7 57l43 204q6 27 6 45q0 58 -63 71v2
q56 15 78 43q18 23 30 77z" />
    <glyph glyph-name="bar" unicode="|" horiz-adv-x="222" 
d="M81 0l157 739h60l-157 -739h-60z" />
    <glyph glyph-name="braceright" unicode="}" horiz-adv-x="333" 
d="M236 157l-38 -182q-20 -93 -58 -127q-41 -37 -128 -33l1 -2q92 28 112 123l41 192q14 65 35 96q27 40 79 53v2q-60 14 -60 77q0 23 7 58l44 206q4 22 4 39q0 62 -66 82v2q69 1 98.5 -19.5t29.5 -67.5q0 -24 -7 -57l-43 -204q-6 -27 -6 -45q0 -58 63 -71v-2
q-55 -15 -78 -43q-18 -23 -30 -77z" />
    <glyph glyph-name="asciitilde" unicode="~" horiz-adv-x="660" 
d="M290 324q38 0 108.5 -36t96.5 -36q53 0 117 87l33 -34q-80 -109 -163 -109q-35 0 -126 42q-19 10 -37 19q-23 11 -41 11q-53 0 -128 -94l-23 47q91 103 163 103z" />
    <glyph glyph-name="euro" horiz-adv-x="498" 
d="M522 633l-23 -156l-48 6q0 157 -94 157q-103 0 -161 -211h172l-21 -48h-164q-6 -24 -16 -73h147l-21 -47h-134q-6 -41 -6 -74q0 -56 21 -91q26 -43 78 -43q58 0 101 68q24 38 51 119l55 -10l-54 -188q-77 -53 -159 -53q-111 0 -166 84q-47 71 -47 188h-74l21 47h56
q3 25 12 73h-66l21 48h59q41 112 108 183q83 88 187 88q94 0 165 -67z" />
    <glyph glyph-name="exclamdown" unicode="&#xa1;" horiz-adv-x="333" 
d="M219 352h45l-53 -315l-48 -224h-73l48 224zM298 445h-73l18 87h73z" />
    <glyph glyph-name="cent" unicode="&#xa2;" 
d="M205 68l220 405q-16 5 -40 5q-102 0 -169 -95q-60 -86 -60 -192q0 -86 49 -123zM464 456l-222 -409q27 -7 50 -7q136 0 188 139h64q-29 -82 -96 -135q-74 -58 -168 -58q-34 0 -66 8l-74 -135h-47l81 150q-84 45 -84 165q0 39 10 84q27 129 111 203q80 71 185 71
q29 0 58 -5l66 120h48l-73 -134q86 -40 78 -158h-61q-3 69 -48 101z" />
    <glyph glyph-name="sterling" unicode="&#xa3;" 
d="M262 365h166l-9 -42h-151q2 -39 -4 -68q-19 -90 -136 -188l2 -2q57 27 95 27q42 0 93 -21t81 -21q49 0 120 57l23 -51q-54 -41 -92 -55.5t-97 -14.5q-22 0 -76 22t-92 22q-32 0 -112 -33l-22 58q122 77 144 180q10 46 -2 88h-99l9 42h81l-16 46q-9 32 -9 62q0 23 5 49
q17 82 85.5 132.5t176.5 50.5q85 0 136 -43.5t51 -118.5q0 -26 -6 -55h-66q4 22 4 41q0 122 -130 122q-65 0 -117 -33q-57 -36 -71 -99q-3 -14 -3 -28q0 -28 14 -64z" />
    <glyph glyph-name="currency" unicode="&#xa4;" 
d="M55 110l52 42q-22 48 -22 95q0 25 6 53q17 83 80 151l-34 43l63 53l35 -43q75 49 165 49q74 0 135 -49l53 43l41 -53l-52 -43q22 -46 22 -94q0 -28 -7 -62q-16 -72 -79 -143l34 -42l-63 -53l-35 43q-79 -50 -165 -50q-74 0 -135 50l-53 -43zM384 481q-78 0 -141.5 -51.5
t-79.5 -129.5q-4 -18 -4 -36q0 -61 40 -102t103 -41q75 0 139.5 53t80.5 129q4 18 4 36q0 60 -39.5 101t-102.5 41z" />
    <glyph glyph-name="yen" unicode="&#xa5;" 
d="M233 720l123 -347l276 347h73l-232 -286h111l-11 -54h-144l-52 -66l-9 -42h182l-12 -54h-182l-46 -218h-64l46 218h-182l12 54h182l9 42l-24 66h-144l11 54h111l-110 286h76z" />
    <glyph glyph-name="brokenbar" unicode="&#xa6;" horiz-adv-x="222" 
d="M81 0l63 296h60l-63 -296h-60zM175 443l63 296h60l-63 -296h-60z" />
    <glyph glyph-name="section" unicode="&#xa7;" 
d="M435 341l-150 106q-112 -43 -112 -121q0 -47 63 -94l154 -115q115 56 115 130q0 45 -70 94zM303 102l-114 82q-73 53 -73 118q0 16 3 33q21 99 138 144q-32 47 -32 85q0 14 3 30q13 62 68 102q59 43 144 43q141 0 141 -127q0 -24 -6 -52h-54q4 22 4 40q0 85 -101 85
q-50 0 -85 -24q-38 -25 -48 -73q-2 -8 -2 -17q0 -48 71 -98q66 -45 131 -89q71 -56 71 -118q0 -13 -3 -26q-11 -52 -53 -92q-28 -28 -90 -64q37 -43 37 -85q0 -12 -3 -25q-15 -73 -76 -116q-57 -39 -132 -39q-73 0 -112 37t-39 103q0 20 3 42h61q-4 -21 -4 -39
q0 -89 103 -89q45 0 83.5 25t47.5 69q2 10 2 20q0 54 -84 115z" />
    <glyph glyph-name="dieresis" unicode="&#xa8;" horiz-adv-x="333" 
d="M184 584l22 102h65l-22 -102h-65zM343 584l22 102h65l-22 -102h-65z" />
    <glyph glyph-name="copyright" unicode="&#xa9;" horiz-adv-x="800" 
d="M397 -19q-136 0 -222 85t-86 215q0 40 9 80q33 156 168 267t292 111q135 0 220.5 -85t85.5 -214q0 -39 -8 -79q-34 -158 -168 -269t-291 -111zM408 31q137 0 247.5 95t140.5 235q8 39 8 75q0 112 -70 182.5t-187 70.5q-137 0 -248.5 -94.5t-140.5 -233.5q-9 -39 -9 -76
q0 -113 70 -182q71 -72 189 -72zM601 292h54q-21 -66 -80 -106.5t-126 -40.5q-80 0 -125 45.5t-45 119.5q0 26 6 54q21 96 89.5 156.5t163.5 60.5q70 0 111 -38t37 -105h-54q1 44 -27.5 71.5t-74.5 27.5q-72 0 -123 -51q-48 -47 -63 -121q-5 -24 -5 -46q0 -57 29 -92
q32 -38 90 -38q46 0 86.5 28.5t56.5 74.5z" />
    <glyph glyph-name="ordfeminine" unicode="&#xaa;" horiz-adv-x="334" 
d="M359 534l10 49q-35 -13 -105 -18q-112 -8 -112 -77q0 -22 18.5 -34.5t45.5 -12.5q50 0 89 23q44 25 54 70zM73 307l9 39h317l-9 -39h-317zM251 594l56 7q20 2 54 10q15 6 21 32q1 8 1 16q0 50 -71 50q-89 0 -114 -73h-40q31 103 161 103q104 0 104 -72q0 -12 -3 -25
l-35 -169q-2 -9 -2 -15q0 -14 13 -14q9 0 24 5l-6 -28q-26 -8 -49 -5q-29 4 -22 47q-60 -52 -136 -52q-41 0 -68 18t-27 52q0 9 2 19q17 79 137 94z" />
    <glyph glyph-name="guillemotleft" unicode="&#xab;" 
d="M345 228l14 63l170 113l-14 -63l-121 -82l87 -80l-13 -62zM161 228l14 63l170 113l-14 -63l-121 -82l87 -80l-13 -62z" />
    <glyph glyph-name="logicalnot" unicode="&#xac;" horiz-adv-x="660" 
d="M540 112l44 206h-436l12 60h500l-56 -266h-64z" />
    <glyph glyph-name="sfthyphen" unicode="&#xad;" horiz-adv-x="338" 
d="M8 174l33 122h246l-33 -122h-246z" />
    <glyph glyph-name="registered" unicode="&#xae;" horiz-adv-x="800" 
d="M397 -19q-136 0 -222 85t-86 215q0 40 9 80q33 156 168 267t292 111q135 0 220.5 -85t85.5 -214q0 -39 -8 -79q-34 -158 -168 -269t-291 -111zM408 31q137 0 247.5 95t140.5 235q8 39 8 75q0 112 -70 182.5t-187 70.5q-137 0 -248.5 -94.5t-140.5 -233.5q-9 -39 -9 -76
q0 -113 70 -182q71 -72 189 -72zM535 344l87 -195h-62l-80 195h-95l-41 -195h-52l90 423h185q129 0 129 -81q0 -14 -3 -31q-24 -112 -158 -116zM394 385h79q76 0 98 6q54 14 66 70q2 11 2 20q0 54 -92 54h-121z" />
    <glyph glyph-name="macron" unicode="&#xaf;" horiz-adv-x="333" 
d="M153 612l10 45h296l-10 -45h-296z" />
    <glyph glyph-name="macron" unicode="&#x2c9;" horiz-adv-x="333" 
d="M153 612l10 45h296l-10 -45h-296z" />
    <glyph glyph-name="degree" unicode="&#xb0;" horiz-adv-x="400" 
d="M286 405q-54 0 -87.5 33.5t-33.5 85.5q0 70 57 125.5t128 55.5q53 0 87 -34t34 -85q0 -70 -57 -125.5t-128 -55.5zM430 577q0 38 -25 63t-65 25q-51 0 -92.5 -40.5t-41.5 -92.5q0 -38 24.5 -62.5t64.5 -24.5q51 0 93 40.5t42 91.5z" />
    <glyph glyph-name="plusminus" unicode="&#xb1;" horiz-adv-x="660" 
d="M370 330l36 170h60l-36 -170h220l-13 -60h-220l-36 -170h-60l36 170h-220l13 60h220zM80 0l13 60h500l-13 -60h-500z" />
    <glyph glyph-name="twosuperior" unicode="&#xb2;" horiz-adv-x="333" 
d="M200 600h-44q13 63 62 101t116 38q58 0 88.5 -25.5t30.5 -66.5q0 -12 -3 -25q-15 -70 -99 -118l-140 -70q-66 -41 -78 -86h255l-7 -32h-299q14 66 58.5 104t115.5 74q82 42 97 52q42 30 52 74q2 10 2 19q0 32 -23.5 50t-61.5 18q-44 0 -79.5 -31.5t-42.5 -75.5z" />
    <glyph glyph-name="threesuperior" unicode="&#xb3;" horiz-adv-x="333" 
d="M244 520l6 31q131 0 148 81q2 9 2 17q0 58 -83 58q-44 0 -77 -25.5t-41 -65.5h-41q12 58 64 95q39 28 110 28q50 0 81 -21t31 -60q0 -11 -3 -23q-15 -68 -85 -95q62 -19 62 -77q0 -68 -56 -113q-52 -41 -123 -42q-72 -1 -104.5 22t-32.5 79q0 14 2 29h42q-3 -13 -3 -24
q0 -74 96 -74q50 0 90 31q45 33 45 81q0 76 -130 68z" />
    <glyph glyph-name="acute" unicode="&#xb4;" horiz-adv-x="333" 
d="M282 574h-51l141 139h77z" />
    <glyph glyph-name="mu" unicode="&#xb5;" 
d="M473 236l60 282h60l-110 -518h-60l15 72q-43 -40 -73 -56q-52 -30 -112 -30q-72 0 -117 32l-47 -222h-60l153 722h60l-72 -340q-6 -26 -6 -47q0 -91 110 -91q72 0 126.5 54.5t72.5 141.5z" />
    <glyph glyph-name="mu" unicode="&#x3bc;" 
d="M473 236l60 282h60l-110 -518h-60l15 72q-43 -40 -73 -56q-52 -30 -112 -30q-72 0 -117 32l-47 -222h-60l153 722h60l-72 -340q-6 -26 -6 -47q0 -91 110 -91q72 0 126.5 54.5t72.5 141.5z" />
    <glyph glyph-name="paragraph" unicode="&#xb6;" horiz-adv-x="650" 
d="M227 -146l102 482q-66 -1 -110.5 43.5t-44.5 109.5q0 18 4 37q19 93 89 143.5t175 50.5h217l-184 -866h-60l170 799h-128l-170 -799h-60z" />
    <glyph glyph-name="ch270" unicode="&#xb7;" horiz-adv-x="249" 
d="M38 348q0 34 23 57t57 23t57.5 -23t23.5 -57t-23.5 -57.5t-57.5 -23.5t-57 23.5t-23 57.5z" />
    <glyph glyph-name="ch270" unicode="&#x2219;" horiz-adv-x="249" 
d="M38 348q0 34 23 57t57 23t57.5 -23t23.5 -57t-23.5 -57.5t-57.5 -23.5t-57 23.5t-23 57.5z" />
    <glyph glyph-name="cedilla" unicode="&#xb8;" horiz-adv-x="333" 
d="M14 -188l21 30q42 -15 61 -15q26 0 46 11q25 13 30 36q9 39 -41 39q-14 0 -46 -8l-12 13l77 82h39l-60 -59q26 6 38 6q31 0 50 -17q16 -15 16 -35q-2 -51 -43 -78q-36 -24 -89 -24q-41 0 -87 19z" />
    <glyph glyph-name="onesuperior" unicode="&#xb9;" horiz-adv-x="333" 
d="M272 316l67 314h-118l5 26q63 4 88 16q37 17 57 67h33l-90 -423h-42z" />
    <glyph glyph-name="ordmasculine" unicode="&#xba;" horiz-adv-x="334" 
d="M254 411q-56 1 -91 31.5t-35 87.5q0 21 5 45q15 72 64 116q52 48 127 48q63 0 96 -34q30 -31 30 -85q0 -21 -5 -45q-15 -74 -67.5 -119.5t-123.5 -44.5zM168 536q0 -95 93 -95q66 0 110 56q40 52 40 120q0 92 -93 92q-66 0 -110 -55q-40 -51 -40 -118zM76 307l9 39h312
l-9 -39h-312z" />
    <glyph glyph-name="guillemotright" unicode="&#xbb;" 
d="M505 293l-13 -63l-170 -113l13 63l122 82l-87 80l13 62zM321 293l-13 -63l-170 -113l13 63l122 82l-87 80l13 62z" />
    <glyph glyph-name="onequarter" unicode="&#xbc;" horiz-adv-x="834" 
d="M216 -14h-51l597 719h51zM225 316l67 314h-118l5 26q63 4 88 16q37 17 57 67h33l-90 -423h-42zM689 0l22 104h-209l7 33l273 282h38l-60 -282h63l-7 -33h-63l-22 -104h-42zM766 361l-216 -224h168z" />
    <glyph glyph-name="onehalf" unicode="&#xbd;" horiz-adv-x="834" 
d="M176 -14h-51l597 719h51zM225 316l67 314h-118l5 26q63 4 88 16q37 17 57 67h33l-90 -423h-42zM608 284h-44q14 63 62.5 101t116.5 38q58 0 88.5 -25.5t30.5 -66.5q0 -12 -3 -25q-15 -70 -99 -118l-140 -70q-66 -41 -78 -86h255l-7 -32h-299q14 66 58 104t115 74
q83 42 97 52q43 30 53 74q2 10 2 19q0 32 -23.5 50t-61.5 18q-44 0 -79.5 -31.5t-43.5 -75.5z" />
    <glyph glyph-name="threequarters" unicode="&#xbe;" horiz-adv-x="834" 
d="M766 361l-216 -224h168zM273 520l6 31q131 0 148 81q2 9 2 17q0 58 -83 58q-44 0 -77 -25.5t-41 -65.5h-41q12 58 64 95q39 28 110 28q50 0 81 -21t31 -60q0 -11 -3 -23q-15 -68 -85 -95q62 -19 62 -77q0 -68 -56 -113q-52 -41 -123 -42q-72 -1 -104.5 22t-32.5 79
q0 14 2 29h42q-3 -13 -3 -24q0 -74 96 -74q50 0 90 31q45 33 45 81q0 76 -130 68zM256 -14h-51l597 719h51zM689 0l22 104h-209l7 33l273 282h38l-60 -282h63l-7 -33h-63l-22 -104h-42z" />
    <glyph glyph-name="questiondown" unicode="&#xbf;" horiz-adv-x="500" 
d="M404 16h61q-13 -98 -88.5 -160.5t-174.5 -62.5q-87 0 -135 38.5t-48 105.5q0 21 5 44q11 51 53 96q23 23 88 74q61 47 89 80t46 119h58q-12 -65 -28 -100q-22 -48 -66 -86q-55 -45 -109 -89q-58 -52 -68 -99q-3 -14 -3 -27q0 -45 34.5 -73.5t96.5 -28.5q72 0 124 48
t65 121zM330 532h73l-19 -88h-73z" />
    <glyph glyph-name="Agrave" unicode="&#xc0;" horiz-adv-x="667" 
d="M504 780h-31l-182 139h87zM651 0h-70l-35 226h-328l-133 -226h-70l436 720h77zM535 284l-60 378l-222 -378h282z" />
    <glyph glyph-name="Aacute" unicode="&#xc1;" horiz-adv-x="667" 
d="M85 0h-70l436 720h77l123 -720h-70l-35 226h-328zM475 662l-222 -378h282zM503 780h-31l126 139h87z" />
    <glyph glyph-name="Acircumflex" unicode="&#xc2;" horiz-adv-x="667" 
d="M85 0h-70l436 720h77l123 -720h-70l-35 226h-328zM475 662l-222 -378h282zM500 832l-94 -92h-58l129 125h61l74 -125h-58z" />
    <glyph glyph-name="Atilde" unicode="&#xc3;" horiz-adv-x="667" 
d="M85 0h-70l436 720h77l123 -720h-70l-35 226h-328zM475 662l-222 -378h282zM350 780h-33q21 27 58 53q50 35 90 35q17 0 48.5 -20.5t47.5 -20.5q30 0 73 45h35q-15 -18 -34 -34q-63 -53 -107 -54q-24 0 -54.5 20t-46.5 20q-31 0 -77 -44z" />
    <glyph glyph-name="Adieresis" unicode="&#xc4;" horiz-adv-x="667" 
d="M85 0h-70l436 720h77l123 -720h-70l-35 226h-328zM475 662l-222 -378h282zM394 786l22 102h65l-22 -102h-65zM553 786l22 102h65l-22 -102h-65z" />
    <glyph glyph-name="Aring" unicode="&#xc5;" horiz-adv-x="667" 
d="M85 0h-70l436 720h77l123 -720h-70l-35 226h-328zM475 662l-222 -378h282zM520 780q-35 0 -58 22.5t-23 56.5q0 45 39 82.5t84 37.5q35 0 57.5 -23t22.5 -57q0 -46 -38 -82.5t-84 -36.5zM527 813q30 0 55.5 24.5t25.5 54.5q0 23 -15 38.5t-38 15.5q-30 0 -56 -24.5
t-26 -55.5q0 -22 15.5 -37.5t38.5 -15.5z" />
    <glyph glyph-name="AE" unicode="&#xc6;" horiz-adv-x="1000" 
d="M73 0h-68l466 720h630l-12 -58h-408l-56 -260h371l-12 -58h-371l-61 -286h420l-12 -58h-488l48 226h-303zM499 662l-242 -378h275l81 378h-114z" />
    <glyph glyph-name="Ccedilla" unicode="&#xc7;" horiz-adv-x="722" 
d="M771 511h-70q-2 90 -49 130t-142 40q-124 0 -210 -96q-78 -85 -107 -223q-13 -61 -13 -113q0 -210 199 -210q90 0 163 56q67 52 107 142h71q-113 -256 -366 -256q-125 0 -187 73q-57 65 -57 182q0 57 15 124q41 196 158 293q104 86 257 86q113 0 175 -59t56 -169z
M209 -188l21 30q42 -15 61 -15q26 0 46 11q25 13 30 36q9 39 -41 39q-14 0 -46 -8l-12 13l77 82h39l-60 -59q26 6 38 6q31 0 50 -17q16 -15 16 -35q-2 -51 -43 -78q-36 -24 -89 -24q-41 0 -87 19z" />
    <glyph glyph-name="Egrave" unicode="&#xc8;" horiz-adv-x="611" 
d="M570 0h-489l153 720h479l-12 -58h-411l-56 -260h371l-12 -58h-371l-61 -286h421zM480 780h-31l-182 139h87z" />
    <glyph glyph-name="Eacute" unicode="&#xc9;" horiz-adv-x="611" 
d="M570 0h-489l153 720h479l-12 -58h-411l-56 -260h371l-12 -58h-371l-61 -286h421zM480 780h-31l126 139h87z" />
    <glyph glyph-name="Ecircumflex" unicode="&#xca;" horiz-adv-x="611" 
d="M570 0h-489l153 720h479l-12 -58h-411l-56 -260h371l-12 -58h-371l-61 -286h421zM489 852l-94 -92h-58l129 125h61l74 -125h-58z" />
    <glyph glyph-name="Edieresis" unicode="&#xcb;" horiz-adv-x="611" 
d="M570 0h-489l153 720h479l-12 -58h-411l-56 -260h371l-12 -58h-371l-61 -286h421zM366 786l22 102h65l-22 -102h-65zM525 786l22 102h65l-22 -102h-65z" />
    <glyph glyph-name="Igrave" unicode="&#xcc;" horiz-adv-x="278" 
d="M173 0h-68l153 720h68zM308 780h-31l-182 139h87z" />
    <glyph glyph-name="Iacute" unicode="&#xcd;" horiz-adv-x="278" 
d="M173 0h-68l153 720h68zM307 780h-31l126 139h87z" />
    <glyph glyph-name="Icircumflex" unicode="&#xce;" horiz-adv-x="278" 
d="M173 0h-68l153 720h68zM311 878l-104 -102h-65l144 139h67l83 -139h-65z" />
    <glyph glyph-name="Idieresis" unicode="&#xcf;" horiz-adv-x="278" 
d="M173 0h-68l153 720h68zM180 786l22 102h65l-22 -102h-65zM339 786l22 102h65l-22 -102h-65z" />
    <glyph glyph-name="Eth" unicode="&#xd0;" horiz-adv-x="722" 
d="M290 662l-54 -251h121l-12 -58h-121l-63 -295h163q105 0 176 33q134 62 178 270q13 60 13 108q0 119 -79 166q-45 27 -159 27h-163zM168 411l66 309h246q148 0 211 -54q67 -58 67 -189q0 -56 -12 -116q-38 -177 -145 -273q-99 -88 -274 -88h-246l75 353h-71l12 58h71z
" />
    <glyph glyph-name="Ntilde" unicode="&#xd1;" horiz-adv-x="722" 
d="M563 0l-281 628h-2l-133 -628h-68l153 720h77l282 -629h2l134 629h68l-153 -720h-79zM415 788h-36q10 34 32 59q34 38 79 38q23 0 66 -22.5t65 -22.5q33 0 54 50h38q-2 -9 -16 -38q-39 -60 -87 -60q-28 0 -71 22.5t-65 22.5q-33 0 -59 -49z" />
    <glyph glyph-name="Ograve" unicode="&#xd2;" horiz-adv-x="778" 
d="M129 359q35 163 139 267q114 113 274 113q128 0 199 -71.5t71 -199.5q0 -53 -12 -109q-35 -164 -140 -267q-114 -111 -276 -111q-128 0 -197.5 71.5t-69.5 199.5q0 51 12 107zM397 39q132 0 224 97q82 86 111 223q12 56 12 102q0 103 -55 161.5t-157 58.5
q-131 0 -224 -98q-82 -88 -111 -224q-11 -52 -11 -99q0 -105 53.5 -163t157.5 -58zM558 800h-31l-182 139h87z" />
    <glyph glyph-name="Oacute" unicode="&#xd3;" horiz-adv-x="778" 
d="M129 359q35 163 139 267q114 113 274 113q128 0 199 -71.5t71 -199.5q0 -53 -12 -109q-35 -164 -140 -267q-114 -111 -276 -111q-128 0 -197.5 71.5t-69.5 199.5q0 51 12 107zM397 39q132 0 224 97q82 86 111 223q12 56 12 102q0 103 -55 161.5t-157 58.5
q-131 0 -224 -98q-82 -88 -111 -224q-11 -52 -11 -99q0 -105 53.5 -163t157.5 -58zM557 800h-31l126 139h87z" />
    <glyph glyph-name="Ocircumflex" unicode="&#xd4;" horiz-adv-x="778" 
d="M129 359q35 163 139 267q114 113 274 113q128 0 199 -71.5t71 -199.5q0 -53 -12 -109q-35 -164 -140 -267q-114 -111 -276 -111q-128 0 -197.5 71.5t-69.5 199.5q0 51 12 107zM397 39q132 0 224 97q82 86 111 223q12 56 12 102q0 103 -55 161.5t-157 58.5
q-131 0 -224 -98q-82 -88 -111 -224q-11 -52 -11 -99q0 -105 53.5 -163t157.5 -58zM562 852l-94 -92h-58l129 125h61l74 -125h-58z" />
    <glyph glyph-name="Otilde" unicode="&#xd5;" horiz-adv-x="778" 
d="M129 359q35 163 139 267q114 113 274 113q128 0 199 -71.5t71 -199.5q0 -53 -12 -109q-35 -164 -140 -267q-114 -111 -276 -111q-128 0 -197.5 71.5t-69.5 199.5q0 51 12 107zM397 39q132 0 224 97q82 86 111 223q12 56 12 102q0 103 -55 161.5t-157 58.5
q-131 0 -224 -98q-82 -88 -111 -224q-11 -52 -11 -99q0 -105 53.5 -163t157.5 -58zM419 800h-33q21 27 58 53q50 35 90 35q17 0 48.5 -20.5t47.5 -20.5q30 0 73 45h35q-15 -18 -34 -34q-63 -53 -107 -54q-24 0 -54.5 20t-46.5 20q-31 0 -77 -44z" />
    <glyph glyph-name="Odieresis" unicode="&#xd6;" horiz-adv-x="778" 
d="M129 359q35 164 143 269q114 111 270 111q134 0 205 -77q65 -71 65 -194q0 -52 -12 -109q-34 -163 -141 -267q-115 -111 -275 -111q-132 0 -202 77q-64 72 -64 194q0 51 11 107zM397 39q133 0 225 97q81 86 110 223q12 54 12 101q0 105 -55.5 163t-156.5 58
q-131 0 -224 -98q-82 -88 -111 -224q-11 -52 -11 -99q0 -100 49 -157q55 -64 162 -64zM450 786l22 102h65l-22 -102h-65zM609 786l22 102h65l-22 -102h-65z" />
    <glyph glyph-name="multiply" unicode="&#xd7;" horiz-adv-x="660" 
d="M377 216l-256 -210l-29 36l256 211l-166 211l44 36l167 -210l254 210l30 -36l-255 -211l165 -211l-45 -36z" />
    <glyph glyph-name="Oslash" unicode="&#xd8;" horiz-adv-x="778" 
d="M205 147l495 457q-53 77 -171 77q-131 0 -224 -99q-82 -87 -111 -223q-11 -51 -11 -97q0 -66 22 -115zM723 560l-493 -453q53 -68 164 -68q133 0 224 97q82 86 111 223q11 50 11 97q0 59 -17 104zM753 652l103 95l31 -35l-108 -100q31 -47 31 -137q0 -55 -13 -116
q-34 -163 -141 -267q-115 -111 -275 -111q-132 0 -202 79l-106 -97l-32 34l111 101q-38 63 -38 154q0 51 12 107q35 165 145 270q115 110 268 110q144 0 214 -87z" />
    <glyph glyph-name="Ugrave" unicode="&#xd9;" horiz-adv-x="722" 
d="M140 271l95 449h68l-91 -429q-12 -57 -12 -102q0 -150 169 -150q119 0 183 69q56 59 82 183l91 429h68l-95 -449q-61 -290 -341 -290q-228 0 -228 198q0 40 11 92zM528 750h-31l-182 139h87z" />
    <glyph glyph-name="Uacute" unicode="&#xda;" horiz-adv-x="722" 
d="M140 271l95 449h68l-91 -429q-12 -57 -12 -102q0 -150 169 -150q119 0 183 69q56 59 82 183l91 429h68l-95 -449q-61 -290 -341 -290q-228 0 -228 198q0 40 11 92zM527 750h-31l126 139h87z" />
    <glyph glyph-name="Ucircumflex" unicode="&#xdb;" horiz-adv-x="722" 
d="M140 271l95 449h68l-91 -429q-12 -58 -12 -101q0 -151 169 -151q114 0 177 62q60 60 88 190l91 429h68l-95 -449q-62 -290 -341 -290q-228 0 -228 198q0 42 11 92zM553 878l-104 -102h-65l144 139h67l83 -139h-65z" />
    <glyph glyph-name="Udieresis" unicode="&#xdc;" horiz-adv-x="722" 
d="M140 271l95 449h68l-91 -429q-12 -58 -12 -101q0 -151 169 -151q114 0 177 62q60 60 88 190l91 429h68l-95 -449q-62 -290 -341 -290q-228 0 -228 198q0 42 11 92zM422 786l22 102h65l-22 -102h-65zM581 786l22 102h65l-22 -102h-65z" />
    <glyph glyph-name="Yacute" unicode="&#xdd;" horiz-adv-x="611" 
d="M243 720l138 -347l291 347h79l-347 -406l-67 -314h-68l66 309l-170 411h78zM471 740h-31l126 139h87z" />
    <glyph glyph-name="Thorn" unicode="&#xde;" horiz-adv-x="611" 
d="M146 0h-68l153 720h68l-32 -150h195q199 0 199 -142q0 -27 -7 -59q-42 -201 -318 -201h-154zM194 226h156q104 0 157 28q62 34 80 120q5 19 5 36q0 102 -161 102h-176z" />
    <glyph glyph-name="germandbls" unicode="&#xdf;" horiz-adv-x="500" 
d="M291 375l10 50q158 4 184 124q4 21 4 39q0 92 -102 92q-81 0 -118 -40q-28 -31 -44 -107l-113 -533h-60l116 544q40 190 227 190q74 0 116.5 -36.5t42.5 -102.5q0 -22 -6 -47q-17 -84 -114 -145q78 -29 78 -131q0 -23 -5 -48q-25 -115 -93.5 -176.5t-168.5 -61.5
q-22 0 -36 5l11 53q18 -3 36 -3q64 0 114.5 41.5t66.5 116.5q8 34 8 61q0 115 -154 115z" />
    <glyph glyph-name="agrave" unicode="&#xe0;" 
d="M452 191l17 81q-56 -21 -161 -29q-70 -5 -115 -32q-57 -35 -57 -98q0 -37 30 -56q26 -17 65 -17q80 0 139 36q67 41 82 115zM289 291l85 11q62 8 75 14q31 13 41 57q3 14 3 28q0 77 -109 77q-137 0 -176 -117h-61q25 86 93 130q64 41 156 41q159 0 159 -117q0 -20 -5 -44
l-60 -282q-3 -14 -3 -26q0 -22 20 -22q12 0 37 8l-10 -47q-30 -10 -49 -10q-61 0 -61 49q0 12 3 31q-95 -86 -211 -86q-60 0 -99 27q-46 31 -46 88q0 15 4 34q28 132 214 156zM412 618h-30l-173 132h83z" />
    <glyph glyph-name="aacute" unicode="&#xe1;" 
d="M452 191l17 81q-56 -21 -161 -29q-70 -5 -115 -32q-57 -35 -57 -98q0 -37 30 -56q26 -17 65 -17q80 0 139 36q67 41 82 115zM289 291l85 11q62 8 75 14q31 13 41 57q3 14 3 28q0 77 -109 77q-137 0 -176 -117h-61q25 86 93 130q64 41 156 41q159 0 159 -117q0 -20 -5 -44
l-60 -282q-3 -14 -3 -26q0 -22 20 -22q12 0 37 8l-10 -47q-30 -10 -49 -10q-61 0 -61 49q0 12 3 31q-95 -86 -211 -86q-60 0 -99 27q-46 31 -46 88q0 15 4 34q28 132 214 156zM410 618h-29l120 132h82z" />
    <glyph glyph-name="acircumflex" unicode="&#xe2;" 
d="M452 191l17 81q-56 -21 -161 -29q-70 -5 -115 -32q-57 -35 -57 -98q0 -37 30 -56q26 -17 65 -17q80 0 139 36q67 41 82 115zM289 291l85 11q62 8 75 14q31 13 41 57q3 14 3 28q0 77 -109 77q-137 0 -176 -117h-61q25 86 93 130q64 41 156 41q159 0 159 -117q0 -20 -5 -44
l-60 -282q-3 -14 -3 -26q0 -22 20 -22q12 0 37 8l-10 -47q-30 -10 -49 -10q-61 0 -61 49q0 12 3 31q-95 -86 -211 -86q-60 0 -99 27q-46 31 -46 88q0 15 4 34q28 132 214 156zM414 657l-90 -87h-55l123 118h58l70 -118h-55z" />
    <glyph glyph-name="atilde" unicode="&#xe3;" 
d="M452 191l17 81q-56 -21 -161 -29q-70 -5 -115 -32q-57 -35 -57 -98q0 -37 30 -56q26 -17 65 -17q80 0 139 36q67 41 82 115zM289 291l85 11q62 8 75 14q31 13 41 57q3 14 3 28q0 77 -109 77q-137 0 -176 -117h-61q25 86 93 130q64 41 156 41q159 0 159 -117q0 -20 -5 -44
l-60 -282q-3 -14 -3 -26q0 -22 20 -22q12 0 37 8l-10 -47q-30 -10 -49 -10q-61 0 -61 49q0 12 3 31q-95 -86 -211 -86q-60 0 -99 27q-46 31 -46 88q0 15 4 34q28 132 214 156zM298 618h-31q19 25 55 50q48 33 86 33q15 0 45 -19t46 -19q27 0 69 42h33q-13 -16 -32 -32
q-60 -50 -102 -51q-22 0 -51.5 19t-44.5 19q-29 0 -73 -42z" />
    <glyph glyph-name="adieresis" unicode="&#xe4;" 
d="M452 191l17 81q-56 -21 -161 -29q-149 -11 -170 -110q-2 -11 -2 -20q0 -35 27 -54t68 -19q78 0 137 36q68 41 84 115zM289 291l85 11q60 8 83.5 17.5t32.5 53.5q3 14 3 27q0 78 -109 78q-137 0 -176 -117h-61q25 87 95 131q64 40 154 40q159 0 159 -117q0 -20 -5 -44
l-60 -282q-4 -16 -4 -26q0 -22 21 -22q13 0 37 8l-10 -47q-32 -10 -49 -10q-61 0 -61 49q0 13 3 31q-95 -86 -211 -86q-63 0 -104 30t-41 85q0 16 4 34q28 132 214 156zM296 584l22 102h65l-22 -102h-65zM455 584l22 102h65l-22 -102h-65z" />
    <glyph glyph-name="aring" unicode="&#xe5;" 
d="M452 191l17 81q-56 -21 -161 -29q-149 -11 -170 -110q-2 -11 -2 -20q0 -35 27 -54t68 -19q78 0 137 36q68 41 84 115zM289 291l85 11q60 8 83.5 17.5t32.5 53.5q3 14 3 27q0 78 -109 78q-137 0 -176 -117h-61q25 87 95 131q64 40 154 40q159 0 159 -117q0 -20 -5 -44
l-60 -282q-4 -16 -4 -26q0 -22 21 -22q13 0 37 8l-10 -47q-32 -10 -49 -10q-61 0 -61 49q0 13 3 31q-95 -86 -211 -86q-63 0 -104 30t-41 85q0 16 4 34q28 132 214 156zM402 578q-35 0 -58 22.5t-23 56.5q0 45 39 82.5t84 37.5q35 0 57.5 -23t22.5 -57q0 -46 -38 -82.5
t-84 -36.5zM409 611q30 0 55.5 24.5t25.5 54.5q0 23 -15 38.5t-38 15.5q-30 0 -56 -24.5t-26 -55.5q0 -22 15.5 -37.5t38.5 -15.5z" />
    <glyph glyph-name="ae" unicode="&#xe6;" horiz-adv-x="889" 
d="M436 204l15 70q-36 -18 -123 -28q-90 -11 -123 -24q-60 -23 -72 -81q-3 -15 -3 -28q0 -73 90 -73q88 0 146 46q54 43 70 118zM520 295h326q6 27 6 52q0 59 -32 95t-93 36q-86 0 -145 -64q-48 -51 -62 -119zM282 295l58 6q77 8 102 21q22 11 29 43q5 26 5 44q0 39 -25 54
t-82 15q-131 0 -169 -114h-62q23 84 91 128q62 40 149 40q145 0 163 -85q75 85 199 85q173 0 173 -173q0 -49 -14 -114h-390q-8 -36 -8 -67q0 -138 137 -138q118 0 176 120h63q-78 -174 -256 -174q-131 0 -176 114q-49 -53 -91 -76q-65 -38 -151 -38q-63 0 -100 27
q-40 29 -40 83q0 17 4 36q31 144 215 163z" />
    <glyph glyph-name="ccedilla" unicode="&#xe7;" 
d="M575 355h-61q-7 123 -127 123q-102 0 -169 -96q-60 -86 -60 -192q0 -67 31 -106q35 -44 105 -44q136 0 188 139h64q-76 -193 -264 -193q-96 0 -145 52q-45 49 -45 135q0 40 10 85q24 114 101 191q84 83 195 83q189 0 177 -177zM126 -188l21 30q42 -15 61 -15q26 0 46 11
q25 13 30 36q9 39 -41 39q-14 0 -46 -8l-12 13l77 82h39l-60 -59q26 6 38 6q31 0 50 -17q16 -15 16 -35q-2 -51 -43 -78q-36 -24 -89 -24q-41 0 -87 19z" />
    <glyph glyph-name="egrave" unicode="&#xe8;" 
d="M172 295h338q6 27 6 51q0 63 -34 97.5t-97 34.5q-76 0 -135 -56q-51 -48 -78 -127zM563 245h-402q-7 -32 -7 -60q0 -67 35.5 -106t102.5 -39q60 0 108.5 32t73.5 87h67q-90 -173 -261 -173q-190 0 -190 186q0 38 10 85q24 114 101 191q84 84 195 84q88 0 133.5 -49
t45.5 -138q0 -46 -12 -100zM412 618h-30l-173 132h83z" />
    <glyph glyph-name="eacute" unicode="&#xe9;" 
d="M172 295h338q6 27 6 51q0 63 -34 97.5t-97 34.5q-76 0 -135 -56q-51 -48 -78 -127zM563 245h-402q-7 -32 -7 -60q0 -67 35.5 -106t102.5 -39q60 0 108.5 32t73.5 87h67q-90 -173 -261 -173q-190 0 -190 186q0 38 10 85q24 114 101 191q84 84 195 84q88 0 133.5 -49
t45.5 -138q0 -46 -12 -100zM410 618h-29l120 132h82z" />
    <glyph glyph-name="ecircumflex" unicode="&#xea;" 
d="M172 295h338q6 27 6 51q0 63 -34 97.5t-97 34.5q-76 0 -135 -56q-51 -48 -78 -127zM563 245h-402q-7 -32 -7 -60q0 -67 35.5 -106t102.5 -39q60 0 108.5 32t73.5 87h67q-90 -173 -261 -173q-190 0 -190 186q0 38 10 85q24 114 101 191q84 84 195 84q88 0 133.5 -49
t45.5 -138q0 -46 -12 -100zM414 657l-90 -87h-55l123 118h58l70 -118h-55z" />
    <glyph glyph-name="edieresis" unicode="&#xeb;" 
d="M172 295h338q5 27 5 51q0 60 -33 96t-97 36q-76 0 -134 -55q-53 -49 -79 -128zM563 245h-402q-7 -32 -7 -61q0 -65 34 -103q36 -41 104 -41q59 0 107.5 31.5t74.5 87.5h67q-90 -173 -261 -173q-190 0 -190 186q0 40 10 85q24 117 104 194q84 81 192 81q86 0 132.5 -48
t46.5 -139q0 -46 -12 -100zM296 584l22 102h65l-22 -102h-65zM455 584l22 102h65l-22 -102h-65z" />
    <glyph glyph-name="igrave" unicode="&#xec;" horiz-adv-x="222" 
d="M141 0h-60l110 518h60zM238 594h-30l-163 132h73z" />
    <glyph glyph-name="iacute" unicode="&#xed;" horiz-adv-x="222" 
d="M141 0h-60l110 518h60zM236 594h-29l120 132h82z" />
    <glyph glyph-name="icircumflex" unicode="&#xee;" horiz-adv-x="222" 
d="M138 0h-60l110 518h60zM240 676l-104 -102h-65l144 139h67l83 -139h-65z" />
    <glyph glyph-name="idieresis" unicode="&#xef;" horiz-adv-x="222" 
d="M138 0h-60l110 518h60zM109 584l22 102h65l-22 -102h-65zM268 584l22 102h65l-22 -102h-65z" />
    <glyph glyph-name="eth" unicode="&#xf0;" 
d="M518 334q0 144 -138 144q-89 0 -150 -67q-53 -59 -73 -152q-8 -38 -8 -71q0 -69 35 -108.5t103 -39.5q106 0 172 97q59 86 59 197zM368 679l133 60l29 -28l-134 -60q100 -96 159 -198q27 -46 27 -112q0 -39 -9 -82q-26 -123 -108 -198.5t-190 -74.5q-86 1 -137 49
q-54 51 -54 144q0 37 9 80q26 121 102 193q84 80 212 80q-18 36 -71 92l-121 -54l-28 27l121 55q-34 33 -69 62l54 25q36 -24 75 -60z" />
    <glyph glyph-name="ntilde" unicode="&#xf1;" 
d="M191 279l-59 -279h-60l110 518h60l-15 -72q99 86 185 86q108 0 142 -74q11 -22 11 -50q0 -23 -10 -69l-72 -339h-60l72 338q6 28 6 50q0 90 -110 90q-53 0 -100 -31q-41 -27 -66 -70q-21 -36 -34 -98zM289 586h-36q10 34 32 59q34 38 79 38q23 0 66 -22.5t65 -22.5
q33 0 54 50h38q-2 -9 -16 -38q-39 -60 -87 -60q-28 0 -71 22.5t-65 22.5q-33 0 -59 -49z" />
    <glyph glyph-name="ograve" unicode="&#xf2;" 
d="M275 -14q-90 1 -140.5 52t-50.5 141q0 37 9 80q25 118 100 192q82 81 198 81q92 0 141.5 -50t49.5 -142q0 -38 -9 -81q-25 -117 -101 -192q-83 -82 -197 -81zM518 335q0 143 -138 143q-89 0 -150 -67q-53 -58 -73 -152q-8 -37 -8 -71q0 -148 138 -148q105 0 172 98
q59 87 59 197zM412 618h-30l-173 132h83z" />
    <glyph glyph-name="oacute" unicode="&#xf3;" 
d="M275 -14q-90 1 -140.5 52t-50.5 141q0 37 9 80q25 118 100 192q82 81 198 81q92 0 141.5 -50t49.5 -142q0 -38 -9 -81q-25 -117 -101 -192q-83 -82 -197 -81zM518 335q0 143 -138 143q-89 0 -150 -67q-53 -58 -73 -152q-8 -37 -8 -71q0 -148 138 -148q105 0 172 98
q59 87 59 197zM410 618h-29l120 132h82z" />
    <glyph glyph-name="ocircumflex" unicode="&#xf4;" 
d="M275 -14q-90 1 -140.5 52t-50.5 141q0 37 9 80q25 118 100 192q82 81 198 81q92 0 141.5 -50t49.5 -142q0 -38 -9 -81q-25 -117 -101 -192q-83 -82 -197 -81zM518 335q0 143 -138 143q-89 0 -150 -67q-53 -58 -73 -152q-8 -37 -8 -71q0 -148 138 -148q105 0 172 98
q59 87 59 197zM414 657l-90 -87h-55l123 118h58l70 -118h-55z" />
    <glyph glyph-name="otilde" unicode="&#xf5;" 
d="M275 -14q-90 1 -140.5 52t-50.5 141q0 37 9 80q25 118 100 192q82 81 198 81q92 0 141.5 -50t49.5 -142q0 -38 -9 -81q-25 -117 -101 -192q-83 -82 -197 -81zM518 335q0 143 -138 143q-89 0 -150 -67q-53 -58 -73 -152q-8 -37 -8 -71q0 -148 138 -148q105 0 172 98
q59 87 59 197zM298 618h-31q19 25 55 50q48 33 86 33q15 0 45 -19t46 -19q27 0 69 42h33q-13 -16 -32 -32q-60 -50 -102 -51q-22 0 -51.5 19t-44.5 19q-29 0 -73 -42z" />
    <glyph glyph-name="odieresis" unicode="&#xf6;" 
d="M275 -14q-86 1 -137 49q-54 51 -54 144q0 37 9 80q25 119 101 193q82 80 197 80q95 0 145 -54q46 -50 46 -138q0 -38 -9 -81q-26 -123 -108 -198.5t-190 -74.5zM518 334q0 144 -138 144q-89 0 -150 -67q-53 -59 -73 -152q-8 -38 -8 -71q0 -69 35 -108.5t103 -39.5
q106 0 172 97q59 86 59 197zM296 584l22 102h65l-22 -102h-65zM455 584l22 102h65l-22 -102h-65z" />
    <glyph glyph-name="divide" unicode="&#xf7;" horiz-adv-x="660" 
d="M127 220l13 60h500l-13 -60h-500zM367 0h-73l19 88h73zM455 412h-73l18 88h73z" />
    <glyph glyph-name="oslash" unicode="&#xf8;" 
d="M161 124l326 309q-29 45 -105 45q-89 0 -150 -68q-53 -59 -73 -152q-8 -38 -8 -71q0 -38 10 -63zM509 397l-329 -312q36 -45 109 -45q88 0 149 67q53 59 73 151q9 43 9 77q0 35 -11 62zM134 41l-68 -64l-30 29l73 68q-23 43 -23 103q0 38 9 81q25 119 101 194
q82 80 197 80q93 0 143 -53l65 62l28 -31l-68 -65q23 -43 23 -106q0 -38 -9 -81q-26 -123 -105 -196q-80 -76 -193 -76q-96 0 -143 55z" />
    <glyph glyph-name="ugrave" unicode="&#xf9;" 
d="M473 236l60 282h60l-110 -518h-60l15 72q-93 -86 -185 -86q-150 0 -150 129q0 29 7 62l72 341h60l-72 -340q-5 -24 -5 -47q0 -91 109 -91q79 0 133 61q48 53 66 135zM402 584h-30l-173 132h83z" />
    <glyph glyph-name="uacute" unicode="&#xfa;" 
d="M473 236l60 282h60l-110 -518h-60l15 72q-93 -86 -185 -86q-150 0 -150 129q0 29 7 62l72 341h60l-72 -340q-5 -24 -5 -47q0 -91 109 -91q79 0 133 61q48 53 66 135zM400 584h-29l120 132h82z" />
    <glyph glyph-name="ucircumflex" unicode="&#xfb;" 
d="M473 236l60 282h60l-110 -518h-60l15 72q-43 -40 -73 -56q-52 -30 -112 -30q-151 0 -151 129q0 28 8 62l72 341h60l-72 -340q-6 -26 -6 -47q0 -91 110 -91q72 0 126.5 54.5t72.5 141.5zM427 676l-104 -102h-65l144 139h67l83 -139h-65z" />
    <glyph glyph-name="udieresis" unicode="&#xfc;" 
d="M473 236l60 282h60l-110 -518h-60l15 72q-43 -40 -73 -56q-52 -30 -112 -30q-151 0 -151 129q0 28 8 62l72 341h60l-72 -340q-6 -26 -6 -47q0 -91 110 -91q72 0 126.5 54.5t72.5 141.5zM296 584l22 102h65l-22 -102h-65zM455 584l22 102h65l-22 -102h-65z" />
    <glyph glyph-name="yacute" unicode="&#xfd;" horiz-adv-x="500" 
d="M26 -197l12 56q30 -6 49 -6q44 0 79 55q17 29 52 88l-90 522h67l72 -445l260 445h65l-302 -511q-68 -115 -102 -154q-50 -57 -106 -57q-30 0 -56 7zM376 570h-29l120 132h82z" />
    <glyph glyph-name="thorn" unicode="&#xfe;" horiz-adv-x="611" 
d="M194 257q-7 -32 -7 -61q0 -69 34 -111q37 -45 102 -45q88 0 150 69q57 63 76 166q6 30 6 57q0 70 -37.5 108t-101.5 38q-83 0 -144 -64q-58 -60 -78 -157zM157 83l-61 -287h-60l196 924h60l-62 -293h2q35 49 95 78q55 27 107 27q186 0 186 -183q0 -41 -10 -89
q-25 -117 -97 -191q-80 -83 -192 -83q-56 0 -101 25.5t-63 71.5z" />
    <glyph glyph-name="ydieresis" unicode="&#xff;" horiz-adv-x="500" 
d="M26 -197l12 56q31 -6 49 -6q42 0 79 55l52 88l-90 522h67l72 -445l260 445h65l-302 -511q-68 -117 -102 -154q-50 -57 -106 -57q-29 0 -56 7zM268 584l22 102h65l-22 -102h-65zM427 584l22 102h65l-22 -102h-65z" />
    <glyph glyph-name="glyph271" unicode="&#x102;" horiz-adv-x="667" 
d="M85 0h-70l436 720h77l123 -720h-70l-35 226h-328zM475 662l-222 -378h282zM388 873h35q-1 -72 79 -72q78 0 111 72h34q-38 -113 -159 -113q-102 0 -102 92q0 10 2 21z" />
    <glyph glyph-name="glyph272" unicode="&#x103;" 
d="M452 191l17 81q-56 -21 -161 -29q-70 -5 -115 -32q-57 -35 -57 -98q0 -37 30 -56q26 -17 65 -17q80 0 139 36q67 41 82 115zM289 291l85 11q62 8 75 14q31 13 41 57q3 14 3 28q0 77 -109 77q-137 0 -176 -117h-61q25 86 93 130q64 41 156 41q159 0 159 -117q0 -20 -5 -44
l-60 -282q-3 -14 -3 -26q0 -22 20 -22q12 0 37 8l-10 -47q-30 -10 -49 -10q-61 0 -61 49q0 12 3 31q-95 -86 -211 -86q-60 0 -99 27q-46 31 -46 88q0 15 4 34q28 132 214 156zM301 701h34q-1 -68 75 -68q73 0 105 68h32q-35 -107 -151 -107q-96 0 -96 88q0 9 1 19z" />
    <glyph glyph-name="Cacute" unicode="&#x106;" horiz-adv-x="711" 
d="M771 511h-70q-2 90 -49 130t-142 40q-124 0 -210 -96q-78 -85 -107 -223q-13 -61 -13 -113q0 -210 199 -210q90 0 163 56q67 52 107 142h71q-113 -256 -366 -256q-125 0 -187 73q-57 65 -57 182q0 57 15 124q41 196 158 293q104 86 257 86q113 0 175 -59t56 -169z
M459 829h-51l141 139h77z" />
    <glyph glyph-name="cacute" unicode="&#x107;" horiz-adv-x="441" 
d="M575 355h-61q-7 123 -127 123q-102 0 -169 -96q-60 -86 -60 -192q0 -67 31 -106q35 -44 105 -44q136 0 188 139h64q-76 -193 -264 -193q-96 0 -145 52q-45 49 -45 135q0 40 10 85q24 114 101 191q84 83 195 83q189 0 177 -177zM260 574h-51l141 139h77z" />
    <glyph glyph-name="Ccaron" unicode="&#x10c;" horiz-adv-x="711" 
d="M771 511h-70q-2 90 -49 130t-142 40q-124 0 -210 -96q-78 -85 -107 -223q-13 -61 -13 -113q0 -210 199 -210q90 0 163 56q67 52 107 142h71q-113 -256 -366 -256q-125 0 -187 73q-57 65 -57 182q0 57 15 124q41 196 158 293q104 86 257 86q113 0 175 -59t56 -169z
M478 866l104 102h65l-143 -139h-67l-84 139h65z" />
    <glyph glyph-name="ccaron" unicode="&#x10d;" horiz-adv-x="441" 
d="M575 355h-61q-7 123 -127 123q-102 0 -169 -96q-60 -86 -60 -192q0 -67 31 -106q35 -44 105 -44q136 0 188 139h64q-76 -193 -264 -193q-96 0 -145 52q-45 49 -45 135q0 40 10 85q24 114 101 191q84 83 195 83q189 0 177 -177zM279 611l104 102h65l-143 -139h-67l-84 139
h65z" />
    <glyph glyph-name="Dslash" unicode="&#x110;" horiz-adv-x="722" 
d="M290 662l-54 -251h121l-12 -58h-121l-63 -295h163q105 0 176 33q134 62 178 270q13 61 13 107q0 119 -79 167q-45 27 -159 27h-163zM168 411l66 309h246q141 0 205 -50q74 -57 74 -193q0 -55 -13 -116q-76 -361 -419 -361h-246l75 353h-71l12 58h71z" />
    <glyph glyph-name="dcroat" unicode="&#x111;" horiz-adv-x="611" 
d="M527 261q7 33 7 61q0 68 -33 110q-36 46 -102 46q-93 0 -155 -74q-53 -62 -72 -161q-6 -32 -6 -57q0 -68 36.5 -107t103.5 -39q87 0 148 69q54 61 73 152zM590 575h-170l11 50h169q6 26 19 95h62q-10 -47 -21 -95h58l-11 -50h-57l-118 -575h-60l19 91h-2
q-33 -46 -89.5 -75.5t-112.5 -29.5q-186 0 -186 183q0 42 10 89q25 116 97 191q80 83 192 83q55 0 98 -23q47 -26 66 -74z" />
    <glyph glyph-name="Gbreve" unicode="&#x11e;" horiz-adv-x="767" 
d="M697 314h-243l12 58h308l-79 -372h-58l26 123q-113 -142 -299 -142q-115 0 -180 65q-68 67 -68 194q0 57 14 124q36 167 138 267q112 108 275 108q117 0 184 -56q70 -60 69 -172h-70q-1 79 -56 126q-52 44 -134 44q-137 0 -227 -96q-82 -88 -116 -248q-9 -40 -9 -78
q0 -97 52 -157q55 -63 154 -63q66 0 126 28q71 33 118 98q42 58 63 149zM374 961h39q-1 -81 88 -81q87 0 124 81h37q-40 -126 -176 -126q-53 0 -83.5 27t-30.5 76q0 11 2 23z" />
    <glyph glyph-name="gbreve" unicode="&#x11f;" horiz-adv-x="492" 
d="M527 257q7 36 7 69q0 70 -33 110q-36 42 -102 42q-78 0 -138 -54t-83 -149q-10 -45 -10 -84q0 -151 138 -151q79 0 142 65q59 61 79 152zM563 427l19 91h60l-99 -468q-56 -262 -299 -262q-96 0 -147 44q-42 37 -42 89q0 8 2 16h64q1 -95 134 -95q112 0 171 76
q43 56 64 165q-38 -46 -94 -71.5t-112 -25.5q-91 0 -139 56q-43 50 -43 137q0 38 9 81q26 123 96 193q77 79 196 79q52 0 97.5 -28t60.5 -77h2zM174 706h39q-1 -81 88 -81q87 0 124 81h37q-40 -126 -176 -126q-53 0 -83.5 27t-30.5 76q0 11 2 23z" />
    <glyph glyph-name="glyph273" unicode="&#x128;" horiz-adv-x="278" 
d="M173 0h-68l153 720h68zM159 780h-33q21 27 58 53q50 35 90 35q17 0 48.5 -20.5t47.5 -20.5q30 0 73 45h35q-15 -18 -34 -34q-63 -53 -107 -54q-24 0 -54.5 20t-46.5 20q-31 0 -77 -44z" />
    <glyph glyph-name="glyph274" unicode="&#x129;" horiz-adv-x="222" 
d="M141 0h-60l110 518h60zM103 593h-31q19 25 55 50q48 33 86 33q15 0 45 -19t46 -19q27 0 69 42h33q-13 -16 -32 -32q-60 -50 -102 -51q-22 0 -51.5 19t-44.5 19q-29 0 -73 -42z" />
    <glyph glyph-name="Idotaccent" unicode="&#x130;" horiz-adv-x="429" 
d="M173 0h-68l153 720h68zM285 839l22 102h65l-22 -102h-65z" />
    <glyph glyph-name="dotlessi" unicode="&#x131;" horiz-adv-x="222" 
d="M138 0h-60l110 518h60z" />
    <glyph glyph-name="Lslash" unicode="&#x141;" 
d="M535 0h-454l77 360l-90 -40l13 60l89 40l64 300h68l-53 -250l89 40l-12 -60l-90 -40l-75 -352h386z" />
    <glyph glyph-name="lslash" unicode="&#x142;" horiz-adv-x="222" 
d="M141 0h-60l72 340l-79 -40l13 60l79 40l68 320h60l-57 -270l79 40l-13 -60l-79 -40z" />
    <glyph glyph-name="OE" unicode="&#x152;" horiz-adv-x="1000" 
d="M594 221l59 277q5 26 5 49q0 134 -167 134q-114 0 -193 -81.5t-112 -238.5q-14 -64 -14 -117q0 -205 190 -205q81 0 156 54q58 42 76 128zM550 0l15 72q-108 -91 -220 -91q-124 0 -186 75q-55 67 -55 183q0 57 13 120q36 168 130 268q104 112 256 112q147 0 184 -95
l16 76h407l-12 -58h-342l-56 -260h320l-12 -58h-320l-61 -286h352l-12 -58h-417z" />
    <glyph glyph-name="oe" unicode="&#x153;" horiz-adv-x="944" 
d="M956 245h-393q-9 -27 -9 -59q0 -60 31 -99q37 -47 110 -47q56 0 103.5 33t71.5 87h61q-36 -84 -101.5 -129t-148.5 -45q-71 0 -118 36q-44 33 -60 90q-88 -126 -239 -126q-85 0 -133.5 51t-48.5 141q0 38 9 80q26 121 97 194q79 80 196 80q146 0 182 -125q92 125 231 125
q173 0 173 -172q0 -49 -14 -115zM153 249q-7 -33 -7 -63q0 -66 32 -104q35 -42 103 -42q83 0 143 64q58 61 80 165q7 34 7 64q0 67 -36 106t-107 39q-81 0 -137.5 -61t-77.5 -168zM574 295h329q6 32 6 59q0 124 -126 124q-74 0 -131.5 -53t-77.5 -130z" />
    <glyph glyph-name="Scedilla" unicode="&#x15e;" horiz-adv-x="656" 
d="M89 215h66q-3 -18 -3 -33q0 -143 172 -143q92 0 150 45q51 40 65 104q3 16 3 30q0 69 -96 101q-89 26 -179 52q-96 40 -96 128q0 22 5 47q17 80 90 134q80 59 195 59q100 0 153 -47q49 -44 49 -117q0 -25 -6 -51h-65q5 20 5 38q0 59 -44 91q-40 28 -104 28
q-97 0 -156 -52q-51 -45 -54 -107q-3 -72 93 -103l182 -50q99 -39 99 -130q0 -22 -5 -48q-21 -99 -102.5 -154.5t-205.5 -55.5q-100 0 -159 45t-59 130q0 28 7 59zM53 -188l21 30q42 -15 61 -15q26 0 46 11q25 13 30 36q9 39 -41 39q-14 0 -46 -8l-12 13l77 82h39l-60 -59
q26 6 38 6q31 0 50 -17q16 -15 16 -35q-2 -51 -43 -78q-36 -24 -89 -24q-41 0 -87 19z" />
    <glyph glyph-name="scedilla" unicode="&#x15f;" horiz-adv-x="383" 
d="M80 162h61q0 -66 30.5 -94t99.5 -28q56 0 100 28q50 32 50 86q0 47 -74 69q-69 18 -137 35q-74 29 -74 94q0 15 4 32q14 66 71 107t142 41q166 0 166 -140q0 -11 -1 -23h-61q9 109 -116 109q-56 0 -92 -24t-44 -65q-2 -9 -2 -16q0 -45 73 -69q69 -20 137 -40
q74 -31 74 -96q0 -14 -4 -31q-15 -72 -84 -113q-64 -38 -159 -38q-78 0 -122 41q-40 38 -40 102q0 16 2 33zM-44 -188l21 30q42 -15 61 -15q26 0 46 11q25 13 30 36q9 39 -41 39q-14 0 -46 -8l-12 13l77 82h39l-60 -59q26 6 38 6q31 0 50 -17q16 -15 16 -35q-2 -51 -43 -78
q-36 -24 -89 -24q-41 0 -87 19z" />
    <glyph glyph-name="Scaron" unicode="&#x160;" horiz-adv-x="611" 
d="M89 215h66q-3 -18 -3 -33q0 -143 172 -143q92 0 150 45q51 40 65 104q3 16 3 30q0 69 -96 101q-89 26 -179 52q-96 40 -96 128q0 22 5 47q17 80 90 134q80 59 195 59q100 0 153 -47q49 -44 49 -117q0 -25 -6 -51h-65q5 20 5 38q0 59 -44 91q-40 28 -104 28
q-97 0 -156 -52q-51 -45 -54 -107q-3 -72 93 -103l182 -50q99 -39 99 -130q0 -22 -5 -48q-21 -99 -102.5 -154.5t-205.5 -55.5q-100 0 -159 45t-59 130q0 28 7 59zM483 813l104 102h65l-143 -139h-67l-84 139h65z" />
    <glyph glyph-name="scaron" unicode="&#x161;" horiz-adv-x="500" 
d="M80 162h61q0 -66 30.5 -94t99.5 -28q56 0 100 28q50 32 50 86q0 47 -74 69q-69 18 -137 35q-74 29 -74 94q0 15 4 32q14 66 71 107t142 41q166 0 166 -140q0 -11 -1 -23h-61q9 109 -116 109q-56 0 -92 -24t-44 -65q-2 -9 -2 -16q0 -45 73 -69q69 -20 137 -40
q74 -31 74 -96q0 -14 -4 -31q-15 -72 -84 -113q-64 -38 -159 -38q-78 0 -122 41q-40 38 -40 102q0 16 2 33zM385 611l104 102h65l-143 -139h-67l-84 139h65z" />
    <glyph glyph-name="ch903" unicode="&#x168;" horiz-adv-x="722" 
d="M140 271l95 449h68l-91 -429q-12 -57 -12 -102q0 -150 169 -150q119 0 183 69q56 59 82 183l91 429h68l-95 -449q-61 -290 -341 -290q-228 0 -228 198q0 40 11 92zM390 750h-33q21 27 58 53q50 35 90 35q17 0 48.5 -20.5t47.5 -20.5q30 0 73 45h35q-15 -18 -34 -34
q-63 -53 -107 -54q-24 0 -54.5 20t-46.5 20q-31 0 -77 -44z" />
    <glyph glyph-name="ch904" unicode="&#x169;" 
d="M473 236l60 282h60l-110 -518h-60l15 72q-93 -86 -185 -86q-150 0 -150 129q0 29 7 62l72 341h60l-72 -340q-5 -24 -5 -47q0 -91 109 -91q79 0 133 61q48 53 66 135zM277 593h-31q19 25 55 50q48 33 86 33q15 0 45 -19t46 -19q27 0 69 42h33q-13 -16 -32 -32
q-60 -50 -102 -51q-22 0 -51.5 19t-44.5 19q-29 0 -73 -42z" />
    <glyph glyph-name="Ydieresis" unicode="&#x178;" horiz-adv-x="611" 
d="M243 720l138 -347l291 347h79l-347 -406l-67 -314h-68l66 309l-170 411h78zM366 786l22 102h65l-22 -102h-65zM525 786l22 102h65l-22 -102h-65z" />
    <glyph glyph-name="Zcaron" unicode="&#x17d;" horiz-adv-x="611" 
d="M579 0h-548l12 57l590 605h-422l12 58h506l-12 -57l-590 -605h464zM483 813l104 102h65l-143 -139h-67l-84 139h65z" />
    <glyph glyph-name="zcaron" unicode="&#x17e;" horiz-adv-x="500" 
d="M467 0h-434l11 53l432 415h-321l11 50h398l-11 -53l-432 -415h357zM385 611l104 102h65l-143 -139h-67l-84 139h65z" />
    <glyph glyph-name="florin" unicode="&#x192;" 
d="M691 714l-31 -49q-27 14 -48 14q-11 0 -26 -2q-50 -8 -90 -86q-32 -72 -63 -143h115l-10 -48h-123l-135 -336q-50 -124 -101 -183q-65 -77 -153 -77q-23 0 -52 11l31 57q19 -13 49 -13q55 0 111 100q41 72 122 279l63 162h-113l10 48h121q28 62 56 123q38 75 79 114
q53 49 122 49q35 0 66 -20z" />
    <glyph glyph-name="glyph277" unicode="&#x1a0;" horiz-adv-x="778" 
d="M397 39q132 0 224 97q82 86 111 223q12 56 12 102q0 103 -55 161.5t-157 58.5q-131 0 -224 -98q-82 -88 -111 -224q-11 -52 -11 -99q0 -105 53.5 -163t157.5 -58zM743 666q69 -70 69 -197q0 -54 -12 -110q-35 -164 -140 -267q-115 -111 -276 -111q-128 0 -197.5 71.5
t-69.5 199.5q0 51 12 107q35 163 139 267q114 113 274 113q115 0 183 -57q62 12 62 49q0 21 -25 30q-9 3 -34 1q7 10 34.5 15.5t41.5 1.5q34 -13 34 -42q0 -14 -9 -29q-22 -36 -86 -42z" />
    <glyph glyph-name="glyph278" unicode="&#x1a1;" 
d="M518 335q0 143 -138 143q-89 0 -150 -67q-53 -58 -73 -152q-8 -37 -8 -71q0 -148 138 -148q105 0 172 98q59 87 59 197zM540 473l35 32q16 12 16 27q0 19 -24 27q6 8 20.5 14t22.5 3q31 -10 31 -39q0 -44 -72 -60l-27 -6q40 -50 40 -132q0 -38 -9 -80q-25 -117 -101 -192
q-83 -82 -197 -81q-90 1 -140.5 52t-50.5 141q0 37 9 80q25 118 100 192q82 81 198 81q100 0 149 -59z" />
    <glyph glyph-name="glyph279" unicode="&#x1af;" horiz-adv-x="722" 
d="M782 669l-84 -398q-61 -290 -341 -290q-228 0 -228 198q0 40 11 92l95 449h68l-91 -429q-12 -57 -12 -102q0 -150 169 -150q119 0 183 69q56 59 82 183l91 429l51 -7l12 -12q19 15 19 29q0 21 -27 31q-8 3 -34 1q7 10 34.5 15.5t41.5 1.5q34 -13 34 -42q0 -51 -74 -68z
" />
    <glyph glyph-name="glyph280" unicode="&#x1b0;" 
d="M584 475l-101 -475h-60l15 72q-93 -86 -185 -86q-150 0 -150 129q0 29 7 62l72 341h60l-72 -340q-5 -24 -5 -47q0 -91 109 -91q79 0 133 61q48 53 66 135l60 282l38 -9l17 -13l10 9q16 12 16 27q0 19 -24 27q6 7 20.5 13t22.5 3q29 -10 29 -37q0 -43 -70 -61z" />
    <glyph glyph-name="circumflex" unicode="&#x2c6;" horiz-adv-x="333" 
d="M315 676l-104 -102h-65l144 139h67l83 -139h-65z" />
    <glyph glyph-name="caron" unicode="&#x2c7;" horiz-adv-x="333" 
d="M301 611l104 102h65l-143 -139h-67l-84 139h65z" />
    <glyph glyph-name="breve" unicode="&#x2d8;" horiz-adv-x="333" 
d="M178 706h39q-1 -81 88 -81q87 0 124 81h37q-40 -126 -176 -126q-53 0 -83.5 27t-30.5 76q0 11 2 23z" />
    <glyph glyph-name="dotaccent" unicode="&#x2d9;" horiz-adv-x="333" 
d="M258 584l22 102h65l-22 -102h-65z" />
    <glyph glyph-name="ring" unicode="&#x2da;" horiz-adv-x="333" 
d="M290 578q-35 0 -58 22.5t-23 56.5q0 45 39 82.5t84 37.5q35 0 57.5 -23t22.5 -57q0 -46 -38 -82.5t-84 -36.5zM297 611q30 0 55.5 24.5t25.5 54.5q0 23 -15 38.5t-38 15.5q-30 0 -56 -24.5t-26 -55.5q0 -22 15.5 -37.5t38.5 -15.5z" />
    <glyph glyph-name="ogonek" unicode="&#x2db;" horiz-adv-x="333" 
d="M149 0h50v-2q-100 -45 -100 -100q0 -44 56 -44q21 0 44 9l-9 -44q-28 -9 -54 -9q-37 0 -60 17q-26 19 -26 52q0 75 99 121z" />
    <glyph glyph-name="tilde" unicode="&#x2dc;" horiz-adv-x="333" 
d="M177 586h-36q10 34 32 59q34 38 79 38q23 0 66 -22.5t65 -22.5q33 0 54 50h38q-2 -9 -16 -38q-39 -60 -87 -60q-28 0 -71 22.5t-65 22.5q-33 0 -59 -49z" />
    <glyph glyph-name="hungarumlaut" unicode="&#x2dd;" horiz-adv-x="333" 
d="M282 574h-51l141 139h77zM444 574h-51l141 139h77z" />
    <glyph glyph-name="glyph281" unicode="&#x1ea0;" horiz-adv-x="667" 
d="M85 0h-70l436 720h77l123 -720h-70l-35 226h-328zM475 662l-222 -378h282zM354 -112h-65l17 80l24 2l41 -2z" />
    <glyph glyph-name="glyph282" unicode="&#x1ea1;" 
d="M452 191l17 81q-56 -21 -161 -29q-70 -5 -115 -32q-57 -35 -57 -98q0 -37 30 -56q26 -17 65 -17q80 0 139 36q67 41 82 115zM289 291l85 11q62 8 75 14q31 13 41 57q3 14 3 28q0 77 -109 77q-137 0 -176 -117h-61q25 86 93 130q64 41 156 41q159 0 159 -117q0 -20 -5 -44
l-60 -282q-3 -14 -3 -26q0 -22 20 -22q12 0 37 8l-10 -47q-30 -10 -49 -10q-61 0 -61 49q0 12 3 31q-95 -86 -211 -86q-60 0 -99 27q-46 31 -46 88q0 15 4 34q28 132 214 156zM281 -132h-65l17 80l24 2l41 -2z" />
    <glyph glyph-name="glyph283" unicode="&#x1ea2;" horiz-adv-x="667" 
d="M85 0h-70l436 720h77l123 -720h-70l-35 226h-328zM475 662l-222 -378h282zM491 835l42 30q26 18 26 44q0 42 -41 42q-26 0 -48.5 -22t-27.5 -48l-3 26q4 36 29.5 59t61.5 23q29 0 49.5 -17t20.5 -46q0 -28 -30 -59q-27 -23 -53 -46q-24 -29 -29 -51q0 8 -4 22t-4 21
q0 12 11 22z" />
    <glyph glyph-name="glyph284" unicode="&#x1ea3;" 
d="M452 191l17 81q-56 -21 -161 -29q-70 -5 -115 -32q-57 -35 -57 -98q0 -37 30 -56q26 -17 65 -17q80 0 139 36q67 41 82 115zM289 291l85 11q62 8 75 14q31 13 41 57q3 14 3 28q0 77 -109 77q-137 0 -176 -117h-61q25 86 93 130q64 41 156 41q159 0 159 -117q0 -20 -5 -44
l-60 -282q-3 -14 -3 -26q0 -22 20 -22q12 0 37 8l-10 -47q-30 -10 -49 -10q-61 0 -61 49q0 12 3 31q-95 -86 -211 -86q-60 0 -99 27q-46 31 -46 88q0 15 4 34q28 132 214 156zM399 674l42 30q26 18 26 44q0 42 -41 42q-26 0 -48.5 -22t-27.5 -48l-3 26q4 36 29.5 59t61.5 23
q29 0 49.5 -17t20.5 -46q0 -28 -30 -59q-27 -23 -53 -46q-24 -29 -29 -51q0 8 -4 22t-4 21q0 12 11 22z" />
    <glyph glyph-name="glyph285" unicode="&#x1ea4;" horiz-adv-x="667" 
d="M85 0h-70l436 720h77l123 -720h-70l-35 226h-328zM475 662l-222 -378h282zM500 832l-94 -92h-58l129 125h61l74 -125h-58zM643 832h-31l126 139h87z" />
    <glyph glyph-name="glyph286" unicode="&#x1ea5;" 
d="M452 191l17 81q-56 -21 -161 -29q-70 -5 -115 -32q-57 -35 -57 -98q0 -37 30 -56q26 -17 65 -17q80 0 139 36q67 41 82 115zM289 291l85 11q62 8 75 14q31 13 41 57q3 14 3 28q0 77 -109 77q-137 0 -176 -117h-61q25 86 93 130q64 41 156 41q159 0 159 -117q0 -20 -5 -44
l-60 -282q-3 -14 -3 -26q0 -22 20 -22q12 0 37 8l-10 -47q-30 -10 -49 -10q-61 0 -61 49q0 12 3 31q-95 -86 -211 -86q-60 0 -99 27q-46 31 -46 88q0 15 4 34q28 132 214 156zM414 657l-90 -87h-55l123 118h58l70 -118h-55zM549 657h-29l120 132h82z" />
    <glyph glyph-name="glyph287" unicode="&#x1ea6;" horiz-adv-x="667" 
d="M85 0h-70l436 720h77l123 -720h-70l-35 226h-328zM475 662l-222 -378h282zM500 832l-94 -92h-58l129 125h61l74 -125h-58zM382 832h-31l-182 139h87z" />
    <glyph glyph-name="glyph288" unicode="&#x1ea7;" 
d="M452 191l17 81q-56 -21 -161 -29q-70 -5 -115 -32q-57 -35 -57 -98q0 -37 30 -56q26 -17 65 -17q80 0 139 36q67 41 82 115zM289 291l85 11q62 8 75 14q31 13 41 57q3 14 3 28q0 77 -109 77q-137 0 -176 -117h-61q25 86 93 130q64 41 156 41q159 0 159 -117q0 -20 -5 -44
l-60 -282q-3 -14 -3 -26q0 -22 20 -22q12 0 37 8l-10 -47q-30 -10 -49 -10q-61 0 -61 49q0 12 3 31q-95 -86 -211 -86q-60 0 -99 27q-46 31 -46 88q0 15 4 34q28 132 214 156zM414 657l-90 -87h-55l123 118h58l70 -118h-55zM302 657h-30l-173 132h83z" />
    <glyph glyph-name="glyph289" unicode="&#x1ea8;" horiz-adv-x="667" 
d="M85 0h-70l436 720h77l123 -720h-70l-35 226h-328zM475 662l-222 -378h282zM500 832l-94 -92h-58l129 125h61l74 -125h-58zM625 887l42 30q26 18 26 44q0 42 -41 42q-26 0 -48.5 -22t-27.5 -48l-3 26q4 36 29.5 59t61.5 23q29 0 49.5 -17t20.5 -46q0 -28 -30 -59
q-27 -23 -53 -46q-24 -29 -29 -51q0 8 -4 22t-4 21q0 12 11 22z" />
    <glyph glyph-name="glyph290" unicode="&#x1ea9;" 
d="M452 191l17 81q-56 -21 -161 -29q-70 -5 -115 -32q-57 -35 -57 -98q0 -37 30 -56q26 -17 65 -17q80 0 139 36q67 41 82 115zM289 291l85 11q62 8 75 14q31 13 41 57q3 14 3 28q0 77 -109 77q-137 0 -176 -117h-61q25 86 93 130q64 41 156 41q159 0 159 -117q0 -20 -5 -44
l-60 -282q-3 -14 -3 -26q0 -22 20 -22q12 0 37 8l-10 -47q-30 -10 -49 -10q-61 0 -61 49q0 12 3 31q-95 -86 -211 -86q-60 0 -99 27q-46 31 -46 88q0 15 4 34q28 132 214 156zM414 658l-89 -88h-55l123 119h58l70 -119h-55zM540 715l42 30q26 18 26 44q0 42 -41 42
q-26 0 -48.5 -22t-27.5 -48l-3 26q4 36 29.5 59t61.5 23q29 0 49.5 -17t20.5 -46q0 -28 -30 -59q-27 -23 -53 -46q-24 -29 -29 -51q0 8 -4 22t-4 21q0 12 11 22z" />
    <glyph glyph-name="glyph291" unicode="&#x1eaa;" horiz-adv-x="667" 
d="M85 0h-70l436 720h77l123 -720h-70l-35 226h-328zM475 662l-222 -378h282zM500 832l-94 -92h-58l129 125h61l74 -125h-58zM350 901h-33q21 27 58 53q50 35 90 35q17 0 48.5 -20.5t47.5 -20.5q30 0 73 45h35q-15 -18 -34 -34q-63 -53 -107 -54q-24 0 -54.5 20t-46.5 20
q-31 0 -77 -44z" />
    <glyph glyph-name="glyph292" unicode="&#x1eab;" 
d="M452 191l17 81q-56 -21 -161 -29q-70 -5 -115 -32q-57 -35 -57 -98q0 -37 30 -56q26 -17 65 -17q80 0 139 36q67 41 82 115zM289 291l85 11q62 8 75 14q31 13 41 57q3 14 3 28q0 77 -109 77q-137 0 -176 -117h-61q25 86 93 130q64 41 156 41q159 0 159 -117q0 -20 -5 -44
l-60 -282q-3 -14 -3 -26q0 -22 20 -22q12 0 37 8l-10 -47q-30 -10 -49 -10q-61 0 -61 49q0 12 3 31q-95 -86 -211 -86q-60 0 -99 27q-46 31 -46 88q0 15 4 34q28 132 214 156zM414 658l-90 -88h-55l123 119h58l70 -119h-55zM271 723h-31q19 25 55 50q48 33 86 33
q15 0 45 -19t46 -19q27 0 69 42h33q-13 -16 -32 -32q-60 -50 -102 -51q-22 0 -51.5 19t-44.5 19q-29 0 -73 -42z" />
    <glyph glyph-name="glyph293" unicode="&#x1eac;" horiz-adv-x="667" 
d="M85 0h-70l436 720h77l123 -720h-70l-35 226h-328zM475 662l-222 -378h282zM500 832l-94 -92h-58l129 125h61l74 -125h-58zM354 -112h-65l17 80l24 2l41 -2z" />
    <glyph glyph-name="glyph294" unicode="&#x1ead;" 
d="M452 191l17 81q-56 -21 -161 -29q-70 -5 -115 -32q-57 -35 -57 -98q0 -37 30 -56q26 -17 65 -17q80 0 139 36q67 41 82 115zM289 291l85 11q62 8 75 14q31 13 41 57q3 14 3 28q0 77 -109 77q-137 0 -176 -117h-61q25 86 93 130q64 41 156 41q159 0 159 -117q0 -20 -5 -44
l-60 -282q-3 -14 -3 -26q0 -22 20 -22q12 0 37 8l-10 -47q-30 -10 -49 -10q-61 0 -61 49q0 12 3 31q-95 -86 -211 -86q-60 0 -99 27q-46 31 -46 88q0 15 4 34q28 132 214 156zM414 657l-90 -87h-55l123 118h58l70 -118h-55zM281 -132h-65l17 80l24 2l41 -2z" />
    <glyph glyph-name="glyph295" unicode="&#x1eae;" horiz-adv-x="667" 
d="M85 0h-70l436 720h77l123 -720h-70l-35 226h-328zM475 662l-222 -378h282zM388 873h35q-1 -72 79 -72q78 0 111 72h34q-38 -113 -159 -113q-102 0 -102 92q0 10 2 21zM517 873h-31l126 139h87z" />
    <glyph glyph-name="glyph296" unicode="&#x1eaf;" 
d="M452 191l17 81q-56 -21 -161 -29q-70 -5 -115 -32q-57 -35 -57 -98q0 -37 30 -56q26 -17 65 -17q80 0 139 36q67 41 82 115zM289 291l85 11q62 8 75 14q31 13 41 57q3 14 3 28q0 77 -109 77q-137 0 -176 -117h-61q25 86 93 130q64 41 156 41q159 0 159 -117q0 -20 -5 -44
l-60 -282q-3 -14 -3 -26q0 -22 20 -22q12 0 37 8l-10 -47q-30 -10 -49 -10q-61 0 -61 49q0 12 3 31q-95 -86 -211 -86q-60 0 -99 27q-46 31 -46 88q0 15 4 34q28 132 214 156zM301 701h34q-1 -68 75 -68q73 0 105 68h32q-35 -107 -151 -107q-96 0 -96 88q0 9 1 19zM424 701
h-30l120 132h83z" />
    <glyph glyph-name="glyph297" unicode="&#x1eb0;" horiz-adv-x="667" 
d="M85 0h-70l436 720h77l123 -720h-70l-35 226h-328zM475 662l-222 -378h282zM388 873h35q-1 -72 79 -72q78 0 111 72h34q-38 -113 -159 -113q-102 0 -102 92q0 10 2 21zM518 873h-31l-182 139h87z" />
    <glyph glyph-name="glyph298" unicode="&#x1eb1;" 
d="M452 191l17 81q-56 -21 -161 -29q-70 -5 -115 -32q-57 -35 -57 -98q0 -37 30 -56q26 -17 65 -17q80 0 139 36q67 41 82 115zM289 291l85 11q62 8 75 14q31 13 41 57q3 14 3 28q0 77 -109 77q-137 0 -176 -117h-61q25 86 93 130q64 41 156 41q159 0 159 -117q0 -20 -5 -44
l-60 -282q-3 -14 -3 -26q0 -22 20 -22q12 0 37 8l-10 -47q-30 -10 -49 -10q-61 0 -61 49q0 12 3 31q-95 -86 -211 -86q-60 0 -99 27q-46 31 -46 88q0 15 4 34q28 132 214 156zM301 700h33q-1 -68 75 -68q73 0 105 68h33q-36 -107 -152 -107q-96 0 -96 86q0 10 2 21zM424 700
h-29l-173 132h82z" />
    <glyph glyph-name="glyph299" unicode="&#x1eb2;" horiz-adv-x="667" 
d="M85 0h-70l436 720h77l123 -720h-70l-35 226h-328zM475 662l-222 -378h282zM388 873h35q-1 -72 79 -72q78 0 111 72h34q-38 -113 -159 -113q-102 0 -102 92q0 10 2 21zM505 928l42 30q26 18 26 44q0 42 -41 42q-26 0 -48.5 -22t-27.5 -48l-3 26q4 36 29.5 59t61.5 23
q29 0 49.5 -17t20.5 -46q0 -28 -30 -59q-27 -23 -53 -46q-24 -29 -29 -51q0 8 -4 22t-4 21q0 12 11 22z" />
    <glyph glyph-name="glyph300" unicode="&#x1eb3;" 
d="M452 191l17 81q-56 -21 -161 -29q-70 -5 -115 -32q-57 -35 -57 -98q0 -37 30 -56q26 -17 65 -17q80 0 139 36q67 41 82 115zM289 291l85 11q62 8 75 14q31 13 41 57q3 14 3 28q0 77 -109 77q-137 0 -176 -117h-61q25 86 93 130q64 41 156 41q159 0 159 -117q0 -20 -5 -44
l-60 -282q-3 -14 -3 -26q0 -22 20 -22q12 0 37 8l-10 -47q-30 -10 -49 -10q-61 0 -61 49q0 12 3 31q-95 -86 -211 -86q-60 0 -99 27q-46 31 -46 88q0 15 4 34q28 132 214 156zM300 701h33q-1 -68 75 -68q74 0 106 68h32q-36 -107 -151 -107q-96 0 -96 88q0 9 1 19zM411 758
l42 30q26 18 26 44q0 42 -41 42q-26 0 -48.5 -22t-27.5 -48l-3 26q4 36 29.5 59t61.5 23q29 0 49.5 -17t20.5 -46q0 -28 -30 -59q-27 -23 -53 -46q-24 -29 -29 -51q0 8 -4 22t-4 21q0 12 11 22z" />
    <glyph glyph-name="glyph301" unicode="&#x1eb4;" horiz-adv-x="667" 
d="M85 0h-70l436 720h77l123 -720h-70l-35 226h-328zM475 662l-222 -378h282zM388 873h35q-1 -72 79 -72q78 0 111 72h34q-38 -113 -159 -113q-102 0 -102 92q0 10 2 21zM534 898h-33q21 27 58 53q50 35 90 35q17 0 48.5 -20.5t47.5 -20.5q30 0 73 45h35q-15 -18 -34 -34
q-63 -53 -107 -54q-24 0 -54.5 20t-46.5 20q-31 0 -77 -44z" />
    <glyph glyph-name="glyph302" unicode="&#x1eb5;" 
d="M452 191l17 81q-56 -21 -161 -29q-70 -5 -115 -32q-57 -35 -57 -98q0 -37 30 -56q26 -17 65 -17q80 0 139 36q67 41 82 115zM289 291l85 11q62 8 75 14q31 13 41 57q3 14 3 28q0 77 -109 77q-137 0 -176 -117h-61q25 86 93 130q64 41 156 41q159 0 159 -117q0 -20 -5 -44
l-60 -282q-3 -14 -3 -26q0 -22 20 -22q12 0 37 8l-10 -47q-30 -10 -49 -10q-61 0 -61 49q0 12 3 31q-95 -86 -211 -86q-60 0 -99 27q-46 31 -46 88q0 15 4 34q28 132 214 156zM301 702h34q-1 -69 75 -69q73 0 105 69h32q-34 -108 -151 -108q-96 0 -96 89q0 9 1 19zM440 725
h-31q21 27 55 51q47 33 85 33q16 0 46 -19.5t46 -19.5q28 0 69 43h33q-12 -16 -32 -33q-59 -50 -102 -51q-22 0 -51.5 19t-44.5 19q-29 0 -73 -42z" />
    <glyph glyph-name="glyph303" unicode="&#x1eb6;" horiz-adv-x="667" 
d="M85 0h-70l436 720h77l123 -720h-70l-35 226h-328zM475 662l-222 -378h282zM388 873h35q-1 -72 79 -72q78 0 111 72h34q-38 -113 -159 -113q-102 0 -102 92q0 10 2 21zM354 -112h-65l17 80l24 2l41 -2z" />
    <glyph glyph-name="glyph304" unicode="&#x1eb7;" 
d="M452 191l17 81q-56 -21 -161 -29q-70 -5 -115 -32q-57 -35 -57 -98q0 -37 30 -56q26 -17 65 -17q80 0 139 36q67 41 82 115zM289 291l85 11q62 8 75 14q31 13 41 57q3 14 3 28q0 77 -109 77q-137 0 -176 -117h-61q25 86 93 130q64 41 156 41q159 0 159 -117q0 -20 -5 -44
l-60 -282q-3 -14 -3 -26q0 -22 20 -22q12 0 37 8l-10 -47q-30 -10 -49 -10q-61 0 -61 49q0 12 3 31q-95 -86 -211 -86q-60 0 -99 27q-46 31 -46 88q0 15 4 34q28 132 214 156zM281 -132h-65l17 80l24 2l41 -2zM301 701h34q-1 -68 75 -68q73 0 105 68h32q-35 -107 -151 -107
q-96 0 -96 88q0 9 1 19z" />
    <glyph glyph-name="glyph305" unicode="&#x1eb8;" horiz-adv-x="611" 
d="M570 0h-489l153 720h479l-12 -58h-411l-56 -260h371l-12 -58h-371l-61 -286h421zM349 -132h-65l17 80l24 2l41 -2z" />
    <glyph glyph-name="glyph306" unicode="&#x1eb9;" 
d="M172 295h338q6 27 6 51q0 63 -34 97.5t-97 34.5q-76 0 -135 -56q-51 -48 -78 -127zM563 245h-402q-7 -32 -7 -60q0 -67 35.5 -106t102.5 -39q60 0 108.5 32t73.5 87h67q-90 -173 -261 -173q-190 0 -190 186q0 38 10 85q24 114 101 191q84 84 195 84q88 0 133.5 -49
t45.5 -138q0 -46 -12 -100zM304 -142h-65l17 80l24 2l41 -2z" />
    <glyph glyph-name="glyph307" unicode="&#x1eba;" horiz-adv-x="611" 
d="M570 0h-489l153 720h479l-12 -58h-411l-56 -260h371l-12 -58h-371l-61 -286h421zM467 835l42 30q26 18 26 44q0 42 -41 42q-26 0 -48.5 -22t-27.5 -48l-3 26q4 36 29.5 59t61.5 23q29 0 49.5 -17t20.5 -46q0 -28 -30 -59q-27 -23 -53 -46q-24 -29 -29 -51q0 8 -4 22
t-4 21q0 12 11 22z" />
    <glyph glyph-name="glyph308" unicode="&#x1ebb;" 
d="M172 295h338q6 27 6 51q0 63 -34 97.5t-97 34.5q-76 0 -135 -56q-51 -48 -78 -127zM563 245h-402q-7 -32 -7 -60q0 -67 35.5 -106t102.5 -39q60 0 108.5 32t73.5 87h67q-90 -173 -261 -173q-190 0 -190 186q0 38 10 85q24 114 101 191q84 84 195 84q88 0 133.5 -49
t45.5 -138q0 -46 -12 -100zM399 674l42 30q26 18 26 44q0 42 -41 42q-26 0 -48.5 -22t-27.5 -48l-3 26q4 36 29.5 59t61.5 23q29 0 49.5 -17t20.5 -46q0 -28 -30 -59q-27 -23 -53 -46q-24 -29 -29 -51q0 8 -4 22t-4 21q0 12 11 22z" />
    <glyph glyph-name="glyph309" unicode="&#x1ebc;" horiz-adv-x="611" 
d="M570 0h-489l153 720h479l-12 -58h-411l-56 -260h371l-12 -58h-371l-61 -286h421zM354 780h-33q21 27 58 53q50 35 90 35q17 0 48.5 -20.5t47.5 -20.5q30 0 73 45h35q-15 -18 -34 -34q-63 -53 -107 -54q-24 0 -54.5 20t-46.5 20q-31 0 -77 -44z" />
    <glyph glyph-name="glyph310" unicode="&#x1ebd;" 
d="M172 295h338q6 27 6 51q0 63 -34 97.5t-97 34.5q-76 0 -135 -56q-51 -48 -78 -127zM563 245h-402q-7 -32 -7 -60q0 -67 35.5 -106t102.5 -39q60 0 108.5 32t73.5 87h67q-90 -173 -261 -173q-190 0 -190 186q0 38 10 85q24 114 101 191q84 84 195 84q88 0 133.5 -49
t45.5 -138q0 -46 -12 -100zM298 618h-31q19 25 55 50q48 33 86 33q15 0 45 -19t46 -19q27 0 69 42h33q-13 -16 -32 -32q-60 -50 -102 -51q-22 0 -51.5 19t-44.5 19q-29 0 -73 -42z" />
    <glyph glyph-name="glyph311" unicode="&#x1ebe;" horiz-adv-x="611" 
d="M570 0h-489l153 720h479l-12 -58h-411l-56 -260h371l-12 -58h-371l-61 -286h421zM489 852l-94 -92h-58l129 125h61l74 -125h-58zM632 852h-31l126 139h87z" />
    <glyph glyph-name="glyph312" unicode="&#x1ebf;" 
d="M172 295h338q6 27 6 51q0 63 -34 97.5t-97 34.5q-76 0 -135 -56q-51 -48 -78 -127zM563 245h-402q-7 -32 -7 -60q0 -67 35.5 -106t102.5 -39q60 0 108.5 32t73.5 87h67q-90 -173 -261 -173q-190 0 -190 186q0 38 10 85q24 114 101 191q84 84 195 84q88 0 133.5 -49
t45.5 -138q0 -46 -12 -100zM414 657l-90 -87h-55l123 118h58l70 -118h-55zM549 657h-29l120 132h82z" />
    <glyph glyph-name="glyph313" unicode="&#x1ec0;" horiz-adv-x="611" 
d="M570 0h-489l153 720h479l-12 -58h-411l-56 -260h371l-12 -58h-371l-61 -286h421zM489 852l-94 -92h-58l129 125h61l74 -125h-58zM371 852h-31l-182 139h87z" />
    <glyph glyph-name="glyph314" unicode="&#x1ec1;" 
d="M172 295h338q6 27 6 51q0 63 -34 97.5t-97 34.5q-76 0 -135 -56q-51 -48 -78 -127zM563 245h-402q-7 -32 -7 -60q0 -67 35.5 -106t102.5 -39q60 0 108.5 32t73.5 87h67q-90 -173 -261 -173q-190 0 -190 186q0 38 10 85q24 114 101 191q84 84 195 84q88 0 133.5 -49
t45.5 -138q0 -46 -12 -100zM414 657l-90 -87h-55l123 118h58l70 -118h-55zM302 657h-30l-173 132h83z" />
    <glyph glyph-name="glyph315" unicode="&#x1ec2;" horiz-adv-x="611" 
d="M570 0h-489l153 720h479l-12 -58h-411l-56 -260h371l-12 -58h-371l-61 -286h421zM489 852l-94 -92h-58l129 125h61l74 -125h-58zM614 907l42 30q26 18 26 44q0 42 -41 42q-26 0 -48.5 -22t-27.5 -48l-3 26q4 36 29.5 59t61.5 23q29 0 49.5 -17t20.5 -46q0 -28 -30 -59
q-27 -23 -53 -46q-24 -29 -29 -51q0 8 -4 22t-4 21q0 12 11 22z" />
    <glyph glyph-name="glyph316" unicode="&#x1ec3;" 
d="M172 295h338q6 27 6 51q0 63 -34 97.5t-97 34.5q-76 0 -135 -56q-51 -48 -78 -127zM563 245h-402q-7 -32 -7 -60q0 -67 35.5 -106t102.5 -39q60 0 108.5 32t73.5 87h67q-90 -173 -261 -173q-190 0 -190 186q0 38 10 85q24 114 101 191q84 84 195 84q88 0 133.5 -49
t45.5 -138q0 -46 -12 -100zM414 658l-89 -88h-55l123 119h58l70 -119h-55zM540 715l42 30q26 18 26 44q0 42 -41 42q-26 0 -48.5 -22t-27.5 -48l-3 26q4 36 29.5 59t61.5 23q29 0 49.5 -17t20.5 -46q0 -28 -30 -59q-27 -23 -53 -46q-24 -29 -29 -51q0 8 -4 22t-4 21
q0 12 11 22z" />
    <glyph glyph-name="glyph317" unicode="&#x1ec4;" horiz-adv-x="611" 
d="M570 0h-489l153 720h479l-12 -58h-411l-56 -260h371l-12 -58h-371l-61 -286h421zM489 852l-94 -92h-58l129 125h61l74 -125h-58zM339 921h-33q21 27 58 53q50 35 90 35q17 0 48.5 -20.5t47.5 -20.5q30 0 73 45h35q-15 -18 -34 -34q-63 -53 -107 -54q-24 0 -54.5 20
t-46.5 20q-31 0 -77 -44z" />
    <glyph glyph-name="glyph318" unicode="&#x1ec5;" 
d="M172 295h338q6 27 6 51q0 63 -34 97.5t-97 34.5q-76 0 -135 -56q-51 -48 -78 -127zM563 245h-402q-7 -32 -7 -60q0 -67 35.5 -106t102.5 -39q60 0 108.5 32t73.5 87h67q-90 -173 -261 -173q-190 0 -190 186q0 38 10 85q24 114 101 191q84 84 195 84q88 0 133.5 -49
t45.5 -138q0 -46 -12 -100zM414 658l-90 -88h-55l123 119h58l70 -119h-55zM271 723h-31q19 25 55 50q48 33 86 33q15 0 45 -19t46 -19q27 0 69 42h33q-13 -16 -32 -32q-60 -50 -102 -51q-22 0 -51.5 19t-44.5 19q-29 0 -73 -42z" />
    <glyph glyph-name="glyph319" unicode="&#x1ec6;" horiz-adv-x="611" 
d="M570 0h-489l153 720h479l-12 -58h-411l-56 -260h371l-12 -58h-371l-61 -286h421zM489 852l-94 -92h-58l129 125h61l74 -125h-58zM349 -132h-65l17 80l24 2l41 -2z" />
    <glyph glyph-name="glyph320" unicode="&#x1ec7;" 
d="M172 295h338q6 27 6 51q0 63 -34 97.5t-97 34.5q-76 0 -135 -56q-51 -48 -78 -127zM563 245h-402q-7 -32 -7 -60q0 -67 35.5 -106t102.5 -39q60 0 108.5 32t73.5 87h67q-90 -173 -261 -173q-190 0 -190 186q0 38 10 85q24 114 101 191q84 84 195 84q88 0 133.5 -49
t45.5 -138q0 -46 -12 -100zM414 657l-90 -87h-55l123 118h58l70 -118h-55zM304 -142h-65l17 80l24 2l41 -2z" />
    <glyph glyph-name="glyph321" unicode="&#x1ec8;" horiz-adv-x="278" 
d="M173 0h-68l153 720h68zM295 836l42 30q26 18 26 44q0 42 -41 42q-26 0 -48.5 -22t-27.5 -48l-3 26q4 36 29.5 59t61.5 23q29 0 49.5 -17t20.5 -46q0 -28 -30 -59q-27 -23 -53 -46q-24 -29 -29 -51q0 8 -4 22t-4 21q0 12 11 22z" />
    <glyph glyph-name="glyph322" unicode="&#x1ec9;" horiz-adv-x="222" 
d="M141 0h-60l110 518h60zM224 649l42 30q26 18 26 44q0 42 -41 42q-26 0 -48.5 -22t-27.5 -48l-3 26q4 36 29.5 59t61.5 23q29 0 49.5 -17t20.5 -46q0 -28 -30 -59q-27 -23 -53 -46q-24 -29 -29 -51q0 8 -4 22t-4 21q0 12 11 22z" />
    <glyph glyph-name="glyph323" unicode="&#x1eca;" horiz-adv-x="278" 
d="M173 0h-68l153 720h68zM145 -132h-65l17 80l24 2l41 -2z" />
    <glyph glyph-name="glyph324" unicode="&#x1ecb;" horiz-adv-x="222" 
d="M141 0h-60l110 518h60zM118 -131h-65l17 80l24 2l41 -2zM269 594h-65l17 80l24 2l41 -2z" />
    <glyph glyph-name="glyph325" unicode="&#x1ecc;" horiz-adv-x="778" 
d="M129 359q35 163 139 267q114 113 274 113q128 0 199 -71.5t71 -199.5q0 -53 -12 -109q-35 -164 -140 -267q-114 -111 -276 -111q-128 0 -197.5 71.5t-69.5 199.5q0 51 12 107zM397 39q132 0 224 97q82 86 111 223q12 56 12 102q0 103 -55 161.5t-157 58.5
q-131 0 -224 -98q-82 -88 -111 -224q-11 -52 -11 -99q0 -105 53.5 -163t157.5 -58zM406 -152h-65l17 80l24 2l41 -2z" />
    <glyph glyph-name="glyph326" unicode="&#x1ecd;" 
d="M275 -14q-90 1 -140.5 52t-50.5 141q0 37 9 80q25 118 100 192q82 81 198 81q92 0 141.5 -50t49.5 -142q0 -38 -9 -81q-25 -117 -101 -192q-83 -82 -197 -81zM518 335q0 143 -138 143q-89 0 -150 -67q-53 -58 -73 -152q-8 -37 -8 -71q0 -148 138 -148q105 0 172 98
q59 87 59 197zM299 -142h-65l17 80l24 2l41 -2z" />
    <glyph glyph-name="glyph327" unicode="&#x1ece;" horiz-adv-x="778" 
d="M129 359q35 163 139 267q114 113 274 113q128 0 199 -71.5t71 -199.5q0 -53 -12 -109q-35 -164 -140 -267q-114 -111 -276 -111q-128 0 -197.5 71.5t-69.5 199.5q0 51 12 107zM397 39q132 0 224 97q82 86 111 223q12 56 12 102q0 103 -55 161.5t-157 58.5
q-131 0 -224 -98q-82 -88 -111 -224q-11 -52 -11 -99q0 -105 53.5 -163t157.5 -58zM545 856l42 30q26 18 26 44q0 42 -41 42q-26 0 -48.5 -22t-27.5 -48l-3 26q4 36 29.5 59t61.5 23q29 0 49.5 -17t20.5 -46q0 -28 -30 -59q-27 -23 -53 -46q-24 -29 -29 -51q0 8 -4 22t-4 21
q0 12 11 22z" />
    <glyph glyph-name="glyph328" unicode="&#x1ecf;" 
d="M275 -14q-90 1 -140.5 52t-50.5 141q0 37 9 80q25 118 100 192q82 81 198 81q92 0 141.5 -50t49.5 -142q0 -38 -9 -81q-25 -117 -101 -192q-83 -82 -197 -81zM518 335q0 143 -138 143q-89 0 -150 -67q-53 -58 -73 -152q-8 -37 -8 -71q0 -148 138 -148q105 0 172 98
q59 87 59 197zM399 674l42 30q26 18 26 44q0 42 -41 42q-26 0 -48.5 -22t-27.5 -48l-3 26q4 36 29.5 59t61.5 23q29 0 49.5 -17t20.5 -46q0 -28 -30 -59q-27 -23 -53 -46q-24 -29 -29 -51q0 8 -4 22t-4 21q0 12 11 22z" />
    <glyph glyph-name="glyph329" unicode="&#x1ed0;" horiz-adv-x="778" 
d="M129 359q35 163 139 267q114 113 274 113q128 0 199 -71.5t71 -199.5q0 -53 -12 -109q-35 -164 -140 -267q-114 -111 -276 -111q-128 0 -197.5 71.5t-69.5 199.5q0 51 12 107zM397 39q132 0 224 97q82 86 111 223q12 56 12 102q0 103 -55 161.5t-157 58.5
q-131 0 -224 -98q-82 -88 -111 -224q-11 -52 -11 -99q0 -105 53.5 -163t157.5 -58zM562 852l-94 -92h-58l129 125h61l74 -125h-58zM705 852h-31l126 139h87z" />
    <glyph glyph-name="glyph330" unicode="&#x1ed1;" 
d="M275 -14q-90 1 -140.5 52t-50.5 141q0 37 9 80q25 118 100 192q82 81 198 81q92 0 141.5 -50t49.5 -142q0 -38 -9 -81q-25 -117 -101 -192q-83 -82 -197 -81zM518 335q0 143 -138 143q-89 0 -150 -67q-53 -58 -73 -152q-8 -37 -8 -71q0 -148 138 -148q105 0 172 98
q59 87 59 197zM414 657l-90 -87h-55l123 118h58l70 -118h-55zM549 657h-29l120 132h82z" />
    <glyph glyph-name="glyph331" unicode="&#x1ed2;" horiz-adv-x="778" 
d="M129 359q35 163 139 267q114 113 274 113q128 0 199 -71.5t71 -199.5q0 -53 -12 -109q-35 -164 -140 -267q-114 -111 -276 -111q-128 0 -197.5 71.5t-69.5 199.5q0 51 12 107zM397 39q132 0 224 97q82 86 111 223q12 56 12 102q0 103 -55 161.5t-157 58.5
q-131 0 -224 -98q-82 -88 -111 -224q-11 -52 -11 -99q0 -105 53.5 -163t157.5 -58zM562 852l-94 -92h-58l129 125h61l74 -125h-58zM444 852h-31l-182 139h87z" />
    <glyph glyph-name="glyph332" unicode="&#x1ed3;" 
d="M275 -14q-90 1 -140.5 52t-50.5 141q0 37 9 80q25 118 100 192q82 81 198 81q92 0 141.5 -50t49.5 -142q0 -38 -9 -81q-25 -117 -101 -192q-83 -82 -197 -81zM518 335q0 143 -138 143q-89 0 -150 -67q-53 -58 -73 -152q-8 -37 -8 -71q0 -148 138 -148q105 0 172 98
q59 87 59 197zM414 657l-90 -87h-55l123 118h58l70 -118h-55zM302 657h-30l-173 132h83z" />
    <glyph glyph-name="glyph333" unicode="&#x1ed4;" horiz-adv-x="778" 
d="M129 359q35 163 139 267q114 113 274 113q128 0 199 -71.5t71 -199.5q0 -53 -12 -109q-35 -164 -140 -267q-114 -111 -276 -111q-128 0 -197.5 71.5t-69.5 199.5q0 51 12 107zM397 39q132 0 224 97q82 86 111 223q12 56 12 102q0 103 -55 161.5t-157 58.5
q-131 0 -224 -98q-82 -88 -111 -224q-11 -52 -11 -99q0 -105 53.5 -163t157.5 -58zM562 852l-94 -92h-58l129 125h61l74 -125h-58zM687 907l42 30q26 18 26 44q0 42 -41 42q-26 0 -48.5 -22t-27.5 -48l-3 26q4 36 29.5 59t61.5 23q29 0 49.5 -17t20.5 -46q0 -28 -30 -59
q-27 -23 -53 -46q-24 -29 -29 -51q0 8 -4 22t-4 21q0 12 11 22z" />
    <glyph glyph-name="glyph334" unicode="&#x1ed5;" 
d="M275 -14q-90 1 -140.5 52t-50.5 141q0 37 9 80q25 118 100 192q82 81 198 81q92 0 141.5 -50t49.5 -142q0 -38 -9 -81q-25 -117 -101 -192q-83 -82 -197 -81zM518 335q0 143 -138 143q-89 0 -150 -67q-53 -58 -73 -152q-8 -37 -8 -71q0 -148 138 -148q105 0 172 98
q59 87 59 197zM414 658l-89 -88h-55l123 119h58l70 -119h-55zM540 715l42 30q26 18 26 44q0 42 -41 42q-26 0 -48.5 -22t-27.5 -48l-3 26q4 36 29.5 59t61.5 23q29 0 49.5 -17t20.5 -46q0 -28 -30 -59q-27 -23 -53 -46q-24 -29 -29 -51q0 8 -4 22t-4 21q0 12 11 22z" />
    <glyph glyph-name="glyph335" unicode="&#x1ed6;" horiz-adv-x="778" 
d="M129 359q35 163 139 267q114 113 274 113q128 0 199 -71.5t71 -199.5q0 -53 -12 -109q-35 -164 -140 -267q-114 -111 -276 -111q-128 0 -197.5 71.5t-69.5 199.5q0 51 12 107zM397 39q132 0 224 97q82 86 111 223q12 56 12 102q0 103 -55 161.5t-157 58.5
q-131 0 -224 -98q-82 -88 -111 -224q-11 -52 -11 -99q0 -105 53.5 -163t157.5 -58zM562 852l-94 -92h-58l129 125h61l74 -125h-58zM412 921h-33q21 27 58 53q50 35 90 35q17 0 48.5 -20.5t47.5 -20.5q30 0 73 45h35q-15 -18 -34 -34q-63 -53 -107 -54q-24 0 -54.5 20
t-46.5 20q-31 0 -77 -44z" />
    <glyph glyph-name="glyph336" unicode="&#x1ed7;" 
d="M275 -14q-90 1 -140.5 52t-50.5 141q0 37 9 80q25 118 100 192q82 81 198 81q92 0 141.5 -50t49.5 -142q0 -38 -9 -81q-25 -117 -101 -192q-83 -82 -197 -81zM518 335q0 143 -138 143q-89 0 -150 -67q-53 -58 -73 -152q-8 -37 -8 -71q0 -148 138 -148q105 0 172 98
q59 87 59 197zM414 658l-90 -88h-55l123 119h58l70 -119h-55zM271 723h-31q19 25 55 50q48 33 86 33q15 0 45 -19t46 -19q27 0 69 42h33q-13 -16 -32 -32q-60 -50 -102 -51q-22 0 -51.5 19t-44.5 19q-29 0 -73 -42z" />
    <glyph glyph-name="glyph337" unicode="&#x1ed8;" horiz-adv-x="778" 
d="M129 359q35 163 139 267q114 113 274 113q128 0 199 -71.5t71 -199.5q0 -53 -12 -109q-35 -164 -140 -267q-114 -111 -276 -111q-128 0 -197.5 71.5t-69.5 199.5q0 51 12 107zM397 39q132 0 224 97q82 86 111 223q12 56 12 102q0 103 -55 161.5t-157 58.5
q-131 0 -224 -98q-82 -88 -111 -224q-11 -52 -11 -99q0 -105 53.5 -163t157.5 -58zM562 852l-94 -92h-58l129 125h61l74 -125h-58zM406 -152h-65l17 80l24 2l41 -2z" />
    <glyph glyph-name="glyph338" unicode="&#x1ed9;" 
d="M275 -14q-90 1 -140.5 52t-50.5 141q0 37 9 80q25 118 100 192q82 81 198 81q92 0 141.5 -50t49.5 -142q0 -38 -9 -81q-25 -117 -101 -192q-83 -82 -197 -81zM518 335q0 143 -138 143q-89 0 -150 -67q-53 -58 -73 -152q-8 -37 -8 -71q0 -148 138 -148q105 0 172 98
q59 87 59 197zM414 657l-90 -87h-55l123 118h58l70 -118h-55zM299 -142h-65l17 80l24 2l41 -2z" />
    <glyph glyph-name="glyph339" unicode="&#x1eda;" horiz-adv-x="778" 
d="M397 39q132 0 224 97q82 86 111 223q12 56 12 102q0 103 -55 161.5t-157 58.5q-131 0 -224 -98q-82 -88 -111 -224q-11 -52 -11 -99q0 -105 53.5 -163t157.5 -58zM743 666q69 -70 69 -197q0 -54 -12 -110q-35 -164 -140 -267q-115 -111 -276 -111q-128 0 -197.5 71.5
t-69.5 199.5q0 51 12 107q35 163 139 267q114 113 274 113q115 0 183 -57q62 12 62 49q0 21 -25 30q-9 3 -34 1q7 10 34.5 15.5t41.5 1.5q34 -13 34 -42q0 -14 -9 -29q-22 -36 -86 -42zM557 800h-31l126 139h87z" />
    <glyph glyph-name="glyph340" unicode="&#x1edb;" 
d="M518 335q0 143 -138 143q-89 0 -150 -67q-53 -58 -73 -152q-8 -37 -8 -71q0 -148 138 -148q105 0 172 98q59 87 59 197zM540 473l35 32q16 12 16 27q0 19 -24 27q6 8 20.5 14t22.5 3q31 -10 31 -39q0 -44 -72 -60l-27 -6q40 -50 40 -132q0 -38 -9 -80q-25 -117 -101 -192
q-83 -82 -197 -81q-90 1 -140.5 52t-50.5 141q0 37 9 80q25 118 100 192q82 81 198 81q100 0 149 -59zM410 618h-29l120 132h82z" />
    <glyph glyph-name="glyph341" unicode="&#x1edc;" horiz-adv-x="778" 
d="M397 39q132 0 224 97q82 86 111 223q12 56 12 102q0 103 -55 161.5t-157 58.5q-131 0 -224 -98q-82 -88 -111 -224q-11 -52 -11 -99q0 -105 53.5 -163t157.5 -58zM743 666q69 -70 69 -197q0 -54 -12 -110q-35 -164 -140 -267q-115 -111 -276 -111q-128 0 -197.5 71.5
t-69.5 199.5q0 51 12 107q35 163 139 267q114 113 274 113q115 0 183 -57q62 12 62 49q0 21 -25 30q-9 3 -34 1q7 10 34.5 15.5t41.5 1.5q34 -13 34 -42q0 -14 -9 -29q-22 -36 -86 -42zM558 800h-31l-182 139h87z" />
    <glyph glyph-name="glyph342" unicode="&#x1edd;" 
d="M518 335q0 143 -138 143q-89 0 -150 -67q-53 -58 -73 -152q-8 -37 -8 -71q0 -148 138 -148q105 0 172 98q59 87 59 197zM540 473l35 32q16 12 16 27q0 19 -24 27q6 8 20.5 14t22.5 3q31 -10 31 -39q0 -44 -72 -60l-27 -6q40 -50 40 -132q0 -38 -9 -80q-25 -117 -101 -192
q-83 -82 -197 -81q-90 1 -140.5 52t-50.5 141q0 37 9 80q25 118 100 192q82 81 198 81q100 0 149 -59zM412 618h-30l-173 132h83z" />
    <glyph glyph-name="glyph343" unicode="&#x1ede;" horiz-adv-x="778" 
d="M397 39q132 0 224 97q82 86 111 223q12 56 12 102q0 103 -55 161.5t-157 58.5q-131 0 -224 -98q-82 -88 -111 -224q-11 -52 -11 -99q0 -105 53.5 -163t157.5 -58zM743 666q69 -70 69 -197q0 -54 -12 -110q-35 -164 -140 -267q-115 -111 -276 -111q-128 0 -197.5 71.5
t-69.5 199.5q0 51 12 107q35 163 139 267q114 113 274 113q115 0 183 -57q62 12 62 49q0 21 -25 30q-9 3 -34 1q7 10 34.5 15.5t41.5 1.5q34 -13 34 -42q0 -14 -9 -29q-22 -36 -86 -42zM545 856l42 30q26 18 26 44q0 42 -41 42q-26 0 -48.5 -22t-27.5 -48l-3 26
q4 36 29.5 59t61.5 23q29 0 49.5 -17t20.5 -46q0 -28 -30 -59q-27 -23 -53 -46q-24 -29 -29 -51q0 8 -4 22t-4 21q0 12 11 22z" />
    <glyph glyph-name="glyph344" unicode="&#x1edf;" 
d="M518 335q0 143 -138 143q-89 0 -150 -67q-53 -58 -73 -152q-8 -37 -8 -71q0 -148 138 -148q105 0 172 98q59 87 59 197zM540 473l35 32q16 12 16 27q0 19 -24 27q6 8 20.5 14t22.5 3q31 -10 31 -39q0 -44 -72 -60l-27 -6q40 -50 40 -132q0 -38 -9 -80q-25 -117 -101 -192
q-83 -82 -197 -81q-90 1 -140.5 52t-50.5 141q0 37 9 80q25 118 100 192q82 81 198 81q100 0 149 -59zM399 674l42 30q26 18 26 44q0 42 -41 42q-26 0 -48.5 -22t-27.5 -48l-3 26q4 36 29.5 59t61.5 23q29 0 49.5 -17t20.5 -46q0 -28 -30 -59q-27 -23 -53 -46
q-24 -29 -29 -51q0 8 -4 22t-4 21q0 12 11 22z" />
    <glyph glyph-name="glyph345" unicode="&#x1ee0;" horiz-adv-x="778" 
d="M397 39q132 0 224 97q82 86 111 223q12 56 12 102q0 103 -55 161.5t-157 58.5q-131 0 -224 -98q-82 -88 -111 -224q-11 -52 -11 -99q0 -105 53.5 -163t157.5 -58zM743 666q69 -70 69 -197q0 -54 -12 -110q-35 -164 -140 -267q-115 -111 -276 -111q-128 0 -197.5 71.5
t-69.5 199.5q0 51 12 107q35 163 139 267q114 113 274 113q115 0 183 -57q62 12 62 49q0 21 -25 30q-9 3 -34 1q7 10 34.5 15.5t41.5 1.5q34 -13 34 -42q0 -14 -9 -29q-22 -36 -86 -42zM419 800h-33q21 27 58 53q50 35 90 35q17 0 48.5 -20.5t47.5 -20.5q30 0 73 45h35
q-15 -18 -34 -34q-63 -53 -107 -54q-24 0 -54.5 20t-46.5 20q-31 0 -77 -44z" />
    <glyph glyph-name="glyph346" unicode="&#x1ee1;" 
d="M518 335q0 143 -138 143q-89 0 -150 -67q-53 -58 -73 -152q-8 -37 -8 -71q0 -148 138 -148q105 0 172 98q59 87 59 197zM540 473l35 32q16 12 16 27q0 19 -24 27q6 8 20.5 14t22.5 3q31 -10 31 -39q0 -44 -72 -60l-27 -6q40 -50 40 -132q0 -38 -9 -80q-25 -117 -101 -192
q-83 -82 -197 -81q-90 1 -140.5 52t-50.5 141q0 37 9 80q25 118 100 192q82 81 198 81q100 0 149 -59zM298 618h-31q19 25 55 50q48 33 86 33q15 0 45 -19t46 -19q27 0 69 42h33q-13 -16 -32 -32q-60 -50 -102 -51q-22 0 -51.5 19t-44.5 19q-29 0 -73 -42z" />
    <glyph glyph-name="glyph347" unicode="&#x1ee2;" horiz-adv-x="778" 
d="M397 39q132 0 224 97q82 86 111 223q12 56 12 102q0 103 -55 161.5t-157 58.5q-131 0 -224 -98q-82 -88 -111 -224q-11 -52 -11 -99q0 -105 53.5 -163t157.5 -58zM743 666q69 -70 69 -197q0 -54 -12 -110q-35 -164 -140 -267q-115 -111 -276 -111q-128 0 -197.5 71.5
t-69.5 199.5q0 51 12 107q35 163 139 267q114 113 274 113q115 0 183 -57q62 12 62 49q0 21 -25 30q-9 3 -34 1q7 10 34.5 15.5t41.5 1.5q34 -13 34 -42q0 -14 -9 -29q-22 -36 -86 -42zM406 -152h-65l17 80l24 2l41 -2z" />
    <glyph glyph-name="glyph348" unicode="&#x1ee3;" 
d="M518 335q0 143 -138 143q-89 0 -150 -67q-53 -58 -73 -152q-8 -37 -8 -71q0 -148 138 -148q105 0 172 98q59 87 59 197zM540 473l35 32q16 12 16 27q0 19 -24 27q6 8 20.5 14t22.5 3q31 -10 31 -39q0 -44 -72 -60l-27 -6q40 -50 40 -132q0 -38 -9 -80q-25 -117 -101 -192
q-83 -82 -197 -81q-90 1 -140.5 52t-50.5 141q0 37 9 80q25 118 100 192q82 81 198 81q100 0 149 -59zM299 -142h-65l17 80l24 2l41 -2z" />
    <glyph glyph-name="glyph349" unicode="&#x1ee4;" horiz-adv-x="722" 
d="M140 271l95 449h68l-91 -429q-12 -57 -12 -102q0 -150 169 -150q119 0 183 69q56 59 82 183l91 429h68l-95 -449q-61 -290 -341 -290q-228 0 -228 198q0 40 11 92zM380 -152h-65l17 80l24 2l41 -2z" />
    <glyph glyph-name="glyph350" unicode="&#x1ee5;" 
d="M473 236l60 282h60l-110 -518h-60l15 72q-93 -86 -185 -86q-150 0 -150 129q0 29 7 62l72 341h60l-72 -340q-5 -24 -5 -47q0 -91 109 -91q79 0 133 61q48 53 66 135zM301 -142h-65l17 80l24 2l41 -2z" />
    <glyph glyph-name="glyph351" unicode="&#x1ee6;" horiz-adv-x="722" 
d="M140 271l95 449h68l-91 -429q-12 -57 -12 -102q0 -150 169 -150q119 0 183 69q56 59 82 183l91 429h68l-95 -449q-61 -290 -341 -290q-228 0 -228 198q0 40 11 92zM515 805l42 30q26 18 26 44q0 42 -41 42q-26 0 -48.5 -22t-27.5 -48l-3 26q4 36 29.5 59t61.5 23
q29 0 49.5 -17t20.5 -46q0 -28 -30 -59q-27 -23 -53 -46q-24 -29 -29 -51q0 8 -4 22t-4 21q0 12 11 22z" />
    <glyph glyph-name="glyph352" unicode="&#x1ee7;" 
d="M473 236l60 282h60l-110 -518h-60l15 72q-93 -86 -185 -86q-150 0 -150 129q0 29 7 62l72 341h60l-72 -340q-5 -24 -5 -47q0 -91 109 -91q79 0 133 61q48 53 66 135zM389 635l42 30q26 18 26 44q0 42 -41 42q-26 0 -48.5 -22t-27.5 -48l-3 26q4 36 29.5 59t61.5 23
q29 0 49.5 -17t20.5 -46q0 -28 -30 -59q-27 -23 -53 -46q-24 -29 -29 -51q0 8 -4 22t-4 21q0 12 11 22z" />
    <glyph glyph-name="glyph353" unicode="&#x1ee8;" horiz-adv-x="722" 
d="M782 669l-84 -398q-61 -290 -341 -290q-228 0 -228 198q0 40 11 92l95 449h68l-91 -429q-12 -57 -12 -102q0 -150 169 -150q119 0 183 69q56 59 82 183l91 429l51 -7l12 -12q19 15 19 29q0 21 -27 31q-8 3 -34 1q7 10 34.5 15.5t41.5 1.5q34 -13 34 -42q0 -51 -74 -68z
M527 750h-31l126 139h87z" />
    <glyph glyph-name="glyph354" unicode="&#x1ee9;" 
d="M584 475l-101 -475h-60l15 72q-93 -86 -185 -86q-150 0 -150 129q0 29 7 62l72 341h60l-72 -340q-5 -24 -5 -47q0 -91 109 -91q79 0 133 61q48 53 66 135l60 282l38 -9l17 -13l10 9q16 12 16 27q0 19 -24 27q6 7 20.5 13t22.5 3q29 -10 29 -37q0 -43 -70 -61zM400 584
h-29l120 132h82z" />
    <glyph glyph-name="glyph355" unicode="&#x1eea;" horiz-adv-x="722" 
d="M782 669l-84 -398q-61 -290 -341 -290q-228 0 -228 198q0 40 11 92l95 449h68l-91 -429q-12 -57 -12 -102q0 -150 169 -150q119 0 183 69q56 59 82 183l91 429l51 -7l12 -12q19 15 19 29q0 21 -27 31q-8 3 -34 1q7 10 34.5 15.5t41.5 1.5q34 -13 34 -42q0 -51 -74 -68z
M528 750h-31l-182 139h87z" />
    <glyph glyph-name="glyph356" unicode="&#x1eeb;" 
d="M584 475l-101 -475h-60l15 72q-93 -86 -185 -86q-150 0 -150 129q0 29 7 62l72 341h60l-72 -340q-5 -24 -5 -47q0 -91 109 -91q79 0 133 61q48 53 66 135l60 282l38 -9l17 -13l10 9q16 12 16 27q0 19 -24 27q6 7 20.5 13t22.5 3q29 -10 29 -37q0 -43 -70 -61zM402 584
h-30l-173 132h83z" />
    <glyph glyph-name="glyph357" unicode="&#x1eec;" horiz-adv-x="722" 
d="M782 669l-84 -398q-61 -290 -341 -290q-228 0 -228 198q0 40 11 92l95 449h68l-91 -429q-12 -57 -12 -102q0 -150 169 -150q119 0 183 69q56 59 82 183l91 429l51 -7l12 -12q19 15 19 29q0 21 -27 31q-8 3 -34 1q7 10 34.5 15.5t41.5 1.5q34 -13 34 -42q0 -51 -74 -68z
M515 805l42 30q26 18 26 44q0 42 -41 42q-26 0 -48.5 -22t-27.5 -48l-3 26q4 36 29.5 59t61.5 23q29 0 49.5 -17t20.5 -46q0 -28 -30 -59q-27 -23 -53 -46q-24 -29 -29 -51q0 8 -4 22t-4 21q0 12 11 22z" />
    <glyph glyph-name="glyph358" unicode="&#x1eed;" 
d="M584 475l-101 -475h-60l15 72q-93 -86 -185 -86q-150 0 -150 129q0 29 7 62l72 341h60l-72 -340q-5 -24 -5 -47q0 -91 109 -91q79 0 133 61q48 53 66 135l60 282l38 -9l17 -13l10 9q16 12 16 27q0 19 -24 27q6 7 20.5 13t22.5 3q29 -10 29 -37q0 -43 -70 -61zM389 635
l42 30q26 18 26 44q0 42 -41 42q-26 0 -48.5 -22t-27.5 -48l-3 26q4 36 29.5 59t61.5 23q29 0 49.5 -17t20.5 -46q0 -28 -30 -59q-27 -23 -53 -46q-24 -29 -29 -51q0 8 -4 22t-4 21q0 12 11 22z" />
    <glyph glyph-name="glyph359" unicode="&#x1eee;" horiz-adv-x="722" 
d="M782 669l-84 -398q-61 -290 -341 -290q-228 0 -228 198q0 40 11 92l95 449h68l-91 -429q-12 -57 -12 -102q0 -150 169 -150q119 0 183 69q56 59 82 183l91 429l51 -7l12 -12q19 15 19 29q0 21 -27 31q-8 3 -34 1q7 10 34.5 15.5t41.5 1.5q34 -13 34 -42q0 -51 -74 -68z
M390 750h-33q21 27 58 53q50 35 90 35q17 0 48.5 -20.5t47.5 -20.5q30 0 73 45h35q-15 -18 -34 -34q-63 -53 -107 -54q-24 0 -54.5 20t-46.5 20q-31 0 -77 -44z" />
    <glyph glyph-name="glyph360" unicode="&#x1eef;" 
d="M584 475l-101 -475h-60l15 72q-93 -86 -185 -86q-150 0 -150 129q0 29 7 62l72 341h60l-72 -340q-5 -24 -5 -47q0 -91 109 -91q79 0 133 61q48 53 66 135l60 282l38 -9l17 -13l10 9q16 12 16 27q0 19 -24 27q6 7 20.5 13t22.5 3q29 -10 29 -37q0 -43 -70 -61zM277 593
h-31q19 25 55 50q48 33 86 33q15 0 45 -19t46 -19q27 0 69 42h33q-13 -16 -32 -32q-60 -50 -102 -51q-22 0 -51.5 19t-44.5 19q-29 0 -73 -42z" />
    <glyph glyph-name="glyph361" unicode="&#x1ef0;" horiz-adv-x="722" 
d="M782 669l-84 -398q-61 -290 -341 -290q-228 0 -228 198q0 40 11 92l95 449h68l-91 -429q-12 -57 -12 -102q0 -150 169 -150q119 0 183 69q56 59 82 183l91 429l51 -7l12 -12q19 15 19 29q0 21 -27 31q-8 3 -34 1q7 10 34.5 15.5t41.5 1.5q34 -13 34 -42q0 -51 -74 -68z
M380 -152h-65l17 80l24 2l41 -2z" />
    <glyph glyph-name="glyph362" unicode="&#x1ef1;" 
d="M584 475l-101 -475h-60l15 72q-93 -86 -185 -86q-150 0 -150 129q0 29 7 62l72 341h60l-72 -340q-5 -24 -5 -47q0 -91 109 -91q79 0 133 61q48 53 66 135l60 282l38 -9l17 -13l10 9q16 12 16 27q0 19 -24 27q6 7 20.5 13t22.5 3q29 -10 29 -37q0 -43 -70 -61zM301 -142
h-65l17 80l24 2l41 -2z" />
    <glyph glyph-name="glyph363" unicode="&#x1ef2;" horiz-adv-x="611" 
d="M243 720l138 -347l291 347h79l-347 -406l-67 -314h-68l66 309l-170 411h78zM472 740h-31l-182 139h87z" />
    <glyph glyph-name="glyph364" unicode="&#x1ef3;" horiz-adv-x="500" 
d="M26 -197l12 56q30 -6 49 -6q44 0 79 55q17 29 52 88l-90 522h67l72 -445l260 445h65l-302 -511q-68 -115 -102 -154q-50 -57 -106 -57q-30 0 -56 7zM378 570h-30l-173 132h83z" />
    <glyph glyph-name="glyph365" unicode="&#x1ef4;" horiz-adv-x="611" 
d="M243 720l138 -347l291 347h79l-347 -406l-67 -314h-68l66 309l-170 411h78zM308 -132h-65l17 80l24 2l41 -2z" />
    <glyph glyph-name="glyph366" unicode="&#x1ef5;" horiz-adv-x="500" 
d="M26 -197l12 56q30 -6 49 -6q44 0 79 55q17 29 52 88l-90 522h67l72 -445l260 445h65l-302 -511q-68 -115 -102 -154q-50 -57 -106 -57q-30 0 -56 7zM338 -142h-65l17 80l24 2l41 -2z" />
    <glyph glyph-name="glyph367" unicode="&#x1ef6;" horiz-adv-x="611" 
d="M243 720l138 -347l291 347h79l-347 -406l-67 -314h-68l66 309l-170 411h78zM459 795l42 30q26 18 26 44q0 42 -41 42q-26 0 -48.5 -22t-27.5 -48l-3 26q4 36 29.5 59t61.5 23q29 0 49.5 -17t20.5 -46q0 -28 -30 -59q-27 -23 -53 -46q-24 -29 -29 -51q0 8 -4 22t-4 21
q0 12 11 22z" />
    <glyph glyph-name="glyph368" unicode="&#x1ef7;" horiz-adv-x="500" 
d="M26 -197l12 56q30 -6 49 -6q44 0 79 55q17 29 52 88l-90 522h67l72 -445l260 445h65l-302 -511q-68 -115 -102 -154q-50 -57 -106 -57q-30 0 -56 7zM365 625l42 30q26 18 26 44q0 42 -41 42q-26 0 -48.5 -22t-27.5 -48l-3 26q4 36 29.5 59t61.5 23q29 0 49.5 -17
t20.5 -46q0 -28 -30 -59q-27 -23 -53 -46q-24 -29 -29 -51q0 8 -4 22t-4 21q0 12 11 22z" />
    <glyph glyph-name="glyph369" unicode="&#x1ef8;" horiz-adv-x="611" 
d="M243 720l138 -347l291 347h79l-347 -406l-67 -314h-68l66 309l-170 411h78zM316 740h-33q21 27 58 53q50 35 90 35q17 0 48.5 -20.5t47.5 -20.5q30 0 73 45h35q-15 -18 -34 -34q-63 -53 -107 -54q-24 0 -54.5 20t-46.5 20q-31 0 -77 -44z" />
    <glyph glyph-name="glyph370" unicode="&#x1ef9;" horiz-adv-x="500" 
d="M26 -197l12 56q30 -6 49 -6q44 0 79 55q17 29 52 88l-90 522h67l72 -445l260 445h65l-302 -511q-68 -115 -102 -154q-50 -57 -106 -57q-30 0 -56 7zM226 583h-31q19 25 55 50q48 33 86 33q15 0 45 -19t46 -19q27 0 69 42h33q-13 -16 -32 -32q-60 -50 -102 -51
q-22 0 -51.5 19t-44.5 19q-29 0 -73 -42z" />
    <glyph glyph-name="endash" unicode="&#x2013;" horiz-adv-x="500" 
d="M560 282l-9 -44h-500l9 44h500z" />
    <glyph glyph-name="emdash" unicode="&#x2014;" horiz-adv-x="1000" 
d="M1051 238h-1000l9 44h1000z" />
    <glyph glyph-name="quoteleft" unicode="&#x2018;" horiz-adv-x="222" 
d="M174 495l25 118q18 84 96 107l-8 -37q-38 -21 -48 -66l-7 -34h34l-19 -88h-73z" />
    <glyph glyph-name="quoteright" unicode="&#x2019;" horiz-adv-x="222" 
d="M306 720l-25 -118q-18 -84 -96 -107l8 37q39 21 48 66l7 34h-34l19 88h73z" />
    <glyph glyph-name="quotesinglbase" unicode="&#x201a;" horiz-adv-x="222" 
d="M172 88l-25 -118q-18 -84 -96 -107l8 37q38 21 48 66l7 34h-34l19 88h73z" />
    <glyph glyph-name="quotedblleft" unicode="&#x201c;" horiz-adv-x="389" 
d="M342 495l25 118q18 84 96 107l-8 -37q-38 -21 -48 -66l-7 -34h34l-19 -88h-73zM191 495l25 118q18 84 96 107l-8 -37q-38 -21 -48 -66l-7 -34h34l-19 -88h-73z" />
    <glyph glyph-name="quotedblright" unicode="&#x201d;" horiz-adv-x="389" 
d="M456 720l-25 -118q-18 -84 -96 -107l8 37q39 21 48 66l7 34h-34l19 88h73zM305 720l-25 -118q-18 -84 -96 -107l8 37q39 21 48 66l7 34h-34l19 88h73z" />
    <glyph glyph-name="quotedblbase" unicode="&#x201e;" horiz-adv-x="389" 
d="M322 88l-25 -118q-18 -84 -96 -107l8 37q38 21 48 66l7 34h-34l19 88h73zM171 88l-25 -118q-18 -84 -96 -107l8 37q38 21 48 66l7 34h-34l19 88h73z" />
    <glyph glyph-name="dagger" unicode="&#x2020;" 
d="M213 -166l128 602h-211l11 54h211l49 230h60l-49 -230h211l-11 -54h-211l-128 -602h-60z" />
    <glyph glyph-name="daggerdbl" unicode="&#x2021;" 
d="M271 109l71 334h-211l12 54h211l47 223h60l-47 -223h211l-12 -54h-211l-71 -334h211l-11 -54h-211l-47 -221h-60l47 221h-211l11 54h211z" />
    <glyph glyph-name="bullet" unicode="&#x2022;" horiz-adv-x="500" 
d="M506 359q-15 -74 -79.5 -126.5t-139.5 -52.5q-63 0 -104 40.5t-41 101.5q0 18 4 37q16 75 80 128t138 53q64 0 105 -40.5t41 -102.5q0 -19 -4 -38z" />
    <glyph glyph-name="ellipsis" unicode="&#x2026;" horiz-adv-x="1000" 
d="M204 0h-73l19 88h73zM537 0h-73l19 88h73zM870 0h-73l19 88h73z" />
    <glyph glyph-name="perthousand" unicode="&#x2030;" horiz-adv-x="1000" 
d="M900 299q52 0 86 -34t34 -85q0 -70 -57 -125t-127 -55q-53 0 -87.5 33.5t-34.5 85.5q0 69 58 124.5t128 55.5zM848 57q41 0 77.5 34.5t36.5 75.5q0 31 -21.5 53t-53.5 22q-42 0 -78 -34t-36 -76q0 -32 21.5 -53.5t53.5 -21.5zM311 698q53 0 87.5 -34t34.5 -85
q0 -70 -57.5 -125t-127.5 -55q-53 0 -87 34t-34 85q0 70 57.5 125t126.5 55zM299 641q-42 0 -77.5 -34t-35.5 -76q0 -31 21 -53t53 -22q41 0 78 35t37 76q0 31 -22 52.5t-54 21.5zM136 -14h-53l560 719h53zM537 299q52 0 86.5 -34.5t34.5 -85.5q0 -70 -57.5 -124.5
t-127.5 -54.5q-53 0 -87 34t-34 85q0 69 57.5 124.5t127.5 55.5zM485 57q42 0 78.5 34t36.5 76q0 31 -21.5 53t-54.5 22q-41 0 -77 -34.5t-36 -75.5q0 -32 21.5 -53.5t52.5 -21.5z" />
    <glyph glyph-name="guilsinglleft" unicode="&#x2039;" horiz-adv-x="389" 
d="M169 228l14 63l170 113l-14 -63l-121 -82l87 -80l-13 -62z" />
    <glyph glyph-name="guilsinglright" unicode="&#x203a;" horiz-adv-x="389" 
d="M330 293l-13 -63l-170 -113l13 63l122 82l-87 80l13 62z" />
    <glyph glyph-name="fraction" unicode="&#x2044;" horiz-adv-x="167" 
d="M-116 -14h-51l597 719h51z" />
    <glyph glyph-name="franc" unicode="&#x20a3;" horiz-adv-x="1035" 
d="M142 0h-68l153 720h464l-12 -58h-396l-56 -260h360l-12 -58h-360zM841 254l-54 -254h-60l110 518h60l-21 -97h2q38 61 82.5 86t110.5 25l-14 -65q-170 4 -216 -213z" />
    <glyph glyph-name="u20AB" unicode="&#x20ab;" horiz-adv-x="393" 
d="M197 501q-48 0 -84 -88q-20 -49 -20 -90q0 -51 39 -51q41 0 74 71q28 60 28 107q0 51 -37 51zM200 267q-53 -62 -106 -62q-45 0 -68 28t-23 74q0 80 55 153q59 78 136 78q34 0 61 -24l20 75h-100l10 36h100l2 16q0 31 -48 32l7 33q67 2 128 14l15 3q6 0 6 -9l-3 -12
l-19 -77h65l-10 -36h-65l-69 -280q-5 -20 -5 -27q0 -15 12 -15q6 0 49 42l20 -18q-70 -86 -117 -86q-43 0 -53 62zM9 160h221v-56h-221v56z" />
    <glyph glyph-name="trademark" unicode="&#x2122;" horiz-adv-x="940" 
d="M1012 720l-89 -421h-52l80 377h-2l-225 -377h-34l-65 377h-2l-80 -377h-52l89 421h96l54 -311h2l184 311h96zM502 720l-8 -40h-134l-81 -381h-52l81 381h-134l8 40h320z" />
    <glyph glyph-name="minus" unicode="&#x2212;" horiz-adv-x="660" 
d="M127 220l13 60h500l-13 -60h-500z" />
    <glyph glyph-name="SF370000" unicode="&#x255f;" horiz-adv-x="718" 
d="M85 0h-70l436 720h77l123 -720h-70l-35 226h-328zM475 662l-222 -378h282z" />
    <glyph glyph-name="SF420000" unicode="&#x2560;" horiz-adv-x="681" 
d="M570 0h-489l153 720h479l-12 -58h-411l-56 -260h371l-12 -58h-371l-61 -286h421z" />
    <glyph glyph-name="SF190000" unicode="&#x2561;" horiz-adv-x="429" 
d="M173 0h-68l153 720h68z" />
    <glyph glyph-name="SF200000" unicode="&#x2562;" horiz-adv-x="773" 
d="M129 359q35 164 143 269q114 111 270 111q134 0 205 -77q65 -71 65 -194q0 -52 -12 -109q-34 -163 -141 -267q-115 -111 -275 -111q-132 0 -202 77q-64 72 -64 194q0 51 11 107zM397 39q133 0 225 97q81 86 110 223q12 54 12 101q0 105 -55.5 163t-156.5 58
q-131 0 -224 -98q-82 -88 -111 -224q-11 -52 -11 -99q0 -100 49 -157q55 -64 162 -64z" />
    <glyph glyph-name="SF230000" unicode="&#x2563;" horiz-adv-x="811" 
d="M140 271l95 449h68l-91 -429q-12 -58 -12 -101q0 -151 169 -151q114 0 177 62q60 60 88 190l91 429h68l-95 -449q-62 -290 -341 -290q-228 0 -228 198q0 42 11 92z" />
    <glyph glyph-name="SF470000" unicode="&#x2564;" horiz-adv-x="699" 
d="M243 720l138 -347l291 347h79l-347 -406l-67 -314h-68l66 309l-170 411h78z" />
    <glyph glyph-name="SF480000" unicode="&#x2565;" horiz-adv-x="541" 
d="M452 191l17 81q-56 -21 -161 -29q-149 -11 -170 -110q-2 -11 -2 -20q0 -35 27 -54t68 -19q78 0 137 36q68 41 84 115zM289 291l85 11q60 8 83.5 17.5t32.5 53.5q3 14 3 27q0 78 -109 78q-137 0 -176 -117h-61q25 87 95 131q64 40 154 40q159 0 159 -117q0 -20 -5 -44
l-60 -282q-4 -16 -4 -26q0 -22 21 -22q13 0 37 8l-10 -47q-32 -10 -49 -10q-61 0 -61 49q0 13 3 31q-95 -86 -211 -86q-63 0 -104 30t-41 85q0 16 4 34q28 132 214 156z" />
    <glyph glyph-name="SF410000" unicode="&#x2566;" horiz-adv-x="431" 
d="M172 295h338q5 27 5 51q0 60 -33 96t-97 36q-76 0 -134 -55q-53 -49 -79 -128zM563 245h-402q-7 -32 -7 -61q0 -65 34 -103q36 -41 104 -41q59 0 107.5 31.5t74.5 87.5h67q-90 -173 -261 -173q-190 0 -190 186q0 40 10 85q24 117 104 194q84 81 192 81q86 0 132.5 -48
t46.5 -139q0 -46 -12 -100z" />
    <glyph glyph-name="SF450000" unicode="&#x2567;" horiz-adv-x="314" 
d="M141 0h-60l110 518h60zM278 631h-66l19 89h66z" />
    <glyph glyph-name="SF460000" unicode="&#x2568;" horiz-adv-x="314" 
d="M138 0h-60l110 518h60z" />
    <glyph glyph-name="SF400000" unicode="&#x2569;" horiz-adv-x="498" 
d="M275 -14q-86 1 -137 49q-54 51 -54 144q0 37 9 80q25 119 101 193q82 80 197 80q95 0 145 -54q46 -50 46 -138q0 -38 -9 -81q-26 -123 -108 -198.5t-190 -74.5zM518 334q0 144 -138 144q-89 0 -150 -67q-53 -59 -73 -152q-8 -38 -8 -71q0 -69 35 -108.5t103 -39.5
q106 0 172 97q59 86 59 197z" />
    <glyph glyph-name="SF540000" unicode="&#x256a;" horiz-adv-x="557" 
d="M473 236l60 282h60l-110 -518h-60l15 72q-43 -40 -73 -56q-52 -30 -112 -30q-151 0 -151 129q0 28 8 62l72 341h60l-72 -340q-6 -26 -6 -47q0 -91 110 -91q72 0 126.5 54.5t72.5 141.5z" />
    <glyph glyph-name="SF530000" unicode="&#x256b;" horiz-adv-x="497" 
d="M26 -197l12 56q31 -6 49 -6q42 0 79 55l52 88l-90 522h67l72 -445l260 445h65l-302 -511q-68 -117 -102 -154q-50 -57 -106 -57q-29 0 -56 7z" />
    <glyph glyph-name="circle" unicode="&#x25cb;" horiz-adv-x="718" 
d="M543 908l-104 -102h-65l144 139h67l83 -139h-65zM484 994h-51l141 139h77z" />
    <glyph glyph-name="H18533" unicode="&#x25cf;" horiz-adv-x="718" 
d="M543 908l-104 -102h-65l144 139h67l83 -139h-65zM616 995l-108 139h78l81 -139h-51z" />
    <glyph glyph-name="invbullet" unicode="&#x25d8;" horiz-adv-x="718" 
d="M543 908l-104 -102h-65l144 139h67l83 -139h-65zM614 903q9 29 11 64q1 11 8 13q3 0 8 1q67 11 67 54q0 35 -28 35q-5 0 -14 -1t-14 -1q-21 0 -21 18q0 28 32 28q46 0 76 -25.5t26 -70.5q-6 -59 -87 -81q-25 -7 -31 -34h-33z" />
    <glyph glyph-name="invcircle" unicode="&#x25d9;" horiz-adv-x="718" 
d="M543 908l-104 -102h-65l144 139h67l83 -139h-65zM452 1006h-36q10 34 32 59q34 38 79 38q23 0 66 -22.5t65 -22.5q33 0 54 50h38q-2 -9 -16 -38q-39 -60 -87 -60q-28 0 -71 22.5t-65 22.5q-33 0 -59 -49z" />
    <glyph glyph-name="fi" unicode="&#xf001;" horiz-adv-x="500" 
d="M191 468h-79l11 50h79l18 82q28 134 138 134q29 0 49 -4l-12 -55q-18 5 -34 5q-42 0 -62 -31q-13 -20 -23 -67l-14 -64h98l-11 -50h-98l-99 -468h-60zM432 0h-60l110 518h60zM588 720l-19 -89h-66l19 89h66z" />
    <glyph glyph-name="fl" unicode="&#xf002;" horiz-adv-x="500" 
d="M191 468h-79l11 50h79l18 82q28 134 138 134q29 0 49 -4l-12 -55q-18 5 -34 5q-42 0 -62 -31q-13 -20 -23 -67l-14 -64h98l-11 -50h-98l-99 -468h-60zM432 0h-60l153 720h60z" />
    <glyph glyph-name="periodcentered" horiz-adv-x="278" 
d="M224 398q38 0 38 -38q0 -23 -18.5 -41t-40.5 -18q-40 0 -40 39q0 22 19.5 40t41.5 18z" />
    <glyph glyph-name="glyph231" horiz-adv-x="278" 
 />
    <glyph glyph-name="glyph232" horiz-adv-x="278" 
 />
    <glyph glyph-name="glyph275" horiz-adv-x="249" 
 />
    <glyph glyph-name="glyph276" horiz-adv-x="249" 
 />
    <glyph glyph-name="glyph261" horiz-adv-x="500" 
d="M253 522q9 29 11 64q1 11 8 13q3 0 8 1q67 11 67 54q0 35 -28 35q-5 0 -14 -1t-14 -1q-21 0 -21 18q0 28 32 28q46 0 76 -25.5t26 -70.5q-6 -59 -87 -81q-25 -7 -31 -34h-33z" />
    <glyph glyph-name="glyph262" horiz-adv-x="541" 
d="M340 676l-104 -102h-65l144 139h67l83 -139h-65zM280 763h-51l141 139h77z" />
    <glyph glyph-name="glyph263" horiz-adv-x="541" 
d="M340 676l-104 -102h-65l144 139h67l83 -139h-65zM413 763l-108 139h78l81 -139h-51z" />
    <glyph glyph-name="glyph264" horiz-adv-x="541" 
d="M340 676l-104 -102h-65l144 139h67l83 -139h-65zM411 671q9 29 11 64q1 11 8 13q3 0 8 1q67 11 67 54q0 35 -28 35q-5 0 -14 -1t-14 -1q-21 0 -21 18q0 28 32 28q46 0 76 -25.5t26 -70.5q-6 -59 -87 -81q-25 -7 -31 -34h-33z" />
    <glyph glyph-name="glyph265" horiz-adv-x="541" 
d="M340 676l-104 -102h-65l144 139h67l83 -139h-65zM249 774h-36q10 34 32 59q34 38 79 38q23 0 66 -22.5t65 -22.5q33 0 54 50h38q-2 -9 -16 -38q-39 -60 -87 -60q-28 0 -71 22.5t-65 22.5q-33 0 -59 -49z" />
    <glyph glyph-name="glyph266" horiz-adv-x="541" 
d="M208 705h39q-1 -81 88 -81q87 0 124 81h37q-40 -126 -176 -126q-53 0 -83.5 27t-30.5 76q0 11 2 23zM359 763h-51l141 139h77z" />
    <glyph glyph-name="glyph267" horiz-adv-x="541" 
d="M208 705h39q-1 -81 88 -81q87 0 124 81h37q-40 -126 -176 -126q-53 0 -83.5 27t-30.5 76q0 11 2 23zM360 763l-108 139h78l81 -139h-51z" />
    <glyph glyph-name="glyph268" horiz-adv-x="541" 
d="M208 705h39q-1 -81 88 -81q87 0 124 81h37q-40 -126 -176 -126q-53 0 -83.5 27t-30.5 76q0 11 2 23zM306 671q9 29 11 64q1 11 8 13q3 0 8 1q67 11 67 54q0 35 -28 35q-5 0 -14 -1t-14 -1q-21 0 -21 18q0 28 32 28q46 0 76 -25.5t26 -70.5q-6 -59 -87 -81q-25 -7 -31 -34
h-33z" />
    <glyph glyph-name="glyph269" horiz-adv-x="541" 
d="M208 705h39q-1 -81 88 -81q87 0 124 81h37q-40 -126 -176 -126q-53 0 -83.5 27t-30.5 76q0 11 2 23zM249 774h-36q10 34 32 59q34 38 79 38q23 0 66 -22.5t65 -22.5q33 0 54 50h38q-2 -9 -16 -38q-39 -60 -87 -60q-28 0 -71 22.5t-65 22.5q-33 0 -59 -49z" />
    <glyph glyph-name="glyph270" horiz-adv-x="249" 
 />
  </font>
</defs>
</svg>
