<?xml version="1.0" standalone="no"?>
<!DOCTYPE svg PUBLIC "-//W3C//DTD SVG 1.1//EN" "http://www.w3.org/Graphics/SVG/1.1/DTD/svg11.dtd" >
<svg xmlns="http://www.w3.org/2000/svg" xmlns:xlink="http://www.w3.org/1999/xlink" version="1.1">
<metadata>
Created by FontForge 20170731 at Thu Oct 27 20:41:13 2005
 By Aleksey,,,
Generated  by Tong Duc Thinh - Sun Fower Media. 2005
</metadata>
<defs>
<font id="SFUHelveticaOblique" horiz-adv-x="556" >
  <font-face 
    font-family="SFU Helvetica"
    font-weight="400"
    font-style="oblique"
    font-stretch="normal"
    units-per-em="1000"
    panose-1="0 0 4 0 0 0 0 0 0 0"
    ascent="800"
    descent="-200"
    x-height="523"
    cap-height="718"
    bbox="-170 -225 1098 1155"
    underline-thickness="50"
    underline-position="-175"
    slope="-11"
    unicode-range="U+0020-F002"
  />
<missing-glyph horiz-adv-x="500" 
d="M63 0v779h375v-779h-375zM125 63h250v654h-250v-654z" />
    <glyph glyph-name=".notdef" horiz-adv-x="500" 
d="M63 0v779h375v-779h-375zM125 63h250v654h-250v-654z" />
    <glyph glyph-name=".null" horiz-adv-x="0" 
 />
    <glyph glyph-name="nonmarkingreturn" horiz-adv-x="278" 
 />
    <glyph glyph-name="space" unicode=" " horiz-adv-x="278" 
 />
    <glyph glyph-name="exclam" unicode="!" horiz-adv-x="278" 
d="M209 102l-22 -102h-97l22 102h97zM199 171h-49l42 310l51 237h97l-51 -237z" />
    <glyph glyph-name="quotedbl" unicode="&#x22;" horiz-adv-x="355" 
d="M168 463l55 255h73l-55 -255h-73zM310 463l55 255h73l-55 -255h-73z" />
    <glyph glyph-name="numbersign" unicode="#" 
d="M433 210l-74 -210h-66l74 210h-125l-74 -210h-66l74 210h-103l22 63h103l49 142h-103l23 63h103l73 210h67l-73 -210h124l73 210h67l-73 -210h103l-23 -63h-103l-50 -142h103l-22 -63h-103zM438 415h-124l-50 -142h125z" />
    <glyph glyph-name="dollar" unicode="$" 
d="M340 409l49 229q-58 0 -102.5 -41t-44.5 -99q0 -72 98 -89zM365 308l-54 -254q65 0 113.5 44t48.5 108q0 66 -57 85zM614 521h-85q4 47 -12 72q-21 33 -81 45l-51 -239q101 -31 133 -53q50 -34 50 -97q0 -24 -6 -53q-25 -114 -116 -171q-70 -44 -150 -44l-20 -96h-47
l20 96q-180 10 -180 158q0 34 8 74h88q-5 -34 -5 -58q0 -47 23.5 -69t80.5 -32l57 265q-81 20 -117 46q-54 37 -54 105q0 21 6 46q17 82 88.5 138.5t159.5 56.5l14 64h47l-14 -64q167 -13 167 -147q0 -20 -4 -43z" />
    <glyph glyph-name="percent" unicode="%" horiz-adv-x="889" 
d="M151 526q15 71 75.5 120t131.5 49q60 0 99 -38t39 -96q0 -17 -4 -35q-15 -71 -75.5 -121t-131.5 -50q-61 0 -99.5 38t-38.5 97q0 17 4 36zM218 502q0 -35 23 -56t58 -21q49 0 87 37t38 85q0 34 -22.5 56t-58.5 22q-49 0 -87 -37t-38 -86zM544 164q15 71 75.5 120
t131.5 49q60 0 99 -38t39 -96q0 -17 -4 -35q-15 -71 -75.5 -121t-130.5 -50q-62 0 -100.5 38t-38.5 97q0 17 4 36zM611 140q0 -35 23 -56t58 -21q49 0 87 37t38 85q0 34 -22.5 56t-58.5 22q-49 0 -87 -37t-38 -86zM818 703l-549 -722h-54l548 722h55z" />
    <glyph glyph-name="ampersand" unicode="&#x26;" horiz-adv-x="667" 
d="M447 141l-120 198q-76 -43 -105 -69q-40 -37 -52 -90q-3 -13 -3 -25q0 -47 40 -74q31 -20 67 -20q98 0 173 80zM379 439q103 62 117 124q2 12 2 22q0 57 -63 57q-43 0 -72.5 -26.5t-29.5 -69.5q0 -48 46 -107zM550 155l95 -155h-114l-50 82q-105 -97 -229 -97
q-97 0 -142 51q-33 39 -33 98q0 21 4 39q16 76 58.5 123.5t151.5 102.5q-47 78 -47 121q0 17 5 38q14 66 67 111q58 49 137 49q67 0 102 -35q31 -30 31 -80q0 -16 -4 -33q-14 -66 -70 -118q-31 -30 -99 -70l98 -156q30 51 53 112h83q-27 -90 -97 -183z" />
    <glyph glyph-name="quotesingle" unicode="'" horiz-adv-x="191" 
d="M157 463l55 255h73l-55 -255h-73z" />
    <glyph glyph-name="parenleft" unicode="(" horiz-adv-x="333" 
d="M393 733h61q-107 -144 -146 -218q-61 -114 -96 -278q-15 -71 -15 -139q0 -111 58 -305h-59q-88 194 -88 329q0 66 15 139q50 231 270 472z" />
    <glyph glyph-name="parenright" unicode=")" horiz-adv-x="333" 
d="M52 -207h-61q107 144 146 218q61 114 95 278q16 71 16 139q0 111 -58 305h59q88 -194 88 -329q0 -66 -16 -139q-49 -231 -269 -472z" />
    <glyph glyph-name="asterisk" unicode="*" horiz-adv-x="389" 
d="M165 591l31 55l97 -38l24 110h60l-24 -110l113 38l9 -55l-116 -34l48 -92l-56 -34l-45 94l-85 -94l-42 34l86 92z" />
    <glyph glyph-name="plus" unicode="+" horiz-adv-x="584" 
d="M317 289l46 216h73l-46 -216h216l-15 -73h-216l-46 -216h-73l46 216h-217l15 73h217z" />
    <glyph glyph-name="comma" unicode="," horiz-adv-x="278" 
d="M87 0l23 106h104l-21 -98q-30 -139 -137 -155l10 46q54 5 74 101h-53z" />
    <glyph glyph-name="hyphen" unicode="-" horiz-adv-x="333" 
d="M357 322l-19 -90h-245l19 90h245z" />
    <glyph glyph-name="hyphen" unicode="&#x2010;" horiz-adv-x="333" 
d="M357 322l-19 -90h-245l19 90h245z" />
    <glyph glyph-name="period" unicode="." horiz-adv-x="278" 
d="M214 106l-23 -106h-104l23 106h104z" />
    <glyph glyph-name="slash" unicode="/" horiz-adv-x="278" 
d="M452 737l-406 -756h-67l407 756h66z" />
    <glyph glyph-name="zero" unicode="0" 
d="M498 342q16 79 16 137q0 145 -103 145q-147 0 -207 -282q-17 -79 -17 -137q0 -145 104 -145q147 0 207 282zM592 342q-31 -143 -95 -235q-88 -126 -223 -126q-181 0 -181 219q0 65 17 142q30 143 94 235q88 126 223 126q181 0 181 -219q0 -65 -16 -142z" />
    <glyph glyph-name="one" unicode="1" 
d="M508 703l-149 -703h-94l106 499h-164l15 70q95 7 132 27q48 26 85 107h69z" />
    <glyph glyph-name="two" unicode="2" 
d="M228 451h-88q32 149 138 212q68 40 158 40q81 0 131 -43t50 -117q0 -24 -5 -50q-18 -85 -86 -143q-45 -39 -152 -92l-82 -40q-122 -60 -149 -135h382l-18 -83h-481q46 187 224 279l105 54q80 41 106 64q44 38 58 100q3 14 3 28q0 42 -25 68q-30 31 -90 31
q-132 0 -179 -173z" />
    <glyph glyph-name="three" unicode="3" 
d="M293 324l16 76q30 -2 46 -2q134 0 158 115q3 12 3 24q0 87 -109 87q-81 0 -126 -57q-25 -32 -43 -94h-86q20 95 76 154q74 76 199 76q87 0 135 -39.5t48 -104.5q0 -20 -5 -41q-13 -61 -52 -102q-31 -32 -69 -43v-2q87 -30 87 -118q0 -21 -5 -46q-20 -95 -93 -156
q-82 -70 -208 -70q-71 0 -123 31q-67 40 -67 141q0 27 5 62h91q-5 -29 -5 -50q0 -105 122 -105q67 0 118 37.5t64 98.5q4 18 4 34q0 95 -141 95h-20q-14 -1 -20 -1z" />
    <glyph glyph-name="four" unicode="4" 
d="M559 171h-103l-36 -171h-88l36 171h-307l19 86l416 446h73l-96 -456h103zM450 566l-291 -319h226l67 319h-2z" />
    <glyph glyph-name="five" unicode="5" 
d="M305 602l-71 -193q67 44 145 44q79 0 132 -45q57 -48 57 -129q0 -24 -6 -51q-18 -88 -77 -153q-86 -94 -230 -94q-78 0 -126 33q-61 41 -61 131q0 14 1 30h91q-12 -118 124 -118q67 0 117.5 46.5t64.5 114.5q5 21 5 40q0 55 -35 85.5t-93 30.5q-78 0 -144 -67l-75 4
l133 377h364l-18 -86h-298z" />
    <glyph glyph-name="six" unicode="6" 
d="M613 516h-86q3 108 -98 108q-91 0 -157 -102q-47 -72 -66 -158l2 -2q68 86 185 86q68 0 118 -37q61 -45 61 -129q0 -27 -6 -57q-22 -103 -105 -176q-76 -68 -192 -68t-159 102q-19 45 -19 107q0 58 17 137q31 147 103 246q95 130 236 130q67 0 112 -33q56 -40 56 -118
q0 -17 -2 -36zM183 177q0 -50 27 -81q32 -36 92 -36q62 0 109.5 44.5t62.5 116.5q4 19 4 38q0 110 -115 110q-77 0 -128.5 -57t-51.5 -135z" />
    <glyph glyph-name="seven" unicode="7" 
d="M165 602l18 86h486l-16 -77q-97 -82 -197 -215q-145 -190 -222 -396h-97q47 141 169 315q116 166 246 287h-387z" />
    <glyph glyph-name="eight" unicode="8" 
d="M603 522q-22 -102 -122 -148q84 -39 84 -129q0 -20 -5 -42q-20 -93 -89 -153q-79 -69 -196 -69q-101 0 -158 54q-44 42 -44 107q0 24 8 60q26 123 155 171q-69 29 -69 102q0 17 3 35q16 71 70 124q72 69 184 69q94 0 142 -46q41 -38 41 -99q0 -18 -4 -36zM347 330
q-70 0 -118 -41q-43 -36 -54 -89q-4 -18 -4 -35q0 -105 124 -105q141 0 169 133q4 19 4 36q0 50 -34 77q-32 24 -87 24zM362 406q59 0 105.5 38.5t46.5 95.5q0 84 -111 84q-59 0 -101 -37.5t-42 -94.5q0 -39 29 -62.5t73 -23.5z" />
    <glyph glyph-name="nine" unicode="9" 
d="M313 235q-83 0 -131 44.5t-48 123.5q0 28 6 59q22 102 94 168q77 73 183 73q192 0 192 -201q0 -55 -15 -125q-27 -128 -85 -226q-99 -170 -254 -170q-93 0 -138 50q-35 39 -35 100q0 19 4 38h88q-2 -13 -2 -24q0 -91 96 -91q72 0 126 63t99 200l-1 2q-27 -39 -77.5 -61.5
t-101.5 -22.5zM343 314q50 0 90 28q59 40 79 132q5 23 5 43q0 107 -115 107q-62 0 -108.5 -43.5t-61.5 -114.5q-6 -28 -6 -51q0 -101 117 -101z" />
    <glyph glyph-name="colon" unicode=":" horiz-adv-x="278" 
d="M214 106l-23 -106h-104l23 106h104zM301 516l-23 -106h-104l23 106h104z" />
    <glyph glyph-name="semicolon" unicode=";" horiz-adv-x="278" 
d="M87 0l23 106h104l-21 -98q-30 -139 -137 -155l10 46q54 5 74 101h-53zM278 410h-104l23 106h104z" />
    <glyph glyph-name="less" unicode="&#x3c;" horiz-adv-x="584" 
d="M555 91l-17 -80l-444 207l15 70l532 207l-17 -80l-424 -162z" />
    <glyph glyph-name="equal" unicode="=" horiz-adv-x="584" 
d="M628 390l-16 -73h-506l16 73h506zM585 188l-16 -73h-506l16 73h506z" />
    <glyph glyph-name="greater" unicode="&#x3e;" horiz-adv-x="584" 
d="M136 415l17 80l444 -207l-15 -70l-532 -207l17 80l425 162z" />
    <glyph glyph-name="question" unicode="?" 
d="M249 493h-88q17 67 34 98q28 52 85 90q69 46 155 46q76 0 124 -38q51 -41 51 -112q0 -22 -5 -46q-10 -47 -39 -83q-25 -30 -90.5 -82t-84.5 -77q-28 -38 -41 -106h-88q17 80 47 123q23 32 94 92q64 55 80 74q21 24 29 65q3 13 3 26q0 88 -100 88q-133 0 -166 -158z
M340 102l-22 -102h-97l22 102h97z" />
    <glyph glyph-name="at" unicode="@" horiz-adv-x="1015" 
d="M700 428q0 30 -18.5 51t-46.5 21q-67 0 -132 -78q-63 -74 -63 -144t66 -70q63 0 128.5 78t65.5 142zM747 494l33 62h68q-20 -41 -103 -205q-53 -105 -56 -121q-6 -29 15 -29q51 0 111 68t77 148q6 30 6 57q0 93 -64.5 147t-166.5 54q-131 0 -237 -92.5t-135 -227.5
q-7 -35 -7 -69q0 -107 69.5 -175t182.5 -68q70 0 141.5 30.5t125.5 83.5h67q-66 -82 -159.5 -129t-189.5 -47q-138 0 -224 84t-86 214q0 40 9 82q33 156 167.5 266t289.5 110q123 0 203.5 -69.5t80.5 -180.5q0 -30 -7 -62q-26 -124 -131 -212q-91 -77 -169 -77q-52 0 -52 48
q0 7 1 15l-2 -1q-71 -62 -133 -62q-54 0 -85.5 34.5t-31.5 87.5q0 19 4 38q23 107 103 189q87 87 187 87q78 0 98 -78z" />
    <glyph glyph-name="A" unicode="A" horiz-adv-x="667" 
d="M521 209h-288l-119 -209h-100l423 718h110l107 -718h-106zM282 295h223l-39 316h-2z" />
    <glyph glyph-name="B" unicode="B" horiz-adv-x="667" 
d="M306 635l-47 -221h175q150 0 175 116q3 15 3 27q0 78 -130 78h-176zM74 0l153 718h316q82 0 127 -40q42 -38 42 -100q0 -20 -5 -41q-22 -105 -128 -150q43 -19 63 -38q35 -34 35 -90q0 -22 -5 -47q-19 -91 -94 -149q-80 -63 -195 -63h-309zM242 335l-53 -252h207
q152 0 179 131q4 16 4 30q0 91 -146 91h-191z" />
    <glyph glyph-name="C" unicode="C" horiz-adv-x="722" 
d="M781 502h-94q0 149 -170 149q-102 0 -181 -72q-85 -77 -114 -213q-13 -61 -13 -110q0 -189 187 -189q64 0 122 36q80 50 125 161h94q-62 -173 -203 -243q-81 -40 -171 -40q-112 0 -179 61q-77 68 -77 201q0 55 14 120q36 168 148 271t267 103q122 0 187 -64
q59 -56 59 -146q0 -13 -1 -25z" />
    <glyph glyph-name="D" unicode="D" horiz-adv-x="722" 
d="M81 0l153 718h291q114 0 176.5 -66.5t62.5 -180.5q0 -48 -12 -102q-31 -146 -116 -245q-107 -124 -268 -124h-287zM313 635l-117 -552h188q96 0 167.5 73t99.5 207q11 52 11 95q0 177 -168 177h-181z" />
    <glyph glyph-name="E" unicode="E" horiz-adv-x="667" 
d="M634 86l-18 -86h-530l153 718h523l-19 -86h-426l-46 -220h393l-19 -86h-393l-51 -240h433z" />
    <glyph glyph-name="F" unicode="F" horiz-adv-x="611" 
d="M252 326l-69 -326h-97l153 718h497l-19 -86h-400l-46 -220h352l-19 -86h-352z" />
    <glyph glyph-name="G" unicode="G" horiz-adv-x="778" 
d="M453 301l18 83h315l-82 -384h-63l-3 93q-48 -51 -118 -81.5t-143 -30.5q-135 0 -203 81q-64 76 -64 184q0 48 16 119q31 147 135 252q120 120 284 120q110 0 182 -58q81 -66 71 -179h-94q-5 151 -183 151q-101 0 -181 -75q-87 -80 -115 -216q-13 -59 -13 -106
q0 -190 189 -190q89 0 156 46q93 63 120 191h-224z" />
    <glyph glyph-name="H" unicode="H" horiz-adv-x="722" 
d="M638 421l64 297h97l-153 -718h-97l71 335h-375l-71 -335h-97l153 718h97l-64 -297h375z" />
    <glyph glyph-name="I" unicode="I" horiz-adv-x="278" 
d="M341 718l-153 -718h-97l153 718h97z" />
    <glyph glyph-name="J" unicode="J" horiz-adv-x="500" 
d="M66 231h91l-11 -50q-4 -23 -4 -41q0 -76 88 -76q115 0 141 124l113 530h97l-112 -524q-24 -115 -103 -170q-63 -43 -149 -43q-170 0 -170 139q0 20 4 40z" />
    <glyph glyph-name="K" unicode="K" horiz-adv-x="667" 
d="M227 252l-54 -252h-97l153 718h97l-74 -348l422 348h134l-361 -290l216 -428h-126l-174 360z" />
    <glyph glyph-name="L" unicode="L" 
d="M326 718l-135 -632h364l-18 -86h-461l153 718h97z" />
    <glyph glyph-name="M" unicode="M" horiz-adv-x="833" 
d="M761 0h-94l90 424q1 5 16.5 72.5t23.5 106.5h-2l-330 -603h-96l-74 602h-2q-8 -39 -21.5 -106t-14.5 -72l-90 -424h-94l153 718h139l76 -607h2l333 607h138z" />
    <glyph glyph-name="N" unicode="N" horiz-adv-x="722" 
d="M581 138l124 580h94l-153 -718h-109l-242 580h-2l-123 -580h-94l153 718h115l235 -580h2z" />
    <glyph glyph-name="O" unicode="O" horiz-adv-x="778" 
d="M715 359q10 44 10 84q0 95 -51.5 151.5t-146.5 56.5q-115 0 -199.5 -81.5t-112.5 -210.5q-9 -44 -9 -84q0 -95 51.5 -151.5t145.5 -56.5q115 0 201 83q84 80 111 209zM815 359q-30 -143 -127 -247q-122 -131 -303 -131q-149 0 -221 89q-59 73 -59 192q0 48 10 97
q31 143 127 247q122 131 304 131q148 0 220 -89q60 -73 60 -192q0 -48 -11 -97z" />
    <glyph glyph-name="P" unicode="P" horiz-adv-x="667" 
d="M318 635l-53 -249h193q146 0 173 129q4 18 4 34q0 86 -120 86h-197zM247 303l-64 -303h-97l153 718h323q83 0 129 -42t46 -112q0 -108 -77 -184.5t-187 -76.5h-226z" />
    <glyph glyph-name="Q" unicode="Q" horiz-adv-x="778" 
d="M451 148l62 60l76 -71q96 79 126 222q10 44 10 84q0 95 -51.5 151.5t-146.5 56.5q-115 0 -199.5 -81.5t-112.5 -210.5q-9 -44 -9 -84q0 -95 51.5 -151.5t145.5 -56.5q60 0 111 23zM733 2l-61 -58l-92 85q-85 -48 -195 -48q-149 0 -221 89q-59 73 -59 192q0 48 10 97
q31 143 127 247q122 131 304 131q148 0 220 -89q60 -73 60 -192q0 -48 -11 -97q-37 -176 -163 -281z" />
    <glyph glyph-name="R" unicode="R" horiz-adv-x="722" 
d="M250 308l-65 -308h-97l153 718h332q200 0 200 -143q0 -23 -5 -50q-24 -113 -137 -172q31 -14 42 -27q19 -22 19 -63q0 -20 -4 -45l-21 -130q-4 -21 -4 -32q0 -24 24 -40l-3 -16h-119q-6 53 21 180q6 28 6 47q0 81 -107 81h-235zM320 635l-52 -244h225q146 0 172 124
q5 20 5 37q0 83 -108 83h-242z" />
    <glyph glyph-name="S" unicode="S" horiz-adv-x="667" 
d="M708 508h-91q3 16 3 30q0 60 -48 91q-39 25 -102 25q-164 0 -191 -126q-2 -12 -2 -22q0 -53 68 -69l195 -47q128 -31 128 -143q0 -23 -6 -49q-24 -116 -131 -172q-84 -45 -196 -45q-141 0 -202 69q-43 48 -43 113q0 29 8 69h91q-4 -22 -4 -42q0 -66 53 -99
q43 -27 114 -27q72 0 125 22q74 31 88 99q4 19 4 33q0 37 -28.5 56.5t-101.5 37.5l-139 34q-122 30 -122 129q0 19 4 40q20 93 91 153q81 69 204 69q236 0 236 -174q0 -24 -5 -55z" />
    <glyph glyph-name="T" unicode="T" horiz-adv-x="611" 
d="M148 632l19 86h583l-19 -86h-243l-134 -632h-97l134 632h-243z" />
    <glyph glyph-name="U" unicode="U" horiz-adv-x="722" 
d="M700 718h97l-99 -466q-25 -117 -112 -191q-94 -80 -235 -80q-115 0 -175 57q-53 51 -53 138q0 30 7 63l102 479h97l-96 -452q-8 -34 -8 -63q0 -136 147 -136q80 0 137 40q71 50 94 157z" />
    <glyph glyph-name="V" unicode="V" horiz-adv-x="667" 
d="M358 106l333 612h109l-415 -718h-103l-109 718h108l75 -612h2z" />
    <glyph glyph-name="W" unicode="W" horiz-adv-x="944" 
d="M597 595l-292 -595h-102l-34 718h105l9 -584h2l286 584h106l36 -584h2l259 584h107l-342 -718h-102l-38 595h-2z" />
    <glyph glyph-name="X" unicode="X" horiz-adv-x="667" 
d="M474 368l174 -368h-120l-130 295l-262 -295h-117l335 368l-166 350h122l123 -275l241 275h116z" />
    <glyph glyph-name="Y" unicode="Y" horiz-adv-x="667" 
d="M443 289l-61 -289h-97l61 289l-179 429h113l132 -345l280 345h114z" />
    <glyph glyph-name="Z" unicode="Z" horiz-adv-x="611" 
d="M606 86l-18 -86h-565l17 81l557 551h-407l19 86h532l-18 -84l-559 -548h442z" />
    <glyph glyph-name="bracketleft" unicode="[" horiz-adv-x="278" 
d="M280 651l-165 -776h108l-15 -71h-187l195 918h187l-15 -71h-108z" />
    <glyph glyph-name="backslash" unicode="\" horiz-adv-x="278" 
d="M224 -19l-84 756h66l85 -756h-67z" />
    <glyph glyph-name="bracketright" unicode="]" horiz-adv-x="278" 
d="M109 -125l165 776h-108l15 71h187l-195 -918h-187l15 71h108z" />
    <glyph glyph-name="asciicircum" unicode="^" horiz-adv-x="469" 
d="M539 264h-77l-98 344l-244 -344h-78l303 424h72z" />
    <glyph glyph-name="underscore" unicode="_" 
d="M529 -125h-556l11 50h556z" />
    <glyph glyph-name="grave" unicode="`" horiz-adv-x="333" 
d="M270 593l-100 141h108l59 -141h-67z" />
    <glyph glyph-name="a" unicode="a" 
d="M220 364h-81q43 174 253 174q55 0 98 -18q69 -29 69 -96q0 -15 -4 -32l-64 -301q-1 -6 -1 -10q0 -21 24 -21q9 0 30 4l-14 -64q-40 -10 -50 -10q-78 0 -78 58q0 10 2 22q-96 -85 -207 -85q-62 0 -99 31.5t-37 85.5q0 16 4 34q31 144 194 164l149 18q47 6 59 62q2 11 2 20
q0 65 -107 65q-105 0 -142 -101zM422 181l19 86q-25 -17 -152 -33q-115 -15 -130 -85q-4 -15 -4 -28q0 -63 79 -63q64 0 121 36t67 87z" />
    <glyph glyph-name="b" unicode="b" 
d="M141 0h-83l153 718h88l-56 -261h2q73 81 168 81q83 0 129 -51q42 -49 42 -133q0 -37 -8 -77q-24 -114 -89 -193q-82 -99 -203 -99q-95 0 -127 80h-2zM482 263q10 48 10 81q0 115 -111 115q-141 0 -189 -222q-6 -30 -6 -56q0 -63 38 -95q30 -25 74 -25q69 0 119 58
q46 53 65 144z" />
    <glyph glyph-name="c" unicode="c" horiz-adv-x="500" 
d="M551 347h-85q6 112 -100 112q-75 0 -127 -64q-42 -52 -59 -133q-10 -45 -10 -81q0 -120 110 -120q45 0 86.5 32.5t64.5 91.5h85q-25 -78 -80 -131q-72 -69 -175 -69q-90 0 -138.5 51.5t-48.5 137.5q0 35 9 73q27 129 104 206q84 85 208 85q83 0 124 -48q34 -40 34 -107
q0 -18 -2 -36z" />
    <glyph glyph-name="d" unicode="d" 
d="M652 718l-153 -718h-83l15 72h-2q-65 -87 -167 -87q-95 0 -140 62q-38 51 -38 138q0 45 10 92q24 114 96 186q76 75 177 75q94 0 137 -89l4 7l56 262h88zM182 263q-9 -40 -9 -74q0 -128 107 -128q54 0 100 36q61 47 80 140q12 56 12 97q0 125 -105 125q-143 0 -185 -196z
" />
    <glyph glyph-name="e" unicode="e" 
d="M456 164h88q-10 -28 -37 -64q-37 -50 -87 -79q-61 -36 -149 -36q-90 0 -138.5 51.5t-48.5 137.5q0 35 9 73q27 129 104 206q84 85 208 85q174 0 174 -193q0 -51 -13 -112h-382q-7 -31 -7 -57q0 -115 122 -115q57 0 105 37q42 32 52 66zM198 303h291q4 22 4 41
q0 115 -116 115q-60 0 -112.5 -47t-66.5 -109z" />
    <glyph glyph-name="f" unicode="f" horiz-adv-x="278" 
d="M358 450h-88l-96 -450h-88l96 450h-72l15 73h72l19 90q25 115 161 115q12 0 39 -2l-16 -79q-22 2 -36 2q-52 0 -65 -61l-14 -65h88z" />
    <glyph glyph-name="g" unicode="g" 
d="M187 263q-9 -40 -9 -74q0 -128 107 -128q54 0 100 36q61 47 80 140q12 56 12 97q0 125 -105 125q-143 0 -185 -196zM610 523l-102 -480q-22 -103 -65 -160q-77 -103 -234 -103q-69 0 -111 26q-64 39 -56 130h88q-1 -83 101 -83q98 0 146 69q25 36 42 115l5 22h-2l-1 -4
q-59 -70 -154 -70t-140 62q-38 51 -38 138q0 45 10 92q24 114 96 186q76 75 177 75q94 0 137 -89h2l16 74h83z" />
    <glyph glyph-name="h" unicode="h" 
d="M567 356l-76 -356h-88l73 342q6 27 6 47q0 70 -85 70q-62 0 -108 -38q-56 -45 -75 -136l-61 -285h-88l153 718h88l-57 -265h2q83 85 171 85q151 0 151 -128q0 -25 -6 -54z" />
    <glyph glyph-name="i" unicode="i" horiz-adv-x="222" 
d="M266 523l-111 -523h-88l111 523h88zM286 618h-88l22 100h88z" />
    <glyph glyph-name="j" unicode="j" horiz-adv-x="222" 
d="M266 523l-127 -600q-29 -133 -163 -133q-17 0 -36 3l16 76h18q41 0 55.5 10.5t23.5 53.5l125 590h88zM308 718l-22 -100h-88l22 100h88z" />
    <glyph glyph-name="k" unicode="k" horiz-adv-x="500" 
d="M359 328l142 -328h-113l-107 264l-87 -66l-42 -198h-85l153 718h85l-89 -416l272 221h112z" />
    <glyph glyph-name="l" unicode="l" horiz-adv-x="222" 
d="M308 718l-153 -718h-88l153 718h88z" />
    <glyph glyph-name="m" unicode="m" horiz-adv-x="833" 
d="M65 0l111 523h83l-16 -74h2q80 89 177 89q94 0 121 -85q50 45 79 61q44 24 99 24q49 0 84 -24q47 -32 47 -100q0 -24 -6 -52l-77 -362h-88l72 338q6 28 6 48q0 73 -77 73q-54 0 -97.5 -42.5t-55.5 -97.5l-68 -319h-88l77 362q3 17 3 31q0 66 -64 66q-51 0 -95 -34
q-60 -46 -80 -140l-61 -285h-88z" />
    <glyph glyph-name="n" unicode="n" 
d="M567 356l-76 -356h-88l68 322q8 34 8 58q0 79 -90 79q-51 0 -95 -34q-60 -46 -80 -140l-61 -285h-88l111 523h83l-16 -74h2q80 89 177 89q151 0 151 -128q0 -25 -6 -54z" />
    <glyph glyph-name="o" unicode="o" 
d="M392 538q97 0 148 -61q45 -54 45 -142q0 -134 -86 -238q-92 -111 -224 -111q-97 0 -147 61q-45 54 -45 142q0 134 86 238q91 111 223 111zM182 262q-7 -33 -7 -64q0 -136 116 -136q84 0 139 74q40 53 56 126q7 33 7 64q0 136 -117 136q-83 0 -139 -74q-40 -53 -55 -126z
" />
    <glyph glyph-name="p" unicode="p" 
d="M192 237q-6 -30 -6 -56q0 -63 38 -95q30 -25 74 -25q69 0 119 58q46 53 65 144q10 48 10 81q0 115 -111 115q-141 0 -189 -222zM14 -207l155 730h83l-16 -74h2q82 89 175 89q83 0 129 -52q42 -49 42 -132q0 -37 -8 -77q-24 -114 -89 -193q-82 -99 -203 -99q-96 0 -124 70
h-2l-56 -262h-88z" />
    <glyph glyph-name="q" unicode="q" 
d="M605 523l-155 -730h-88l56 262h-2q-59 -70 -154 -70t-140 62q-38 51 -38 138q0 45 10 92q24 114 96 186q76 75 177 75q94 0 137 -89h2l16 74h83zM460 237q12 56 12 97q0 125 -105 125q-143 0 -185 -196q-9 -40 -9 -74q0 -128 107 -128q54 0 100 36q61 47 80 140z" />
    <glyph glyph-name="r" unicode="r" horiz-adv-x="333" 
d="M230 304l-65 -304h-88l111 523h83l-18 -87h2q80 102 168 102q13 0 23 -3l-20 -91h-33q-60 0 -105.5 -40.5t-57.5 -99.5z" />
    <glyph glyph-name="s" unicode="s" horiz-adv-x="500" 
d="M526 374h-85q3 11 3 20q0 68 -108 68q-42 0 -74 -17q-38 -20 -46 -57q-1 -9 -1 -15q0 -22 20 -34q15 -9 62 -21l83 -22q121 -32 121 -106q0 -15 -3 -32q-17 -79 -85.5 -126t-158.5 -47q-191 0 -191 135q0 20 5 48h85q-2 -14 -2 -25q0 -82 118 -82q51 0 88 20q41 22 50 63
q1 8 1 15q0 22 -20 34.5t-69 25.5l-97 25q-97 25 -97 98q0 14 3 29q17 81 87 127q63 40 146 40q168 0 168 -133q0 -17 -3 -31z" />
    <glyph glyph-name="t" unicode="t" horiz-adv-x="278" 
d="M353 450h-84l-73 -340q-1 -6 -1 -12q0 -29 46 -29h31l-15 -69q-76 -7 -67 -7q-88 0 -88 70q0 18 5 42l74 345h-71l15 73h71l31 146h88l-31 -146h84z" />
    <glyph glyph-name="u" unicode="u" 
d="M489 0h-83l16 76l-1 2q-77 -93 -186 -93q-59 0 -96 25q-45 31 -45 93q0 21 5 44l80 376h88l-74 -347q-4 -22 -4 -40q0 -75 81 -75q76 0 126 58q40 47 55 116l61 288h88z" />
    <glyph glyph-name="v" unicode="v" horiz-adv-x="500" 
d="M269 97l238 426h96l-310 -523h-94l-80 523h102l46 -426h2z" />
    <glyph glyph-name="w" unicode="w" horiz-adv-x="722" 
d="M444 405l-188 -405h-91l-40 523h96l13 -411h2l188 411h98l15 -411h2l193 411h88l-263 -523h-91l-20 405h-2z" />
    <glyph glyph-name="x" unicode="x" horiz-adv-x="500" 
d="M363 269l127 -269h-112l-88 197l-168 -197h-111l241 269l-121 254h113l82 -184l160 184h108z" />
    <glyph glyph-name="y" unicode="y" horiz-adv-x="500" 
d="M273 97l230 426h97q-97 -171 -297 -513q-70 -116 -97 -152q-36 -47 -68 -61q-27 -11 -87 -11q-9 0 -36 8l17 80q23 -9 51 -9q34 0 53 20q15 17 66 101l-80 537h100l49 -426h2z" />
    <glyph glyph-name="z" unicode="z" horiz-adv-x="500" 
d="M556 451l-392 -378h321l-16 -73h-438l15 69l396 381h-291l15 73h405z" />
    <glyph glyph-name="braceleft" unicode="{" horiz-adv-x="334" 
d="M92 234l12 60q35 0 66 36t42 91l37 172q12 59 52 95q37 34 77 34h67l-13 -65h-44q-46 0 -64 -82l-36 -170q-14 -64 -59 -105q-31 -28 -59 -35v-2q20 -7 37 -26q25 -29 25 -75q0 -20 -4 -42l-36 -169q-5 -22 -5 -38q0 -44 33 -44h44l-14 -65h-67q-33 0 -55.5 25t-22.5 67
q0 18 4 37l36 171q5 24 5 45q0 38 -15.5 61.5t-42.5 23.5z" />
    <glyph glyph-name="bar" unicode="|" horiz-adv-x="260" 
d="M90 -19l161 756h73l-161 -756h-73z" />
    <glyph glyph-name="braceright" unicode="}" horiz-adv-x="334" 
d="M354 294l-12 -60q-35 0 -66 -37t-43 -93l-36 -171q-13 -59 -51 -94t-79 -35h-67l14 65h44q46 0 64 82l36 169q14 68 59 109q29 25 59 34v2q-19 5 -37 27q-25 30 -25 75q0 18 4 38l36 170q5 22 5 38q0 44 -33 44h-44l13 65h67q34 0 56.5 -25t22.5 -67q0 -18 -4 -37
l-37 -172q-4 -22 -4 -43q0 -38 15.5 -61t42.5 -23z" />
    <glyph glyph-name="asciitilde" unicode="~" horiz-adv-x="584" 
d="M556 326v0l24 -56q-72 -86 -143 -86q-42 0 -95 33q-56 35 -107 35q-52 0 -100 -72l-24 56q63 86 143 86q41 0 105 -32q71 -36 94 -36q41 0 103 72z" />
    <glyph glyph-name="euro" horiz-adv-x="498" 
d="M522 633l-23 -156l-48 6q0 157 -94 157q-103 0 -161 -211h172l-21 -48h-164q-6 -24 -16 -73h147l-21 -47h-134q-6 -41 -6 -74q0 -55 21 -91q26 -43 78 -43q58 0 101 68q24 38 51 119l55 -10l-54 -188q-77 -53 -159 -53q-111 0 -166 84q-47 71 -47 188h-74l21 47h56
q3 25 12 73h-66l21 48h59q41 112 108 183q83 88 187 88q94 0 165 -67z" />
    <glyph glyph-name="nonbreakingspace" unicode="&#xa0;" horiz-adv-x="278" 
 />
    <glyph glyph-name="exclamdown" unicode="&#xa1;" horiz-adv-x="333" 
d="M207 421l22 102h97l-22 -102h-97zM217 352h49l-42 -310l-50 -237h-97l50 237z" />
    <glyph glyph-name="cent" unicode="&#xa2;" 
d="M229 78l189 381q-8 3 -29 3q-68 0 -119 -52q-56 -56 -79 -165q-6 -27 -6 -54q0 -82 44 -113zM582 345h-82q-2 84 -46 102l-192 -386q12 -4 34 -4q115 0 171 126h85q-25 -74 -82 -128q-78 -74 -187 -74q-16 0 -59 7l-52 -103h-41l58 114q-94 50 -94 173q0 34 8 73
q30 140 111 216.5t197 76.5q28 0 42 -6l45 91h39l-46 -100q33 -10 58 -40q35 -42 35 -108q0 -14 -2 -30z" />
    <glyph glyph-name="sterling" unicode="&#xa3;" 
d="M285 380h167l-14 -63h-138q2 -34 -5 -66q-22 -104 -160 -186l2 2v-2q73 37 139 37q33 0 87.5 -17.5t72.5 -17.5q45 0 83 31l27 -66q-73 -48 -137 -48q-29 0 -95 22.5t-105 22.5q-52 0 -125 -40l-35 69q78 45 123 106q31 43 39 81q6 29 -4 72h-107l14 63h69q-18 67 -18 98
q0 18 3 36q17 78 80 133q80 71 211 71q89 0 135 -49q40 -42 40 -113q0 -25 -6 -51l-3 -15h-88l2 9q4 19 4 36q0 48 -29.5 77.5t-81.5 29.5q-73 0 -122 -46q-38 -36 -47 -77q-3 -14 -3 -29q0 -38 25 -110z" />
    <glyph glyph-name="currency" unicode="&#xa4;" 
d="M608 603l38 -48l-67 -54q25 -37 25 -93q0 -122 -88 -208l42 -56l-55 -45l-43 58q-71 -55 -160 -55q-90 0 -138 55l-67 -58l-35 45l66 56q-25 40 -25 95q0 56 24 112.5t64 93.5l-43 54l58 48l45 -56q70 51 156 51t134 -51zM177 313q0 -60 38 -100.5t100 -40.5q81 0 147 67
t66 148q0 60 -38.5 100.5t-99.5 40.5q-81 0 -147 -66.5t-66 -148.5z" />
    <glyph glyph-name="yen" unicode="&#xa5;" 
d="M112 327l12 57h154l-129 304h100l113 -295l237 295h100l-257 -304h155l-12 -57h-193l-19 -85h193l-12 -57h-193l-39 -185h-88l39 185h-192l12 57h192l19 85h-192z" />
    <glyph glyph-name="brokenbar" unicode="&#xa6;" horiz-adv-x="260" 
d="M90 -19l62 294h73l-62 -294h-73zM192 460l59 277h73l-59 -277h-73z" />
    <glyph glyph-name="section" unicode="&#xa7;" 
d="M578 554h-85q3 22 3 34q0 73 -79 73q-36 0 -65 -18q-36 -22 -45 -63q-1 -7 -1 -14q0 -39 55 -76l128 -86q79 -53 79 -123q0 -17 -4 -37q-20 -95 -137 -160q31 -43 31 -82q0 -15 -3 -32q-16 -73 -84 -119q-62 -42 -132 -42q-163 0 -163 135q0 24 6 53h88q-4 -20 -4 -37
q0 -75 78 -75q105 0 122 83q2 8 2 16q0 32 -40 63l-180 140q-42 33 -42 92q0 15 3 30q12 59 49 98q29 31 84 60q-29 41 -29 73q0 82 70 141q67 56 150 56q62 0 101 -26q50 -33 50 -104q0 -24 -6 -53zM435 321l-151 107q-74 -34 -88 -97q-2 -13 -2 -24q0 -39 29 -61l163 -122
q79 45 91 101q2 10 2 20q0 45 -44 76z" />
    <glyph glyph-name="dieresis" unicode="&#xa8;" horiz-adv-x="333" 
d="M281 706l-22 -102h-91l22 102h91zM443 706l-22 -102h-91l22 102h91z" />
    <glyph glyph-name="copyright" unicode="&#xa9;" horiz-adv-x="737" 
d="M366 -19q-137 0 -224.5 83t-87.5 214q0 40 9 82q34 161 171 270q134 107 293 107q135 0 222.5 -83t87.5 -214q0 -39 -8 -80q-35 -162 -170.5 -270.5t-292.5 -108.5zM139 360q-8 -37 -8 -73q0 -108 68.5 -175.5t179.5 -67.5q130 0 237.5 90t136.5 226q7 36 7 71
q0 107 -68.5 175t-178.5 68q-130 0 -238 -90t-136 -224zM562 289h68q-29 -74 -89.5 -117.5t-130.5 -43.5q-84 0 -132 48.5t-48 126.5q0 28 7 58q21 102 94.5 166.5t173.5 64.5q74 0 117 -40q44 -43 38 -117h-67q0 42 -27 66.5t-74 24.5q-69 0 -116.5 -46t-62.5 -118
q-5 -22 -5 -43q0 -55 30.5 -90t85.5 -35q47 0 85 26.5t53 68.5z" />
    <glyph glyph-name="ordfeminine" unicode="&#xaa;" horiz-adv-x="370" 
d="M443 454l-10 -44q-26 -5 -33 -5q-50 0 -50 36q0 6 1 15q-62 -51 -134 -51q-41 0 -65.5 19.5t-24.5 52.5q0 9 2 19q19 89 134 102l90 10q25 3 32 38q9 39 -67 39q-71 0 -89 -53h-54q27 105 164 105q36 0 64 -11q46 -18 46 -59q0 -9 -2 -18l-38 -178q-4 -19 14 -19
q5 0 20 2zM242 457q41 0 76.5 21.5t42.5 52.5l8 39q-12 -10 -96 -20q-71 -8 -78 -43q-2 -8 -2 -15q0 -35 49 -35zM110 352h296l-10 -48h-296z" />
    <glyph glyph-name="guillemotleft" unicode="&#xab;" 
d="M296 196l-19 -88l-131 123l20 92l183 123l-19 -88l-122 -81zM501 196l-19 -88l-131 123l20 92l183 123l-19 -88l-122 -81z" />
    <glyph glyph-name="logicalnot" unicode="&#xac;" horiz-adv-x="584" 
d="M495 108l44 209h-433l16 73h506l-60 -282h-73z" />
    <glyph glyph-name="sfthyphen" unicode="&#xad;" horiz-adv-x="278" 
 />
    <glyph glyph-name="registered" unicode="&#xae;" horiz-adv-x="737" 
d="M366 -19q-137 0 -224.5 83t-87.5 214q0 40 9 82q34 161 171 270q134 107 293 107q135 0 222.5 -83t87.5 -214q0 -39 -8 -80q-35 -162 -170.5 -270.5t-292.5 -108.5zM139 360q-8 -37 -8 -73q0 -108 68.5 -175.5t179.5 -67.5q130 0 237.5 90t136.5 226q7 36 7 71
q0 107 -68.5 175t-178.5 68q-130 0 -238 -90t-136 -224zM360 330l-40 -189h-66l93 436h166q131 0 131 -89q0 -16 -4 -35q-22 -106 -138 -120l83 -192h-74l-75 189h-76zM372 386h79q52 0 76 10q36 16 45 61q2 8 2 15q0 49 -83 49h-90z" />
    <glyph glyph-name="macron" unicode="&#xaf;" horiz-adv-x="333" 
d="M468 684l-12 -57h-313l12 57h313z" />
    <glyph glyph-name="macron" unicode="&#x2c9;" horiz-adv-x="333" 
d="M468 684l-12 -57h-313l12 57h313z" />
    <glyph glyph-name="degree" unicode="&#xb0;" horiz-adv-x="400" 
d="M340 660q-45 0 -83.5 -39t-38.5 -84q0 -35 22.5 -59t56.5 -24q44 0 83 39t39 84q0 35 -22.5 59t-56.5 24zM464 557q-13 -62 -63.5 -104t-113.5 -42q-53 0 -85.5 31.5t-32.5 81.5q0 16 3 33q14 62 64.5 104t112.5 42q54 0 86.5 -31.5t32.5 -81.5q0 -16 -4 -33z" />
    <glyph glyph-name="plusminus" unicode="&#xb1;" horiz-adv-x="584" 
d="M329 345l35 161h73l-35 -161h216l-15 -73h-216l-34 -161h-73l34 161h-217l15 73h217zM39 0l16 73h506l-16 -73h-506z" />
    <glyph glyph-name="twosuperior" unicode="&#xb2;" horiz-adv-x="333" 
d="M196 552h-60q32 151 190 151q55 0 89 -26.5t34 -72.5q0 -13 -3 -27q-11 -52 -54 -87q-29 -24 -96 -55l-49 -23q-61 -28 -95 -70h244l-13 -61h-319q29 113 139 167l67 33q55 27 70 39q28 22 36 59q3 9 3 17q0 49 -73 49q-82 0 -110 -93z" />
    <glyph glyph-name="threesuperior" unicode="&#xb3;" horiz-adv-x="333" 
d="M92 410h68q-2 -14 -2 -24q0 -58 71 -58q96 0 111 71q2 11 2 20q0 52 -90 52h-23l11 51h27q40 0 68.5 20t28.5 59q0 44 -69 44q-76 0 -98 -80h-61q12 56 50 92q49 46 130 46q57 0 88.5 -24t31.5 -64q0 -11 -2 -23q-15 -70 -78 -87v-2q58 -16 58 -71q0 -12 -3 -26
q-12 -57 -59 -94q-53 -42 -137 -42q-44 0 -80 19q-45 24 -45 88q0 15 2 33z" />
    <glyph glyph-name="acute" unicode="&#xb4;" horiz-adv-x="333" 
d="M475 734l-160 -141h-67l119 141h108z" />
    <glyph glyph-name="mu" unicode="&#xb5;" 
d="M489 0h-83l16 76l-1 2q-77 -93 -186 -93q-54 0 -73 34h-2l-48 -226h-88l155 730h88l-74 -347q-4 -22 -4 -40q0 -75 81 -75q76 0 126 58q40 47 55 116l61 288h88z" />
    <glyph glyph-name="mu" unicode="&#x3bc;" 
d="M489 0h-83l16 76l-1 2q-77 -93 -186 -93q-54 0 -73 34h-2l-48 -226h-88l155 730h88l-74 -347q-4 -22 -4 -40q0 -75 81 -75q76 0 126 58q40 47 55 116l61 288h88z" />
    <glyph glyph-name="paragraph" unicode="&#xb6;" horiz-adv-x="537" 
d="M195 -173l110 517q-83 0 -131 40.5t-48 106.5q0 18 4 37q41 190 272 190h248l-190 -891h-73l177 831h-119l-177 -831h-73z" />
    <glyph glyph-name="ch270" unicode="&#xb7;" horiz-adv-x="249" 
d="M38 348q0 34 23 57t57 23t57.5 -23t23.5 -57t-23.5 -57.5t-57.5 -23.5t-57 23.5t-23 57.5z" />
    <glyph glyph-name="ch270" unicode="&#x2219;" horiz-adv-x="249" 
d="M38 348q0 34 23 57t57 23t57.5 -23t23.5 -57t-23.5 -57.5t-57.5 -23.5t-57 23.5t-23 57.5z" />
    <glyph glyph-name="cedilla" unicode="&#xb8;" horiz-adv-x="667" 
d="M521 209h-288l-119 -209h-100l423 718h110l107 -718h-106zM282 295h223l-39 316h-2zM465 772l-80 113h86l47 -113h-53z" />
    <glyph glyph-name="onesuperior" unicode="&#xb9;" horiz-adv-x="333" 
d="M274 577h-108l9 46q63 4 86 16q31 16 54 64h56l-89 -422h-71z" />
    <glyph glyph-name="ordmasculine" unicode="&#xba;" horiz-adv-x="365" 
d="M462 571q-19 -89 -79 -132q-48 -34 -114 -34q-128 0 -128 116q0 23 5 50q19 89 80 132q48 34 114 34q128 0 128 -116q0 -23 -6 -50zM395 571q5 21 5 39q0 75 -71 75q-91 0 -116 -114q-4 -21 -4 -39q0 -75 71 -75q91 0 115 114zM110 352h296l-10 -48h-296z" />
    <glyph glyph-name="guillemotright" unicode="&#xbb;" 
d="M303 231l-183 -123l19 88l122 81l-88 81l19 88l131 -123zM508 231l-183 -123l19 88l122 81l-88 81l19 88l131 -123z" />
    <glyph glyph-name="onequarter" unicode="&#xbc;" horiz-adv-x="834" 
d="M439 94l13 60l263 268h64l-58 -270h67l-12 -58h-67l-20 -94h-64l20 94h-206zM657 152l40 187h-2l-182 -187h144zM802 703l-595 -722h-57l595 722h57zM304 580h-108l9 43q63 4 86 16q31 16 54 64h53l-89 -422h-68z" />
    <glyph glyph-name="onehalf" unicode="&#xbd;" horiz-adv-x="834" 
d="M766 703l-595 -722h-57l595 722h57zM274 577h-108l9 46q63 4 86 16q31 16 54 64h56l-89 -422h-71zM587 271h-60q32 151 190 151q54 0 88 -26.5t34 -72.5q0 -13 -3 -27q-11 -52 -53 -87q-30 -24 -96 -55l-50 -23q-60 -28 -95 -70h244l-13 -61h-319q29 113 139 167l68 33
q55 27 70 39q27 22 35 59q3 9 3 17q0 49 -73 49q-82 0 -109 -93z" />
    <glyph glyph-name="threequarters" unicode="&#xbe;" horiz-adv-x="834" 
d="M493 94l13 60l263 268h64l-58 -270h67l-12 -58h-67l-20 -94h-64l20 94h-206zM749 339l-182 -187h144l40 187h-2zM861 703l-595 -722h-57l595 722h57zM132 410h68q-2 -14 -2 -24q0 -58 71 -58q96 0 111 71q2 11 2 20q0 52 -90 52h-23l11 51h27q40 0 68.5 20t28.5 59
q0 44 -69 44q-76 0 -98 -80h-61q12 56 50 92q49 46 130 46q57 0 88.5 -24t31.5 -64q0 -11 -2 -23q-15 -70 -78 -87v-2q58 -16 58 -71q0 -12 -3 -26q-12 -57 -59 -94q-53 -42 -137 -42q-44 0 -80 19q-45 24 -45 88q0 15 2 33z" />
    <glyph glyph-name="questiondown" unicode="&#xbf;" horiz-adv-x="611" 
d="M446 33h88q-17 -67 -34 -98q-28 -52 -85 -90q-69 -46 -155 -46q-76 0 -124 38q-51 41 -51 112q0 22 5 46q10 47 39 83q25 30 90 82t84 77q29 38 42 106h88q-17 -80 -48 -123q-22 -32 -93 -92q-65 -55 -80 -74q-21 -24 -29 -65q-3 -13 -3 -26q0 -88 99 -88q133 0 167 158z
M355 423l22 102h97l-22 -102h-97z" />
    <glyph glyph-name="Agrave" unicode="&#xc0;" horiz-adv-x="667" 
d="M521 209h-288l-119 -209h-100l423 718h110l107 -718h-106zM282 295h223l-39 316h-2zM465 772l-80 113h86l47 -113h-53z" />
    <glyph glyph-name="Aacute" unicode="&#xc1;" horiz-adv-x="667" 
d="M521 209h-288l-119 -209h-100l423 718h110l107 -718h-106zM282 295h223l-39 316h-2zM647 884l-128 -113h-53l95 113h86z" />
    <glyph glyph-name="Acircumflex" unicode="&#xc2;" horiz-adv-x="667" 
d="M521 209h-288l-119 -209h-100l423 718h110l107 -718h-106zM282 295h223l-39 316h-2zM498 820l-60 -65h-55l90 99h65l48 -99h-56z" />
    <glyph glyph-name="Atilde" unicode="&#xc3;" horiz-adv-x="667" 
d="M521 209h-288l-119 -209h-100l423 718h110l107 -718h-106zM282 295h223l-39 316h-2zM584 853h35q-10 -31 -31 -52q-24 -24 -55 -24q-13 0 -39 9l-17 6q-31 11 -40 11q-23 0 -39 -31h-34q26 75 89 75q19 0 45 -11l14 -6q21 -9 31 -9q29 0 41 32z" />
    <glyph glyph-name="Adieresis" unicode="&#xc4;" horiz-adv-x="667" 
d="M521 209h-288l-119 -209h-100l423 718h110l107 -718h-106zM282 295h223l-39 316h-2zM489 901l-22 -102h-91l22 102h91zM651 901l-22 -102h-91l22 102h91z" />
    <glyph glyph-name="Aring" unicode="&#xc5;" horiz-adv-x="667" 
d="M521 209h-288l-119 -209h-100l423 718h110l107 -718h-106zM282 295h223l-39 316h-2zM532 931q34 0 54 -19.5t20 -51.5q0 -45 -34 -79t-79 -34q-34 0 -54.5 19.5t-20.5 51.5q0 45 34 79t80 34zM459 828q0 -41 42 -41q25 0 44.5 19t19.5 44q0 41 -42 41q-25 0 -44.5 -19
t-19.5 -44z" />
    <glyph glyph-name="AE" unicode="&#xc6;" horiz-adv-x="1000" 
d="M236 209l-123 -209h-105l445 718h644l-19 -86h-390l-46 -220h356l-19 -86h-356l-51 -240h397l-18 -86h-494l44 209h-265zM520 295l71 337h-97l-204 -337h230z" />
    <glyph glyph-name="Ccedilla" unicode="&#xc7;" horiz-adv-x="722" 
d="M781 502h-94q0 149 -170 149q-102 0 -181 -72q-85 -77 -114 -213q-13 -61 -13 -110q0 -189 187 -189q64 0 122 36q80 50 125 161h94q-62 -173 -203 -243q-81 -40 -171 -40q-112 0 -179 61q-77 68 -77 201q0 55 14 120q36 168 148 271t267 103q122 0 187 -64
q59 -56 59 -146q0 -13 -1 -25zM716 209h-288l-119 -209h-100l423 718h110l107 -718h-106zM477 295h223l-39 316h-2zM660 772l-80 113h86l47 -113h-53z" />
    <glyph glyph-name="Egrave" unicode="&#xc8;" horiz-adv-x="667" 
d="M634 86l-18 -86h-530l153 718h523l-19 -86h-426l-46 -220h393l-19 -86h-393l-51 -240h433zM473 781l-80 113h86l47 -113h-53z" />
    <glyph glyph-name="Eacute" unicode="&#xc9;" horiz-adv-x="667" 
d="M634 86l-18 -86h-530l153 718h523l-19 -86h-426l-46 -220h393l-19 -86h-393l-51 -240h433zM653 894l-128 -113h-53l95 113h86z" />
    <glyph glyph-name="Ecircumflex" unicode="&#xca;" horiz-adv-x="667" 
d="M634 86l-18 -86h-530l153 718h523l-19 -86h-426l-46 -220h393l-19 -86h-393l-51 -240h433zM498 831l-60 -65h-55l90 99h65l48 -99h-56z" />
    <glyph glyph-name="Edieresis" unicode="&#xcb;" horiz-adv-x="667" 
d="M634 86l-18 -86h-530l153 718h523l-19 -86h-426l-46 -220h393l-19 -86h-393l-51 -240h433zM489 901l-22 -102h-91l22 102h91zM651 901l-22 -102h-91l22 102h91z" />
    <glyph glyph-name="Igrave" unicode="&#xcc;" horiz-adv-x="278" 
d="M341 718l-153 -718h-97l153 718h97zM266 780l-80 113h86l47 -113h-53z" />
    <glyph glyph-name="Iacute" unicode="&#xcd;" horiz-adv-x="278" 
d="M341 718l-153 -718h-97l153 718h97zM447 892l-128 -113h-53l95 113h86z" />
    <glyph glyph-name="Icircumflex" unicode="&#xce;" horiz-adv-x="278" 
d="M341 718l-153 -718h-97l153 718h97zM326 881l-86 -93h-79l129 141h93l69 -141h-80z" />
    <glyph glyph-name="Idieresis" unicode="&#xcf;" horiz-adv-x="278" 
d="M341 718l-153 -718h-97l153 718h97zM295 901l-22 -102h-91l22 102h91zM457 901l-22 -102h-91l22 102h91z" />
    <glyph glyph-name="Eth" unicode="&#xd0;" horiz-adv-x="722" 
d="M458 412l-19 -86h-192l-51 -243h188q96 0 167.5 73t99.5 207q11 52 11 95q0 177 -168 177h-181l-47 -223h192zM69 326l19 86h81l65 306h291q114 0 176.5 -66.5t62.5 -180.5q0 -48 -12 -102q-24 -115 -88 -207q-111 -162 -296 -162h-287l69 326h-81z" />
    <glyph glyph-name="Ntilde" unicode="&#xd1;" horiz-adv-x="722" 
d="M581 138l124 580h94l-153 -718h-109l-242 580h-2l-123 -580h-94l153 718h115l235 -580h2zM686 917v0h50q-15 -47 -48 -78t-75 -31q-21 0 -56 13l-24 9q-40 15 -58 15q-33 0 -56 -44h-48q37 107 127 107q31 0 64 -15l20 -9q29 -13 45 -13q40 0 59 46z" />
    <glyph glyph-name="Ograve" unicode="&#xd2;" horiz-adv-x="778" 
d="M715 359q9 42 9 84q0 96 -51 152t-146 56q-120 0 -207 -88q-79 -80 -105 -204q-9 -42 -9 -84q0 -96 51 -152t146 -56q120 0 207 88q79 81 105 204zM815 359q-30 -143 -127 -247q-122 -131 -303 -131q-135 0 -207.5 73.5t-72.5 207.5q0 50 10 97q31 144 127 247
q122 131 304 131q134 0 206.5 -73.5t72.5 -206.5q0 -51 -10 -98zM545 790l-80 113h86l47 -113h-53z" />
    <glyph glyph-name="Oacute" unicode="&#xd3;" horiz-adv-x="778" 
d="M715 359q9 42 9 84q0 96 -51 152t-146 56q-120 0 -207 -88q-79 -80 -105 -204q-9 -42 -9 -84q0 -96 51 -152t146 -56q120 0 207 88q79 81 105 204zM815 359q-30 -143 -127 -247q-122 -131 -303 -131q-135 0 -207.5 73.5t-72.5 207.5q0 50 10 97q31 144 127 247
q122 131 304 131q134 0 206.5 -73.5t72.5 -206.5q0 -51 -10 -98zM726 902l-128 -113h-53l95 113h86z" />
    <glyph glyph-name="Ocircumflex" unicode="&#xd4;" horiz-adv-x="778" 
d="M715 359q9 42 9 84q0 96 -51 152t-146 56q-120 0 -207 -88q-79 -80 -105 -204q-9 -42 -9 -84q0 -96 51 -152t146 -56q120 0 207 88q79 81 105 204zM815 359q-30 -143 -127 -247q-122 -131 -303 -131q-135 0 -207.5 73.5t-72.5 207.5q0 50 10 97q31 144 127 247
q122 131 304 131q134 0 206.5 -73.5t72.5 -206.5q0 -51 -10 -98zM570 844l-60 -65h-55l90 99h65l48 -99h-56z" />
    <glyph glyph-name="Otilde" unicode="&#xd5;" horiz-adv-x="778" 
d="M715 359q9 42 9 84q0 96 -51 152t-146 56q-120 0 -207 -88q-79 -80 -105 -204q-9 -42 -9 -84q0 -96 51 -152t146 -56q120 0 207 88q79 81 105 204zM815 359q-30 -143 -127 -247q-122 -131 -303 -131q-135 0 -207.5 73.5t-72.5 207.5q0 50 10 97q31 144 127 247
q122 131 304 131q134 0 206.5 -73.5t72.5 -206.5q0 -51 -10 -98zM652 877h35q-10 -31 -31 -52q-24 -24 -55 -24q-13 0 -39 9l-17 6q-31 11 -40 11q-23 0 -39 -31h-34q26 75 89 75q19 0 45 -11l14 -6q21 -9 31 -9q29 0 41 32z" />
    <glyph glyph-name="Odieresis" unicode="&#xd6;" horiz-adv-x="778" 
d="M715 359q10 44 10 84q0 95 -51.5 151.5t-146.5 56.5q-115 0 -199.5 -81.5t-112.5 -210.5q-9 -44 -9 -84q0 -95 51.5 -151.5t145.5 -56.5q115 0 201 83q84 80 111 209zM815 359q-30 -143 -127 -247q-122 -131 -303 -131q-149 0 -221 89q-59 73 -59 192q0 48 10 97
q31 143 127 247q122 131 304 131q148 0 220 -89q60 -73 60 -192q0 -48 -11 -97zM545 901l-22 -102h-91l22 102h91zM707 901l-22 -102h-91l22 102h91z" />
    <glyph glyph-name="multiply" unicode="&#xd7;" horiz-adv-x="584" 
d="M295 253l-159 202l63 51l158 -201l245 201l40 -51l-244 -202l158 -202l-62 -51l-159 201l-245 -201l-40 51z" />
    <glyph glyph-name="Oslash" unicode="&#xd8;" horiz-adv-x="667" 
d="M634 86l-18 -86h-530l153 718h523l-19 -86h-426l-46 -220h393l-19 -86h-393l-51 -240h433zM473 781l-80 113h86l47 -113h-53z" />
    <glyph glyph-name="Ugrave" unicode="&#xd9;" horiz-adv-x="722" 
d="M700 718h97l-99 -466q-27 -128 -121 -199.5t-226 -71.5q-102 0 -162 46q-66 50 -66 149q0 30 7 63l102 479h97l-96 -452q-7 -33 -7 -63q0 -136 146 -136q92 0 153 53q58 51 78 144zM487 766l-80 113h86l47 -113h-53z" />
    <glyph glyph-name="Uacute" unicode="&#xda;" horiz-adv-x="722" 
d="M700 718h97l-99 -466q-27 -128 -121 -199.5t-226 -71.5q-102 0 -162 46q-66 50 -66 149q0 30 7 63l102 479h97l-96 -452q-7 -33 -7 -63q0 -136 146 -136q92 0 153 53q58 51 78 144zM667 879l-128 -113h-53l95 113h86z" />
    <glyph glyph-name="Ucircumflex" unicode="&#xdb;" horiz-adv-x="722" 
d="M700 718h97l-99 -466q-25 -117 -112 -191q-94 -80 -235 -80q-115 0 -175 57q-53 51 -53 138q0 30 7 63l102 479h97l-96 -452q-8 -34 -8 -63q0 -136 147 -136q80 0 137 40q71 50 94 157zM548 881l-86 -93h-79l129 141h93l69 -141h-80z" />
    <glyph glyph-name="Udieresis" unicode="&#xdc;" horiz-adv-x="722" 
d="M700 718h97l-99 -466q-25 -117 -112 -191q-94 -80 -235 -80q-115 0 -175 57q-53 51 -53 138q0 30 7 63l102 479h97l-96 -452q-8 -34 -8 -63q0 -136 147 -136q80 0 137 40q71 50 94 157zM517 901l-22 -102h-91l22 102h91zM679 901l-22 -102h-91l22 102h91z" />
    <glyph glyph-name="Yacute" unicode="&#xdd;" horiz-adv-x="667" 
d="M443 289l-61 -289h-97l61 289l-179 429h113l132 -345l280 345h114zM643 878l-128 -113h-53l95 113h86z" />
    <glyph glyph-name="Thorn" unicode="&#xde;" horiz-adv-x="667" 
d="M293 516l-53 -249h193q146 0 173 129q4 18 4 34q0 86 -120 86h-197zM86 0l153 718h97l-26 -119h226q84 0 130 -42t46 -112q0 -108 -77 -184.5t-187 -76.5h-226l-39 -184h-97z" />
    <glyph glyph-name="germandbls" unicode="&#xdf;" horiz-adv-x="611" 
d="M67 0l113 532q19 89 89 141q74 55 184 55q97 0 151 -38t54 -105q0 -18 -5 -37q-20 -95 -113 -148q41 -12 64 -52q21 -35 21 -79q0 -16 -3 -31q-27 -127 -114 -193q-79 -60 -192 -60q-21 0 -52 7l16 75q22 -3 44 -3q170 0 201 150q5 22 5 40q0 100 -145 100q-23 0 -40 -4
l17 79q18 -2 23 -2q74 0 123 31q58 36 58 105q0 89 -130 89q-80 0 -122 -39q-36 -33 -51 -103l-108 -510h-88z" />
    <glyph glyph-name="agrave" unicode="&#xe0;" 
d="M220 364h-81q43 174 253 174q55 0 98 -18q69 -29 69 -96q0 -13 -4 -32l-64 -301q-1 -5 -1 -10q0 -21 24 -21q8 0 30 4l-14 -64q-40 -10 -50 -10q-78 0 -78 58q0 9 2 22q-96 -85 -207 -85q-58 0 -95 29q-41 31 -41 88q0 15 4 34q30 144 194 164l149 18q30 4 46 29
q15 22 15 53q0 65 -107 65q-104 0 -142 -101zM422 181l19 86q-26 -17 -152 -33q-115 -15 -130 -85q-3 -14 -3 -28q0 -63 78 -63q60 0 115 32q61 36 73 91zM392 599l-72 102h77l43 -102h-48z" />
    <glyph glyph-name="aacute" unicode="&#xe1;" 
d="M220 364h-81q43 174 253 174q55 0 98 -18q69 -29 69 -96q0 -13 -4 -32l-64 -301q-1 -5 -1 -10q0 -21 24 -21q8 0 30 4l-14 -64q-40 -10 -50 -10q-78 0 -78 58q0 9 2 22q-96 -85 -207 -85q-58 0 -95 29q-41 31 -41 88q0 15 4 34q30 144 194 164l149 18q30 4 46 29
q15 22 15 53q0 65 -107 65q-104 0 -142 -101zM422 181l19 86q-26 -17 -152 -33q-115 -15 -130 -85q-3 -14 -3 -28q0 -63 78 -63q60 0 115 32q61 36 73 91zM557 701l-115 -102h-48l86 102h77z" />
    <glyph glyph-name="acircumflex" unicode="&#xe2;" 
d="M220 364h-81q43 174 253 174q55 0 98 -18q69 -29 69 -96q0 -13 -4 -32l-64 -301q-1 -5 -1 -10q0 -21 24 -21q8 0 30 4l-14 -64q-40 -10 -50 -10q-78 0 -78 58q0 9 2 22q-96 -85 -207 -85q-58 0 -95 29q-41 31 -41 88q0 15 4 34q30 144 194 164l149 18q30 4 46 29
q15 22 15 53q0 65 -107 65q-104 0 -142 -101zM422 181l19 86q-26 -17 -152 -33q-115 -15 -130 -85q-3 -14 -3 -28q0 -63 78 -63q60 0 115 32q61 36 73 91zM417 633l-54 -58h-50l81 89h59l43 -89h-51z" />
    <glyph glyph-name="atilde" unicode="&#xe3;" 
d="M220 364h-81q43 174 253 174q55 0 98 -18q69 -29 69 -96q0 -13 -4 -32l-64 -301q-1 -5 -1 -10q0 -21 24 -21q8 0 30 4l-14 -64q-40 -10 -50 -10q-78 0 -78 58q0 9 2 22q-96 -85 -207 -85q-58 0 -95 29q-41 31 -41 88q0 15 4 34q30 144 194 164l149 18q30 4 46 29
q15 22 15 53q0 65 -107 65q-104 0 -142 -101zM422 181l19 86q-26 -17 -152 -33q-115 -15 -130 -85q-3 -14 -3 -28q0 -63 78 -63q60 0 115 32q61 36 73 91zM494 673h31q-8 -28 -29 -48t-48 -20q-11 0 -35 8l-15 5q-30 10 -36 10q-20 0 -36 -28h-30q22 68 80 68q18 0 40 -10
l13 -6q17 -8 28 -8q25 0 37 29z" />
    <glyph glyph-name="adieresis" unicode="&#xe4;" 
d="M220 364h-81q43 174 253 174q55 0 98 -18q69 -29 69 -96q0 -15 -4 -32l-64 -301q-1 -6 -1 -10q0 -21 24 -21q9 0 30 4l-14 -64q-40 -10 -50 -10q-78 0 -78 58q0 10 2 22q-96 -85 -207 -85q-62 0 -99 31.5t-37 85.5q0 16 4 34q31 144 194 164l149 18q47 6 59 62q2 11 2 20
q0 65 -107 65q-105 0 -142 -101zM422 181l19 86q-25 -17 -152 -33q-115 -15 -130 -85q-4 -15 -4 -28q0 -63 79 -63q64 0 121 36t67 87zM393 706l-22 -102h-91l22 102h91zM555 706l-22 -102h-91l22 102h91z" />
    <glyph glyph-name="aring" unicode="&#xe5;" 
d="M220 364h-81q43 174 253 174q55 0 98 -18q69 -29 69 -96q0 -15 -4 -32l-64 -301q-1 -6 -1 -10q0 -21 24 -21q9 0 30 4l-14 -64q-40 -10 -50 -10q-78 0 -78 58q0 10 2 22q-96 -85 -207 -85q-62 0 -99 31.5t-37 85.5q0 16 4 34q31 144 194 164l149 18q47 6 59 62q2 11 2 20
q0 65 -107 65q-105 0 -142 -101zM422 181l19 86q-25 -17 -152 -33q-115 -15 -130 -85q-4 -15 -4 -28q0 -63 79 -63q64 0 121 36t67 87zM440 756q34 0 54 -19.5t20 -51.5q0 -45 -34 -79t-79 -34q-34 0 -54.5 19.5t-20.5 51.5q0 45 34 79t80 34zM367 653q0 -41 42 -41
q25 0 44.5 19t19.5 44q0 41 -42 41q-25 0 -44.5 -19t-19.5 -44z" />
    <glyph glyph-name="ae" unicode="&#xe6;" horiz-adv-x="778" 
d="M715 359q9 42 9 84q0 96 -51 152t-146 56q-120 0 -207 -88q-79 -80 -105 -204q-9 -42 -9 -84q0 -96 51 -152t146 -56q120 0 207 88q79 81 105 204zM815 359q-30 -143 -127 -247q-122 -131 -303 -131q-135 0 -207.5 73.5t-72.5 207.5q0 50 10 97q31 144 127 247
q122 131 304 131q134 0 206.5 -73.5t72.5 -206.5q0 -51 -10 -98zM545 790l-80 113h86l47 -113h-53z" />
    <glyph glyph-name="ccedilla" unicode="&#xe7;" horiz-adv-x="500" 
d="M551 347h-85q6 112 -100 112q-75 0 -127 -64q-42 -52 -59 -133q-10 -45 -10 -81q0 -120 110 -120q45 0 86.5 32.5t64.5 91.5h85q-25 -78 -80 -131q-72 -69 -175 -69q-90 0 -138.5 51.5t-48.5 137.5q0 35 9 73q27 129 104 206q84 85 208 85q83 0 124 -48q34 -40 34 -107
q0 -18 -2 -36zM605 209h-288l-119 -209h-100l423 718h110l107 -718h-106zM366 295h223l-39 316h-2zM549 772l-80 113h86l47 -113h-53z" />
    <glyph glyph-name="egrave" unicode="&#xe8;" 
d="M456 164h88q-8 -26 -37 -64q-87 -115 -236 -115q-88 0 -137 50t-49 138q0 37 8 74q28 128 103 205q84 86 209 86q174 0 174 -194q0 -50 -13 -111h-382q-7 -32 -7 -58q0 -114 122 -114q58 0 106 37q41 31 51 66zM198 303h291q4 23 4 43q0 113 -116 113q-61 0 -113 -47
t-66 -109zM392 599l-72 102h77l43 -102h-48z" />
    <glyph glyph-name="eacute" unicode="&#xe9;" 
d="M456 164h88q-8 -26 -37 -64q-87 -115 -236 -115q-88 0 -137 50t-49 138q0 37 8 74q28 128 103 205q84 86 209 86q174 0 174 -194q0 -50 -13 -111h-382q-7 -32 -7 -58q0 -114 122 -114q58 0 106 37q41 31 51 66zM198 303h291q4 23 4 43q0 113 -116 113q-61 0 -113 -47
t-66 -109zM557 701l-115 -102h-48l86 102h77z" />
    <glyph glyph-name="ecircumflex" unicode="&#xea;" 
d="M456 164h88q-8 -26 -37 -64q-87 -115 -236 -115q-88 0 -137 50t-49 138q0 37 8 74q28 128 103 205q84 86 209 86q174 0 174 -194q0 -50 -13 -111h-382q-7 -32 -7 -58q0 -114 122 -114q58 0 106 37q41 31 51 66zM198 303h291q4 23 4 43q0 113 -116 113q-61 0 -113 -47
t-66 -109zM417 633l-54 -58h-50l81 89h59l43 -89h-51z" />
    <glyph glyph-name="edieresis" unicode="&#xeb;" 
d="M456 164h88q-10 -28 -37 -64q-37 -50 -87 -79q-61 -36 -149 -36q-90 0 -138.5 51.5t-48.5 137.5q0 35 9 73q27 129 104 206q84 85 208 85q174 0 174 -193q0 -51 -13 -112h-382q-7 -31 -7 -57q0 -115 122 -115q57 0 105 37q42 32 52 66zM198 303h291q4 22 4 41
q0 115 -116 115q-60 0 -112.5 -47t-66.5 -109zM393 706l-22 -102h-91l22 102h91zM555 706l-22 -102h-91l22 102h91z" />
    <glyph glyph-name="igrave" unicode="&#xec;" horiz-adv-x="222" 
d="M266 523l-111 -523h-88l111 523h88zM198 575l-72 102h77l43 -102h-48z" />
    <glyph glyph-name="iacute" unicode="&#xed;" horiz-adv-x="222" 
d="M266 523l-111 -523h-88l111 523h88zM361 678l-115 -102h-48l86 102h77z" />
    <glyph glyph-name="icircumflex" unicode="&#xee;" horiz-adv-x="278" 
d="M294 523l-111 -523h-88l111 523h88zM285 686l-86 -93h-79l129 141h93l69 -141h-80z" />
    <glyph glyph-name="idieresis" unicode="&#xef;" horiz-adv-x="278" 
d="M294 523l-111 -523h-88l111 523h88zM254 706l-22 -102h-91l22 102h91zM416 706l-22 -102h-91l22 102h91z" />
    <glyph glyph-name="eth" unicode="&#xf0;" 
d="M180 254q-6 -26 -6 -55q0 -138 117 -138q84 0 140 76q39 53 53 117q6 26 6 55q0 138 -117 138q-84 0 -140 -76q-39 -53 -53 -117zM617 697l-118 -51q96 -110 96 -258q0 -45 -10 -90q-34 -163 -131 -246q-78 -67 -171 -67q-102 0 -155 60q-47 53 -47 140q0 125 83 228
q89 110 211 110q82 0 121 -55l3 2q-15 77 -81 142l-137 -62l-33 42l130 57q-34 32 -78 52l82 36q47 -20 80 -51l117 51z" />
    <glyph glyph-name="ntilde" unicode="&#xf1;" 
d="M567 356l-76 -356h-88l68 322q8 34 8 58q0 79 -90 79q-51 0 -95 -34q-60 -46 -80 -140l-61 -285h-88l111 523h83l-16 -74h2q80 89 177 89q151 0 151 -128q0 -25 -6 -54zM542 722v0h50q-15 -47 -48 -78t-75 -31q-21 0 -56 13l-24 9q-40 15 -58 15q-33 0 -56 -44h-48
q37 107 127 107q31 0 64 -15l20 -9q29 -13 45 -13q40 0 59 46z" />
    <glyph glyph-name="ograve" unicode="&#xf2;" 
d="M392 538q93 0 143 -55t50 -148q0 -136 -86 -240q-90 -109 -224 -109q-92 0 -142 55t-50 148q0 135 86 239q91 110 223 110zM175 197q0 -135 116 -135q83 0 139 74q63 83 63 190q0 136 -117 136q-84 0 -139 -74q-62 -83 -62 -191zM392 599l-72 102h77l43 -102h-48z" />
    <glyph glyph-name="oacute" unicode="&#xf3;" 
d="M392 538q93 0 143 -55t50 -148q0 -136 -86 -240q-90 -109 -224 -109q-92 0 -142 55t-50 148q0 135 86 239q91 110 223 110zM175 197q0 -135 116 -135q83 0 139 74q63 83 63 190q0 136 -117 136q-84 0 -139 -74q-62 -83 -62 -191zM557 701l-115 -102h-48l86 102h77z" />
    <glyph glyph-name="ocircumflex" unicode="&#xf4;" 
d="M392 538q93 0 143 -55t50 -148q0 -136 -86 -240q-90 -109 -224 -109q-92 0 -142 55t-50 148q0 135 86 239q91 110 223 110zM175 197q0 -135 116 -135q83 0 139 74q63 83 63 190q0 136 -117 136q-84 0 -139 -74q-62 -83 -62 -191zM417 633l-54 -58h-50l81 89h59l43 -89
h-51z" />
    <glyph glyph-name="otilde" unicode="&#xf5;" 
d="M392 538q93 0 143 -55t50 -148q0 -136 -86 -240q-90 -109 -224 -109q-92 0 -142 55t-50 148q0 135 86 239q91 110 223 110zM175 197q0 -135 116 -135q83 0 139 74q63 83 63 190q0 136 -117 136q-84 0 -139 -74q-62 -83 -62 -191zM494 673h31q-8 -28 -29 -48t-48 -20
q-11 0 -35 8l-15 5q-30 10 -36 10q-20 0 -36 -28h-30q22 68 80 68q18 0 40 -10l13 -6q17 -8 28 -8q25 0 37 29z" />
    <glyph glyph-name="odieresis" unicode="&#xf6;" 
d="M392 538q97 0 148 -61q45 -54 45 -142q0 -134 -86 -238q-92 -111 -224 -111q-97 0 -147 61q-45 54 -45 142q0 134 86 238q91 111 223 111zM182 262q-7 -33 -7 -64q0 -136 116 -136q84 0 139 74q40 53 56 126q7 33 7 64q0 136 -117 136q-83 0 -139 -74q-40 -53 -55 -126z
M393 706l-22 -102h-91l22 102h91zM555 706l-22 -102h-91l22 102h91z" />
    <glyph glyph-name="divide" unicode="&#xf7;" horiz-adv-x="584" 
d="M591 216h-506l15 73h506zM403 524q24 0 39.5 -15.5t15.5 -38.5q0 -31 -26.5 -56.5t-57.5 -25.5q-23 0 -39 15.5t-16 39.5q0 31 26.5 56t57.5 25zM317 117q24 0 39.5 -15.5t15.5 -38.5q0 -31 -26.5 -56.5t-57.5 -25.5q-24 0 -39.5 15.5t-15.5 39.5q0 31 26 56t58 25z" />
    <glyph glyph-name="oslash" unicode="&#xf8;" horiz-adv-x="611" 
d="M647 519l-85 -78q23 -45 23 -106q0 -134 -87 -238q-91 -111 -223 -111q-97 0 -146 60l-75 -68l-25 26l79 72q-25 48 -25 113q0 134 86 238q91 111 223 111q101 0 151 -65l79 72zM181 143l293 267q-29 52 -98 52q-83 0 -139 -74q-40 -53 -55 -126q-14 -66 -1 -119z
M487 373l-290 -265q28 -46 94 -46q84 0 139 74q40 53 56 126q13 63 1 111z" />
    <glyph glyph-name="ugrave" unicode="&#xf9;" 
d="M489 0h-83l16 76l-1 2q-76 -93 -186 -93q-63 0 -99 27q-42 31 -42 92q0 19 5 43l80 376h88l-74 -347q-5 -23 -5 -39q0 -76 82 -76q71 0 121 53q44 47 60 121l61 288h88zM376 575l-72 102h77l43 -102h-48z" />
    <glyph glyph-name="uacute" unicode="&#xfa;" 
d="M489 0h-83l16 76l-1 2q-76 -93 -186 -93q-63 0 -99 27q-42 31 -42 92q0 19 5 43l80 376h88l-74 -347q-5 -23 -5 -39q0 -76 82 -76q71 0 121 53q44 47 60 121l61 288h88zM538 677l-115 -102h-48l86 102h77z" />
    <glyph glyph-name="ucircumflex" unicode="&#xfb;" 
d="M489 0h-83l16 76l-1 2q-77 -93 -186 -93q-59 0 -96 25q-45 31 -45 93q0 21 5 44l80 376h88l-74 -347q-4 -22 -4 -40q0 -75 81 -75q76 0 126 58q40 47 55 116l61 288h88zM424 686l-86 -93h-79l129 141h93l69 -141h-80z" />
    <glyph glyph-name="udieresis" unicode="&#xfc;" 
d="M489 0h-83l16 76l-1 2q-77 -93 -186 -93q-59 0 -96 25q-45 31 -45 93q0 21 5 44l80 376h88l-74 -347q-4 -22 -4 -40q0 -75 81 -75q76 0 126 58q40 47 55 116l61 288h88zM393 706l-22 -102h-91l22 102h91zM555 706l-22 -102h-91l22 102h91z" />
    <glyph glyph-name="yacute" unicode="&#xfd;" horiz-adv-x="500" 
d="M273 97l230 426h97q-138 -244 -297 -513q-62 -105 -97 -152t-68 -61q-26 -11 -87 -11q-10 0 -36 8l17 80q23 -9 51 -9q33 0 52 20q16 17 67 101l-80 537h100l49 -426h2zM501 679l-115 -102h-48l86 102h77z" />
    <glyph glyph-name="thorn" unicode="&#xfe;" 
d="M192 237q-6 -30 -6 -56q0 -63 38 -95q30 -25 74 -25q69 0 119 58q46 53 65 144q10 48 10 81q0 115 -111 115q-141 0 -189 -222zM14 -207l197 925h88l-57 -267h2q74 87 169 87q83 0 129 -52q42 -49 42 -132q0 -37 -8 -77q-24 -114 -89 -193q-82 -99 -203 -99
q-96 0 -124 70h-2l-56 -262h-88z" />
    <glyph glyph-name="ydieresis" unicode="&#xff;" horiz-adv-x="500" 
d="M273 97l230 426h97q-97 -171 -297 -513q-70 -116 -97 -152q-36 -47 -68 -61q-27 -11 -87 -11q-9 0 -36 8l17 80q23 -9 51 -9q34 0 53 20q15 17 66 101l-80 537h100l49 -426h2zM365 706l-22 -102h-91l22 102h91zM527 706l-22 -102h-91l22 102h91z" />
    <glyph glyph-name="glyph271" unicode="&#x102;" horiz-adv-x="667" 
d="M521 209h-288l-119 -209h-100l423 718h110l107 -718h-106zM282 295h223l-39 316h-2zM589 852h34q-31 -96 -132 -96q-92 0 -84 96h35q1 -12 9 -34q15 -22 55 -22q58 0 83 56z" />
    <glyph glyph-name="glyph272" unicode="&#x103;" 
d="M220 364h-81q43 174 253 174q55 0 98 -18q69 -29 69 -96q0 -13 -4 -32l-64 -301q-1 -5 -1 -10q0 -21 24 -21q8 0 30 4l-14 -64q-40 -10 -50 -10q-78 0 -78 58q0 9 2 22q-96 -85 -207 -85q-58 0 -95 29q-41 31 -41 88q0 15 4 34q30 144 194 164l149 18q30 4 46 29
q15 22 15 53q0 65 -107 65q-104 0 -142 -101zM422 181l19 86q-26 -17 -152 -33q-115 -15 -130 -85q-3 -14 -3 -28q0 -63 78 -63q60 0 115 32q61 36 73 91zM482 663h30q-26 -86 -118 -86q-84 0 -76 86h32q6 -50 57 -50t75 50z" />
    <glyph glyph-name="Cacute" unicode="&#x106;" horiz-adv-x="711" 
d="M781 502h-94q0 149 -170 149q-102 0 -181 -72q-85 -77 -114 -213q-13 -61 -13 -110q0 -189 187 -189q64 0 122 36q80 50 125 161h94q-62 -173 -203 -243q-81 -40 -171 -40q-112 0 -179 61q-77 68 -77 201q0 55 14 120q36 168 148 271t267 103q122 0 187 -64
q59 -56 59 -146q0 -13 -1 -25zM652 989l-160 -141h-67l119 141h108z" />
    <glyph glyph-name="cacute" unicode="&#x107;" horiz-adv-x="441" 
d="M551 347h-85q6 112 -100 112q-75 0 -127 -64q-42 -52 -59 -133q-10 -45 -10 -81q0 -120 110 -120q45 0 86.5 32.5t64.5 91.5h85q-25 -78 -80 -131q-72 -69 -175 -69q-90 0 -138.5 51.5t-48.5 137.5q0 35 9 73q27 129 104 206q84 85 208 85q83 0 124 -48q34 -40 34 -107
q0 -18 -2 -36zM453 734l-160 -141h-67l119 141h108z" />
    <glyph glyph-name="Ccaron" unicode="&#x10c;" horiz-adv-x="711" 
d="M781 502h-94q0 149 -170 149q-102 0 -181 -72q-85 -77 -114 -213q-13 -61 -13 -110q0 -189 187 -189q64 0 122 36q80 50 125 161h94q-62 -173 -203 -243q-81 -40 -171 -40q-112 0 -179 61q-77 68 -77 201q0 55 14 120q36 168 148 271t267 103q122 0 187 -64
q59 -56 59 -146q0 -13 -1 -25zM433 989l46 -93l86 93h80l-129 -141h-93l-69 141h79z" />
    <glyph glyph-name="ccaron" unicode="&#x10d;" horiz-adv-x="441" 
d="M551 347h-85q6 112 -100 112q-75 0 -127 -64q-42 -52 -59 -133q-10 -45 -10 -81q0 -120 110 -120q45 0 86.5 32.5t64.5 91.5h85q-25 -78 -80 -131q-72 -69 -175 -69q-90 0 -138.5 51.5t-48.5 137.5q0 35 9 73q27 129 104 206q84 85 208 85q83 0 124 -48q34 -40 34 -107
q0 -18 -2 -36zM234 734l46 -93l86 93h80l-129 -141h-93l-69 141h79z" />
    <glyph glyph-name="Dslash" unicode="&#x110;" horiz-adv-x="722" 
d="M458 412l-19 -86h-192l-51 -243h188q129 0 209 128q69 110 69 248q0 176 -168 176h-181l-47 -223h192zM69 326l19 86h81l65 306h291q114 0 176 -66t62 -181q0 -49 -11 -102q-23 -113 -88 -207q-112 -162 -296 -162h-287l69 326h-81z" />
    <glyph glyph-name="dcroat" unicode="&#x111;" 
d="M182 263q-9 -42 -9 -75q0 -127 107 -127q70 0 120 55q44 48 60 121q12 56 12 98q0 124 -105 124q-143 0 -185 -196zM632 625h52l-11 -50h-52l-122 -575h-83l15 72h-2q-65 -87 -167 -87q-90 0 -136 57q-42 51 -42 143q0 45 10 92q23 110 91 181q76 80 182 80q95 0 137 -89
l4 7l25 119h-168l11 50h168l20 93h88z" />
    <glyph glyph-name="Gbreve" unicode="&#x11e;" horiz-adv-x="767" 
d="M453 301l18 83h315l-82 -384h-63l-3 93q-48 -51 -118 -81.5t-143 -30.5q-135 0 -203 81q-64 76 -64 184q0 48 16 119q31 147 135 252q120 120 284 120q110 0 182 -58q81 -66 71 -179h-94q-5 151 -183 151q-101 0 -181 -75q-87 -80 -115 -216q-13 -59 -13 -106
q0 -190 189 -190q89 0 156 46q93 63 120 191h-224zM624 986h48q-44 -136 -188 -136q-121 0 -121 110q0 11 1 26h49q6 -43 26 -61t66 -18q52 0 84 28q18 16 35 51z" />
    <glyph glyph-name="gbreve" unicode="&#x11f;" horiz-adv-x="492" 
d="M187 263q-9 -40 -9 -74q0 -128 107 -128q54 0 100 36q61 47 80 140q12 56 12 97q0 125 -105 125q-143 0 -185 -196zM610 523l-102 -480q-22 -103 -65 -160q-77 -103 -234 -103q-69 0 -111 26q-64 39 -56 130h88q-1 -83 101 -83q98 0 146 69q25 36 42 115l5 22h-2l-1 -4
q-59 -70 -154 -70t-140 62q-38 51 -38 138q0 45 10 92q24 114 96 186q76 75 177 75q94 0 137 -89h2l16 74h83zM424 731h48q-44 -136 -188 -136q-121 0 -121 110q0 11 1 26h49q6 -43 26 -61t66 -18q52 0 84 28q18 16 35 51z" />
    <glyph glyph-name="glyph273" unicode="&#x128;" horiz-adv-x="278" 
d="M341 718l-153 -718h-97l153 718h97zM378 860h35q-10 -31 -31 -52q-24 -24 -55 -24q-13 0 -39 9l-17 6q-31 11 -40 11q-23 0 -39 -31h-34q26 75 89 75q19 0 45 -11l14 -6q21 -9 31 -9q29 0 41 32z" />
    <glyph glyph-name="glyph274" unicode="&#x129;" horiz-adv-x="222" 
d="M266 523l-111 -523h-88l111 523h88zM309 648h31q-8 -28 -29 -48t-48 -20q-11 0 -35 8l-15 5q-30 10 -36 10q-20 0 -36 -28h-30q22 68 80 68q18 0 40 -10l13 -6q17 -8 28 -8q25 0 37 29z" />
    <glyph glyph-name="Idotaccent" unicode="&#x130;" horiz-adv-x="429" 
d="M341 718l-153 -718h-97l153 718h97zM389 961l-22 -102h-91l22 102h91z" />
    <glyph glyph-name="dotlessi" unicode="&#x131;" horiz-adv-x="278" 
d="M294 523l-111 -523h-88l111 523h88z" />
    <glyph glyph-name="Lslash" unicode="&#x141;" 
d="M402 520l-13 -58l-132 -67l-66 -309h364l-18 -86h-461l73 344l-108 -55l13 58l107 55l68 316h97l-57 -265z" />
    <glyph glyph-name="lslash" unicode="&#x142;" horiz-adv-x="222" 
d="M334 435l-97 -50l-82 -385h-88l72 339l-98 -50l13 58l97 50l69 321h88l-59 -275l98 50z" />
    <glyph glyph-name="OE" unicode="&#x152;" horiz-adv-x="278" 
d="M341 718l-153 -718h-97l153 718h97zM447 892l-128 -113h-53l95 113h86z" />
    <glyph glyph-name="oe" unicode="&#x153;" horiz-adv-x="944" 
d="M583 303h292q4 22 4 41q0 115 -116 115q-60 0 -113 -47t-67 -109zM842 164h88q-10 -28 -37 -64q-37 -50 -87 -79q-61 -36 -149 -36q-125 0 -173 101q-73 -101 -209 -100q-97 0 -147 61q-45 54 -45 142q0 134 86 238q91 112 223 111t174 -106q92 106 225 106
q174 0 174 -193q0 -51 -13 -112h-383q-7 -31 -7 -56q0 -116 123 -116q57 0 105 37q42 32 52 66zM182 262q-7 -33 -7 -64q0 -136 116 -136q84 0 139 74q40 53 56 126q7 33 7 64q0 136 -117 136q-83 0 -139 -74q-40 -53 -55 -126z" />
    <glyph glyph-name="Scedilla" unicode="&#x15e;" horiz-adv-x="656" 
d="M708 508h-91q3 16 3 30q0 60 -48 91q-39 25 -102 25q-164 0 -191 -126q-2 -12 -2 -22q0 -53 68 -69l195 -47q128 -31 128 -143q0 -23 -6 -49q-24 -116 -131 -172q-84 -45 -196 -45q-141 0 -202 69q-43 48 -43 113q0 29 8 69h91q-4 -22 -4 -42q0 -66 53 -99
q43 -27 114 -27q72 0 125 22q74 31 88 99q4 19 4 33q0 37 -28.5 56.5t-101.5 37.5l-139 34q-122 30 -122 129q0 19 4 40q20 93 91 153q81 69 204 69q236 0 236 -174q0 -24 -5 -55zM560 209h-288l-119 -209h-100l423 718h110l107 -718h-106zM321 295h223l-39 316h-2zM504 772
l-80 113h86l47 -113h-53z" />
    <glyph glyph-name="scedilla" unicode="&#x15f;" horiz-adv-x="383" 
d="M526 374h-85q3 11 3 20q0 68 -108 68q-42 0 -74 -17q-38 -20 -46 -57q-1 -9 -1 -15q0 -22 20 -34q15 -9 62 -21l83 -22q121 -32 121 -106q0 -15 -3 -32q-17 -79 -85.5 -126t-158.5 -47q-191 0 -191 135q0 20 5 48h85q-2 -14 -2 -25q0 -82 118 -82q51 0 88 20q41 22 50 63
q1 8 1 15q0 22 -20 34.5t-69 25.5l-97 25q-97 25 -97 98q0 14 3 29q17 81 87 127q63 40 146 40q168 0 168 -133q0 -17 -3 -31zM463 209h-288l-119 -209h-100l423 718h110l107 -718h-106zM224 295h223l-39 316h-2zM407 772l-80 113h86l47 -113h-53z" />
    <glyph glyph-name="Scaron" unicode="&#x160;" horiz-adv-x="667" 
d="M708 508h-91q3 16 3 30q0 60 -48 91q-39 25 -102 25q-164 0 -191 -126q-2 -12 -2 -22q0 -53 68 -69l195 -47q128 -31 128 -143q0 -23 -6 -49q-24 -116 -131 -172q-84 -45 -196 -45q-141 0 -202 69q-43 48 -43 113q0 29 8 69h91q-4 -22 -4 -42q0 -66 53 -99
q43 -27 114 -27q72 0 125 22q74 31 88 99q4 19 4 33q0 37 -28.5 56.5t-101.5 37.5l-139 34q-122 30 -122 129q0 19 4 40q20 93 91 153q81 69 204 69q236 0 236 -174q0 -24 -5 -55zM464 929l46 -93l86 93h80l-129 -141h-93l-69 141h79z" />
    <glyph glyph-name="scaron" unicode="&#x161;" horiz-adv-x="500" 
d="M526 374h-85q3 11 3 20q0 68 -108 68q-42 0 -74 -17q-38 -20 -46 -57q-1 -9 -1 -15q0 -22 20 -34q15 -9 62 -21l83 -22q121 -32 121 -106q0 -15 -3 -32q-17 -79 -85.5 -126t-158.5 -47q-191 0 -191 135q0 20 5 48h85q-2 -14 -2 -25q0 -82 118 -82q51 0 88 20q41 22 50 63
q1 8 1 15q0 22 -20 34.5t-69 25.5l-97 25q-97 25 -97 98q0 14 3 29q17 81 87 127q63 40 146 40q168 0 168 -133q0 -17 -3 -31zM340 734l46 -93l86 93h80l-129 -141h-93l-69 141h79z" />
    <glyph glyph-name="ch903" unicode="&#x168;" horiz-adv-x="722" 
d="M700 718h97l-99 -466q-27 -128 -121 -199.5t-226 -71.5q-102 0 -162 46q-66 50 -66 149q0 30 7 63l102 479h97l-96 -452q-7 -33 -7 -63q0 -136 146 -136q92 0 153 53q58 51 78 144zM612 847h35q-10 -31 -31 -52q-24 -24 -55 -24q-13 0 -39 9l-17 6q-31 11 -40 11
q-23 0 -39 -31h-34q26 75 89 75q19 0 45 -11l14 -6q21 -9 31 -9q29 0 41 32z" />
    <glyph glyph-name="ch904" unicode="&#x169;" 
d="M489 0h-83l16 76l-1 2q-76 -93 -186 -93q-63 0 -99 27q-42 31 -42 92q0 19 5 43l80 376h88l-74 -347q-5 -23 -5 -39q0 -76 82 -76q71 0 121 53q44 47 60 121l61 288h88zM471 648h31q-8 -28 -29 -48t-48 -20q-11 0 -35 8l-15 5q-30 10 -36 10q-20 0 -36 -28h-30
q22 68 80 68q18 0 40 -10l13 -6q17 -8 28 -8q25 0 37 29z" />
    <glyph glyph-name="Ydieresis" unicode="&#x178;" horiz-adv-x="667" 
d="M443 289l-61 -289h-97l61 289l-179 429h113l132 -345l280 345h114zM489 901l-22 -102h-91l22 102h91zM651 901l-22 -102h-91l22 102h91z" />
    <glyph glyph-name="Zcaron" unicode="&#x17d;" horiz-adv-x="611" 
d="M606 86l-18 -86h-565l17 81l557 551h-407l19 86h532l-18 -84l-559 -548h442zM436 929l46 -93l86 93h80l-129 -141h-93l-69 141h79z" />
    <glyph glyph-name="zcaron" unicode="&#x17e;" horiz-adv-x="500" 
d="M556 451l-392 -378h321l-16 -73h-438l15 69l396 381h-291l15 73h405zM340 734l46 -93l86 93h80l-129 -141h-93l-69 141h79z" />
    <glyph glyph-name="florin" unicode="&#x192;" 
d="M654 722l-31 -78q-38 17 -53 17q-63 0 -102 -97l-42 -103h114l-15 -70h-127l-129 -327q-108 -271 -262 -271q-36 0 -59 12l32 81q25 -14 48 -14q45 0 79 47q25 34 62 127l137 345h-109l15 70h123l54 124q27 60 75 103q55 49 116 49q38 0 74 -15z" />
    <glyph glyph-name="glyph277" unicode="&#x1a0;" horiz-adv-x="778" 
d="M715 359q9 42 9 84q0 96 -51 152t-146 56q-120 0 -207 -88q-79 -80 -105 -204q-9 -42 -9 -84q0 -96 51 -152t146 -56q120 0 207 88q79 81 105 204zM727 685q38 22 44 52q5 25 -22 25q-16 0 -34 -7l-5 20q29 11 51 11q50 0 50 -37q0 -11 -7 -26q-18 -38 -62 -50
q83 -75 83 -217q0 -50 -10 -97q-30 -143 -127 -247q-122 -131 -303 -131q-135 0 -207.5 73.5t-72.5 207.5q0 50 10 97q31 144 127 247q122 131 304 131q113 0 181 -52z" />
    <glyph glyph-name="glyph278" unicode="&#x1a1;" 
d="M175 197q0 -135 116 -135q83 0 139 74q63 83 63 190q0 136 -117 136q-84 0 -139 -74q-62 -83 -62 -191zM499 512q33 19 38 45q5 23 -20 23q-14 0 -31 -7l-4 18q23 10 46 10q45 0 45 -32q0 -24 -17 -42.5t-41 -25.5q70 -53 70 -166q0 -135 -86 -239q-91 -110 -224 -110
q-92 0 -142 55t-50 148q0 135 86 239q91 110 223 110q62 0 107 -26z" />
    <glyph glyph-name="glyph279" unicode="&#x1af;" horiz-adv-x="722" 
d="M789 679l-91 -427q-27 -128 -121 -199.5t-226 -71.5q-102 0 -162 46q-66 50 -66 149q0 30 7 63l102 479h97l-96 -452q-7 -33 -7 -63q0 -136 146 -136q92 0 153 53q58 51 78 144l97 454h95q5 6 7 19q5 25 -22 25q-16 0 -34 -7l-5 20q29 11 51 11q51 0 51 -34
q0 -49 -54 -73z" />
    <glyph glyph-name="glyph280" unicode="&#x1b0;" 
d="M595 501l-106 -501h-83l16 76l-1 2q-76 -93 -186 -93q-63 0 -99 27q-42 31 -42 92q0 19 5 43l80 376h88l-74 -347q-5 -23 -5 -39q0 -76 82 -76q71 0 121 53q44 47 60 121l61 288h83q18 13 22 34q5 23 -20 23q-14 0 -31 -7l-4 18q23 10 46 10q45 0 45 -32q0 -49 -58 -68z
" />
    <glyph glyph-name="circumflex" unicode="&#x2c6;" horiz-adv-x="333" 
d="M312 686l-86 -93h-79l129 141h93l69 -141h-80z" />
    <glyph glyph-name="caron" unicode="&#x2c7;" horiz-adv-x="333" 
d="M256 734l46 -93l86 93h80l-129 -141h-93l-69 141h79z" />
    <glyph glyph-name="breve" unicode="&#x2d8;" horiz-adv-x="333" 
d="M428 731h48q-44 -136 -188 -136q-121 0 -121 110q0 11 1 26h49q6 -43 26 -61t66 -18q52 0 84 28q18 16 35 51z" />
    <glyph glyph-name="dotaccent" unicode="&#x2d9;" horiz-adv-x="333" 
d="M362 706l-22 -102h-91l22 102h91z" />
    <glyph glyph-name="ring" unicode="&#x2da;" horiz-adv-x="333" 
d="M328 756q34 0 54 -19.5t20 -51.5q0 -45 -34 -79t-79 -34q-34 0 -54.5 19.5t-20.5 51.5q0 45 34 79t80 34zM255 653q0 -41 42 -41q25 0 44.5 19t19.5 44q0 41 -42 41q-25 0 -44.5 -19t-19.5 -44z" />
    <glyph glyph-name="ogonek" unicode="&#x2db;" horiz-adv-x="333" 
d="M235 -163l9 -40q-56 -22 -101 -22q-47 0 -73.5 20.5t-26.5 53.5q0 9 2 18q7 36 34 69q38 47 103 64h67l-1 -4q-66 -33 -92 -59t-34 -65q-2 -7 -2 -14q0 -36 47 -36q28 0 68 15z" />
    <glyph glyph-name="tilde" unicode="&#x2dc;" horiz-adv-x="333" 
d="M440 722v0h50q-15 -47 -48 -78t-75 -31q-21 0 -56 13l-24 9q-40 15 -58 15q-33 0 -56 -44h-48q37 107 127 107q31 0 64 -15l20 -9q29 -13 45 -13q40 0 59 46z" />
    <glyph glyph-name="hungarumlaut" unicode="&#x2dd;" horiz-adv-x="778" 
d="M715 359q9 42 9 84q0 96 -51 152t-146 56q-120 0 -207 -88q-79 -80 -105 -204q-9 -42 -9 -84q0 -96 51 -152t146 -56q120 0 207 88q79 81 105 204zM815 359q-30 -143 -127 -247q-122 -131 -303 -131q-135 0 -207.5 73.5t-72.5 207.5q0 50 10 97q31 144 127 247
q122 131 304 131q134 0 206.5 -73.5t72.5 -206.5q0 -51 -10 -98zM652 877h35q-10 -31 -31 -52q-24 -24 -55 -24q-13 0 -39 9l-17 6q-31 11 -40 11q-23 0 -39 -31h-34q26 75 89 75q19 0 45 -11l14 -6q21 -9 31 -9q29 0 41 32z" />
    <glyph glyph-name="glyph281" unicode="&#x1ea0;" horiz-adv-x="667" 
d="M521 209h-288l-119 -209h-100l423 718h110l107 -718h-106zM282 295h223l-39 316h-2zM385 -35l-18 -84h-83l18 84h83z" />
    <glyph glyph-name="glyph282" unicode="&#x1ea1;" 
d="M220 364h-81q43 174 253 174q55 0 98 -18q69 -29 69 -96q0 -13 -4 -32l-64 -301q-1 -5 -1 -10q0 -21 24 -21q8 0 30 4l-14 -64q-40 -10 -50 -10q-78 0 -78 58q0 9 2 22q-96 -85 -207 -85q-58 0 -95 29q-41 31 -41 88q0 15 4 34q30 144 194 164l149 18q30 4 46 29
q15 22 15 53q0 65 -107 65q-104 0 -142 -101zM422 181l19 86q-26 -17 -152 -33q-115 -15 -130 -85q-3 -14 -3 -28q0 -63 78 -63q60 0 115 32q61 36 73 91zM280 -125h-63l17 72h63z" />
    <glyph glyph-name="glyph283" unicode="&#x1ea2;" horiz-adv-x="667" 
d="M521 209h-288l-119 -209h-100l423 718h110l107 -718h-106zM282 295h223l-39 316h-2zM472 857h-31q16 84 98 84q63 0 63 -53q0 -38 -48 -76q-15 -12 -31 -24q-10 -10 -15 -33h-31q6 27 17 39q3 3 33 29q41 35 41 59q0 32 -37 32q-48 0 -59 -57z" />
    <glyph glyph-name="glyph284" unicode="&#x1ea3;" 
d="M220 364h-81q43 174 253 174q55 0 98 -18q69 -29 69 -96q0 -13 -4 -32l-64 -301q-1 -5 -1 -10q0 -21 24 -21q8 0 30 4l-14 -64q-40 -10 -50 -10q-78 0 -78 58q0 9 2 22q-96 -85 -207 -85q-58 0 -95 29q-41 31 -41 88q0 15 4 34q30 144 194 164l149 18q30 4 46 29
q15 22 15 53q0 65 -107 65q-104 0 -142 -101zM422 181l19 86q-26 -17 -152 -33q-115 -15 -130 -85q-3 -14 -3 -28q0 -63 78 -63q60 0 115 32q61 36 73 91zM388 674h-28q13 75 88 75q57 0 57 -48q0 -36 -43 -68q-14 -10 -26 -20.5t-16 -30.5h-28q5 24 15 35q1 1 30 26
q18 15 22 20q11 11 14 25q1 6 1 11q0 26 -33 26q-46 0 -53 -51z" />
    <glyph glyph-name="glyph285" unicode="&#x1ea4;" horiz-adv-x="667" 
d="M521 209h-288l-119 -209h-100l423 718h110l107 -718h-106zM282 295h223l-39 316h-2zM498 820l-60 -65h-55l90 99h65l48 -99h-56zM762 932l-128 -113h-53l95 113h86z" />
    <glyph glyph-name="glyph286" unicode="&#x1ea5;" 
d="M220 364h-81q43 174 253 174q55 0 98 -18q69 -29 69 -96q0 -13 -4 -32l-64 -301q-1 -5 -1 -10q0 -21 24 -21q8 0 30 4l-14 -64q-40 -10 -50 -10q-78 0 -78 58q0 9 2 22q-96 -85 -207 -85q-58 0 -95 29q-41 31 -41 88q0 15 4 34q30 144 194 164l149 18q30 4 46 29
q15 22 15 53q0 65 -107 65q-104 0 -142 -101zM422 181l19 86q-26 -17 -152 -33q-115 -15 -130 -85q-3 -14 -3 -28q0 -63 78 -63q60 0 115 32q61 36 73 91zM417 633l-54 -58h-50l81 89h59l43 -89h-51zM654 734l-115 -102h-48l86 102h77z" />
    <glyph glyph-name="glyph287" unicode="&#x1ea6;" horiz-adv-x="667" 
d="M521 209h-288l-119 -209h-100l423 718h110l107 -718h-106zM282 295h223l-39 316h-2zM498 820l-60 -65h-55l90 99h65l48 -99h-56zM366 819l-80 113h86l47 -113h-53z" />
    <glyph glyph-name="glyph288" unicode="&#x1ea7;" 
d="M220 364h-81q43 174 253 174q55 0 98 -18q69 -29 69 -96q0 -13 -4 -32l-64 -301q-1 -5 -1 -10q0 -21 24 -21q8 0 30 4l-14 -64q-40 -10 -50 -10q-78 0 -78 58q0 9 2 22q-96 -85 -207 -85q-58 0 -95 29q-41 31 -41 88q0 15 4 34q30 144 194 164l149 18q30 4 46 29
q15 22 15 53q0 65 -107 65q-104 0 -142 -101zM422 181l19 86q-26 -17 -152 -33q-115 -15 -130 -85q-3 -14 -3 -28q0 -63 78 -63q60 0 115 32q61 36 73 91zM415 634l-54 -58h-50l81 89h59l43 -89h-51zM296 633l-72 102h77l43 -102h-48z" />
    <glyph glyph-name="glyph289" unicode="&#x1ea8;" horiz-adv-x="667" 
d="M521 209h-288l-119 -209h-100l423 718h110l107 -718h-106zM282 295h223l-39 316h-2zM498 820l-60 -65h-55l90 99h65l48 -99h-56zM594 920h-31q16 84 98 84q63 0 63 -53q0 -38 -48 -76q-15 -12 -31 -24q-10 -10 -15 -33h-31q6 27 17 39q3 3 33 29q41 35 41 59q0 32 -37 32
q-48 0 -59 -57z" />
    <glyph glyph-name="glyph290" unicode="&#x1ea9;" 
d="M220 364h-81q43 174 253 174q55 0 98 -18q69 -29 69 -96q0 -13 -4 -32l-64 -301q-1 -5 -1 -10q0 -21 24 -21q8 0 30 4l-14 -64q-40 -10 -50 -10q-78 0 -78 58q0 9 2 22q-96 -85 -207 -85q-58 0 -95 29q-41 31 -41 88q0 15 4 34q30 144 194 164l149 18q30 4 46 29
q15 22 15 53q0 65 -107 65q-104 0 -142 -101zM422 181l19 86q-26 -17 -152 -33q-115 -15 -130 -85q-3 -14 -3 -28q0 -63 78 -63q60 0 115 32q61 36 73 91zM416 636l-54 -59h-49l81 89h58l44 -89h-51zM503 726h-28q13 75 88 75q57 0 57 -48q0 -36 -43 -68q-14 -10 -26 -20.5
t-16 -30.5h-28q5 24 15 35q1 1 30 26q18 15 22 20q11 11 14 25q1 6 1 11q0 26 -33 26q-46 0 -53 -51z" />
    <glyph glyph-name="glyph291" unicode="&#x1eaa;" horiz-adv-x="667" 
d="M521 209h-288l-119 -209h-100l423 718h110l107 -718h-106zM282 295h223l-39 316h-2zM498 820l-60 -65h-55l90 99h65l48 -99h-56zM584 959h35q-10 -31 -31 -52q-24 -24 -55 -24q-13 0 -39 9l-17 6q-31 11 -40 11q-23 0 -39 -31h-34q26 75 89 75q19 0 45 -11l14 -6
q21 -9 31 -9q29 0 41 32z" />
    <glyph glyph-name="glyph292" unicode="&#x1eab;" 
d="M220 364h-81q43 174 253 174q55 0 98 -18q69 -29 69 -96q0 -13 -4 -32l-64 -301q-1 -5 -1 -10q0 -21 24 -21q8 0 30 4l-14 -64q-40 -10 -50 -10q-78 0 -78 58q0 9 2 22q-96 -85 -207 -85q-58 0 -95 29q-41 31 -41 88q0 15 4 34q30 144 194 164l149 18q30 4 46 29
q15 22 15 53q0 65 -107 65q-104 0 -142 -101zM422 181l19 86q-26 -17 -152 -33q-115 -15 -130 -85q-3 -14 -3 -28q0 -63 78 -63q60 0 115 32q61 36 73 91zM416 634l-54 -58h-49l81 89h58l44 -89h-51zM494 759h31q-8 -28 -29 -48t-48 -20q-11 0 -35 8l-15 5q-30 10 -36 10
q-20 0 -36 -28h-30q22 68 80 68q18 0 40 -10l13 -6q17 -8 28 -8q25 0 37 29z" />
    <glyph glyph-name="glyph293" unicode="&#x1eac;" horiz-adv-x="667" 
d="M521 209h-288l-119 -209h-100l423 718h110l107 -718h-106zM282 295h223l-39 316h-2zM498 820l-60 -65h-55l90 99h65l48 -99h-56zM385 -35l-18 -84h-83l18 84h83z" />
    <glyph glyph-name="glyph294" unicode="&#x1ead;" 
d="M220 364h-81q43 174 253 174q55 0 98 -18q69 -29 69 -96q0 -13 -4 -32l-64 -301q-1 -5 -1 -10q0 -21 24 -21q8 0 30 4l-14 -64q-40 -10 -50 -10q-78 0 -78 58q0 9 2 22q-96 -85 -207 -85q-58 0 -95 29q-41 31 -41 88q0 15 4 34q30 144 194 164l149 18q30 4 46 29
q15 22 15 53q0 65 -107 65q-104 0 -142 -101zM422 181l19 86q-26 -17 -152 -33q-115 -15 -130 -85q-3 -14 -3 -28q0 -63 78 -63q60 0 115 32q61 36 73 91zM417 633l-54 -58h-50l81 89h59l43 -89h-51zM280 -125h-63l17 72h63z" />
    <glyph glyph-name="glyph295" unicode="&#x1eae;" horiz-adv-x="667" 
d="M521 209h-288l-119 -209h-100l423 718h110l107 -718h-106zM282 295h223l-39 316h-2zM589 852h34q-31 -96 -132 -96q-92 0 -84 96h35q1 -12 9 -34q15 -22 55 -22q58 0 83 56zM647 965l-128 -113h-53l95 113h86z" />
    <glyph glyph-name="glyph296" unicode="&#x1eaf;" 
d="M220 364h-81q43 174 253 174q55 0 98 -18q69 -29 69 -96q0 -13 -4 -32l-64 -301q-1 -5 -1 -10q0 -21 24 -21q8 0 30 4l-14 -64q-40 -10 -50 -10q-78 0 -78 58q0 9 2 22q-96 -85 -207 -85q-58 0 -95 29q-41 31 -41 88q0 15 4 34q30 144 194 164l149 18q30 4 46 29
q15 22 15 53q0 65 -107 65q-104 0 -142 -101zM422 181l19 86q-26 -17 -152 -33q-115 -15 -130 -85q-3 -14 -3 -28q0 -63 78 -63q60 0 115 32q61 36 73 91zM482 663h30q-26 -86 -118 -86q-84 0 -76 86h32q6 -50 57 -50t75 50zM534 765l-115 -102h-48l86 102h77z" />
    <glyph glyph-name="glyph297" unicode="&#x1eb0;" horiz-adv-x="667" 
d="M521 209h-288l-119 -209h-100l423 718h110l107 -718h-106zM282 295h223l-39 316h-2zM589 852h34q-31 -96 -132 -96q-92 0 -84 96h35q1 -12 9 -34q15 -22 55 -22q58 0 83 56zM465 851l-80 113h86l47 -113h-53z" />
    <glyph glyph-name="glyph298" unicode="&#x1eb1;" 
d="M220 364h-81q43 174 253 174q55 0 98 -18q69 -29 69 -96q0 -13 -4 -32l-64 -301q-1 -5 -1 -10q0 -21 24 -21q8 0 30 4l-14 -64q-40 -10 -50 -10q-78 0 -78 58q0 9 2 22q-96 -85 -207 -85q-58 0 -95 29q-41 31 -41 88q0 15 4 34q30 144 194 164l149 18q30 4 46 29
q15 22 15 53q0 65 -107 65q-104 0 -142 -101zM422 181l19 86q-26 -17 -152 -33q-115 -15 -130 -85q-3 -14 -3 -28q0 -63 78 -63q60 0 115 32q61 36 73 91zM483 662h30q-28 -86 -119 -86q-83 0 -75 86h31q6 -50 58 -50q51 0 75 50zM371 661l-72 102h78l42 -102h-48z" />
    <glyph glyph-name="glyph299" unicode="&#x1eb2;" horiz-adv-x="667" 
d="M521 209h-288l-119 -209h-100l423 718h110l107 -718h-106zM282 295h223l-39 316h-2zM589 852h34q-31 -96 -132 -96q-92 0 -84 96h35q1 -12 9 -34q15 -22 55 -22q58 0 83 56zM472 941h-31q16 84 98 84q63 0 63 -53q0 -38 -48 -76q-15 -12 -31 -24q-10 -10 -15 -33h-31
q6 27 17 39q3 3 33 29q41 35 41 59q0 32 -37 32q-48 0 -59 -57z" />
    <glyph glyph-name="glyph300" unicode="&#x1eb3;" 
d="M220 364h-81q43 174 253 174q55 0 98 -18q69 -29 69 -96q0 -13 -4 -32l-64 -301q-1 -5 -1 -10q0 -21 24 -21q8 0 30 4l-14 -64q-40 -10 -50 -10q-78 0 -78 58q0 9 2 22q-96 -85 -207 -85q-58 0 -95 29q-41 31 -41 88q0 15 4 34q30 144 194 164l149 18q30 4 46 29
q15 22 15 53q0 65 -107 65q-104 0 -142 -101zM422 181l19 86q-26 -17 -152 -33q-115 -15 -130 -85q-3 -14 -3 -28q0 -63 78 -63q60 0 115 32q61 36 73 91zM480 661h31q-28 -86 -119 -86q-80 0 -76 86h32q1 -11 8 -30q14 -20 50 -20q52 0 74 50zM375 741h-28q16 76 88 76
q57 0 57 -49q0 -34 -43 -67q-9 -7 -28 -21q-9 -10 -14 -31h-28q6 24 16 36q1 1 29 26q19 16 22 20q11 12 14 25q1 6 1 11q0 25 -33 25q-43 0 -53 -51z" />
    <glyph glyph-name="glyph301" unicode="&#x1eb4;" horiz-adv-x="667" 
d="M521 209h-288l-119 -209h-100l423 718h110l107 -718h-106zM282 295h223l-39 316h-2zM589 852h34q-31 -96 -132 -96q-92 0 -84 96h35q1 -12 9 -34q15 -22 55 -22q58 0 83 56zM724 949h35q-10 -31 -31 -52q-24 -24 -55 -24q-13 0 -39 9l-17 6q-31 11 -40 11q-23 0 -39 -31
h-34q26 75 89 75q19 0 45 -11l14 -6q21 -9 31 -9q29 0 41 32z" />
    <glyph glyph-name="glyph302" unicode="&#x1eb5;" 
d="M220 364h-81q43 174 253 174q55 0 98 -18q69 -29 69 -96q0 -13 -4 -32l-64 -301q-1 -5 -1 -10q0 -21 24 -21q8 0 30 4l-14 -64q-40 -10 -50 -10q-78 0 -78 58q0 9 2 22q-96 -85 -207 -85q-58 0 -95 29q-41 31 -41 88q0 15 4 34q30 144 194 164l149 18q30 4 46 29
q15 22 15 53q0 65 -107 65q-104 0 -142 -101zM422 181l19 86q-26 -17 -152 -33q-115 -15 -130 -85q-3 -14 -3 -28q0 -63 78 -63q60 0 115 32q61 36 73 91zM480 663h31q-28 -87 -119 -87q-83 0 -75 87h31q1 -10 8 -31q15 -20 50 -20q54 0 74 51zM602 750h31q-21 -69 -77 -69
q-15 0 -35 8l-15 6q-25 10 -36 10q-21 0 -35 -28h-31q24 67 80 67q17 0 41 -10l12 -5q19 -8 28 -8q25 0 37 29z" />
    <glyph glyph-name="glyph303" unicode="&#x1eb6;" horiz-adv-x="667" 
d="M521 209h-288l-119 -209h-100l423 718h110l107 -718h-106zM282 295h223l-39 316h-2zM589 852h34q-31 -96 -132 -96q-92 0 -84 96h35q1 -12 9 -34q15 -22 55 -22q58 0 83 56zM385 -35l-18 -84h-83l18 84h83z" />
    <glyph glyph-name="glyph304" unicode="&#x1eb7;" 
d="M220 364h-81q43 174 253 174q55 0 98 -18q69 -29 69 -96q0 -13 -4 -32l-64 -301q-1 -5 -1 -10q0 -21 24 -21q8 0 30 4l-14 -64q-40 -10 -50 -10q-78 0 -78 58q0 9 2 22q-96 -85 -207 -85q-58 0 -95 29q-41 31 -41 88q0 15 4 34q30 144 194 164l149 18q30 4 46 29
q15 22 15 53q0 65 -107 65q-104 0 -142 -101zM422 181l19 86q-26 -17 -152 -33q-115 -15 -130 -85q-3 -14 -3 -28q0 -63 78 -63q60 0 115 32q61 36 73 91zM280 -125h-63l17 72h63zM482 663h30q-26 -86 -118 -86q-84 0 -76 86h32q6 -50 57 -50t75 50z" />
    <glyph glyph-name="glyph305" unicode="&#x1eb8;" horiz-adv-x="667" 
d="M634 86l-18 -86h-530l153 718h523l-19 -86h-426l-46 -220h393l-19 -86h-393l-51 -240h433zM410 -44l-18 -84h-83l18 84h83z" />
    <glyph glyph-name="glyph306" unicode="&#x1eb9;" 
d="M456 164h88q-8 -26 -37 -64q-87 -115 -236 -115q-88 0 -137 50t-49 138q0 37 8 74q28 128 103 205q84 86 209 86q174 0 174 -194q0 -50 -13 -111h-382q-7 -32 -7 -58q0 -114 122 -114q58 0 106 37q41 31 51 66zM198 303h291q4 23 4 43q0 113 -116 113q-61 0 -113 -47
t-66 -109zM280 -130h-63l17 72h63z" />
    <glyph glyph-name="glyph307" unicode="&#x1eba;" horiz-adv-x="667" 
d="M634 86l-18 -86h-530l153 718h523l-19 -86h-426l-46 -220h393l-19 -86h-393l-51 -240h433zM478 868h-31q16 84 98 84q63 0 63 -53q0 -38 -48 -76q-15 -12 -31 -24q-10 -10 -15 -33h-31q6 27 17 39q3 3 33 29q41 35 41 59q0 32 -37 32q-48 0 -59 -57z" />
    <glyph glyph-name="glyph308" unicode="&#x1ebb;" 
d="M456 164h88q-8 -26 -37 -64q-87 -115 -236 -115q-88 0 -137 50t-49 138q0 37 8 74q28 128 103 205q84 86 209 86q174 0 174 -194q0 -50 -13 -111h-382q-7 -32 -7 -58q0 -114 122 -114q58 0 106 37q41 31 51 66zM198 303h291q4 23 4 43q0 113 -116 113q-61 0 -113 -47
t-66 -109zM388 674h-28q13 75 88 75q57 0 57 -48q0 -36 -43 -68q-14 -10 -26 -20.5t-16 -30.5h-28q5 24 15 35q1 1 30 26q18 15 22 20q11 11 14 25q1 6 1 11q0 26 -33 26q-46 0 -53 -51z" />
    <glyph glyph-name="glyph309" unicode="&#x1ebc;" horiz-adv-x="667" 
d="M634 86l-18 -86h-530l153 718h523l-19 -86h-426l-46 -220h393l-19 -86h-393l-51 -240h433zM594 867h35q-10 -31 -31 -52q-24 -24 -55 -24q-13 0 -39 9l-17 6q-31 11 -40 11q-23 0 -39 -31h-34q26 75 89 75q19 0 45 -11l14 -6q21 -9 31 -9q29 0 41 32z" />
    <glyph glyph-name="glyph310" unicode="&#x1ebd;" 
d="M456 164h88q-8 -26 -37 -64q-87 -115 -236 -115q-88 0 -137 50t-49 138q0 37 8 74q28 128 103 205q84 86 209 86q174 0 174 -194q0 -50 -13 -111h-382q-7 -32 -7 -58q0 -114 122 -114q58 0 106 37q41 31 51 66zM198 303h291q4 23 4 43q0 113 -116 113q-61 0 -113 -47
t-66 -109zM494 673h31q-8 -28 -29 -48t-48 -20q-11 0 -35 8l-15 5q-30 10 -36 10q-20 0 -36 -28h-30q22 68 80 68q18 0 40 -10l13 -6q17 -8 28 -8q25 0 37 29z" />
    <glyph glyph-name="glyph311" unicode="&#x1ebe;" horiz-adv-x="667" 
d="M634 86l-18 -86h-530l153 718h523l-19 -86h-426l-46 -220h393l-19 -86h-393l-51 -240h433zM498 831l-60 -65h-55l90 99h65l48 -99h-56zM762 943l-128 -113h-53l95 113h86z" />
    <glyph glyph-name="glyph312" unicode="&#x1ebf;" 
d="M456 164h88q-8 -26 -37 -64q-87 -115 -236 -115q-88 0 -137 50t-49 138q0 37 8 74q28 128 103 205q84 86 209 86q174 0 174 -194q0 -50 -13 -111h-382q-7 -32 -7 -58q0 -114 122 -114q58 0 106 37q41 31 51 66zM198 303h291q4 23 4 43q0 113 -116 113q-61 0 -113 -47
t-66 -109zM417 633l-54 -58h-50l81 89h59l43 -89h-51zM654 734l-115 -102h-48l86 102h77z" />
    <glyph glyph-name="glyph313" unicode="&#x1ec0;" horiz-adv-x="667" 
d="M634 86l-18 -86h-530l153 718h523l-19 -86h-426l-46 -220h393l-19 -86h-393l-51 -240h433zM498 830l-60 -65h-55l90 99h65l48 -99h-56zM366 829l-80 113h86l47 -113h-53z" />
    <glyph glyph-name="glyph314" unicode="&#x1ec1;" 
d="M456 164h88q-8 -26 -37 -64q-87 -115 -236 -115q-88 0 -137 50t-49 138q0 37 8 74q28 128 103 205q84 86 209 86q174 0 174 -194q0 -50 -13 -111h-382q-7 -32 -7 -58q0 -114 122 -114q58 0 106 37q41 31 51 66zM198 303h291q4 23 4 43q0 113 -116 113q-61 0 -113 -47
t-66 -109zM415 634l-54 -58h-50l81 89h59l43 -89h-51zM296 633l-72 102h77l43 -102h-48z" />
    <glyph glyph-name="glyph315" unicode="&#x1ec2;" horiz-adv-x="667" 
d="M634 86l-18 -86h-530l153 718h523l-19 -86h-426l-46 -220h393l-19 -86h-393l-51 -240h433zM498 830l-60 -65h-55l90 99h65l48 -99h-56zM594 930h-31q16 84 98 84q63 0 63 -53q0 -38 -48 -76q-15 -12 -31 -24q-10 -10 -15 -33h-31q6 27 17 39q3 3 33 29q41 35 41 59
q0 32 -37 32q-48 0 -59 -57z" />
    <glyph glyph-name="glyph316" unicode="&#x1ec3;" 
d="M456 164h88q-8 -26 -37 -64q-87 -115 -236 -115q-88 0 -137 50t-49 138q0 37 8 74q28 128 103 205q84 86 209 86q174 0 174 -194q0 -50 -13 -111h-382q-7 -32 -7 -58q0 -114 122 -114q58 0 106 37q41 31 51 66zM198 303h291q4 23 4 43q0 113 -116 113q-61 0 -113 -47
t-66 -109zM416 636l-54 -59h-49l81 89h58l44 -89h-51zM503 726h-28q13 75 88 75q57 0 57 -48q0 -36 -43 -68q-14 -10 -26 -20.5t-16 -30.5h-28q5 24 15 35q1 1 30 26q18 15 22 20q11 11 14 25q1 6 1 11q0 26 -33 26q-46 0 -53 -51z" />
    <glyph glyph-name="glyph317" unicode="&#x1ec4;" horiz-adv-x="667" 
d="M634 86l-18 -86h-530l153 718h523l-19 -86h-426l-46 -220h393l-19 -86h-393l-51 -240h433zM498 831l-60 -65h-55l90 99h65l48 -99h-56zM584 970h35q-10 -31 -31 -52q-24 -24 -55 -24q-13 0 -39 9l-17 6q-31 11 -40 11q-23 0 -39 -31h-34q26 75 89 75q19 0 45 -11l14 -6
q21 -9 31 -9q29 0 41 32z" />
    <glyph glyph-name="glyph318" unicode="&#x1ec5;" 
d="M456 164h88q-8 -26 -37 -64q-87 -115 -236 -115q-88 0 -137 50t-49 138q0 37 8 74q28 128 103 205q84 86 209 86q174 0 174 -194q0 -50 -13 -111h-382q-7 -32 -7 -58q0 -114 122 -114q58 0 106 37q41 31 51 66zM198 303h291q4 23 4 43q0 113 -116 113q-61 0 -113 -47
t-66 -109zM416 634l-54 -58h-49l81 89h58l44 -89h-51zM494 759h31q-8 -28 -29 -48t-48 -20q-11 0 -35 8l-15 5q-30 10 -36 10q-20 0 -36 -28h-30q22 68 80 68q18 0 40 -10l13 -6q17 -8 28 -8q25 0 37 29z" />
    <glyph glyph-name="glyph319" unicode="&#x1ec6;" horiz-adv-x="667" 
d="M634 86l-18 -86h-530l153 718h523l-19 -86h-426l-46 -220h393l-19 -86h-393l-51 -240h433zM498 831l-60 -65h-55l90 99h65l48 -99h-56zM410 -44l-18 -84h-83l18 84h83z" />
    <glyph glyph-name="glyph320" unicode="&#x1ec7;" 
d="M456 164h88q-8 -26 -37 -64q-87 -115 -236 -115q-88 0 -137 50t-49 138q0 37 8 74q28 128 103 205q84 86 209 86q174 0 174 -194q0 -50 -13 -111h-382q-7 -32 -7 -58q0 -114 122 -114q58 0 106 37q41 31 51 66zM198 303h291q4 23 4 43q0 113 -116 113q-61 0 -113 -47
t-66 -109zM417 633l-54 -58h-50l81 89h59l43 -89h-51zM280 -130h-63l17 72h63z" />
    <glyph glyph-name="glyph321" unicode="&#x1ec8;" horiz-adv-x="278" 
d="M341 718l-153 -718h-97l153 718h97zM270 868h-31q16 84 98 84q63 0 63 -53q0 -38 -48 -76q-15 -12 -31 -24q-10 -10 -15 -33h-31q6 27 17 39q3 3 33 29q41 35 41 59q0 32 -37 32q-48 0 -59 -57z" />
    <glyph glyph-name="glyph322" unicode="&#x1ec9;" horiz-adv-x="222" 
d="M266 523l-111 -523h-88l111 523h88zM204 667h-28q13 75 88 75q57 0 57 -48q0 -36 -43 -68q-14 -10 -26 -20.5t-16 -30.5h-28q5 24 15 35q1 1 30 26q18 15 22 20q11 11 14 25q1 6 1 11q0 26 -33 26q-46 0 -53 -51z" />
    <glyph glyph-name="glyph323" unicode="&#x1eca;" horiz-adv-x="278" 
d="M341 718l-153 -718h-97l153 718h97zM174 -45l-18 -84h-83l18 84h83z" />
    <glyph glyph-name="glyph324" unicode="&#x1ecb;" horiz-adv-x="222" 
d="M266 523l-111 -523h-88l111 523h88zM268 577h-63l17 72h63zM122 -117h-63l17 72h63z" />
    <glyph glyph-name="glyph325" unicode="&#x1ecc;" horiz-adv-x="778" 
d="M715 359q9 42 9 84q0 96 -51 152t-146 56q-120 0 -207 -88q-79 -80 -105 -204q-9 -42 -9 -84q0 -96 51 -152t146 -56q120 0 207 88q79 81 105 204zM815 359q-30 -143 -127 -247q-122 -131 -303 -131q-135 0 -207.5 73.5t-72.5 207.5q0 50 10 97q31 144 127 247
q122 131 304 131q134 0 206.5 -73.5t72.5 -206.5q0 -51 -10 -98zM425 -59l-18 -84h-83l18 84h83z" />
    <glyph glyph-name="glyph326" unicode="&#x1ecd;" 
d="M392 538q93 0 143 -55t50 -148q0 -136 -86 -240q-90 -109 -224 -109q-92 0 -142 55t-50 148q0 135 86 239q91 110 223 110zM175 197q0 -135 116 -135q83 0 139 74q63 83 63 190q0 136 -117 136q-84 0 -139 -74q-62 -83 -62 -191zM280 -130h-63l17 72h63z" />
    <glyph glyph-name="glyph327" unicode="&#x1ece;" horiz-adv-x="778" 
d="M715 359q9 42 9 84q0 96 -51 152t-146 56q-120 0 -207 -88q-79 -80 -105 -204q-9 -42 -9 -84q0 -96 51 -152t146 -56q120 0 207 88q79 81 105 204zM815 359q-30 -143 -127 -247q-122 -131 -303 -131q-135 0 -207.5 73.5t-72.5 207.5q0 50 10 97q31 144 127 247
q122 131 304 131q134 0 206.5 -73.5t72.5 -206.5q0 -51 -10 -98zM540 881h-31q16 84 98 84q63 0 63 -53q0 -38 -48 -76q-15 -12 -31 -24q-10 -10 -15 -33h-31q6 27 17 39q3 3 33 29q41 35 41 59q0 32 -37 32q-48 0 -59 -57z" />
    <glyph glyph-name="glyph328" unicode="&#x1ecf;" 
d="M392 538q93 0 143 -55t50 -148q0 -136 -86 -240q-90 -109 -224 -109q-92 0 -142 55t-50 148q0 135 86 239q91 110 223 110zM175 197q0 -135 116 -135q83 0 139 74q63 83 63 190q0 136 -117 136q-84 0 -139 -74q-62 -83 -62 -191zM388 674h-28q13 75 88 75q57 0 57 -48
q0 -36 -43 -68q-14 -10 -26 -20.5t-16 -30.5h-28q5 24 15 35q1 1 30 26q18 15 22 20q11 11 14 25q1 6 1 11q0 26 -33 26q-46 0 -53 -51z" />
    <glyph glyph-name="glyph329" unicode="&#x1ed0;" horiz-adv-x="778" 
d="M715 359q9 42 9 84q0 96 -51 152t-146 56q-120 0 -207 -88q-79 -80 -105 -204q-9 -42 -9 -84q0 -96 51 -152t146 -56q120 0 207 88q79 81 105 204zM815 359q-30 -143 -127 -247q-122 -131 -303 -131q-135 0 -207.5 73.5t-72.5 207.5q0 50 10 97q31 144 127 247
q122 131 304 131q134 0 206.5 -73.5t72.5 -206.5q0 -51 -10 -98zM570 844l-60 -65h-55l90 99h65l48 -99h-56zM834 956l-128 -113h-53l95 113h86z" />
    <glyph glyph-name="glyph330" unicode="&#x1ed1;" 
d="M392 538q93 0 143 -55t50 -148q0 -136 -86 -240q-90 -109 -224 -109q-92 0 -142 55t-50 148q0 135 86 239q91 110 223 110zM175 197q0 -135 116 -135q83 0 139 74q63 83 63 190q0 136 -117 136q-84 0 -139 -74q-62 -83 -62 -191zM417 633l-54 -58h-50l81 89h59l43 -89
h-51zM654 734l-115 -102h-48l86 102h77z" />
    <glyph glyph-name="glyph331" unicode="&#x1ed2;" horiz-adv-x="778" 
d="M715 359q9 42 9 84q0 96 -51 152t-146 56q-120 0 -207 -88q-79 -80 -105 -204q-9 -42 -9 -84q0 -96 51 -152t146 -56q120 0 207 88q79 81 105 204zM815 359q-30 -143 -127 -247q-122 -131 -303 -131q-135 0 -207.5 73.5t-72.5 207.5q0 50 10 97q31 144 127 247
q122 131 304 131q134 0 206.5 -73.5t72.5 -206.5q0 -51 -10 -98zM570 845l-60 -65h-55l90 99h65l48 -99h-56zM438 844l-80 113h86l47 -113h-53z" />
    <glyph glyph-name="glyph332" unicode="&#x1ed3;" 
d="M392 538q93 0 143 -55t50 -148q0 -136 -86 -240q-90 -109 -224 -109q-92 0 -142 55t-50 148q0 135 86 239q91 110 223 110zM175 197q0 -135 116 -135q83 0 139 74q63 83 63 190q0 136 -117 136q-84 0 -139 -74q-62 -83 -62 -191zM415 634l-54 -58h-50l81 89h59l43 -89
h-51zM296 633l-72 102h77l43 -102h-48z" />
    <glyph glyph-name="glyph333" unicode="&#x1ed4;" horiz-adv-x="778" 
d="M715 359q9 42 9 84q0 96 -51 152t-146 56q-120 0 -207 -88q-79 -80 -105 -204q-9 -42 -9 -84q0 -96 51 -152t146 -56q120 0 207 88q79 81 105 204zM815 359q-30 -143 -127 -247q-122 -131 -303 -131q-135 0 -207.5 73.5t-72.5 207.5q0 50 10 97q31 144 127 247
q122 131 304 131q134 0 206.5 -73.5t72.5 -206.5q0 -51 -10 -98zM571 845l-60 -65h-55l90 99h65l48 -99h-56zM667 945h-31q16 84 98 84q63 0 63 -53q0 -38 -48 -76q-15 -12 -31 -24q-10 -10 -15 -33h-31q6 27 17 39q3 3 33 29q41 35 41 59q0 32 -37 32q-48 0 -59 -57z" />
    <glyph glyph-name="glyph334" unicode="&#x1ed5;" 
d="M392 538q93 0 143 -55t50 -148q0 -136 -86 -240q-90 -109 -224 -109q-92 0 -142 55t-50 148q0 135 86 239q91 110 223 110zM175 197q0 -135 116 -135q83 0 139 74q63 83 63 190q0 136 -117 136q-84 0 -139 -74q-62 -83 -62 -191zM416 636l-54 -59h-49l81 89h58l44 -89
h-51zM503 726h-28q13 75 88 75q57 0 57 -48q0 -36 -43 -68q-14 -10 -26 -20.5t-16 -30.5h-28q5 24 15 35q1 1 30 26q18 15 22 20q11 11 14 25q1 6 1 11q0 26 -33 26q-46 0 -53 -51z" />
    <glyph glyph-name="glyph335" unicode="&#x1ed6;" horiz-adv-x="778" 
d="M715 359q9 42 9 84q0 96 -51 152t-146 56q-120 0 -207 -88q-79 -80 -105 -204q-9 -42 -9 -84q0 -96 51 -152t146 -56q120 0 207 88q79 81 105 204zM815 359q-30 -143 -127 -247q-122 -131 -303 -131q-135 0 -207.5 73.5t-72.5 207.5q0 50 10 97q31 144 127 247
q122 131 304 131q134 0 206.5 -73.5t72.5 -206.5q0 -51 -10 -98zM570 846l-60 -65h-55l90 99h65l48 -99h-56zM656 985h35q-10 -31 -31 -52q-24 -24 -55 -24q-13 0 -39 9l-17 6q-31 11 -40 11q-23 0 -39 -31h-34q26 75 89 75q19 0 45 -11l14 -6q21 -9 31 -9q29 0 41 32z" />
    <glyph glyph-name="glyph336" unicode="&#x1ed7;" 
d="M392 538q93 0 143 -55t50 -148q0 -136 -86 -240q-90 -109 -224 -109q-92 0 -142 55t-50 148q0 135 86 239q91 110 223 110zM175 197q0 -135 116 -135q83 0 139 74q63 83 63 190q0 136 -117 136q-84 0 -139 -74q-62 -83 -62 -191zM416 634l-54 -58h-49l81 89h58l44 -89
h-51zM494 759h31q-8 -28 -29 -48t-48 -20q-11 0 -35 8l-15 5q-30 10 -36 10q-20 0 -36 -28h-30q22 68 80 68q18 0 40 -10l13 -6q17 -8 28 -8q25 0 37 29z" />
    <glyph glyph-name="glyph337" unicode="&#x1ed8;" horiz-adv-x="778" 
d="M715 359q9 42 9 84q0 96 -51 152t-146 56q-120 0 -207 -88q-79 -80 -105 -204q-9 -42 -9 -84q0 -96 51 -152t146 -56q120 0 207 88q79 81 105 204zM815 359q-30 -143 -127 -247q-122 -131 -303 -131q-135 0 -207.5 73.5t-72.5 207.5q0 50 10 97q31 144 127 247
q122 131 304 131q134 0 206.5 -73.5t72.5 -206.5q0 -51 -10 -98zM570 844l-60 -65h-55l90 99h65l48 -99h-56zM425 -59l-18 -84h-83l18 84h83z" />
    <glyph glyph-name="glyph338" unicode="&#x1ed9;" 
d="M392 538q93 0 143 -55t50 -148q0 -136 -86 -240q-90 -109 -224 -109q-92 0 -142 55t-50 148q0 135 86 239q91 110 223 110zM175 197q0 -135 116 -135q83 0 139 74q63 83 63 190q0 136 -117 136q-84 0 -139 -74q-62 -83 -62 -191zM417 633l-54 -58h-50l81 89h59l43 -89
h-51zM280 -130h-63l17 72h63z" />
    <glyph glyph-name="glyph339" unicode="&#x1eda;" horiz-adv-x="778" 
d="M715 359q9 42 9 84q0 96 -51 152t-146 56q-120 0 -207 -88q-79 -80 -105 -204q-9 -42 -9 -84q0 -96 51 -152t146 -56q120 0 207 88q79 81 105 204zM727 685q38 22 44 52q5 25 -22 25q-16 0 -34 -7l-5 20q29 11 51 11q50 0 50 -37q0 -11 -7 -26q-18 -38 -62 -50
q83 -75 83 -217q0 -50 -10 -97q-30 -143 -127 -247q-122 -131 -303 -131q-135 0 -207.5 73.5t-72.5 207.5q0 50 10 97q31 144 127 247q122 131 304 131q113 0 181 -52zM726 912l-128 -113h-53l95 113h86z" />
    <glyph glyph-name="glyph340" unicode="&#x1edb;" 
d="M175 197q0 -135 116 -135q83 0 139 74q63 83 63 190q0 136 -117 136q-84 0 -139 -74q-62 -83 -62 -191zM499 512q33 19 38 45q5 23 -20 23q-14 0 -31 -7l-4 18q23 10 46 10q45 0 45 -32q0 -24 -17 -42.5t-41 -25.5q70 -53 70 -166q0 -135 -86 -239q-91 -110 -224 -110
q-92 0 -142 55t-50 148q0 135 86 239q91 110 223 110q62 0 107 -26zM557 711l-115 -102h-48l86 102h77z" />
    <glyph glyph-name="glyph341" unicode="&#x1edc;" horiz-adv-x="778" 
d="M715 359q9 42 9 84q0 96 -51 152t-146 56q-120 0 -207 -88q-79 -80 -105 -204q-9 -42 -9 -84q0 -96 51 -152t146 -56q120 0 207 88q79 81 105 204zM727 685q38 22 44 52q5 25 -22 25q-16 0 -34 -7l-5 20q29 11 51 11q50 0 50 -37q0 -11 -7 -26q-18 -38 -62 -50
q83 -75 83 -217q0 -50 -10 -97q-30 -143 -127 -247q-122 -131 -303 -131q-135 0 -207.5 73.5t-72.5 207.5q0 50 10 97q31 144 127 247q122 131 304 131q113 0 181 -52zM545 800l-80 113h86l47 -113h-53z" />
    <glyph glyph-name="glyph342" unicode="&#x1edd;" 
d="M175 197q0 -135 116 -135q83 0 139 74q63 83 63 190q0 136 -117 136q-84 0 -139 -74q-62 -83 -62 -191zM499 512q33 19 38 45q5 23 -20 23q-14 0 -31 -7l-4 18q23 10 46 10q45 0 45 -32q0 -24 -17 -42.5t-41 -25.5q70 -53 70 -166q0 -135 -86 -239q-91 -110 -224 -110
q-92 0 -142 55t-50 148q0 135 86 239q91 110 223 110q62 0 107 -26zM392 609l-72 102h77l43 -102h-48z" />
    <glyph glyph-name="glyph343" unicode="&#x1ede;" horiz-adv-x="778" 
d="M715 359q9 42 9 84q0 96 -51 152t-146 56q-120 0 -207 -88q-79 -80 -105 -204q-9 -42 -9 -84q0 -96 51 -152t146 -56q120 0 207 88q79 81 105 204zM727 685q38 22 44 52q5 25 -22 25q-16 0 -34 -7l-5 20q29 11 51 11q50 0 50 -37q0 -11 -7 -26q-18 -38 -62 -50
q83 -75 83 -217q0 -50 -10 -97q-30 -143 -127 -247q-122 -131 -303 -131q-135 0 -207.5 73.5t-72.5 207.5q0 50 10 97q31 144 127 247q122 131 304 131q113 0 181 -52zM540 891h-31q16 84 98 84q63 0 63 -53q0 -38 -48 -76q-15 -12 -31 -24q-10 -10 -15 -33h-31q6 27 17 39
q3 3 33 29q41 35 41 59q0 32 -37 32q-48 0 -59 -57z" />
    <glyph glyph-name="glyph344" unicode="&#x1edf;" 
d="M175 197q0 -135 116 -135q83 0 139 74q63 83 63 190q0 136 -117 136q-84 0 -139 -74q-62 -83 -62 -191zM499 512q33 19 38 45q5 23 -20 23q-14 0 -31 -7l-4 18q23 10 46 10q45 0 45 -32q0 -24 -17 -42.5t-41 -25.5q70 -53 70 -166q0 -135 -86 -239q-91 -110 -224 -110
q-92 0 -142 55t-50 148q0 135 86 239q91 110 223 110q62 0 107 -26zM388 684h-28q13 75 88 75q57 0 57 -48q0 -36 -43 -68q-14 -10 -26 -20.5t-16 -30.5h-28q5 24 15 35q1 1 30 26q18 15 22 20q11 11 14 25q1 6 1 11q0 26 -33 26q-46 0 -53 -51z" />
    <glyph glyph-name="glyph345" unicode="&#x1ee0;" horiz-adv-x="778" 
d="M715 359q9 42 9 84q0 96 -51 152t-146 56q-120 0 -207 -88q-79 -80 -105 -204q-9 -42 -9 -84q0 -96 51 -152t146 -56q120 0 207 88q79 81 105 204zM727 685q38 22 44 52q5 25 -22 25q-16 0 -34 -7l-5 20q29 11 51 11q50 0 50 -37q0 -11 -7 -26q-18 -38 -62 -50
q83 -75 83 -217q0 -50 -10 -97q-30 -143 -127 -247q-122 -131 -303 -131q-135 0 -207.5 73.5t-72.5 207.5q0 50 10 97q31 144 127 247q122 131 304 131q113 0 181 -52zM652 887h35q-10 -31 -31 -52q-24 -24 -55 -24q-13 0 -39 9l-17 6q-31 11 -40 11q-23 0 -39 -31h-34
q26 75 89 75q19 0 45 -11l14 -6q21 -9 31 -9q29 0 41 32z" />
    <glyph glyph-name="glyph346" unicode="&#x1ee1;" 
d="M175 197q0 -135 116 -135q83 0 139 74q63 83 63 190q0 136 -117 136q-84 0 -139 -74q-62 -83 -62 -191zM499 512q33 19 38 45q5 23 -20 23q-14 0 -31 -7l-4 18q23 10 46 10q45 0 45 -32q0 -24 -17 -42.5t-41 -25.5q70 -53 70 -166q0 -135 -86 -239q-91 -110 -224 -110
q-92 0 -142 55t-50 148q0 135 86 239q91 110 223 110q62 0 107 -26zM494 688h31q-8 -28 -29 -48t-48 -20q-11 0 -35 8l-15 5q-30 10 -36 10q-20 0 -36 -28h-30q22 68 80 68q18 0 40 -10l13 -6q17 -8 28 -8q25 0 37 29z" />
    <glyph glyph-name="glyph347" unicode="&#x1ee2;" horiz-adv-x="778" 
d="M715 359q9 42 9 84q0 96 -51 152t-146 56q-120 0 -207 -88q-79 -80 -105 -204q-9 -42 -9 -84q0 -96 51 -152t146 -56q120 0 207 88q79 81 105 204zM727 685q38 22 44 52q5 25 -22 25q-16 0 -34 -7l-5 20q29 11 51 11q50 0 50 -37q0 -11 -7 -26q-18 -38 -62 -50
q83 -75 83 -217q0 -50 -10 -97q-30 -143 -127 -247q-122 -131 -303 -131q-135 0 -207.5 73.5t-72.5 207.5q0 50 10 97q31 144 127 247q122 131 304 131q113 0 181 -52zM425 -59l-18 -84h-83l18 84h83z" />
    <glyph glyph-name="glyph348" unicode="&#x1ee3;" 
d="M175 197q0 -135 116 -135q83 0 139 74q63 83 63 190q0 136 -117 136q-84 0 -139 -74q-62 -83 -62 -191zM499 512q33 19 38 45q5 23 -20 23q-14 0 -31 -7l-4 18q23 10 46 10q45 0 45 -32q0 -24 -17 -42.5t-41 -25.5q70 -53 70 -166q0 -135 -86 -239q-91 -110 -224 -110
q-92 0 -142 55t-50 148q0 135 86 239q91 110 223 110q62 0 107 -26zM280 -130h-63l17 72h63z" />
    <glyph glyph-name="glyph349" unicode="&#x1ee4;" horiz-adv-x="722" 
d="M700 718h97l-99 -466q-27 -128 -121 -199.5t-226 -71.5q-102 0 -162 46q-66 50 -66 149q0 30 7 63l102 479h97l-96 -452q-7 -33 -7 -63q0 -136 146 -136q92 0 153 53q58 51 78 144zM396 -59l-18 -84h-83l18 84h83z" />
    <glyph glyph-name="glyph350" unicode="&#x1ee5;" 
d="M489 0h-83l16 76l-1 2q-76 -93 -186 -93q-63 0 -99 27q-42 31 -42 92q0 19 5 43l80 376h88l-74 -347q-5 -23 -5 -39q0 -76 82 -76q71 0 121 53q44 47 60 121l61 288h88zM280 -125h-63l17 72h63z" />
    <glyph glyph-name="glyph351" unicode="&#x1ee6;" horiz-adv-x="722" 
d="M700 718h97l-99 -466q-27 -128 -121 -199.5t-226 -71.5q-102 0 -162 46q-66 50 -66 149q0 30 7 63l102 479h97l-96 -452q-7 -33 -7 -63q0 -136 146 -136q92 0 153 53q58 51 78 144zM492 868h-31q16 84 98 84q63 0 63 -53q0 -38 -48 -76q-15 -12 -31 -24q-10 -10 -15 -33
h-31q6 27 17 39q3 3 33 29q41 35 41 59q0 32 -37 32q-48 0 -59 -57z" />
    <glyph glyph-name="glyph352" unicode="&#x1ee7;" 
d="M489 0h-83l16 76l-1 2q-76 -93 -186 -93q-63 0 -99 27q-42 31 -42 92q0 19 5 43l80 376h88l-74 -347q-5 -23 -5 -39q0 -76 82 -76q71 0 121 53q44 47 60 121l61 288h88zM379 658h-28q13 75 88 75q57 0 57 -48q0 -36 -43 -68q-14 -10 -26 -20.5t-16 -30.5h-28q5 24 15 35
q1 1 30 26q18 15 22 20q11 11 14 25q1 6 1 11q0 26 -33 26q-46 0 -53 -51z" />
    <glyph glyph-name="glyph353" unicode="&#x1ee8;" horiz-adv-x="722" 
d="M789 679l-91 -427q-27 -128 -121 -199.5t-226 -71.5q-102 0 -162 46q-66 50 -66 149q0 30 7 63l102 479h97l-96 -452q-7 -33 -7 -63q0 -136 146 -136q92 0 153 53q58 51 78 144l97 454h95q5 6 7 19q5 25 -22 25q-16 0 -34 -7l-5 20q29 11 51 11q51 0 51 -34
q0 -49 -54 -73zM667 892l-128 -113h-53l95 113h86z" />
    <glyph glyph-name="glyph354" unicode="&#x1ee9;" 
d="M595 501l-106 -501h-83l16 76l-1 2q-76 -93 -186 -93q-63 0 -99 27q-42 31 -42 92q0 19 5 43l80 376h88l-74 -347q-5 -23 -5 -39q0 -76 82 -76q71 0 121 53q44 47 60 121l61 288h83q18 13 22 34q5 23 -20 23q-14 0 -31 -7l-4 18q23 10 46 10q45 0 45 -32q0 -49 -58 -68z
M538 687l-115 -102h-48l86 102h77z" />
    <glyph glyph-name="glyph355" unicode="&#x1eea;" horiz-adv-x="722" 
d="M789 679l-91 -427q-27 -128 -121 -199.5t-226 -71.5q-102 0 -162 46q-66 50 -66 149q0 30 7 63l102 479h97l-96 -452q-7 -33 -7 -63q0 -136 146 -136q92 0 153 53q58 51 78 144l97 454h95q5 6 7 19q5 25 -22 25q-16 0 -34 -7l-5 20q29 11 51 11q51 0 51 -34
q0 -49 -54 -73zM487 781l-80 113h86l47 -113h-53z" />
    <glyph glyph-name="glyph356" unicode="&#x1eeb;" 
d="M595 501l-106 -501h-83l16 76l-1 2q-76 -93 -186 -93q-63 0 -99 27q-42 31 -42 92q0 19 5 43l80 376h88l-74 -347q-5 -23 -5 -39q0 -76 82 -76q71 0 121 53q44 47 60 121l61 288h83q18 13 22 34q5 23 -20 23q-14 0 -31 -7l-4 18q23 10 46 10q45 0 45 -32q0 -49 -58 -68z
M376 585l-72 102h77l43 -102h-48z" />
    <glyph glyph-name="glyph357" unicode="&#x1eec;" horiz-adv-x="722" 
d="M789 679l-91 -427q-27 -128 -121 -199.5t-226 -71.5q-102 0 -162 46q-66 50 -66 149q0 30 7 63l102 479h97l-96 -452q-7 -33 -7 -63q0 -136 146 -136q92 0 153 53q58 51 78 144l97 454h95q5 6 7 19q5 25 -22 25q-16 0 -34 -7l-5 20q29 11 51 11q51 0 51 -34
q0 -49 -54 -73zM492 881h-31q16 84 98 84q63 0 63 -53q0 -38 -48 -76q-15 -12 -31 -24q-10 -10 -15 -33h-31q6 27 17 39q3 3 33 29q41 35 41 59q0 32 -37 32q-48 0 -59 -57z" />
    <glyph glyph-name="glyph358" unicode="&#x1eed;" 
d="M595 501l-106 -501h-83l16 76l-1 2q-76 -93 -186 -93q-63 0 -99 27q-42 31 -42 92q0 19 5 43l80 376h88l-74 -347q-5 -23 -5 -39q0 -76 82 -76q71 0 121 53q44 47 60 121l61 288h83q18 13 22 34q5 23 -20 23q-14 0 -31 -7l-4 18q23 10 46 10q45 0 45 -32q0 -49 -58 -68z
M379 668h-28q13 75 88 75q57 0 57 -48q0 -36 -43 -68q-14 -10 -26 -20.5t-16 -30.5h-28q5 24 15 35q1 1 30 26q18 15 22 20q11 11 14 25q1 6 1 11q0 26 -33 26q-46 0 -53 -51z" />
    <glyph glyph-name="glyph359" unicode="&#x1eee;" horiz-adv-x="722" 
d="M789 679l-91 -427q-27 -128 -121 -199.5t-226 -71.5q-102 0 -162 46q-66 50 -66 149q0 30 7 63l102 479h97l-96 -452q-7 -33 -7 -63q0 -136 146 -136q92 0 153 53q58 51 78 144l97 454h95q5 6 7 19q5 25 -22 25q-16 0 -34 -7l-5 20q29 11 51 11q51 0 51 -34
q0 -49 -54 -73zM612 862h35q-10 -31 -31 -52q-24 -24 -55 -24q-13 0 -39 9l-17 6q-31 11 -40 11q-23 0 -39 -31h-34q26 75 89 75q19 0 45 -11l14 -6q21 -9 31 -9q29 0 41 32z" />
    <glyph glyph-name="glyph360" unicode="&#x1eef;" 
d="M595 501l-106 -501h-83l16 76l-1 2q-76 -93 -186 -93q-63 0 -99 27q-42 31 -42 92q0 19 5 43l80 376h88l-74 -347q-5 -23 -5 -39q0 -76 82 -76q71 0 121 53q44 47 60 121l61 288h83q18 13 22 34q5 23 -20 23q-14 0 -31 -7l-4 18q23 10 46 10q45 0 45 -32q0 -49 -58 -68z
M471 663h31q-8 -28 -29 -48t-48 -20q-11 0 -35 8l-15 5q-30 10 -36 10q-20 0 -36 -28h-30q22 68 80 68q18 0 40 -10l13 -6q17 -8 28 -8q25 0 37 29z" />
    <glyph glyph-name="glyph361" unicode="&#x1ef0;" horiz-adv-x="722" 
d="M789 679l-91 -427q-27 -128 -121 -199.5t-226 -71.5q-102 0 -162 46q-66 50 -66 149q0 30 7 63l102 479h97l-96 -452q-7 -33 -7 -63q0 -136 146 -136q92 0 153 53q58 51 78 144l97 454h95q5 6 7 19q5 25 -22 25q-16 0 -34 -7l-5 20q29 11 51 11q51 0 51 -34
q0 -49 -54 -73zM396 -59l-18 -84h-83l18 84h83z" />
    <glyph glyph-name="glyph362" unicode="&#x1ef1;" 
d="M595 501l-106 -501h-83l16 76l-1 2q-76 -93 -186 -93q-63 0 -99 27q-42 31 -42 92q0 19 5 43l80 376h88l-74 -347q-5 -23 -5 -39q0 -76 82 -76q71 0 121 53q44 47 60 121l61 288h83q18 13 22 34q5 23 -20 23q-14 0 -31 -7l-4 18q23 10 46 10q45 0 45 -32q0 -49 -58 -68z
M280 -125h-63l17 72h63z" />
    <glyph glyph-name="glyph363" unicode="&#x1ef2;" horiz-adv-x="667" 
d="M443 289l-61 -289h-97l61 289l-179 429h113l132 -345l280 345h114zM464 764l-80 113h86l47 -113h-53z" />
    <glyph glyph-name="glyph364" unicode="&#x1ef3;" horiz-adv-x="500" 
d="M273 97l230 426h97q-138 -244 -297 -513q-62 -105 -97 -152t-68 -61q-26 -11 -87 -11q-10 0 -36 8l17 80q23 -9 51 -9q33 0 52 20q16 17 67 101l-80 537h100l49 -426h2zM338 576l-72 102h77l43 -102h-48z" />
    <glyph glyph-name="glyph365" unicode="&#x1ef4;" horiz-adv-x="667" 
d="M443 289l-61 -289h-97l61 289l-179 429h113l132 -345l280 345h114zM366 -59l-18 -84h-83l18 84h83z" />
    <glyph glyph-name="glyph366" unicode="&#x1ef5;" horiz-adv-x="500" 
d="M273 97l230 426h97q-138 -244 -297 -513q-62 -105 -97 -152t-68 -61q-26 -11 -87 -11q-10 0 -36 8l17 80q23 -9 51 -9q33 0 52 20q16 17 67 101l-80 537h100l49 -426h2zM388 -116h-63l17 72h63z" />
    <glyph glyph-name="glyph367" unicode="&#x1ef6;" horiz-adv-x="667" 
d="M443 289l-61 -289h-97l61 289l-179 429h113l132 -345l280 345h114zM470 859h-31q16 84 98 84q63 0 63 -53q0 -38 -48 -76q-15 -12 -31 -24q-10 -10 -15 -33h-31q6 27 17 39q3 3 33 29q41 35 41 59q0 32 -37 32q-48 0 -59 -57z" />
    <glyph glyph-name="glyph368" unicode="&#x1ef7;" horiz-adv-x="500" 
d="M273 97l230 426h97q-138 -244 -297 -513q-62 -105 -97 -152t-68 -61q-26 -11 -87 -11q-10 0 -36 8l17 80q23 -9 51 -9q33 0 52 20q16 17 67 101l-80 537h100l49 -426h2zM343 657h-28q13 75 88 75q57 0 57 -48q0 -36 -43 -68q-14 -10 -26 -20.5t-16 -30.5h-28q5 24 15 35
q1 1 30 26q18 15 22 20q11 11 14 25q1 6 1 11q0 26 -33 26q-46 0 -53 -51z" />
    <glyph glyph-name="glyph369" unicode="&#x1ef8;" horiz-adv-x="667" 
d="M443 289l-61 -289h-97l61 289l-179 429h113l132 -345l280 345h114zM580 847h35q-10 -31 -31 -52q-24 -24 -55 -24q-13 0 -39 9l-17 6q-31 11 -40 11q-23 0 -39 -31h-34q26 75 89 75q19 0 45 -11l14 -6q21 -9 31 -9q29 0 41 32z" />
    <glyph glyph-name="glyph370" unicode="&#x1ef9;" horiz-adv-x="500" 
d="M273 97l230 426h97q-138 -244 -297 -513q-62 -105 -97 -152t-68 -61q-26 -11 -87 -11q-10 0 -36 8l17 80q23 -9 51 -9q33 0 52 20q16 17 67 101l-80 537h100l49 -426h2zM449 648h31q-8 -28 -29 -48t-48 -20q-11 0 -35 8l-15 5q-30 10 -36 10q-20 0 -36 -28h-30
q22 68 80 68q18 0 40 -10l13 -6q17 -8 28 -8q25 0 37 29z" />
    <glyph glyph-name="endash" unicode="&#x2013;" 
d="M623 313l-16 -73h-556l16 73h556z" />
    <glyph glyph-name="emdash" unicode="&#x2014;" horiz-adv-x="1000" 
d="M1067 313l-16 -73h-1000l16 73h1000z" />
    <glyph glyph-name="quoteleft" unicode="&#x2018;" horiz-adv-x="222" 
d="M291 576l-22 -106h-104l21 98q28 133 137 157l-10 -47q-55 -8 -75 -102h53z" />
    <glyph glyph-name="quoteright" unicode="&#x2019;" horiz-adv-x="222" 
d="M183 612l23 106h104l-21 -98q-28 -133 -138 -157l10 47q55 8 75 102h-53z" />
    <glyph glyph-name="quotesinglbase" unicode="&#x201a;" horiz-adv-x="222" 
d="M53 0l23 106h104l-21 -98q-28 -133 -138 -157l10 47q55 8 75 102h-53z" />
    <glyph glyph-name="quotedblleft" unicode="&#x201c;" horiz-adv-x="333" 
d="M429 576l-22 -106h-104l21 98q28 133 137 157l-10 -47q-55 -8 -75 -102h53zM264 576l-22 -106h-104l21 98q28 133 137 157l-10 -47q-55 -8 -75 -102h53z" />
    <glyph glyph-name="quotedblright" unicode="&#x201d;" horiz-adv-x="333" 
d="M156 612l23 106h104l-21 -98q-28 -133 -138 -157l10 47q55 8 75 102h-53zM321 612l23 106h104l-21 -98q-28 -133 -138 -157l10 47q55 8 75 102h-53z" />
    <glyph glyph-name="quotedblbase" unicode="&#x201e;" horiz-adv-x="333" 
d="M26 0l23 106h104l-21 -98q-28 -133 -138 -157l10 47q55 8 75 102h-53zM191 0l23 106h104l-21 -98q-28 -133 -138 -157l10 47q55 8 75 102h-53z" />
    <glyph glyph-name="dagger" unicode="&#x2020;" 
d="M418 431l-126 -590h-94l126 590h-189l16 76h189l45 211h94l-45 -211h188l-16 -76h-188z" />
    <glyph glyph-name="daggerdbl" unicode="&#x2021;" 
d="M419 439l-68 -320h188l-16 -76h-188l-43 -202h-94l43 202h-189l16 76h189l68 320h-189l16 76h189l44 203h94l-44 -203h188l-16 -76h-188z" />
    <glyph glyph-name="bullet" unicode="&#x2022;" horiz-adv-x="350" 
d="M409 359q-14 -65 -70 -111t-121 -46q-56 0 -91.5 35t-35.5 88q0 17 3 34q14 66 69.5 112t121.5 46q56 0 92 -35.5t36 -89.5q0 -16 -4 -33z" />
    <glyph glyph-name="ellipsis" unicode="&#x2026;" horiz-adv-x="1000" 
d="M242 106l-23 -106h-104l23 106h104zM575 106l-23 -106h-104l23 106h104zM908 106l-23 -106h-104l23 106h104z" />
    <glyph glyph-name="perthousand" unicode="&#x2030;" horiz-adv-x="1000" 
d="M122 539q13 65 68.5 110.5t120.5 45.5q55 0 90.5 -35t35.5 -89q0 -73 -59.5 -130.5t-133.5 -57.5q-55 0 -90.5 34.5t-35.5 88.5q0 16 4 33zM182 519q0 -32 21 -52.5t55 -20.5q44 0 79.5 34.5t35.5 78.5q0 32 -21.5 52.5t-54.5 20.5q-44 0 -79.5 -34.5t-35.5 -78.5z
M351 149q14 65 69 110.5t120 45.5q55 0 90.5 -35t35.5 -89q0 -73 -59.5 -130.5t-132.5 -57.5q-56 0 -91.5 34.5t-35.5 88.5q0 16 4 33zM412 129q0 -32 20.5 -52.5t54.5 -20.5q44 0 79.5 34.5t35.5 78.5q0 32 -21 52.5t-55 20.5q-44 0 -79 -34.5t-35 -78.5zM714 149
q14 65 69 110.5t120 45.5q55 0 90.5 -35t35.5 -89q0 -73 -59.5 -130.5t-132.5 -57.5q-56 0 -91.5 34.5t-35.5 88.5q0 16 4 33zM775 129q0 -32 20.5 -52.5t54.5 -20.5q44 0 79.5 34.5t35.5 78.5q0 32 -21 52.5t-55 20.5q-44 0 -79 -34.5t-35 -78.5zM693 703l-550 -722h-55
l550 722h55z" />
    <glyph glyph-name="guilsinglleft" unicode="&#x2039;" horiz-adv-x="333" 
d="M287 196l-19 -88l-131 123l20 92l183 123l-19 -88l-122 -81z" />
    <glyph glyph-name="guilsinglright" unicode="&#x203a;" horiz-adv-x="333" 
d="M111 108l19 88l122 81l-88 81l19 88l131 -123l-20 -92z" />
    <glyph glyph-name="fraction" unicode="&#x2044;" horiz-adv-x="167" 
d="M482 703l-595 -722h-57l595 722h57z" />
    <glyph glyph-name="franc" unicode="&#x20a3;" horiz-adv-x="1035" 
d="M252 326l-69 -326h-97l153 718h497l-19 -86h-400l-46 -220h352l-19 -86h-352zM882 304l-65 -304h-88l111 523h83l-18 -87h2q80 102 168 102q13 0 23 -3l-20 -91h-33q-60 0 -105.5 -40.5t-57.5 -99.5z" />
    <glyph glyph-name="u20AB" unicode="&#x20ab;" horiz-adv-x="393" 
d="M197 501q-48 0 -84 -88q-20 -49 -20 -90q0 -51 39 -51q41 0 74 71q28 60 28 107q0 51 -37 51zM200 267q-53 -62 -106 -62q-45 0 -68 28.5t-23 73.5q0 79 55 152q60 79 136 79q34 0 61 -24l20 75h-100l10 36h100q2 17 2 16q0 31 -48 32l7 33q63 2 128 14q12 3 15 3
q6 0 6 -9q-1 -3 -3 -12l-19 -77h65l-10 -36h-65l-69 -280q-5 -22 -5 -27q0 -15 12 -15q6 0 49 42l20 -18q-70 -86 -117 -86q-43 0 -53 62zM9 160h221v-56h-221v56z" />
    <glyph glyph-name="trademark" unicode="&#x2122;" horiz-adv-x="1000" 
d="M710 718l53 -303l181 303h112l-88 -412h-73l71 335h-2l-200 -335h-50l-58 335h-2l-71 -335h-73l88 412h112zM526 718l-13 -60h-127l-75 -352h-73l75 352h-127l13 60h327z" />
    <glyph glyph-name="minus" unicode="&#x2212;" horiz-adv-x="584" 
d="M591 216h-506l15 73h506z" />
    <glyph glyph-name="SF370000" unicode="&#x255f;" horiz-adv-x="718" 
d="M521 209h-288l-119 -209h-100l423 718h110l107 -718h-106zM282 295h223l-39 316h-2z" />
    <glyph glyph-name="SF420000" unicode="&#x2560;" horiz-adv-x="681" 
d="M634 86l-18 -86h-530l153 718h523l-19 -86h-426l-46 -220h393l-19 -86h-393l-51 -240h433z" />
    <glyph glyph-name="SF190000" unicode="&#x2561;" horiz-adv-x="429" 
d="M341 718l-153 -718h-97l153 718h97z" />
    <glyph glyph-name="SF200000" unicode="&#x2562;" horiz-adv-x="773" 
d="M715 359q10 44 10 84q0 95 -51.5 151.5t-146.5 56.5q-115 0 -199.5 -81.5t-112.5 -210.5q-9 -44 -9 -84q0 -95 51.5 -151.5t145.5 -56.5q115 0 201 83q84 80 111 209zM815 359q-30 -143 -127 -247q-122 -131 -303 -131q-149 0 -221 89q-59 73 -59 192q0 48 10 97
q31 143 127 247q122 131 304 131q148 0 220 -89q60 -73 60 -192q0 -48 -11 -97z" />
    <glyph glyph-name="SF230000" unicode="&#x2563;" horiz-adv-x="811" 
d="M700 718h97l-99 -466q-25 -117 -112 -191q-94 -80 -235 -80q-115 0 -175 57q-53 51 -53 138q0 30 7 63l102 479h97l-96 -452q-8 -34 -8 -63q0 -136 147 -136q80 0 137 40q71 50 94 157z" />
    <glyph glyph-name="SF470000" unicode="&#x2564;" horiz-adv-x="699" 
d="M443 289l-61 -289h-97l61 289l-179 429h113l132 -345l280 345h114z" />
    <glyph glyph-name="SF480000" unicode="&#x2565;" horiz-adv-x="541" 
d="M220 364h-81q43 174 253 174q55 0 98 -18q69 -29 69 -96q0 -15 -4 -32l-64 -301q-1 -6 -1 -10q0 -21 24 -21q9 0 30 4l-14 -64q-40 -10 -50 -10q-78 0 -78 58q0 10 2 22q-96 -85 -207 -85q-62 0 -99 31.5t-37 85.5q0 16 4 34q31 144 194 164l149 18q47 6 59 62q2 11 2 20
q0 65 -107 65q-105 0 -142 -101zM422 181l19 86q-25 -17 -152 -33q-115 -15 -130 -85q-4 -15 -4 -28q0 -63 79 -63q64 0 121 36t67 87z" />
    <glyph glyph-name="SF410000" unicode="&#x2566;" horiz-adv-x="431" 
d="M456 164h88q-10 -28 -37 -64q-37 -50 -87 -79q-61 -36 -149 -36q-90 0 -138.5 51.5t-48.5 137.5q0 35 9 73q27 129 104 206q84 85 208 85q174 0 174 -193q0 -51 -13 -112h-382q-7 -31 -7 -57q0 -115 122 -115q57 0 105 37q42 32 52 66zM198 303h291q4 22 4 41
q0 115 -116 115q-60 0 -112.5 -47t-66.5 -109z" />
    <glyph glyph-name="SF450000" unicode="&#x2567;" horiz-adv-x="314" 
d="M266 523l-111 -523h-88l111 523h88zM286 618h-88l22 100h88z" />
    <glyph glyph-name="SF460000" unicode="&#x2568;" horiz-adv-x="314" 
d="M294 523l-111 -523h-88l111 523h88z" />
    <glyph glyph-name="SF400000" unicode="&#x2569;" horiz-adv-x="498" 
d="M392 538q97 0 148 -61q45 -54 45 -142q0 -134 -86 -238q-92 -111 -224 -111q-97 0 -147 61q-45 54 -45 142q0 134 86 238q91 111 223 111zM182 262q-7 -33 -7 -64q0 -136 116 -136q84 0 139 74q40 53 56 126q7 33 7 64q0 136 -117 136q-83 0 -139 -74q-40 -53 -55 -126z
" />
    <glyph glyph-name="SF540000" unicode="&#x256a;" horiz-adv-x="557" 
d="M489 0h-83l16 76l-1 2q-77 -93 -186 -93q-59 0 -96 25q-45 31 -45 93q0 21 5 44l80 376h88l-74 -347q-4 -22 -4 -40q0 -75 81 -75q76 0 126 58q40 47 55 116l61 288h88z" />
    <glyph glyph-name="SF530000" unicode="&#x256b;" horiz-adv-x="497" 
d="M273 97l230 426h97q-97 -171 -297 -513q-70 -116 -97 -152q-36 -47 -68 -61q-27 -11 -87 -11q-9 0 -36 8l17 80q23 -9 51 -9q34 0 53 20q15 17 66 101l-80 537h100l49 -426h2z" />
    <glyph glyph-name="circle" unicode="&#x25cb;" horiz-adv-x="718" 
d="M540 918l-86 -93h-79l129 141h93l69 -141h-80zM677 1154l-160 -141h-67l119 141h108z" />
    <glyph glyph-name="H18533" unicode="&#x25cf;" horiz-adv-x="718" 
d="M540 918l-86 -93h-79l129 141h93l69 -141h-80zM581 1014l-100 141h108l59 -141h-67z" />
    <glyph glyph-name="invbullet" unicode="&#x25d8;" horiz-adv-x="718" 
d="M540 918l-86 -93h-79l129 141h93l69 -141h-80zM614 903q9 30 11 64q1 11 8 13q2 0 8 1q67 11 67 54q0 35 -28 35q-5 0 -14.5 -1t-13.5 -1q-21 0 -21 18q0 28 32 28q46 0 76 -26t26 -70q-6 -59 -87 -81q-25 -7 -31 -34h-33z" />
    <glyph glyph-name="invcircle" unicode="&#x25d9;" horiz-adv-x="718" 
d="M540 918l-86 -93h-79l129 141h93l69 -141h-80zM715 1142v0h50q-15 -47 -48 -78t-75 -31q-21 0 -56 13l-24 9q-40 15 -58 15q-33 0 -56 -44h-48q37 107 127 107q31 0 64 -15l20 -9q29 -13 45 -13q40 0 59 46z" />
    <glyph glyph-name="fi" unicode="&#xf001;" horiz-adv-x="500" 
d="M358 450h-88l-96 -450h-88l96 450h-72l15 73h72l19 90q25 115 161 115q12 0 39 -2l-16 -79q-22 2 -36 2q-52 0 -65 -61l-14 -65h88zM545 523l-111 -523h-88l111 523h88zM565 618h-88l22 100h88z" />
    <glyph glyph-name="fl" unicode="&#xf002;" horiz-adv-x="500" 
d="M358 450h-88l-96 -450h-88l96 450h-72l15 73h72l19 90q25 115 161 115q12 0 39 -2l-16 -79q-22 2 -36 2q-52 0 -65 -61l-14 -65h88zM585 718l-153 -718h-88l153 718h88z" />
    <glyph glyph-name="periodcentered" horiz-adv-x="278" 
d="M207 315q21 0 35.5 -14.5t14.5 -35.5q0 -29 -24 -52t-54 -23q-22 0 -36 14.5t-14 35.5q0 29 24 52t54 23z" />
    <glyph glyph-name="glyph275" horiz-adv-x="249" 
 />
    <glyph glyph-name="glyph276" horiz-adv-x="249" 
 />
    <glyph glyph-name="glyph261" horiz-adv-x="500" 
d="M253 522q9 30 11 64q1 11 8 13q2 0 8 1q67 11 67 54q0 35 -28 35q-5 0 -14.5 -1t-13.5 -1q-21 0 -21 18q0 28 32 28q46 0 76 -26t26 -70q-6 -59 -87 -81q-25 -7 -31 -34h-33z" />
    <glyph glyph-name="glyph262" horiz-adv-x="541" 
d="M337 686l-86 -93h-79l129 141h93l69 -141h-80zM473 923l-160 -141h-67l119 141h108z" />
    <glyph glyph-name="glyph263" horiz-adv-x="541" 
d="M337 686l-86 -93h-79l129 141h93l69 -141h-80zM378 782l-100 141h108l59 -141h-67z" />
    <glyph glyph-name="glyph264" horiz-adv-x="541" 
d="M337 686l-86 -93h-79l129 141h93l69 -141h-80zM411 671q9 30 11 64q1 11 8 13q2 0 8 1q67 11 67 54q0 35 -28 35q-5 0 -14.5 -1t-13.5 -1q-21 0 -21 18q0 28 32 28q46 0 76 -26t26 -70q-6 -59 -87 -81q-25 -7 -31 -34h-33z" />
    <glyph glyph-name="glyph265" horiz-adv-x="541" 
d="M337 686l-86 -93h-79l129 141h93l69 -141h-80zM512 910v0h50q-15 -47 -48 -78t-75 -31q-21 0 -56 13l-24 9q-40 15 -58 15q-33 0 -56 -44h-48q37 107 127 107q31 0 64 -15l20 -9q29 -13 45 -13q40 0 59 46z" />
    <glyph glyph-name="glyph266" horiz-adv-x="541" 
d="M458 730h48q-44 -136 -188 -136q-121 0 -121 110q0 11 1 26h49q6 -43 26 -61t66 -18q52 0 84 28q18 16 35 51zM552 923l-160 -141h-67l119 141h108z" />
    <glyph glyph-name="glyph267" horiz-adv-x="541" 
d="M458 730h48q-44 -136 -188 -136q-121 0 -121 110q0 11 1 26h49q6 -43 26 -61t66 -18q52 0 84 28q18 16 35 51zM325 782l-100 141h108l59 -141h-67z" />
    <glyph glyph-name="glyph268" horiz-adv-x="541" 
d="M458 730h48q-44 -136 -188 -136q-121 0 -121 110q0 11 1 26h49q6 -43 26 -61t66 -18q52 0 84 28q18 16 35 51zM306 671q9 30 11 64q1 11 8 13q2 0 8 1q67 11 67 54q0 35 -28 35q-5 0 -14.5 -1t-13.5 -1q-21 0 -21 18q0 28 32 28q46 0 76 -26t26 -70q-6 -59 -87 -81
q-25 -7 -31 -34h-33z" />
    <glyph glyph-name="glyph269" horiz-adv-x="541" 
d="M458 730h48q-44 -136 -188 -136q-121 0 -121 110q0 11 1 26h49q6 -43 26 -61t66 -18q52 0 84 28q18 16 35 51zM512 910v0h50q-15 -47 -48 -78t-75 -31q-21 0 -56 13l-24 9q-40 15 -58 15q-33 0 -56 -44h-48q37 107 127 107q31 0 64 -15l20 -9q29 -13 45 -13q40 0 59 46z
" />
    <glyph glyph-name="glyph270" horiz-adv-x="249" 
 />
  </font>
</defs>
</svg>
