<?xml version="1.0" standalone="no"?>
<!DOCTYPE svg PUBLIC "-//W3C//DTD SVG 1.1//EN" "http://www.w3.org/Graphics/SVG/1.1/DTD/svg11.dtd" >
<svg xmlns="http://www.w3.org/2000/svg" xmlns:xlink="http://www.w3.org/1999/xlink" version="1.1">
<metadata>
Created by FontForge 20170731 at Wed Sep 21 14:56:38 2005
 By Aleksey,,,
(c) Copyright 2005 by Tong Duc Thinh. All Rights Reserved
</metadata>
<defs>
<font id="SFUHelveticaCondensedLight" horiz-adv-x="444" >
  <font-face 
    font-family="SFU Helvetica"
    font-weight="400"
    font-stretch="normal"
    units-per-em="1000"
    panose-1="0 0 4 0 0 0 0 0 0 0"
    ascent="800"
    descent="-200"
    x-height="552"
    cap-height="750"
    bbox="-170 -207 1000 1166"
    underline-thickness="58"
    underline-position="-177"
    unicode-range="U+0020-F002"
  />
<missing-glyph horiz-adv-x="500" 
d="M63 0v802h375v-802h-375zM125 63h250v677h-250v-677z" />
    <glyph glyph-name=".notdef" horiz-adv-x="500" 
d="M63 0v802h375v-802h-375zM125 63h250v677h-250v-677z" />
    <glyph glyph-name=".null" horiz-adv-x="0" 
 />
    <glyph glyph-name="nonmarkingreturn" horiz-adv-x="222" 
 />
    <glyph glyph-name="space" unicode=" " horiz-adv-x="222" 
 />
    <glyph glyph-name="exclam" unicode="!" horiz-adv-x="222" 
d="M133 189v0h-40q-12 290 -12 362v199h64v-199q0 -72 -12 -362zM146 13h-69v88h69v-88z" />
    <glyph glyph-name="quotedbl" unicode="&#x22;" horiz-adv-x="309" 
d="M73 524v226h52v-226h-52zM184 524v226h52v-226h-52z" />
    <glyph glyph-name="numbersign" unicode="#" 
d="M49 0l64 249h-100l15 51h97l34 131h-99l15 51h96l65 262h48l-66 -262h70l65 262h47l-65 -262h96l-15 -51h-92l-34 -131h94l-15 -51h-91l-62 -249h-50l64 249h-70l-64 -249h-47zM172 300h70l34 131h-69z" />
    <glyph glyph-name="dollar" unicode="$" 
d="M197 402v258q-99 -15 -99 -128q0 -39 23 -73q27 -39 76 -57zM244 315v-278q54 2 86 44q29 38 29 95q0 92 -115 139zM244 -14v-82h-47v82q-91 8 -135 72q-41 58 -36 153h60q-8 -161 111 -173v298q-78 34 -115 75q-47 50 -47 126q0 51 26 95q41 69 136 79v67h47v-62
q155 -32 155 -193h-58q0 48 -21 84q-26 42 -76 53v-278q81 -34 120 -71q56 -53 56 -134q0 -82 -47 -132t-129 -59z" />
    <glyph glyph-name="percent" unicode="%" horiz-adv-x="778" 
d="M575 358q131 0 131 -181q0 -179 -132 -179q-78 0 -110 56q-23 41 -23 123q0 181 134 181zM577 42q73 0 73 135q0 136 -75 137q-78 1 -78 -137q0 -135 80 -135zM207 728q131 0 131 -181q0 -178 -132 -178q-78 0 -110 55q-23 41 -23 123q0 181 134 181zM209 413
q73 0 73 135t-75 136q-78 1 -78 -136q0 -135 80 -135zM215 -15l304 756h44l-304 -756h-44z" />
    <glyph glyph-name="ampersand" unicode="&#x26;" horiz-adv-x="611" 
d="M416 119l-174 264q-58 -43 -83 -82q-31 -48 -31 -113q0 -67 39 -107.5t103 -40.5q98 0 146 79zM260 470q88 60 88 157q0 83 -77 83q-76 0 -76 -78q0 -74 65 -162zM215 431q-42 61 -56 93q-22 49 -22 106q0 65 37.5 101.5t100.5 36.5q60 0 99 -36t39 -98q0 -118 -121 -208
l156 -244l3 6q22 66 24 155h65q-1 -46 -14 -107q-14 -65 -32 -102l-4 -8l83 -133h-71l-51 76l-1 -1.5t-2 -2.5q-68 -83 -180 -83q-95 0 -150 56.5t-55 155.5q0 76 46 138q34 47 106 99z" />
    <glyph glyph-name="quotesingle" unicode="'" horiz-adv-x="198" 
d="M73 524v226h52v-226h-52z" />
    <glyph glyph-name="parenleft" unicode="(" horiz-adv-x="278" 
d="M197 768h47q-127 -192 -127 -469q0 -289 127 -490h-47q-145 221 -145 489q0 270 145 470z" />
    <glyph glyph-name="parenright" unicode=")" horiz-adv-x="278" 
d="M81 -191h-47q127 193 127 468q0 270 -120 481q-1 1 -7 10h47q145 -218 145 -477q0 -284 -145 -482z" />
    <glyph glyph-name="asterisk" unicode="*" horiz-adv-x="389" 
d="M156 593l-108 37l14 42l112 -42v114h44v-114l111 42l13 -45l-109 -36l72 -105l-36 -24l-75 107l-77 -107l-35 27z" />
    <glyph glyph-name="plus" unicode="+" 
d="M197 220h-176v51h176v219h51v-219h176v-51h-176v-220h-51v220z" />
    <glyph glyph-name="comma" unicode="," horiz-adv-x="222" 
d="M77 -136v37q21 9 27 37q3 12 3 49v13h-30v88h69v-56q0 -88 -11 -119q-14 -37 -58 -49z" />
    <glyph glyph-name="hyphen" unicode="-" horiz-adv-x="333" 
d="M294 269h-259v58h259v-58z" />
    <glyph glyph-name="hyphen" unicode="&#x2010;" horiz-adv-x="333" 
d="M294 269h-259v58h259v-58z" />
    <glyph glyph-name="period" unicode="." horiz-adv-x="222" 
d="M146 0h-69v88h69v-88z" />
    <glyph glyph-name="slash" unicode="/" horiz-adv-x="278" 
d="M-10 -94l244 844h55l-245 -844h-54z" />
    <glyph glyph-name="zero" unicode="0" 
d="M37 370q0 219 57 307q43 67 131 67q126 0 165 -155q17 -70 17 -236q0 -170 -29 -251q-43 -116 -159 -116q-111 0 -152 115q-30 83 -30 269zM102 353q0 -172 26.5 -242.5t89.5 -70.5q52 0 78 41q46 71 46 277q0 173 -18 238q-27 94 -108 94q-62 0 -88 -74t-26 -263z" />
    <glyph glyph-name="one" unicode="1" 
d="M60 560v47q83 2 120 28q43 30 51 109h53v-744h-65v572q-20 -4 -75 -8q-63 -5 -84 -4z" />
    <glyph glyph-name="two" unicode="2" 
d="M99 61h297v-61h-362v52q0 56 17 94q15 31 49 65.5t69 68.5q105 108 119 128q43 60 43 143q0 50 -23 89q-27 45 -73 50q-127 13 -133 -167h-62q-4 94 40 154q48 67 139 67q79 0 128 -54t49 -145q0 -73 -43 -146q-34 -56 -101 -123l-112 -108q-40 -40 -41 -107z" />
    <glyph glyph-name="three" unicode="3" 
d="M192 353h-44v54h20q149 0 149 149q0 134 -105 134q-96 0 -107 -146h-59q-1 84 37 138q44 62 124 62q85 0 130 -53.5t45 -139.5q0 -121 -109 -166q128 -30 128 -189q0 -129 -81 -181q-45 -29 -106 -29q-58 0 -98 22q-88 49 -86 186h61q4 -154 121 -154q64 0 97 49
q27 42 27 109q0 59 -25 99q-37 56 -119 56z" />
    <glyph glyph-name="four" unicode="4" 
d="M28 260l257 484h61v-490h66v-54h-66v-200h-65v200h-253v60zM87 254h194v373h-2z" />
    <glyph glyph-name="five" unicode="5" 
d="M27 178h64q8 -138 112 -138q130 0 130 202q0 184 -128 184q-73 0 -103 -72h-55l43 376h278v-61h-224l-28 -227q37 38 103 38q95 0 141 -75q38 -62 38 -165q0 -109 -43 -175q-51 -79 -151 -79q-170 0 -177 192z" />
    <glyph glyph-name="six" unicode="6" 
d="M222 416q-120 0 -120 -171q0 -78 23 -132q31 -73 98 -73q64 0 96 68q24 52 24 124q0 184 -121 184zM226 -14q-197 0 -189 338q4 188 24 262q43 158 175 158q70 0 113.5 -45t43.5 -119h-60q-8 110 -103 110q-41 0 -71 -39q-24 -31 -35 -77q-18 -76 -22 -175h2
q55 71 132 71q91 0 136 -80q36 -63 36 -154q0 -97 -35 -162q-47 -88 -147 -88z" />
    <glyph glyph-name="seven" unicode="7" 
d="M51 669v61h361v-59q-84 -102 -164 -313q-55 -144 -71 -358h-65q8 165 68 345q65 192 167 324h-296z" />
    <glyph glyph-name="eight" unicode="8" 
d="M220 364q-54 0 -85 -38q-34 -42 -34 -119q0 -68 26 -113q30 -53 89 -54q128 -1 128 167q0 157 -124 157zM221 690q-49 0 -74 -38q-18 -27 -24 -71q-4 -35 -2 -37h2q0 -126 101 -126q52 0 78 44q20 35 20 91q0 137 -101 137zM142 396v2q-81 31 -81 159q0 81 40 131
q43 56 121 56q162 0 162 -193q0 -118 -80 -153v-2q105 -52 105 -192q0 -147 -85 -195q-37 -21 -117 -23q-74 -2 -122.5 58t-48.5 157q0 139 106 195z" />
    <glyph glyph-name="nine" unicode="9" 
d="M221 690q-64 0 -94 -69q-22 -50 -22 -124q0 -184 117 -184q118 0 118 171q0 79 -22 132q-30 74 -97 74zM221 744q191 0 184 -333q-3 -143 -6 -172q-11 -113 -47 -174q-48 -79 -143 -79q-69 0 -112 44.5t-43 118.5h60q8 -109 103 -109q41 0 71 38q24 31 35 77
q17 73 17 175h-2q-50 -71 -127 -71q-91 0 -136 80q-35 62 -35 154q0 98 34 163q47 88 147 88z" />
    <glyph glyph-name="colon" unicode=":" horiz-adv-x="222" 
d="M146 433h-69v88h69v-88zM146 0h-69v88h69v-88z" />
    <glyph glyph-name="semicolon" unicode=";" horiz-adv-x="222" 
d="M77 -136v37q21 9 27 37q3 12 3 49v13h-30v88h69v-56q0 -88 -11 -119q-14 -37 -58 -49zM77 433v88h69v-88h-69z" />
    <glyph glyph-name="less" unicode="&#x3c;" 
d="M19 223v44l407 234v-56l-353 -195v-5l353 -201v-56z" />
    <glyph glyph-name="equal" unicode="=" 
d="M424 360v-51h-403v51h403zM424 182v-51h-403v51h403z" />
    <glyph glyph-name="greater" unicode="&#x3e;" 
d="M426 267v-44l-407 -234v56l353 195v5l-353 201v56z" />
    <glyph glyph-name="question" unicode="?" horiz-adv-x="389" 
d="M203 171h-56q-4 69 15 120q16 42 62 104q38 50 53 81q22 45 22 92q0 57 -26.5 92t-75.5 35q-69 0 -95 -47q-20 -36 -20 -112h-62q-3 84 30 140q44 74 142 74q71 0 118 -43q51 -48 51 -135q0 -50 -17 -91q-19 -49 -71 -115q-44 -57 -57 -89q-15 -39 -13 -106zM211 0h-70
v88h70v-88z" />
    <glyph glyph-name="at" unicode="@" horiz-adv-x="800" 
d="M431 564q-77 -1 -140 -91q-58 -82 -58 -161q0 -55 28.5 -87.5t71.5 -32.5q51 0 88 27q33 24 45 60l53 158q6 18 6 36q0 39 -25.5 65.5t-68.5 25.5zM549 541l15 49h55l-105 -314q-13 -39 -13 -57q0 -37 42 -37q31 0 72 34q32 26 56 60q20 28 35 75q18 52 18 94
q0 122 -94 201q-89 75 -212 75q-143 0 -242.5 -104t-99.5 -246q0 -140 102 -240.5t242 -100.5q81 0 158 39.5t126 106.5h53q-49 -90 -141.5 -142t-195.5 -52q-166 0 -280 115.5t-114 281.5q0 162 116.5 276t278.5 114q140 0 244 -90q109 -94 109 -239q0 -49 -19 -105
q-17 -51 -41 -84q-81 -113 -182 -113q-31 0 -52 13q-26 16 -27 45q-55 -50 -134 -50q-64 0 -101 46q-35 42 -35 108q0 114 67 207q74 103 182 103q86 0 117 -69z" />
    <glyph glyph-name="A" unicode="A" horiz-adv-x="500" 
d="M150 289h200l-99 379h-2zM213 750h75l201 -750h-66l-59 231h-228l-61 -231h-63z" />
    <glyph glyph-name="B" unicode="B" horiz-adv-x="500" 
d="M195 364h-68v-306h81q93 0 134 32q47 36 47 127q0 92 -56 124q-40 23 -138 23zM127 422h67q88 0 127 26q47 32 47 117q0 80 -53 108q-37 19 -127 19h-61v-270zM165 0h-103v750h164q104 0 150 -41q57 -51 57 -142q0 -132 -102 -171q123 -34 123 -180q0 -131 -84 -179
q-63 -37 -205 -37z" />
    <glyph glyph-name="C" unicode="C" horiz-adv-x="556" 
d="M427 254h65q3 -107 -49 -184q-58 -88 -163 -88q-142 0 -190 147q-27 84 -27 267q0 158 35 244q52 128 184 128q97 0 152 -69q51 -64 52 -165h-65q-12 176 -141 176q-102 0 -135 -127q-17 -64 -17 -202q0 -148 18 -214q34 -127 141 -127q133 0 140 214z" />
    <glyph glyph-name="D" unicode="D" horiz-adv-x="556" 
d="M137 692v-634h78q80 0 115 16q105 49 105 302q0 111 -11 165q-21 99 -86 134q-25 14 -70 16q-9 1 -75 1h-56zM72 0v750h134q80 0 121 -10q61 -15 101 -61q36 -40 55 -117q17 -65 17 -130q0 -200 -29 -279q-33 -91 -97 -125q-53 -28 -155 -28h-147z" />
    <glyph glyph-name="E" unicode="E" 
d="M412 0h-345v750h340v-58h-275v-270h250v-58h-250v-306h280v-58z" />
    <glyph glyph-name="F" unicode="F" 
d="M134 0h-65v750h345v-58h-280v-270h250v-58h-250v-364z" />
    <glyph glyph-name="G" unicode="G" horiz-adv-x="556" 
d="M418 314h-161v58h226v-372h-52l-7 77q-56 -95 -164 -95q-138 0 -186 147q-28 85 -28 261q0 167 32 249q51 129 191 129q91 0 147 -64.5t56 -158.5h-62q-22 165 -139 165q-107 0 -142 -129q-18 -65 -18 -206q0 -133 20 -206q35 -129 134 -129q93 0 128 97q20 56 25 177z
" />
    <glyph glyph-name="H" unicode="H" horiz-adv-x="556" 
d="M133 0h-65v750h65v-319h290v319h65v-750h-65v373h-290v-373z" />
    <glyph glyph-name="I" unicode="I" horiz-adv-x="222" 
d="M144 0h-65v750h65v-750z" />
    <glyph glyph-name="J" unicode="J" horiz-adv-x="389" 
d="M12 219h65v-16q0 -78 12 -110q20 -53 80 -53q52 0 70 40q12 26 12 84v586h65v-590q0 -178 -153 -178q-78 0 -117 56q-34 48 -34 129v52z" />
    <glyph glyph-name="K" unicode="K" horiz-adv-x="500" 
d="M132 0h-65v750h65v-375l273 375h75l-222 -303l233 -447h-70l-205 394l-84 -110v-284z" />
    <glyph glyph-name="L" unicode="L" 
d="M417 0h-343v750h65v-692h278v-58z" />
    <glyph glyph-name="M" unicode="M" horiz-adv-x="722" 
d="M138 685v-685h-65v750h109l178 -654h2l182 654h106v-750h-65v685h-2l-186 -685h-69l-188 685h-2z" />
    <glyph glyph-name="N" unicode="N" horiz-adv-x="556" 
d="M147 750l276 -644h2v644h65v-750h-79l-278 642h-2v-642h-65v750h81z" />
    <glyph glyph-name="O" unicode="O" horiz-adv-x="556" 
d="M276 -18q-142 0 -190 147q-28 85 -28 267q0 372 220 372q144 0 193 -143q28 -83 28 -266q0 -168 -32 -250q-51 -127 -191 -127zM282 40q102 0 135 127q17 65 17 207q0 140 -19 209q-36 127 -140 127q-98 0 -133 -124q-19 -70 -19 -205q0 -148 18 -214q34 -127 141 -127z
" />
    <glyph glyph-name="P" unicode="P" horiz-adv-x="500" 
d="M141 0h-65v750h133q133 0 190 -40q63 -45 63 -156q0 -112 -61 -163q-32 -27 -87 -41q-42 -11 -74 -11h-99v-339zM141 692v-295h56q101 0 144 25q56 34 56 126q0 81 -42 115q-37 29 -119 29h-95z" />
    <glyph glyph-name="Q" unicode="Q" horiz-adv-x="556" 
d="M359 66l-76 61l36 45l76 -62q39 70 39 264q0 140 -19 209q-36 127 -140 127q-98 0 -133 -124q-19 -70 -19 -205q0 -148 18 -214q34 -127 141 -127q46 0 77 26zM445 69l82 -67l-35 -44l-83 68q-49 -44 -133 -44q-142 0 -190 147q-28 84 -28 266q0 373 220 373
q144 0 193 -143q28 -83 28 -266q0 -206 -54 -290z" />
    <glyph glyph-name="R" unicode="R" horiz-adv-x="500" 
d="M195 353h-67v-353h-65v750h145q112 0 167 -39q64 -46 64 -153q0 -62 -25 -109q-30 -55 -85 -67v-2q60 -15 82 -65q16 -36 18 -119t3 -99q8 -75 31 -88v-9h-71q-18 39 -24 126l-6 120q-5 68 -54 91q-34 16 -113 16zM128 692v-281h114q41 0 74 21q58 36 58 121
q0 79 -38 111q-34 28 -114 28h-94z" />
    <glyph glyph-name="S" unicode="S" horiz-adv-x="500" 
d="M211 433l58 -24q103 -43 137 -74q55 -50 55 -142q0 -97 -58.5 -154t-156.5 -57q-100 0 -155 65q-53 62 -51 165h64q-1 -76 32 -121q36 -51 109 -51q69 0 110 41t41 110q0 74 -52 112q-20 15 -116 53q-87 34 -124 72q-49 50 -49 133q0 93 52.5 150t142.5 57
q88 0 140.5 -55t50.5 -144h-63q3 63 -32 102t-97 39t-95.5 -40.5t-33.5 -104.5q0 -55 20 -83t71 -49z" />
    <glyph glyph-name="T" unicode="T" 
d="M190 692h-170v58h405v-58h-170v-692h-65v692z" />
    <glyph glyph-name="U" unicode="U" horiz-adv-x="556" 
d="M73 198v552h65v-544q0 -86 26 -123q31 -43 111 -43q82 0 115 48q28 40 28 124v538h65v-522q0 -119 -42 -178q-50 -68 -164 -68q-204 0 -204 216z" />
    <glyph glyph-name="V" unicode="V" horiz-adv-x="500" 
d="M215 0l-201 750h68l168 -665h2l172 665h63l-199 -750h-73z" />
    <glyph glyph-name="W" unicode="W" horiz-adv-x="722" 
d="M397 750l123 -636h2l120 636h63l-148 -750h-73l-125 642h-2l-122 -642h-73l-145 750h66l114 -633h2l123 633h75z" />
    <glyph glyph-name="X" unicode="X" horiz-adv-x="500" 
d="M211 387l-184 363h73l149 -301l153 301h72l-186 -363l194 -387h-71l-162 326l-161 -326h-70z" />
    <glyph glyph-name="Y" unicode="Y" horiz-adv-x="500" 
d="M249 393l165 357h68l-200 -431v-319h-65v319l-198 431h72z" />
    <glyph glyph-name="Z" unicode="Z" 
d="M411 0h-377v60l307 632h-293v58h363v-56l-309 -636h309v-58z" />
    <glyph glyph-name="bracketleft" unicode="[" horiz-adv-x="278" 
d="M229 -58v-46h-155v872h153v-46h-95v-780h97z" />
    <glyph glyph-name="backslash" unicode="\" horiz-adv-x="222" 
d="M208 0l-248 750h54l248 -750h-54z" />
    <glyph glyph-name="bracketright" unicode="]" horiz-adv-x="278" 
d="M204 -104h-155v46h97v780h-95v46h153v-872z" />
    <glyph glyph-name="asciicircum" unicode="^" 
d="M201 750h41l135 -410h-47l-110 335l-107 -335h-47z" />
    <glyph glyph-name="underscore" unicode="_" horiz-adv-x="500" 
d="M500 -119h-500v58h500v-58z" />
    <glyph glyph-name="grave" unicode="`" horiz-adv-x="333" 
d="M229 606h-51l-138 139h78z" />
    <glyph glyph-name="a" unicode="a" horiz-adv-x="389" 
d="M271 201v97q-10 -6 -115 -51q-44 -19 -58 -42t-14 -72q0 -96 77 -96q54 0 82 41t28 123zM97 413h-56q-2 73 36.5 113t110.5 40q81 0 114 -42q27 -34 27 -108v-339q0 -26 8 -32t32 -5v-42q-26 -10 -64 -3q-17 7 -23 19q-2 4 -8 31h-1q-43 -59 -122 -59q-125 0 -125 156
q0 104 76 142q51 20 151 62q12 6 15 22q8 46 -2 92q-12 55 -79 55q-54 0 -72 -33q-8 -12 -18 -69z" />
    <glyph glyph-name="b" unicode="b" 
d="M229 37q74 0 100 89q15 51 15 148q0 241 -111 241q-73 0 -97 -87q-14 -47 -14 -142q0 -104 11 -151q23 -98 96 -98zM122 52v-52h-58v750h58v-243h2q53 59 124 59q154 0 154 -288q0 -292 -159 -292q-82 0 -119 66h-2z" />
    <glyph glyph-name="c" unicode="c" horiz-adv-x="389" 
d="M300 183h58q1 -86 -33 -137q-39 -60 -120 -60q-107 0 -145 100q-23 62 -23 193q0 123 26 188q39 99 140 99q71 0 113 -54q38 -50 37 -123h-57q-2 54 -27 90.5t-70 35.5q-71 -2 -93 -92q-11 -45 -11 -154q0 -98 13 -145q25 -87 98 -87q53 0 75 49q12 28 19 97z" />
    <glyph glyph-name="d" unicode="d" 
d="M213 515q-111 0 -111 -248q0 -230 114 -230q76 0 98 103q10 45 10 160q0 215 -111 215zM324 507v243h58v-750h-58v52h-2q-34 -66 -119 -66q-98 0 -135 104q-24 66 -24 188q0 288 161 288q71 0 117 -59h2z" />
    <glyph glyph-name="e" unicode="e" horiz-adv-x="389" 
d="M352 335v-56h-259q0 -107 9 -148q22 -94 95 -94q55 0 77 47q15 30 20 96h56q0 -84 -35 -135q-40 -59 -119 -59q-101 0 -138 101q-23 63 -23 187t23 188q36 104 136 104q87 0 127 -76q31 -59 31 -155zM93 330h201q0 185 -101 185q-100 0 -100 -185z" />
    <glyph glyph-name="f" unicode="f" horiz-adv-x="222" 
d="M77 0v501h-59v51h59v60q0 84 22 111q26 31 107 27v-51q-53 2 -65 -17q-6 -10 -6 -67v-63h69v-51h-69v-501h-58z" />
    <glyph glyph-name="g" unicode="g" 
d="M209 515q-105 0 -105 -245q0 -96 15 -146q26 -87 98 -87q69 0 93 85q14 48 14 140q0 119 -10 160q-23 93 -105 93zM324 502v50h58v-540q0 -201 -171 -201q-64 0 -105 30q-45 33 -48 95h59q2 -35 31 -56q26 -18 64 -18q78 -1 100 59q8 23 12 118h-4q-41 -53 -116 -53
q-99 0 -135 99q-23 62 -23 185t21 187q35 109 133 109q78 0 122 -64h2z" />
    <glyph glyph-name="h" unicode="h" 
d="M121 0h-58v750h58v-247q39 58 120 63q79 4 116 -48q24 -34 24 -118v-400h-58v389q0 60 -13 87q-19 39 -72 39q-77 0 -117 -82v-433z" />
    <glyph glyph-name="i" unicode="i" horiz-adv-x="222" 
d="M140 0h-58v552h58v-552zM145 655h-67v95h67v-95z" />
    <glyph glyph-name="j" unicode="j" horiz-adv-x="222" 
d="M21 -189v54q9 -1 37 4q30 10 30 77v606h58v-608q0 -82 -30 -111q-32 -22 -95 -22zM83 750h67v-92h-67v92z" />
    <glyph glyph-name="k" unicode="k" horiz-adv-x="389" 
d="M120 0h-58v750h58v-458l179 260h73l-150 -206l153 -346h-61l-133 287l-61 -85v-202z" />
    <glyph glyph-name="l" unicode="l" horiz-adv-x="222" 
d="M140 0h-58v750h58v-750z" />
    <glyph glyph-name="m" unicode="m" horiz-adv-x="667" 
d="M116 421v-421h-58v552h58v-49h2q38 63 117 63q41 0 62 -9q31 -14 54 -53h2q43 62 130 62q127 0 127 -150v-416h-58v423q0 93 -76 93q-51 0 -82 -30.5t-31 -82.5v-403h-58v399q0 57 -13 81q-18 35 -69 35q-36 0 -71.5 -29.5t-35.5 -64.5z" />
    <glyph glyph-name="n" unicode="n" 
d="M123 407v-407h-58v552h58v-54h2q46 68 125 68q55 0 92 -35t37 -93v-438h-58v401q0 58 -12 81q-17 33 -69 33q-45 0 -81 -31.5t-36 -76.5z" />
    <glyph glyph-name="o" unicode="o" 
d="M221 -14q-111 0 -149 104q-23 62 -23 199q0 277 175 277q172 0 172 -288q0 -126 -28 -193q-41 -99 -147 -99zM220 37q76 0 103 89q15 50 15 151t-16 151q-27 87 -105 87q-110 0 -110 -227q0 -110 12 -156q24 -95 101 -95z" />
    <glyph glyph-name="p" unicode="p" 
d="M116 279q0 -108 12 -152q23 -90 100 -90q71 0 95 90q13 48 13 144q0 99 -13 150q-24 94 -93 94q-79 0 -102 -86q-12 -43 -12 -150zM118 45v-235h-60v742h58v-50q45 64 112 64q101 0 140 -94q26 -63 26 -182q0 -136 -20 -197q-35 -107 -141 -107q-73 0 -115 59z" />
    <glyph glyph-name="q" unicode="q" 
d="M212 37q76 0 100 89q12 45 12 151q0 102 -12 148q-23 90 -96 90q-74 0 -99 -92q-13 -49 -13 -152q0 -234 108 -234zM324 502v50h58v-741h-60v234q-40 -59 -115 -59q-103 0 -139 99q-22 61 -22 188q0 129 24 192q38 101 142 101q67 0 112 -64z" />
    <glyph glyph-name="r" unicode="r" horiz-adv-x="278" 
d="M124 552v-64h2q40 79 131 78v-61q-130 3 -130 -143v-362h-58v552h55z" />
    <glyph glyph-name="s" unicode="s" horiz-adv-x="389" 
d="M44 407q-11 159 142 159q71 0 110.5 -41.5t39.5 -113.5h-57q-2 46 -25 74q-26 30 -70 30q-82 0 -82 -88q0 -54 67 -84q91 -40 127 -75q54 -50 54 -130q0 -73 -42 -112.5t-115 -39.5q-161 0 -161 164h59q8 -113 106 -113q44 0 69.5 29.5t25.5 74.5q0 61 -62 101
q-59 31 -117 62q-65 41 -69 103z" />
    <glyph glyph-name="t" unicode="t" horiz-adv-x="222" 
d="M201 43v-48q-58 -9 -75 -3q-37 13 -50 36q-10 19 -10 60v413h-50v51h50v162h58v-162h77v-51h-77v-407q0 -47 29 -52q18 -7 48 1z" />
    <glyph glyph-name="u" unicode="u" 
d="M321 132v420h58v-552h-56v51q-51 -65 -141 -65q-122 0 -122 158v408h58v-418q0 -103 97 -97q33 2 62.5 30t43.5 65z" />
    <glyph glyph-name="v" unicode="v" horiz-adv-x="389" 
d="M79 552l116 -447h2l117 447h59l-146 -552h-63l-147 552h62z" />
    <glyph glyph-name="w" unicode="w" horiz-adv-x="556" 
d="M310 552l87 -440h2l89 440h57l-120 -552h-61l-85 433h-2l-85 -433h-64l-117 552h58l90 -440h2l85 440h64z" />
    <glyph glyph-name="x" unicode="x" horiz-adv-x="389" 
d="M311 0l-118 234l-117 -234h-63l145 289l-135 263h65l105 -213l107 213h67l-138 -263l147 -289h-65z" />
    <glyph glyph-name="y" unicode="y" horiz-adv-x="389" 
d="M28 -188v51q40 -2 57 1q31 7 43 33q17 37 32 101l-143 554h61l114 -447h2l120 447h59l-150 -545q-24 -88 -29 -101q-23 -62 -58 -83q-24 -15 -57 -15q-10 0 -27.5 2t-23.5 2z" />
    <glyph glyph-name="z" unicode="z" horiz-adv-x="333" 
d="M315 0h-297v55l231 446h-219v51h280v-54l-229 -447h234v-51z" />
    <glyph glyph-name="braceleft" unicode="{" horiz-adv-x="351" 
d="M130 450v168q0 86 31 119.5t116 30.5v-2q-47 -20 -65 -48q-15 -23 -15 -64v-177q0 -58 -15 -86q-20 -36 -75 -53v-2q53 -9 73 -41q17 -27 17 -84v-190q0 -41 14 -64q17 -27 66 -48v-2q-74 0 -109 26q-38 28 -38 107v189q0 52 -22 78t-60 29v2q35 9 54 24.5t25 39.5
q3 14 3 48z" />
    <glyph glyph-name="bar" unicode="|" horiz-adv-x="222" 
d="M85 0v750h52v-750h-52z" />
    <glyph glyph-name="braceright" unicode="}" horiz-adv-x="351" 
d="M221 635v-189q0 -52 22 -78t60 -29v-2q-35 -9 -54 -24.5t-25 -39.5q-3 -14 -3 -48v-168q0 -86 -30 -118q-32 -35 -117 -32v2q47 20 65 48q15 23 15 64v177q0 58 15 86q20 36 75 53v2q-53 9 -73 41q-17 27 -17 84v190q0 41 -14 64q-17 27 -66 48v2q74 0 110.5 -27
t36.5 -106z" />
    <glyph glyph-name="asciitilde" unicode="~" 
d="M54 179v0l-33 35q52 86 114 86q32 0 93.5 -26t82.5 -26q42 0 80 61l33 -34q-50 -81 -113 -81q-23 0 -108 32q-51 19 -68 19q-28 0 -49 -22q-12 -12 -32 -44z" />
    <glyph glyph-name="euro" horiz-adv-x="498" 
d="M522 633l-23 -156l-48 6q0 157 -94 157q-103 0 -161 -211h172l-21 -48h-164q-6 -24 -16 -73h147l-21 -47h-134q-6 -41 -6 -74q0 -56 21 -91q26 -43 78 -43q58 0 101 68q24 38 51 119l55 -10l-54 -188q-77 -53 -159 -53q-111 0 -166 84q-47 71 -47 188h-74l21 47h56
q3 25 12 73h-66l21 48h59q41 112 108 183q83 88 187 88q94 0 165 -67z" />
    <glyph glyph-name="exclamdown" unicode="&#xa1;" horiz-adv-x="222" 
d="M89 376v0h40q12 -290 12 -362v-199h-64v199q0 72 12 362zM146 464h-69v88h69v-88z" />
    <glyph glyph-name="cent" unicode="&#xa2;" 
d="M256 503q-24 7 -55 -1q-52 -13 -69 -101q-9 -46 -9 -135q0 -153 40 -196zM201 43q15 -6 33 -6q53 0 75 49q11 26 19 95h56q0 -194 -151 -194q-24 0 -43 4l-29 -134h-44l32 150q-87 38 -87 269q0 283 168 283q20 0 37 -4l25 116h44l-29 -133q71 -43 73 -154h-56
q-3 63 -30 93z" />
    <glyph glyph-name="sterling" unicode="&#xa3;" 
d="M123 329h-104v41h88q-51 114 -51 202q0 70 48 117.5t118 47.5q183 0 188 -217h-60q-6 164 -120 164q-55 0 -84 -35t-29 -91q0 -42 18 -96q1 -3 36 -92h153v-41h-138q11 -37 11 -81q0 -125 -74 -192q49 9 69 9q38 0 75 -14q32 -12 62 -12q36 0 77 25l22 -47
q-38 -32 -104 -32q-18 0 -32 4q-33 9 -66 19q-44 11 -66 11q-46 0 -102 -40l-33 37q59 51 84 94q30 52 30 120q0 51 -16 99z" />
    <glyph glyph-name="currency" unicode="&#xa4;" 
d="M1 104l39 38q-43 62 -43 133q0 76 43 136l-39 39l47 47l40 -38q59 44 138 44q68 0 132 -44l39 38l47 -47l-39 -39q43 -61 43 -140q0 -66 -43 -129l39 -38l-47 -48l-39 39q-61 -45 -140 -45q-67 0 -130 45l-40 -39zM384 278q0 64 -46.5 112t-111.5 48q-70 0 -117.5 -46.5
t-47.5 -116.5q0 -65 47.5 -112.5t112.5 -47.5q68 0 115.5 47t47.5 116z" />
    <glyph glyph-name="yen" unicode="&#xa5;" 
d="M454 738l-199 -424v-34h137v-48h-137v-52h135v-48h-135v-132h-65v132h-138v48h138v52h-138v48h138v34l-199 424h72l158 -351l165 351h68z" />
    <glyph glyph-name="brokenbar" unicode="&#xa6;" horiz-adv-x="222" 
d="M85 0v300h52v-300h-52zM85 750h52v-300h-52v300z" />
    <glyph glyph-name="section" unicode="&#xa7;" 
d="M293 378l-137 99q-80 -35 -80 -114q0 -36 16 -60q12 -20 45 -43l154 -109q33 15 55.5 44.5t22.5 63.5q0 64 -76 119zM260 103l-154 117q-80 61 -80 140q0 83 96 144q-30 33 -41 57q-13 28 -13 68q0 61 49 104q40 35 106 35q72 0 115 -50q39 -46 42 -119h-55
q-8 124 -102 124q-91 0 -98 -87q-6 -71 66 -120l112 -76q116 -79 116 -179q0 -83 -94 -141q53 -47 53 -119q0 -67 -43 -107.5t-111 -40.5q-74 0 -117 47.5t-41 122.5h54q-1 -58 26 -91.5t76 -33.5q48 0 76 31q24 27 24 66q0 61 -62 108z" />
    <glyph glyph-name="dieresis" unicode="&#xa8;" horiz-adv-x="333" 
d="M56 617v102h64v-102h-64zM214 617v102h64v-102h-64z" />
    <glyph glyph-name="copyright" unicode="&#xa9;" horiz-adv-x="800" 
d="M401 -18q-159 0 -271.5 115.5t-112.5 278.5q0 162 112.5 277.5t271.5 115.5q158 0 270 -115.5t112 -277.5q0 -163 -112 -278.5t-270 -115.5zM401 29q139 0 237 101.5t98 245.5q0 143 -98 244t-237 101q-140 0 -238 -101t-98 -244q0 -144 98.5 -245.5t237.5 -101.5z
M540 304h55q-7 -68 -58 -110t-119 -42q-95 0 -154 66q-58 63 -58 161q0 99 56.5 162.5t152.5 63.5q70 0 119.5 -39.5t60.5 -108.5h-55q-8 45 -43 73.5t-81 28.5q-73 0 -115 -53q-39 -49 -39 -126q0 -74 41 -126q44 -55 115 -55q46 0 81 28.5t41 76.5z" />
    <glyph glyph-name="ordfeminine" unicode="&#xaa;" horiz-adv-x="266" 
d="M178 522v85q-13 -7 -72 -31q-28 -11 -37.5 -25t-9.5 -44q0 -58 51 -58q32 0 50 21t18 52zM68 676h-36q-3 92 95 92q92 0 92 -90v-204q0 -15 5 -19t21 -4v-25q-15 -6 -42 -2q-13 5 -20 29l-1 1q-29 -35 -79 -35q-82 0 -82 94q0 62 50 85q33 12 98 37q9 9 9 10q2 5 2 24
q0 35 -8 49q-12 19 -46 19q-35 0 -47 -21q-4 -7 -11 -40zM42 334v30h180v-30h-180z" />
    <glyph glyph-name="guillemotleft" unicode="&#xab;" horiz-adv-x="500" 
d="M224 130l-141 106v70l141 106v-60l-101 -81l101 -79v-62zM411 130l-141 106v70l141 106v-60l-102 -81l102 -79v-62z" />
    <glyph glyph-name="logicalnot" unicode="&#xac;" 
d="M21 360h403v-267h-51v216h-352v51z" />
    <glyph glyph-name="sfthyphen" unicode="&#xad;" horiz-adv-x="338" 
d="M8 174l33 122h246l-33 -122h-246z" />
    <glyph glyph-name="registered" unicode="&#xae;" horiz-adv-x="800" 
d="M401 -18q-159 0 -271.5 115.5t-112.5 278.5q0 162 112.5 277.5t271.5 115.5q158 0 270 -115.5t112 -277.5q0 -163 -112 -278.5t-270 -115.5zM401 29q139 0 237 101.5t98 245.5q0 143 -98 244t-237 101q-140 0 -238 -101t-98 -244q0 -144 98.5 -245.5t237.5 -101.5z
M462 359l129 -203h-62l-122 203h-96v-203h-52v440h186q68 0 104 -22q48 -29 48 -95q0 -116 -135 -120zM311 401h80q77 0 99 6q54 15 54 73q0 76 -111 76h-122v-155z" />
    <glyph glyph-name="macron" unicode="&#xaf;" horiz-adv-x="333" 
d="M19 690h296v-45h-296v45z" />
    <glyph glyph-name="macron" unicode="&#x2c9;" horiz-adv-x="333" 
d="M19 690h296v-45h-296v45z" />
    <glyph glyph-name="degree" unicode="&#xb0;" horiz-adv-x="400" 
d="M350 594q0 -62 -44 -106t-106 -44t-106 44t-44 106t44 106t106 44t106 -44t44 -106zM310 594q0 45 -32.5 77.5t-78.5 32.5q-45 0 -77 -32.5t-32 -77.5q0 -46 32 -78t78 -32q45 0 77.5 32t32.5 78z" />
    <glyph glyph-name="plusminus" unicode="&#xb1;" 
d="M197 270h-176v51h176v169h51v-169h176v-51h-176v-170h-51v170zM424 51v-51h-403v51h403z" />
    <glyph glyph-name="twosuperior" unicode="&#xb2;" horiz-adv-x="266" 
d="M58 343h193v-45h-235v31q0 48 21 79q10 15 59 62q38 36 77 73q27 32 27 81q0 30 -14 52q-16 27 -44 30q-70 8 -74 -94h-48q-2 56 26 92q31 40 90 40q51 0 83 -32.5t32 -86.5q0 -62 -58 -126q-1 -2 -108 -100q-26 -24 -27 -56z" />
    <glyph glyph-name="threesuperior" unicode="&#xb3;" horiz-adv-x="266" 
d="M118 505h-29l-1 45h18q86 0 86 78t-64 78q-56 0 -62 -81h-43q-1 50 24 83q28 37 80 37q56 0 85 -32t29 -84q0 -72 -71 -100q84 -17 84 -113q0 -78 -53 -109q-30 -17 -69 -17q-122 0 -120 125h45q1 -42 14 -61q17 -24 59 -24q72 0 72 88q0 87 -84 87z" />
    <glyph glyph-name="acute" unicode="&#xb4;" horiz-adv-x="333" 
d="M155 606h-51l111 139h78z" />
    <glyph glyph-name="mu" unicode="&#xb5;" 
d="M321 132v420h58v-552h-56v51q-51 -65 -141 -65q-36 0 -64 24v-199h-58v741h58v-418q0 -103 97 -97q33 2 62.5 30t43.5 65z" />
    <glyph glyph-name="mu" unicode="&#x3bc;" 
d="M321 132v420h58v-552h-56v51q-51 -65 -141 -65q-36 0 -64 24v-199h-58v741h58v-418q0 -103 97 -97q33 2 62.5 30t43.5 65z" />
    <glyph glyph-name="paragraph" unicode="&#xb6;" horiz-adv-x="564" 
d="M229 -116v482q-75 -1 -125.5 55t-50.5 135q0 194 207 194h183v-866h-58v799h-98v-799h-58z" />
    <glyph glyph-name="ch270" unicode="&#xb7;" horiz-adv-x="249" 
d="M38 348q0 34 23 57t57 23t57.5 -23t23.5 -57t-23.5 -57.5t-57.5 -23.5t-57 23.5t-23 57.5z" />
    <glyph glyph-name="ch270" unicode="&#x2219;" horiz-adv-x="249" 
d="M38 348q0 34 23 57t57 23t57.5 -23t23.5 -57t-23.5 -57.5t-57.5 -23.5t-57 23.5t-23 57.5z" />
    <glyph glyph-name="cedilla" unicode="&#xb8;" horiz-adv-x="333" 
d="M57 -188l15 30q43 -15 63 -15q67 0 67 47q0 38 -53 38q-20 0 -41 -7l-15 13l60 82h38l-46 -59q21 6 32 6q37 0 59.5 -19.5t22.5 -52.5q0 -42 -37 -64q-30 -18 -75 -18q-44 0 -90 19z" />
    <glyph glyph-name="onesuperior" unicode="&#xb9;" horiz-adv-x="266" 
d="M57 634v28q52 2 75 15q31 19 36 67h42v-446h-50v343q-9 -2 -49 -5q-35 -3 -54 -2z" />
    <glyph glyph-name="ordmasculine" unicode="&#xba;" horiz-adv-x="266" 
d="M134 768q112 0 112 -171q0 -172 -114 -172q-71 0 -96 58q-17 38 -17 121q0 164 115 164zM129 737q-71 0 -71 -130q0 -16 1 -34q3 -52 9 -70q12 -36 47 -47q59 -7 78 41q12 28 12 100q0 62 -10 91q-17 49 -66 49zM32 364h192v-31h-192v31z" />
    <glyph glyph-name="guillemotright" unicode="&#xbb;" horiz-adv-x="500" 
d="M276 352v60l141 -106v-70l-141 -106v62l101 79zM89 412l141 -106v-70l-141 -106v62l102 79l-102 81v60z" />
    <glyph glyph-name="onequarter" unicode="&#xbc;" horiz-adv-x="666" 
d="M399 159l164 287h47v-294h38v-37h-38v-115h-47v115h-164v44zM437 152h126v224h-2zM92 0l452 744h50l-450 -744h-52zM19 634v28q52 2 75 15q31 19 36 67h42v-446h-50v343q-9 -2 -49 -5q-35 -3 -54 -2z" />
    <glyph glyph-name="onehalf" unicode="&#xbd;" horiz-adv-x="666" 
d="M75 0l452 744h50l-450 -744h-52zM2 634v28q52 2 75 15q31 19 36 67h42v-446h-50v343q-9 -2 -49 -5q-35 -3 -54 -2zM471 45h193v-45h-235v31q0 48 21 79q10 15 59 62q38 36 77 73q27 32 27 81q0 30 -14 52q-16 27 -44 30q-70 8 -74 -94h-48q-2 56 26 92q31 40 90 40
q51 0 83 -32.5t32 -86.5q0 -62 -58 -126q-1 -2 -108 -100q-26 -24 -27 -56z" />
    <glyph glyph-name="threequarters" unicode="&#xbe;" horiz-adv-x="666" 
d="M401 159l164 287h47v-294h38v-37h-38v-115h-47v115h-164v44zM439 152h126v224h-2zM124 0l452 744h50l-450 -744h-52zM122 504h-29l-1 45h18q86 0 86 78t-64 78q-56 0 -62 -81h-43q-1 50 24 83q28 37 80 37q56 0 85 -32t29 -84q0 -72 -71 -100q84 -17 84 -113
q0 -78 -53 -109q-30 -17 -69 -17q-122 0 -120 125h45q1 -42 14 -61q17 -24 59 -24q72 0 72 88q0 87 -84 87z" />
    <glyph glyph-name="questiondown" unicode="&#xbf;" horiz-adv-x="389" 
d="M178 377h56q4 -69 -15 -120q-16 -42 -62 -104q-38 -50 -53 -81q-22 -45 -22 -92q0 -57 26.5 -92t75.5 -35q69 0 95 47q20 36 20 112h62q3 -84 -30 -140q-44 -74 -142 -74q-71 0 -117 43q-52 48 -52 135q0 50 17 91q19 49 71 115q44 57 57 89q15 39 13 106zM170 552h70
v-88h-70v88z" />
    <glyph glyph-name="Agrave" unicode="&#xc0;" horiz-adv-x="500" 
d="M150 289h200l-99 379h-2zM213 750h75l201 -750h-66l-59 231h-228l-61 -231h-63zM263 809h-26l-139 125h80z" />
    <glyph glyph-name="Aacute" unicode="&#xc1;" horiz-adv-x="500" 
d="M150 289h200l-99 379h-2zM213 750h75l201 -750h-66l-59 231h-228l-61 -231h-63zM263 809h-26l85 125h80z" />
    <glyph glyph-name="Acircumflex" unicode="&#xc2;" horiz-adv-x="500" 
d="M150 289h200l-99 379h-2zM213 750h75l201 -750h-66l-59 231h-228l-61 -231h-63zM250 867l-71 -87h-54l96 118h57l97 -118h-55z" />
    <glyph glyph-name="Atilde" unicode="&#xc3;" horiz-adv-x="500" 
d="M150 289h200l-99 379h-2zM213 750h75l201 -750h-66l-59 231h-228l-61 -231h-63zM317 812q-13 -3 -25 -3q-22 0 -54 19q-25 19 -46 19q-6 0 -12 -1q-18 -6 -52 -42h-30q57 85 119 85q18 0 43 -15q40 -24 55 -24q26 0 58 43h31q-37 -60 -87 -81z" />
    <glyph glyph-name="Adieresis" unicode="&#xc4;" horiz-adv-x="500" 
d="M150 289h200l-99 379h-2zM213 750h75l201 -750h-66l-59 231h-228l-61 -231h-63zM140 815v102h64v-102h-64zM298 815v102h64v-102h-64z" />
    <glyph glyph-name="Aring" unicode="&#xc5;" horiz-adv-x="500" 
d="M150 289h200l-99 379h-2zM213 750h75l201 -750h-66l-59 231h-228l-61 -231h-63zM250 744q-40 0 -69.5 30t-29.5 70t29.5 70t69.5 30t70 -30t30 -70t-29.5 -70t-70.5 -30zM250 910q-27 0 -46.5 -19.5t-19.5 -46.5t20 -46.5t46 -19.5t46 20t20 46t-19.5 46t-46.5 20z" />
    <glyph glyph-name="AE" unicode="&#xc6;" horiz-adv-x="722" 
d="M6 0l265 750h414v-58h-276v-273h251v-58h-251v-303h279v-58h-344v229h-193l-78 -229h-67zM344 692h-31l-142 -405h173v405z" />
    <glyph glyph-name="Ccedilla" unicode="&#xc7;" horiz-adv-x="556" 
d="M427 254h65q3 -107 -49 -184q-58 -88 -163 -88q-142 0 -190 147q-27 84 -27 267q0 158 35 244q52 128 184 128q97 0 152 -69q51 -64 52 -165h-65q-12 176 -141 176q-102 0 -135 -127q-17 -64 -17 -202q0 -148 18 -214q34 -127 141 -127q133 0 140 214zM169 -188l15 30
q43 -15 63 -15q67 0 67 47q0 38 -53 38q-20 0 -41 -7l-15 13l60 82h38l-46 -59q21 6 32 6q37 0 59.5 -19.5t22.5 -52.5q0 -42 -37 -64q-30 -18 -75 -18q-44 0 -90 19z" />
    <glyph glyph-name="Egrave" unicode="&#xc8;" 
d="M412 0h-345v750h340v-58h-275v-270h250v-58h-250v-306h280v-58zM250 809h-26l-139 125h80z" />
    <glyph glyph-name="Eacute" unicode="&#xc9;" 
d="M412 0h-345v750h340v-58h-275v-270h250v-58h-250v-306h280v-58zM249 809h-26l85 125h80z" />
    <glyph glyph-name="Ecircumflex" unicode="&#xca;" 
d="M412 0h-345v750h340v-58h-275v-270h250v-58h-250v-306h280v-58zM237 879l-71 -87h-54l96 118h57l97 -118h-55z" />
    <glyph glyph-name="Edieresis" unicode="&#xcb;" 
d="M412 0h-345v750h340v-58h-275v-270h250v-58h-250v-306h280v-58zM112 815v102h64v-102h-64zM270 815v102h64v-102h-64z" />
    <glyph glyph-name="Igrave" unicode="&#xcc;" horiz-adv-x="222" 
d="M144 0h-65v750h65v-750zM126 809h-26l-139 125h80z" />
    <glyph glyph-name="Iacute" unicode="&#xcd;" horiz-adv-x="222" 
d="M144 0h-65v750h65v-750zM124 809h-26l85 125h80z" />
    <glyph glyph-name="Icircumflex" unicode="&#xce;" horiz-adv-x="222" 
d="M144 0h-65v750h65v-750zM112 906l-83 -102h-64l113 139h67l114 -139h-65z" />
    <glyph glyph-name="Idieresis" unicode="&#xcf;" horiz-adv-x="222" 
d="M144 0h-65v750h65v-750zM1 815v102h64v-102h-64zM159 815v102h64v-102h-64z" />
    <glyph glyph-name="Eth" unicode="&#xd0;" horiz-adv-x="556" 
d="M72 413v337h134q80 0 121 -10q61 -15 101 -61q36 -40 55 -117q17 -65 17 -130q0 -200 -29 -279q-33 -91 -97 -125q-53 -28 -155 -28h-147v359h-94v54h94zM137 692v-279h127v-54h-127v-301h78q80 0 115 16q105 49 105 302q0 111 -11 165q-21 99 -86 134q-25 14 -70 16
q-9 1 -75 1h-56z" />
    <glyph glyph-name="Ntilde" unicode="&#xd1;" horiz-adv-x="556" 
d="M147 750l276 -644h2v644h65v-750h-79l-278 642h-2v-642h-65v750h81zM381 825q-14 -4 -28 -4q-27 0 -75 22.5t-70 22.5q-8 0 -14 -2q-20 -9 -35 -48h-37q6 41 30 69t60 28q23 0 61 -17q49 -21 61 -24t21 -3q32 0 43 49h38q-8 -70 -55 -93z" />
    <glyph glyph-name="Ograve" unicode="&#xd2;" horiz-adv-x="556" 
d="M276 -18q-142 0 -190 147q-28 85 -28 267q0 372 220 372q144 0 193 -143q28 -82 28 -266q0 -169 -32 -250q-50 -127 -191 -127zM282 40q102 0 135 127q17 65 17 207q0 141 -19 209q-36 127 -140 127q-98 0 -133 -124q-19 -68 -19 -205q0 -147 18 -214q34 -127 141 -127z
M291 824h-26l-139 125h80z" />
    <glyph glyph-name="Oacute" unicode="&#xd3;" horiz-adv-x="556" 
d="M276 -18q-142 0 -190 147q-28 85 -28 267q0 372 220 372q144 0 193 -143q28 -82 28 -266q0 -169 -32 -250q-50 -127 -191 -127zM282 40q102 0 135 127q17 65 17 207q0 141 -19 209q-36 127 -140 127q-98 0 -133 -124q-19 -68 -19 -205q0 -147 18 -214q34 -127 141 -127z
M291 824h-26l85 125h80z" />
    <glyph glyph-name="Ocircumflex" unicode="&#xd4;" horiz-adv-x="556" 
d="M276 -18q-142 0 -190 147q-28 85 -28 267q0 372 220 372q144 0 193 -143q28 -82 28 -266q0 -169 -32 -250q-50 -127 -191 -127zM282 40q102 0 135 127q17 65 17 207q0 141 -19 209q-36 127 -140 127q-98 0 -133 -124q-19 -68 -19 -205q0 -147 18 -214q34 -127 141 -127z
M277 879l-71 -87h-54l96 118h57l97 -118h-55z" />
    <glyph glyph-name="Otilde" unicode="&#xd5;" horiz-adv-x="556" 
d="M276 -18q-142 0 -190 147q-28 85 -28 267q0 372 220 372q144 0 193 -143q28 -82 28 -266q0 -169 -32 -250q-50 -127 -191 -127zM282 40q102 0 135 127q17 65 17 207q0 141 -19 209q-36 127 -140 127q-98 0 -133 -124q-19 -68 -19 -205q0 -147 18 -214q34 -127 141 -127z
M344 827q-13 -3 -25 -3q-22 0 -54 19q-25 19 -46 19q-6 0 -12 -1q-18 -6 -52 -42h-30q57 85 119 85q18 0 43 -15q40 -24 55 -24q26 0 58 43h31q-37 -60 -87 -81z" />
    <glyph glyph-name="Odieresis" unicode="&#xd6;" horiz-adv-x="556" 
d="M276 -18q-142 0 -190 147q-28 85 -28 267q0 372 220 372q144 0 193 -143q28 -83 28 -266q0 -168 -32 -250q-51 -127 -191 -127zM282 40q102 0 135 127q17 65 17 207q0 140 -19 209q-36 127 -140 127q-98 0 -133 -124q-19 -70 -19 -205q0 -148 18 -214q34 -127 141 -127z
M168 815v102h64v-102h-64zM326 815v102h64v-102h-64z" />
    <glyph glyph-name="multiply" unicode="&#xd7;" 
d="M222 204l-164 -164l-37 35l165 165l-165 165l37 36l164 -165l165 165l37 -35l-166 -166l166 -166l-37 -36z" />
    <glyph glyph-name="Oslash" unicode="&#xd8;" horiz-adv-x="556" 
d="M419 564l-261 -441q38 -83 124 -83q102 0 135 128q17 64 17 207q0 123 -15 189zM137 186l261 441q-38 83 -123 83q-98 0 -133 -123q-19 -70 -19 -205q0 -134 14 -196zM120 59l-52 -88l-42 27l66 112q-34 86 -34 286q0 372 220 372q106 0 159 -76l47 78l45 -20l-65 -109
q35 -83 35 -282q0 -168 -32 -250q-51 -127 -191 -127q-104 0 -156 77z" />
    <glyph glyph-name="Ugrave" unicode="&#xd9;" horiz-adv-x="556" 
d="M73 198v552h65v-544q0 -85 25 -121q31 -45 112 -45t115 48q28 40 28 124v538h65v-522q0 -119 -42 -178q-49 -68 -164 -68q-204 0 -204 216zM291 792h-26l-139 125h80z" />
    <glyph glyph-name="Uacute" unicode="&#xda;" horiz-adv-x="556" 
d="M73 198v552h65v-544q0 -85 25 -121q31 -45 112 -45t115 48q28 40 28 124v538h65v-522q0 -119 -42 -178q-49 -68 -164 -68q-204 0 -204 216zM291 792h-26l85 125h80z" />
    <glyph glyph-name="Ucircumflex" unicode="&#xdb;" horiz-adv-x="556" 
d="M73 198v552h65v-544q0 -86 26 -123q31 -43 111 -43q82 0 115 48q28 40 28 124v538h65v-522q0 -119 -42 -178q-50 -68 -164 -68q-204 0 -204 216zM279 906l-83 -102h-64l113 139h67l114 -139h-65z" />
    <glyph glyph-name="Udieresis" unicode="&#xdc;" horiz-adv-x="556" 
d="M73 198v552h65v-544q0 -86 26 -123q31 -43 111 -43q82 0 115 48q28 40 28 124v538h65v-522q0 -119 -42 -178q-50 -68 -164 -68q-204 0 -204 216zM168 815v102h64v-102h-64zM326 815v102h64v-102h-64z" />
    <glyph glyph-name="Yacute" unicode="&#xdd;" horiz-adv-x="500" 
d="M249 393l165 357h68l-200 -431v-319h-65v319l-198 431h72zM264 792h-26l85 125h80z" />
    <glyph glyph-name="Thorn" unicode="&#xde;" horiz-adv-x="500" 
d="M141 0h-65v750h65v-170h68q133 0 190 -40q63 -45 63 -156q0 -112 -61 -163q-32 -27 -87 -41q-42 -11 -74 -11h-99v-169zM141 523v-295h56q101 0 144 25q56 34 56 126q0 81 -42 115q-37 29 -119 29h-95z" />
    <glyph glyph-name="germandbls" unicode="&#xdf;" 
d="M208 406v51q64 -1 89 30q21 27 21 95q0 63 -17 94q-23 41 -80 41q-64 0 -85 -54q-12 -31 -12 -111v-552h-58v539q0 105 28 158q38 71 131 71q75 0 114 -55q35 -49 35 -128q0 -112 -75 -153q95 -24 95 -219q0 -234 -132 -227q-26 1 -65 19v62q27 -30 57 -30q56 0 74 67
q8 32 8 112q0 107 -28 150.5t-100 39.5z" />
    <glyph glyph-name="agrave" unicode="&#xe0;" horiz-adv-x="389" 
d="M271 201v97q-9 -6 -115 -51q-43 -19 -57.5 -42t-14.5 -72q0 -96 77 -96q110 0 110 164zM97 413h-56q-2 73 36 113t111 40q77 0 109 -36.5t32 -113.5v-339q0 -25 7.5 -31.5t32.5 -5.5v-42q-15 -6 -35 -6q-13 0 -29 3q-17 7 -23 19q-2 4 -8 31h-1q-43 -59 -122 -59
q-125 0 -125 156q0 104 76 142q75 29 151 62q12 5 15 22q8 46 -2 92q-12 55 -79 55q-54 0 -72 -33q-8 -12 -18 -69zM209 620h-25l-132 119h76z" />
    <glyph glyph-name="aacute" unicode="&#xe1;" horiz-adv-x="389" 
d="M271 201v97q-9 -6 -115 -51q-43 -19 -57.5 -42t-14.5 -72q0 -96 77 -96q110 0 110 164zM97 413h-56q-2 73 36 113t111 40q77 0 109 -36.5t32 -113.5v-339q0 -25 7.5 -31.5t32.5 -5.5v-42q-15 -6 -35 -6q-13 0 -29 3q-17 7 -23 19q-2 4 -8 31h-1q-43 -59 -122 -59
q-125 0 -125 156q0 104 76 142q75 29 151 62q12 5 15 22q8 46 -2 92q-12 55 -79 55q-54 0 -72 -33q-8 -12 -18 -69zM208 620h-25l81 119h76z" />
    <glyph glyph-name="acircumflex" unicode="&#xe2;" horiz-adv-x="389" 
d="M271 201v97q-9 -6 -115 -51q-43 -19 -57.5 -42t-14.5 -72q0 -96 77 -96q110 0 110 164zM97 413h-56q-2 73 36 113t111 40q77 0 109 -36.5t32 -113.5v-339q0 -25 7.5 -31.5t32.5 -5.5v-42q-15 -6 -35 -6q-13 0 -29 3q-17 7 -23 19q-2 4 -8 31h-1q-43 -59 -122 -59
q-125 0 -125 156q0 104 76 142q75 29 151 62q12 5 15 22q8 46 -2 92q-12 55 -79 55q-54 0 -72 -33q-8 -12 -18 -69zM196 673l-67 -83h-52l91 112h55l92 -112h-53z" />
    <glyph glyph-name="atilde" unicode="&#xe3;" horiz-adv-x="389" 
d="M271 201v97q-9 -6 -115 -51q-43 -19 -57.5 -42t-14.5 -72q0 -96 77 -96q110 0 110 164zM97 413h-56q-2 73 36 113t111 40q77 0 109 -36.5t32 -113.5v-339q0 -25 7.5 -31.5t32.5 -5.5v-42q-15 -6 -35 -6q-13 0 -29 3q-17 7 -23 19q-2 4 -8 31h-1q-43 -59 -122 -59
q-125 0 -125 156q0 104 76 142q75 29 151 62q12 5 15 22q8 46 -2 92q-12 55 -79 55q-54 0 -72 -33q-8 -12 -18 -69zM260 628q-13 -3 -25 -3q-21 0 -50.5 18.5t-43.5 18.5q-22 0 -61 -42h-28q52 81 113 81q17 0 48 -18.5t46 -18.5q24 0 54 41h29q-34 -57 -82 -77z" />
    <glyph glyph-name="adieresis" unicode="&#xe4;" horiz-adv-x="389" 
d="M271 201v97q-10 -6 -115 -51q-44 -19 -58 -42t-14 -72q0 -96 77 -96q54 0 82 41t28 123zM97 413h-56q-2 73 36.5 113t110.5 40q81 0 114 -42q27 -34 27 -108v-339q0 -26 8 -32t32 -5v-42q-26 -10 -64 -3q-17 7 -23 19q-2 4 -8 31h-1q-43 -59 -122 -59q-125 0 -125 156
q0 104 76 142q51 20 151 62q12 6 15 22q8 46 -2 92q-12 55 -79 55q-54 0 -72 -33q-8 -12 -18 -69zM84 617v102h64v-102h-64zM242 617v102h64v-102h-64z" />
    <glyph glyph-name="aring" unicode="&#xe5;" horiz-adv-x="389" 
d="M271 201v97q-10 -6 -115 -51q-44 -19 -58 -42t-14 -72q0 -96 77 -96q54 0 82 41t28 123zM97 413h-56q-2 73 36.5 113t110.5 40q81 0 114 -42q27 -34 27 -108v-339q0 -26 8 -32t32 -5v-42q-26 -10 -64 -3q-17 7 -23 19q-2 4 -8 31h-1q-43 -59 -122 -59q-125 0 -125 156
q0 104 76 142q51 20 151 62q12 6 15 22q8 46 -2 92q-12 55 -79 55q-54 0 -72 -33q-8 -12 -18 -69zM194 596q-40 0 -69.5 30t-29.5 70t29.5 70t69.5 30t70 -30t30 -70t-29.5 -70t-70.5 -30zM194 762q-27 0 -46.5 -19.5t-19.5 -46.5t20 -46.5t46 -19.5t46 20t20 46t-19.5 46
t-46.5 20z" />
    <glyph glyph-name="ae" unicode="&#xe6;" horiz-adv-x="611" 
d="M325 332h200q0 79 -15 119q-25 64 -90 64q-60 0 -82 -67q-12 -38 -13 -116zM583 281h-261q3 -120 11 -152q21 -92 94 -92q55 0 78 46q16 31 20 96h56q0 -86 -34 -135q-40 -58 -121 -58q-49 0 -78 21q-23 16 -53 61q-52 -82 -145 -82q-72 0 -102 45q-24 37 -24 114
q0 105 76 140q17 8 109 41q42 15 50 26.5t8 57.5q0 54 -15 77q-20 28 -70 28q-87 0 -85 -103h-58q10 154 150 154q84 0 121 -56q46 56 114 56q104 0 139 -99q22 -61 20 -186zM263 155v141q-20 -16 -60 -30q-52 -19 -63 -25q-60 -21 -58 -114q2 -92 75 -92q106 0 106 120z
" />
    <glyph glyph-name="ccedilla" unicode="&#xe7;" horiz-adv-x="389" 
d="M300 183h58q1 -86 -33 -137q-39 -60 -120 -60q-107 0 -145 100q-23 62 -23 193q0 123 26 188q39 99 140 99q71 0 113 -54q38 -50 37 -123h-57q-2 54 -27 90.5t-70 35.5q-71 -2 -93 -92q-11 -45 -11 -154q0 -98 13 -145q25 -87 98 -87q53 0 75 49q12 28 19 97zM85 -188
l15 30q43 -15 63 -15q67 0 67 47q0 38 -53 38q-20 0 -41 -7l-15 13l60 82h38l-46 -59q21 6 32 6q37 0 59.5 -19.5t22.5 -52.5q0 -42 -37 -64q-30 -18 -75 -18q-44 0 -90 19z" />
    <glyph glyph-name="egrave" unicode="&#xe8;" horiz-adv-x="389" 
d="M352 335v-56h-259q0 -109 9 -148q22 -94 95 -94q54 0 77 47q15 31 20 96h56q0 -83 -34 -134q-41 -60 -120 -60q-101 0 -138 101q-23 63 -23 187q0 123 23 188q37 104 136 104q87 0 127 -76q31 -59 31 -155zM93 330h201q0 185 -101 185q-100 0 -100 -185zM209 620h-25
l-132 119h76z" />
    <glyph glyph-name="eacute" unicode="&#xe9;" horiz-adv-x="389" 
d="M352 335v-56h-259q0 -109 9 -148q22 -94 95 -94q54 0 77 47q15 31 20 96h56q0 -83 -34 -134q-41 -60 -120 -60q-101 0 -138 101q-23 63 -23 187q0 123 23 188q37 104 136 104q87 0 127 -76q31 -59 31 -155zM93 330h201q0 185 -101 185q-100 0 -100 -185zM208 620h-25
l81 119h76z" />
    <glyph glyph-name="ecircumflex" unicode="&#xea;" horiz-adv-x="389" 
d="M352 335v-56h-259q0 -109 9 -148q22 -94 95 -94q54 0 77 47q15 31 20 96h56q0 -83 -34 -134q-41 -60 -120 -60q-101 0 -138 101q-23 63 -23 187q0 123 23 188q37 104 136 104q87 0 127 -76q31 -59 31 -155zM93 330h201q0 185 -101 185q-100 0 -100 -185zM196 673l-67 -83
h-52l91 112h55l92 -112h-53z" />
    <glyph glyph-name="edieresis" unicode="&#xeb;" horiz-adv-x="389" 
d="M352 335v-56h-259q0 -107 9 -148q22 -94 95 -94q55 0 77 47q15 30 20 96h56q0 -84 -35 -135q-40 -59 -119 -59q-101 0 -138 101q-23 63 -23 187t23 188q36 104 136 104q87 0 127 -76q31 -59 31 -155zM93 330h201q0 185 -101 185q-100 0 -100 -185zM84 617v102h64v-102
h-64zM242 617v102h64v-102h-64z" />
    <glyph glyph-name="igrave" unicode="&#xec;" horiz-adv-x="222" 
d="M140 0h-58v552h58v-552zM124 607h-25l-132 119h76z" />
    <glyph glyph-name="iacute" unicode="&#xed;" horiz-adv-x="222" 
d="M140 0h-58v552h58v-552zM123 607h-25l81 119h76z" />
    <glyph glyph-name="icircumflex" unicode="&#xee;" horiz-adv-x="200" 
d="M129 0h-58v552h58v-552zM91 708l-83 -102h-64l113 139h67l114 -139h-65z" />
    <glyph glyph-name="idieresis" unicode="&#xef;" horiz-adv-x="200" 
d="M129 0h-58v552h58v-552zM-10 617v102h64v-102h-64zM148 617v102h64v-102h-64z" />
    <glyph glyph-name="eth" unicode="&#xf0;" 
d="M219 37q76 0 103 89q15 50 15 151t-16 151q-27 87 -105 87q-110 0 -110 -227q0 -110 12 -156q24 -95 101 -95zM252 715l66 50l31 -34l-55 -41q59 -44 82.5 -141.5t20.5 -281.5q-2 -119 -30 -183q-42 -98 -147 -98q-111 0 -149 104q-23 62 -23 199q0 277 175 277
q50 0 95 -30q-16 79 -72 118l-76 -56l-29 32l62 47q-56 23 -143 25l1 48q133 -8 191 -35z" />
    <glyph glyph-name="ntilde" unicode="&#xf1;" 
d="M123 407v-407h-58v552h58v-54h2q46 68 125 68q55 0 92 -35t37 -93v-438h-58v401q0 58 -12 81q-17 33 -69 33q-45 0 -81 -31.5t-36 -76.5zM325 627q-14 -4 -28 -4q-27 0 -75 22.5t-70 22.5q-8 0 -14 -2q-20 -9 -35 -48h-37q6 41 30 69t60 28q23 0 61 -17q49 -21 61 -24
t21 -3q32 0 43 49h38q-8 -70 -55 -93z" />
    <glyph glyph-name="ograve" unicode="&#xf2;" 
d="M221 -14q-111 0 -149 104q-23 63 -23 199q0 277 175 277q172 0 172 -288q0 -125 -27 -191q-42 -101 -148 -101zM220 37q76 0 103 89q15 50 15 151q0 100 -16 151q-27 87 -105 87q-110 0 -110 -227q0 -109 12 -156q24 -95 101 -95zM232 620h-25l-132 119h76z" />
    <glyph glyph-name="oacute" unicode="&#xf3;" 
d="M221 -14q-111 0 -149 104q-23 63 -23 199q0 277 175 277q172 0 172 -288q0 -125 -27 -191q-42 -101 -148 -101zM220 37q76 0 103 89q15 50 15 151q0 100 -16 151q-27 87 -105 87q-110 0 -110 -227q0 -109 12 -156q24 -95 101 -95zM235 620h-25l81 119h76z" />
    <glyph glyph-name="ocircumflex" unicode="&#xf4;" 
d="M221 -14q-111 0 -149 104q-23 63 -23 199q0 277 175 277q172 0 172 -288q0 -125 -27 -191q-42 -101 -148 -101zM220 37q76 0 103 89q15 50 15 151q0 100 -16 151q-27 87 -105 87q-110 0 -110 -227q0 -109 12 -156q24 -95 101 -95zM223 673l-67 -83h-52l91 112h55l92 -112
h-53z" />
    <glyph glyph-name="otilde" unicode="&#xf5;" 
d="M221 -14q-111 0 -149 104q-23 63 -23 199q0 277 175 277q172 0 172 -288q0 -125 -27 -191q-42 -101 -148 -101zM220 37q76 0 103 89q15 50 15 151q0 100 -16 151q-27 87 -105 87q-110 0 -110 -227q0 -109 12 -156q24 -95 101 -95zM283 628q-13 -3 -25 -3
q-21 0 -50.5 18.5t-43.5 18.5q-22 0 -61 -42h-28q52 81 113 81q17 0 48 -18.5t46 -18.5q24 0 54 41h29q-34 -57 -82 -77z" />
    <glyph glyph-name="odieresis" unicode="&#xf6;" 
d="M221 -14q-111 0 -149 104q-23 62 -23 199q0 277 175 277q172 0 172 -288q0 -126 -28 -193q-41 -99 -147 -99zM220 37q76 0 103 89q15 50 15 151t-16 151q-27 87 -105 87q-110 0 -110 -227q0 -110 12 -156q24 -95 101 -95zM112 617v102h64v-102h-64zM270 617v102h64v-102
h-64z" />
    <glyph glyph-name="divide" unicode="&#xf7;" 
d="M21 271h403v-51h-403v51zM191 389v102h64v-102h-64zM191 0v102h64v-102h-64z" />
    <glyph glyph-name="oslash" unicode="&#xf8;" 
d="M328 405l-200 -301q27 -67 92 -67q76 0 103 89q15 50 15 151q0 84 -10 128zM310 457q-29 58 -93 58q-110 0 -110 -227q0 -88 7 -129zM92 50l-61 -92l-34 24l74 112q-22 61 -22 195q0 277 175 277q77 0 121 -57l45 69l39 -21l-61 -91q28 -66 28 -188q0 -126 -28 -193
q-41 -99 -147 -99q-89 0 -129 64z" />
    <glyph glyph-name="ugrave" unicode="&#xf9;" 
d="M321 132v420h58v-552h-56v51q-51 -65 -141 -65q-122 0 -122 158v408h58v-418q0 -103 97 -97q34 2 65 33q27 26 41 62zM228 590h-25l-132 119h76z" />
    <glyph glyph-name="uacute" unicode="&#xfa;" 
d="M321 132v420h58v-552h-56v51q-51 -65 -141 -65q-122 0 -122 158v408h58v-418q0 -103 97 -97q34 2 65 33q27 26 41 62zM231 590h-25l81 119h76z" />
    <glyph glyph-name="ucircumflex" unicode="&#xfb;" 
d="M321 132v420h58v-552h-56v51q-51 -65 -141 -65q-122 0 -122 158v408h58v-418q0 -103 97 -97q33 2 62.5 30t43.5 65zM223 698l-83 -102h-64l113 139h67l114 -139h-65z" />
    <glyph glyph-name="udieresis" unicode="&#xfc;" 
d="M321 132v420h58v-552h-56v51q-51 -65 -141 -65q-122 0 -122 158v408h58v-418q0 -103 97 -97q33 2 62.5 30t43.5 65zM112 617v102h64v-102h-64zM270 617v102h64v-102h-64z" />
    <glyph glyph-name="yacute" unicode="&#xfd;" horiz-adv-x="389" 
d="M28 -188v51q42 -2 57 1q31 6 43 33q17 37 32 101l-143 554h61l114 -447h2l120 447h59l-150 -545q-24 -89 -29 -101q-37 -98 -115 -98q-9 0 -26 2t-25 2zM208 590h-25l81 119h76z" />
    <glyph glyph-name="thorn" unicode="&#xfe;" 
d="M116 279q0 -108 12 -152q23 -90 100 -90q71 0 95 90q13 48 13 144q0 99 -13 150q-24 94 -93 94q-79 0 -102 -86q-12 -43 -12 -150zM118 45v-235h-60v940h58v-248q45 64 112 64q101 0 140 -94q26 -63 26 -182q0 -136 -20 -197q-35 -107 -141 -107q-73 0 -115 59z" />
    <glyph glyph-name="ydieresis" unicode="&#xff;" horiz-adv-x="389" 
d="M28 -188v51q40 -2 57 1q31 7 43 33q17 37 32 101l-143 554h61l114 -447h2l120 447h59l-150 -545q-24 -88 -29 -101q-23 -62 -58 -83q-24 -15 -57 -15q-10 0 -27.5 2t-23.5 2zM84 617v102h64v-102h-64zM242 617v102h64v-102h-64z" />
    <glyph glyph-name="glyph271" unicode="&#x102;" horiz-adv-x="500" 
d="M150 289h200l-99 379h-2zM213 750h75l201 -750h-66l-59 231h-228l-61 -231h-63zM129 899h34q11 -69 89 -69q77 0 90 69h31q-4 -52 -38 -79.5t-87 -27.5q-51 0 -83 28.5t-36 78.5z" />
    <glyph glyph-name="glyph272" unicode="&#x103;" horiz-adv-x="389" 
d="M271 201v97q-9 -6 -115 -51q-43 -19 -57.5 -42t-14.5 -72q0 -96 77 -96q110 0 110 164zM97 413h-56q-2 73 36 113t111 40q77 0 109 -36.5t32 -113.5v-339q0 -25 7.5 -31.5t32.5 -5.5v-42q-15 -6 -35 -6q-13 0 -29 3q-17 7 -23 19q-2 4 -8 31h-1q-43 -59 -122 -59
q-125 0 -125 156q0 104 76 142q75 29 151 62q12 5 15 22q8 46 -2 92q-12 55 -79 55q-54 0 -72 -33q-8 -12 -18 -69zM80 700h33q9 -65 84 -65q72 0 86 65h29q-4 -49 -36.5 -75t-82.5 -26q-48 0 -78.5 27t-34.5 74z" />
    <glyph glyph-name="Cacute" unicode="&#x106;" horiz-adv-x="711" 
d="M427 254h65q3 -107 -49 -184q-58 -88 -163 -88q-142 0 -190 147q-27 84 -27 267q0 158 35 244q52 128 184 128q97 0 152 -69q51 -64 52 -165h-65q-12 176 -141 176q-102 0 -135 -127q-17 -64 -17 -202q0 -148 18 -214q34 -127 141 -127q133 0 140 214zM332 861h-51
l111 139h78z" />
    <glyph glyph-name="cacute" unicode="&#x107;" horiz-adv-x="441" 
d="M300 183h58q1 -86 -33 -137q-39 -60 -120 -60q-107 0 -145 100q-23 62 -23 193q0 123 26 188q39 99 140 99q71 0 113 -54q38 -50 37 -123h-57q-2 54 -27 90.5t-70 35.5q-71 -2 -93 -92q-11 -45 -11 -154q0 -98 13 -145q25 -87 98 -87q53 0 75 49q12 28 19 97zM133 606
h-51l111 139h78z" />
    <glyph glyph-name="Ccaron" unicode="&#x10c;" horiz-adv-x="711" 
d="M427 254h65q3 -107 -49 -184q-58 -88 -163 -88q-142 0 -190 147q-27 84 -27 267q0 158 35 244q52 128 184 128q97 0 152 -69q51 -64 52 -165h-65q-12 176 -141 176q-102 0 -135 -127q-17 -64 -17 -202q0 -148 18 -214q34 -127 141 -127q133 0 140 214zM344 899l82 101h65
l-114 -139h-67l-113 139h64z" />
    <glyph glyph-name="ccaron" unicode="&#x10d;" horiz-adv-x="441" 
d="M300 183h58q1 -86 -33 -137q-39 -60 -120 -60q-107 0 -145 100q-23 62 -23 193q0 123 26 188q39 99 140 99q71 0 113 -54q38 -50 37 -123h-57q-2 54 -27 90.5t-70 35.5q-71 -2 -93 -92q-11 -45 -11 -154q0 -98 13 -145q25 -87 98 -87q53 0 75 49q12 28 19 97zM145 644
l82 101h65l-114 -139h-67l-113 139h64z" />
    <glyph glyph-name="Dslash" unicode="&#x110;" horiz-adv-x="556" 
d="M72 413v337h134q80 0 121 -10q118 -29 156 -178q17 -67 17 -130q0 -199 -29 -279q-33 -90 -96 -124q-53 -29 -156 -29h-147v359h-94v54h94zM137 692v-279h127v-54h-127v-301h78q81 0 115 16q105 49 105 302q0 112 -11 165q-21 98 -86 134q-25 13 -70 16q-18 1 -75 1h-56z
" />
    <glyph glyph-name="dcroat" unicode="&#x111;" 
d="M213 515q-111 0 -111 -248q0 -230 114 -230q76 0 98 103q10 46 10 160q0 215 -111 215zM324 618h-121v42h121v90h58v-90h31v-42h-31v-618h-58v52h-2q-34 -66 -119 -66q-98 0 -135 104q-24 67 -24 188q0 288 161 288q71 0 117 -59h2v111z" />
    <glyph glyph-name="Gbreve" unicode="&#x11e;" horiz-adv-x="767" 
d="M418 314h-161v58h226v-372h-52l-7 77q-56 -95 -164 -95q-138 0 -186 147q-28 85 -28 261q0 167 32 249q51 129 191 129q91 0 147 -64.5t56 -158.5h-62q-22 165 -139 165q-107 0 -142 -129q-18 -65 -18 -206q0 -133 20 -206q35 -129 134 -129q93 0 128 97q20 56 25 177z
M219 993h40q14 -81 105 -81q90 0 106 81h37q-6 -61 -46 -93.5t-102 -32.5q-59 0 -96.5 33.5t-43.5 92.5z" />
    <glyph glyph-name="gbreve" unicode="&#x11f;" horiz-adv-x="492" 
d="M209 515q-105 0 -105 -245q0 -96 15 -146q26 -87 98 -87q69 0 93 85q14 48 14 140q0 119 -10 160q-23 93 -105 93zM324 502v50h58v-540q0 -201 -171 -201q-64 0 -105 30q-45 33 -48 95h59q2 -35 31 -56q26 -18 64 -18q78 -1 100 59q8 23 12 118h-4q-41 -53 -116 -53
q-99 0 -135 99q-23 62 -23 185t21 187q35 109 133 109q78 0 122 -64h2zM19 738h40q14 -81 105 -81q90 0 106 81h37q-6 -61 -46 -93.5t-102 -32.5q-59 0 -96.5 33.5t-43.5 92.5z" />
    <glyph glyph-name="glyph273" unicode="&#x128;" horiz-adv-x="222" 
d="M144 0h-65v750h65v-750zM179 817q-13 -3 -25 -3q-22 0 -54 19q-25 19 -46 19q-6 0 -12 -1q-18 -6 -52 -42h-30q57 85 119 85q18 0 43 -15q40 -24 55 -24q26 0 58 43h31q-37 -60 -87 -81z" />
    <glyph glyph-name="glyph274" unicode="&#x129;" horiz-adv-x="222" 
d="M140 0h-58v552h58v-552zM175 615q-13 -3 -25 -3q-21 0 -50.5 18.5t-43.5 18.5q-22 0 -61 -42h-28q52 81 113 81q17 0 48 -18.5t46 -18.5q24 0 54 41h29q-34 -57 -82 -77z" />
    <glyph glyph-name="Idotaccent" unicode="&#x130;" horiz-adv-x="429" 
d="M144 0h-65v750h65v-750zM162 872v102h64v-102h-64z" />
    <glyph glyph-name="dotlessi" unicode="&#x131;" horiz-adv-x="200" 
d="M129 0h-58v552h58v-552z" />
    <glyph glyph-name="Lslash" unicode="&#x141;" 
d="M417 0h-343v337l-87 -44v62l87 44v351h65v-318l79 40v-62l-79 -40v-312h278v-58z" />
    <glyph glyph-name="lslash" unicode="&#x142;" horiz-adv-x="222" 
d="M140 750v-274l73 46v-60l-73 -46v-416h-58v380l-76 -48v60l76 48v310h58z" />
    <glyph glyph-name="OE" unicode="&#x152;" horiz-adv-x="778" 
d="M267 40q90 0 119 133q13 61 13 198q0 143 -15 206q-31 133 -129 133q-87 0 -118 -121q-16 -65 -16 -189q0 -161 13 -220q30 -140 133 -140zM399 0v81h-2q-26 -57 -58 -78t-95 -21q-188 0 -188 396q0 169 26 250q45 140 175 140q99 0 140 -103h2v85h335v-58h-270v-276h247
v-58h-247v-300h274v-58h-339z" />
    <glyph glyph-name="oe" unicode="&#x153;" horiz-adv-x="667" 
d="M625 335v-55h-257q0 -110 10 -151q21 -92 94 -92q89 0 96 141h56q-4 -192 -153 -192q-94 0 -133 87q-40 -87 -139 -87q-105 0 -141 102q-21 60 -21 193q0 122 27 188q41 97 144 97q94 0 131 -87q21 48 51.5 67.5t82.5 19.5q152 0 152 -231zM200 37q75 0 98 91
q12 46 12 154q0 100 -12 145q-22 88 -93 88q-77 0 -100 -101q-10 -45 -10 -160q0 -217 105 -217zM370 331h197q0 84 -14 122q-22 61 -85 62q-59 1 -82 -66q-12 -38 -16 -118z" />
    <glyph glyph-name="Scedilla" unicode="&#x15e;" horiz-adv-x="656" 
d="M211 433l58 -24q103 -43 137 -74q55 -50 55 -142q0 -97 -58.5 -154t-156.5 -57q-100 0 -155 65q-53 62 -51 165h64q-1 -76 32 -121q36 -51 109 -51q69 0 110 41t41 110q0 74 -52 112q-20 15 -116 53q-87 34 -124 72q-49 50 -49 133q0 93 52.5 150t142.5 57
q88 0 140.5 -55t50.5 -144h-63q3 63 -32 102t-97 39t-95.5 -40.5t-33.5 -104.5q0 -55 20 -83t71 -49zM96 -188l15 30q43 -15 63 -15q67 0 67 47q0 38 -53 38q-20 0 -41 -7l-15 13l60 82h38l-46 -59q21 6 32 6q37 0 59.5 -19.5t22.5 -52.5q0 -42 -37 -64q-30 -18 -75 -18
q-44 0 -90 19z" />
    <glyph glyph-name="scedilla" unicode="&#x15f;" horiz-adv-x="383" 
d="M44 407q-11 159 142 159q71 0 110.5 -41.5t39.5 -113.5h-57q-2 46 -25 74q-26 30 -70 30q-82 0 -82 -88q0 -54 67 -84q91 -40 127 -75q54 -50 54 -130q0 -73 -42 -112.5t-115 -39.5q-161 0 -161 164h59q8 -113 106 -113q44 0 69.5 29.5t25.5 74.5q0 61 -62 101
q-59 31 -117 62q-65 41 -69 103zM-1 -188l15 30q43 -15 63 -15q67 0 67 47q0 38 -53 38q-20 0 -41 -7l-15 13l60 82h38l-46 -59q21 6 32 6q37 0 59.5 -19.5t22.5 -52.5q0 -42 -37 -64q-30 -18 -75 -18q-44 0 -90 19z" />
    <glyph glyph-name="Scaron" unicode="&#x160;" horiz-adv-x="500" 
d="M211 433l58 -24q103 -43 137 -74q55 -50 55 -142q0 -97 -58.5 -154t-156.5 -57q-100 0 -155 65q-53 62 -51 165h64q-1 -76 32 -121q36 -51 109 -51q69 0 110 41t41 110q0 74 -52 112q-20 15 -116 53q-87 34 -124 72q-49 50 -49 133q0 93 52.5 150t142.5 57
q88 0 140.5 -55t50.5 -144h-63q3 63 -32 102t-97 39t-95.5 -40.5t-33.5 -104.5q0 -55 20 -83t71 -49zM251 822l82 101h65l-114 -139h-67l-113 139h64z" />
    <glyph glyph-name="scaron" unicode="&#x161;" horiz-adv-x="389" 
d="M44 407q-11 159 142 159q71 0 110.5 -41.5t39.5 -113.5h-57q-2 46 -25 74q-26 30 -70 30q-82 0 -82 -88q0 -54 67 -84q91 -40 127 -75q54 -50 54 -130q0 -73 -42 -112.5t-115 -39.5q-161 0 -161 164h59q8 -113 106 -113q44 0 69.5 29.5t25.5 74.5q0 61 -62 101
q-59 31 -117 62q-65 41 -69 103zM185 624l82 101h65l-114 -139h-67l-113 139h64z" />
    <glyph glyph-name="ch903" unicode="&#x168;" horiz-adv-x="556" 
d="M73 198v552h65v-544q0 -85 25 -121q31 -45 112 -45t115 48q28 40 28 124v538h65v-522q0 -119 -42 -178q-49 -68 -164 -68q-204 0 -204 216zM344 800q-13 -3 -25 -3q-22 0 -54 19q-25 19 -46 19q-6 0 -12 -1q-18 -6 -52 -42h-30q57 85 119 85q18 0 43 -15q40 -24 55 -24
q26 0 58 43h31q-37 -60 -87 -81z" />
    <glyph glyph-name="ch904" unicode="&#x169;" 
d="M321 132v420h58v-552h-56v51q-51 -65 -141 -65q-122 0 -122 158v408h58v-418q0 -103 97 -97q34 2 65 33q27 26 41 62zM283 608q-13 -3 -25 -3q-21 0 -50.5 18.5t-43.5 18.5q-22 0 -61 -42h-28q52 81 113 81q17 0 48 -18.5t46 -18.5q24 0 54 41h29q-34 -57 -82 -77z" />
    <glyph glyph-name="Ydieresis" unicode="&#x178;" horiz-adv-x="500" 
d="M249 393l165 357h68l-200 -431v-319h-65v319l-198 431h72zM140 815v102h64v-102h-64zM298 815v102h64v-102h-64z" />
    <glyph glyph-name="Zcaron" unicode="&#x17d;" 
d="M411 0h-377v60l307 632h-293v58h363v-56l-309 -636h309v-58zM223 822l82 101h65l-114 -139h-67l-113 139h64z" />
    <glyph glyph-name="zcaron" unicode="&#x17e;" horiz-adv-x="333" 
d="M315 0h-297v55l231 446h-219v51h280v-54l-229 -447h234v-51zM167 624l82 101h65l-114 -139h-67l-113 139h64z" />
    <glyph glyph-name="florin" unicode="&#x192;" 
d="M12 -180l11 56q23 -7 38 -7q35 0 53 40q16 36 32 132l61 376h-110v46h119l12 64q17 93 40 139q39 78 106 78q33 0 61 -13l-13 -55q-9 3 -28 10q-10 3 -18 3q-38 0 -61 -57q-10 -26 -22 -91l-15 -78h116v-46h-124l-62 -381q-16 -98 -33 -138q-33 -79 -99 -86q-34 -4 -64 8
z" />
    <glyph glyph-name="glyph277" unicode="&#x1a0;" horiz-adv-x="556" 
d="M282 40q102 0 135 127q17 65 17 207q0 141 -19 209q-36 127 -140 127q-98 0 -133 -124q-19 -68 -19 -205q0 -147 18 -214q34 -127 141 -127zM371 749l50 -4v-1q40 0 40 27q0 33 -47 33q0 3 -2 9t-2 8q0 6 12 6q78 0 78 -57q0 -25 -16 -42.5t-41 -17.5h-20q49 -54 66 -163
q10 -64 10 -188q0 -169 -32 -250q-50 -127 -191 -127q-142 0 -190 147q-28 85 -28 267q0 372 220 372q53 0 93 -19z" />
    <glyph glyph-name="glyph278" unicode="&#x1a1;" 
d="M220 37q76 0 103 89q15 50 15 151q0 100 -16 151q-27 87 -105 87q-110 0 -110 -227q0 -109 12 -156q24 -95 101 -95zM302 547l38 -3q36 -3 36 24q0 29 -43 29q0 3 -1.5 8t-1.5 7q0 6 11 6q70 0 70 -51q0 -23 -14.5 -38.5t-37.5 -15.5h-18q55 -68 55 -235q0 -125 -27 -191
q-42 -101 -148 -101q-111 0 -149 104q-23 63 -23 199q0 277 175 277q45 0 78 -19z" />
    <glyph glyph-name="glyph279" unicode="&#x1af;" horiz-adv-x="556" 
d="M484 827q78 0 78 -57q0 -25 -16 -42.5t-41 -17.5q-19 0 -22 1v-483q0 -119 -42 -178q-49 -68 -164 -68q-204 0 -204 216v552h65v-544q0 -85 25 -121q31 -45 112 -45t115 48q28 40 28 124v538l65 -6q40 0 40 27q0 33 -47 33q0 3 -2 9t-2 8q0 6 12 6z" />
    <glyph glyph-name="glyph280" unicode="&#x1b0;" 
d="M379 515v-515h-56v51q-51 -65 -141 -65q-122 0 -122 158v408h58v-418q0 -103 97 -97q34 2 65 33q27 26 41 62v420l60 -8q36 0 36 24q0 29 -43 29q0 3 -1.5 8t-1.5 7q0 6 11 6q70 0 70 -51q0 -23 -14.5 -38.5t-37.5 -15.5q-17 0 -19 1z" />
    <glyph glyph-name="circumflex" unicode="&#x2c6;" horiz-adv-x="333" 
d="M167 708l-83 -102h-64l113 139h67l114 -139h-65z" />
    <glyph glyph-name="caron" unicode="&#x2c7;" horiz-adv-x="333" 
d="M167 644l82 101h65l-114 -139h-67l-113 139h64z" />
    <glyph glyph-name="breve" unicode="&#x2d8;" horiz-adv-x="333" 
d="M23 738h40q14 -81 105 -81q90 0 106 81h37q-6 -61 -46 -93.5t-102 -32.5q-59 0 -96.5 33.5t-43.5 92.5z" />
    <glyph glyph-name="dotaccent" unicode="&#x2d9;" horiz-adv-x="333" 
d="M135 617v102h64v-102h-64z" />
    <glyph glyph-name="ring" unicode="&#x2da;" horiz-adv-x="333" 
d="M166 596q-40 0 -69.5 30t-29.5 70t29.5 70t69.5 30t70 -30t30 -70t-29.5 -70t-70.5 -30zM166 762q-27 0 -46.5 -19.5t-19.5 -46.5t20 -46.5t46 -19.5t46 20t20 46t-19.5 46t-46.5 20z" />
    <glyph glyph-name="ogonek" unicode="&#x2db;" horiz-adv-x="333" 
d="M29 13h47q-13 -33 -27 -87q0 -33 29 -52q25 -17 58 -16q43 1 72 30v-59q-43 -20 -84 -20q-47 0 -83 22q-41 27 -41 71q0 47 29 111z" />
    <glyph glyph-name="tilde" unicode="&#x2dc;" horiz-adv-x="333" 
d="M269 627q-14 -4 -28 -4q-27 0 -75 22.5t-70 22.5q-8 0 -14 -2q-20 -9 -35 -48h-37q6 41 30 69t60 28q23 0 61 -17q49 -21 61 -24t21 -3q32 0 43 49h38q-8 -70 -55 -93z" />
    <glyph glyph-name="hungarumlaut" unicode="&#x2dd;" horiz-adv-x="333" 
d="M115 606h-51l111 139h78zM244 606h-51l111 139h78z" />
    <glyph glyph-name="glyph281" unicode="&#x1ea0;" horiz-adv-x="500" 
d="M150 289h200l-99 379h-2zM213 750h75l201 -750h-66l-59 231h-228l-61 -231h-63zM282 -110h-62v80h62v-80z" />
    <glyph glyph-name="glyph282" unicode="&#x1ea1;" horiz-adv-x="389" 
d="M271 201v97q-9 -6 -115 -51q-43 -19 -57.5 -42t-14.5 -72q0 -96 77 -96q110 0 110 164zM97 413h-56q-2 73 36 113t111 40q77 0 109 -36.5t32 -113.5v-339q0 -25 7.5 -31.5t32.5 -5.5v-42q-15 -6 -35 -6q-13 0 -29 3q-17 7 -23 19q-2 4 -8 31h-1q-43 -59 -122 -59
q-125 0 -125 156q0 104 76 142q75 29 151 62q12 5 15 22q8 46 -2 92q-12 55 -79 55q-54 0 -72 -33q-8 -12 -18 -69zM225 -121h-58v76h58v-76z" />
    <glyph glyph-name="glyph283" unicode="&#x1ea2;" horiz-adv-x="500" 
d="M150 289h200l-99 379h-2zM213 750h75l201 -750h-66l-59 231h-228l-61 -231h-63zM269 800l-38 -1q-1 28 6 44q4 9 25 37q31 41 31 71q0 50 -41 50q-26 0 -35 -20q-6 -14 -6 -45l-15 10q-2 37 15.5 61.5t53.5 24.5q69 0 69 -72q0 -35 -37 -82q-29 -37 -28 -78z" />
    <glyph glyph-name="glyph284" unicode="&#x1ea3;" horiz-adv-x="389" 
d="M271 201v97q-9 -6 -115 -51q-43 -19 -57.5 -42t-14.5 -72q0 -96 77 -96q110 0 110 164zM97 413h-56q-2 73 36 113t111 40q77 0 109 -36.5t32 -113.5v-339q0 -25 7.5 -31.5t32.5 -5.5v-42q-15 -6 -35 -6q-13 0 -29 3q-17 7 -23 19q-2 4 -8 31h-1q-43 -59 -122 -59
q-125 0 -125 156q0 104 76 142q75 29 151 62q12 5 15 22q8 46 -2 92q-12 55 -79 55q-54 0 -72 -33q-8 -12 -18 -69zM214 611l-36 -1q-1 25 6 42q4 10 23 35q30 40 30 67q0 48 -39 48q-25 0 -34 -19q-5 -11 -5 -43l-15 10q-2 81 66 81q30 0 48 -19t18 -49q0 -32 -36 -78
q-27 -34 -26 -74z" />
    <glyph glyph-name="glyph285" unicode="&#x1ea4;" horiz-adv-x="500" 
d="M150 289h200l-99 379h-2zM213 750h75l201 -750h-66l-59 231h-228l-61 -231h-63zM250 867l-71 -87h-54l96 118h57l97 -118h-55zM375 867h-26l85 125h80z" />
    <glyph glyph-name="glyph286" unicode="&#x1ea5;" horiz-adv-x="389" 
d="M271 201v97q-9 -6 -115 -51q-43 -19 -57.5 -42t-14.5 -72q0 -96 77 -96q110 0 110 164zM97 413h-56q-2 73 36 113t111 40q77 0 109 -36.5t32 -113.5v-339q0 -25 7.5 -31.5t32.5 -5.5v-42q-15 -6 -35 -6q-13 0 -29 3q-17 7 -23 19q-2 4 -8 31h-1q-43 -59 -122 -59
q-125 0 -125 156q0 104 76 142q75 29 151 62q12 5 15 22q8 46 -2 92q-12 55 -79 55q-54 0 -72 -33q-8 -12 -18 -69zM196 673l-67 -83h-52l91 112h55l92 -112h-53zM315 673h-25l81 119h76z" />
    <glyph glyph-name="glyph287" unicode="&#x1ea6;" horiz-adv-x="500" 
d="M150 289h200l-99 379h-2zM213 750h75l201 -750h-66l-59 231h-228l-61 -231h-63zM250 867l-71 -87h-54l96 118h57l97 -118h-55zM151 867h-26l-139 125h80z" />
    <glyph glyph-name="glyph288" unicode="&#x1ea7;" horiz-adv-x="389" 
d="M271 201v97q-9 -6 -115 -51q-43 -19 -57.5 -42t-14.5 -72q0 -96 77 -96q110 0 110 164zM97 413h-56q-2 73 36 113t111 40q77 0 109 -36.5t32 -113.5v-339q0 -25 7.5 -31.5t32.5 -5.5v-42q-15 -6 -35 -6q-13 0 -29 3q-17 7 -23 19q-2 4 -8 31h-1q-43 -59 -122 -59
q-125 0 -125 156q0 104 76 142q75 29 151 62q12 5 15 22q8 46 -2 92q-12 55 -79 55q-54 0 -72 -33q-8 -12 -18 -69zM196 673l-68 -83h-51l91 112h54l93 -112h-53zM102 673h-25l-132 119h76z" />
    <glyph glyph-name="glyph289" unicode="&#x1ea8;" horiz-adv-x="500" 
d="M150 289h200l-99 379h-2zM213 750h75l201 -750h-66l-59 231h-228l-61 -231h-63zM250 867l-71 -87h-54l96 118h57l97 -118h-55zM393 849l-38 -1q-1 28 6 44q4 9 25 37q31 41 31 71q0 50 -41 50q-26 0 -35 -20q-6 -14 -6 -45l-15 10q-2 37 15.5 61.5t53.5 24.5q69 0 69 -72
q0 -35 -37 -82q-29 -37 -28 -78z" />
    <glyph glyph-name="glyph290" unicode="&#x1ea9;" horiz-adv-x="389" 
d="M271 201v97q-9 -6 -115 -51q-43 -19 -57.5 -42t-14.5 -72q0 -96 77 -96q110 0 110 164zM97 413h-56q-2 73 36 113t111 40q77 0 109 -36.5t32 -113.5v-339q0 -25 7.5 -31.5t32.5 -5.5v-42q-15 -6 -35 -6q-13 0 -29 3q-17 7 -23 19q-2 4 -8 31h-1q-43 -59 -122 -59
q-125 0 -125 156q0 104 76 142q75 29 151 62q12 5 15 22q8 46 -2 92q-12 55 -79 55q-54 0 -72 -33q-8 -12 -18 -69zM196 673l-67 -83h-52l91 113h55l92 -113h-53zM332 656l-36 -1q-1 25 6 42q4 10 23 35q30 40 30 67q0 48 -39 48q-25 0 -34 -19q-5 -11 -5 -43l-15 10
q-2 81 66 81q30 0 48 -19t18 -49q0 -32 -36 -78q-27 -34 -26 -74z" />
    <glyph glyph-name="glyph291" unicode="&#x1eaa;" horiz-adv-x="500" 
d="M150 289h200l-99 379h-2zM213 750h75l201 -750h-66l-59 231h-228l-61 -231h-63zM250 867l-71 -87h-54l96 118h57l97 -118h-55zM317 932q-13 -3 -25 -3q-22 0 -54 19q-25 19 -46 19q-6 0 -12 -1q-18 -6 -52 -42h-30q57 85 119 85q18 0 43 -15q40 -24 55 -24q26 0 58 43h31
q-37 -60 -87 -81z" />
    <glyph glyph-name="glyph292" unicode="&#x1eab;" horiz-adv-x="389" 
d="M271 201v97q-9 -6 -115 -51q-43 -19 -57.5 -42t-14.5 -72q0 -96 77 -96q110 0 110 164zM97 413h-56q-2 73 36 113t111 40q77 0 109 -36.5t32 -113.5v-339q0 -25 7.5 -31.5t32.5 -5.5v-42q-15 -6 -35 -6q-13 0 -29 3q-17 7 -23 19q-2 4 -8 31h-1q-43 -59 -122 -59
q-125 0 -125 156q0 104 76 142q75 29 151 62q12 5 15 22q8 46 -2 92q-12 55 -79 55q-54 0 -72 -33q-8 -12 -18 -69zM196 673l-67 -83h-52l91 112h55l92 -112h-53zM260 735q-13 -3 -25 -3q-21 0 -50.5 18.5t-43.5 18.5q-22 0 -61 -42h-28q52 81 113 81q17 0 48 -18.5
t46 -18.5q24 0 54 41h29q-34 -57 -82 -77z" />
    <glyph glyph-name="glyph293" unicode="&#x1eac;" horiz-adv-x="500" 
d="M150 289h200l-99 379h-2zM213 750h75l201 -750h-66l-59 231h-228l-61 -231h-63zM250 867l-71 -87h-54l96 118h57l97 -118h-55zM282 -110h-62v80h62v-80z" />
    <glyph glyph-name="glyph294" unicode="&#x1ead;" horiz-adv-x="389" 
d="M271 201v97q-9 -6 -115 -51q-43 -19 -57.5 -42t-14.5 -72q0 -96 77 -96q110 0 110 164zM97 413h-56q-2 73 36 113t111 40q77 0 109 -36.5t32 -113.5v-339q0 -25 7.5 -31.5t32.5 -5.5v-42q-15 -6 -35 -6q-13 0 -29 3q-17 7 -23 19q-2 4 -8 31h-1q-43 -59 -122 -59
q-125 0 -125 156q0 104 76 142q75 29 151 62q12 5 15 22q8 46 -2 92q-12 55 -79 55q-54 0 -72 -33q-8 -12 -18 -69zM196 673l-67 -83h-52l91 112h55l92 -112h-53zM225 -121h-58v76h58v-76z" />
    <glyph glyph-name="glyph295" unicode="&#x1eae;" horiz-adv-x="500" 
d="M150 289h200l-99 379h-2zM213 750h75l201 -750h-66l-59 231h-228l-61 -231h-63zM129 899h34q11 -69 89 -69q77 0 90 69h31q-4 -52 -38 -79.5t-87 -27.5q-51 0 -83 28.5t-36 78.5zM263 899h-26l85 125h80z" />
    <glyph glyph-name="glyph296" unicode="&#x1eaf;" horiz-adv-x="389" 
d="M271 201v97q-9 -6 -115 -51q-43 -19 -57.5 -42t-14.5 -72q0 -96 77 -96q110 0 110 164zM97 413h-56q-2 73 36 113t111 40q77 0 109 -36.5t32 -113.5v-339q0 -25 7.5 -31.5t32.5 -5.5v-42q-15 -6 -35 -6q-13 0 -29 3q-17 7 -23 19q-2 4 -8 31h-1q-43 -59 -122 -59
q-125 0 -125 156q0 104 76 142q75 29 151 62q12 5 15 22q8 46 -2 92q-12 55 -79 55q-54 0 -72 -33q-8 -12 -18 -69zM79 700h33q9 -65 84 -65q72 0 86 65h29q-4 -49 -36.5 -75t-82.5 -26q-48 0 -78.5 27t-34.5 74zM207 700h-25l81 119h76z" />
    <glyph glyph-name="glyph297" unicode="&#x1eb0;" horiz-adv-x="500" 
d="M150 289h200l-99 379h-2zM213 750h75l201 -750h-66l-59 231h-228l-61 -231h-63zM129 899h34q11 -69 89 -69q77 0 90 69h31q-4 -52 -38 -79.5t-87 -27.5q-51 0 -83 28.5t-36 78.5zM263 899h-26l-139 125h80z" />
    <glyph glyph-name="glyph298" unicode="&#x1eb1;" horiz-adv-x="389" 
d="M271 201v97q-9 -6 -115 -51q-43 -19 -57.5 -42t-14.5 -72q0 -96 77 -96q110 0 110 164zM97 413h-56q-2 73 36 113t111 40q77 0 109 -36.5t32 -113.5v-339q0 -25 7.5 -31.5t32.5 -5.5v-42q-15 -6 -35 -6q-13 0 -29 3q-17 7 -23 19q-2 4 -8 31h-1q-43 -59 -122 -59
q-125 0 -125 156q0 104 76 142q75 29 151 62q12 5 15 22q8 46 -2 92q-12 55 -79 55q-54 0 -72 -33q-8 -12 -18 -69zM79 701h32q11 -65 85 -65q73 0 85 65h30q-4 -49 -36.5 -75t-82.5 -26q-102 0 -113 101zM206 701h-24l-132 119h76z" />
    <glyph glyph-name="glyph299" unicode="&#x1eb2;" horiz-adv-x="500" 
d="M150 289h200l-99 379h-2zM213 750h75l201 -750h-66l-59 231h-228l-61 -231h-63zM129 899h34q11 -69 89 -69q77 0 90 69h31q-4 -52 -38 -79.5t-87 -27.5q-51 0 -83 28.5t-36 78.5zM269 885l-36 -1q-1 26 6 42q4 10 23 35q29 39 29 67q0 48 -39 48q-25 0 -33 -19
q-5 -12 -5 -43l-15 10q-2 35 14.5 58t51.5 23q65 0 65 -68q0 -23 -14 -47q-9 -15 -28.5 -41.5t-18.5 -63.5z" />
    <glyph glyph-name="glyph300" unicode="&#x1eb3;" horiz-adv-x="389" 
d="M271 201v97q-9 -6 -115 -51q-43 -19 -57.5 -42t-14.5 -72q0 -96 77 -96q110 0 110 164zM97 413h-56q-2 73 36 113t111 40q77 0 109 -36.5t32 -113.5v-339q0 -25 7.5 -31.5t32.5 -5.5v-42q-15 -6 -35 -6q-13 0 -29 3q-17 7 -23 19q-2 4 -8 31h-1q-43 -59 -122 -59
q-125 0 -125 156q0 104 76 142q75 29 151 62q12 5 15 22q8 46 -2 92q-12 55 -79 55q-54 0 -72 -33q-8 -12 -18 -69zM79 702h33q9 -66 84 -66q73 0 86 66h29q-4 -50 -36 -76t-83 -26q-48 0 -78.5 27t-34.5 75zM212 688l-34 -1q-1 23 6 40q4 9 22 33q27 36 27 64q0 46 -37 46
q-24 0 -31 -18q-5 -12 -5 -41l-14 9q-5 77 63 77q61 0 61 -64q0 -34 -33 -75q-26 -33 -25 -70z" />
    <glyph glyph-name="glyph301" unicode="&#x1eb4;" horiz-adv-x="500" 
d="M150 289h200l-99 379h-2zM213 750h75l201 -750h-66l-59 231h-228l-61 -231h-63zM129 899h34q11 -69 89 -69q77 0 90 69h31q-4 -52 -38 -79.5t-87 -27.5q-51 0 -83 28.5t-36 78.5zM454 932q-13 -3 -25 -3q-22 0 -54 19q-25 19 -46 19q-6 0 -12 -1q-18 -6 -52 -42h-30
q57 85 119 85q18 0 43 -15q40 -24 55 -24q26 0 58 43h31q-37 -60 -87 -81z" />
    <glyph glyph-name="glyph302" unicode="&#x1eb5;" horiz-adv-x="389" 
d="M271 201v97q-9 -6 -115 -51q-43 -19 -57.5 -42t-14.5 -72q0 -96 77 -96q110 0 110 164zM97 413h-56q-2 73 36 113t111 40q77 0 109 -36.5t32 -113.5v-339q0 -25 7.5 -31.5t32.5 -5.5v-42q-15 -6 -35 -6q-13 0 -29 3q-17 7 -23 19q-2 4 -8 31h-1q-43 -59 -122 -59
q-125 0 -125 156q0 104 76 142q75 29 151 62q12 5 15 22q8 46 -2 92q-12 55 -79 55q-54 0 -72 -33q-8 -12 -18 -69zM79 701h32q11 -65 85 -65q73 0 85 65h30q-4 -49 -36.5 -75t-82.5 -26q-48 0 -78.5 27t-34.5 74zM388 733q-13 -3 -24 -3q-19 0 -51 18t-44 18q-6 0 -11 -1
q-16 -6 -50 -40h-28q52 81 113 81q17 0 48 -18.5t46 -18.5q24 0 54 41h30q-37 -58 -83 -77z" />
    <glyph glyph-name="glyph303" unicode="&#x1eb6;" horiz-adv-x="500" 
d="M150 289h200l-99 379h-2zM213 750h75l201 -750h-66l-59 231h-228l-61 -231h-63zM129 899h34q11 -69 89 -69q77 0 90 69h31q-4 -52 -38 -79.5t-87 -27.5q-51 0 -83 28.5t-36 78.5zM282 -110h-62v80h62v-80z" />
    <glyph glyph-name="glyph304" unicode="&#x1eb7;" horiz-adv-x="389" 
d="M271 201v97q-9 -6 -115 -51q-43 -19 -57.5 -42t-14.5 -72q0 -96 77 -96q110 0 110 164zM97 413h-56q-2 73 36 113t111 40q77 0 109 -36.5t32 -113.5v-339q0 -25 7.5 -31.5t32.5 -5.5v-42q-15 -6 -35 -6q-13 0 -29 3q-17 7 -23 19q-2 4 -8 31h-1q-43 -59 -122 -59
q-125 0 -125 156q0 104 76 142q75 29 151 62q12 5 15 22q8 46 -2 92q-12 55 -79 55q-54 0 -72 -33q-8 -12 -18 -69zM225 -121h-58v76h58v-76zM80 700h33q9 -65 84 -65q72 0 86 65h29q-4 -49 -36.5 -75t-82.5 -26q-48 0 -78.5 27t-34.5 74z" />
    <glyph glyph-name="glyph305" unicode="&#x1eb8;" 
d="M412 0h-345v750h340v-58h-275v-270h250v-58h-250v-306h280v-58zM269 -116h-62v80h62v-80z" />
    <glyph glyph-name="glyph306" unicode="&#x1eb9;" horiz-adv-x="389" 
d="M352 335v-56h-259q0 -109 9 -148q22 -94 95 -94q54 0 77 47q15 31 20 96h56q0 -83 -34 -134q-41 -60 -120 -60q-101 0 -138 101q-23 63 -23 187q0 123 23 188q37 104 136 104q87 0 127 -76q31 -59 31 -155zM93 330h201q0 185 -101 185q-100 0 -100 -185zM225 -121h-58v76
h58v-76z" />
    <glyph glyph-name="glyph307" unicode="&#x1eba;" 
d="M412 0h-345v750h340v-58h-275v-270h250v-58h-250v-306h280v-58zM255 800l-38 -1q-1 28 6 44q4 9 25 37q31 41 31 71q0 50 -41 50q-26 0 -35 -20q-6 -14 -6 -45l-15 10q-2 37 15.5 61.5t53.5 24.5q69 0 69 -72q0 -35 -37 -82q-29 -37 -28 -78z" />
    <glyph glyph-name="glyph308" unicode="&#x1ebb;" horiz-adv-x="389" 
d="M352 335v-56h-259q0 -109 9 -148q22 -94 95 -94q54 0 77 47q15 31 20 96h56q0 -83 -34 -134q-41 -60 -120 -60q-101 0 -138 101q-23 63 -23 187q0 123 23 188q37 104 136 104q87 0 127 -76q31 -59 31 -155zM93 330h201q0 185 -101 185q-100 0 -100 -185zM214 611l-36 -1
q-1 25 6 42q4 10 23 35q30 40 30 67q0 48 -39 48q-25 0 -34 -19q-5 -11 -5 -43l-15 10q-2 81 66 81q30 0 48 -19t18 -49q0 -32 -36 -78q-27 -34 -26 -74z" />
    <glyph glyph-name="glyph309" unicode="&#x1ebc;" 
d="M412 0h-345v750h340v-58h-275v-270h250v-58h-250v-306h280v-58zM305 817q-13 -3 -25 -3q-22 0 -54 19q-25 19 -46 19q-6 0 -12 -1q-18 -6 -52 -42h-30q57 85 119 85q18 0 43 -15q40 -24 55 -24q26 0 58 43h31q-37 -60 -87 -81z" />
    <glyph glyph-name="glyph310" unicode="&#x1ebd;" horiz-adv-x="389" 
d="M352 335v-56h-259q0 -109 9 -148q22 -94 95 -94q54 0 77 47q15 31 20 96h56q0 -83 -34 -134q-41 -60 -120 -60q-101 0 -138 101q-23 63 -23 187q0 123 23 188q37 104 136 104q87 0 127 -76q31 -59 31 -155zM93 330h201q0 185 -101 185q-100 0 -100 -185zM260 628
q-13 -3 -25 -3q-21 0 -50.5 18.5t-43.5 18.5q-22 0 -61 -42h-28q52 81 113 81q17 0 48 -18.5t46 -18.5q24 0 54 41h29q-34 -57 -82 -77z" />
    <glyph glyph-name="glyph311" unicode="&#x1ebe;" 
d="M412 0h-345v750h340v-58h-275v-270h250v-58h-250v-306h280v-58zM237 879l-71 -87h-54l96 118h57l97 -118h-55zM362 879h-26l85 125h80z" />
    <glyph glyph-name="glyph312" unicode="&#x1ebf;" horiz-adv-x="389" 
d="M352 335v-56h-259q0 -109 9 -148q22 -94 95 -94q54 0 77 47q15 31 20 96h56q0 -83 -34 -134q-41 -60 -120 -60q-101 0 -138 101q-23 63 -23 187q0 123 23 188q37 104 136 104q87 0 127 -76q31 -59 31 -155zM93 330h201q0 185 -101 185q-100 0 -100 -185zM196 673l-67 -83
h-52l91 112h55l92 -112h-53zM315 673h-25l81 119h76z" />
    <glyph glyph-name="glyph313" unicode="&#x1ec0;" 
d="M412 0h-345v750h340v-58h-275v-270h250v-58h-250v-306h280v-58zM237 879l-71 -87h-54l96 118h57l97 -118h-55zM138 879h-26l-139 125h80z" />
    <glyph glyph-name="glyph314" unicode="&#x1ec1;" horiz-adv-x="389" 
d="M352 335v-56h-259q0 -109 9 -148q22 -94 95 -94q54 0 77 47q15 31 20 96h56q0 -83 -34 -134q-41 -60 -120 -60q-101 0 -138 101q-23 63 -23 187q0 123 23 188q37 104 136 104q87 0 127 -76q31 -59 31 -155zM93 330h201q0 185 -101 185q-100 0 -100 -185zM196 673l-68 -83
h-51l91 112h54l93 -112h-53zM102 673h-25l-132 119h76z" />
    <glyph glyph-name="glyph315" unicode="&#x1ec2;" 
d="M412 0h-345v750h340v-58h-275v-270h250v-58h-250v-306h280v-58zM237 879l-71 -87h-54l96 118h57l97 -118h-55zM380 861l-38 -1q-1 28 6 44q4 9 25 37q31 41 31 71q0 50 -41 50q-26 0 -35 -20q-6 -14 -6 -45l-15 10q-2 37 15.5 61.5t53.5 24.5q69 0 69 -72q0 -35 -37 -82
q-29 -37 -28 -78z" />
    <glyph glyph-name="glyph316" unicode="&#x1ec3;" horiz-adv-x="389" 
d="M352 335v-56h-259q0 -109 9 -148q22 -94 95 -94q54 0 77 47q15 31 20 96h56q0 -83 -34 -134q-41 -60 -120 -60q-101 0 -138 101q-23 63 -23 187q0 123 23 188q37 104 136 104q87 0 127 -76q31 -59 31 -155zM93 330h201q0 185 -101 185q-100 0 -100 -185zM196 673l-67 -83
h-52l91 113h55l92 -113h-53zM332 656l-36 -1q-1 25 6 42q4 10 23 35q30 40 30 67q0 48 -39 48q-25 0 -34 -19q-5 -11 -5 -43l-15 10q-2 81 66 81q30 0 48 -19t18 -49q0 -32 -36 -78q-27 -34 -26 -74z" />
    <glyph glyph-name="glyph317" unicode="&#x1ec4;" 
d="M412 0h-345v750h340v-58h-275v-270h250v-58h-250v-306h280v-58zM238 878l-71 -87h-54l96 118h57l97 -118h-55zM305 943q-13 -3 -25 -3q-22 0 -54 19q-25 19 -46 19q-6 0 -12 -1q-18 -6 -52 -42h-30q57 85 119 85q18 0 43 -15q40 -24 55 -24q26 0 58 43h31
q-37 -60 -87 -81z" />
    <glyph glyph-name="glyph318" unicode="&#x1ec5;" horiz-adv-x="389" 
d="M352 335v-56h-259q0 -109 9 -148q22 -94 95 -94q54 0 77 47q15 31 20 96h56q0 -83 -34 -134q-41 -60 -120 -60q-101 0 -138 101q-23 63 -23 187q0 123 23 188q37 104 136 104q87 0 127 -76q31 -59 31 -155zM93 330h201q0 185 -101 185q-100 0 -100 -185zM196 673l-67 -83
h-52l91 112h55l92 -112h-53zM260 735q-13 -3 -25 -3q-21 0 -50.5 18.5t-43.5 18.5q-22 0 -61 -42h-28q52 81 113 81q17 0 48 -18.5t46 -18.5q24 0 54 41h29q-34 -57 -82 -77z" />
    <glyph glyph-name="glyph319" unicode="&#x1ec6;" 
d="M412 0h-345v750h340v-58h-275v-270h250v-58h-250v-306h280v-58zM237 879l-71 -87h-54l96 118h57l97 -118h-55zM269 -116h-62v80h62v-80z" />
    <glyph glyph-name="glyph320" unicode="&#x1ec7;" horiz-adv-x="389" 
d="M352 335v-56h-259q0 -109 9 -148q22 -94 95 -94q54 0 77 47q15 31 20 96h56q0 -83 -34 -134q-41 -60 -120 -60q-101 0 -138 101q-23 63 -23 187q0 123 23 188q37 104 136 104q87 0 127 -76q31 -59 31 -155zM93 330h201q0 185 -101 185q-100 0 -100 -185zM196 673l-67 -83
h-52l91 112h55l92 -112h-53zM225 -121h-58v76h58v-76z" />
    <glyph glyph-name="glyph321" unicode="&#x1ec8;" horiz-adv-x="222" 
d="M144 0h-65v750h65v-750zM130 800l-38 -1q-1 28 6 44q4 9 25 37q31 41 31 71q0 50 -41 50q-26 0 -35 -20q-6 -14 -6 -45l-15 10q-2 37 15.5 61.5t53.5 24.5q69 0 69 -72q0 -35 -37 -82q-29 -37 -28 -78z" />
    <glyph glyph-name="glyph322" unicode="&#x1ec9;" horiz-adv-x="222" 
d="M140 0h-58v552h58v-552zM128 598l-36 -1q-1 25 6 42q4 10 23 35q30 40 30 67q0 48 -39 48q-25 0 -34 -19q-5 -11 -5 -43l-15 10q-2 81 66 81q30 0 48 -19t18 -49q0 -32 -36 -78q-27 -34 -26 -74z" />
    <glyph glyph-name="glyph323" unicode="&#x1eca;" horiz-adv-x="222" 
d="M144 0h-65v750h65v-750zM143 -115h-62v80h62v-80z" />
    <glyph glyph-name="glyph324" unicode="&#x1ecb;" horiz-adv-x="222" 
d="M140 0h-58v552h58v-552zM140 607h-57v81h57v-81zM140 -111h-58v76h58v-76z" />
    <glyph glyph-name="glyph325" unicode="&#x1ecc;" horiz-adv-x="556" 
d="M276 -18q-142 0 -190 147q-28 85 -28 267q0 372 220 372q144 0 193 -143q28 -82 28 -266q0 -169 -32 -250q-50 -127 -191 -127zM282 40q102 0 135 127q17 65 17 207q0 141 -19 209q-36 127 -140 127q-98 0 -133 -124q-19 -68 -19 -205q0 -147 18 -214q34 -127 141 -127z
M309 -126h-62v80h62v-80z" />
    <glyph glyph-name="glyph326" unicode="&#x1ecd;" 
d="M221 -14q-111 0 -149 104q-23 63 -23 199q0 277 175 277q172 0 172 -288q0 -125 -27 -191q-42 -101 -148 -101zM220 37q76 0 103 89q15 50 15 151q0 100 -16 151q-27 87 -105 87q-110 0 -110 -227q0 -109 12 -156q24 -95 101 -95zM248 -121h-58v76h58v-76z" />
    <glyph glyph-name="glyph327" unicode="&#x1ece;" horiz-adv-x="556" 
d="M276 -18q-142 0 -190 147q-28 85 -28 267q0 372 220 372q144 0 193 -143q28 -82 28 -266q0 -169 -32 -250q-50 -127 -191 -127zM282 40q102 0 135 127q17 65 17 207q0 141 -19 209q-36 127 -140 127q-98 0 -133 -124q-19 -68 -19 -205q0 -147 18 -214q34 -127 141 -127z
M295 815l-38 -1q-1 28 6 44q4 9 25 37q31 41 31 71q0 50 -41 50q-26 0 -35 -20q-6 -14 -6 -45l-15 10q-2 37 15.5 61.5t53.5 24.5q69 0 69 -72q0 -35 -37 -82q-29 -37 -28 -78z" />
    <glyph glyph-name="glyph328" unicode="&#x1ecf;" 
d="M221 -14q-111 0 -149 104q-23 63 -23 199q0 277 175 277q172 0 172 -288q0 -125 -27 -191q-42 -101 -148 -101zM220 37q76 0 103 89q15 50 15 151q0 100 -16 151q-27 87 -105 87q-110 0 -110 -227q0 -109 12 -156q24 -95 101 -95zM237 611l-36 -1q-1 25 6 42q4 10 23 35
q30 40 30 67q0 48 -39 48q-25 0 -34 -19q-5 -11 -5 -43l-15 10q-2 81 66 81q30 0 48 -19t18 -49q0 -32 -36 -78q-27 -34 -26 -74z" />
    <glyph glyph-name="glyph329" unicode="&#x1ed0;" horiz-adv-x="556" 
d="M276 -18q-142 0 -190 147q-28 85 -28 267q0 372 220 372q144 0 193 -143q28 -82 28 -266q0 -169 -32 -250q-50 -127 -191 -127zM282 40q102 0 135 127q17 65 17 207q0 141 -19 209q-36 127 -140 127q-98 0 -133 -124q-19 -68 -19 -205q0 -147 18 -214q34 -127 141 -127z
M277 879l-71 -87h-54l96 118h57l97 -118h-55zM402 879h-26l85 125h80z" />
    <glyph glyph-name="glyph330" unicode="&#x1ed1;" 
d="M221 -14q-111 0 -149 104q-23 63 -23 199q0 277 175 277q172 0 172 -288q0 -125 -27 -191q-42 -101 -148 -101zM220 37q76 0 103 89q15 50 15 151q0 100 -16 151q-27 87 -105 87q-110 0 -110 -227q0 -109 12 -156q24 -95 101 -95zM223 673l-67 -83h-52l91 112h55l92 -112
h-53zM342 673h-25l81 119h76z" />
    <glyph glyph-name="glyph331" unicode="&#x1ed2;" horiz-adv-x="556" 
d="M276 -18q-142 0 -190 147q-28 85 -28 267q0 372 220 372q144 0 193 -143q28 -82 28 -266q0 -169 -32 -250q-50 -127 -191 -127zM282 40q102 0 135 127q17 65 17 207q0 141 -19 209q-36 127 -140 127q-98 0 -133 -124q-19 -68 -19 -205q0 -147 18 -214q34 -127 141 -127z
M277 879l-71 -87h-54l96 118h57l97 -118h-55zM178 879h-26l-139 125h80z" />
    <glyph glyph-name="glyph332" unicode="&#x1ed3;" 
d="M221 -14q-111 0 -149 104q-23 63 -23 199q0 277 175 277q172 0 172 -288q0 -125 -27 -191q-42 -101 -148 -101zM220 37q76 0 103 89q15 50 15 151q0 100 -16 151q-27 87 -105 87q-110 0 -110 -227q0 -109 12 -156q24 -95 101 -95zM219 673l-68 -83h-51l91 112h54l93 -112
h-53zM125 673h-25l-132 119h76z" />
    <glyph glyph-name="glyph333" unicode="&#x1ed4;" horiz-adv-x="556" 
d="M276 -18q-142 0 -190 147q-28 85 -28 267q0 372 220 372q144 0 193 -143q28 -82 28 -266q0 -169 -32 -250q-50 -127 -191 -127zM282 40q102 0 135 127q17 65 17 207q0 141 -19 209q-36 127 -140 127q-98 0 -133 -124q-19 -68 -19 -205q0 -147 18 -214q34 -127 141 -127z
M277 879l-71 -87h-54l96 118h57l97 -118h-55zM420 861l-38 -1q-1 28 6 44q4 9 25 37q31 41 31 71q0 50 -41 50q-26 0 -35 -20q-6 -14 -6 -45l-15 10q-2 37 15.5 61.5t53.5 24.5q69 0 69 -72q0 -35 -37 -82q-29 -37 -28 -78z" />
    <glyph glyph-name="glyph334" unicode="&#x1ed5;" 
d="M221 -14q-111 0 -149 104q-23 63 -23 199q0 277 175 277q172 0 172 -288q0 -125 -27 -191q-42 -101 -148 -101zM220 37q76 0 103 89q15 50 15 151q0 100 -16 151q-27 87 -105 87q-110 0 -110 -227q0 -109 12 -156q24 -95 101 -95zM219 673l-67 -83h-52l91 113h55l92 -113
h-53zM355 656l-36 -1q-1 25 6 42q4 10 23 35q30 40 30 67q0 48 -39 48q-25 0 -34 -19q-5 -11 -5 -43l-15 10q-2 81 66 81q30 0 48 -19t18 -49q0 -32 -36 -78q-27 -34 -26 -74z" />
    <glyph glyph-name="glyph335" unicode="&#x1ed6;" horiz-adv-x="556" 
d="M276 -18q-142 0 -190 147q-28 85 -28 267q0 372 220 372q144 0 193 -143q28 -82 28 -266q0 -169 -32 -250q-50 -127 -191 -127zM282 40q102 0 135 127q17 65 17 207q0 141 -19 209q-36 127 -140 127q-98 0 -133 -124q-19 -68 -19 -205q0 -147 18 -214q34 -127 141 -127z
M277 879l-71 -87h-54l96 118h57l97 -118h-55zM344 944q-13 -3 -25 -3q-22 0 -54 19q-25 19 -46 19q-6 0 -12 -1q-18 -6 -52 -42h-30q57 85 119 85q18 0 43 -15q40 -24 55 -24q26 0 58 43h31q-37 -60 -87 -81z" />
    <glyph glyph-name="glyph336" unicode="&#x1ed7;" 
d="M221 -14q-111 0 -149 104q-23 63 -23 199q0 277 175 277q172 0 172 -288q0 -125 -27 -191q-42 -101 -148 -101zM220 37q76 0 103 89q15 50 15 151q0 100 -16 151q-27 87 -105 87q-110 0 -110 -227q0 -109 12 -156q24 -95 101 -95zM219 673l-67 -83h-52l91 112h55l92 -112
h-53zM283 735q-13 -3 -25 -3q-21 0 -50.5 18.5t-43.5 18.5q-22 0 -61 -42h-28q52 81 113 81q17 0 48 -18.5t46 -18.5q24 0 54 41h29q-34 -57 -82 -77z" />
    <glyph glyph-name="glyph337" unicode="&#x1ed8;" horiz-adv-x="556" 
d="M276 -18q-142 0 -190 147q-28 85 -28 267q0 372 220 372q144 0 193 -143q28 -82 28 -266q0 -169 -32 -250q-50 -127 -191 -127zM282 40q102 0 135 127q17 65 17 207q0 141 -19 209q-36 127 -140 127q-98 0 -133 -124q-19 -68 -19 -205q0 -147 18 -214q34 -127 141 -127z
M277 879l-71 -87h-54l96 118h57l97 -118h-55zM309 -126h-62v80h62v-80z" />
    <glyph glyph-name="glyph338" unicode="&#x1ed9;" 
d="M221 -14q-111 0 -149 104q-23 63 -23 199q0 277 175 277q172 0 172 -288q0 -125 -27 -191q-42 -101 -148 -101zM220 37q76 0 103 89q15 50 15 151q0 100 -16 151q-27 87 -105 87q-110 0 -110 -227q0 -109 12 -156q24 -95 101 -95zM223 673l-67 -83h-52l91 112h55l92 -112
h-53zM248 -121h-58v76h58v-76z" />
    <glyph glyph-name="glyph339" unicode="&#x1eda;" horiz-adv-x="556" 
d="M282 40q102 0 135 127q17 65 17 207q0 141 -19 209q-36 127 -140 127q-98 0 -133 -124q-19 -68 -19 -205q0 -147 18 -214q34 -127 141 -127zM371 749l50 -4v-1q40 0 40 27q0 33 -47 33q0 3 -2 9t-2 8q0 6 12 6q78 0 78 -57q0 -25 -16 -42.5t-41 -17.5h-20q49 -54 66 -163
q10 -64 10 -188q0 -169 -32 -250q-50 -127 -191 -127q-142 0 -190 147q-28 85 -28 267q0 372 220 372q53 0 93 -19zM291 824h-26l85 125h80z" />
    <glyph glyph-name="glyph340" unicode="&#x1edb;" 
d="M220 37q76 0 103 89q15 50 15 151q0 100 -16 151q-27 87 -105 87q-110 0 -110 -227q0 -109 12 -156q24 -95 101 -95zM302 547l38 -3q36 -3 36 24q0 29 -43 29q0 3 -1.5 8t-1.5 7q0 6 11 6q70 0 70 -51q0 -23 -14.5 -38.5t-37.5 -15.5h-18q55 -68 55 -235q0 -125 -27 -191
q-42 -101 -148 -101q-111 0 -149 104q-23 63 -23 199q0 277 175 277q45 0 78 -19zM235 620h-25l81 119h76z" />
    <glyph glyph-name="glyph341" unicode="&#x1edc;" horiz-adv-x="556" 
d="M282 40q102 0 135 127q17 65 17 207q0 141 -19 209q-36 127 -140 127q-98 0 -133 -124q-19 -68 -19 -205q0 -147 18 -214q34 -127 141 -127zM371 749l50 -4v-1q40 0 40 27q0 33 -47 33q0 3 -2 9t-2 8q0 6 12 6q78 0 78 -57q0 -25 -16 -42.5t-41 -17.5h-20q49 -54 66 -163
q10 -64 10 -188q0 -169 -32 -250q-50 -127 -191 -127q-142 0 -190 147q-28 85 -28 267q0 372 220 372q53 0 93 -19zM291 824h-26l-139 125h80z" />
    <glyph glyph-name="glyph342" unicode="&#x1edd;" 
d="M220 37q76 0 103 89q15 50 15 151q0 100 -16 151q-27 87 -105 87q-110 0 -110 -227q0 -109 12 -156q24 -95 101 -95zM302 547l38 -3q36 -3 36 24q0 29 -43 29q0 3 -1.5 8t-1.5 7q0 6 11 6q70 0 70 -51q0 -23 -14.5 -38.5t-37.5 -15.5h-18q55 -68 55 -235q0 -125 -27 -191
q-42 -101 -148 -101q-111 0 -149 104q-23 63 -23 199q0 277 175 277q45 0 78 -19zM232 620h-25l-132 119h76z" />
    <glyph glyph-name="glyph343" unicode="&#x1ede;" horiz-adv-x="556" 
d="M282 40q102 0 135 127q17 65 17 207q0 141 -19 209q-36 127 -140 127q-98 0 -133 -124q-19 -68 -19 -205q0 -147 18 -214q34 -127 141 -127zM371 749l50 -4v-1q40 0 40 27q0 33 -47 33q0 3 -2 9t-2 8q0 6 12 6q78 0 78 -57q0 -25 -16 -42.5t-41 -17.5h-20q49 -54 66 -163
q10 -64 10 -188q0 -169 -32 -250q-50 -127 -191 -127q-142 0 -190 147q-28 85 -28 267q0 372 220 372q53 0 93 -19zM295 815l-38 -1q-1 28 6 44q4 9 25 37q31 41 31 71q0 50 -41 50q-26 0 -35 -20q-6 -14 -6 -45l-15 10q-2 37 15.5 61.5t53.5 24.5q69 0 69 -72
q0 -35 -37 -82q-29 -37 -28 -78z" />
    <glyph glyph-name="glyph344" unicode="&#x1edf;" 
d="M220 37q76 0 103 89q15 50 15 151q0 100 -16 151q-27 87 -105 87q-110 0 -110 -227q0 -109 12 -156q24 -95 101 -95zM302 547l38 -3q36 -3 36 24q0 29 -43 29q0 3 -1.5 8t-1.5 7q0 6 11 6q70 0 70 -51q0 -23 -14.5 -38.5t-37.5 -15.5h-18q55 -68 55 -235q0 -125 -27 -191
q-42 -101 -148 -101q-111 0 -149 104q-23 63 -23 199q0 277 175 277q45 0 78 -19zM237 611l-36 -1q-1 25 6 42q4 10 23 35q30 40 30 67q0 48 -39 48q-25 0 -34 -19q-5 -11 -5 -43l-15 10q-2 81 66 81q30 0 48 -19t18 -49q0 -32 -36 -78q-27 -34 -26 -74z" />
    <glyph glyph-name="glyph345" unicode="&#x1ee0;" horiz-adv-x="556" 
d="M282 40q102 0 135 127q17 65 17 207q0 141 -19 209q-36 127 -140 127q-98 0 -133 -124q-19 -68 -19 -205q0 -147 18 -214q34 -127 141 -127zM371 749l50 -4v-1q40 0 40 27q0 33 -47 33q0 3 -2 9t-2 8q0 6 12 6q78 0 78 -57q0 -25 -16 -42.5t-41 -17.5h-20q49 -54 66 -163
q10 -64 10 -188q0 -169 -32 -250q-50 -127 -191 -127q-142 0 -190 147q-28 85 -28 267q0 372 220 372q53 0 93 -19zM344 827q-13 -3 -25 -3q-22 0 -54 19q-25 19 -46 19q-6 0 -12 -1q-18 -6 -52 -42h-30q57 85 119 85q18 0 43 -15q40 -24 55 -24q26 0 58 43h31
q-37 -60 -87 -81z" />
    <glyph glyph-name="glyph346" unicode="&#x1ee1;" 
d="M220 37q76 0 103 89q15 50 15 151q0 100 -16 151q-27 87 -105 87q-110 0 -110 -227q0 -109 12 -156q24 -95 101 -95zM302 547l38 -3q36 -3 36 24q0 29 -43 29q0 3 -1.5 8t-1.5 7q0 6 11 6q70 0 70 -51q0 -23 -14.5 -38.5t-37.5 -15.5h-18q55 -68 55 -235q0 -125 -27 -191
q-42 -101 -148 -101q-111 0 -149 104q-23 63 -23 199q0 277 175 277q45 0 78 -19zM283 628q-13 -3 -25 -3q-21 0 -50.5 18.5t-43.5 18.5q-22 0 -61 -42h-28q52 81 113 81q17 0 48 -18.5t46 -18.5q24 0 54 41h29q-34 -57 -82 -77z" />
    <glyph glyph-name="glyph347" unicode="&#x1ee2;" horiz-adv-x="556" 
d="M282 40q102 0 135 127q17 65 17 207q0 141 -19 209q-36 127 -140 127q-98 0 -133 -124q-19 -68 -19 -205q0 -147 18 -214q34 -127 141 -127zM371 749l50 -4v-1q40 0 40 27q0 33 -47 33q0 3 -2 9t-2 8q0 6 12 6q78 0 78 -57q0 -25 -16 -42.5t-41 -17.5h-20q49 -54 66 -163
q10 -64 10 -188q0 -169 -32 -250q-50 -127 -191 -127q-142 0 -190 147q-28 85 -28 267q0 372 220 372q53 0 93 -19zM309 -126h-62v80h62v-80z" />
    <glyph glyph-name="glyph348" unicode="&#x1ee3;" 
d="M220 37q76 0 103 89q15 50 15 151q0 100 -16 151q-27 87 -105 87q-110 0 -110 -227q0 -109 12 -156q24 -95 101 -95zM302 547l38 -3q36 -3 36 24q0 29 -43 29q0 3 -1.5 8t-1.5 7q0 6 11 6q70 0 70 -51q0 -23 -14.5 -38.5t-37.5 -15.5h-18q55 -68 55 -235q0 -125 -27 -191
q-42 -101 -148 -101q-111 0 -149 104q-23 63 -23 199q0 277 175 277q45 0 78 -19zM248 -121h-58v76h58v-76z" />
    <glyph glyph-name="glyph349" unicode="&#x1ee4;" horiz-adv-x="556" 
d="M73 198v552h65v-544q0 -85 25 -121q31 -45 112 -45t115 48q28 40 28 124v538h65v-522q0 -119 -42 -178q-49 -68 -164 -68q-204 0 -204 216zM309 -126h-62v80h62v-80z" />
    <glyph glyph-name="glyph350" unicode="&#x1ee5;" 
d="M321 132v420h58v-552h-56v51q-51 -65 -141 -65q-122 0 -122 158v408h58v-418q0 -103 97 -97q34 2 65 33q27 26 41 62zM248 -121h-58v76h58v-76z" />
    <glyph glyph-name="glyph351" unicode="&#x1ee6;" horiz-adv-x="556" 
d="M73 198v552h65v-544q0 -85 25 -121q31 -45 112 -45t115 48q28 40 28 124v538h65v-522q0 -119 -42 -178q-49 -68 -164 -68q-204 0 -204 216zM295 781l-38 -1q-1 28 6 44q4 9 25 37q31 41 31 71q0 50 -41 50q-26 0 -35 -20q-6 -14 -6 -45l-15 10q-2 37 15.5 61.5t53.5 24.5
q69 0 69 -72q0 -35 -37 -82q-29 -37 -28 -78z" />
    <glyph glyph-name="glyph352" unicode="&#x1ee7;" 
d="M321 132v420h58v-552h-56v51q-51 -65 -141 -65q-122 0 -122 158v408h58v-418q0 -103 97 -97q34 2 65 33q27 26 41 62zM233 581l-36 -1q-1 25 6 42q4 10 23 35q30 40 30 67q0 48 -39 48q-25 0 -34 -19q-5 -11 -5 -43l-15 10q-2 81 66 81q30 0 48 -19t18 -49q0 -32 -36 -78
q-27 -34 -26 -74z" />
    <glyph glyph-name="glyph353" unicode="&#x1ee8;" horiz-adv-x="556" 
d="M484 827q78 0 78 -57q0 -25 -16 -42.5t-41 -17.5q-19 0 -22 1v-483q0 -119 -42 -178q-49 -68 -164 -68q-204 0 -204 216v552h65v-544q0 -85 25 -121q31 -45 112 -45t115 48q28 40 28 124v538l65 -6q40 0 40 27q0 33 -47 33q0 3 -2 9t-2 8q0 6 12 6zM291 792h-26l85 125
h80z" />
    <glyph glyph-name="glyph354" unicode="&#x1ee9;" 
d="M379 515v-515h-56v51q-51 -65 -141 -65q-122 0 -122 158v408h58v-418q0 -103 97 -97q34 2 65 33q27 26 41 62v420l60 -8q36 0 36 24q0 29 -43 29q0 3 -1.5 8t-1.5 7q0 6 11 6q70 0 70 -51q0 -23 -14.5 -38.5t-37.5 -15.5q-17 0 -19 1zM231 590h-25l81 119h76z" />
    <glyph glyph-name="glyph355" unicode="&#x1eea;" horiz-adv-x="556" 
d="M484 827q78 0 78 -57q0 -25 -16 -42.5t-41 -17.5q-19 0 -22 1v-483q0 -119 -42 -178q-49 -68 -164 -68q-204 0 -204 216v552h65v-544q0 -85 25 -121q31 -45 112 -45t115 48q28 40 28 124v538l65 -6q40 0 40 27q0 33 -47 33q0 3 -2 9t-2 8q0 6 12 6zM291 792h-26l-139 125
h80z" />
    <glyph glyph-name="glyph356" unicode="&#x1eeb;" 
d="M379 515v-515h-56v51q-51 -65 -141 -65q-122 0 -122 158v408h58v-418q0 -103 97 -97q34 2 65 33q27 26 41 62v420l60 -8q36 0 36 24q0 29 -43 29q0 3 -1.5 8t-1.5 7q0 6 11 6q70 0 70 -51q0 -23 -14.5 -38.5t-37.5 -15.5q-17 0 -19 1zM228 590h-25l-132 119h76z" />
    <glyph glyph-name="glyph357" unicode="&#x1eec;" horiz-adv-x="556" 
d="M484 827q78 0 78 -57q0 -25 -16 -42.5t-41 -17.5q-19 0 -22 1v-483q0 -119 -42 -178q-49 -68 -164 -68q-204 0 -204 216v552h65v-544q0 -85 25 -121q31 -45 112 -45t115 48q28 40 28 124v538l65 -6q40 0 40 27q0 33 -47 33q0 3 -2 9t-2 8q0 6 12 6zM295 781l-38 -1
q-1 28 6 44q4 9 25 37q31 41 31 71q0 50 -41 50q-26 0 -35 -20q-6 -14 -6 -45l-15 10q-2 37 15.5 61.5t53.5 24.5q69 0 69 -72q0 -35 -37 -82q-29 -37 -28 -78z" />
    <glyph glyph-name="glyph358" unicode="&#x1eed;" 
d="M379 515v-515h-56v51q-51 -65 -141 -65q-122 0 -122 158v408h58v-418q0 -103 97 -97q34 2 65 33q27 26 41 62v420l60 -8q36 0 36 24q0 29 -43 29q0 3 -1.5 8t-1.5 7q0 6 11 6q70 0 70 -51q0 -23 -14.5 -38.5t-37.5 -15.5q-17 0 -19 1zM233 581l-36 -1q-1 25 6 42
q4 10 23 35q30 40 30 67q0 48 -39 48q-25 0 -34 -19q-5 -11 -5 -43l-15 10q-2 81 66 81q30 0 48 -19t18 -49q0 -32 -36 -78q-27 -34 -26 -74z" />
    <glyph glyph-name="glyph359" unicode="&#x1eee;" horiz-adv-x="556" 
d="M484 827q78 0 78 -57q0 -25 -16 -42.5t-41 -17.5q-19 0 -22 1v-483q0 -119 -42 -178q-49 -68 -164 -68q-204 0 -204 216v552h65v-544q0 -85 25 -121q31 -45 112 -45t115 48q28 40 28 124v538l65 -6q40 0 40 27q0 33 -47 33q0 3 -2 9t-2 8q0 6 12 6zM344 800
q-13 -3 -25 -3q-22 0 -54 19q-25 19 -46 19q-6 0 -12 -1q-18 -6 -52 -42h-30q57 85 119 85q18 0 43 -15q40 -24 55 -24q26 0 58 43h31q-37 -60 -87 -81z" />
    <glyph glyph-name="glyph360" unicode="&#x1eef;" 
d="M379 515v-515h-56v51q-51 -65 -141 -65q-122 0 -122 158v408h58v-418q0 -103 97 -97q34 2 65 33q27 26 41 62v420l60 -8q36 0 36 24q0 29 -43 29q0 3 -1.5 8t-1.5 7q0 6 11 6q70 0 70 -51q0 -23 -14.5 -38.5t-37.5 -15.5q-17 0 -19 1zM283 608q-13 -3 -25 -3
q-21 0 -50.5 18.5t-43.5 18.5q-22 0 -61 -42h-28q52 81 113 81q17 0 48 -18.5t46 -18.5q24 0 54 41h29q-34 -57 -82 -77z" />
    <glyph glyph-name="glyph361" unicode="&#x1ef0;" horiz-adv-x="556" 
d="M484 827q78 0 78 -57q0 -25 -16 -42.5t-41 -17.5q-19 0 -22 1v-483q0 -119 -42 -178q-49 -68 -164 -68q-204 0 -204 216v552h65v-544q0 -85 25 -121q31 -45 112 -45t115 48q28 40 28 124v538l65 -6q40 0 40 27q0 33 -47 33q0 3 -2 9t-2 8q0 6 12 6zM309 -126h-62v80h62
v-80z" />
    <glyph glyph-name="glyph362" unicode="&#x1ef1;" 
d="M379 515v-515h-56v51q-51 -65 -141 -65q-122 0 -122 158v408h58v-418q0 -103 97 -97q34 2 65 33q27 26 41 62v420l60 -8q36 0 36 24q0 29 -43 29q0 3 -1.5 8t-1.5 7q0 6 11 6q70 0 70 -51q0 -23 -14.5 -38.5t-37.5 -15.5q-17 0 -19 1zM248 -121h-58v76h58v-76z" />
    <glyph glyph-name="glyph363" unicode="&#x1ef2;" horiz-adv-x="500" 
d="M249 393l165 357h68l-200 -431v-319h-65v319l-198 431h72zM266 792h-26l-139 125h80z" />
    <glyph glyph-name="glyph364" unicode="&#x1ef3;" horiz-adv-x="389" 
d="M28 -188v51q42 -2 57 1q31 6 43 33q17 37 32 101l-143 554h61l114 -447h2l120 447h59l-150 -545q-24 -89 -29 -101q-37 -98 -115 -98q-9 0 -26 2t-25 2zM209 590h-25l-132 119h76z" />
    <glyph glyph-name="glyph365" unicode="&#x1ef4;" horiz-adv-x="500" 
d="M249 393l165 357h68l-200 -431v-319h-65v319l-198 431h72zM281 -115h-62v80h62v-80z" />
    <glyph glyph-name="glyph366" unicode="&#x1ef5;" horiz-adv-x="389" 
d="M28 -188v51q42 -2 57 1q31 6 43 33q17 37 32 101l-143 554h61l114 -447h2l120 447h59l-150 -545q-24 -89 -29 -101q-37 -98 -115 -98q-9 0 -26 2t-25 2zM307 -111h-58v76h58v-76z" />
    <glyph glyph-name="glyph367" unicode="&#x1ef6;" horiz-adv-x="500" 
d="M249 393l165 357h68l-200 -431v-319h-65v319l-198 431h72zM270 781l-38 -1q-1 28 6 44q4 9 25 37q31 41 31 71q0 50 -41 50q-26 0 -35 -20q-6 -14 -6 -45l-15 10q-2 37 15.5 61.5t53.5 24.5q69 0 69 -72q0 -35 -37 -82q-29 -37 -28 -78z" />
    <glyph glyph-name="glyph368" unicode="&#x1ef7;" horiz-adv-x="389" 
d="M28 -188v51q42 -2 57 1q31 6 43 33q17 37 32 101l-143 554h61l114 -447h2l120 447h59l-150 -545q-24 -89 -29 -101q-37 -98 -115 -98q-9 0 -26 2t-25 2zM214 581l-36 -1q-1 25 6 42q4 10 23 35q30 40 30 67q0 48 -39 48q-25 0 -34 -19q-5 -11 -5 -43l-15 10q-2 81 66 81
q30 0 48 -19t18 -49q0 -32 -36 -78q-27 -34 -26 -74z" />
    <glyph glyph-name="glyph369" unicode="&#x1ef8;" horiz-adv-x="500" 
d="M249 393l165 357h68l-200 -431v-319h-65v319l-198 431h72zM319 800q-13 -3 -25 -3q-22 0 -54 19q-25 19 -46 19q-6 0 -12 -1q-18 -6 -52 -42h-30q57 85 119 85q18 0 43 -15q40 -24 55 -24q26 0 58 43h31q-37 -60 -87 -81z" />
    <glyph glyph-name="glyph370" unicode="&#x1ef9;" horiz-adv-x="389" 
d="M28 -188v51q42 -2 57 1q31 6 43 33q17 37 32 101l-143 554h61l114 -447h2l120 447h59l-150 -545q-24 -89 -29 -101q-37 -98 -115 -98q-9 0 -26 2t-25 2zM260 608q-13 -3 -25 -3q-21 0 -50.5 18.5t-43.5 18.5q-22 0 -61 -42h-28q52 81 113 81q17 0 48 -18.5t46 -18.5
q24 0 54 41h29q-34 -57 -82 -77z" />
    <glyph glyph-name="endash" unicode="&#x2013;" horiz-adv-x="500" 
d="M500 273h-500v51h500v-51z" />
    <glyph glyph-name="emdash" unicode="&#x2014;" horiz-adv-x="1000" 
d="M1000 273h-1000v51h1000v-51z" />
    <glyph glyph-name="quoteleft" unicode="&#x2018;" horiz-adv-x="160" 
d="M111 750v0v-37q-21 -9 -27 -37q-3 -12 -3 -49v-13h30v-88h-69v56q0 88 11 119q14 37 58 49z" />
    <glyph glyph-name="quoteright" unicode="&#x2019;" horiz-adv-x="160" 
d="M49 526v0v37q21 9 27 37q3 12 3 49v13h-30v88h69v-56q0 -88 -11 -119q-14 -37 -58 -49z" />
    <glyph glyph-name="quotesinglbase" unicode="&#x201a;" horiz-adv-x="222" 
d="M77 -136v0v37q21 9 27 37q3 12 3 49v13h-30v88h69v-56q0 -88 -11 -119q-14 -37 -58 -49z" />
    <glyph glyph-name="quotedblleft" unicode="&#x201c;" horiz-adv-x="333" 
d="M154 750v0v-37q-21 -9 -27 -37q-3 -12 -3 -49v-13h30v-88h-69v56q0 88 11 119q14 37 58 49zM284 750v0v-37q-21 -9 -27 -37q-3 -12 -3 -49v-13h30v-88h-69v56q0 88 11 119q14 37 58 49z" />
    <glyph glyph-name="quotedblright" unicode="&#x201d;" horiz-adv-x="333" 
d="M179 526v0v37q21 9 27 37q3 12 3 49v13h-30v88h69v-56q0 -88 -11 -119q-14 -37 -58 -49zM49 526v0v37q21 9 27 37q3 12 3 49v13h-30v88h69v-56q0 -88 -11 -119q-14 -37 -58 -49z" />
    <glyph glyph-name="quotedblbase" unicode="&#x201e;" horiz-adv-x="330" 
d="M196 -136v0v37q21 9 27 37q3 12 3 49v13h-30v88h69v-56q0 -88 -11 -119q-14 -37 -58 -49zM66 -136v0v37q21 9 27 37q3 12 3 49v13h-30v88h69v-56q0 -88 -11 -119q-14 -37 -58 -49z" />
    <glyph glyph-name="dagger" unicode="&#x2020;" 
d="M252 539h160v-51h-160v-605h-58v605h-162v51h162v229h58v-229z" />
    <glyph glyph-name="daggerdbl" unicode="&#x2021;" 
d="M251 157h162v-51h-162v-223h-58v223h-162v51h162v338h-160v51h160v222h58v-222h162v-51h-162v-338z" />
    <glyph glyph-name="bullet" unicode="&#x2022;" horiz-adv-x="606" 
d="M490 375q0 -76 -55.5 -131t-132.5 -55q-76 0 -131 55t-55 131q0 77 55 132.5t131 55.5q77 0 132.5 -55.5t55.5 -132.5z" />
    <glyph glyph-name="ellipsis" unicode="&#x2026;" horiz-adv-x="1000" 
d="M202 0h-69v88h69v-88zM535 0h-69v88h69v-88zM868 0h-69v88h69v-88z" />
    <glyph glyph-name="perthousand" unicode="&#x2030;" horiz-adv-x="1000" 
d="M165 -15l304 756h44l-305 -756h-43zM513 358q131 0 131 -181q0 -179 -132 -179q-78 0 -110 56q-23 41 -23 123q0 181 134 181zM513 314q-78 1 -78 -136q0 -136 80 -136q73 0 73 136q0 135 -75 136zM835 358q131 0 131 -181q0 -179 -132 -179q-78 0 -110 56
q-23 41 -23 123q0 181 134 181zM835 314q-78 1 -78 -136q0 -136 80 -136q73 0 73 136q0 135 -75 136zM168 728q131 0 131 -181q0 -179 -132 -179q-78 0 -110 56q-23 41 -23 123q0 181 134 181zM168 684q-78 1 -78 -136q0 -136 80 -136q73 0 73 136q0 135 -75 136z" />
    <glyph glyph-name="guilsinglleft" unicode="&#x2039;" horiz-adv-x="333" 
d="M231 130l-141 106v70l141 106v-60l-101 -81l101 -79v-62z" />
    <glyph glyph-name="guilsinglright" unicode="&#x203a;" horiz-adv-x="333" 
d="M102 352v60l141 -106v-70l-141 -106v62l102 79z" />
    <glyph glyph-name="fraction" unicode="&#x2044;" horiz-adv-x="167" 
d="M-170 0l452 744h50l-450 -744h-52z" />
    <glyph glyph-name="franc" unicode="&#x20a3;" horiz-adv-x="1035" 
d="M134 0h-65v750h345v-58h-280v-270h250v-58h-250v-364zM776 552v-64h2q40 79 131 78v-61q-130 3 -130 -143v-362h-58v552h55z" />
    <glyph glyph-name="u20AB" unicode="&#x20ab;" horiz-adv-x="393" 
d="M197 501q-48 0 -84 -88q-20 -49 -20 -90q0 -51 39 -51q41 0 74 71q28 60 28 107q0 51 -37 51zM200 267q-53 -62 -106 -62q-45 0 -68 28t-23 74q0 80 55 153q59 78 136 78q34 0 61 -24l20 75h-100l10 36h100l2 16q0 31 -48 32l7 33q67 2 128 14l15 3q6 0 6 -9l-3 -12
l-19 -77h65l-10 -36h-65l-69 -280q-5 -20 -5 -27q0 -15 12 -15q6 0 49 42l20 -18q-70 -86 -117 -86q-43 0 -53 62zM9 160h221v-56h-221v56z" />
    <glyph glyph-name="trademark" unicode="&#x2122;" horiz-adv-x="722" 
d="M666 750v-421h-51v368h-2l-94 -368h-36l-93 368h-2v-368h-51v421h88l75 -297h2l78 297h86zM292 750v-51h-92v-370h-51v370h-92v51h235z" />
    <glyph glyph-name="minus" unicode="&#x2212;" 
d="M424 271v-51h-403v51h403z" />
    <glyph glyph-name="SF370000" unicode="&#x255f;" horiz-adv-x="718" 
d="M150 289h200l-99 379h-2zM213 750h75l201 -750h-66l-59 231h-228l-61 -231h-63z" />
    <glyph glyph-name="SF420000" unicode="&#x2560;" horiz-adv-x="681" 
d="M412 0h-345v750h340v-58h-275v-270h250v-58h-250v-306h280v-58z" />
    <glyph glyph-name="SF190000" unicode="&#x2561;" horiz-adv-x="429" 
d="M144 0h-65v750h65v-750z" />
    <glyph glyph-name="SF200000" unicode="&#x2562;" horiz-adv-x="773" 
d="M276 -18q-142 0 -190 147q-28 85 -28 267q0 372 220 372q144 0 193 -143q28 -83 28 -266q0 -168 -32 -250q-51 -127 -191 -127zM282 40q102 0 135 127q17 65 17 207q0 140 -19 209q-36 127 -140 127q-98 0 -133 -124q-19 -70 -19 -205q0 -148 18 -214q34 -127 141 -127z
" />
    <glyph glyph-name="SF230000" unicode="&#x2563;" horiz-adv-x="811" 
d="M73 198v552h65v-544q0 -86 26 -123q31 -43 111 -43q82 0 115 48q28 40 28 124v538h65v-522q0 -119 -42 -178q-50 -68 -164 -68q-204 0 -204 216z" />
    <glyph glyph-name="SF470000" unicode="&#x2564;" horiz-adv-x="699" 
d="M249 393l165 357h68l-200 -431v-319h-65v319l-198 431h72z" />
    <glyph glyph-name="SF480000" unicode="&#x2565;" horiz-adv-x="541" 
d="M271 201v97q-10 -6 -115 -51q-44 -19 -58 -42t-14 -72q0 -96 77 -96q54 0 82 41t28 123zM97 413h-56q-2 73 36.5 113t110.5 40q81 0 114 -42q27 -34 27 -108v-339q0 -26 8 -32t32 -5v-42q-26 -10 -64 -3q-17 7 -23 19q-2 4 -8 31h-1q-43 -59 -122 -59q-125 0 -125 156
q0 104 76 142q51 20 151 62q12 6 15 22q8 46 -2 92q-12 55 -79 55q-54 0 -72 -33q-8 -12 -18 -69z" />
    <glyph glyph-name="SF410000" unicode="&#x2566;" horiz-adv-x="431" 
d="M352 335v-56h-259q0 -107 9 -148q22 -94 95 -94q55 0 77 47q15 30 20 96h56q0 -84 -35 -135q-40 -59 -119 -59q-101 0 -138 101q-23 63 -23 187t23 188q36 104 136 104q87 0 127 -76q31 -59 31 -155zM93 330h201q0 185 -101 185q-100 0 -100 -185z" />
    <glyph glyph-name="SF450000" unicode="&#x2567;" horiz-adv-x="314" 
d="M140 0h-58v552h58v-552zM145 655h-67v95h67v-95z" />
    <glyph glyph-name="SF460000" unicode="&#x2568;" horiz-adv-x="314" 
d="M129 0h-58v552h58v-552z" />
    <glyph glyph-name="SF400000" unicode="&#x2569;" horiz-adv-x="498" 
d="M221 -14q-111 0 -149 104q-23 62 -23 199q0 277 175 277q172 0 172 -288q0 -126 -28 -193q-41 -99 -147 -99zM220 37q76 0 103 89q15 50 15 151t-16 151q-27 87 -105 87q-110 0 -110 -227q0 -110 12 -156q24 -95 101 -95z" />
    <glyph glyph-name="SF540000" unicode="&#x256a;" horiz-adv-x="557" 
d="M321 132v420h58v-552h-56v51q-51 -65 -141 -65q-122 0 -122 158v408h58v-418q0 -103 97 -97q33 2 62.5 30t43.5 65z" />
    <glyph glyph-name="SF530000" unicode="&#x256b;" horiz-adv-x="497" 
d="M28 -188v51q40 -2 57 1q31 7 43 33q17 37 32 101l-143 554h61l114 -447h2l120 447h59l-150 -545q-24 -88 -29 -101q-23 -62 -58 -83q-24 -15 -57 -15q-10 0 -27.5 2t-23.5 2z" />
    <glyph glyph-name="circle" unicode="&#x25cb;" horiz-adv-x="718" 
d="M395 940l-83 -102h-64l113 139h67l114 -139h-65zM357 1026h-51l111 139h78z" />
    <glyph glyph-name="H18533" unicode="&#x25cf;" horiz-adv-x="718" 
d="M395 940l-83 -102h-64l113 139h67l114 -139h-65zM540 1027h-51l-138 139h78z" />
    <glyph glyph-name="invbullet" unicode="&#x25d8;" horiz-adv-x="718" 
d="M395 940l-83 -102h-64l113 139h67l114 -139h-65zM614 903q9 29 11 64q1 11 8 13q3 0 8 1q67 11 67 54q0 35 -28 35q-5 0 -14 -1t-14 -1q-21 0 -21 18q0 28 32 28q46 0 76 -25.5t26 -70.5q-6 -59 -87 -81q-25 -7 -31 -34h-33z" />
    <glyph glyph-name="invcircle" unicode="&#x25d9;" horiz-adv-x="718" 
d="M395 940l-83 -102h-64l113 139h67l114 -139h-65zM544 1047q-14 -4 -28 -4q-27 0 -75 22.5t-70 22.5q-8 0 -14 -2q-20 -9 -35 -48h-37q6 41 30 69t60 28q23 0 61 -17q49 -21 61 -24t21 -3q32 0 43 49h38q-8 -70 -55 -93z" />
    <glyph glyph-name="fi" unicode="&#xf001;" 
d="M84 0v501h-59v51h59v60q0 84 22 111q26 31 107 27v-51q-53 2 -65 -17q-6 -10 -6 -67v-63h69v-51h-69v-501h-58zM372 0h-58v552h58v-552zM376 750v-95h-67v95h67z" />
    <glyph glyph-name="fl" unicode="&#xf002;" 
d="M84 0v501h-59v51h59v60q0 84 22 111q26 31 107 27v-51q-53 2 -65 -17q-6 -10 -6 -67v-63h71v-51h-71v-501h-58zM372 0h-58v750h58v-750z" />
    <glyph glyph-name="periodcentered" horiz-adv-x="222" 
d="M146 201h-69v88h69v-88z" />
    <glyph glyph-name="glyph231" horiz-adv-x="278" 
 />
    <glyph glyph-name="glyph232" horiz-adv-x="278" 
 />
    <glyph glyph-name="glyph275" horiz-adv-x="249" 
 />
    <glyph glyph-name="glyph276" horiz-adv-x="249" 
 />
    <glyph glyph-name="glyph261" horiz-adv-x="500" 
d="M253 522q9 29 11 64q1 11 8 13q3 0 8 1q67 11 67 54q0 35 -28 35q-5 0 -14 -1t-14 -1q-21 0 -21 18q0 28 32 28q46 0 76 -25.5t26 -70.5q-6 -59 -87 -81q-25 -7 -31 -34h-33z" />
    <glyph glyph-name="glyph262" horiz-adv-x="541" 
d="M192 708l-83 -102h-64l113 139h67l114 -139h-65zM153 795h-51l111 139h78z" />
    <glyph glyph-name="glyph263" horiz-adv-x="541" 
d="M192 708l-83 -102h-64l113 139h67l114 -139h-65zM337 795h-51l-138 139h78z" />
    <glyph glyph-name="glyph264" horiz-adv-x="541" 
d="M192 708l-83 -102h-64l113 139h67l114 -139h-65zM411 671q9 29 11 64q1 11 8 13q3 0 8 1q67 11 67 54q0 35 -28 35q-5 0 -14 -1t-14 -1q-21 0 -21 18q0 28 32 28q46 0 76 -25.5t26 -70.5q-6 -59 -87 -81q-25 -7 -31 -34h-33z" />
    <glyph glyph-name="glyph265" horiz-adv-x="541" 
d="M192 708l-83 -102h-64l113 139h67l114 -139h-65zM341 815q-14 -4 -28 -4q-27 0 -75 22.5t-70 22.5q-8 0 -14 -2q-20 -9 -35 -48h-37q6 41 30 69t60 28q23 0 61 -17q49 -21 61 -24t21 -3q32 0 43 49h38q-8 -70 -55 -93z" />
    <glyph glyph-name="glyph266" horiz-adv-x="541" 
d="M53 737h40q14 -81 105 -81q90 0 106 81h37q-6 -61 -46 -93.5t-102 -32.5q-59 0 -96.5 33.5t-43.5 92.5zM232 795h-51l111 139h78z" />
    <glyph glyph-name="glyph267" horiz-adv-x="541" 
d="M53 737h40q14 -81 105 -81q90 0 106 81h37q-6 -61 -46 -93.5t-102 -32.5q-59 0 -96.5 33.5t-43.5 92.5zM284 795h-51l-138 139h78z" />
    <glyph glyph-name="glyph268" horiz-adv-x="541" 
d="M53 737h40q14 -81 105 -81q90 0 106 81h37q-6 -61 -46 -93.5t-102 -32.5q-59 0 -96.5 33.5t-43.5 92.5zM306 671q9 29 11 64q1 11 8 13q3 0 8 1q67 11 67 54q0 35 -28 35q-5 0 -14 -1t-14 -1q-21 0 -21 18q0 28 32 28q46 0 76 -25.5t26 -70.5q-6 -59 -87 -81
q-25 -7 -31 -34h-33z" />
    <glyph glyph-name="glyph269" horiz-adv-x="541" 
d="M53 737h40q14 -81 105 -81q90 0 106 81h37q-6 -61 -46 -93.5t-102 -32.5q-59 0 -96.5 33.5t-43.5 92.5zM341 815q-14 -4 -28 -4q-27 0 -75 22.5t-70 22.5q-8 0 -14 -2q-20 -9 -35 -48h-37q6 41 30 69t60 28q23 0 61 -17q49 -21 61 -24t21 -3q32 0 43 49h38
q-8 -70 -55 -93z" />
    <glyph glyph-name="glyph270" horiz-adv-x="249" 
 />
  </font>
</defs>
</svg>
