<?xml version="1.0" standalone="no"?>
<!DOCTYPE svg PUBLIC "-//W3C//DTD SVG 1.1//EN" "http://www.w3.org/Graphics/SVG/1.1/DTD/svg11.dtd" >
<svg xmlns="http://www.w3.org/2000/svg" xmlns:xlink="http://www.w3.org/1999/xlink" version="1.1">
<metadata>
Created by FontForge 20170731 at Mon Oct 10 20:23:15 2005
 By Aleksey,,,
Generated  by Tong Duc Thinh - Sun Fower Media. 2005
</metadata>
<defs>
<font id="SFUHelveticaBlackOblique" horiz-adv-x="667" >
  <font-face 
    font-family="SFU Helvetica"
    font-weight="900"
    font-style="oblique"
    font-stretch="normal"
    units-per-em="1000"
    panose-1="0 0 9 0 0 0 0 0 0 0"
    ascent="800"
    descent="-200"
    x-height="524"
    cap-height="720"
    bbox="-170 -232 1178 1159"
    underline-thickness="58"
    underline-position="-177"
    slope="-11"
    unicode-range="U+0020-F002"
  />
<missing-glyph horiz-adv-x="500" 
d="M63 0v811h375v-811h-375zM125 63h250v686h-250v-686z" />
    <glyph glyph-name=".notdef" horiz-adv-x="500" 
d="M63 0v811h375v-811h-375zM125 63h250v686h-250v-686z" />
    <glyph glyph-name=".null" horiz-adv-x="0" 
 />
    <glyph glyph-name="nonmarkingreturn" horiz-adv-x="333" 
 />
    <glyph glyph-name="space" unicode=" " horiz-adv-x="333" 
 />
    <glyph glyph-name="exclam" unicode="!" horiz-adv-x="333" 
d="M155 264l1 278l31 178h213l-31 -178l-101 -278h-113zM267 0h-206l34 194h206z" />
    <glyph glyph-name="quotedbl" unicode="&#x22;" horiz-adv-x="500" 
d="M480 449h-119l48 271h119zM297 449h-119l48 271h119z" />
    <glyph glyph-name="numbersign" unicode="#" horiz-adv-x="660" 
d="M606 315l-17 -93h-102l-71 -222h-89l70 222h-85l-71 -222h-88l70 222h-100l17 93h114l28 88h-99l16 93h111l67 209h87l-66 -209h86l66 209h90l-67 -209h90l-16 -93h-103l-27 -88h89zM455 403h-86l-27 -88h85z" />
    <glyph glyph-name="dollar" unicode="$" 
d="M366 455l23 130q-23 2 -51 -15q-30 -20 -35 -46q-1 -6 -1 -12q0 -24 22 -38q2 -2 42 -19zM415 260l-26 -146q37 0 68.5 21.5t31.5 56.5q0 52 -74 68zM412 715l11 62h83l-11 -62q98 -5 155 -43q69 -44 69 -127q0 -21 -5 -45h-173q3 32 -14 55q-20 25 -56 24l-24 -139
q111 -36 155 -65q74 -49 74 -129q0 -18 -3 -37q-38 -215 -307 -224l-17 -97h-83l17 97q-100 4 -160 51q-64 52 -64 142q0 22 3 46h181q-2 -13 -2 -24q0 -66 66 -80l28 157q-111 36 -145 58q-69 44 -69 121q0 19 3 39q19 106 105 161q66 42 183 59z" />
    <glyph glyph-name="percent" unicode="%" horiz-adv-x="1000" 
d="M893 747l-561 -778h-101l561 778h101zM847 416q80 0 132 -52.5t52 -130.5q0 -19 -4 -38q-16 -91 -91 -154.5t-166 -63.5q-80 0 -133 52t-53 129q0 100 81.5 179t181.5 79zM721 183q0 -30 21.5 -50.5t51.5 -20.5q38 0 69 30t31 68q0 30 -20 50.5t-50 20.5q-39 0 -71 -30
t-32 -68zM280 302q-80 0 -132.5 52t-52.5 130q0 101 81 179t182 78q80 0 132 -52t52 -129q0 -19 -3 -38q-16 -91 -92 -155.5t-167 -64.5zM334 606q-38 0 -70 -30t-32 -68q0 -30 20.5 -50.5t51.5 -20.5q38 0 69.5 30.5t31.5 68.5q0 29 -20.5 49.5t-50.5 20.5z" />
    <glyph glyph-name="ampersand" unicode="&#x26;" horiz-adv-x="889" 
d="M489 595q-34 0 -56 -16q-25 -17 -25 -50q0 -36 48 -72q47 21 66 39q28 27 23 67q-9 32 -56 32zM594 0l-46 61q-44 -33 -112 -55q-73 -25 -140 -25q-97 0 -156 39q-66 44 -66 124q0 18 3 37q26 148 190 224q-41 53 -41 105q0 15 3 30q17 93 105 141q73 39 172 39
q92 0 150.5 -43.5t58.5 -115.5q0 -15 -3 -31q-20 -118 -149 -182l51 -64q33 24 58 60h190q-74 -105 -152 -175l134 -169h-250zM449 188l-76 98q-85 -40 -93 -86q-1 -8 -1 -15q0 -51 60 -51q36 0 84 26q31 17 31 19t-5 9z" />
    <glyph glyph-name="quotesingle" unicode="'" horiz-adv-x="278" 
d="M277 449h-119l48 271h119z" />
    <glyph glyph-name="parenleft" unicode="(" horiz-adv-x="389" 
d="M300 -178h-176q-45 129 -45 273q0 88 17 182q21 120 80 246q31 66 107 197h178q-138 -247 -173 -446q-16 -95 -16 -193q0 -127 28 -259z" />
    <glyph glyph-name="parenright" unicode=")" horiz-adv-x="389" 
d="M185 720h176q44 -129 44 -273q0 -88 -16 -182q-21 -120 -80 -246q-31 -66 -107 -197h-178q137 247 172 446q17 95 17 193q0 127 -28 259z" />
    <glyph glyph-name="asterisk" unicode="*" horiz-adv-x="556" 
d="M202 627l124 -46l25 139h108l-25 -139l141 51l20 -103l-147 -47l74 -117l-103 -70l-65 124l-109 -124l-80 68l112 117l-132 37z" />
    <glyph glyph-name="plus" unicode="+" horiz-adv-x="660" 
d="M327 314l34 191h116l-34 -191h194l-20 -116h-194l-35 -198h-116l35 198h-194l20 116h194z" />
    <glyph glyph-name="comma" unicode="," horiz-adv-x="333" 
d="M27 -176l15 87q93 12 113 89h-97l36 206h212l-30 -174q-35 -197 -249 -208z" />
    <glyph glyph-name="hyphen" unicode="-" horiz-adv-x="333" 
d="M329 165h-268l32 182h268z" />
    <glyph glyph-name="hyphen" unicode="&#x2010;" horiz-adv-x="333" 
d="M329 165h-268l32 182h268z" />
    <glyph glyph-name="period" unicode="." horiz-adv-x="333" 
d="M272 0h-212l36 206h212z" />
    <glyph glyph-name="slash" unicode="/" horiz-adv-x="278" 
d="M311 720h126l-359 -810h-126z" />
    <glyph glyph-name="zero" unicode="0" 
d="M359 141q97 0 134 208q13 77 13 111q0 99 -75 99q-96 0 -134 -212q-11 -64 -11 -105q0 -101 73 -101zM91 359q33 182 142 275q94 81 227 81q119 0 185.5 -66t66.5 -191q0 -46 -10 -98q-29 -167 -113 -263q-98 -112 -258 -112q-250 0 -250 261q0 53 10 113z" />
    <glyph glyph-name="one" unicode="1" 
d="M595 715l-126 -715h-208l72 411h-163l26 142q183 3 241 162h158z" />
    <glyph glyph-name="two" unicode="2" 
d="M649 0h-593q14 107 119 200q23 20 128 84.5t152 103.5q75 63 75 112q0 27 -21.5 43t-51.5 16q-104 0 -126 -135h-187q55 291 350 291q108 0 173 -42q74 -48 74 -141q0 -21 -4 -45q-15 -82 -84 -141q-35 -30 -144 -91q-58 -29 -157 -85h327z" />
    <glyph glyph-name="three" unicode="3" 
d="M78 245h196q-10 -48 11.5 -76t70.5 -28q44 0 76.5 28t32.5 72q0 41 -42 53q-21 7 -76 7l22 123q46 -4 82 10q47 18 54 62q2 6 2 12q0 51 -72 51q-82 0 -105 -75h-188q26 115 121 176q86 55 205 55q113 0 176 -44t63 -120q0 -16 -3 -33q-17 -99 -106 -139q78 -33 78 -116
q0 -15 -3 -31q-21 -120 -118 -185q-92 -62 -238 -62q-111 0 -176 49q-69 53 -69 150q0 29 6 61z" />
    <glyph glyph-name="four" unicode="4" 
d="M51 147l29 167l398 391h194l-71 -403h88l-27 -155h-88l-26 -147h-198l26 147h-325zM441 517l-206 -215h168z" />
    <glyph glyph-name="five" unicode="5" 
d="M108 304l140 401h452l-30 -170h-306l-41 -106q59 38 152 38q92 0 148.5 -47.5t56.5 -130.5q0 -22 -4 -45q-24 -136 -133 -203q-92 -56 -229 -56q-232 0 -259 199l213 21q0 -1 1 -3v-4q4 -27 27 -42t53 -15q45 0 77.5 26.5t39.5 66.5q3 14 3 27q0 75 -76 75q-64 0 -91 -39
z" />
    <glyph glyph-name="six" unicode="6" 
d="M401 326q-50 -1 -83.5 -33.5t-33.5 -82.5q0 -33 23 -54.5t57 -21.5q92 0 109 98q2 11 2 21q0 33 -20 53.5t-54 19.5zM716 529l-196 -12q-6 56 -74 56q-110 0 -137 -162q83 51 174 51q101 0 155 -60q47 -52 47 -130q0 -19 -4 -38q-22 -123 -114 -189q-86 -60 -212 -60
q-276 0 -276 260q0 49 10 107q29 165 128 264t244 99q249 0 255 -186z" />
    <glyph glyph-name="seven" unicode="7" 
d="M512 535h-362l30 170h567l-28 -158q-112 -80 -200 -223q-92 -150 -128 -324h-216q84 310 337 535z" />
    <glyph glyph-name="eight" unicode="8" 
d="M384 135q71 11 84 84q1 10 1 20q0 71 -79 71q-98 0 -115 -92q-1 -9 -1 -17q0 -68 85 -68q12 0 25 2zM407 423q41 0 71.5 24.5t30.5 65.5q0 28 -20.5 44.5t-53.5 16.5q-40 0 -68.5 -20t-35.5 -58q-1 -8 -1 -15q0 -58 77 -58zM208 369q-35 21 -50 41q-19 26 -19 65
q0 18 4 41q17 97 114 150q87 49 210 49q109 0 174 -46t65 -120q0 -14 -2 -29q-20 -109 -119 -146q92 -38 92 -129q0 -17 -3 -36q-19 -105 -113 -164.5t-230 -59.5q-119 0 -190 44q-79 49 -79 140q0 19 4 40q18 105 142 160z" />
    <glyph glyph-name="nine" unicode="9" 
d="M387 375q50 1 83.5 33.5t33.5 82.5q0 33 -22.5 54.5t-56.5 21.5q-92 0 -109 -98q-2 -11 -2 -21q0 -33 19.5 -53.5t53.5 -19.5zM72 171l196 12q6 -56 74 -56q110 0 137 162q-82 -51 -174 -51q-100 0 -155 60q-46 52 -46 130q0 19 3 38q22 123 115 189q85 60 211 60
q277 0 277 -260q0 -49 -11 -107q-29 -165 -126 -263q-101 -100 -246 -100q-249 0 -255 186z" />
    <glyph glyph-name="colon" unicode=":" horiz-adv-x="333" 
d="M272 0h-212l36 206h212zM328 318h-212l36 206h212z" />
    <glyph glyph-name="semicolon" unicode=";" horiz-adv-x="333" 
d="M94 206h212l-30 -174q-35 -197 -249 -208l15 87q93 12 113 89h-97zM326 318h-212l36 206h212z" />
    <glyph glyph-name="less" unicode="&#x3c;" horiz-adv-x="660" 
d="M603 108l-23 -128l-469 226l18 99l549 227l-23 -128l-382 -150z" />
    <glyph glyph-name="equal" unicode="=" horiz-adv-x="660" 
d="M655 412l-21 -116h-504l21 116h504zM620 216l-20 -116h-504l20 116h504z" />
    <glyph glyph-name="greater" unicode="&#x3e;" horiz-adv-x="660" 
d="M93 108l382 146l-330 150l23 128l469 -227l-18 -99l-549 -226z" />
    <glyph glyph-name="question" unicode="?" horiz-adv-x="611" 
d="M434 269h-184q12 101 64 150q22 20 94 52q52 23 59 60q1 6 1 11q0 47 -65 47t-80 -83h-207q26 114 121 177q86 56 204 56q108 0 171 -42q67 -44 67 -125q0 -18 -4 -37q-13 -73 -75 -117q-54 -31 -108 -61q-56 -35 -58 -88zM226 194h206l-34 -194h-206z" />
    <glyph glyph-name="at" unicode="@" horiz-adv-x="740" 
d="M338 318q0 -68 62 -68q49 0 86 40t37 90q0 66 -66 66q-47 0 -83 -40.5t-36 -87.5zM574 493l19 51h95l-101 -292q-7 -22 -7 -26q0 -10 13 -10q35 0 74 51q42 55 55 132q5 28 5 53q0 94 -63 147q-62 50 -166 50q-124 0 -215.5 -81.5t-114.5 -207.5q-5 -31 -5 -60
q0 -106 68.5 -167.5t182.5 -61.5q104 0 202 67h99q-142 -157 -325 -157q-144 0 -236 86.5t-92 223.5q0 34 6 69q29 161 159 270t290 109q137 0 220 -84q77 -77 77 -176q0 -23 -4 -47q-22 -128 -113 -206q-37 -32 -90 -57q-59 -28 -98 -28q-51 0 -51 38q0 6 2 13
q-52 -47 -106 -47q-59 0 -99.5 42t-40.5 104q0 97 75.5 179t171.5 82q80 0 113 -59z" />
    <glyph glyph-name="A" unicode="A" horiz-adv-x="778" 
d="M506 245l-30 258l-119 -258h149zM242 0h-231l385 720h240l131 -720h-235l-11 95h-235z" />
    <glyph glyph-name="B" unicode="B" horiz-adv-x="778" 
d="M436 301h-75l-23 -133h103q102 0 113 66q2 8 2 15q0 33 -34 44q-24 8 -86 8zM488 552h-83l-21 -120h98q81 0 92 63q2 8 2 14q0 28 -27 37q-17 6 -61 6zM423 0h-351l127 720h344q262 0 262 -146q0 -16 -3 -35q-17 -98 -122 -157q94 -25 94 -129q0 -18 -3 -36
q-38 -217 -348 -217z" />
    <glyph glyph-name="C" unicode="C" horiz-adv-x="778" 
d="M821 445h-224q5 56 -23 87t-84 31q-133 0 -170 -210q-7 -43 -7 -75q0 -121 115 -121q105 0 142 122h227q-40 -139 -146.5 -218.5t-249.5 -79.5q-154 0 -238.5 77.5t-84.5 214.5q0 42 8 88q30 171 153 276q118 102 272 102t233 -68.5t79 -194.5q0 -15 -2 -31z" />
    <glyph glyph-name="D" unicode="D" horiz-adv-x="778" 
d="M398 552l-67 -384h50q170 0 204 194q7 43 7 74q0 65 -36 92q-33 24 -113 24h-45zM375 0h-310l127 720h316q323 0 323 -260q0 -40 -8 -85q-66 -375 -448 -375z" />
    <glyph glyph-name="E" unicode="E" horiz-adv-x="722" 
d="M677 0h-601l127 720h587l-30 -168h-351l-18 -103h297l-29 -168h-297l-20 -113h365z" />
    <glyph glyph-name="F" unicode="F" 
d="M310 0h-236l127 720h560l-30 -168h-324l-23 -131h258l-29 -168h-258z" />
    <glyph glyph-name="G" unicode="G" horiz-adv-x="833" 
d="M836 396l-70 -398h-152l3 71q-90 -88 -232 -88q-128 0 -207 70q-85 75 -85 213q0 41 8 87q31 174 151.5 281t293.5 107q135 0 213 -67q83 -71 81 -200h-224q-10 91 -105 91q-68 0 -112.5 -56.5t-61.5 -154.5q-6 -35 -6 -65q0 -130 123 -130q38 0 79 23.5t56 59.5h-104
l28 156h323z" />
    <glyph glyph-name="H" unicode="H" horiz-adv-x="833" 
d="M305 0h-236l127 720h236l-43 -243h223l43 243h236l-127 -720h-236l49 279h-223z" />
    <glyph glyph-name="I" unicode="I" horiz-adv-x="389" 
d="M312 0h-236l127 720h236z" />
    <glyph glyph-name="J" unicode="J" 
d="M82 313h210q-11 -65 -11 -93q0 -63 46 -63q60 0 75 88l84 475h236l-78 -442q-52 -297 -333 -297q-247 0 -247 208q0 55 18 124z" />
    <glyph glyph-name="K" unicode="K" horiz-adv-x="833" 
d="M75 0l127 720h236l-41 -233l248 233h277l-311 -271l212 -449h-283l-122 287l-67 -59l-40 -228h-236z" />
    <glyph glyph-name="L" unicode="L" 
d="M636 0h-560l127 720h236l-97 -552h324z" />
    <glyph glyph-name="M" unicode="M" horiz-adv-x="944" 
d="M272 0h-212l127 720h285l48 -449l206 449h285l-127 -720h-212l39 220l23 112l34 130h-2l-212 -462h-164l-50 462h-2l-8 -106l-15 -112z" />
    <glyph glyph-name="N" unicode="N" horiz-adv-x="833" 
d="M417 720l188 -393l20 164l40 229h226l-127 -720h-221l-188 392l-20 -164l-40 -228h-226l127 720h221z" />
    <glyph glyph-name="O" unicode="O" horiz-adv-x="833" 
d="M513 563q-73 -1 -121 -66q-39 -53 -53 -133q-6 -36 -6 -68q0 -139 111 -139q142 0 178 207q6 30 6 58q0 143 -115 141zM546 739q158 0 243 -89q76 -81 76 -210q0 -37 -7 -76q-31 -179 -159 -283q-121 -100 -286 -100q-149 0 -233.5 77t-84.5 217q0 43 9 91
q29 169 151.5 271t290.5 102z" />
    <glyph glyph-name="P" unicode="P" horiz-adv-x="722" 
d="M362 392h98q95 0 110 84q1 7 1 14q0 62 -114 62h-67zM293 0h-236l127 720h347q134 0 203 -52q66 -49 66 -141q0 -24 -5 -50q-45 -253 -344 -253h-119z" />
    <glyph glyph-name="Q" unicode="Q" horiz-adv-x="833" 
d="M414 245l119 105l63 -78q16 36 26 92q6 32 6 60q0 66 -30 102.5t-85 36.5q-73 0 -121 -65q-39 -53 -53 -134q-6 -36 -6 -68q0 -139 111 -139q16 0 37 7zM796 24l-117 -105l-81 99q-90 -37 -185 -37q-150 0 -234 77.5t-84 216.5q0 43 9 91q29 169 151.5 271t290.5 102
q151 0 237 -85q82 -81 82 -214q0 -90 -37 -179.5t-99 -153.5z" />
    <glyph glyph-name="R" unicode="R" horiz-adv-x="778" 
d="M394 552l-25 -143h93q112 0 124 68q1 8 1 15q0 60 -83 60h-110zM413 251h-72l-44 -251h-236l127 720h340q155 0 221.5 -37.5t66.5 -117.5q0 -23 -5 -50q-25 -143 -152 -176q52 -21 69 -38q27 -26 27 -81q0 -30 -8 -72q-15 -87 -15 -102q0 -24 18 -24l-4 -22h-239
q-6 32 10 126q6 35 6 56q0 38 -23.5 53.5t-86.5 15.5z" />
    <glyph glyph-name="S" unicode="S" horiz-adv-x="722" 
d="M759 511h-224q1 34 -23.5 48t-60.5 14q-75 0 -82 -41q-7 -40 86 -66q151 -42 179 -56q99 -49 99 -143q0 -18 -4 -38q-21 -121 -127 -187q-99 -61 -253 -61q-128 0 -206 62q-73 59 -73 150q0 15 2 29h226q1 -37 28 -56t65 -19q98 0 107 53q7 40 -86 65q-147 40 -179 56
q-98 49 -98 147q0 19 4 41q19 111 119 172q93 58 233 58q142 0 211 -67q61 -59 57 -161z" />
    <glyph glyph-name="T" unicode="T" horiz-adv-x="722" 
d="M125 531l33 189h660l-33 -189h-212l-94 -531h-236l94 531h-212z" />
    <glyph glyph-name="U" unicode="U" horiz-adv-x="833" 
d="M125 314l72 406h236l-76 -431q-5 -30 -5 -50q0 -82 93 -82q110 0 133 132l76 431h236l-72 -407q-30 -173 -127.5 -252.5t-276.5 -79.5q-149 0 -221 53q-77 56 -77 182q0 44 9 98z" />
    <glyph glyph-name="V" unicode="V" horiz-adv-x="778" 
d="M268 0l-119 720h238l41 -479l216 479h238l-377 -720h-237z" />
    <glyph glyph-name="W" unicode="W" horiz-adv-x="1000" 
d="M724 720l7 -445h2l160 445h228l-306 -720h-232l-9 418h-2l-156 -418h-232l-52 720h228l2 -445h2l165 445h195z" />
    <glyph glyph-name="X" unicode="X" horiz-adv-x="778" 
d="M425 202l-152 -202h-265l321 374l-169 346h265l70 -184l135 184h265l-304 -346l179 -374h-265z" />
    <glyph glyph-name="Y" unicode="Y" horiz-adv-x="778" 
d="M554 266l-47 -266h-236l46 262l-187 458h264l81 -244l167 244h260z" />
    <glyph glyph-name="Z" unicode="Z" horiz-adv-x="722" 
d="M685 0h-649l30 171l412 381h-331l30 168h621l-29 -167l-418 -385h364z" />
    <glyph glyph-name="bracketleft" unicode="[" horiz-adv-x="389" 
d="M325 -178h-312l158 898h312l-26 -148h-129l-106 -602h129z" />
    <glyph glyph-name="backslash" unicode="\" horiz-adv-x="278" 
d="M20 720h140l225 -720h-140z" />
    <glyph glyph-name="bracketright" unicode="]" horiz-adv-x="389" 
d="M472 720l-158 -898h-312l26 148h129l106 602h-129l26 148h312z" />
    <glyph glyph-name="asciicircum" unicode="^" horiz-adv-x="660" 
d="M245 291l-95 47l246 377h120l114 -377l-113 -47l-86 279z" />
    <glyph glyph-name="underscore" unicode="_" horiz-adv-x="500" 
d="M479 -119h-500l10 58h500z" />
    <glyph glyph-name="grave" unicode="`" horiz-adv-x="333" 
d="M94 738h208l74 -148h-137z" />
    <glyph glyph-name="a" unicode="a" 
d="M634 0h-215v56q-89 -71 -210 -71q-71 0 -114 31q-48 33 -48 96q0 15 3 31q18 103 122 143q43 17 186 35q99 13 105 50q8 43 -60 43q-67 0 -82 -51h-200q31 176 317 176q134 0 188 -37q46 -32 46 -99q0 -29 -9 -81l-43 -245q-4 -19 -4 -27q0 -21 20 -40zM324 103
q101 0 115 129q-25 -11 -73.5 -21t-65.5 -19q-29 -15 -34 -45q-8 -44 58 -44z" />
    <glyph glyph-name="b" unicode="b" 
d="M383 720l-44 -249q70 68 163 68q85 0 135.5 -58t50.5 -152q0 -31 -6 -64q-22 -125 -90 -198q-75 -82 -197 -82q-114 0 -145 89h-2l-13 -74h-187l127 720h208zM363 135q88 0 109 123q4 19 4 36q0 84 -70 84q-44 0 -75 -38q-26 -32 -34 -78q-3 -20 -3 -39q0 -88 69 -88z
" />
    <glyph glyph-name="c" unicode="c" 
d="M675 324h-211q4 33 -12.5 54t-50.5 21q-91 0 -116 -143q-4 -24 -4 -43q0 -88 72 -88q70 0 95 78h210q-33 -112 -128 -169q-83 -49 -202 -49q-115 0 -184 55q-72 58 -72 161q0 27 5 56q23 131 122 208q94 74 227 74q115 0 182 -49q76 -57 67 -166z" />
    <glyph glyph-name="d" unicode="d" 
d="M619 0h-187l12 70q-80 -85 -176 -85q-97 0 -148 57q-49 54 -49 145q0 31 6 65q23 128 101 209q77 78 172 78q99 0 144 -68l44 249h208zM347 135q58 0 91 53q29 45 29 107q0 83 -71 83q-88 0 -110 -124q-4 -23 -4 -42q0 -77 65 -77z" />
    <glyph glyph-name="e" unicode="e" 
d="M296 321h189q1 7 1 14q0 32 -22.5 54.5t-54.5 22.5q-97 0 -113 -91zM674 215h-397q-2 -10 -2 -20q0 -37 24.5 -60t62.5 -23q55 0 86 46h199q-41 -90 -137 -135q-80 -38 -184 -38q-115 0 -183 55q-72 58 -72 161q0 27 5 56q23 127 121 204.5t226 77.5q123 0 191 -66.5
t68 -179.5q0 -38 -8 -78z" />
    <glyph glyph-name="f" unicode="f" horiz-adv-x="389" 
d="M378 524h87l-21 -120h-87l-71 -404h-208l71 404h-69l21 120h70q23 130 84 177q50 38 159 38h89l-23 -131q-57 0 -73 -10q-22 -15 -29 -74z" />
    <glyph glyph-name="g" unicode="g" 
d="M393 390q-82 1 -103 -119q-3 -13 -3 -25q0 -75 67 -77q53 -2 84 46q26 41 26 96q0 78 -71 79zM56 -27h209q-3 -18 17 -28q15 -8 35 -8q45 0 68.5 23t33.5 79l7 43q-67 -57 -160 -57q-90 0 -141 56q-48 53 -48 138q0 128 78 221q82 99 208 99q98 0 144 -84l12 69h183
l-74 -422q-25 -142 -76 -199q-74 -81 -249 -81q-130 0 -194 47q-56 40 -53 104z" />
    <glyph glyph-name="h" unicode="h" 
d="M48 0l127 720h208l-46 -262q78 81 173 81q170 0 170 -159q0 -30 -7 -66l-55 -314h-208l49 277q3 20 3 35q0 63 -59 63q-81 0 -100 -108l-47 -267h-208z" />
    <glyph glyph-name="i" unicode="i" horiz-adv-x="333" 
d="M270 0h-208l92 524h208zM166 591l26 148h208l-26 -148h-208z" />
    <glyph glyph-name="j" unicode="j" horiz-adv-x="333" 
d="M166 524h208l-83 -474q-21 -117 -60 -163q-55 -65 -187 -65q-40 0 -95 3l26 148q63 0 80.5 12t27.5 65zM386 591h-208l26 148h208z" />
    <glyph glyph-name="k" unicode="k" 
d="M333 186l-46 -39l-26 -147h-208l127 720h208l-63 -356l161 160h243l-229 -203l162 -321h-250z" />
    <glyph glyph-name="l" unicode="l" horiz-adv-x="333" 
d="M270 0h-208l127 720h208z" />
    <glyph glyph-name="m" unicode="m" horiz-adv-x="1000" 
d="M45 0l92 524h191l-13 -78q29 35 75 62q56 31 107 31q128 0 154 -96q86 96 198 96q168 0 168 -152q0 -34 -7 -77l-55 -310h-208l47 267q6 31 6 51q0 57 -57 57q-73 0 -93 -116l-46 -259h-208l47 267q6 31 6 51q0 57 -57 57q-73 0 -93 -116l-46 -259h-208z" />
    <glyph glyph-name="n" unicode="n" 
d="M48 0l92 524h190l-14 -82q89 97 194 97q170 0 170 -159q0 -30 -7 -66l-55 -314h-208l49 277q3 20 3 35q0 63 -59 63q-81 0 -100 -108l-47 -267h-208z" />
    <glyph glyph-name="o" unicode="o" 
d="M405 399q-48 -1 -80 -45q-26 -34 -35 -87q-5 -29 -5 -52q0 -90 70 -90q90 0 115 142q4 21 4 40q0 94 -69 92zM80 256q24 134 119 210q93 73 228 73q121 0 188.5 -58.5t67.5 -158.5q0 -26 -5 -55q-24 -138 -123 -213q-92 -69 -225 -69q-115 0 -183 54q-72 57 -72 160
q0 27 5 57z" />
    <glyph glyph-name="p" unicode="p" 
d="M136 524h187l-13 -78h2q28 45 82 71q48 22 98 22q95 0 146 -60q46 -55 46 -147q0 -32 -6 -66q-25 -143 -117 -218q-78 -63 -178 -63q-80 0 -122 67l-40 -230h-208zM358 144q42 0 72 32.5t39 86.5q4 21 4 39q0 83 -73 83q-38 0 -67 -32.5t-38 -85.5q-3 -20 -3 -38
q0 -85 66 -85z" />
    <glyph glyph-name="q" unicode="q" 
d="M459 263q4 19 4 37q0 84 -68 84q-58 0 -90 -54q-27 -45 -27 -106q0 -82 74 -82q42 0 73 41q26 35 34 80zM708 524l-123 -702h-208l40 229q-66 -66 -166 -66q-79 0 -131 55.5t-52 155.5q0 35 6 73q20 110 93 187q79 83 186 83q123 0 153 -93h2l13 78h187z" />
    <glyph glyph-name="r" unicode="r" horiz-adv-x="444" 
d="M52 0l92 524h189l-18 -106h2q64 121 182 121l27 -3l-37 -208q-41 6 -42 6q-66 0 -102 -34q-39 -36 -53 -119l-32 -181h-208z" />
    <glyph glyph-name="s" unicode="s" horiz-adv-x="611" 
d="M62 163h198q-6 -30 12 -47t49 -17q66 0 75 47q5 31 -68 48q-118 27 -140 37q-77 34 -77 106q0 14 3 29q16 91 107 137q72 36 171 36q246 0 231 -165h-189q3 51 -53 51q-59 0 -66 -37q-4 -26 71 -44q115 -27 145 -41q79 -37 79 -108q0 -13 -2 -27q-15 -85 -93 -132
q-82 -51 -222 -51q-232 0 -232 157q0 10 1 21z" />
    <glyph glyph-name="t" unicode="t" horiz-adv-x="444" 
d="M420 149l-26 -149q-75 -4 -119 -4q-94 0 -129.5 21t-35.5 78q0 32 11 90l38 219h-74l21 120h77l29 163h205l-29 -163h100l-21 -120h-100l-33 -190q-4 -19 -4 -30q0 -35 57 -35h33z" />
    <glyph glyph-name="u" unicode="u" 
d="M710 524l-92 -524h-193l14 77q-48 -53 -93.5 -72.5t-112.5 -19.5q-155 0 -155 156q0 30 6 64l56 319h208l-50 -283q-3 -21 -3 -36q0 -59 62 -59q79 0 101 126l44 252h208z" />
    <glyph glyph-name="v" unicode="v" horiz-adv-x="611" 
d="M192 0l-90 524h208l34 -331l149 331h200l-269 -524h-232z" />
    <glyph glyph-name="w" unicode="w" horiz-adv-x="944" 
d="M655 524l23 -324h2l138 324h197l-259 -524h-203l-27 307h-2l-127 -307h-203l-81 524h203l23 -324h2l138 324h176z" />
    <glyph glyph-name="x" unicode="x" 
d="M27 0l236 274l-129 250h231l43 -131l93 131h228l-223 -249l133 -275h-232l-48 150l-102 -150h-230z" />
    <glyph glyph-name="y" unicode="y" horiz-adv-x="611" 
d="M307 524l35 -323l148 323h200l-254 -489q-69 -133 -112 -167q-57 -46 -187 -46q-22 0 -54 2t-38 2l26 145q8 0 22 -1h21q75 0 75 50q0 11 -3 27l-88 477h209z" />
    <glyph glyph-name="z" unicode="z" horiz-adv-x="556" 
d="M530 0h-504l25 139l278 233h-216l26 152h472l-25 -145l-269 -227h240z" />
    <glyph glyph-name="braceleft" unicode="{" horiz-adv-x="389" 
d="M315 129l-33 -186q-4 -24 -4 -41q0 -61 58 -78v-2q-43 -3 -78 -3q-98 0 -137 25q-33 21 -33 68q0 22 9 71l31 176q5 29 5 47q0 54 -59 71v2q44 11 65.5 38t30.5 79l35 200q15 86 52 113q42 32 161 32q34 0 79 -2v-2q-46 -14 -66.5 -40.5t-29.5 -80.5l-36 -201
q-11 -61 -31 -90q-25 -35 -75 -46v-2q63 -18 63 -82q0 -26 -7 -66z" />
    <glyph glyph-name="bar" unicode="|" horiz-adv-x="278" 
d="M79 0l130 739h119l-130 -739h-119z" />
    <glyph glyph-name="braceright" unicode="}" horiz-adv-x="389" 
d="M318 165l-35 -200q-15 -86 -52 -113q-42 -32 -161 -32q-34 0 -79 2v2q46 14 66.5 40.5t29.5 80.5l36 201q10 61 31 90q25 35 75 46v2q-63 18 -63 82q0 26 7 66l33 186q4 24 4 41q0 61 -58 78v2q43 3 78 3q98 0 137 -25q33 -21 33 -68q0 -22 -9 -71l-31 -176
q-5 -29 -5 -47q0 -54 59 -71v-2q-44 -11 -65.5 -38t-30.5 -79z" />
    <glyph glyph-name="asciitilde" unicode="~" horiz-adv-x="660" 
d="M581 359v0l51 -73q-47 -59 -70 -79q-45 -38 -94 -38q-48 0 -108.5 33t-89.5 33q-30 0 -58 -28q-8 -8 -43 -54l-51 74q89 124 171 124q40 0 109 -33t89 -33q27 0 54 26z" />
    <glyph glyph-name="euro" horiz-adv-x="498" 
d="M522 633l-23 -156l-48 6q0 157 -94 157q-103 0 -161 -211h172l-21 -48h-164q-6 -24 -16 -73h147l-21 -47h-134q-6 -41 -6 -74q0 -56 21 -91q26 -43 78 -43q58 0 101 68q24 38 51 119l55 -10l-54 -188q-77 -53 -159 -53q-111 0 -166 84q-47 71 -47 188h-74l21 47h56
q3 25 12 73h-66l21 48h59q41 112 108 183q83 88 187 88q94 0 165 -67z" />
    <glyph glyph-name="exclamdown" unicode="&#xa1;" horiz-adv-x="333" 
d="M239 -193h-213l30 169l101 284h112v-284zM328 330h-207l34 194h207z" />
    <glyph glyph-name="cent" unicode="&#xa2;" 
d="M293 152l153 243q-20 9 -42 9q-47 0 -78.5 -37.5t-42.5 -99.5q-4 -26 -4 -48q0 -41 14 -67zM299 -15l-78 -132h-135l98 162q-108 53 -108 190q0 26 4 53q26 143 129 216q91 65 223 65q23 0 70 -6l72 122h133l-97 -160q73 -54 69 -167h-200l-130 -208h21q74 14 95 85h199
q-35 -118 -126 -171q-87 -51 -239 -49z" />
    <glyph glyph-name="sterling" unicode="&#xa3;" 
d="M116 -1l-53 159q57 34 82 66q31 39 33 95h-89l16 90h60q-17 43 -17 85q0 10 1 18q20 111 120 168q83 47 201 47q249 0 249 -197q0 -26 -4 -56h-190q13 96 -75 96q-37 0 -64 -23t-26 -58q2 -11 19 -64l5 -16h104l-16 -90h-92q-22 -68 -82 -109l-10 -7q4 0 20.5 2.5
t24.5 2.5q31 0 78 -10q5 -1 45 -13q25 -7 44 -7q46 0 103 46l51 -167q-31 -26 -82 -47.5t-85 -21.5q-55 0 -121 26q-78 31 -115 31t-70 -13q-13 -5 -65 -33z" />
    <glyph glyph-name="currency" unicode="&#xa4;" horiz-adv-x="660" 
d="M100 137l52 44q-18 48 -18 86q0 20 3 42q13 70 61 131l-37 43l93 80l37 -44q69 38 135 38q73 0 128 -38l51 44l63 -80l-51 -43q19 -42 19 -87q0 -98 -65 -172l36 -44l-91 -79l-36 44q-72 -39 -136 -39q-74 0 -127 39l-52 -44zM363 187q57 0 102 44t45 100q0 43 -29 72.5
t-75 29.5q-56 0 -101 -44t-45 -100q0 -43 28.5 -72.5t74.5 -29.5z" />
    <glyph glyph-name="yen" unicode="&#xa5;" 
d="M420 476l148 244h227l-164 -240h122l-17 -95h-173l-66 -95h222l-17 -95h-231l-34 -195h-208l34 195h-230l17 95h222l-32 95h-173l17 95h123l-81 240h231z" />
    <glyph glyph-name="brokenbar" unicode="&#xa6;" horiz-adv-x="278" 
d="M250 296l-52 -296h-119l52 296h119zM157 443l52 296h119l-52 -296h-119z" />
    <glyph glyph-name="section" unicode="&#xa7;" 
d="M305 260l129 -61q21 3 40.5 18.5t22.5 33.5q6 31 -24 45l-142 69q-57 -17 -63 -54q-6 -31 37 -51zM654 548h-157q1 11 1 21q0 54 -55 54q-67 0 -75 -45q-7 -38 64 -67q123 -51 138 -60q76 -49 76 -131q0 -18 -3 -38q-19 -104 -124 -148q49 -44 49 -105q0 -14 -3 -29
q-13 -74 -87.5 -122.5t-167.5 -48.5q-92 0 -145 37q-60 41 -60 122q0 16 3 34h155q-7 -77 60 -77q74 0 83 48q6 37 -67 64q-121 43 -141 56q-78 47 -78 132q0 20 3 41q10 52 47 92q35 36 82 52q-47 44 -47 106q0 16 3 33q15 86 96 131q68 39 163 39q88 0 138 -42
q54 -45 49 -129q2 -9 0 -20z" />
    <glyph glyph-name="dieresis" unicode="&#xa8;" horiz-adv-x="333" 
d="M304 596l23 130h169l-23 -130h-169zM245 596h-169l23 130h169z" />
    <glyph glyph-name="copyright" unicode="&#xa9;" horiz-adv-x="800" 
d="M397 -19q-140 0 -229.5 88.5t-89.5 223.5q0 33 6 67q28 158 158 268.5t288 110.5q140 0 229 -89t89 -223q0 -33 -6 -67q-27 -157 -157.5 -268t-287.5 -111zM413 71q121 0 214 81t115 208q6 31 6 60q0 103 -63.5 166t-170.5 63q-123 0 -215 -81t-115 -208q-5 -31 -5 -61
q0 -103 63 -165.5t171 -62.5zM670 439h-86q0 69 -81 69q-63 0 -104 -58q-37 -52 -37 -118q0 -48 24 -81t68 -33q36 0 66 20.5t38 53.5h86q-19 -67 -76.5 -107t-125.5 -40q-82 0 -129 48.5t-47 125.5q0 21 4 44q17 96 84.5 157.5t162.5 61.5q69 0 111 -38.5t42 -104.5z" />
    <glyph glyph-name="ordfeminine" unicode="&#xaa;" horiz-adv-x="400" 
d="M58 262l12 65h386l-12 -65h-386zM471 416h-139l-1 34q-57 -43 -135 -43q-47 0 -75 19q-32 20 -32 58q0 9 2 18q10 62 78 86q27 10 120 21q65 8 69 30q4 25 -40 25q-43 0 -53 -30h-130q18 105 204 105q88 0 124 -23q30 -19 30 -60q0 -18 -6 -47l-26 -147q-4 -26 12 -37z
M269 478q66 0 74 77q-34 -8 -68 -17q-45 -12 -49 -34q-5 -26 43 -26z" />
    <glyph glyph-name="guillemotleft" unicode="&#xab;" 
d="M314 64l-162 118l26 146l204 120l-23 -131l-113 -65l91 -59zM558 64l-162 118l26 146l204 120l-23 -131l-113 -65l91 -59z" />
    <glyph glyph-name="logicalnot" unicode="&#xac;" horiz-adv-x="660" 
d="M487 120l31 176h-388l21 116h504l-52 -292h-116z" />
    <glyph glyph-name="sfthyphen" unicode="&#xad;" horiz-adv-x="338" 
d="M8 174l33 122h246l-33 -122h-246z" />
    <glyph glyph-name="registered" unicode="&#xae;" horiz-adv-x="800" 
d="M397 -19q-140 0 -229 89t-89 223q0 33 5 67q28 157 158 268t288 111q139 0 228.5 -89.5t89.5 -223.5q0 -33 -6 -66q-27 -157 -158 -268t-287 -111zM413 71q121 0 214 81t115 208q6 31 6 60q0 103 -63.5 166t-170.5 63q-123 0 -215 -81t-115 -208q-5 -31 -5 -61
q0 -103 63 -165.5t171 -62.5zM547 327l68 -173h-99l-60 173h-68l-31 -173h-86l72 409h198q73 0 105 -19q36 -22 36 -71q0 -16 -4 -35q-18 -103 -131 -111zM398 388h113q78 0 89 61q1 6 1 11q0 28 -31 36q-15 4 -59 4h-93z" />
    <glyph glyph-name="macron" unicode="&#xaf;" horiz-adv-x="333" 
d="M467 619h-377l16 90h377z" />
    <glyph glyph-name="macron" unicode="&#x2c9;" horiz-adv-x="333" 
d="M467 619h-377l16 90h377z" />
    <glyph glyph-name="degree" unicode="&#xb0;" horiz-adv-x="400" 
d="M273 415q-55 0 -90.5 35.5t-35.5 88.5q0 69 55 122.5t124 53.5q55 0 90.5 -35.5t35.5 -88.5q0 -69 -55 -122.5t-124 -53.5zM371 575q0 26 -17 43.5t-44 17.5q-34 0 -58.5 -26.5t-24.5 -60.5q0 -55 59 -55q35 0 60 23.5t25 57.5z" />
    <glyph glyph-name="plusminus" unicode="&#xb1;" horiz-adv-x="660" 
d="M350 442l28 161h116l-28 -161h194l-21 -116h-194l-29 -168h-116l29 168h-194l21 116h194zM78 0l20 116h504l-20 -116h-504z" />
    <glyph glyph-name="twosuperior" unicode="&#xb2;" horiz-adv-x="400" 
d="M253 412h213l-18 -102h-386q8 65 76 120q24 20 143 88q77 44 84 85q4 19 -10.5 30.5t-36.5 11.5q-67 0 -82 -81h-121q34 175 225 175q71 0 114 -26q49 -29 49 -85q0 -13 -3 -26q-8 -49 -53 -84q-23 -19 -93 -55q-37 -17 -101 -51z" />
    <glyph glyph-name="threesuperior" unicode="&#xb3;" horiz-adv-x="400" 
d="M82 433h128q-14 -62 54 -62q60 0 69 49q6 31 -23 41q-15 6 -53 6l13 73q79 -5 88 44q6 37 -47 37t-66 -45h-122q15 69 76 106q55 33 133 33q74 0 115.5 -26.5t41.5 -72.5q0 -73 -70 -103q52 -20 52 -71q0 -8 -1 -17q-13 -72 -74 -110t-155 -38q-74 0 -118 31.5t-44 91.5
q0 16 3 33z" />
    <glyph glyph-name="acute" unicode="&#xb4;" horiz-adv-x="333" 
d="M170 590l126 148h209l-198 -148h-137z" />
    <glyph glyph-name="mu" unicode="&#xb5;" 
d="M618 0h-193l14 77q-85 -94 -185 -89l-29 -166h-208l123 702h208l-50 -283q-3 -21 -3 -36q0 -59 62 -59q79 0 101 126l44 252h208z" />
    <glyph glyph-name="mu" unicode="&#x3bc;" 
d="M618 0h-193l14 77q-85 -94 -185 -89l-29 -166h-208l123 702h208l-50 -283q-3 -21 -3 -36q0 -59 62 -59q79 0 101 126l44 252h208z" />
    <glyph glyph-name="paragraph" unicode="&#xb6;" horiz-adv-x="850" 
d="M508 556l-129 -734h-164l96 549q-76 0 -120.5 36t-44.5 100q0 17 4 35q17 100 95 143q64 35 181 35h408l-29 -164h-50l-129 -734h-164l129 734h-83z" />
    <glyph glyph-name="ch270" unicode="&#xb7;" horiz-adv-x="249" 
d="M38 348q0 34 23 57t57 23t57.5 -23t23.5 -57t-23.5 -57.5t-57.5 -23.5t-57 23.5t-23 57.5z" />
    <glyph glyph-name="ch270" unicode="&#x2219;" horiz-adv-x="249" 
d="M38 348q0 34 23 57t57 23t57.5 -23t23.5 -57t-23.5 -57.5t-57.5 -23.5t-57 23.5t-23 57.5z" />
    <glyph glyph-name="cedilla" unicode="&#xb8;" horiz-adv-x="333" 
d="M-8 -204l29 46q20 -6 41.5 -13t40.5 -7q25 0 42 11t17 29q0 32 -39 32q-17 0 -39 -10l-21 24l71 92h58l-50 -64q16 6 60 2q25 -2 43.5 -20t18.5 -43q0 -14 -7 -29q-17 -37 -60 -59q-37 -19 -79 -19q-54 0 -126 28z" />
    <glyph glyph-name="onesuperior" unicode="&#xb9;" horiz-adv-x="400" 
d="M451 739l-75 -429h-135l43 247h-106l15 85q119 2 155 97h103z" />
    <glyph glyph-name="ordmasculine" unicode="&#xba;" horiz-adv-x="400" 
d="M316 655q-37 -1 -58 -37q-18 -30 -18 -70q0 -57 47 -57q59 0 74 85q2 11 2 22q0 58 -47 57zM107 570q14 80 74 124.5t148 44.5q80 0 124.5 -35.5t44.5 -96.5q0 -15 -2 -31q-15 -83 -79 -128q-59 -41 -145 -41q-76 0 -122 34t-46 97q0 15 3 32zM430 262h-368l12 65h368z
" />
    <glyph glyph-name="guillemotright" unicode="&#xbb;" 
d="M443 448l162 -118l-26 -146l-204 -120l23 131l113 65l-91 59zM199 448l162 -118l-26 -146l-204 -120l23 131l113 65l-91 59z" />
    <glyph glyph-name="onequarter" unicode="&#xbc;" horiz-adv-x="1000" 
d="M411 739l-75 -429h-135l43 247h-106l15 85q119 2 155 97h103zM579 88l17 100l256 235h126l-43 -242h57l-16 -93h-57l-16 -88h-129l16 88h-211zM829 310l-132 -129h109zM328 -15h-98l532 730h98z" />
    <glyph glyph-name="onehalf" unicode="&#xbd;" horiz-adv-x="1000" 
d="M411 739l-75 -429h-135l43 247h-106l15 85q119 2 155 97h103zM764 102h213l-18 -102h-386q9 65 76 120q24 20 143 88q77 44 85 85q3 19 -11.5 30.5t-36.5 11.5q-67 0 -81 -81h-121q33 175 225 175q70 0 113 -26q49 -29 49 -85q0 -13 -3 -26q-8 -49 -53 -84
q-23 -19 -93 -55q-37 -17 -101 -51zM288 -15h-98l532 730h98z" />
    <glyph glyph-name="threequarters" unicode="&#xbe;" horiz-adv-x="1000" 
d="M579 88l17 100l256 235h126l-43 -242h57l-16 -93h-57l-16 -88h-129l16 88h-211zM829 310l-132 -129h109zM368 -15h-98l532 730h98zM116 433h128q-14 -62 54 -62q60 0 69 49q6 31 -23 41q-15 6 -53 6l13 73q79 -5 88 44q6 37 -47 37t-66 -45h-122q15 69 76 106
q55 33 133 33q74 0 115.5 -26.5t41.5 -72.5q0 -73 -70 -103q52 -20 52 -71q0 -8 -1 -17q-13 -72 -74 -110t-155 -38q-74 0 -118 31.5t-44 91.5q0 16 3 33z" />
    <glyph glyph-name="questiondown" unicode="&#xbf;" horiz-adv-x="611" 
d="M269 254h184q-11 -101 -63 -149q-22 -20 -94 -52q-52 -23 -59 -61q-2 -6 -2 -12q0 -46 65 -46q67 0 80 83h207q-26 -114 -121 -177q-86 -56 -204 -56q-107 0 -172 43t-65 124q0 18 3 37q13 73 75 118q55 30 110 62.5t56 85.5zM476 329h-206l34 195h206z" />
    <glyph glyph-name="Agrave" unicode="&#xc0;" horiz-adv-x="778" 
d="M548 790h-77l-172 117v51h133zM767 0h-235l-11 95h-235l-44 -95h-231l385 720h240zM506 245l-30 258l-119 -258h149z" />
    <glyph glyph-name="Aacute" unicode="&#xc1;" horiz-adv-x="778" 
d="M506 245l-30 258l-119 -258h149zM242 0h-231l385 720h240l131 -720h-235l-11 95h-235zM731 907l-182 -117h-77l126 168h133v-51z" />
    <glyph glyph-name="Acircumflex" unicode="&#xc2;" horiz-adv-x="778" 
d="M506 245l-30 258l-119 -258h149zM242 0h-231l385 720h240l131 -720h-235l-11 95h-235zM294 760l167 128h124l116 -128h-128l-63 60l-89 -60h-127z" />
    <glyph glyph-name="Atilde" unicode="&#xc3;" horiz-adv-x="778" 
d="M506 245l-30 258l-119 -258h149zM242 0h-231l385 720h240l131 -720h-235l-11 95h-235zM648 901l67 -2q-97 -112 -185 -109q-24 1 -58 18t-44 17q-22 0 -59 -34l-66 2q37 45 83 77q58 39 104 38q29 -1 85 -33q7 -3 15 -3q31 0 58 29z" />
    <glyph glyph-name="Adieresis" unicode="&#xc4;" horiz-adv-x="778" 
d="M506 245l-30 258l-119 -258h149zM242 0h-231l385 720h240l131 -720h-235l-11 95h-235zM562 792l23 130h169l-23 -130h-169zM503 792h-169l23 130h169z" />
    <glyph glyph-name="Aring" unicode="&#xc5;" horiz-adv-x="778" 
d="M506 245l-30 258l-119 -258h149zM242 0h-231l385 720h240l131 -720h-235l-11 95h-235zM530 789q-41 0 -68 26.5t-27 66.5q0 51 41 91t93 40q41 0 67.5 -27t26.5 -66q0 -51 -41 -91t-92 -40zM558 953q-21 0 -39.5 -15.5t-22.5 -36.5q-3 -21 10 -36.5t34 -15.5t39.5 16
t21.5 36q4 20 -9 36t-34 16z" />
    <glyph glyph-name="AE" unicode="&#xc6;" horiz-adv-x="1000" 
d="M492 552l-138 -298h150l52 298h-64zM459 0l18 104h-194l-49 -104h-231l367 720h724l-30 -168h-292l-18 -103h241l-29 -168h-241l-20 -113h306l-30 -168h-522z" />
    <glyph glyph-name="Ccedilla" unicode="&#xc7;" horiz-adv-x="778" 
d="M821 445h-224q5 56 -23 87t-84 31q-133 0 -170 -210q-7 -43 -7 -75q0 -121 115 -121q105 0 142 122h227q-40 -139 -146.5 -218.5t-249.5 -79.5q-154 0 -238.5 77.5t-84.5 214.5q0 42 8 88q30 171 153 276q118 102 272 102t233 -68.5t79 -194.5q0 -15 -2 -31zM215 -204
l29 46q20 -6 41.5 -13t40.5 -7q25 0 42 11t17 29q0 32 -39 32q-17 0 -39 -10l-21 24l71 92h58l-50 -64q16 6 60 2q25 -2 43.5 -20t18.5 -43q0 -14 -7 -29q-17 -37 -60 -59q-37 -19 -79 -19q-54 0 -126 28z" />
    <glyph glyph-name="Egrave" unicode="&#xc8;" horiz-adv-x="722" 
d="M677 0h-601l127 720h587l-30 -168h-351l-18 -103h297l-29 -168h-297l-20 -113h365zM531 790h-77l-172 117v51h133z" />
    <glyph glyph-name="Eacute" unicode="&#xc9;" horiz-adv-x="722" 
d="M677 0h-601l127 720h587l-30 -168h-351l-18 -103h297l-29 -168h-297l-20 -113h365zM714 907l-182 -117h-77l126 168h133v-51z" />
    <glyph glyph-name="Ecircumflex" unicode="&#xca;" horiz-adv-x="722" 
d="M677 0h-601l127 720h587l-30 -168h-351l-18 -103h297l-29 -168h-297l-20 -113h365zM290 770l167 128h124l116 -128h-128l-63 60l-89 -60h-127z" />
    <glyph glyph-name="Edieresis" unicode="&#xcb;" horiz-adv-x="722" 
d="M677 0h-601l127 720h587l-30 -168h-351l-18 -103h297l-29 -168h-297l-20 -113h365zM534 792l23 130h169l-23 -130h-169zM475 792h-169l23 130h169z" />
    <glyph glyph-name="Igrave" unicode="&#xcc;" horiz-adv-x="389" 
d="M312 0h-236l127 720h236zM359 790h-77l-172 117v51h133z" />
    <glyph glyph-name="Iacute" unicode="&#xcd;" horiz-adv-x="389" 
d="M312 0h-236l127 720h236zM541 907l-182 -117h-77l126 168h133v-51z" />
    <glyph glyph-name="Icircumflex" unicode="&#xce;" horiz-adv-x="389" 
d="M312 0h-236l127 720h236zM133 786l147 148h164l96 -148h-148l-43 76l-69 -76h-147z" />
    <glyph glyph-name="Idieresis" unicode="&#xcf;" horiz-adv-x="389" 
d="M312 0h-236l127 720h236zM367 792l23 130h169l-23 -130h-169zM308 792h-169l23 130h169z" />
    <glyph glyph-name="Eth" unicode="&#xd0;" horiz-adv-x="778" 
d="M398 552l-13 -75h85l-35 -198h-85l-19 -111h50q170 0 204 194q7 43 7 74q0 65 -36 92q-33 24 -113 24h-45zM149 477l43 243h316q323 0 323 -260q0 -40 -8 -85q-66 -375 -448 -375h-310l49 279h-65l35 198h65z" />
    <glyph glyph-name="Ntilde" unicode="&#xd1;" horiz-adv-x="833" 
d="M417 720l188 -393l20 164l40 229h226l-127 -720h-221l-188 392l-20 -164l-40 -228h-226l127 720h221zM699 925v0h80q-43 -133 -149 -133q-33 0 -77.5 18.5t-61.5 18.5q-28 0 -50 -43h-79q17 56 53 95q42 46 95 46q30 0 60 -11.5t59 -23.5q9 -3 18 -3q40 0 52 36z" />
    <glyph glyph-name="Ograve" unicode="&#xd2;" horiz-adv-x="833" 
d="M513 563q-73 -1 -121 -66q-39 -53 -53 -133q-6 -35 -6 -68q0 -139 111 -139q142 0 178 207q5 29 5 59q0 142 -114 140zM546 739q145 0 230 -76q89 -80 89 -223q0 -37 -7 -76q-31 -171 -150 -276q-122 -107 -295 -107q-146 0 -229 73q-88 77 -88 221q0 45 8 91
q29 168 150 270.5t292 102.5zM597 810h-77l-172 117v51h133z" />
    <glyph glyph-name="Oacute" unicode="&#xd3;" horiz-adv-x="833" 
d="M513 563q-73 -1 -121 -66q-39 -53 -53 -133q-6 -35 -6 -68q0 -139 111 -139q142 0 178 207q5 29 5 59q0 142 -114 140zM546 739q145 0 230 -76q89 -80 89 -223q0 -37 -7 -76q-31 -171 -150 -276q-122 -107 -295 -107q-146 0 -229 73q-88 77 -88 221q0 45 8 91
q29 168 150 270.5t292 102.5zM767 927l-182 -117h-77l126 168h133v-51z" />
    <glyph glyph-name="Ocircumflex" unicode="&#xd4;" horiz-adv-x="833" 
d="M513 563q-73 -1 -121 -66q-39 -53 -53 -133q-6 -35 -6 -68q0 -139 111 -139q142 0 178 207q5 29 5 59q0 142 -114 140zM546 739q145 0 230 -76q89 -80 89 -223q0 -37 -7 -76q-31 -171 -150 -276q-122 -107 -295 -107q-146 0 -229 73q-88 77 -88 221q0 45 8 91
q29 168 150 270.5t292 102.5zM342 770l167 128h124l116 -128h-128l-63 60l-89 -60h-127z" />
    <glyph glyph-name="Otilde" unicode="&#xd5;" horiz-adv-x="833" 
d="M513 563q-73 -1 -121 -66q-39 -53 -53 -133q-6 -35 -6 -68q0 -139 111 -139q142 0 178 207q5 29 5 59q0 142 -114 140zM546 739q145 0 230 -76q89 -80 89 -223q0 -37 -7 -76q-31 -171 -150 -276q-122 -107 -295 -107q-146 0 -229 73q-88 77 -88 221q0 45 8 91
q29 168 150 270.5t292 102.5zM707 921l67 -2q-97 -112 -185 -109q-24 1 -58 18t-44 17q-22 0 -59 -34l-66 2q37 45 83 77q58 39 104 38q29 -1 85 -33q7 -3 15 -3q31 0 58 29z" />
    <glyph glyph-name="Odieresis" unicode="&#xd6;" horiz-adv-x="833" 
d="M513 563q-73 -1 -121 -66q-39 -53 -53 -133q-6 -36 -6 -68q0 -139 111 -139q142 0 178 207q6 30 6 58q0 143 -115 141zM546 739q158 0 243 -89q76 -81 76 -210q0 -37 -7 -76q-31 -179 -159 -283q-121 -100 -286 -100q-149 0 -233.5 77t-84.5 217q0 43 9 91
q29 169 151.5 271t290.5 102zM589 792l23 130h169l-23 -130h-169zM530 792h-169l23 130h169z" />
    <glyph glyph-name="multiply" unicode="&#xd7;" horiz-adv-x="660" 
d="M360 172l-199 -169l-67 80l200 170l-140 170l95 82l140 -170l199 170l68 -82l-200 -169l140 -170l-96 -81z" />
    <glyph glyph-name="Oslash" unicode="&#xd8;" horiz-adv-x="833" 
d="M335 254l255 282q-27 27 -77 27q-73 0 -121 -65q-39 -53 -53 -134q-13 -73 -4 -110zM626 456l-251 -277q28 -22 69 -22q68 0 116 59q46 55 62 148q10 58 4 92zM879 733l-84 -92q69 -70 69 -207q0 -35 -6 -70q-31 -180 -158 -284q-121 -99 -287 -99q-113 0 -181 41
l-88 -98l-65 48l90 99q-74 76 -74 202q0 43 9 93q29 169 151.5 271t290.5 102q106 0 185 -46l82 91z" />
    <glyph glyph-name="Ugrave" unicode="&#xd9;" horiz-adv-x="833" 
d="M125 314l72 406h236l-76 -431q-5 -28 -5 -50q0 -82 93 -82q110 0 133 132l76 431h236l-72 -407q-31 -173 -129 -252.5t-275 -79.5q-140 0 -211 47q-88 56 -88 188q0 42 10 98zM596 770h-77l-172 117v51h133z" />
    <glyph glyph-name="Uacute" unicode="&#xda;" horiz-adv-x="833" 
d="M125 314l72 406h236l-76 -431q-5 -28 -5 -50q0 -82 93 -82q110 0 133 132l76 431h236l-72 -407q-31 -173 -129 -252.5t-275 -79.5q-140 0 -211 47q-88 56 -88 188q0 42 10 98zM766 887l-182 -117h-77l126 168h133v-51z" />
    <glyph glyph-name="Ucircumflex" unicode="&#xdb;" horiz-adv-x="833" 
d="M125 314l72 406h236l-76 -431q-5 -30 -5 -50q0 -82 93 -82q110 0 133 132l76 431h236l-72 -407q-30 -173 -127.5 -252.5t-276.5 -79.5q-149 0 -221 53q-77 56 -77 182q0 44 9 98zM355 786l147 148h164l96 -148h-148l-43 76l-69 -76h-147z" />
    <glyph glyph-name="Udieresis" unicode="&#xdc;" horiz-adv-x="833" 
d="M125 314l72 406h236l-76 -431q-5 -30 -5 -50q0 -82 93 -82q110 0 133 132l76 431h236l-72 -407q-30 -173 -127.5 -252.5t-276.5 -79.5q-149 0 -221 53q-77 56 -77 182q0 44 9 98zM589 792l23 130h169l-23 -130h-169zM530 792h-169l23 130h169z" />
    <glyph glyph-name="Yacute" unicode="&#xdd;" horiz-adv-x="778" 
d="M554 266l-47 -266h-236l46 262l-187 458h264l81 -244l167 244h260zM738 877l-182 -117h-77l126 168h133v-51z" />
    <glyph glyph-name="Thorn" unicode="&#xde;" horiz-adv-x="722" 
d="M344 292h98q95 0 110 84q2 7 2 14q0 62 -114 62h-67zM293 0h-236l127 720h236l-18 -100h111q134 0 203 -52q66 -49 66 -141q0 -24 -5 -50q-44 -253 -343 -253h-119z" />
    <glyph glyph-name="germandbls" unicode="&#xdf;" 
d="M371 338l20 114q78 -2 91 72q2 10 2 19q0 56 -56 56q-45 0 -64 -32q-11 -18 -21 -71l-87 -496h-208l86 489q44 250 320 250q105 0 168 -40t63 -115q0 -15 -3 -32q-17 -100 -114 -142q102 -41 102 -140q0 -24 -5 -54q-19 -109 -100 -172q-75 -59 -173 -59q-42 0 -84 9
l23 129q16 -3 30 -3q79 0 98 106q4 21 4 37q0 77 -92 75z" />
    <glyph glyph-name="agrave" unicode="&#xe0;" 
d="M634 0h-215v56q-89 -71 -210 -71q-68 0 -111 29q-51 34 -51 98q0 14 3 31q18 103 122 143q43 17 186 35q98 13 105 50q8 43 -60 43q-67 0 -82 -51h-200q32 176 317 176q104 0 154 -20q80 -31 80 -116q0 -30 -9 -81l-43 -245q-3 -17 -3 -28q0 -21 19 -39zM324 103
q101 0 115 129q-21 -9 -69.5 -19t-69.5 -21q-29 -15 -34 -45q-8 -44 58 -44zM473 623h-70l-144 105v46h109z" />
    <glyph glyph-name="aacute" unicode="&#xe1;" 
d="M634 0h-215v56q-89 -71 -210 -71q-68 0 -111 29q-51 34 -51 98q0 14 3 31q18 103 122 143q43 17 186 35q98 13 105 50q8 43 -60 43q-67 0 -82 -51h-200q32 176 317 176q104 0 154 -20q80 -31 80 -116q0 -30 -9 -81l-43 -245q-3 -17 -3 -28q0 -21 19 -39zM324 103
q101 0 115 129q-21 -9 -69.5 -19t-69.5 -21q-29 -15 -34 -45q-8 -44 58 -44zM637 729l-163 -105h-70l114 151h119v-46z" />
    <glyph glyph-name="acircumflex" unicode="&#xe2;" 
d="M634 0h-215v56q-89 -71 -210 -71q-68 0 -111 29q-51 34 -51 98q0 14 3 31q18 103 122 143q43 17 186 35q98 13 105 50q8 43 -60 43q-67 0 -82 -51h-200q32 176 317 176q104 0 154 -20q80 -31 80 -116q0 -30 -9 -81l-43 -245q-3 -17 -3 -28q0 -21 19 -39zM324 103
q101 0 115 129q-21 -9 -69.5 -19t-69.5 -21q-29 -15 -34 -45q-8 -44 58 -44zM267 576l150 115h111l105 -115h-115l-57 54l-80 -54h-114z" />
    <glyph glyph-name="atilde" unicode="&#xe3;" 
d="M634 0h-215v56q-89 -71 -210 -71q-68 0 -111 29q-51 34 -51 98q0 14 3 31q18 103 122 143q43 17 186 35q98 13 105 50q8 43 -60 43q-67 0 -82 -51h-200q32 176 317 176q104 0 154 -20q80 -31 80 -116q0 -30 -9 -81l-43 -245q-3 -17 -3 -28q0 -21 19 -39zM324 103
q101 0 115 129q-21 -9 -69.5 -19t-69.5 -21q-29 -15 -34 -45q-8 -44 58 -44zM592 724l61 -2q-88 -101 -167 -98q-22 1 -52 16.5t-39 15.5q-20 0 -54 -31l-59 2q33 39 75 68q52 36 93 35q22 0 77 -29q6 -3 13 -3q28 0 52 26z" />
    <glyph glyph-name="adieresis" unicode="&#xe4;" 
d="M634 0h-215v56q-89 -71 -210 -71q-71 0 -114 31q-48 33 -48 96q0 15 3 31q18 103 122 143q43 17 186 35q99 13 105 50q8 43 -60 43q-67 0 -82 -51h-200q31 176 317 176q134 0 188 -37q46 -32 46 -99q0 -29 -9 -81l-43 -245q-4 -19 -4 -27q0 -21 20 -40zM324 103
q101 0 115 129q-25 -11 -73.5 -21t-65.5 -19q-29 -15 -34 -45q-8 -44 58 -44zM471 596l23 130h169l-23 -130h-169zM412 596h-169l23 130h169z" />
    <glyph glyph-name="aring" unicode="&#xe5;" 
d="M634 0h-215v56q-89 -71 -210 -71q-71 0 -114 31q-48 33 -48 96q0 15 3 31q18 103 122 143q43 17 186 35q99 13 105 50q8 43 -60 43q-67 0 -82 -51h-200q31 176 317 176q134 0 188 -37q46 -32 46 -99q0 -29 -9 -81l-43 -245q-4 -19 -4 -27q0 -21 20 -40zM324 103
q101 0 115 129q-25 -11 -73.5 -21t-65.5 -19q-29 -15 -34 -45q-8 -44 58 -44zM439 593q-41 0 -68 26.5t-27 66.5q0 51 41 91t93 40q41 0 67.5 -27t26.5 -66q0 -51 -41 -91t-92 -40zM467 757q-21 0 -39.5 -15.5t-22.5 -36.5q-3 -21 10 -36.5t34 -15.5t39.5 16t21.5 36
q4 20 -9 36t-34 16z" />
    <glyph glyph-name="ae" unicode="&#xe6;" horiz-adv-x="1000" 
d="M350 206q-70 -14 -77 -54q-4 -23 11 -36t38 -13q112 0 125 131q-30 -14 -97 -28zM635 321h180q1 9 1 18q0 73 -74 73q-82 0 -107 -91zM340 317l52 6q74 9 81 45q5 28 -15 37q-15 7 -55 7q-64 0 -79 -50h-195q19 86 105 134q77 43 180 43q131 0 187 -57q73 57 178 57
q111 0 171 -69q55 -63 55 -165q0 -44 -11 -90h-377q-3 -15 -3 -29q0 -74 76 -74q65 0 90 44h189q-46 -93 -126 -134q-73 -37 -190 -37q-116 0 -160 72q-110 -72 -239 -72q-193 0 -193 128q0 15 3 33q16 90 104 132q56 26 172 39z" />
    <glyph glyph-name="ccedilla" unicode="&#xe7;" 
d="M675 324h-211q4 33 -12.5 54t-50.5 21q-91 0 -116 -143q-4 -24 -4 -43q0 -88 72 -88q70 0 95 78h210q-33 -112 -128 -169q-83 -49 -202 -49q-115 0 -184 55q-72 58 -72 161q0 27 5 56q23 131 122 208q94 74 227 74q115 0 182 -49q76 -57 67 -166zM159 -204l29 46
q20 -6 41.5 -13t40.5 -7q25 0 42 11t17 29q0 32 -39 32q-17 0 -39 -10l-21 24l71 92h58l-50 -64q16 6 60 2q25 -2 43.5 -20t18.5 -43q0 -14 -7 -29q-17 -37 -60 -59q-37 -19 -79 -19q-54 0 -126 28z" />
    <glyph glyph-name="egrave" unicode="&#xe8;" 
d="M296 321h189q1 7 1 14q0 33 -22 55t-55 22q-45 0 -75.5 -24t-37.5 -67zM674 215h-397q-2 -10 -2 -20q0 -37 25 -60t62 -23q55 0 86 46h199q-40 -88 -133 -133q-82 -40 -188 -40q-111 0 -179 52q-76 57 -76 164q0 28 5 56q23 127 120 204.5t227 77.5q119 0 189 -64.5
t70 -182.5q0 -37 -8 -77zM458 624h-70l-144 105v46h109z" />
    <glyph glyph-name="eacute" unicode="&#xe9;" 
d="M296 321h189q1 7 1 14q0 33 -22 55t-55 22q-45 0 -75.5 -24t-37.5 -67zM674 215h-397q-2 -10 -2 -20q0 -37 25 -60t62 -23q55 0 86 46h199q-40 -88 -133 -133q-82 -40 -188 -40q-111 0 -179 52q-76 57 -76 164q0 28 5 56q23 127 120 204.5t227 77.5q119 0 189 -64.5
t70 -182.5q0 -37 -8 -77zM623 729l-163 -105h-70l114 151h119v-46z" />
    <glyph glyph-name="ecircumflex" unicode="&#xea;" 
d="M296 321h189q1 7 1 14q0 33 -22 55t-55 22q-45 0 -75.5 -24t-37.5 -67zM674 215h-397q-2 -10 -2 -20q0 -37 25 -60t62 -23q55 0 86 46h199q-40 -88 -133 -133q-82 -40 -188 -40q-111 0 -179 52q-76 57 -76 164q0 28 5 56q23 127 120 204.5t227 77.5q119 0 189 -64.5
t70 -182.5q0 -37 -8 -77zM238 576l150 115h111l105 -115h-115l-57 54l-80 -54h-114z" />
    <glyph glyph-name="edieresis" unicode="&#xeb;" 
d="M296 321h189q1 7 1 14q0 32 -22.5 54.5t-54.5 22.5q-97 0 -113 -91zM674 215h-397q-2 -10 -2 -20q0 -37 24.5 -60t62.5 -23q55 0 86 46h199q-41 -90 -137 -135q-80 -38 -184 -38q-115 0 -183 55q-72 58 -72 161q0 27 5 56q23 127 121 204.5t226 77.5q123 0 191 -66.5
t68 -179.5q0 -38 -8 -78zM471 596l23 130h169l-23 -130h-169zM412 596h-169l23 130h169z" />
    <glyph glyph-name="igrave" unicode="&#xec;" horiz-adv-x="333" 
d="M270 0h-208l92 524h208zM291 600h-70l-129 105v46h94z" />
    <glyph glyph-name="iacute" unicode="&#xed;" horiz-adv-x="333" 
d="M270 0h-208l92 524h208zM456 705l-163 -105h-70l114 151h119v-46z" />
    <glyph glyph-name="icircumflex" unicode="&#xee;" horiz-adv-x="333" 
d="M270 0h-208l92 524h208zM70 590l147 148h164l96 -148h-148l-43 76l-69 -76h-147z" />
    <glyph glyph-name="idieresis" unicode="&#xef;" horiz-adv-x="333" 
d="M270 0h-208l92 524h208zM304 596l23 130h169l-23 -130h-169zM245 596h-169l23 130h169z" />
    <glyph glyph-name="eth" unicode="&#xf0;" 
d="M405 399q-48 -1 -80 -45q-26 -34 -35 -87q-5 -29 -5 -52q0 -90 70 -90q90 0 115 142q4 21 4 40q0 94 -69 92zM487 689l108 45l29 -37l-111 -46q39 -42 68 -91q34 -58 69 -116q33 -64 33 -126q0 -25 -5 -51q-24 -138 -123 -213q-92 -69 -225 -69q-115 0 -183 54
q-72 57 -72 160q0 27 5 57q23 132 126 214q90 72 190 72q-8 19 -26 50l-110 -44l-27 35l109 45q-17 29 -52 59l132 52q24 -12 65 -50z" />
    <glyph glyph-name="ntilde" unicode="&#xf1;" 
d="M48 0l92 524h190l-14 -82q89 97 194 97q170 0 170 -159q0 -30 -7 -66l-55 -314h-208l49 277q3 20 3 35q0 63 -59 63q-81 0 -100 -108l-47 -267h-208zM581 729v0h80q-43 -133 -149 -133q-33 0 -77.5 18.5t-61.5 18.5q-28 0 -50 -43h-79q17 56 53 95q42 46 95 46
q30 0 60 -11.5t59 -23.5q9 -3 18 -3q40 0 52 36z" />
    <glyph glyph-name="ograve" unicode="&#xf2;" 
d="M405 399q-48 -1 -80 -45q-26 -36 -35 -87q-5 -29 -5 -51q0 -91 70 -91q90 0 115 142q4 22 4 41q0 93 -69 91zM80 256q23 134 118 209q92 74 229 74q112 0 180 -51q76 -57 76 -165q0 -28 -5 -56q-24 -134 -117.5 -208t-230.5 -74q-112 0 -179 50q-76 56 -76 164q0 28 5 57
zM462 624h-70l-144 105v46h109z" />
    <glyph glyph-name="oacute" unicode="&#xf3;" 
d="M405 399q-48 -1 -80 -45q-26 -36 -35 -87q-5 -29 -5 -51q0 -91 70 -91q90 0 115 142q4 22 4 41q0 93 -69 91zM80 256q23 134 118 209q92 74 229 74q112 0 180 -51q76 -57 76 -165q0 -28 -5 -56q-24 -134 -117.5 -208t-230.5 -74q-112 0 -179 50q-76 56 -76 164q0 28 5 57
zM626 729l-163 -105h-70l114 151h119v-46z" />
    <glyph glyph-name="ocircumflex" unicode="&#xf4;" 
d="M405 399q-48 -1 -80 -45q-26 -36 -35 -87q-5 -29 -5 -51q0 -91 70 -91q90 0 115 142q4 22 4 41q0 93 -69 91zM80 256q23 134 118 209q92 74 229 74q112 0 180 -51q76 -57 76 -165q0 -28 -5 -56q-24 -134 -117.5 -208t-230.5 -74q-112 0 -179 50q-76 56 -76 164q0 28 5 57
zM248 576l150 115h111l105 -115h-115l-57 54l-80 -54h-114z" />
    <glyph glyph-name="otilde" unicode="&#xf5;" 
d="M405 399q-48 -1 -80 -45q-26 -34 -35 -87q-5 -29 -5 -52q0 -90 70 -90q90 0 115 142q4 21 4 40q0 94 -69 92zM80 256q24 134 119 210q93 73 228 73q121 0 188.5 -58.5t67.5 -158.5q0 -26 -5 -55q-24 -138 -123 -213q-92 -69 -225 -69q-115 0 -183 54q-72 57 -72 160
q0 27 5 57zM581 729v0h80q-43 -133 -149 -133q-33 0 -77.5 18.5t-61.5 18.5q-28 0 -50 -43h-79q17 56 53 95q42 46 95 46q30 0 60 -11.5t59 -23.5q9 -3 18 -3q40 0 52 36z" />
    <glyph glyph-name="odieresis" unicode="&#xf6;" 
d="M405 399q-48 -1 -80 -45q-26 -34 -35 -87q-5 -29 -5 -52q0 -90 70 -90q90 0 115 142q4 21 4 40q0 94 -69 92zM80 256q24 134 119 210q93 73 228 73q121 0 188.5 -58.5t67.5 -158.5q0 -26 -5 -55q-24 -138 -123 -213q-92 -69 -225 -69q-115 0 -183 54q-72 57 -72 160
q0 27 5 57zM471 596l23 130h169l-23 -130h-169zM412 596h-169l23 130h169z" />
    <glyph glyph-name="divide" unicode="&#xf7;" horiz-adv-x="660" 
d="M617 198h-504l20 116h504zM389 7h-116l21 116h116zM457 389h-116l20 116h116z" />
    <glyph glyph-name="oslash" unicode="&#xf8;" 
d="M287 187l160 198q-16 14 -44 14q-47 0 -79 -45q-25 -35 -34 -87q-8 -44 -3 -80zM471 328l-154 -191q18 -12 38 -12q90 0 115 142q4 25 1 61zM650 548l-48 -58q81 -56 81 -167q0 -27 -5 -56q-24 -138 -124 -213q-92 -69 -224 -69q-69 0 -120 20l-63 -77l-46 28l60 74
q-86 53 -86 168q0 28 5 58q24 134 119 210q93 73 228 73q70 0 126 -22l52 64z" />
    <glyph glyph-name="ugrave" unicode="&#xf9;" 
d="M710 524l-92 -524h-193l14 77q-45 -51 -91.5 -71.5t-114.5 -20.5q-155 0 -155 156q0 30 6 64l56 319h208l-50 -283q-4 -23 -4 -35q0 -60 63 -60q79 0 101 126l44 252h208zM459 590h-70l-144 105v46h109z" />
    <glyph glyph-name="uacute" unicode="&#xfa;" 
d="M710 524l-92 -524h-193l14 77q-45 -51 -91.5 -71.5t-114.5 -20.5q-155 0 -155 156q0 30 6 64l56 319h208l-50 -283q-4 -23 -4 -35q0 -60 63 -60q79 0 101 126l44 252h208zM623 695l-163 -105h-70l114 151h119v-46z" />
    <glyph glyph-name="ucircumflex" unicode="&#xfb;" 
d="M710 524l-92 -524h-193l14 77q-48 -53 -93.5 -72.5t-112.5 -19.5q-155 0 -155 156q0 30 6 64l56 319h208l-50 -283q-3 -21 -3 -36q0 -59 62 -59q79 0 101 126l44 252h208zM237 590l147 148h164l96 -148h-148l-43 76l-69 -76h-147z" />
    <glyph glyph-name="udieresis" unicode="&#xfc;" 
d="M710 524l-92 -524h-193l14 77q-48 -53 -93.5 -72.5t-112.5 -19.5q-155 0 -155 156q0 30 6 64l56 319h208l-50 -283q-3 -21 -3 -36q0 -59 62 -59q79 0 101 126l44 252h208zM471 596l23 130h169l-23 -130h-169zM412 596h-169l23 130h169z" />
    <glyph glyph-name="yacute" unicode="&#xfd;" horiz-adv-x="611" 
d="M307 524l35 -323l148 323h200l-254 -489q-69 -132 -112 -167q-58 -46 -187 -46q-15 0 -46 2t-46 2l26 145q-6 0 22 -1h21q75 0 75 50q0 11 -3 27l-88 477h209zM597 681l-163 -105h-70l114 151h119v-46z" />
    <glyph glyph-name="thorn" unicode="&#xfe;" 
d="M174 739h187l-51 -293h2q28 45 82 71q48 22 98 22q95 0 146 -60q46 -55 46 -147q0 -32 -6 -66q-25 -143 -117 -218q-78 -63 -178 -63q-80 0 -122 67l-40 -230h-208zM358 144q42 0 72 32.5t39 86.5q4 21 4 39q0 83 -73 83q-38 0 -67 -32.5t-38 -85.5q-3 -20 -3 -38
q0 -85 66 -85z" />
    <glyph glyph-name="ydieresis" unicode="&#xff;" horiz-adv-x="611" 
d="M307 524l35 -323l148 323h200l-254 -489q-69 -133 -112 -167q-57 -46 -187 -46q-22 0 -54 2t-38 2l26 145q8 0 22 -1h21q75 0 75 50q0 11 -3 27l-88 477h209zM443 596l23 130h169l-23 -130h-169zM384 596h-169l23 130h169z" />
    <glyph glyph-name="glyph271" unicode="&#x102;" horiz-adv-x="778" 
d="M506 245l-30 258l-119 -258h149zM242 0h-231l385 720h240l131 -720h-235l-11 95h-235zM376 907h76q-2 -35 23 -53q22 -17 58 -17q83 0 109 70h60q-14 -66 -69 -103q-50 -34 -120 -34q-138 0 -138 113q0 11 1 24z" />
    <glyph glyph-name="glyph272" unicode="&#x103;" 
d="M634 0h-215v56q-89 -71 -210 -71q-68 0 -111 29q-51 34 -51 98q0 14 3 31q18 103 122 143q43 17 186 35q98 13 105 50q8 43 -60 43q-67 0 -82 -51h-200q32 176 317 176q104 0 154 -20q80 -31 80 -116q0 -30 -9 -81l-43 -245q-3 -17 -3 -28q0 -21 19 -39zM324 103
q101 0 115 129q-21 -9 -69.5 -19t-69.5 -21q-29 -15 -34 -45q-8 -44 58 -44zM315 724h68q-1 -31 20.5 -47t52.5 -16q76 0 98 63h54q-13 -60 -62 -93q-45 -31 -108 -31q-124 0 -124 102q0 10 1 22z" />
    <glyph glyph-name="Cacute" unicode="&#x106;" horiz-adv-x="711" 
d="M821 445h-224q5 56 -23 87t-84 31q-133 0 -170 -210q-7 -43 -7 -75q0 -121 115 -121q105 0 142 122h227q-40 -139 -146.5 -218.5t-249.5 -79.5q-154 0 -238.5 77.5t-84.5 214.5q0 42 8 88q30 171 153 276q118 102 272 102t233 -68.5t79 -194.5q0 -15 -2 -31zM347 845
l126 148h209l-198 -148h-137z" />
    <glyph glyph-name="cacute" unicode="&#x107;" horiz-adv-x="441" 
d="M675 324h-211q4 33 -12.5 54t-50.5 21q-91 0 -116 -143q-4 -24 -4 -43q0 -88 72 -88q70 0 95 78h210q-33 -112 -128 -169q-83 -49 -202 -49q-115 0 -184 55q-72 58 -72 161q0 27 5 56q23 131 122 208q94 74 227 74q115 0 182 -49q76 -57 67 -166zM148 590l126 148h209
l-198 -148h-137z" />
    <glyph glyph-name="Ccaron" unicode="&#x10c;" horiz-adv-x="711" 
d="M821 445h-224q5 56 -23 87t-84 31q-133 0 -170 -210q-7 -43 -7 -75q0 -121 115 -121q105 0 142 122h227q-40 -139 -146.5 -218.5t-249.5 -79.5q-154 0 -238.5 77.5t-84.5 214.5q0 42 8 88q30 171 153 276q118 102 272 102t233 -68.5t79 -194.5q0 -15 -2 -31zM532 993h148
l-148 -148h-164l-95 148h147l43 -75z" />
    <glyph glyph-name="ccaron" unicode="&#x10d;" horiz-adv-x="441" 
d="M675 324h-211q4 33 -12.5 54t-50.5 21q-91 0 -116 -143q-4 -24 -4 -43q0 -88 72 -88q70 0 95 78h210q-33 -112 -128 -169q-83 -49 -202 -49q-115 0 -184 55q-72 58 -72 161q0 27 5 56q23 131 122 208q94 74 227 74q115 0 182 -49q76 -57 67 -166zM333 738h148l-148 -148
h-164l-95 148h147l43 -75z" />
    <glyph glyph-name="Dslash" unicode="&#x110;" horiz-adv-x="778" 
d="M398 552l-13 -75h85l-35 -198h-85l-19 -111h50q170 0 204 194q7 40 7 73q0 69 -42 96q-33 21 -107 21h-45zM149 477l43 243h316q323 0 323 -260q0 -40 -8 -85q-66 -375 -448 -375h-310l49 279h-65l35 198h65z" />
    <glyph glyph-name="dcroat" unicode="&#x111;" 
d="M347 135q59 0 92 53q28 45 28 108q0 82 -71 82q-88 0 -110 -124q-4 -23 -4 -42q0 -77 65 -77zM738 677h47l-19 -108h-47l-100 -569h-187l12 70q-80 -85 -176 -85q-95 0 -146 53.5t-51 148.5q0 31 6 65q20 114 88 195q77 92 185 92q98 0 144 -68l17 98h-78l18 108h79
l17 83h208z" />
    <glyph glyph-name="Gbreve" unicode="&#x11e;" horiz-adv-x="767" 
d="M836 396l-70 -398h-152l3 71q-90 -88 -232 -88q-128 0 -207 70q-85 75 -85 213q0 41 8 87q31 174 151.5 281t293.5 107q135 0 213 -67q83 -71 81 -200h-224q-10 91 -105 91q-68 0 -112.5 -56.5t-61.5 -154.5q-6 -35 -6 -65q0 -130 123 -130q38 0 79 23.5t56 59.5h-104
l28 156h323zM315 998h79q-3 -62 96 -62q89 0 110 62h78q-16 -74 -77 -115q-57 -38 -133 -38q-154 0 -154 127q0 12 1 26z" />
    <glyph glyph-name="gbreve" unicode="&#x11f;" horiz-adv-x="492" 
d="M393 390q-82 1 -103 -119q-3 -13 -3 -25q0 -75 67 -77q53 -2 84 46q26 41 26 96q0 78 -71 79zM56 -27h209q-3 -18 17 -28q15 -8 35 -8q45 0 68.5 23t33.5 79l7 43q-67 -57 -160 -57q-90 0 -141 56q-48 53 -48 138q0 128 78 221q82 99 208 99q98 0 144 -84l12 69h183
l-74 -422q-25 -142 -76 -199q-74 -81 -249 -81q-130 0 -194 47q-56 40 -53 104zM115 743h79q-3 -62 96 -62q89 0 110 62h78q-16 -74 -77 -115q-57 -38 -133 -38q-154 0 -154 127q0 12 1 26z" />
    <glyph glyph-name="glyph273" unicode="&#x128;" horiz-adv-x="389" 
d="M312 0h-236l127 720h236zM481 901l67 -2q-97 -112 -185 -109q-24 1 -58 18t-44 17q-22 0 -59 -34l-66 2q37 45 83 77q58 39 104 38q29 -1 85 -33q7 -3 15 -3q31 0 58 29z" />
    <glyph glyph-name="glyph274" unicode="&#x129;" horiz-adv-x="333" 
d="M270 0h-208l92 524h208zM400 700l61 -2q-88 -101 -167 -98q-22 1 -52 16.5t-39 15.5q-20 0 -54 -31l-59 2q33 39 75 68q52 36 93 35q22 0 77 -29q6 -3 13 -3q28 0 52 26z" />
    <glyph glyph-name="Idotaccent" unicode="&#x130;" horiz-adv-x="429" 
d="M312 0h-236l127 720h236zM383 851h-169l23 130h169z" />
    <glyph glyph-name="dotlessi" unicode="&#x131;" horiz-adv-x="333" 
d="M270 0h-208l92 524h208z" />
    <glyph glyph-name="Lslash" unicode="&#x141;" 
d="M627 0h-551l56 315l-105 -50l24 135l104 50l48 270h236l-35 -200l105 50l-24 -135l-105 -50l-38 -217h315z" />
    <glyph glyph-name="lslash" unicode="&#x142;" horiz-adv-x="333" 
d="M335 370l-65 -370h-208l51 290l-73 -60l22 130l74 60l53 300h208l-39 -220l74 60l-23 -130z" />
    <glyph glyph-name="OE" unicode="&#x152;" horiz-adv-x="1000" 
d="M487 0l11 64q-76 -83 -196 -83q-116 0 -178 66q-65 68 -65 200q0 56 12 121q31 178 142 280q99 91 225 91t165 -85l12 66h480l-30 -168h-292l-18 -103h241l-29 -168h-242l-20 -113h306l-30 -168h-494zM448 563q-123 0 -162 -222q-6 -37 -6 -67q0 -117 93 -117
q123 0 161 219q7 39 7 71q0 116 -93 116z" />
    <glyph glyph-name="oe" unicode="&#x153;" horiz-adv-x="1000" 
d="M638 321h210q1 8 1 16q0 34 -23.5 54.5t-64.5 20.5q-102 0 -123 -91zM998 215h-379q-2 -14 -2 -26q0 -77 77 -77q74 0 90 44h189q-38 -87 -128 -133q-75 -38 -167 -38q-87 0 -169 72q-72 -72 -202 -72q-112 0 -172 56t-60 154q0 30 5 62q25 139 121 214q87 68 205 68
q109 0 180 -57q99 57 197 57q111 0 171 -69q55 -63 55 -165q0 -44 -11 -90zM402 399q-89 0 -114 -142q-6 -34 -6 -56q0 -76 73 -76q84 0 108 136q6 34 6 58q0 80 -67 80z" />
    <glyph glyph-name="Scedilla" unicode="&#x15e;" horiz-adv-x="656" 
d="M759 511h-224q1 34 -23.5 48t-60.5 14q-75 0 -82 -41q-7 -40 86 -66q151 -42 179 -56q99 -49 99 -143q0 -18 -4 -38q-21 -121 -127 -187q-99 -61 -253 -61q-128 0 -206 62q-73 59 -73 150q0 15 2 29h226q1 -37 28 -56t65 -19q98 0 107 53q7 40 -86 65q-147 40 -179 56
q-98 49 -98 147q0 19 4 41q19 111 119 172q93 58 233 58q142 0 211 -67q61 -59 57 -161zM31 -204l29 46q20 -6 41.5 -13t40.5 -7q25 0 42 11t17 29q0 32 -39 32q-17 0 -39 -10l-21 24l71 92h58l-50 -64q16 6 60 2q25 -2 43.5 -20t18.5 -43q0 -14 -7 -29q-17 -37 -60 -59
q-37 -19 -79 -19q-54 0 -126 28z" />
    <glyph glyph-name="scedilla" unicode="&#x15f;" horiz-adv-x="383" 
d="M62 163h198q-6 -30 12 -47t49 -17q66 0 75 47q5 31 -68 48q-118 27 -140 37q-77 34 -77 106q0 14 3 29q16 91 107 137q72 36 171 36q246 0 231 -165h-189q3 51 -53 51q-59 0 -66 -37q-4 -26 71 -44q115 -27 145 -41q79 -37 79 -108q0 -13 -2 -27q-15 -85 -93 -132
q-82 -51 -222 -51q-232 0 -232 157q0 10 1 21zM-66 -204l29 46q20 -6 41.5 -13t40.5 -7q25 0 42 11t17 29q0 32 -39 32q-17 0 -39 -10l-21 24l71 92h58l-50 -64q16 6 60 2q25 -2 43.5 -20t18.5 -43q0 -14 -7 -29q-17 -37 -60 -59q-37 -19 -79 -19q-54 0 -126 28z" />
    <glyph glyph-name="Scaron" unicode="&#x160;" horiz-adv-x="722" 
d="M759 511h-224q1 34 -23.5 48t-60.5 14q-75 0 -82 -41q-7 -40 86 -66q151 -42 179 -56q99 -49 99 -143q0 -18 -4 -38q-21 -121 -127 -187q-99 -61 -253 -61q-128 0 -206 62q-73 59 -73 150q0 15 2 29h226q1 -37 28 -56t65 -19q98 0 107 53q7 40 -86 65q-147 40 -179 56
q-98 49 -98 147q0 19 4 41q19 111 119 172q93 58 233 58q142 0 211 -67q61 -59 57 -161zM585 934h148l-148 -148h-164l-95 148h147l43 -75z" />
    <glyph glyph-name="scaron" unicode="&#x161;" horiz-adv-x="611" 
d="M62 163h198q-6 -30 12 -47t49 -17q66 0 75 47q5 31 -68 48q-118 27 -140 37q-77 34 -77 106q0 14 3 29q16 91 107 137q72 36 171 36q246 0 231 -165h-189q3 51 -53 51q-59 0 -66 -37q-4 -26 71 -44q115 -27 145 -41q79 -37 79 -108q0 -13 -2 -27q-15 -85 -93 -132
q-82 -51 -222 -51q-232 0 -232 157q0 10 1 21zM494 738h148l-148 -148h-164l-95 148h147l43 -75z" />
    <glyph glyph-name="ch903" unicode="&#x168;" horiz-adv-x="833" 
d="M125 314l72 406h236l-76 -431q-5 -28 -5 -50q0 -82 93 -82q110 0 133 132l76 431h236l-72 -407q-31 -173 -129 -252.5t-275 -79.5q-140 0 -211 47q-88 56 -88 188q0 42 10 98zM705 891l67 -2q-97 -112 -185 -109q-24 1 -58 18t-44 17q-22 0 -59 -34l-66 2q37 45 83 77
q58 39 104 38q29 -1 85 -33q7 -3 15 -3q31 0 58 29z" />
    <glyph glyph-name="ch904" unicode="&#x169;" 
d="M710 524l-92 -524h-193l14 77q-45 -51 -91.5 -71.5t-114.5 -20.5q-155 0 -155 156q0 30 6 64l56 319h208l-50 -283q-4 -23 -4 -35q0 -60 63 -60q79 0 101 126l44 252h208zM572 700l61 -2q-88 -101 -167 -98q-22 1 -52 16.5t-39 15.5q-20 0 -54 -31l-59 2q33 39 75 68
q52 36 93 35q22 0 77 -29q6 -3 13 -3q28 0 52 26z" />
    <glyph glyph-name="Ydieresis" unicode="&#x178;" horiz-adv-x="778" 
d="M554 266l-47 -266h-236l46 262l-187 458h264l81 -244l167 244h260zM562 792l23 130h169l-23 -130h-169zM503 792h-169l23 130h169z" />
    <glyph glyph-name="Zcaron" unicode="&#x17d;" horiz-adv-x="722" 
d="M685 0h-649l30 171l412 381h-331l30 168h621l-29 -167l-418 -385h364zM585 934h148l-148 -148h-164l-95 148h147l43 -75z" />
    <glyph glyph-name="zcaron" unicode="&#x17e;" horiz-adv-x="556" 
d="M530 0h-504l25 139l278 233h-216l26 152h472l-25 -145l-269 -227h240zM467 738h148l-148 -148h-164l-95 148h147l43 -75z" />
    <glyph glyph-name="florin" unicode="&#x192;" 
d="M751 730l-44 -127q-36 10 -55 10q-31 0 -45 -10.5t-25 -41.5l-35 -95h110l-20 -116h-129l-89 -254q-31 -88 -51 -126q-34 -65 -86 -104q-35 -27 -77 -40q-31 -10 -70 -10q-27 0 -116 19l44 127q4 -3 44 -13q69 -3 97 79l112 322h-107l20 116h126q43 121 68 161
q49 82 134 110q30 10 82 10q34 0 112 -17z" />
    <glyph glyph-name="glyph277" unicode="&#x1a0;" horiz-adv-x="833" 
d="M513 563q-73 -1 -121 -66q-39 -53 -53 -133q-6 -35 -6 -68q0 -139 111 -139q142 0 178 207q5 29 5 59q0 142 -114 140zM730 696q59 6 79 23q7 8 7 17q0 20 -21 22q5 15 22 24t34 7q57 -7 57 -51q0 -58 -117 -91q74 -79 74 -207q0 -37 -7 -76q-31 -171 -150 -276
q-122 -107 -295 -107q-146 0 -229 73q-88 77 -88 221q0 45 8 91q29 168 150 270.5t292 102.5q108 0 184 -43z" />
    <glyph glyph-name="glyph278" unicode="&#x1a1;" 
d="M405 399q-48 -1 -80 -45q-26 -36 -35 -87q-5 -29 -5 -51q0 -91 70 -91q90 0 115 142q4 22 4 41q0 93 -69 91zM566 512l69 11q16 12 16 21q0 17 -19 17q6 30 43 30q19 0 34 -11.5t15 -30.5q0 -47 -96 -80q55 -56 55 -146q0 -28 -5 -56q-24 -134 -117.5 -208t-230.5 -74
q-112 0 -179 50q-76 56 -76 164q0 28 5 57q23 134 118 209q92 74 229 74q82 0 139 -27z" />
    <glyph glyph-name="glyph279" unicode="&#x1af;" horiz-adv-x="833" 
d="M878 638l-60 -325q-32 -174 -129.5 -253t-274.5 -79q-140 0 -211 47q-88 56 -88 188q0 42 10 98l72 406h236l-76 -431q-5 -28 -5 -50q0 -82 93 -82q110 0 133 132l76 431l235 -13q20 10 20 26q0 21 -23 21q3 15 19.5 25.5t33.5 10.5q24 0 42.5 -13.5t18.5 -36.5
q0 -57 -122 -102z" />
    <glyph glyph-name="glyph280" unicode="&#x1b0;" 
d="M699 461l-81 -461h-193l14 77q-45 -51 -91.5 -71.5t-114.5 -20.5q-155 0 -155 156q0 30 6 64l56 319h208l-50 -283q-4 -23 -4 -35q0 -60 63 -60q79 0 101 126l44 252l207 -2q6 2 12 11q6 6 6 13q0 17 -19 17q6 30 43 30q19 0 34 -11t15 -30q0 -18 -17 -36
q-38 -39 -84 -55z" />
    <glyph glyph-name="circumflex" unicode="&#x2c6;" horiz-adv-x="333" 
d="M70 590l147 148h164l96 -148h-148l-43 76l-69 -76h-147z" />
    <glyph glyph-name="caron" unicode="&#x2c7;" horiz-adv-x="333" 
d="M355 738h148l-148 -148h-164l-95 148h147l43 -75z" />
    <glyph glyph-name="breve" unicode="&#x2d8;" horiz-adv-x="333" 
d="M119 743h79q-3 -62 96 -62q89 0 110 62h78q-16 -74 -77 -115q-57 -38 -133 -38q-154 0 -154 127q0 12 1 26z" />
    <glyph glyph-name="dotaccent" unicode="&#x2d9;" horiz-adv-x="333" 
d="M356 596h-169l23 130h169z" />
    <glyph glyph-name="ring" unicode="&#x2da;" horiz-adv-x="333" 
d="M272 593q-41 0 -68 26.5t-27 66.5q0 51 41 91t93 40q41 0 67.5 -27t26.5 -66q0 -51 -41 -91t-92 -40zM300 757q-21 0 -39.5 -15.5t-22.5 -36.5q-3 -21 10 -36.5t34 -15.5t39.5 16t21.5 36q4 20 -9 36t-34 16z" />
    <glyph glyph-name="ogonek" unicode="&#x2db;" horiz-adv-x="333" 
d="M156 0h83v-2q-61 -26 -68 -65q-3 -19 8.5 -34t30.5 -15q14 0 50 12l-16 -86q-46 -15 -91 -15q-44 0 -72 20.5t-28 58.5q0 10 1 20q9 48 102 106z" />
    <glyph glyph-name="tilde" unicode="&#x2dc;" horiz-adv-x="333" 
d="M414 729v0h80q-43 -133 -149 -133q-33 0 -77.5 18.5t-61.5 18.5q-28 0 -50 -43h-79q17 56 53 95q42 46 95 46q30 0 60 -11.5t59 -23.5q9 -3 18 -3q40 0 52 36z" />
    <glyph glyph-name="hungarumlaut" unicode="&#x2dd;" horiz-adv-x="333" 
d="M170 590l126 148h209l-198 -148h-137zM422 590l126 148h209l-198 -148h-137z" />
    <glyph glyph-name="glyph281" unicode="&#x1ea0;" horiz-adv-x="778" 
d="M506 245l-30 258l-119 -258h149zM242 0h-231l385 720h240l131 -720h-235l-11 95h-235zM445 -148h-138l22 115h138z" />
    <glyph glyph-name="glyph282" unicode="&#x1ea1;" 
d="M634 0h-215v56q-89 -71 -210 -71q-68 0 -111 29q-51 34 -51 98q0 14 3 31q18 103 122 143q43 17 186 35q98 13 105 50q8 43 -60 43q-67 0 -82 -51h-200q32 176 317 176q104 0 154 -20q80 -31 80 -116q0 -30 -9 -81l-43 -245q-3 -17 -3 -28q0 -21 19 -39zM324 103
q101 0 115 129q-21 -9 -69.5 -19t-69.5 -21q-29 -15 -34 -45q-8 -44 58 -44zM374 -156h-124l20 103h124z" />
    <glyph glyph-name="glyph283" unicode="&#x1ea2;" horiz-adv-x="778" 
d="M506 245l-30 258l-119 -258h149zM242 0h-231l385 720h240l131 -720h-235l-11 95h-235zM553 808l-43 -28l-42 28q5 41 26 61q9 8 38 21q21 9 24 24q5 28 -23 28q-30 0 -35 -38h-84q10 47 44.5 75.5t82.5 28.5q40 0 70 -20q34 -23 34 -61q0 -46 -49 -72q-43 -23 -43 -47z
" />
    <glyph glyph-name="glyph284" unicode="&#x1ea3;" 
d="M634 0h-215v56q-89 -71 -210 -71q-68 0 -111 29q-51 34 -51 98q0 14 3 31q18 103 122 143q43 17 186 35q98 13 105 50q8 43 -60 43q-67 0 -82 -51h-200q32 176 317 176q104 0 154 -20q80 -31 80 -116q0 -30 -9 -81l-43 -245q-3 -17 -3 -28q0 -21 19 -39zM324 103
q101 0 115 129q-21 -9 -69.5 -19t-69.5 -21q-29 -15 -34 -45q-8 -44 58 -44zM479 641l-41 -27l-40 27q4 39 24 58q7 7 37 20q19 9 22 23q5 26 -21 26q-29 0 -34 -36h-79q10 45 42.5 72t77.5 27q37 0 66 -19q33 -22 33 -57q0 -44 -47 -69q-40 -22 -40 -45z" />
    <glyph glyph-name="glyph285" unicode="&#x1ea4;" horiz-adv-x="778" 
d="M506 245l-30 258l-119 -258h149zM242 0h-231l385 720h240l131 -720h-235l-11 95h-235zM294 760l167 128h124l116 -128h-128l-63 60l-89 -60h-127zM961 937l-182 -117h-77l126 168h133v-51z" />
    <glyph glyph-name="glyph286" unicode="&#x1ea5;" 
d="M634 0h-215v56q-89 -71 -210 -71q-68 0 -111 29q-51 34 -51 98q0 14 3 31q18 103 122 143q43 17 186 35q98 13 105 50q8 43 -60 43q-67 0 -82 -51h-200q32 176 317 176q104 0 154 -20q80 -31 80 -116q0 -30 -9 -81l-43 -245q-3 -17 -3 -28q0 -21 19 -39zM324 103
q101 0 115 129q-21 -9 -69.5 -19t-69.5 -21q-29 -15 -34 -45q-8 -44 58 -44zM266 576l150 115h112l104 -115h-115l-56 54l-81 -54h-114zM866 735l-163 -105h-70l114 151h119v-46z" />
    <glyph glyph-name="glyph287" unicode="&#x1ea6;" horiz-adv-x="778" 
d="M506 245l-30 258l-119 -258h149zM242 0h-231l385 720h240l131 -720h-235l-11 95h-235zM294 760l167 128h124l116 -128h-128l-63 60l-89 -60h-127zM334 820h-77l-172 117v51h133z" />
    <glyph glyph-name="glyph288" unicode="&#x1ea7;" 
d="M634 0h-215v56q-89 -71 -210 -71q-68 0 -111 29q-51 34 -51 98q0 14 3 31q18 103 122 143q43 17 186 35q98 13 105 50q8 43 -60 43q-67 0 -82 -51h-200q32 176 317 176q104 0 154 -20q80 -31 80 -116q0 -30 -9 -81l-43 -245q-3 -17 -3 -28q0 -21 19 -39zM324 103
q101 0 115 129q-21 -9 -69.5 -19t-69.5 -21q-29 -15 -34 -45q-8 -44 58 -44zM267 576l150 115h111l105 -115h-115l-57 54l-80 -54h-114zM313 640h-70l-134 105v46h99z" />
    <glyph glyph-name="glyph289" unicode="&#x1ea8;" horiz-adv-x="778" 
d="M506 245l-30 258l-119 -258h149zM242 0h-231l385 720h240l131 -720h-235l-11 95h-235zM294 760l167 128h124l116 -128h-128l-63 60l-89 -60h-127zM777 848l-43 -28l-42 28q5 41 26 61q9 8 38 21q21 9 24 24q5 28 -23 28q-30 0 -35 -38h-84q10 47 44.5 75.5t82.5 28.5
q40 0 70 -20q34 -23 34 -61q0 -46 -49 -72q-43 -23 -43 -47z" />
    <glyph glyph-name="glyph290" unicode="&#x1ea9;" 
d="M634 0h-215v56q-89 -71 -210 -71q-68 0 -111 29q-51 34 -51 98q0 14 3 31q18 103 122 143q43 17 186 35q98 13 105 50q8 43 -60 43q-67 0 -82 -51h-200q32 176 317 176q104 0 154 -20q80 -31 80 -116q0 -30 -9 -81l-43 -245q-3 -17 -3 -28q0 -21 19 -39zM324 103
q101 0 115 129q-21 -9 -69.5 -19t-69.5 -21q-29 -15 -34 -45q-8 -44 58 -44zM266 576l151 115h111l104 -115h-115l-56 53l-80 -53h-115zM727 663l-41 -27l-40 27q4 39 24 58q7 7 37 20q19 9 22 23q5 26 -21 26q-29 0 -34 -36h-79q10 45 42.5 72t77.5 27q37 0 66 -19
q33 -22 33 -57q0 -44 -47 -69q-40 -22 -40 -45z" />
    <glyph glyph-name="glyph291" unicode="&#x1eaa;" horiz-adv-x="778" 
d="M506 245l-30 258l-119 -258h149zM242 0h-231l385 720h240l131 -720h-235l-11 95h-235zM294 760l167 128h124l116 -128h-128l-63 60l-89 -60h-127zM642 1038l67 -2q-97 -112 -185 -109q-24 1 -58 18t-44 17q-22 0 -59 -34l-66 2q37 45 83 77q58 39 104 38q29 -1 85 -33
q7 -3 15 -3q31 0 58 29z" />
    <glyph glyph-name="glyph292" unicode="&#x1eab;" 
d="M634 0h-215v56q-89 -71 -210 -71q-68 0 -111 29q-51 34 -51 98q0 14 3 31q18 103 122 143q43 17 186 35q98 13 105 50q8 43 -60 43q-67 0 -82 -51h-200q32 176 317 176q104 0 154 -20q80 -31 80 -116q0 -30 -9 -81l-43 -245q-3 -17 -3 -28q0 -21 19 -39zM324 103
q101 0 115 129q-21 -9 -69.5 -19t-69.5 -21q-29 -15 -34 -45q-8 -44 58 -44zM268 576l150 115h112l104 -115h-115l-57 54l-80 -54h-114zM581 826l61 -2q-88 -101 -167 -98q-22 1 -52 16.5t-39 15.5q-20 0 -54 -31l-59 2q33 39 75 68q52 36 93 35q22 0 77 -29q6 -3 13 -3
q28 0 52 26z" />
    <glyph glyph-name="glyph293" unicode="&#x1eac;" horiz-adv-x="778" 
d="M506 245l-30 258l-119 -258h149zM242 0h-231l385 720h240l131 -720h-235l-11 95h-235zM294 760l167 128h124l116 -128h-128l-63 60l-89 -60h-127zM445 -148h-138l22 115h138z" />
    <glyph glyph-name="glyph294" unicode="&#x1ead;" 
d="M634 0h-215v56q-89 -71 -210 -71q-68 0 -111 29q-51 34 -51 98q0 14 3 31q18 103 122 143q43 17 186 35q98 13 105 50q8 43 -60 43q-67 0 -82 -51h-200q32 176 317 176q104 0 154 -20q80 -31 80 -116q0 -30 -9 -81l-43 -245q-3 -17 -3 -28q0 -21 19 -39zM324 103
q101 0 115 129q-21 -9 -69.5 -19t-69.5 -21q-29 -15 -34 -45q-8 -44 58 -44zM267 576l150 115h111l105 -115h-115l-57 54l-80 -54h-114zM374 -156h-124l20 103h124z" />
    <glyph glyph-name="glyph295" unicode="&#x1eae;" horiz-adv-x="778" 
d="M506 245l-30 258l-119 -258h149zM242 0h-231l385 720h240l131 -720h-235l-11 95h-235zM376 907h76q-2 -35 23 -53q22 -17 58 -17q83 0 109 70h60q-14 -66 -69 -103q-50 -34 -120 -34q-138 0 -138 113q0 11 1 24zM744 1034l-172 -117h-77l116 168h133v-51z" />
    <glyph glyph-name="glyph296" unicode="&#x1eaf;" 
d="M634 0h-215v56q-89 -71 -210 -71q-68 0 -111 29q-51 34 -51 98q0 14 3 31q18 103 122 143q43 17 186 35q98 13 105 50q8 43 -60 43q-67 0 -82 -51h-200q32 176 317 176q104 0 154 -20q80 -31 80 -116q0 -30 -9 -81l-43 -245q-3 -17 -3 -28q0 -21 19 -39zM324 103
q101 0 115 129q-21 -9 -69.5 -19t-69.5 -21q-29 -15 -34 -45q-8 -44 58 -44zM315 724h68q-1 -31 20.5 -47t52.5 -16q76 0 98 63h54q-13 -60 -62 -93q-45 -31 -108 -31q-124 0 -124 102q0 10 1 22zM646 838l-155 -105h-69l104 151h120v-46z" />
    <glyph glyph-name="glyph297" unicode="&#x1eb0;" horiz-adv-x="778" 
d="M506 245l-30 258l-119 -258h149zM242 0h-231l385 720h240l131 -720h-235l-11 95h-235zM376 907h76q-2 -35 23 -53q22 -17 58 -17q83 0 109 70h60q-14 -66 -69 -103q-50 -34 -120 -34q-138 0 -138 113q0 11 1 24zM571 917h-77l-172 117v51h133z" />
    <glyph glyph-name="glyph298" unicode="&#x1eb1;" 
d="M634 0h-215v56q-89 -71 -210 -71q-68 0 -111 29q-51 34 -51 98q0 14 3 31q18 103 122 143q43 17 186 35q98 13 105 50q8 43 -60 43q-67 0 -82 -51h-200q32 176 317 176q104 0 154 -20q80 -31 80 -116q0 -30 -9 -81l-43 -245q-3 -17 -3 -28q0 -21 19 -39zM324 103
q101 0 115 129q-21 -9 -69.5 -19t-69.5 -21q-29 -15 -34 -45q-8 -44 58 -44zM315 724h68q-2 -30 20 -46.5t53 -16.5q75 0 98 63h54q-13 -60 -62 -93q-45 -31 -108 -31q-124 0 -124 102q0 10 1 22zM490 733h-69l-155 105v46h120z" />
    <glyph glyph-name="glyph299" unicode="&#x1eb2;" horiz-adv-x="778" 
d="M506 245l-30 258l-119 -258h149zM242 0h-231l385 720h240l131 -720h-235l-11 95h-235zM376 907h76q-2 -35 23 -53q22 -17 58 -17q83 0 109 70h60q-14 -66 -69 -103q-50 -34 -120 -34q-138 0 -138 113q0 11 1 24zM575 924l-41 -27l-40 27q4 39 24 58q7 7 37 20q19 9 22 23
q5 26 -21 26q-29 0 -34 -36h-79q10 45 42.5 72t77.5 27q37 0 66 -19q33 -22 33 -57q0 -44 -47 -69q-40 -22 -40 -45z" />
    <glyph glyph-name="glyph300" unicode="&#x1eb3;" 
d="M634 0h-215v56q-89 -71 -210 -71q-68 0 -111 29q-51 34 -51 98q0 14 3 31q18 103 122 143q43 17 186 35q98 13 105 50q8 43 -60 43q-67 0 -82 -51h-200q32 176 317 176q104 0 154 -20q80 -31 80 -116q0 -30 -9 -81l-43 -245q-3 -17 -3 -28q0 -21 19 -39zM324 103
q101 0 115 129q-21 -9 -69.5 -19t-69.5 -21q-29 -15 -34 -45q-8 -44 58 -44zM314 722h68q-1 -30 22 -47q20 -15 51 -15q76 0 98 62h54q-13 -59 -62 -92q-45 -31 -108 -31q-124 0 -124 101q0 11 1 22zM497 753l-41 -27l-40 27q4 39 24 58q7 7 37 20q19 9 22 23q5 26 -21 26
q-29 0 -34 -36h-79q10 45 42.5 72t77.5 27q37 0 66 -19q33 -22 33 -57q0 -44 -47 -69q-40 -22 -40 -45z" />
    <glyph glyph-name="glyph301" unicode="&#x1eb4;" horiz-adv-x="778" 
d="M506 245l-30 258l-119 -258h149zM242 0h-231l385 720h240l131 -720h-235l-11 95h-235zM376 907h76q-2 -35 23 -53q22 -17 58 -17q83 0 109 70h60q-14 -66 -69 -103q-50 -34 -120 -34q-138 0 -138 113q0 11 1 24zM842 1058l67 -2q-97 -112 -185 -109q-24 1 -58 18t-44 17
q-22 0 -59 -34l-66 2q37 45 83 77q58 39 104 38q29 -1 85 -33q7 -3 15 -3q31 0 58 29z" />
    <glyph glyph-name="glyph302" unicode="&#x1eb5;" 
d="M634 0h-215v56q-89 -71 -210 -71q-68 0 -111 29q-51 34 -51 98q0 14 3 31q18 103 122 143q43 17 186 35q98 13 105 50q8 43 -60 43q-67 0 -82 -51h-200q32 176 317 176q104 0 154 -20q80 -31 80 -116q0 -30 -9 -81l-43 -245q-3 -17 -3 -28q0 -21 19 -39zM324 103
q101 0 115 129q-21 -9 -69.5 -19t-69.5 -21q-29 -15 -34 -45q-8 -44 58 -44zM315 722h68q-2 -30 20 -46.5t53 -16.5q33 0 60.5 16.5t37.5 46.5h54q-13 -60 -59.5 -91.5t-110.5 -31.5q-124 0 -124 101q0 10 1 22zM734 858l60 -2q-86 -101 -166 -98q-22 1 -51.5 16.5
t-39.5 15.5q-20 0 -54 -31l-59 2q88 106 168 103q24 -1 76 -30q5 -3 13 -3q30 0 53 27z" />
    <glyph glyph-name="glyph303" unicode="&#x1eb6;" horiz-adv-x="778" 
d="M506 245l-30 258l-119 -258h149zM242 0h-231l385 720h240l131 -720h-235l-11 95h-235zM376 907h76q-2 -35 23 -53q22 -17 58 -17q83 0 109 70h60q-14 -66 -69 -103q-50 -34 -120 -34q-138 0 -138 113q0 11 1 24zM445 -148h-138l22 115h138z" />
    <glyph glyph-name="glyph304" unicode="&#x1eb7;" 
d="M634 0h-215v56q-89 -71 -210 -71q-68 0 -111 29q-51 34 -51 98q0 14 3 31q18 103 122 143q43 17 186 35q98 13 105 50q8 43 -60 43q-67 0 -82 -51h-200q32 176 317 176q104 0 154 -20q80 -31 80 -116q0 -30 -9 -81l-43 -245q-3 -17 -3 -28q0 -21 19 -39zM324 103
q101 0 115 129q-21 -9 -69.5 -19t-69.5 -21q-29 -15 -34 -45q-8 -44 58 -44zM374 -156h-124l20 103h124zM315 724h68q-1 -31 20.5 -47t52.5 -16q76 0 98 63h54q-13 -60 -62 -93q-45 -31 -108 -31q-124 0 -124 102q0 10 1 22z" />
    <glyph glyph-name="glyph305" unicode="&#x1eb8;" horiz-adv-x="722" 
d="M677 0h-601l127 720h587l-30 -168h-351l-18 -103h297l-29 -168h-297l-20 -113h365zM442 -169h-138l22 115h138z" />
    <glyph glyph-name="glyph306" unicode="&#x1eb9;" 
d="M296 321h189q1 7 1 14q0 33 -22 55t-55 22q-45 0 -75.5 -24t-37.5 -67zM674 215h-397q-2 -10 -2 -20q0 -37 25 -60t62 -23q55 0 86 46h199q-40 -88 -133 -133q-82 -40 -188 -40q-111 0 -179 52q-76 57 -76 164q0 28 5 56q23 127 120 204.5t227 77.5q119 0 189 -64.5
t70 -182.5q0 -37 -8 -77zM376 -166h-124l20 103h124z" />
    <glyph glyph-name="glyph307" unicode="&#x1eba;" horiz-adv-x="722" 
d="M677 0h-601l127 720h587l-30 -168h-351l-18 -103h297l-29 -168h-297l-20 -113h365zM535 808l-43 -28l-42 28q5 41 26 61q9 8 38 21q21 9 24 24q5 28 -23 28q-30 0 -35 -38h-84q10 47 44.5 75.5t82.5 28.5q40 0 70 -20q34 -23 34 -61q0 -46 -49 -72q-43 -23 -43 -47z" />
    <glyph glyph-name="glyph308" unicode="&#x1ebb;" 
d="M296 321h189q1 7 1 14q0 33 -22 55t-55 22q-45 0 -75.5 -24t-37.5 -67zM674 215h-397q-2 -10 -2 -20q0 -37 25 -60t62 -23q55 0 86 46h199q-40 -88 -133 -133q-82 -40 -188 -40q-111 0 -179 52q-76 57 -76 164q0 28 5 56q23 127 120 204.5t227 77.5q119 0 189 -64.5
t70 -182.5q0 -37 -8 -77zM464 641l-41 -27l-40 27q4 39 24 58q7 7 37 20q19 9 22 23q5 26 -21 26q-29 0 -34 -36h-79q10 45 42.5 72t77.5 27q37 0 66 -19q33 -22 33 -57q0 -44 -47 -69q-40 -22 -40 -45z" />
    <glyph glyph-name="glyph309" unicode="&#x1ebc;" horiz-adv-x="722" 
d="M677 0h-601l127 720h587l-30 -168h-351l-18 -103h297l-29 -168h-297l-20 -113h365zM653 901l67 -2q-97 -112 -185 -109q-24 1 -58 18t-44 17q-22 0 -59 -34l-66 2q37 45 83 77q58 39 104 38q29 -1 85 -33q7 -3 15 -3q31 0 58 29z" />
    <glyph glyph-name="glyph310" unicode="&#x1ebd;" 
d="M296 321h189q1 7 1 14q0 33 -22 55t-55 22q-45 0 -75.5 -24t-37.5 -67zM674 215h-397q-2 -10 -2 -20q0 -37 25 -60t62 -23q55 0 86 46h199q-40 -88 -133 -133q-82 -40 -188 -40q-111 0 -179 52q-76 57 -76 164q0 28 5 56q23 127 120 204.5t227 77.5q119 0 189 -64.5
t70 -182.5q0 -37 -8 -77zM567 724l61 -2q-88 -101 -167 -98q-22 1 -52 16.5t-39 15.5q-20 0 -54 -31l-59 2q33 39 75 68q52 36 93 35q22 0 77 -29q6 -3 13 -3q28 0 52 26z" />
    <glyph glyph-name="glyph311" unicode="&#x1ebe;" horiz-adv-x="722" 
d="M677 0h-601l127 720h587l-30 -168h-351l-18 -103h297l-29 -168h-297l-20 -113h365zM290 770l167 128h124l116 -128h-128l-63 60l-89 -60h-127zM957 947l-182 -117h-77l126 168h133v-51z" />
    <glyph glyph-name="glyph312" unicode="&#x1ebf;" 
d="M296 321h189q1 7 1 14q0 33 -22 55t-55 22q-45 0 -75.5 -24t-37.5 -67zM674 215h-397q-2 -10 -2 -20q0 -37 25 -60t62 -23q55 0 86 46h199q-40 -88 -133 -133q-82 -40 -188 -40q-111 0 -179 52q-76 57 -76 164q0 28 5 56q23 127 120 204.5t227 77.5q119 0 189 -64.5
t70 -182.5q0 -37 -8 -77zM236 576l150 115h112l104 -115h-115l-56 54l-81 -54h-114zM836 735l-163 -105h-70l114 151h119v-46z" />
    <glyph glyph-name="glyph313" unicode="&#x1ec0;" horiz-adv-x="722" 
d="M677 0h-601l127 720h587l-30 -168h-351l-18 -103h297l-29 -168h-297l-20 -113h365zM291 770l167 128h124l116 -128h-128l-63 60l-89 -60h-127zM331 830h-77l-172 117v51h133z" />
    <glyph glyph-name="glyph314" unicode="&#x1ec1;" 
d="M296 321h189q1 7 1 14q0 33 -22 55t-55 22q-45 0 -75.5 -24t-37.5 -67zM674 215h-397q-2 -10 -2 -20q0 -37 25 -60t62 -23q55 0 86 46h199q-40 -88 -133 -133q-82 -40 -188 -40q-111 0 -179 52q-76 57 -76 164q0 28 5 56q23 127 120 204.5t227 77.5q119 0 189 -64.5
t70 -182.5q0 -37 -8 -77zM238 576l150 115h111l105 -115h-115l-57 54l-80 -54h-114zM284 640h-70l-134 105v46h99z" />
    <glyph glyph-name="glyph315" unicode="&#x1ec2;" horiz-adv-x="722" 
d="M677 0h-601l127 720h587l-30 -168h-351l-18 -103h297l-29 -168h-297l-20 -113h365zM291 770l167 128h124l116 -128h-128l-63 60l-89 -60h-127zM774 858l-43 -28l-42 28q5 41 26 61q9 8 38 21q21 9 24 24q5 28 -23 28q-30 0 -35 -38h-84q10 47 44.5 75.5t82.5 28.5
q40 0 70 -20q34 -23 34 -61q0 -46 -49 -72q-43 -23 -43 -47z" />
    <glyph glyph-name="glyph316" unicode="&#x1ec3;" 
d="M296 321h189q1 7 1 14q0 33 -22 55t-55 22q-45 0 -75.5 -24t-37.5 -67zM674 215h-397q-2 -10 -2 -20q0 -37 25 -60t62 -23q55 0 86 46h199q-40 -88 -133 -133q-82 -40 -188 -40q-111 0 -179 52q-76 57 -76 164q0 28 5 56q23 127 120 204.5t227 77.5q119 0 189 -64.5
t70 -182.5q0 -37 -8 -77zM236 576l151 115h111l104 -115h-115l-56 53l-80 -53h-115zM697 663l-41 -27l-40 27q4 39 24 58q7 7 37 20q19 9 22 23q5 26 -21 26q-29 0 -34 -36h-79q10 45 42.5 72t77.5 27q37 0 66 -19q33 -22 33 -57q0 -44 -47 -69q-40 -22 -40 -45z" />
    <glyph glyph-name="glyph317" unicode="&#x1ec4;" horiz-adv-x="722" 
d="M677 0h-601l127 720h587l-30 -168h-351l-18 -103h297l-29 -168h-297l-20 -113h365zM291 770l167 128h124l116 -128h-128l-63 60l-89 -60h-127zM639 1048l67 -2q-97 -112 -185 -109q-24 1 -58 18t-44 17q-22 0 -59 -34l-66 2q37 45 83 77q58 39 104 38q29 -1 85 -33
q7 -3 15 -3q31 0 58 29z" />
    <glyph glyph-name="glyph318" unicode="&#x1ec5;" 
d="M296 321h189q1 7 1 14q0 33 -22 55t-55 22q-45 0 -75.5 -24t-37.5 -67zM674 215h-397q-2 -10 -2 -20q0 -37 25 -60t62 -23q55 0 86 46h199q-40 -88 -133 -133q-82 -40 -188 -40q-111 0 -179 52q-76 57 -76 164q0 28 5 56q23 127 120 204.5t227 77.5q119 0 189 -64.5
t70 -182.5q0 -37 -8 -77zM238 576l150 115h112l104 -115h-115l-57 54l-80 -54h-114zM551 826l61 -2q-88 -101 -167 -98q-22 1 -52 16.5t-39 15.5q-20 0 -54 -31l-59 2q33 39 75 68q52 36 93 35q22 0 77 -29q6 -3 13 -3q28 0 52 26z" />
    <glyph glyph-name="glyph319" unicode="&#x1ec6;" horiz-adv-x="722" 
d="M677 0h-601l127 720h587l-30 -168h-351l-18 -103h297l-29 -168h-297l-20 -113h365zM290 770l167 128h124l116 -128h-128l-63 60l-89 -60h-127zM442 -169h-138l22 115h138z" />
    <glyph glyph-name="glyph320" unicode="&#x1ec7;" 
d="M296 321h189q1 7 1 14q0 33 -22 55t-55 22q-45 0 -75.5 -24t-37.5 -67zM674 215h-397q-2 -10 -2 -20q0 -37 25 -60t62 -23q55 0 86 46h199q-40 -88 -133 -133q-82 -40 -188 -40q-111 0 -179 52q-76 57 -76 164q0 28 5 56q23 127 120 204.5t227 77.5q119 0 189 -64.5
t70 -182.5q0 -37 -8 -77zM238 576l150 115h111l105 -115h-115l-57 54l-80 -54h-114zM376 -166h-124l20 103h124z" />
    <glyph glyph-name="glyph321" unicode="&#x1ec8;" horiz-adv-x="389" 
d="M312 0h-236l127 720h236zM363 808l-43 -28l-42 28q5 41 26 61q9 8 38 21q21 9 24 24q5 28 -23 28q-30 0 -35 -38h-84q10 47 44.5 75.5t82.5 28.5q40 0 70 -20q34 -23 34 -61q0 -46 -49 -72q-43 -23 -43 -47z" />
    <glyph glyph-name="glyph322" unicode="&#x1ec9;" horiz-adv-x="333" 
d="M270 0h-208l92 524h208zM296 617l-41 -27l-40 27q4 39 24 58q7 7 37 20q19 9 22 23q5 26 -21 26q-29 0 -34 -36h-79q10 45 42.5 72t77.5 27q37 0 66 -19q33 -22 33 -57q0 -44 -47 -69q-40 -22 -40 -45z" />
    <glyph glyph-name="glyph323" unicode="&#x1eca;" horiz-adv-x="389" 
d="M312 0h-236l127 720h236zM251 -168h-138l22 115h138z" />
    <glyph glyph-name="glyph324" unicode="&#x1ecb;" horiz-adv-x="333" 
d="M270 0h-208l92 524h208zM351 600h-164l20 103h164zM201 -157h-124l20 103h124z" />
    <glyph glyph-name="glyph325" unicode="&#x1ecc;" horiz-adv-x="833" 
d="M513 563q-73 -1 -121 -66q-39 -53 -53 -133q-6 -35 -6 -68q0 -139 111 -139q142 0 178 207q5 29 5 59q0 142 -114 140zM546 739q145 0 230 -76q89 -80 89 -223q0 -37 -7 -76q-31 -171 -150 -276q-122 -107 -295 -107q-146 0 -229 73q-88 77 -88 221q0 45 8 91
q29 168 150 270.5t292 102.5zM470 -179h-138l22 115h138z" />
    <glyph glyph-name="glyph326" unicode="&#x1ecd;" 
d="M405 399q-48 -1 -80 -45q-26 -36 -35 -87q-5 -29 -5 -51q0 -91 70 -91q90 0 115 142q4 22 4 41q0 93 -69 91zM80 256q23 134 118 209q92 74 229 74q112 0 180 -51q76 -57 76 -165q0 -28 -5 -56q-24 -134 -117.5 -208t-230.5 -74q-112 0 -179 50q-76 56 -76 164q0 28 5 57
zM381 -167h-124l20 103h124z" />
    <glyph glyph-name="glyph327" unicode="&#x1ece;" horiz-adv-x="833" 
d="M513 563q-73 -1 -121 -66q-39 -53 -53 -133q-6 -35 -6 -68q0 -139 111 -139q142 0 178 207q5 29 5 59q0 142 -114 140zM546 739q145 0 230 -76q89 -80 89 -223q0 -37 -7 -76q-31 -171 -150 -276q-122 -107 -295 -107q-146 0 -229 73q-88 77 -88 221q0 45 8 91
q29 168 150 270.5t292 102.5zM602 829l-43 -28l-42 28q5 41 26 61q9 8 38 21q21 9 24 24q5 28 -23 28q-30 0 -35 -38h-84q10 47 44.5 75.5t82.5 28.5q40 0 70 -20q34 -23 34 -61q0 -46 -49 -72q-43 -23 -43 -47z" />
    <glyph glyph-name="glyph328" unicode="&#x1ecf;" 
d="M405 399q-48 -1 -80 -45q-26 -36 -35 -87q-5 -29 -5 -51q0 -91 70 -91q90 0 115 142q4 22 4 41q0 93 -69 91zM80 256q23 134 118 209q92 74 229 74q112 0 180 -51q76 -57 76 -165q0 -28 -5 -56q-24 -134 -117.5 -208t-230.5 -74q-112 0 -179 50q-76 56 -76 164q0 28 5 57
zM468 641l-41 -27l-40 27q4 39 24 58q7 7 37 20q19 9 22 23q5 26 -21 26q-29 0 -34 -36h-79q10 45 42.5 72t77.5 27q37 0 66 -19q33 -22 33 -57q0 -44 -47 -69q-40 -22 -40 -45z" />
    <glyph glyph-name="glyph329" unicode="&#x1ed0;" horiz-adv-x="833" 
d="M513 563q-73 -1 -121 -66q-39 -53 -53 -133q-6 -35 -6 -68q0 -139 111 -139q142 0 178 207q5 29 5 59q0 142 -114 140zM546 739q145 0 230 -76q89 -80 89 -223q0 -37 -7 -76q-31 -171 -150 -276q-122 -107 -295 -107q-146 0 -229 73q-88 77 -88 221q0 45 8 91
q29 168 150 270.5t292 102.5zM343 770l167 128h124l116 -128h-128l-63 60l-89 -60h-127zM1009 947l-182 -117h-77l126 168h133v-51z" />
    <glyph glyph-name="glyph330" unicode="&#x1ed1;" 
d="M405 399q-48 -1 -80 -45q-26 -36 -35 -87q-5 -29 -5 -51q0 -91 70 -91q90 0 115 142q4 22 4 41q0 93 -69 91zM80 256q23 134 118 209q92 74 229 74q112 0 180 -51q76 -57 76 -165q0 -28 -5 -56q-24 -134 -117.5 -208t-230.5 -74q-112 0 -179 50q-76 56 -76 164q0 28 5 57
zM246 576l150 115h112l104 -115h-115l-56 54l-81 -54h-114zM846 735l-163 -105h-70l114 151h119v-46z" />
    <glyph glyph-name="glyph331" unicode="&#x1ed2;" horiz-adv-x="833" 
d="M513 563q-73 -1 -121 -66q-39 -53 -53 -133q-6 -35 -6 -68q0 -139 111 -139q142 0 178 207q5 29 5 59q0 142 -114 140zM546 739q145 0 230 -76q89 -80 89 -223q0 -37 -7 -76q-31 -171 -150 -276q-122 -107 -295 -107q-146 0 -229 73q-88 77 -88 221q0 45 8 91
q29 168 150 270.5t292 102.5zM343 770l167 128h124l116 -128h-128l-63 60l-89 -60h-127zM383 830h-77l-172 117v51h133z" />
    <glyph glyph-name="glyph332" unicode="&#x1ed3;" 
d="M405 399q-48 -1 -80 -45q-26 -36 -35 -87q-5 -29 -5 -51q0 -91 70 -91q90 0 115 142q4 22 4 41q0 93 -69 91zM80 256q23 134 118 209q92 74 229 74q112 0 180 -51q76 -57 76 -165q0 -28 -5 -56q-24 -134 -117.5 -208t-230.5 -74q-112 0 -179 50q-76 56 -76 164q0 28 5 57
zM248 576l150 115h111l105 -115h-115l-57 54l-80 -54h-114zM294 640h-70l-134 105v46h99z" />
    <glyph glyph-name="glyph333" unicode="&#x1ed4;" horiz-adv-x="833" 
d="M513 563q-73 -1 -121 -66q-39 -53 -53 -133q-6 -35 -6 -68q0 -139 111 -139q142 0 178 207q5 29 5 59q0 142 -114 140zM546 739q145 0 230 -76q89 -80 89 -223q0 -37 -7 -76q-31 -171 -150 -276q-122 -107 -295 -107q-146 0 -229 73q-88 77 -88 221q0 45 8 91
q29 168 150 270.5t292 102.5zM343 770l167 128h124l116 -128h-128l-63 60l-89 -60h-127zM826 858l-43 -28l-42 28q5 41 26 61q9 8 38 21q21 9 24 24q5 28 -23 28q-30 0 -35 -38h-84q10 47 44.5 75.5t82.5 28.5q40 0 70 -20q34 -23 34 -61q0 -46 -49 -72q-43 -23 -43 -47z
" />
    <glyph glyph-name="glyph334" unicode="&#x1ed5;" 
d="M405 399q-48 -1 -80 -45q-26 -36 -35 -87q-5 -29 -5 -51q0 -91 70 -91q90 0 115 142q4 22 4 41q0 93 -69 91zM80 256q23 134 118 209q92 74 229 74q112 0 180 -51q76 -57 76 -165q0 -28 -5 -56q-24 -134 -117.5 -208t-230.5 -74q-112 0 -179 50q-76 56 -76 164q0 28 5 57
zM246 576l151 115h111l104 -115h-115l-56 53l-80 -53h-115zM707 663l-41 -27l-40 27q4 39 24 58q7 7 37 20q19 9 22 23q5 26 -21 26q-29 0 -34 -36h-79q10 45 42.5 72t77.5 27q37 0 66 -19q33 -22 33 -57q0 -44 -47 -69q-40 -22 -40 -45z" />
    <glyph glyph-name="glyph335" unicode="&#x1ed6;" horiz-adv-x="833" 
d="M513 563q-73 -1 -121 -66q-39 -53 -53 -133q-6 -35 -6 -68q0 -139 111 -139q142 0 178 207q5 29 5 59q0 142 -114 140zM546 739q145 0 230 -76q89 -80 89 -223q0 -37 -7 -76q-31 -171 -150 -276q-122 -107 -295 -107q-146 0 -229 73q-88 77 -88 221q0 45 8 91
q29 168 150 270.5t292 102.5zM343 770l167 128h124l116 -128h-128l-63 60l-89 -60h-127zM691 1048l67 -2q-97 -112 -185 -109q-24 1 -58 18t-44 17q-22 0 -59 -34l-66 2q37 45 83 77q58 39 104 38q29 -1 85 -33q7 -3 15 -3q31 0 58 29z" />
    <glyph glyph-name="glyph336" unicode="&#x1ed7;" 
d="M405 399q-48 -1 -80 -45q-26 -36 -35 -87q-5 -29 -5 -51q0 -91 70 -91q90 0 115 142q4 22 4 41q0 93 -69 91zM80 256q23 134 118 209q92 74 229 74q112 0 180 -51q76 -57 76 -165q0 -28 -5 -56q-24 -134 -117.5 -208t-230.5 -74q-112 0 -179 50q-76 56 -76 164q0 28 5 57
zM248 576l150 115h112l104 -115h-115l-57 54l-80 -54h-114zM561 826l61 -2q-88 -101 -167 -98q-22 1 -52 16.5t-39 15.5q-20 0 -54 -31l-59 2q33 39 75 68q52 36 93 35q22 0 77 -29q6 -3 13 -3q28 0 52 26z" />
    <glyph glyph-name="glyph337" unicode="&#x1ed8;" horiz-adv-x="833" 
d="M513 563q-73 -1 -121 -66q-39 -53 -53 -133q-6 -35 -6 -68q0 -139 111 -139q142 0 178 207q5 29 5 59q0 142 -114 140zM546 739q145 0 230 -76q89 -80 89 -223q0 -37 -7 -76q-31 -171 -150 -276q-122 -107 -295 -107q-146 0 -229 73q-88 77 -88 221q0 45 8 91
q29 168 150 270.5t292 102.5zM342 770l167 128h124l116 -128h-128l-63 60l-89 -60h-127zM470 -179h-138l22 115h138z" />
    <glyph glyph-name="glyph338" unicode="&#x1ed9;" 
d="M405 399q-48 -1 -80 -45q-26 -36 -35 -87q-5 -29 -5 -51q0 -91 70 -91q90 0 115 142q4 22 4 41q0 93 -69 91zM80 256q23 134 118 209q92 74 229 74q112 0 180 -51q76 -57 76 -165q0 -28 -5 -56q-24 -134 -117.5 -208t-230.5 -74q-112 0 -179 50q-76 56 -76 164q0 28 5 57
zM248 576l150 115h111l105 -115h-115l-57 54l-80 -54h-114zM380 -167h-124l20 103h124z" />
    <glyph glyph-name="glyph339" unicode="&#x1eda;" horiz-adv-x="833" 
d="M513 563q-73 -1 -121 -66q-39 -53 -53 -133q-6 -35 -6 -68q0 -139 111 -139q142 0 178 207q5 29 5 59q0 142 -114 140zM730 696q59 6 79 23q7 8 7 17q0 20 -21 22q5 15 22 24t34 7q57 -7 57 -51q0 -58 -117 -91q74 -79 74 -207q0 -37 -7 -76q-31 -171 -150 -276
q-122 -107 -295 -107q-146 0 -229 73q-88 77 -88 221q0 45 8 91q29 168 150 270.5t292 102.5q108 0 184 -43zM767 927l-182 -117h-77l126 168h133v-51z" />
    <glyph glyph-name="glyph340" unicode="&#x1edb;" 
d="M405 399q-48 -1 -80 -45q-26 -36 -35 -87q-5 -29 -5 -51q0 -91 70 -91q90 0 115 142q4 22 4 41q0 93 -69 91zM566 512l69 11q16 12 16 21q0 17 -19 17q6 30 43 30q19 0 34 -11.5t15 -30.5q0 -47 -96 -80q55 -56 55 -146q0 -28 -5 -56q-24 -134 -117.5 -208t-230.5 -74
q-112 0 -179 50q-76 56 -76 164q0 28 5 57q23 134 118 209q92 74 229 74q82 0 139 -27zM626 729l-163 -105h-70l114 151h119v-46z" />
    <glyph glyph-name="glyph341" unicode="&#x1edc;" horiz-adv-x="833" 
d="M513 563q-73 -1 -121 -66q-39 -53 -53 -133q-6 -35 -6 -68q0 -139 111 -139q142 0 178 207q5 29 5 59q0 142 -114 140zM730 696q59 6 79 23q7 8 7 17q0 20 -21 22q5 15 22 24t34 7q57 -7 57 -51q0 -58 -117 -91q74 -79 74 -207q0 -37 -7 -76q-31 -171 -150 -276
q-122 -107 -295 -107q-146 0 -229 73q-88 77 -88 221q0 45 8 91q29 168 150 270.5t292 102.5q108 0 184 -43zM597 810h-77l-172 117v51h133z" />
    <glyph glyph-name="glyph342" unicode="&#x1edd;" 
d="M405 399q-48 -1 -80 -45q-26 -36 -35 -87q-5 -29 -5 -51q0 -91 70 -91q90 0 115 142q4 22 4 41q0 93 -69 91zM566 512l69 11q16 12 16 21q0 17 -19 17q6 30 43 30q19 0 34 -11.5t15 -30.5q0 -47 -96 -80q55 -56 55 -146q0 -28 -5 -56q-24 -134 -117.5 -208t-230.5 -74
q-112 0 -179 50q-76 56 -76 164q0 28 5 57q23 134 118 209q92 74 229 74q82 0 139 -27zM462 624h-70l-144 105v46h109z" />
    <glyph glyph-name="glyph343" unicode="&#x1ede;" horiz-adv-x="833" 
d="M513 563q-73 -1 -121 -66q-39 -53 -53 -133q-6 -35 -6 -68q0 -139 111 -139q142 0 178 207q5 29 5 59q0 142 -114 140zM730 696q59 6 79 23q7 8 7 17q0 20 -21 22q5 15 22 24t34 7q57 -7 57 -51q0 -58 -117 -91q74 -79 74 -207q0 -37 -7 -76q-31 -171 -150 -276
q-122 -107 -295 -107q-146 0 -229 73q-88 77 -88 221q0 45 8 91q29 168 150 270.5t292 102.5q108 0 184 -43zM602 829l-43 -28l-42 28q5 41 26 61q9 8 38 21q21 9 24 24q5 28 -23 28q-30 0 -35 -38h-84q10 47 44.5 75.5t82.5 28.5q40 0 70 -20q34 -23 34 -61q0 -46 -49 -72
q-43 -23 -43 -47z" />
    <glyph glyph-name="glyph344" unicode="&#x1edf;" 
d="M405 399q-48 -1 -80 -45q-26 -36 -35 -87q-5 -29 -5 -51q0 -91 70 -91q90 0 115 142q4 22 4 41q0 93 -69 91zM566 512l69 11q16 12 16 21q0 17 -19 17q6 30 43 30q19 0 34 -11.5t15 -30.5q0 -47 -96 -80q55 -56 55 -146q0 -28 -5 -56q-24 -134 -117.5 -208t-230.5 -74
q-112 0 -179 50q-76 56 -76 164q0 28 5 57q23 134 118 209q92 74 229 74q82 0 139 -27zM468 641l-41 -27l-40 27q4 39 24 58q7 7 37 20q19 9 22 23q5 26 -21 26q-29 0 -34 -36h-79q10 45 42.5 72t77.5 27q37 0 66 -19q33 -22 33 -57q0 -44 -47 -69q-40 -22 -40 -45z" />
    <glyph glyph-name="glyph345" unicode="&#x1ee0;" horiz-adv-x="833" 
d="M513 563q-73 -1 -121 -66q-39 -53 -53 -133q-6 -35 -6 -68q0 -139 111 -139q142 0 178 207q5 29 5 59q0 142 -114 140zM730 696q59 6 79 23q7 8 7 17q0 20 -21 22q5 15 22 24t34 7q57 -7 57 -51q0 -58 -117 -91q74 -79 74 -207q0 -37 -7 -76q-31 -171 -150 -276
q-122 -107 -295 -107q-146 0 -229 73q-88 77 -88 221q0 45 8 91q29 168 150 270.5t292 102.5q108 0 184 -43zM707 921l67 -2q-97 -112 -185 -109q-24 1 -58 18t-44 17q-22 0 -59 -34l-66 2q37 45 83 77q58 39 104 38q29 -1 85 -33q7 -3 15 -3q31 0 58 29z" />
    <glyph glyph-name="glyph346" unicode="&#x1ee1;" 
d="M405 399q-48 -1 -80 -45q-26 -36 -35 -87q-5 -29 -5 -51q0 -91 70 -91q90 0 115 142q4 22 4 41q0 93 -69 91zM566 512l69 11q16 12 16 21q0 17 -19 17q6 30 43 30q19 0 34 -11.5t15 -30.5q0 -47 -96 -80q55 -56 55 -146q0 -28 -5 -56q-24 -134 -117.5 -208t-230.5 -74
q-112 0 -179 50q-76 56 -76 164q0 28 5 57q23 134 118 209q92 74 229 74q82 0 139 -27zM570 724l61 -2q-88 -101 -167 -98q-22 1 -52 16.5t-39 15.5q-20 0 -54 -31l-59 2q33 39 75 68q52 36 93 35q22 0 77 -29q6 -3 13 -3q28 0 52 26z" />
    <glyph glyph-name="glyph347" unicode="&#x1ee2;" horiz-adv-x="833" 
d="M513 563q-73 -1 -121 -66q-39 -53 -53 -133q-6 -35 -6 -68q0 -139 111 -139q142 0 178 207q5 29 5 59q0 142 -114 140zM730 696q59 6 79 23q7 8 7 17q0 20 -21 22q5 15 22 24t34 7q57 -7 57 -51q0 -58 -117 -91q74 -79 74 -207q0 -37 -7 -76q-31 -171 -150 -276
q-122 -107 -295 -107q-146 0 -229 73q-88 77 -88 221q0 45 8 91q29 168 150 270.5t292 102.5q108 0 184 -43zM470 -179h-138l22 115h138z" />
    <glyph glyph-name="glyph348" unicode="&#x1ee3;" 
d="M405 399q-48 -1 -80 -45q-26 -36 -35 -87q-5 -29 -5 -51q0 -91 70 -91q90 0 115 142q4 22 4 41q0 93 -69 91zM566 512l69 11q16 12 16 21q0 17 -19 17q6 30 43 30q19 0 34 -11.5t15 -30.5q0 -47 -96 -80q55 -56 55 -146q0 -28 -5 -56q-24 -134 -117.5 -208t-230.5 -74
q-112 0 -179 50q-76 56 -76 164q0 28 5 57q23 134 118 209q92 74 229 74q82 0 139 -27zM381 -167h-124l20 103h124z" />
    <glyph glyph-name="glyph349" unicode="&#x1ee4;" horiz-adv-x="833" 
d="M125 314l72 406h236l-76 -431q-5 -28 -5 -50q0 -82 93 -82q110 0 133 132l76 431h236l-72 -407q-31 -173 -129 -252.5t-275 -79.5q-140 0 -211 47q-88 56 -88 188q0 42 10 98zM469 -179h-138l22 115h138z" />
    <glyph glyph-name="glyph350" unicode="&#x1ee5;" 
d="M710 524l-92 -524h-193l14 77q-45 -51 -91.5 -71.5t-114.5 -20.5q-155 0 -155 156q0 30 6 64l56 319h208l-50 -283q-4 -23 -4 -35q0 -60 63 -60q79 0 101 126l44 252h208zM408 -157h-124l20 103h124z" />
    <glyph glyph-name="glyph351" unicode="&#x1ee6;" horiz-adv-x="833" 
d="M125 314l72 406h236l-76 -431q-5 -28 -5 -50q0 -82 93 -82q110 0 133 132l76 431h236l-72 -407q-31 -173 -129 -252.5t-275 -79.5q-140 0 -211 47q-88 56 -88 188q0 42 10 98zM601 788l-43 -28l-42 28q5 41 26 61q9 8 38 21q21 9 24 24q5 28 -23 28q-30 0 -35 -38h-84
q10 47 44.5 75.5t82.5 28.5q40 0 70 -20q34 -23 34 -61q0 -46 -49 -72q-43 -23 -43 -47z" />
    <glyph glyph-name="glyph352" unicode="&#x1ee7;" 
d="M710 524l-92 -524h-193l14 77q-45 -51 -91.5 -71.5t-114.5 -20.5q-155 0 -155 156q0 30 6 64l56 319h208l-50 -283q-4 -23 -4 -35q0 -60 63 -60q79 0 101 126l44 252h208zM465 607l-41 -27l-40 27q4 39 24 58q7 7 37 20q19 9 22 23q5 26 -21 26q-29 0 -34 -36h-79
q10 45 42.5 72t77.5 27q37 0 66 -19q33 -22 33 -57q0 -44 -47 -69q-40 -22 -40 -45z" />
    <glyph glyph-name="glyph353" unicode="&#x1ee8;" horiz-adv-x="833" 
d="M878 638l-60 -325q-32 -174 -129.5 -253t-274.5 -79q-140 0 -211 47q-88 56 -88 188q0 42 10 98l72 406h236l-76 -431q-5 -28 -5 -50q0 -82 93 -82q110 0 133 132l76 431l235 -13q20 10 20 26q0 21 -23 21q3 15 19.5 25.5t33.5 10.5q24 0 42.5 -13.5t18.5 -36.5
q0 -57 -122 -102zM766 887l-182 -117h-77l126 168h133v-51z" />
    <glyph glyph-name="glyph354" unicode="&#x1ee9;" 
d="M699 461l-81 -461h-193l14 77q-45 -51 -91.5 -71.5t-114.5 -20.5q-155 0 -155 156q0 30 6 64l56 319h208l-50 -283q-4 -23 -4 -35q0 -60 63 -60q79 0 101 126l44 252l207 -2q6 2 12 11q6 6 6 13q0 17 -19 17q6 30 43 30q19 0 34 -11t15 -30q0 -18 -17 -36
q-38 -39 -84 -55zM623 695l-163 -105h-70l114 151h119v-46z" />
    <glyph glyph-name="glyph355" unicode="&#x1eea;" horiz-adv-x="833" 
d="M878 638l-60 -325q-32 -174 -129.5 -253t-274.5 -79q-140 0 -211 47q-88 56 -88 188q0 42 10 98l72 406h236l-76 -431q-5 -28 -5 -50q0 -82 93 -82q110 0 133 132l76 431l235 -13q20 10 20 26q0 21 -23 21q3 15 19.5 25.5t33.5 10.5q24 0 42.5 -13.5t18.5 -36.5
q0 -57 -122 -102zM596 770h-77l-172 117v51h133z" />
    <glyph glyph-name="glyph356" unicode="&#x1eeb;" 
d="M699 461l-81 -461h-193l14 77q-45 -51 -91.5 -71.5t-114.5 -20.5q-155 0 -155 156q0 30 6 64l56 319h208l-50 -283q-4 -23 -4 -35q0 -60 63 -60q79 0 101 126l44 252l207 -2q6 2 12 11q6 6 6 13q0 17 -19 17q6 30 43 30q19 0 34 -11t15 -30q0 -18 -17 -36
q-38 -39 -84 -55zM459 590h-70l-144 105v46h109z" />
    <glyph glyph-name="glyph357" unicode="&#x1eec;" horiz-adv-x="833" 
d="M878 638l-60 -325q-32 -174 -129.5 -253t-274.5 -79q-140 0 -211 47q-88 56 -88 188q0 42 10 98l72 406h236l-76 -431q-5 -28 -5 -50q0 -82 93 -82q110 0 133 132l76 431l235 -13q20 10 20 26q0 21 -23 21q3 15 19.5 25.5t33.5 10.5q24 0 42.5 -13.5t18.5 -36.5
q0 -57 -122 -102zM601 788l-43 -28l-42 28q5 41 26 61q9 8 38 21q21 9 24 24q5 28 -23 28q-30 0 -35 -38h-84q10 47 44.5 75.5t82.5 28.5q40 0 70 -20q34 -23 34 -61q0 -46 -49 -72q-43 -23 -43 -47z" />
    <glyph glyph-name="glyph358" unicode="&#x1eed;" 
d="M699 461l-81 -461h-193l14 77q-45 -51 -91.5 -71.5t-114.5 -20.5q-155 0 -155 156q0 30 6 64l56 319h208l-50 -283q-4 -23 -4 -35q0 -60 63 -60q79 0 101 126l44 252l207 -2q6 2 12 11q6 6 6 13q0 17 -19 17q6 30 43 30q19 0 34 -11t15 -30q0 -18 -17 -36
q-38 -39 -84 -55zM465 607l-41 -27l-40 27q4 39 24 58q7 7 37 20q19 9 22 23q5 26 -21 26q-29 0 -34 -36h-79q10 45 42.5 72t77.5 27q37 0 66 -19q33 -22 33 -57q0 -44 -47 -69q-40 -22 -40 -45z" />
    <glyph glyph-name="glyph359" unicode="&#x1eee;" horiz-adv-x="833" 
d="M878 638l-60 -325q-32 -174 -129.5 -253t-274.5 -79q-140 0 -211 47q-88 56 -88 188q0 42 10 98l72 406h236l-76 -431q-5 -28 -5 -50q0 -82 93 -82q110 0 133 132l76 431l235 -13q20 10 20 26q0 21 -23 21q3 15 19.5 25.5t33.5 10.5q24 0 42.5 -13.5t18.5 -36.5
q0 -57 -122 -102zM705 891l67 -2q-97 -112 -185 -109q-24 1 -58 18t-44 17q-22 0 -59 -34l-66 2q37 45 83 77q58 39 104 38q29 -1 85 -33q7 -3 15 -3q31 0 58 29z" />
    <glyph glyph-name="glyph360" unicode="&#x1eef;" 
d="M699 461l-81 -461h-193l14 77q-45 -51 -91.5 -71.5t-114.5 -20.5q-155 0 -155 156q0 30 6 64l56 319h208l-50 -283q-4 -23 -4 -35q0 -60 63 -60q79 0 101 126l44 252l207 -2q6 2 12 11q6 6 6 13q0 17 -19 17q6 30 43 30q19 0 34 -11t15 -30q0 -18 -17 -36
q-38 -39 -84 -55zM572 700l61 -2q-88 -101 -167 -98q-22 1 -52 16.5t-39 15.5q-20 0 -54 -31l-59 2q33 39 75 68q52 36 93 35q22 0 77 -29q6 -3 13 -3q28 0 52 26z" />
    <glyph glyph-name="glyph361" unicode="&#x1ef0;" horiz-adv-x="833" 
d="M878 638l-60 -325q-32 -174 -129.5 -253t-274.5 -79q-140 0 -211 47q-88 56 -88 188q0 42 10 98l72 406h236l-76 -431q-5 -28 -5 -50q0 -82 93 -82q110 0 133 132l76 431l235 -13q20 10 20 26q0 21 -23 21q3 15 19.5 25.5t33.5 10.5q24 0 42.5 -13.5t18.5 -36.5
q0 -57 -122 -102zM469 -179h-138l22 115h138z" />
    <glyph glyph-name="glyph362" unicode="&#x1ef1;" 
d="M699 461l-81 -461h-193l14 77q-45 -51 -91.5 -71.5t-114.5 -20.5q-155 0 -155 156q0 30 6 64l56 319h208l-50 -283q-4 -23 -4 -35q0 -60 63 -60q79 0 101 126l44 252l207 -2q6 2 12 11q6 6 6 13q0 17 -19 17q6 30 43 30q19 0 34 -11t15 -30q0 -18 -17 -36
q-38 -39 -84 -55zM408 -157h-124l20 103h124z" />
    <glyph glyph-name="glyph363" unicode="&#x1ef2;" horiz-adv-x="778" 
d="M554 266l-47 -266h-236l46 262l-187 458h264l81 -244l167 244h260zM556 760h-77l-172 117v51h133z" />
    <glyph glyph-name="glyph364" unicode="&#x1ef3;" horiz-adv-x="611" 
d="M307 524l35 -323l148 323h200l-254 -489q-69 -132 -112 -167q-58 -46 -187 -46q-15 0 -46 2t-46 2l26 145q-6 0 22 -1h21q75 0 75 50q0 11 -3 27l-88 477h209zM433 576h-70l-144 105v46h109z" />
    <glyph glyph-name="glyph365" unicode="&#x1ef4;" horiz-adv-x="778" 
d="M554 266l-47 -266h-236l46 262l-187 458h264l81 -244l167 244h260zM446 -169h-138l22 115h138z" />
    <glyph glyph-name="glyph366" unicode="&#x1ef5;" horiz-adv-x="611" 
d="M307 524l35 -323l148 323h200l-254 -489q-69 -132 -112 -167q-58 -46 -187 -46q-15 0 -46 2t-46 2l26 145q-6 0 22 -1h21q75 0 75 50q0 11 -3 27l-88 477h209zM534 -157h-124l20 103h124z" />
    <glyph glyph-name="glyph367" unicode="&#x1ef6;" horiz-adv-x="778" 
d="M554 266l-47 -266h-236l46 262l-187 458h264l81 -244l167 244h260zM560 778l-43 -28l-42 28q5 41 26 61q9 8 38 21q21 9 24 24q5 28 -23 28q-30 0 -35 -38h-84q10 47 44.5 75.5t82.5 28.5q40 0 70 -20q34 -23 34 -61q0 -46 -49 -72q-43 -23 -43 -47z" />
    <glyph glyph-name="glyph368" unicode="&#x1ef7;" horiz-adv-x="611" 
d="M307 524l35 -323l148 323h200l-254 -489q-69 -132 -112 -167q-58 -46 -187 -46q-15 0 -46 2t-46 2l26 145q-6 0 22 -1h21q75 0 75 50q0 11 -3 27l-88 477h209zM439 593l-41 -27l-40 27q4 39 24 58q7 7 37 20q19 9 22 23q5 26 -21 26q-29 0 -34 -36h-79q10 45 42.5 72
t77.5 27q37 0 66 -19q33 -22 33 -57q0 -44 -47 -69q-40 -22 -40 -45z" />
    <glyph glyph-name="glyph369" unicode="&#x1ef8;" horiz-adv-x="778" 
d="M554 266l-47 -266h-236l46 262l-187 458h264l81 -244l167 244h260zM656 881l67 -2q-97 -112 -185 -109q-24 1 -58 18t-44 17q-22 0 -59 -34l-66 2q37 45 83 77q58 39 104 38q29 -1 85 -33q7 -3 15 -3q31 0 58 29z" />
    <glyph glyph-name="glyph370" unicode="&#x1ef9;" horiz-adv-x="611" 
d="M307 524l35 -323l148 323h200l-254 -489q-69 -132 -112 -167q-58 -46 -187 -46q-15 0 -46 2t-46 2l26 145q-6 0 22 -1h21q75 0 75 50q0 11 -3 27l-88 477h209zM523 690l61 -2q-88 -101 -167 -98q-22 1 -52 16.5t-39 15.5q-20 0 -54 -31l-59 2q33 39 75 68q52 36 93 35
q22 0 77 -29q6 -3 13 -3q28 0 52 26z" />
    <glyph glyph-name="endash" unicode="&#x2013;" horiz-adv-x="500" 
d="M533 187h-500l24 138h500z" />
    <glyph glyph-name="emdash" unicode="&#x2014;" horiz-adv-x="1000" 
d="M1033 187h-1000l24 138h1000z" />
    <glyph glyph-name="quoteleft" unicode="&#x2018;" horiz-adv-x="278" 
d="M366 739v0l-14 -81q-82 -11 -97 -97h80l-32 -183h-183l28 158q15 90 81 148q63 57 137 55z" />
    <glyph glyph-name="quoteright" unicode="&#x2019;" horiz-adv-x="278" 
d="M105 359v0l15 81q82 14 97 97h-80l32 183h183l-28 -158q-16 -89 -80 -146.5t-139 -56.5z" />
    <glyph glyph-name="quotesinglbase" unicode="&#x201a;" horiz-adv-x="278" 
d="M11 -178v0l14 81q82 14 97 97h-80l32 183h183l-28 -158q-15 -90 -79 -147.5t-139 -55.5z" />
    <glyph glyph-name="quotedblleft" unicode="&#x201c;" horiz-adv-x="500" 
d="M601 739v0l-14 -81q-82 -11 -97 -97h80l-32 -183h-183l28 158q15 90 81 148q63 57 137 55zM354 739v0l-14 -81q-82 -11 -97 -97h80l-32 -183h-183l28 158q15 90 81 148q63 57 137 55z" />
    <glyph glyph-name="quotedblright" unicode="&#x201d;" horiz-adv-x="500" 
d="M339 359v0l15 81q82 14 97 97h-80l32 183h183l-28 -158q-16 -89 -80 -146.5t-139 -56.5zM92 359v0l15 81q82 14 97 97h-80l32 183h183l-28 -158q-16 -89 -80 -146.5t-139 -56.5z" />
    <glyph glyph-name="quotedblbase" unicode="&#x201e;" horiz-adv-x="500" 
d="M245 -178v0l14 81q82 14 97 97h-80l32 183h183l-28 -158q-15 -90 -79 -147.5t-139 -55.5zM-2 -178v0l14 81q82 14 97 97h-80l32 183h183l-28 -158q-15 -90 -79 -147.5t-139 -55.5z" />
    <glyph glyph-name="dagger" unicode="&#x2020;" 
d="M323 514l36 206h202l-36 -206h150l-28 -158h-150l-94 -534h-202l94 534h-150l28 158h150z" />
    <glyph glyph-name="daggerdbl" unicode="&#x2021;" 
d="M177 540h150l32 180h192l-32 -180h160l-28 -158h-160l-38 -218h160l-28 -158h-160l-32 -184h-192l32 184h-150l28 158h150l38 218h-150z" />
    <glyph glyph-name="bullet" unicode="&#x2022;" horiz-adv-x="500" 
d="M283 192q-62 0 -101.5 40t-39.5 99q0 78 61 138t139 60q62 0 102 -39.5t40 -99.5q0 -78 -61.5 -138t-139.5 -60z" />
    <glyph glyph-name="ellipsis" unicode="&#x2026;" horiz-adv-x="1000" 
d="M273 0h-212l36 206h212zM939 0h-212l36 206h212zM606 0h-212l36 206h212z" />
    <glyph glyph-name="perthousand" unicode="&#x2030;" horiz-adv-x="1000" 
d="M501 182q-18 0 -35.5 -14t-20.5 -33q-3 -18 9 -32.5t31 -14.5q18 0 35 14.5t20 32.5t-8.5 32.5t-30.5 14.5zM893 302q61 0 100.5 -40t39.5 -99q0 -77 -61.5 -136t-140.5 -59q-59 0 -98.5 40.5t-39.5 98.5q0 75 62.5 135t137.5 60zM872 182q-18 0 -35.5 -14t-20.5 -33
q-3 -18 9 -32.5t31 -14.5q18 0 35 14.5t20 32.5t-8.5 32.5t-30.5 14.5zM293 751q61 0 100.5 -40t39.5 -99q0 -77 -61.5 -136t-139.5 -59q-60 0 -99 40.5t-39 98.5q0 75 62 135t137 60zM611 738h85l-554 -758h-85zM272 631q-18 0 -35.5 -14t-20.5 -33t9 -33t31 -14
q18 0 35 14.5t20 32.5t-8.5 32.5t-30.5 14.5zM522 302q61 0 100.5 -40t39.5 -99q0 -77 -61.5 -136t-140.5 -59q-59 0 -98.5 40.5t-39.5 98.5q0 75 62.5 135t137.5 60z" />
    <glyph glyph-name="guilsinglleft" unicode="&#x2039;" horiz-adv-x="333" 
d="M269 64l-162 118l26 146l204 120l-23 -131l-113 -65l91 -59z" />
    <glyph glyph-name="guilsinglright" unicode="&#x203a;" horiz-adv-x="333" 
d="M154 448l162 -118l-26 -146l-204 -120l23 131l113 65l-91 59z" />
    <glyph glyph-name="fraction" unicode="&#x2044;" horiz-adv-x="167" 
d="M-72 -15h-98l532 730h98z" />
    <glyph glyph-name="franc" unicode="&#x20a3;" horiz-adv-x="1035" 
d="M310 0h-236l127 720h560l-30 -168h-324l-23 -131h258l-29 -168h-258zM704 0l92 524h189l-18 -106h2q64 121 182 121l27 -3l-37 -208q-41 6 -42 6q-66 0 -102 -34q-39 -36 -53 -119l-32 -181h-208z" />
    <glyph glyph-name="u20AB" unicode="&#x20ab;" horiz-adv-x="393" 
d="M197 501q-48 0 -84 -88q-20 -49 -20 -90q0 -51 39 -51q41 0 74 71q28 60 28 107q0 51 -37 51zM200 267q-53 -62 -106 -62q-45 0 -68 28t-23 74q0 80 55 153q59 78 136 78q34 0 61 -24l20 75h-100l10 36h100l2 16q0 31 -48 32l7 33q67 2 128 14l15 3q6 0 6 -9l-3 -12
l-19 -77h65l-10 -36h-65l-69 -280q-5 -20 -5 -27q0 -15 12 -15q6 0 49 42l20 -18q-70 -86 -117 -86q-43 0 -53 62zM9 160h221v-56h-221v56z" />
    <glyph glyph-name="trademark" unicode="&#x2122;" horiz-adv-x="950" 
d="M1013 720l-71 -404h-88l57 326h-2l-174 -326h-52l-60 326h-2l-57 -326h-88l71 404h142l49 -239l133 239h142zM498 720l-14 -78h-123l-57 -326h-97l57 326h-123l14 78h343z" />
    <glyph glyph-name="minus" unicode="&#x2212;" horiz-adv-x="660" 
d="M113 198l20 116h504l-20 -116h-504z" />
    <glyph glyph-name="SF370000" unicode="&#x255f;" horiz-adv-x="718" 
d="M506 245l-30 258l-119 -258h149zM242 0h-231l385 720h240l131 -720h-235l-11 95h-235z" />
    <glyph glyph-name="SF420000" unicode="&#x2560;" horiz-adv-x="681" 
d="M677 0h-601l127 720h587l-30 -168h-351l-18 -103h297l-29 -168h-297l-20 -113h365z" />
    <glyph glyph-name="SF190000" unicode="&#x2561;" horiz-adv-x="429" 
d="M312 0h-236l127 720h236z" />
    <glyph glyph-name="SF200000" unicode="&#x2562;" horiz-adv-x="773" 
d="M513 563q-73 -1 -121 -66q-39 -53 -53 -133q-6 -36 -6 -68q0 -139 111 -139q142 0 178 207q6 30 6 58q0 143 -115 141zM546 739q158 0 243 -89q76 -81 76 -210q0 -37 -7 -76q-31 -179 -159 -283q-121 -100 -286 -100q-149 0 -233.5 77t-84.5 217q0 43 9 91
q29 169 151.5 271t290.5 102z" />
    <glyph glyph-name="SF230000" unicode="&#x2563;" horiz-adv-x="811" 
d="M125 314l72 406h236l-76 -431q-5 -30 -5 -50q0 -82 93 -82q110 0 133 132l76 431h236l-72 -407q-30 -173 -127.5 -252.5t-276.5 -79.5q-149 0 -221 53q-77 56 -77 182q0 44 9 98z" />
    <glyph glyph-name="SF470000" unicode="&#x2564;" horiz-adv-x="699" 
d="M554 266l-47 -266h-236l46 262l-187 458h264l81 -244l167 244h260z" />
    <glyph glyph-name="SF480000" unicode="&#x2565;" horiz-adv-x="541" 
d="M634 0h-215v56q-89 -71 -210 -71q-71 0 -114 31q-48 33 -48 96q0 15 3 31q18 103 122 143q43 17 186 35q99 13 105 50q8 43 -60 43q-67 0 -82 -51h-200q31 176 317 176q134 0 188 -37q46 -32 46 -99q0 -29 -9 -81l-43 -245q-4 -19 -4 -27q0 -21 20 -40zM324 103
q101 0 115 129q-25 -11 -73.5 -21t-65.5 -19q-29 -15 -34 -45q-8 -44 58 -44z" />
    <glyph glyph-name="SF410000" unicode="&#x2566;" horiz-adv-x="431" 
d="M296 321h189q1 7 1 14q0 32 -22.5 54.5t-54.5 22.5q-97 0 -113 -91zM674 215h-397q-2 -10 -2 -20q0 -37 24.5 -60t62.5 -23q55 0 86 46h199q-41 -90 -137 -135q-80 -38 -184 -38q-115 0 -183 55q-72 58 -72 161q0 27 5 56q23 127 121 204.5t226 77.5q123 0 191 -66.5
t68 -179.5q0 -38 -8 -78z" />
    <glyph glyph-name="SF450000" unicode="&#x2567;" horiz-adv-x="314" 
d="M270 0h-208l92 524h208zM166 591l26 148h208l-26 -148h-208z" />
    <glyph glyph-name="SF460000" unicode="&#x2568;" horiz-adv-x="314" 
d="M270 0h-208l92 524h208z" />
    <glyph glyph-name="SF400000" unicode="&#x2569;" horiz-adv-x="498" 
d="M405 399q-48 -1 -80 -45q-26 -34 -35 -87q-5 -29 -5 -52q0 -90 70 -90q90 0 115 142q4 21 4 40q0 94 -69 92zM80 256q24 134 119 210q93 73 228 73q121 0 188.5 -58.5t67.5 -158.5q0 -26 -5 -55q-24 -138 -123 -213q-92 -69 -225 -69q-115 0 -183 54q-72 57 -72 160
q0 27 5 57z" />
    <glyph glyph-name="SF540000" unicode="&#x256a;" horiz-adv-x="557" 
d="M710 524l-92 -524h-193l14 77q-48 -53 -93.5 -72.5t-112.5 -19.5q-155 0 -155 156q0 30 6 64l56 319h208l-50 -283q-3 -21 -3 -36q0 -59 62 -59q79 0 101 126l44 252h208z" />
    <glyph glyph-name="SF530000" unicode="&#x256b;" horiz-adv-x="497" 
d="M307 524l35 -323l148 323h200l-254 -489q-69 -133 -112 -167q-57 -46 -187 -46q-22 0 -54 2t-38 2l26 145q8 0 22 -1h21q75 0 75 50q0 11 -3 27l-88 477h209z" />
    <glyph glyph-name="circle" unicode="&#x25cb;" horiz-adv-x="718" 
d="M298 822l147 148h164l96 -148h-148l-43 76l-69 -76h-147zM372 1010l126 148h209l-198 -148h-137z" />
    <glyph glyph-name="H18533" unicode="&#x25cf;" horiz-adv-x="718" 
d="M298 822l147 148h164l96 -148h-148l-43 76l-69 -76h-147zM405 1159h208l74 -148h-137z" />
    <glyph glyph-name="invbullet" unicode="&#x25d8;" horiz-adv-x="718" 
d="M298 822l147 148h164l96 -148h-148l-43 76l-69 -76h-147zM614 903q9 29 11 64q1 11 8 13q3 0 8 1q67 11 67 54q0 35 -28 35q-5 0 -14 -1t-14 -1q-21 0 -21 18q0 28 32 28q46 0 76 -25.5t26 -70.5q-6 -59 -87 -81q-25 -7 -31 -34h-33z" />
    <glyph glyph-name="invcircle" unicode="&#x25d9;" horiz-adv-x="718" 
d="M298 822l147 148h164l96 -148h-148l-43 76l-69 -76h-147zM689 1149v0h80q-43 -133 -149 -133q-33 0 -77.5 18.5t-61.5 18.5q-28 0 -50 -43h-79q17 56 53 95q42 46 95 46q30 0 60 -11.5t59 -23.5q9 -3 18 -3q40 0 52 36z" />
    <glyph glyph-name="fi" unicode="&#xf001;" 
d="M506 524h208l-92 -524h-208zM752 739l-26 -148h-208l26 148h208zM149 404h-69l21 120h70q23 130 84 177q50 38 159 38h89l-23 -131q-57 0 -73 -10q-22 -15 -29 -74h87l-21 -120h-87l-71 -404h-208z" />
    <glyph glyph-name="fl" unicode="&#xf002;" 
d="M541 720h208l-127 -720h-208zM378 524h87l-21 -120h-87l-71 -404h-208l71 404h-69l21 120h70q23 130 84 177q50 38 159 38h89l-23 -131q-57 0 -73 -10q-22 -15 -29 -74z" />
    <glyph glyph-name="periodcentered" horiz-adv-x="333" 
d="M188 126q-47 0 -78 31t-31 77q0 59 47.5 105.5t107.5 46.5q47 0 78 -31t31 -77q0 -59 -47.5 -105.5t-107.5 -46.5z" />
    <glyph glyph-name="glyph275" horiz-adv-x="249" 
 />
    <glyph glyph-name="glyph276" horiz-adv-x="249" 
 />
    <glyph glyph-name="glyph261" horiz-adv-x="500" 
d="M253 522q9 29 11 64q1 11 8 13q3 0 8 1q67 11 67 54q0 35 -28 35q-5 0 -14 -1t-14 -1q-21 0 -21 18q0 28 32 28q46 0 76 -25.5t26 -70.5q-6 -59 -87 -81q-25 -7 -31 -34h-33z" />
    <glyph glyph-name="glyph262" horiz-adv-x="541" 
d="M95 590l147 148h164l96 -148h-148l-43 76l-69 -76h-147zM168 779l126 148h209l-198 -148h-137z" />
    <glyph glyph-name="glyph263" horiz-adv-x="541" 
d="M95 590l147 148h164l96 -148h-148l-43 76l-69 -76h-147zM202 927h208l74 -148h-137z" />
    <glyph glyph-name="glyph264" horiz-adv-x="541" 
d="M95 590l147 148h164l96 -148h-148l-43 76l-69 -76h-147zM411 671q9 29 11 64q1 11 8 13q3 0 8 1q67 11 67 54q0 35 -28 35q-5 0 -14 -1t-14 -1q-21 0 -21 18q0 28 32 28q46 0 76 -25.5t26 -70.5q-6 -59 -87 -81q-25 -7 -31 -34h-33z" />
    <glyph glyph-name="glyph265" horiz-adv-x="541" 
d="M95 590l147 148h164l96 -148h-148l-43 76l-69 -76h-147zM486 917v0h80q-43 -133 -149 -133q-33 0 -77.5 18.5t-61.5 18.5q-28 0 -50 -43h-79q17 56 53 95q42 46 95 46q30 0 60 -11.5t59 -23.5q9 -3 18 -3q40 0 52 36z" />
    <glyph glyph-name="glyph266" horiz-adv-x="541" 
d="M149 742h79q-3 -62 96 -62q89 0 110 62h78q-16 -74 -77 -115q-57 -38 -133 -38q-154 0 -154 127q0 12 1 26zM247 779l126 148h209l-198 -148h-137z" />
    <glyph glyph-name="glyph267" horiz-adv-x="541" 
d="M149 742h79q-3 -62 96 -62q89 0 110 62h78q-16 -74 -77 -115q-57 -38 -133 -38q-154 0 -154 127q0 12 1 26zM149 927h208l74 -148h-137z" />
    <glyph glyph-name="glyph268" horiz-adv-x="541" 
d="M149 742h79q-3 -62 96 -62q89 0 110 62h78q-16 -74 -77 -115q-57 -38 -133 -38q-154 0 -154 127q0 12 1 26zM306 671q9 29 11 64q1 11 8 13q3 0 8 1q67 11 67 54q0 35 -28 35q-5 0 -14 -1t-14 -1q-21 0 -21 18q0 28 32 28q46 0 76 -25.5t26 -70.5q-6 -59 -87 -81
q-25 -7 -31 -34h-33z" />
    <glyph glyph-name="glyph269" horiz-adv-x="541" 
d="M149 742h79q-3 -62 96 -62q89 0 110 62h78q-16 -74 -77 -115q-57 -38 -133 -38q-154 0 -154 127q0 12 1 26zM486 917v0h80q-43 -133 -149 -133q-33 0 -77.5 18.5t-61.5 18.5q-28 0 -50 -43h-79q17 56 53 95q42 46 95 46q30 0 60 -11.5t59 -23.5q9 -3 18 -3q40 0 52 36z
" />
    <glyph glyph-name="glyph270" horiz-adv-x="249" 
 />
  </font>
</defs>
</svg>
